%TF.GenerationSoftware,KiCad,Pcbnew,9.0.7*%
%TF.CreationDate,2026-03-16T20:31:42+01:00*%
%TF.ProjectId,WatchDog_Optokoppler,57617463-6844-46f6-975f-4f70746f6b6f,rev?*%
%TF.SameCoordinates,Original*%
%TF.FileFunction,Legend,Top*%
%TF.FilePolarity,Positive*%
%FSLAX46Y46*%
G04 Gerber Fmt 4.6, Leading zero omitted, Abs format (unit mm)*
G04 Created by KiCad (PCBNEW 9.0.7) date 2026-03-16 20:31:42*
%MOMM*%
%LPD*%
G01*
G04 APERTURE LIST*
%ADD10C,0.162500*%
%ADD11C,0.150000*%
%ADD12C,0.120000*%
%ADD13C,0.127000*%
%ADD14C,0.200000*%
G04 APERTURE END LIST*
D10*
X129360802Y-61197588D02*
X129360802Y-60826159D01*
X130010802Y-61011873D02*
X129360802Y-61011873D01*
X130010802Y-60238064D02*
X129701278Y-60454731D01*
X130010802Y-60609493D02*
X129360802Y-60609493D01*
X129360802Y-60609493D02*
X129360802Y-60361874D01*
X129360802Y-60361874D02*
X129391754Y-60299969D01*
X129391754Y-60299969D02*
X129422707Y-60269016D01*
X129422707Y-60269016D02*
X129484611Y-60238064D01*
X129484611Y-60238064D02*
X129577469Y-60238064D01*
X129577469Y-60238064D02*
X129639373Y-60269016D01*
X129639373Y-60269016D02*
X129670326Y-60299969D01*
X129670326Y-60299969D02*
X129701278Y-60361874D01*
X129701278Y-60361874D02*
X129701278Y-60609493D01*
X130010802Y-59959493D02*
X129360802Y-59959493D01*
X129391754Y-59309492D02*
X129360802Y-59371397D01*
X129360802Y-59371397D02*
X129360802Y-59464254D01*
X129360802Y-59464254D02*
X129391754Y-59557111D01*
X129391754Y-59557111D02*
X129453659Y-59619016D01*
X129453659Y-59619016D02*
X129515564Y-59649969D01*
X129515564Y-59649969D02*
X129639373Y-59680921D01*
X129639373Y-59680921D02*
X129732230Y-59680921D01*
X129732230Y-59680921D02*
X129856040Y-59649969D01*
X129856040Y-59649969D02*
X129917945Y-59619016D01*
X129917945Y-59619016D02*
X129979850Y-59557111D01*
X129979850Y-59557111D02*
X130010802Y-59464254D01*
X130010802Y-59464254D02*
X130010802Y-59402350D01*
X130010802Y-59402350D02*
X129979850Y-59309492D01*
X129979850Y-59309492D02*
X129948897Y-59278540D01*
X129948897Y-59278540D02*
X129732230Y-59278540D01*
X129732230Y-59278540D02*
X129732230Y-59402350D01*
D11*
X150942074Y-61572747D02*
X150911122Y-61603700D01*
X150911122Y-61603700D02*
X150818264Y-61634652D01*
X150818264Y-61634652D02*
X150756360Y-61634652D01*
X150756360Y-61634652D02*
X150663503Y-61603700D01*
X150663503Y-61603700D02*
X150601598Y-61541795D01*
X150601598Y-61541795D02*
X150570645Y-61479890D01*
X150570645Y-61479890D02*
X150539693Y-61356080D01*
X150539693Y-61356080D02*
X150539693Y-61263223D01*
X150539693Y-61263223D02*
X150570645Y-61139414D01*
X150570645Y-61139414D02*
X150601598Y-61077509D01*
X150601598Y-61077509D02*
X150663503Y-61015604D01*
X150663503Y-61015604D02*
X150756360Y-60984652D01*
X150756360Y-60984652D02*
X150818264Y-60984652D01*
X150818264Y-60984652D02*
X150911122Y-61015604D01*
X150911122Y-61015604D02*
X150942074Y-61046557D01*
X150621445Y-58500176D02*
X150838112Y-58500176D01*
X150930969Y-58840652D02*
X150621445Y-58840652D01*
X150621445Y-58840652D02*
X150621445Y-58190652D01*
X150621445Y-58190652D02*
X150930969Y-58190652D01*
D10*
X129391754Y-56141454D02*
X129360802Y-56203359D01*
X129360802Y-56203359D02*
X129360802Y-56296216D01*
X129360802Y-56296216D02*
X129391754Y-56389073D01*
X129391754Y-56389073D02*
X129453659Y-56450978D01*
X129453659Y-56450978D02*
X129515564Y-56481931D01*
X129515564Y-56481931D02*
X129639373Y-56512883D01*
X129639373Y-56512883D02*
X129732230Y-56512883D01*
X129732230Y-56512883D02*
X129856040Y-56481931D01*
X129856040Y-56481931D02*
X129917945Y-56450978D01*
X129917945Y-56450978D02*
X129979850Y-56389073D01*
X129979850Y-56389073D02*
X130010802Y-56296216D01*
X130010802Y-56296216D02*
X130010802Y-56234312D01*
X130010802Y-56234312D02*
X129979850Y-56141454D01*
X129979850Y-56141454D02*
X129948897Y-56110502D01*
X129948897Y-56110502D02*
X129732230Y-56110502D01*
X129732230Y-56110502D02*
X129732230Y-56234312D01*
X130010802Y-55831931D02*
X129360802Y-55831931D01*
X129360802Y-55831931D02*
X130010802Y-55460502D01*
X130010802Y-55460502D02*
X129360802Y-55460502D01*
X130010802Y-55150979D02*
X129360802Y-55150979D01*
X129360802Y-55150979D02*
X129360802Y-54996217D01*
X129360802Y-54996217D02*
X129391754Y-54903360D01*
X129391754Y-54903360D02*
X129453659Y-54841455D01*
X129453659Y-54841455D02*
X129515564Y-54810502D01*
X129515564Y-54810502D02*
X129639373Y-54779550D01*
X129639373Y-54779550D02*
X129732230Y-54779550D01*
X129732230Y-54779550D02*
X129856040Y-54810502D01*
X129856040Y-54810502D02*
X129917945Y-54841455D01*
X129917945Y-54841455D02*
X129979850Y-54903360D01*
X129979850Y-54903360D02*
X130010802Y-54996217D01*
X130010802Y-54996217D02*
X130010802Y-55150979D01*
X129360802Y-53276807D02*
X129360802Y-53586331D01*
X129360802Y-53586331D02*
X129670326Y-53617283D01*
X129670326Y-53617283D02*
X129639373Y-53586331D01*
X129639373Y-53586331D02*
X129608421Y-53524426D01*
X129608421Y-53524426D02*
X129608421Y-53369664D01*
X129608421Y-53369664D02*
X129639373Y-53307759D01*
X129639373Y-53307759D02*
X129670326Y-53276807D01*
X129670326Y-53276807D02*
X129732230Y-53245854D01*
X129732230Y-53245854D02*
X129886992Y-53245854D01*
X129886992Y-53245854D02*
X129948897Y-53276807D01*
X129948897Y-53276807D02*
X129979850Y-53307759D01*
X129979850Y-53307759D02*
X130010802Y-53369664D01*
X130010802Y-53369664D02*
X130010802Y-53524426D01*
X130010802Y-53524426D02*
X129979850Y-53586331D01*
X129979850Y-53586331D02*
X129948897Y-53617283D01*
X129360802Y-53060140D02*
X130010802Y-52843473D01*
X130010802Y-52843473D02*
X129360802Y-52626806D01*
X126285364Y-62406402D02*
X126440126Y-63056402D01*
X126440126Y-63056402D02*
X126563935Y-62592116D01*
X126563935Y-62592116D02*
X126687745Y-63056402D01*
X126687745Y-63056402D02*
X126842507Y-62406402D01*
X127090125Y-63056402D02*
X127090125Y-62406402D01*
X127090125Y-62406402D02*
X127244887Y-62406402D01*
X127244887Y-62406402D02*
X127337744Y-62437354D01*
X127337744Y-62437354D02*
X127399649Y-62499259D01*
X127399649Y-62499259D02*
X127430602Y-62561164D01*
X127430602Y-62561164D02*
X127461554Y-62684973D01*
X127461554Y-62684973D02*
X127461554Y-62777830D01*
X127461554Y-62777830D02*
X127430602Y-62901640D01*
X127430602Y-62901640D02*
X127399649Y-62963545D01*
X127399649Y-62963545D02*
X127337744Y-63025450D01*
X127337744Y-63025450D02*
X127244887Y-63056402D01*
X127244887Y-63056402D02*
X127090125Y-63056402D01*
X128173459Y-62623069D02*
X128328221Y-63056402D01*
X128328221Y-63056402D02*
X128482982Y-62623069D01*
X129071078Y-63056402D02*
X128699649Y-63056402D01*
X128885363Y-63056402D02*
X128885363Y-62406402D01*
X128885363Y-62406402D02*
X128823459Y-62499259D01*
X128823459Y-62499259D02*
X128761554Y-62561164D01*
X128761554Y-62561164D02*
X128699649Y-62592116D01*
X129349649Y-62994497D02*
X129380602Y-63025450D01*
X129380602Y-63025450D02*
X129349649Y-63056402D01*
X129349649Y-63056402D02*
X129318697Y-63025450D01*
X129318697Y-63025450D02*
X129349649Y-62994497D01*
X129349649Y-62994497D02*
X129349649Y-63056402D01*
X129782983Y-62406402D02*
X129844888Y-62406402D01*
X129844888Y-62406402D02*
X129906792Y-62437354D01*
X129906792Y-62437354D02*
X129937745Y-62468307D01*
X129937745Y-62468307D02*
X129968697Y-62530211D01*
X129968697Y-62530211D02*
X129999650Y-62654021D01*
X129999650Y-62654021D02*
X129999650Y-62808783D01*
X129999650Y-62808783D02*
X129968697Y-62932592D01*
X129968697Y-62932592D02*
X129937745Y-62994497D01*
X129937745Y-62994497D02*
X129906792Y-63025450D01*
X129906792Y-63025450D02*
X129844888Y-63056402D01*
X129844888Y-63056402D02*
X129782983Y-63056402D01*
X129782983Y-63056402D02*
X129721078Y-63025450D01*
X129721078Y-63025450D02*
X129690126Y-62994497D01*
X129690126Y-62994497D02*
X129659173Y-62932592D01*
X129659173Y-62932592D02*
X129628221Y-62808783D01*
X129628221Y-62808783D02*
X129628221Y-62654021D01*
X129628221Y-62654021D02*
X129659173Y-62530211D01*
X129659173Y-62530211D02*
X129690126Y-62468307D01*
X129690126Y-62468307D02*
X129721078Y-62437354D01*
X129721078Y-62437354D02*
X129782983Y-62406402D01*
D11*
X131804066Y-51792997D02*
X131773114Y-51823950D01*
X131773114Y-51823950D02*
X131680256Y-51854902D01*
X131680256Y-51854902D02*
X131618352Y-51854902D01*
X131618352Y-51854902D02*
X131525495Y-51823950D01*
X131525495Y-51823950D02*
X131463590Y-51762045D01*
X131463590Y-51762045D02*
X131432637Y-51700140D01*
X131432637Y-51700140D02*
X131401685Y-51576330D01*
X131401685Y-51576330D02*
X131401685Y-51483473D01*
X131401685Y-51483473D02*
X131432637Y-51359664D01*
X131432637Y-51359664D02*
X131463590Y-51297759D01*
X131463590Y-51297759D02*
X131525495Y-51235854D01*
X131525495Y-51235854D02*
X131618352Y-51204902D01*
X131618352Y-51204902D02*
X131680256Y-51204902D01*
X131680256Y-51204902D02*
X131773114Y-51235854D01*
X131773114Y-51235854D02*
X131804066Y-51266807D01*
X132361209Y-51421569D02*
X132361209Y-51854902D01*
X132206447Y-51173950D02*
X132051685Y-51638235D01*
X132051685Y-51638235D02*
X132454066Y-51638235D01*
X141750666Y-61952997D02*
X141719714Y-61983950D01*
X141719714Y-61983950D02*
X141626856Y-62014902D01*
X141626856Y-62014902D02*
X141564952Y-62014902D01*
X141564952Y-62014902D02*
X141472095Y-61983950D01*
X141472095Y-61983950D02*
X141410190Y-61922045D01*
X141410190Y-61922045D02*
X141379237Y-61860140D01*
X141379237Y-61860140D02*
X141348285Y-61736330D01*
X141348285Y-61736330D02*
X141348285Y-61643473D01*
X141348285Y-61643473D02*
X141379237Y-61519664D01*
X141379237Y-61519664D02*
X141410190Y-61457759D01*
X141410190Y-61457759D02*
X141472095Y-61395854D01*
X141472095Y-61395854D02*
X141564952Y-61364902D01*
X141564952Y-61364902D02*
X141626856Y-61364902D01*
X141626856Y-61364902D02*
X141719714Y-61395854D01*
X141719714Y-61395854D02*
X141750666Y-61426807D01*
X141998285Y-61426807D02*
X142029237Y-61395854D01*
X142029237Y-61395854D02*
X142091142Y-61364902D01*
X142091142Y-61364902D02*
X142245904Y-61364902D01*
X142245904Y-61364902D02*
X142307809Y-61395854D01*
X142307809Y-61395854D02*
X142338761Y-61426807D01*
X142338761Y-61426807D02*
X142369714Y-61488711D01*
X142369714Y-61488711D02*
X142369714Y-61550616D01*
X142369714Y-61550616D02*
X142338761Y-61643473D01*
X142338761Y-61643473D02*
X141967333Y-62014902D01*
X141967333Y-62014902D02*
X142369714Y-62014902D01*
X134384666Y-62333997D02*
X134353714Y-62364950D01*
X134353714Y-62364950D02*
X134260856Y-62395902D01*
X134260856Y-62395902D02*
X134198952Y-62395902D01*
X134198952Y-62395902D02*
X134106095Y-62364950D01*
X134106095Y-62364950D02*
X134044190Y-62303045D01*
X134044190Y-62303045D02*
X134013237Y-62241140D01*
X134013237Y-62241140D02*
X133982285Y-62117330D01*
X133982285Y-62117330D02*
X133982285Y-62024473D01*
X133982285Y-62024473D02*
X134013237Y-61900664D01*
X134013237Y-61900664D02*
X134044190Y-61838759D01*
X134044190Y-61838759D02*
X134106095Y-61776854D01*
X134106095Y-61776854D02*
X134198952Y-61745902D01*
X134198952Y-61745902D02*
X134260856Y-61745902D01*
X134260856Y-61745902D02*
X134353714Y-61776854D01*
X134353714Y-61776854D02*
X134384666Y-61807807D01*
X134601333Y-61745902D02*
X135003714Y-61745902D01*
X135003714Y-61745902D02*
X134787047Y-61993521D01*
X134787047Y-61993521D02*
X134879904Y-61993521D01*
X134879904Y-61993521D02*
X134941809Y-62024473D01*
X134941809Y-62024473D02*
X134972761Y-62055426D01*
X134972761Y-62055426D02*
X135003714Y-62117330D01*
X135003714Y-62117330D02*
X135003714Y-62272092D01*
X135003714Y-62272092D02*
X134972761Y-62333997D01*
X134972761Y-62333997D02*
X134941809Y-62364950D01*
X134941809Y-62364950D02*
X134879904Y-62395902D01*
X134879904Y-62395902D02*
X134694190Y-62395902D01*
X134694190Y-62395902D02*
X134632285Y-62364950D01*
X134632285Y-62364950D02*
X134601333Y-62333997D01*
X147770466Y-60846502D02*
X147553799Y-60536978D01*
X147399037Y-60846502D02*
X147399037Y-60196502D01*
X147399037Y-60196502D02*
X147646656Y-60196502D01*
X147646656Y-60196502D02*
X147708561Y-60227454D01*
X147708561Y-60227454D02*
X147739514Y-60258407D01*
X147739514Y-60258407D02*
X147770466Y-60320311D01*
X147770466Y-60320311D02*
X147770466Y-60413169D01*
X147770466Y-60413169D02*
X147739514Y-60475073D01*
X147739514Y-60475073D02*
X147708561Y-60506026D01*
X147708561Y-60506026D02*
X147646656Y-60536978D01*
X147646656Y-60536978D02*
X147399037Y-60536978D01*
X148327609Y-60413169D02*
X148327609Y-60846502D01*
X148172847Y-60165550D02*
X148018085Y-60629835D01*
X148018085Y-60629835D02*
X148420466Y-60629835D01*
X141750666Y-59601902D02*
X141533999Y-59292378D01*
X141379237Y-59601902D02*
X141379237Y-58951902D01*
X141379237Y-58951902D02*
X141626856Y-58951902D01*
X141626856Y-58951902D02*
X141688761Y-58982854D01*
X141688761Y-58982854D02*
X141719714Y-59013807D01*
X141719714Y-59013807D02*
X141750666Y-59075711D01*
X141750666Y-59075711D02*
X141750666Y-59168569D01*
X141750666Y-59168569D02*
X141719714Y-59230473D01*
X141719714Y-59230473D02*
X141688761Y-59261426D01*
X141688761Y-59261426D02*
X141626856Y-59292378D01*
X141626856Y-59292378D02*
X141379237Y-59292378D01*
X141967333Y-58951902D02*
X142369714Y-58951902D01*
X142369714Y-58951902D02*
X142153047Y-59199521D01*
X142153047Y-59199521D02*
X142245904Y-59199521D01*
X142245904Y-59199521D02*
X142307809Y-59230473D01*
X142307809Y-59230473D02*
X142338761Y-59261426D01*
X142338761Y-59261426D02*
X142369714Y-59323330D01*
X142369714Y-59323330D02*
X142369714Y-59478092D01*
X142369714Y-59478092D02*
X142338761Y-59539997D01*
X142338761Y-59539997D02*
X142307809Y-59570950D01*
X142307809Y-59570950D02*
X142245904Y-59601902D01*
X142245904Y-59601902D02*
X142060190Y-59601902D01*
X142060190Y-59601902D02*
X141998285Y-59570950D01*
X141998285Y-59570950D02*
X141967333Y-59539997D01*
X149899695Y-57606407D02*
X149837790Y-57575454D01*
X149837790Y-57575454D02*
X149775885Y-57513550D01*
X149775885Y-57513550D02*
X149683028Y-57420692D01*
X149683028Y-57420692D02*
X149621123Y-57389740D01*
X149621123Y-57389740D02*
X149559219Y-57389740D01*
X149590171Y-57544502D02*
X149528266Y-57513550D01*
X149528266Y-57513550D02*
X149466361Y-57451645D01*
X149466361Y-57451645D02*
X149435409Y-57327835D01*
X149435409Y-57327835D02*
X149435409Y-57111169D01*
X149435409Y-57111169D02*
X149466361Y-56987359D01*
X149466361Y-56987359D02*
X149528266Y-56925454D01*
X149528266Y-56925454D02*
X149590171Y-56894502D01*
X149590171Y-56894502D02*
X149713980Y-56894502D01*
X149713980Y-56894502D02*
X149775885Y-56925454D01*
X149775885Y-56925454D02*
X149837790Y-56987359D01*
X149837790Y-56987359D02*
X149868742Y-57111169D01*
X149868742Y-57111169D02*
X149868742Y-57327835D01*
X149868742Y-57327835D02*
X149837790Y-57451645D01*
X149837790Y-57451645D02*
X149775885Y-57513550D01*
X149775885Y-57513550D02*
X149713980Y-57544502D01*
X149713980Y-57544502D02*
X149590171Y-57544502D01*
X150487790Y-57544502D02*
X150116361Y-57544502D01*
X150302075Y-57544502D02*
X150302075Y-56894502D01*
X150302075Y-56894502D02*
X150240171Y-56987359D01*
X150240171Y-56987359D02*
X150178266Y-57049264D01*
X150178266Y-57049264D02*
X150116361Y-57080216D01*
X131498637Y-63284902D02*
X131498637Y-62634902D01*
X131498637Y-62634902D02*
X131653399Y-62634902D01*
X131653399Y-62634902D02*
X131746256Y-62665854D01*
X131746256Y-62665854D02*
X131808161Y-62727759D01*
X131808161Y-62727759D02*
X131839114Y-62789664D01*
X131839114Y-62789664D02*
X131870066Y-62913473D01*
X131870066Y-62913473D02*
X131870066Y-63006330D01*
X131870066Y-63006330D02*
X131839114Y-63130140D01*
X131839114Y-63130140D02*
X131808161Y-63192045D01*
X131808161Y-63192045D02*
X131746256Y-63253950D01*
X131746256Y-63253950D02*
X131653399Y-63284902D01*
X131653399Y-63284902D02*
X131498637Y-63284902D01*
X132489114Y-63284902D02*
X132117685Y-63284902D01*
X132303399Y-63284902D02*
X132303399Y-62634902D01*
X132303399Y-62634902D02*
X132241495Y-62727759D01*
X132241495Y-62727759D02*
X132179590Y-62789664D01*
X132179590Y-62789664D02*
X132117685Y-62820616D01*
X128307333Y-51154102D02*
X128307333Y-51618388D01*
X128307333Y-51618388D02*
X128276380Y-51711245D01*
X128276380Y-51711245D02*
X128214476Y-51773150D01*
X128214476Y-51773150D02*
X128121618Y-51804102D01*
X128121618Y-51804102D02*
X128059714Y-51804102D01*
X128957333Y-51804102D02*
X128585904Y-51804102D01*
X128771618Y-51804102D02*
X128771618Y-51154102D01*
X128771618Y-51154102D02*
X128709714Y-51246959D01*
X128709714Y-51246959D02*
X128647809Y-51308864D01*
X128647809Y-51308864D02*
X128585904Y-51339816D01*
X137172761Y-51357302D02*
X137172761Y-51883492D01*
X137172761Y-51883492D02*
X137203714Y-51945397D01*
X137203714Y-51945397D02*
X137234666Y-51976350D01*
X137234666Y-51976350D02*
X137296571Y-52007302D01*
X137296571Y-52007302D02*
X137420380Y-52007302D01*
X137420380Y-52007302D02*
X137482285Y-51976350D01*
X137482285Y-51976350D02*
X137513238Y-51945397D01*
X137513238Y-51945397D02*
X137544190Y-51883492D01*
X137544190Y-51883492D02*
X137544190Y-51357302D01*
X138194190Y-52007302D02*
X137822761Y-52007302D01*
X138008475Y-52007302D02*
X138008475Y-51357302D01*
X138008475Y-51357302D02*
X137946571Y-51450159D01*
X137946571Y-51450159D02*
X137884666Y-51512064D01*
X137884666Y-51512064D02*
X137822761Y-51543016D01*
X145046761Y-53871902D02*
X145046761Y-54398092D01*
X145046761Y-54398092D02*
X145077714Y-54459997D01*
X145077714Y-54459997D02*
X145108666Y-54490950D01*
X145108666Y-54490950D02*
X145170571Y-54521902D01*
X145170571Y-54521902D02*
X145294380Y-54521902D01*
X145294380Y-54521902D02*
X145356285Y-54490950D01*
X145356285Y-54490950D02*
X145387238Y-54459997D01*
X145387238Y-54459997D02*
X145418190Y-54398092D01*
X145418190Y-54398092D02*
X145418190Y-53871902D01*
X145696761Y-53933807D02*
X145727713Y-53902854D01*
X145727713Y-53902854D02*
X145789618Y-53871902D01*
X145789618Y-53871902D02*
X145944380Y-53871902D01*
X145944380Y-53871902D02*
X146006285Y-53902854D01*
X146006285Y-53902854D02*
X146037237Y-53933807D01*
X146037237Y-53933807D02*
X146068190Y-53995711D01*
X146068190Y-53995711D02*
X146068190Y-54057616D01*
X146068190Y-54057616D02*
X146037237Y-54150473D01*
X146037237Y-54150473D02*
X145665809Y-54521902D01*
X145665809Y-54521902D02*
X146068190Y-54521902D01*
X141623666Y-51981902D02*
X141406999Y-51672378D01*
X141252237Y-51981902D02*
X141252237Y-51331902D01*
X141252237Y-51331902D02*
X141499856Y-51331902D01*
X141499856Y-51331902D02*
X141561761Y-51362854D01*
X141561761Y-51362854D02*
X141592714Y-51393807D01*
X141592714Y-51393807D02*
X141623666Y-51455711D01*
X141623666Y-51455711D02*
X141623666Y-51548569D01*
X141623666Y-51548569D02*
X141592714Y-51610473D01*
X141592714Y-51610473D02*
X141561761Y-51641426D01*
X141561761Y-51641426D02*
X141499856Y-51672378D01*
X141499856Y-51672378D02*
X141252237Y-51672378D01*
X142180809Y-51331902D02*
X142056999Y-51331902D01*
X142056999Y-51331902D02*
X141995095Y-51362854D01*
X141995095Y-51362854D02*
X141964142Y-51393807D01*
X141964142Y-51393807D02*
X141902237Y-51486664D01*
X141902237Y-51486664D02*
X141871285Y-51610473D01*
X141871285Y-51610473D02*
X141871285Y-51858092D01*
X141871285Y-51858092D02*
X141902237Y-51919997D01*
X141902237Y-51919997D02*
X141933190Y-51950950D01*
X141933190Y-51950950D02*
X141995095Y-51981902D01*
X141995095Y-51981902D02*
X142118904Y-51981902D01*
X142118904Y-51981902D02*
X142180809Y-51950950D01*
X142180809Y-51950950D02*
X142211761Y-51919997D01*
X142211761Y-51919997D02*
X142242714Y-51858092D01*
X142242714Y-51858092D02*
X142242714Y-51703330D01*
X142242714Y-51703330D02*
X142211761Y-51641426D01*
X142211761Y-51641426D02*
X142180809Y-51610473D01*
X142180809Y-51610473D02*
X142118904Y-51579521D01*
X142118904Y-51579521D02*
X141995095Y-51579521D01*
X141995095Y-51579521D02*
X141933190Y-51610473D01*
X141933190Y-51610473D02*
X141902237Y-51641426D01*
X141902237Y-51641426D02*
X141871285Y-51703330D01*
X144976466Y-56274502D02*
X144759799Y-55964978D01*
X144605037Y-56274502D02*
X144605037Y-55624502D01*
X144605037Y-55624502D02*
X144852656Y-55624502D01*
X144852656Y-55624502D02*
X144914561Y-55655454D01*
X144914561Y-55655454D02*
X144945514Y-55686407D01*
X144945514Y-55686407D02*
X144976466Y-55748311D01*
X144976466Y-55748311D02*
X144976466Y-55841169D01*
X144976466Y-55841169D02*
X144945514Y-55903073D01*
X144945514Y-55903073D02*
X144914561Y-55934026D01*
X144914561Y-55934026D02*
X144852656Y-55964978D01*
X144852656Y-55964978D02*
X144605037Y-55964978D01*
X145224085Y-55686407D02*
X145255037Y-55655454D01*
X145255037Y-55655454D02*
X145316942Y-55624502D01*
X145316942Y-55624502D02*
X145471704Y-55624502D01*
X145471704Y-55624502D02*
X145533609Y-55655454D01*
X145533609Y-55655454D02*
X145564561Y-55686407D01*
X145564561Y-55686407D02*
X145595514Y-55748311D01*
X145595514Y-55748311D02*
X145595514Y-55810216D01*
X145595514Y-55810216D02*
X145564561Y-55903073D01*
X145564561Y-55903073D02*
X145193133Y-56274502D01*
X145193133Y-56274502D02*
X145595514Y-56274502D01*
X150252933Y-59586902D02*
X150252933Y-60051188D01*
X150252933Y-60051188D02*
X150221980Y-60144045D01*
X150221980Y-60144045D02*
X150160076Y-60205950D01*
X150160076Y-60205950D02*
X150067218Y-60236902D01*
X150067218Y-60236902D02*
X150005314Y-60236902D01*
X150500552Y-59586902D02*
X150902933Y-59586902D01*
X150902933Y-59586902D02*
X150686266Y-59834521D01*
X150686266Y-59834521D02*
X150779123Y-59834521D01*
X150779123Y-59834521D02*
X150841028Y-59865473D01*
X150841028Y-59865473D02*
X150871980Y-59896426D01*
X150871980Y-59896426D02*
X150902933Y-59958330D01*
X150902933Y-59958330D02*
X150902933Y-60113092D01*
X150902933Y-60113092D02*
X150871980Y-60174997D01*
X150871980Y-60174997D02*
X150841028Y-60205950D01*
X150841028Y-60205950D02*
X150779123Y-60236902D01*
X150779123Y-60236902D02*
X150593409Y-60236902D01*
X150593409Y-60236902D02*
X150531504Y-60205950D01*
X150531504Y-60205950D02*
X150500552Y-60174997D01*
X128358133Y-58164502D02*
X128358133Y-58628788D01*
X128358133Y-58628788D02*
X128327180Y-58721645D01*
X128327180Y-58721645D02*
X128265276Y-58783550D01*
X128265276Y-58783550D02*
X128172418Y-58814502D01*
X128172418Y-58814502D02*
X128110514Y-58814502D01*
X128636704Y-58226407D02*
X128667656Y-58195454D01*
X128667656Y-58195454D02*
X128729561Y-58164502D01*
X128729561Y-58164502D02*
X128884323Y-58164502D01*
X128884323Y-58164502D02*
X128946228Y-58195454D01*
X128946228Y-58195454D02*
X128977180Y-58226407D01*
X128977180Y-58226407D02*
X129008133Y-58288311D01*
X129008133Y-58288311D02*
X129008133Y-58350216D01*
X129008133Y-58350216D02*
X128977180Y-58443073D01*
X128977180Y-58443073D02*
X128605752Y-58814502D01*
X128605752Y-58814502D02*
X129008133Y-58814502D01*
X131870066Y-62319702D02*
X131653399Y-62010178D01*
X131498637Y-62319702D02*
X131498637Y-61669702D01*
X131498637Y-61669702D02*
X131746256Y-61669702D01*
X131746256Y-61669702D02*
X131808161Y-61700654D01*
X131808161Y-61700654D02*
X131839114Y-61731607D01*
X131839114Y-61731607D02*
X131870066Y-61793511D01*
X131870066Y-61793511D02*
X131870066Y-61886369D01*
X131870066Y-61886369D02*
X131839114Y-61948273D01*
X131839114Y-61948273D02*
X131808161Y-61979226D01*
X131808161Y-61979226D02*
X131746256Y-62010178D01*
X131746256Y-62010178D02*
X131498637Y-62010178D01*
X132489114Y-62319702D02*
X132117685Y-62319702D01*
X132303399Y-62319702D02*
X132303399Y-61669702D01*
X132303399Y-61669702D02*
X132241495Y-61762559D01*
X132241495Y-61762559D02*
X132179590Y-61824464D01*
X132179590Y-61824464D02*
X132117685Y-61855416D01*
X131844666Y-61405302D02*
X131627999Y-61095778D01*
X131473237Y-61405302D02*
X131473237Y-60755302D01*
X131473237Y-60755302D02*
X131720856Y-60755302D01*
X131720856Y-60755302D02*
X131782761Y-60786254D01*
X131782761Y-60786254D02*
X131813714Y-60817207D01*
X131813714Y-60817207D02*
X131844666Y-60879111D01*
X131844666Y-60879111D02*
X131844666Y-60971969D01*
X131844666Y-60971969D02*
X131813714Y-61033873D01*
X131813714Y-61033873D02*
X131782761Y-61064826D01*
X131782761Y-61064826D02*
X131720856Y-61095778D01*
X131720856Y-61095778D02*
X131473237Y-61095778D01*
X132432761Y-60755302D02*
X132123237Y-60755302D01*
X132123237Y-60755302D02*
X132092285Y-61064826D01*
X132092285Y-61064826D02*
X132123237Y-61033873D01*
X132123237Y-61033873D02*
X132185142Y-61002921D01*
X132185142Y-61002921D02*
X132339904Y-61002921D01*
X132339904Y-61002921D02*
X132401809Y-61033873D01*
X132401809Y-61033873D02*
X132432761Y-61064826D01*
X132432761Y-61064826D02*
X132463714Y-61126730D01*
X132463714Y-61126730D02*
X132463714Y-61281492D01*
X132463714Y-61281492D02*
X132432761Y-61343397D01*
X132432761Y-61343397D02*
X132401809Y-61374350D01*
X132401809Y-61374350D02*
X132339904Y-61405302D01*
X132339904Y-61405302D02*
X132185142Y-61405302D01*
X132185142Y-61405302D02*
X132123237Y-61374350D01*
X132123237Y-61374350D02*
X132092285Y-61343397D01*
D12*
%TO.C,C4*%
X132173652Y-52274800D02*
X131651148Y-52274800D01*
X132173652Y-53744800D02*
X131651148Y-53744800D01*
%TO.C,C2*%
X144472252Y-61037800D02*
X143949748Y-61037800D01*
X144472252Y-62507800D02*
X143949748Y-62507800D01*
%TO.C,C3*%
X135430000Y-58090400D02*
X135430000Y-59290400D01*
X135430000Y-62610400D02*
X135430000Y-61410400D01*
X138885563Y-58090400D02*
X135430000Y-58090400D01*
X138885563Y-62610400D02*
X135430000Y-62610400D01*
X139950000Y-59154837D02*
X138885563Y-58090400D01*
X139950000Y-59154837D02*
X139950000Y-59290400D01*
X139950000Y-61545963D02*
X138885563Y-62610400D01*
X139950000Y-61545963D02*
X139950000Y-61410400D01*
X140440000Y-62160400D02*
X140440000Y-61660400D01*
X140690000Y-61910400D02*
X140190000Y-61910400D01*
%TO.C,R4*%
X148107764Y-61088600D02*
X147653636Y-61088600D01*
X148107764Y-62558600D02*
X147653636Y-62558600D01*
%TO.C,R3*%
X143996036Y-58574000D02*
X144450164Y-58574000D01*
X143996036Y-60044000D02*
X144450164Y-60044000D01*
%TO.C,Q1*%
X148262100Y-56860000D02*
X147612100Y-56860000D01*
X148262100Y-56860000D02*
X148912100Y-56860000D01*
X148262100Y-59980000D02*
X147612100Y-59980000D01*
X148262100Y-59980000D02*
X148912100Y-59980000D01*
X147099600Y-56910000D02*
X146859600Y-56580000D01*
X147339600Y-56580000D01*
X147099600Y-56910000D01*
G36*
X147099600Y-56910000D02*
G01*
X146859600Y-56580000D01*
X147339600Y-56580000D01*
X147099600Y-56910000D01*
G37*
%TO.C,D1*%
X130270300Y-58679200D02*
X130270300Y-60599200D01*
X130270300Y-60599200D02*
X132955300Y-60599200D01*
X132955300Y-58679200D02*
X130270300Y-58679200D01*
%TO.C,J1*%
X126331200Y-51802600D02*
X127711200Y-51802600D01*
X126331200Y-53182600D02*
X126331200Y-51802600D01*
X126331200Y-54452600D02*
X126331200Y-57102600D01*
X126331200Y-54452600D02*
X129091200Y-54452600D01*
X126331200Y-57102600D02*
X129091200Y-57102600D01*
X129091200Y-54452600D02*
X129091200Y-57102600D01*
%TO.C,U1*%
X137660000Y-52405200D02*
X135710000Y-52405200D01*
X137660000Y-52405200D02*
X139610000Y-52405200D01*
X137660000Y-57525200D02*
X135710000Y-57525200D01*
X137660000Y-57525200D02*
X139610000Y-57525200D01*
X134960000Y-52500200D02*
X134720000Y-52170200D01*
X135200000Y-52170200D01*
X134960000Y-52500200D01*
G36*
X134960000Y-52500200D02*
G01*
X134720000Y-52170200D01*
X135200000Y-52170200D01*
X134960000Y-52500200D01*
G37*
D13*
%TO.C,U2*%
X148269600Y-51925000D02*
X152669600Y-51925000D01*
X148269600Y-52085000D02*
X148269600Y-51925000D01*
X148269600Y-56025000D02*
X148269600Y-55865000D01*
X152669600Y-51925000D02*
X152669600Y-52085000D01*
X152669600Y-56025000D02*
X148269600Y-56025000D01*
X152669600Y-56025000D02*
X152669600Y-55865000D01*
D14*
X146025600Y-52705000D02*
G75*
G02*
X145825600Y-52705000I-100000J0D01*
G01*
X145825600Y-52705000D02*
G75*
G02*
X146025600Y-52705000I100000J0D01*
G01*
D12*
%TO.C,R6*%
X144370164Y-51843000D02*
X143916036Y-51843000D01*
X144370164Y-53313000D02*
X143916036Y-53313000D01*
%TO.C,R2*%
X142749600Y-55756436D02*
X142749600Y-56210564D01*
X144219600Y-55756436D02*
X144219600Y-56210564D01*
%TO.C,J3*%
X151477200Y-57294000D02*
X152857200Y-57294000D01*
X151477200Y-58674000D02*
X151477200Y-57294000D01*
X151477200Y-59944000D02*
X151477200Y-62594000D01*
X151477200Y-59944000D02*
X154237200Y-59944000D01*
X151477200Y-62594000D02*
X154237200Y-62594000D01*
X154237200Y-59944000D02*
X154237200Y-62594000D01*
%TO.C,J2*%
X126331200Y-58818000D02*
X127711200Y-58818000D01*
X126331200Y-60198000D02*
X126331200Y-58818000D01*
X126331200Y-61468000D02*
X126331200Y-61578000D01*
X126331200Y-61468000D02*
X129091200Y-61468000D01*
X126331200Y-61578000D02*
X129091200Y-61578000D01*
X129091200Y-61468000D02*
X129091200Y-61578000D01*
%TO.C,R1*%
X131749436Y-56669000D02*
X132203564Y-56669000D01*
X131749436Y-58139000D02*
X132203564Y-58139000D01*
%TO.C,R5*%
X132176964Y-54510000D02*
X131722836Y-54510000D01*
X132176964Y-55980000D02*
X131722836Y-55980000D01*
%TD*%
M02*
