%TF.GenerationSoftware,KiCad,Pcbnew,9.0.7*%
%TF.CreationDate,2026-03-16T20:31:42+01:00*%
%TF.ProjectId,WatchDog_Optokoppler,57617463-6844-46f6-975f-4f70746f6b6f,rev?*%
%TF.SameCoordinates,Original*%
%TF.FileFunction,Copper,L2,Bot*%
%TF.FilePolarity,Positive*%
%FSLAX46Y46*%
G04 Gerber Fmt 4.6, Leading zero omitted, Abs format (unit mm)*
G04 Created by KiCad (PCBNEW 9.0.7) date 2026-03-16 20:31:42*
%MOMM*%
%LPD*%
G01*
G04 APERTURE LIST*
%TA.AperFunction,ComponentPad*%
%ADD10R,1.700000X1.700000*%
%TD*%
%TA.AperFunction,ComponentPad*%
%ADD11C,1.700000*%
%TD*%
%TA.AperFunction,ViaPad*%
%ADD12C,0.600000*%
%TD*%
%TA.AperFunction,Conductor*%
%ADD13C,0.200000*%
%TD*%
G04 APERTURE END LIST*
D10*
%TO.P,J1,1,Pin_1*%
%TO.N,Net-(J1-Pin_1)*%
X127711200Y-53182600D03*
D11*
%TO.P,J1,2,Pin_2*%
%TO.N,GND*%
X127711200Y-55722600D03*
%TD*%
D10*
%TO.P,J3,1,Pin_1*%
%TO.N,Net-(J3-Pin_1)*%
X152857200Y-58674000D03*
D11*
%TO.P,J3,2,Pin_2*%
%TO.N,Net-(J3-Pin_2)*%
X152857200Y-61214000D03*
%TD*%
D10*
%TO.P,J2,1,Pin_1*%
%TO.N,Net-(D1-K)*%
X127711200Y-60198000D03*
%TD*%
D12*
%TO.N,Net-(D1-A)*%
X138887200Y-58978800D03*
X134112000Y-58978800D03*
%TO.N,GND*%
X136652000Y-53086000D03*
X145161000Y-60553600D03*
X136906000Y-60350400D03*
X148717000Y-59436000D03*
%TD*%
D13*
%TO.N,Net-(D1-A)*%
X138887200Y-58978800D02*
X134112000Y-58978800D01*
%TD*%
%TA.AperFunction,Conductor*%
%TO.N,GND*%
G36*
X154762539Y-50940185D02*
G01*
X154808294Y-50992989D01*
X154819500Y-51044500D01*
X154819500Y-63255500D01*
X154799815Y-63322539D01*
X154747011Y-63368294D01*
X154695500Y-63379500D01*
X125974500Y-63379500D01*
X125907461Y-63359815D01*
X125861706Y-63307011D01*
X125850500Y-63255500D01*
X125850500Y-59323321D01*
X126610700Y-59323321D01*
X126610700Y-61072678D01*
X126625232Y-61145735D01*
X126625233Y-61145739D01*
X126625234Y-61145740D01*
X126680599Y-61228601D01*
X126763460Y-61283966D01*
X126763464Y-61283967D01*
X126836521Y-61298499D01*
X126836524Y-61298500D01*
X126836526Y-61298500D01*
X128585876Y-61298500D01*
X128585877Y-61298499D01*
X128658940Y-61283966D01*
X128741801Y-61228601D01*
X128797166Y-61145740D01*
X128797167Y-61145735D01*
X128800817Y-61127389D01*
X151756700Y-61127389D01*
X151756700Y-61300611D01*
X151783798Y-61471701D01*
X151837327Y-61636445D01*
X151915968Y-61790788D01*
X152017786Y-61930928D01*
X152140272Y-62053414D01*
X152280412Y-62155232D01*
X152434755Y-62233873D01*
X152599499Y-62287402D01*
X152770589Y-62314500D01*
X152770590Y-62314500D01*
X152943810Y-62314500D01*
X152943811Y-62314500D01*
X153114901Y-62287402D01*
X153279645Y-62233873D01*
X153433988Y-62155232D01*
X153574128Y-62053414D01*
X153696614Y-61930928D01*
X153798432Y-61790788D01*
X153877073Y-61636445D01*
X153930602Y-61471701D01*
X153957700Y-61300611D01*
X153957700Y-61127389D01*
X153930602Y-60956299D01*
X153877073Y-60791555D01*
X153798432Y-60637212D01*
X153696614Y-60497072D01*
X153574128Y-60374586D01*
X153433988Y-60272768D01*
X153279645Y-60194127D01*
X153114901Y-60140598D01*
X153114899Y-60140597D01*
X153114898Y-60140597D01*
X152983471Y-60119781D01*
X152943811Y-60113500D01*
X152770589Y-60113500D01*
X152730928Y-60119781D01*
X152599502Y-60140597D01*
X152434752Y-60194128D01*
X152280411Y-60272768D01*
X152200456Y-60330859D01*
X152140272Y-60374586D01*
X152140270Y-60374588D01*
X152140269Y-60374588D01*
X152017788Y-60497069D01*
X152017788Y-60497070D01*
X152017786Y-60497072D01*
X151974059Y-60557256D01*
X151915968Y-60637211D01*
X151837328Y-60791552D01*
X151783797Y-60956302D01*
X151765366Y-61072674D01*
X151756700Y-61127389D01*
X128800817Y-61127389D01*
X128806598Y-61098326D01*
X128806598Y-61098325D01*
X128811700Y-61072676D01*
X128811700Y-59323323D01*
X128811699Y-59323321D01*
X128797167Y-59250264D01*
X128797166Y-59250260D01*
X128741801Y-59167399D01*
X128658940Y-59112034D01*
X128658939Y-59112033D01*
X128658935Y-59112032D01*
X128585877Y-59097500D01*
X128585874Y-59097500D01*
X126836526Y-59097500D01*
X126836523Y-59097500D01*
X126763464Y-59112032D01*
X126763460Y-59112033D01*
X126680599Y-59167399D01*
X126625233Y-59250260D01*
X126625232Y-59250264D01*
X126610700Y-59323321D01*
X125850500Y-59323321D01*
X125850500Y-58906325D01*
X133561500Y-58906325D01*
X133561500Y-59051275D01*
X133577781Y-59112034D01*
X133599017Y-59191288D01*
X133671488Y-59316811D01*
X133671490Y-59316813D01*
X133671491Y-59316815D01*
X133773985Y-59419309D01*
X133773986Y-59419310D01*
X133773988Y-59419311D01*
X133899511Y-59491782D01*
X133899512Y-59491782D01*
X133899515Y-59491784D01*
X134039525Y-59529300D01*
X134039528Y-59529300D01*
X134184472Y-59529300D01*
X134184475Y-59529300D01*
X134324485Y-59491784D01*
X134450015Y-59419309D01*
X134503705Y-59365619D01*
X134565028Y-59332134D01*
X134591386Y-59329300D01*
X138407814Y-59329300D01*
X138474853Y-59348985D01*
X138495495Y-59365619D01*
X138549185Y-59419309D01*
X138549186Y-59419310D01*
X138549188Y-59419311D01*
X138674711Y-59491782D01*
X138674712Y-59491782D01*
X138674715Y-59491784D01*
X138814725Y-59529300D01*
X138814728Y-59529300D01*
X138959672Y-59529300D01*
X138959675Y-59529300D01*
X139099685Y-59491784D01*
X139225215Y-59419309D01*
X139327709Y-59316815D01*
X139400184Y-59191285D01*
X139437700Y-59051275D01*
X139437700Y-58906325D01*
X139400184Y-58766315D01*
X139327709Y-58640785D01*
X139225215Y-58538291D01*
X139225213Y-58538290D01*
X139225211Y-58538288D01*
X139099688Y-58465817D01*
X139099689Y-58465817D01*
X139088206Y-58462740D01*
X138959675Y-58428300D01*
X138814725Y-58428300D01*
X138686193Y-58462740D01*
X138674711Y-58465817D01*
X138549188Y-58538288D01*
X138549182Y-58538293D01*
X138495495Y-58591981D01*
X138434172Y-58625466D01*
X138407814Y-58628300D01*
X134591386Y-58628300D01*
X134524347Y-58608615D01*
X134503705Y-58591981D01*
X134450017Y-58538293D01*
X134450011Y-58538288D01*
X134324488Y-58465817D01*
X134324489Y-58465817D01*
X134313006Y-58462740D01*
X134184475Y-58428300D01*
X134039525Y-58428300D01*
X133910993Y-58462740D01*
X133899511Y-58465817D01*
X133773988Y-58538288D01*
X133773982Y-58538293D01*
X133671493Y-58640782D01*
X133671488Y-58640788D01*
X133599017Y-58766311D01*
X133599016Y-58766315D01*
X133561500Y-58906325D01*
X125850500Y-58906325D01*
X125850500Y-57799321D01*
X151756700Y-57799321D01*
X151756700Y-59548678D01*
X151771232Y-59621735D01*
X151771233Y-59621739D01*
X151771234Y-59621740D01*
X151826599Y-59704601D01*
X151909460Y-59759966D01*
X151909464Y-59759967D01*
X151982521Y-59774499D01*
X151982524Y-59774500D01*
X151982526Y-59774500D01*
X153731876Y-59774500D01*
X153731877Y-59774499D01*
X153804940Y-59759966D01*
X153887801Y-59704601D01*
X153943166Y-59621740D01*
X153957700Y-59548674D01*
X153957700Y-57799326D01*
X153957700Y-57799323D01*
X153957699Y-57799321D01*
X153943167Y-57726264D01*
X153943166Y-57726260D01*
X153887801Y-57643399D01*
X153804940Y-57588034D01*
X153804939Y-57588033D01*
X153804935Y-57588032D01*
X153731877Y-57573500D01*
X153731874Y-57573500D01*
X151982526Y-57573500D01*
X151982523Y-57573500D01*
X151909464Y-57588032D01*
X151909460Y-57588033D01*
X151826599Y-57643399D01*
X151771233Y-57726260D01*
X151771232Y-57726264D01*
X151756700Y-57799321D01*
X125850500Y-57799321D01*
X125850500Y-55616353D01*
X126361200Y-55616353D01*
X126361200Y-55828846D01*
X126394442Y-56038727D01*
X126394442Y-56038730D01*
X126460104Y-56240817D01*
X126556575Y-56430150D01*
X126595928Y-56484316D01*
X127228237Y-55852008D01*
X127245275Y-55915593D01*
X127311101Y-56029607D01*
X127404193Y-56122699D01*
X127518207Y-56188525D01*
X127581790Y-56205562D01*
X126949482Y-56837869D01*
X126949482Y-56837870D01*
X127003649Y-56877224D01*
X127192982Y-56973695D01*
X127395070Y-57039357D01*
X127604954Y-57072600D01*
X127817446Y-57072600D01*
X128027327Y-57039357D01*
X128027330Y-57039357D01*
X128229417Y-56973695D01*
X128418754Y-56877222D01*
X128472916Y-56837870D01*
X128472917Y-56837870D01*
X127840608Y-56205562D01*
X127904193Y-56188525D01*
X128018207Y-56122699D01*
X128111299Y-56029607D01*
X128177125Y-55915593D01*
X128194162Y-55852009D01*
X128826470Y-56484317D01*
X128826470Y-56484316D01*
X128865822Y-56430154D01*
X128962295Y-56240817D01*
X129027957Y-56038730D01*
X129027957Y-56038727D01*
X129061200Y-55828846D01*
X129061200Y-55616353D01*
X129027957Y-55406472D01*
X129027957Y-55406469D01*
X128962295Y-55204382D01*
X128865824Y-55015049D01*
X128826470Y-54960882D01*
X128826469Y-54960882D01*
X128194162Y-55593190D01*
X128177125Y-55529607D01*
X128111299Y-55415593D01*
X128018207Y-55322501D01*
X127904193Y-55256675D01*
X127840609Y-55239637D01*
X128472916Y-54607328D01*
X128418750Y-54567975D01*
X128319855Y-54517585D01*
X128269059Y-54469610D01*
X128252264Y-54401789D01*
X128274802Y-54335654D01*
X128329517Y-54292203D01*
X128376150Y-54283100D01*
X128585876Y-54283100D01*
X128585877Y-54283099D01*
X128658940Y-54268566D01*
X128741801Y-54213201D01*
X128797166Y-54130340D01*
X128811700Y-54057274D01*
X128811700Y-52307926D01*
X128811700Y-52307923D01*
X128811699Y-52307921D01*
X128797167Y-52234864D01*
X128797166Y-52234860D01*
X128741801Y-52151999D01*
X128658940Y-52096634D01*
X128658939Y-52096633D01*
X128658935Y-52096632D01*
X128585877Y-52082100D01*
X128585874Y-52082100D01*
X126836526Y-52082100D01*
X126836523Y-52082100D01*
X126763464Y-52096632D01*
X126763460Y-52096633D01*
X126680599Y-52151999D01*
X126625233Y-52234860D01*
X126625232Y-52234864D01*
X126610700Y-52307921D01*
X126610700Y-54057278D01*
X126625232Y-54130335D01*
X126625233Y-54130339D01*
X126625234Y-54130340D01*
X126680599Y-54213201D01*
X126763460Y-54268566D01*
X126763464Y-54268567D01*
X126836521Y-54283099D01*
X126836524Y-54283100D01*
X127046251Y-54283100D01*
X127113290Y-54302785D01*
X127159045Y-54355589D01*
X127168989Y-54424747D01*
X127139964Y-54488303D01*
X127102546Y-54517585D01*
X127003639Y-54567980D01*
X126949482Y-54607327D01*
X126949482Y-54607328D01*
X127581791Y-55239637D01*
X127518207Y-55256675D01*
X127404193Y-55322501D01*
X127311101Y-55415593D01*
X127245275Y-55529607D01*
X127228237Y-55593191D01*
X126595928Y-54960882D01*
X126595927Y-54960882D01*
X126556580Y-55015039D01*
X126460104Y-55204382D01*
X126394442Y-55406469D01*
X126394442Y-55406472D01*
X126361200Y-55616353D01*
X125850500Y-55616353D01*
X125850500Y-51044500D01*
X125870185Y-50977461D01*
X125922989Y-50931706D01*
X125974500Y-50920500D01*
X154695500Y-50920500D01*
X154762539Y-50940185D01*
G37*
%TD.AperFunction*%
%TD*%
M02*
