ISO-10303-21;
HEADER;
/* Generated by software containing ST-Developer
 * from STEP Tools, Inc. (www.steptools.com) 
 */

FILE_DESCRIPTION(
/* description */ ('Dekcel TAIT PLEXER'),
/* implementation_level */ '2;1');

FILE_NAME(
/* name */ 'deckel.stp',
/* time_stamp */ '2026-04-17T09:50:04+02:00',
/* author */ ('nathanael.callegari'),
/* organization */ (''),
/* preprocessor_version */ 'ST-DEVELOPER v20',
/* originating_system */ 'Autodesk Inventor 2025',
/* authorisation */ '');

FILE_SCHEMA (('AUTOMOTIVE_DESIGN { 1 0 10303 214 3 1 1 }'));
ENDSEC;

DATA;
#10=MECHANICAL_DESIGN_GEOMETRIC_PRESENTATION_REPRESENTATION('',(#13),#1338);
#11=SHAPE_REPRESENTATION_RELATIONSHIP('SRR','None',#1345,#12);
#12=ADVANCED_BREP_SHAPE_REPRESENTATION('',(#14),#1337);
#13=STYLED_ITEM('',(#1354),#14);
#14=MANIFOLD_SOLID_BREP('Volumenk\X\F6rper1',#801);
#15=CYLINDRICAL_SURFACE('',#845,2.);
#16=CYLINDRICAL_SURFACE('',#848,1.25);
#17=CYLINDRICAL_SURFACE('',#850,1.25);
#18=CYLINDRICAL_SURFACE('',#852,1.25);
#19=CYLINDRICAL_SURFACE('',#854,1.25);
#20=CYLINDRICAL_SURFACE('',#856,2.);
#21=CYLINDRICAL_SURFACE('',#861,2.);
#22=CYLINDRICAL_SURFACE('',#862,2.);
#23=CYLINDRICAL_SURFACE('',#867,2.);
#24=CYLINDRICAL_SURFACE('',#868,2.);
#25=CYLINDRICAL_SURFACE('',#871,2.);
#26=CYLINDRICAL_SURFACE('',#873,2.);
#27=FACE_BOUND('',#84,.T.);
#28=FACE_BOUND('',#86,.T.);
#29=FACE_BOUND('',#89,.T.);
#30=FACE_BOUND('',#90,.T.);
#31=FACE_BOUND('',#91,.T.);
#32=FACE_BOUND('',#92,.T.);
#33=FACE_BOUND('',#93,.T.);
#34=FACE_BOUND('',#96,.T.);
#35=FACE_BOUND('',#98,.T.);
#36=FACE_BOUND('',#109,.T.);
#37=FACE_BOUND('',#114,.T.);
#38=FACE_BOUND('',#122,.T.);
#39=FACE_BOUND('',#126,.T.);
#40=FACE_OUTER_BOUND('',#83,.T.);
#41=FACE_OUTER_BOUND('',#85,.T.);
#42=FACE_OUTER_BOUND('',#87,.T.);
#43=FACE_OUTER_BOUND('',#88,.T.);
#44=FACE_OUTER_BOUND('',#94,.T.);
#45=FACE_OUTER_BOUND('',#95,.T.);
#46=FACE_OUTER_BOUND('',#97,.T.);
#47=FACE_OUTER_BOUND('',#99,.T.);
#48=FACE_OUTER_BOUND('',#100,.T.);
#49=FACE_OUTER_BOUND('',#101,.T.);
#50=FACE_OUTER_BOUND('',#102,.T.);
#51=FACE_OUTER_BOUND('',#103,.T.);
#52=FACE_OUTER_BOUND('',#104,.T.);
#53=FACE_OUTER_BOUND('',#105,.T.);
#54=FACE_OUTER_BOUND('',#106,.T.);
#55=FACE_OUTER_BOUND('',#107,.T.);
#56=FACE_OUTER_BOUND('',#108,.T.);
#57=FACE_OUTER_BOUND('',#110,.T.);
#58=FACE_OUTER_BOUND('',#111,.T.);
#59=FACE_OUTER_BOUND('',#112,.T.);
#60=FACE_OUTER_BOUND('',#113,.T.);
#61=FACE_OUTER_BOUND('',#115,.T.);
#62=FACE_OUTER_BOUND('',#116,.T.);
#63=FACE_OUTER_BOUND('',#117,.T.);
#64=FACE_OUTER_BOUND('',#118,.T.);
#65=FACE_OUTER_BOUND('',#119,.T.);
#66=FACE_OUTER_BOUND('',#120,.T.);
#67=FACE_OUTER_BOUND('',#121,.T.);
#68=FACE_OUTER_BOUND('',#123,.T.);
#69=FACE_OUTER_BOUND('',#124,.T.);
#70=FACE_OUTER_BOUND('',#125,.T.);
#71=FACE_OUTER_BOUND('',#127,.T.);
#72=FACE_OUTER_BOUND('',#128,.T.);
#73=FACE_OUTER_BOUND('',#129,.T.);
#74=FACE_OUTER_BOUND('',#130,.T.);
#75=FACE_OUTER_BOUND('',#131,.T.);
#76=FACE_OUTER_BOUND('',#132,.T.);
#77=FACE_OUTER_BOUND('',#133,.T.);
#78=FACE_OUTER_BOUND('',#134,.T.);
#79=FACE_OUTER_BOUND('',#135,.T.);
#80=FACE_OUTER_BOUND('',#136,.T.);
#81=FACE_OUTER_BOUND('',#137,.T.);
#82=FACE_OUTER_BOUND('',#138,.T.);
#83=EDGE_LOOP('',(#511,#512,#513,#514,#515,#516));
#84=EDGE_LOOP('',(#517));
#85=EDGE_LOOP('',(#518,#519,#520,#521,#522,#523));
#86=EDGE_LOOP('',(#524));
#87=EDGE_LOOP('',(#525,#526,#527,#528));
#88=EDGE_LOOP('',(#529,#530,#531,#532));
#89=EDGE_LOOP('',(#533,#534,#535,#536));
#90=EDGE_LOOP('',(#537,#538,#539,#540));
#91=EDGE_LOOP('',(#541,#542,#543,#544));
#92=EDGE_LOOP('',(#545,#546,#547,#548));
#93=EDGE_LOOP('',(#549,#550,#551,#552));
#94=EDGE_LOOP('',(#553,#554,#555,#556));
#95=EDGE_LOOP('',(#557,#558,#559,#560,#561,#562));
#96=EDGE_LOOP('',(#563));
#97=EDGE_LOOP('',(#564,#565,#566,#567,#568,#569));
#98=EDGE_LOOP('',(#570));
#99=EDGE_LOOP('',(#571,#572,#573,#574));
#100=EDGE_LOOP('',(#575,#576,#577,#578));
#101=EDGE_LOOP('',(#579,#580,#581,#582));
#102=EDGE_LOOP('',(#583,#584,#585,#586));
#103=EDGE_LOOP('',(#587,#588,#589,#590));
#104=EDGE_LOOP('',(#591,#592,#593,#594));
#105=EDGE_LOOP('',(#595,#596,#597,#598));
#106=EDGE_LOOP('',(#599,#600,#601,#602));
#107=EDGE_LOOP('',(#603,#604,#605,#606));
#108=EDGE_LOOP('',(#607,#608,#609,#610,#611,#612));
#109=EDGE_LOOP('',(#613));
#110=EDGE_LOOP('',(#614,#615,#616,#617));
#111=EDGE_LOOP('',(#618,#619,#620,#621));
#112=EDGE_LOOP('',(#622,#623,#624,#625));
#113=EDGE_LOOP('',(#626,#627,#628,#629,#630,#631));
#114=EDGE_LOOP('',(#632));
#115=EDGE_LOOP('',(#633,#634,#635,#636));
#116=EDGE_LOOP('',(#637,#638,#639,#640));
#117=EDGE_LOOP('',(#641,#642,#643,#644));
#118=EDGE_LOOP('',(#645,#646,#647,#648));
#119=EDGE_LOOP('',(#649,#650,#651,#652));
#120=EDGE_LOOP('',(#653,#654,#655,#656));
#121=EDGE_LOOP('',(#657,#658,#659,#660,#661,#662));
#122=EDGE_LOOP('',(#663));
#123=EDGE_LOOP('',(#664,#665,#666,#667));
#124=EDGE_LOOP('',(#668,#669,#670,#671));
#125=EDGE_LOOP('',(#672,#673,#674,#675,#676,#677));
#126=EDGE_LOOP('',(#678));
#127=EDGE_LOOP('',(#679,#680,#681,#682));
#128=EDGE_LOOP('',(#683,#684,#685,#686));
#129=EDGE_LOOP('',(#687,#688,#689,#690));
#130=EDGE_LOOP('',(#691,#692,#693,#694));
#131=EDGE_LOOP('',(#695,#696,#697,#698));
#132=EDGE_LOOP('',(#699,#700,#701,#702));
#133=EDGE_LOOP('',(#703,#704,#705,#706));
#134=EDGE_LOOP('',(#707,#708,#709,#710));
#135=EDGE_LOOP('',(#711,#712,#713,#714));
#136=EDGE_LOOP('',(#715,#716,#717,#718));
#137=EDGE_LOOP('',(#719,#720,#721,#722));
#138=EDGE_LOOP('',(#723,#724,#725,#726));
#139=CIRCLE('',#825,2.);
#140=CIRCLE('',#826,2.);
#141=CIRCLE('',#827,1.25);
#142=CIRCLE('',#829,2.);
#143=CIRCLE('',#830,2.);
#144=CIRCLE('',#831,1.25);
#145=CIRCLE('',#836,2.);
#146=CIRCLE('',#837,2.);
#147=CIRCLE('',#838,1.25);
#148=CIRCLE('',#840,2.);
#149=CIRCLE('',#841,2.);
#150=CIRCLE('',#842,1.25);
#151=CIRCLE('',#846,2.);
#152=CIRCLE('',#849,1.25);
#153=CIRCLE('',#851,1.25);
#154=CIRCLE('',#853,1.25);
#155=CIRCLE('',#855,1.25);
#156=CIRCLE('',#857,2.);
#157=CIRCLE('',#859,2.);
#158=CIRCLE('',#863,2.);
#159=CIRCLE('',#865,2.);
#160=CIRCLE('',#869,2.);
#161=CIRCLE('',#872,2.);
#162=CIRCLE('',#874,2.);
#163=LINE('',#1115,#247);
#164=LINE('',#1119,#248);
#165=LINE('',#1123,#249);
#166=LINE('',#1124,#250);
#167=LINE('',#1130,#251);
#168=LINE('',#1134,#252);
#169=LINE('',#1138,#253);
#170=LINE('',#1139,#254);
#171=LINE('',#1144,#255);
#172=LINE('',#1146,#256);
#173=LINE('',#1147,#257);
#174=LINE('',#1151,#258);
#175=LINE('',#1153,#259);
#176=LINE('',#1155,#260);
#177=LINE('',#1156,#261);
#178=LINE('',#1158,#262);
#179=LINE('',#1159,#263);
#180=LINE('',#1162,#264);
#181=LINE('',#1164,#265);
#182=LINE('',#1166,#266);
#183=LINE('',#1167,#267);
#184=LINE('',#1170,#268);
#185=LINE('',#1172,#269);
#186=LINE('',#1174,#270);
#187=LINE('',#1175,#271);
#188=LINE('',#1178,#272);
#189=LINE('',#1180,#273);
#190=LINE('',#1182,#274);
#191=LINE('',#1183,#275);
#192=LINE('',#1185,#276);
#193=LINE('',#1187,#277);
#194=LINE('',#1188,#278);
#195=LINE('',#1191,#279);
#196=LINE('',#1192,#280);
#197=LINE('',#1195,#281);
#198=LINE('',#1197,#282);
#199=LINE('',#1201,#283);
#200=LINE('',#1207,#284);
#201=LINE('',#1211,#285);
#202=LINE('',#1214,#286);
#203=LINE('',#1219,#287);
#204=LINE('',#1220,#288);
#205=LINE('',#1223,#289);
#206=LINE('',#1224,#290);
#207=LINE('',#1227,#291);
#208=LINE('',#1231,#292);
#209=LINE('',#1232,#293);
#210=LINE('',#1236,#294);
#211=LINE('',#1239,#295);
#212=LINE('',#1244,#296);
#213=LINE('',#1247,#297);
#214=LINE('',#1251,#298);
#215=LINE('',#1254,#299);
#216=LINE('',#1257,#300);
#217=LINE('',#1259,#301);
#218=LINE('',#1261,#302);
#219=LINE('',#1265,#303);
#220=LINE('',#1269,#304);
#221=LINE('',#1272,#305);
#222=LINE('',#1274,#306);
#223=LINE('',#1276,#307);
#224=LINE('',#1280,#308);
#225=LINE('',#1283,#309);
#226=LINE('',#1284,#310);
#227=LINE('',#1288,#311);
#228=LINE('',#1291,#312);
#229=LINE('',#1294,#313);
#230=LINE('',#1298,#314);
#231=LINE('',#1303,#315);
#232=LINE('',#1305,#316);
#233=LINE('',#1306,#317);
#234=LINE('',#1309,#318);
#235=LINE('',#1310,#319);
#236=LINE('',#1313,#320);
#237=LINE('',#1314,#321);
#238=LINE('',#1316,#322);
#239=LINE('',#1321,#323);
#240=LINE('',#1322,#324);
#241=LINE('',#1323,#325);
#242=LINE('',#1326,#326);
#243=LINE('',#1327,#327);
#244=LINE('',#1330,#328);
#245=LINE('',#1331,#329);
#246=LINE('',#1333,#330);
#247=VECTOR('',#895,10.);
#248=VECTOR('',#898,10.);
#249=VECTOR('',#901,10.);
#250=VECTOR('',#902,10.);
#251=VECTOR('',#907,10.);
#252=VECTOR('',#910,10.);
#253=VECTOR('',#913,10.);
#254=VECTOR('',#914,10.);
#255=VECTOR('',#919,10.);
#256=VECTOR('',#920,10.);
#257=VECTOR('',#921,10.);
#258=VECTOR('',#924,10.);
#259=VECTOR('',#925,10.);
#260=VECTOR('',#926,10.);
#261=VECTOR('',#927,10.);
#262=VECTOR('',#928,10.);
#263=VECTOR('',#929,10.);
#264=VECTOR('',#930,10.);
#265=VECTOR('',#931,10.);
#266=VECTOR('',#932,10.);
#267=VECTOR('',#933,10.);
#268=VECTOR('',#934,10.);
#269=VECTOR('',#935,10.);
#270=VECTOR('',#936,10.);
#271=VECTOR('',#937,10.);
#272=VECTOR('',#938,10.);
#273=VECTOR('',#939,10.);
#274=VECTOR('',#940,10.);
#275=VECTOR('',#941,10.);
#276=VECTOR('',#942,10.);
#277=VECTOR('',#943,10.);
#278=VECTOR('',#944,10.);
#279=VECTOR('',#947,10.);
#280=VECTOR('',#948,10.);
#281=VECTOR('',#951,10.);
#282=VECTOR('',#952,10.);
#283=VECTOR('',#955,10.);
#284=VECTOR('',#962,10.);
#285=VECTOR('',#965,10.);
#286=VECTOR('',#968,10.);
#287=VECTOR('',#973,10.);
#288=VECTOR('',#974,10.);
#289=VECTOR('',#977,10.);
#290=VECTOR('',#978,10.);
#291=VECTOR('',#981,10.);
#292=VECTOR('',#986,10.);
#293=VECTOR('',#987,10.);
#294=VECTOR('',#992,1.25);
#295=VECTOR('',#995,1.25);
#296=VECTOR('',#1002,1.25);
#297=VECTOR('',#1005,1.25);
#298=VECTOR('',#1010,10.);
#299=VECTOR('',#1013,10.);
#300=VECTOR('',#1016,10.);
#301=VECTOR('',#1019,10.);
#302=VECTOR('',#1022,10.);
#303=VECTOR('',#1027,10.);
#304=VECTOR('',#1032,10.);
#305=VECTOR('',#1035,10.);
#306=VECTOR('',#1038,10.);
#307=VECTOR('',#1041,10.);
#308=VECTOR('',#1046,10.);
#309=VECTOR('',#1049,10.);
#310=VECTOR('',#1050,10.);
#311=VECTOR('',#1055,10.);
#312=VECTOR('',#1058,10.);
#313=VECTOR('',#1063,10.);
#314=VECTOR('',#1070,10.);
#315=VECTOR('',#1077,10.);
#316=VECTOR('',#1078,10.);
#317=VECTOR('',#1079,10.);
#318=VECTOR('',#1082,10.);
#319=VECTOR('',#1083,10.);
#320=VECTOR('',#1086,10.);
#321=VECTOR('',#1087,10.);
#322=VECTOR('',#1090,10.);
#323=VECTOR('',#1095,10.);
#324=VECTOR('',#1096,10.);
#325=VECTOR('',#1097,10.);
#326=VECTOR('',#1100,10.);
#327=VECTOR('',#1101,10.);
#328=VECTOR('',#1104,10.);
#329=VECTOR('',#1105,10.);
#330=VECTOR('',#1108,10.);
#331=VERTEX_POINT('',#1113);
#332=VERTEX_POINT('',#1114);
#333=VERTEX_POINT('',#1116);
#334=VERTEX_POINT('',#1118);
#335=VERTEX_POINT('',#1120);
#336=VERTEX_POINT('',#1122);
#337=VERTEX_POINT('',#1125);
#338=VERTEX_POINT('',#1128);
#339=VERTEX_POINT('',#1129);
#340=VERTEX_POINT('',#1131);
#341=VERTEX_POINT('',#1133);
#342=VERTEX_POINT('',#1135);
#343=VERTEX_POINT('',#1137);
#344=VERTEX_POINT('',#1140);
#345=VERTEX_POINT('',#1143);
#346=VERTEX_POINT('',#1145);
#347=VERTEX_POINT('',#1149);
#348=VERTEX_POINT('',#1150);
#349=VERTEX_POINT('',#1152);
#350=VERTEX_POINT('',#1154);
#351=VERTEX_POINT('',#1157);
#352=VERTEX_POINT('',#1160);
#353=VERTEX_POINT('',#1161);
#354=VERTEX_POINT('',#1163);
#355=VERTEX_POINT('',#1165);
#356=VERTEX_POINT('',#1168);
#357=VERTEX_POINT('',#1169);
#358=VERTEX_POINT('',#1171);
#359=VERTEX_POINT('',#1173);
#360=VERTEX_POINT('',#1176);
#361=VERTEX_POINT('',#1177);
#362=VERTEX_POINT('',#1179);
#363=VERTEX_POINT('',#1181);
#364=VERTEX_POINT('',#1184);
#365=VERTEX_POINT('',#1186);
#366=VERTEX_POINT('',#1190);
#367=VERTEX_POINT('',#1194);
#368=VERTEX_POINT('',#1196);
#369=VERTEX_POINT('',#1198);
#370=VERTEX_POINT('',#1200);
#371=VERTEX_POINT('',#1203);
#372=VERTEX_POINT('',#1206);
#373=VERTEX_POINT('',#1208);
#374=VERTEX_POINT('',#1210);
#375=VERTEX_POINT('',#1212);
#376=VERTEX_POINT('',#1215);
#377=VERTEX_POINT('',#1218);
#378=VERTEX_POINT('',#1222);
#379=VERTEX_POINT('',#1226);
#380=VERTEX_POINT('',#1230);
#381=VERTEX_POINT('',#1234);
#382=VERTEX_POINT('',#1238);
#383=VERTEX_POINT('',#1242);
#384=VERTEX_POINT('',#1246);
#385=VERTEX_POINT('',#1250);
#386=VERTEX_POINT('',#1252);
#387=VERTEX_POINT('',#1256);
#388=VERTEX_POINT('',#1264);
#389=VERTEX_POINT('',#1268);
#390=VERTEX_POINT('',#1270);
#391=VERTEX_POINT('',#1278);
#392=VERTEX_POINT('',#1282);
#393=VERTEX_POINT('',#1286);
#394=VERTEX_POINT('',#1290);
#395=VERTEX_POINT('',#1302);
#396=VERTEX_POINT('',#1304);
#397=VERTEX_POINT('',#1308);
#398=VERTEX_POINT('',#1312);
#399=VERTEX_POINT('',#1319);
#400=VERTEX_POINT('',#1320);
#401=VERTEX_POINT('',#1325);
#402=VERTEX_POINT('',#1329);
#403=EDGE_CURVE('',#331,#332,#163,.T.);
#404=EDGE_CURVE('',#333,#331,#139,.T.);
#405=EDGE_CURVE('',#334,#333,#164,.T.);
#406=EDGE_CURVE('',#335,#334,#140,.T.);
#407=EDGE_CURVE('',#336,#335,#165,.T.);
#408=EDGE_CURVE('',#336,#332,#166,.T.);
#409=EDGE_CURVE('',#337,#337,#141,.T.);
#410=EDGE_CURVE('',#338,#339,#167,.T.);
#411=EDGE_CURVE('',#340,#338,#142,.T.);
#412=EDGE_CURVE('',#341,#340,#168,.T.);
#413=EDGE_CURVE('',#342,#341,#143,.T.);
#414=EDGE_CURVE('',#343,#342,#169,.T.);
#415=EDGE_CURVE('',#343,#339,#170,.T.);
#416=EDGE_CURVE('',#344,#344,#144,.T.);
#417=EDGE_CURVE('',#345,#339,#171,.T.);
#418=EDGE_CURVE('',#345,#346,#172,.T.);
#419=EDGE_CURVE('',#338,#346,#173,.T.);
#420=EDGE_CURVE('',#347,#348,#174,.T.);
#421=EDGE_CURVE('',#348,#349,#175,.T.);
#422=EDGE_CURVE('',#349,#350,#176,.T.);
#423=EDGE_CURVE('',#350,#347,#177,.T.);
#424=EDGE_CURVE('',#343,#351,#178,.T.);
#425=EDGE_CURVE('',#351,#345,#179,.T.);
#426=EDGE_CURVE('',#352,#353,#180,.T.);
#427=EDGE_CURVE('',#353,#354,#181,.T.);
#428=EDGE_CURVE('',#354,#355,#182,.T.);
#429=EDGE_CURVE('',#355,#352,#183,.T.);
#430=EDGE_CURVE('',#356,#357,#184,.T.);
#431=EDGE_CURVE('',#357,#358,#185,.T.);
#432=EDGE_CURVE('',#358,#359,#186,.T.);
#433=EDGE_CURVE('',#359,#356,#187,.T.);
#434=EDGE_CURVE('',#360,#361,#188,.T.);
#435=EDGE_CURVE('',#361,#362,#189,.T.);
#436=EDGE_CURVE('',#362,#363,#190,.T.);
#437=EDGE_CURVE('',#363,#360,#191,.T.);
#438=EDGE_CURVE('',#336,#364,#192,.T.);
#439=EDGE_CURVE('',#364,#365,#193,.T.);
#440=EDGE_CURVE('',#365,#332,#194,.T.);
#441=EDGE_CURVE('',#366,#335,#195,.T.);
#442=EDGE_CURVE('',#364,#366,#196,.T.);
#443=EDGE_CURVE('',#360,#367,#197,.T.);
#444=EDGE_CURVE('',#368,#363,#198,.T.);
#445=EDGE_CURVE('',#369,#368,#145,.T.);
#446=EDGE_CURVE('',#370,#369,#199,.T.);
#447=EDGE_CURVE('',#367,#370,#146,.T.);
#448=EDGE_CURVE('',#371,#371,#147,.T.);
#449=EDGE_CURVE('',#372,#352,#200,.T.);
#450=EDGE_CURVE('',#373,#372,#148,.T.);
#451=EDGE_CURVE('',#374,#373,#201,.T.);
#452=EDGE_CURVE('',#375,#374,#149,.T.);
#453=EDGE_CURVE('',#353,#375,#202,.T.);
#454=EDGE_CURVE('',#376,#376,#150,.T.);
#455=EDGE_CURVE('',#355,#377,#203,.T.);
#456=EDGE_CURVE('',#372,#377,#204,.T.);
#457=EDGE_CURVE('',#378,#367,#205,.T.);
#458=EDGE_CURVE('',#361,#378,#206,.T.);
#459=EDGE_CURVE('',#370,#379,#207,.T.);
#460=EDGE_CURVE('',#379,#378,#151,.T.);
#461=EDGE_CURVE('',#380,#369,#208,.T.);
#462=EDGE_CURVE('',#380,#379,#209,.T.);
#463=EDGE_CURVE('',#381,#381,#152,.T.);
#464=EDGE_CURVE('',#381,#376,#210,.T.);
#465=EDGE_CURVE('',#337,#382,#211,.T.);
#466=EDGE_CURVE('',#382,#382,#153,.T.);
#467=EDGE_CURVE('',#383,#383,#154,.T.);
#468=EDGE_CURVE('',#383,#371,#212,.T.);
#469=EDGE_CURVE('',#344,#384,#213,.T.);
#470=EDGE_CURVE('',#384,#384,#155,.T.);
#471=EDGE_CURVE('',#341,#385,#214,.T.);
#472=EDGE_CURVE('',#385,#386,#156,.T.);
#473=EDGE_CURVE('',#386,#342,#215,.T.);
#474=EDGE_CURVE('',#387,#385,#216,.T.);
#475=EDGE_CURVE('',#346,#387,#157,.T.);
#476=EDGE_CURVE('',#351,#386,#217,.T.);
#477=EDGE_CURVE('',#387,#340,#218,.T.);
#478=EDGE_CURVE('',#334,#388,#219,.T.);
#479=EDGE_CURVE('',#388,#366,#158,.T.);
#480=EDGE_CURVE('',#389,#388,#220,.T.);
#481=EDGE_CURVE('',#390,#389,#159,.T.);
#482=EDGE_CURVE('',#365,#390,#221,.T.);
#483=EDGE_CURVE('',#389,#333,#222,.T.);
#484=EDGE_CURVE('',#331,#390,#223,.T.);
#485=EDGE_CURVE('',#377,#391,#160,.T.);
#486=EDGE_CURVE('',#391,#373,#224,.T.);
#487=EDGE_CURVE('',#391,#392,#225,.T.);
#488=EDGE_CURVE('',#374,#392,#226,.T.);
#489=EDGE_CURVE('',#392,#393,#161,.T.);
#490=EDGE_CURVE('',#393,#375,#227,.T.);
#491=EDGE_CURVE('',#368,#394,#228,.T.);
#492=EDGE_CURVE('',#394,#380,#162,.T.);
#493=EDGE_CURVE('',#354,#393,#229,.T.);
#494=EDGE_CURVE('',#362,#394,#230,.T.);
#495=EDGE_CURVE('',#356,#395,#231,.T.);
#496=EDGE_CURVE('',#396,#395,#232,.T.);
#497=EDGE_CURVE('',#357,#396,#233,.T.);
#498=EDGE_CURVE('',#397,#396,#234,.T.);
#499=EDGE_CURVE('',#358,#397,#235,.T.);
#500=EDGE_CURVE('',#398,#397,#236,.T.);
#501=EDGE_CURVE('',#359,#398,#237,.T.);
#502=EDGE_CURVE('',#395,#398,#238,.T.);
#503=EDGE_CURVE('',#399,#400,#239,.T.);
#504=EDGE_CURVE('',#400,#347,#240,.T.);
#505=EDGE_CURVE('',#399,#350,#241,.T.);
#506=EDGE_CURVE('',#401,#399,#242,.T.);
#507=EDGE_CURVE('',#401,#349,#243,.T.);
#508=EDGE_CURVE('',#402,#401,#244,.T.);
#509=EDGE_CURVE('',#402,#348,#245,.T.);
#510=EDGE_CURVE('',#400,#402,#246,.T.);
#511=ORIENTED_EDGE('',*,*,#403,.F.);
#512=ORIENTED_EDGE('',*,*,#404,.F.);
#513=ORIENTED_EDGE('',*,*,#405,.F.);
#514=ORIENTED_EDGE('',*,*,#406,.F.);
#515=ORIENTED_EDGE('',*,*,#407,.F.);
#516=ORIENTED_EDGE('',*,*,#408,.T.);
#517=ORIENTED_EDGE('',*,*,#409,.F.);
#518=ORIENTED_EDGE('',*,*,#410,.F.);
#519=ORIENTED_EDGE('',*,*,#411,.F.);
#520=ORIENTED_EDGE('',*,*,#412,.F.);
#521=ORIENTED_EDGE('',*,*,#413,.F.);
#522=ORIENTED_EDGE('',*,*,#414,.F.);
#523=ORIENTED_EDGE('',*,*,#415,.T.);
#524=ORIENTED_EDGE('',*,*,#416,.F.);
#525=ORIENTED_EDGE('',*,*,#410,.T.);
#526=ORIENTED_EDGE('',*,*,#417,.F.);
#527=ORIENTED_EDGE('',*,*,#418,.T.);
#528=ORIENTED_EDGE('',*,*,#419,.F.);
#529=ORIENTED_EDGE('',*,*,#420,.T.);
#530=ORIENTED_EDGE('',*,*,#421,.T.);
#531=ORIENTED_EDGE('',*,*,#422,.T.);
#532=ORIENTED_EDGE('',*,*,#423,.T.);
#533=ORIENTED_EDGE('',*,*,#424,.T.);
#534=ORIENTED_EDGE('',*,*,#425,.T.);
#535=ORIENTED_EDGE('',*,*,#417,.T.);
#536=ORIENTED_EDGE('',*,*,#415,.F.);
#537=ORIENTED_EDGE('',*,*,#426,.T.);
#538=ORIENTED_EDGE('',*,*,#427,.T.);
#539=ORIENTED_EDGE('',*,*,#428,.T.);
#540=ORIENTED_EDGE('',*,*,#429,.T.);
#541=ORIENTED_EDGE('',*,*,#430,.T.);
#542=ORIENTED_EDGE('',*,*,#431,.T.);
#543=ORIENTED_EDGE('',*,*,#432,.T.);
#544=ORIENTED_EDGE('',*,*,#433,.T.);
#545=ORIENTED_EDGE('',*,*,#434,.T.);
#546=ORIENTED_EDGE('',*,*,#435,.T.);
#547=ORIENTED_EDGE('',*,*,#436,.T.);
#548=ORIENTED_EDGE('',*,*,#437,.T.);
#549=ORIENTED_EDGE('',*,*,#408,.F.);
#550=ORIENTED_EDGE('',*,*,#438,.T.);
#551=ORIENTED_EDGE('',*,*,#439,.T.);
#552=ORIENTED_EDGE('',*,*,#440,.T.);
#553=ORIENTED_EDGE('',*,*,#407,.T.);
#554=ORIENTED_EDGE('',*,*,#441,.F.);
#555=ORIENTED_EDGE('',*,*,#442,.F.);
#556=ORIENTED_EDGE('',*,*,#438,.F.);
#557=ORIENTED_EDGE('',*,*,#443,.F.);
#558=ORIENTED_EDGE('',*,*,#437,.F.);
#559=ORIENTED_EDGE('',*,*,#444,.F.);
#560=ORIENTED_EDGE('',*,*,#445,.F.);
#561=ORIENTED_EDGE('',*,*,#446,.F.);
#562=ORIENTED_EDGE('',*,*,#447,.F.);
#563=ORIENTED_EDGE('',*,*,#448,.F.);
#564=ORIENTED_EDGE('',*,*,#449,.F.);
#565=ORIENTED_EDGE('',*,*,#450,.F.);
#566=ORIENTED_EDGE('',*,*,#451,.F.);
#567=ORIENTED_EDGE('',*,*,#452,.F.);
#568=ORIENTED_EDGE('',*,*,#453,.F.);
#569=ORIENTED_EDGE('',*,*,#426,.F.);
#570=ORIENTED_EDGE('',*,*,#454,.F.);
#571=ORIENTED_EDGE('',*,*,#449,.T.);
#572=ORIENTED_EDGE('',*,*,#429,.F.);
#573=ORIENTED_EDGE('',*,*,#455,.T.);
#574=ORIENTED_EDGE('',*,*,#456,.F.);
#575=ORIENTED_EDGE('',*,*,#443,.T.);
#576=ORIENTED_EDGE('',*,*,#457,.F.);
#577=ORIENTED_EDGE('',*,*,#458,.F.);
#578=ORIENTED_EDGE('',*,*,#434,.F.);
#579=ORIENTED_EDGE('',*,*,#447,.T.);
#580=ORIENTED_EDGE('',*,*,#459,.T.);
#581=ORIENTED_EDGE('',*,*,#460,.T.);
#582=ORIENTED_EDGE('',*,*,#457,.T.);
#583=ORIENTED_EDGE('',*,*,#446,.T.);
#584=ORIENTED_EDGE('',*,*,#461,.F.);
#585=ORIENTED_EDGE('',*,*,#462,.T.);
#586=ORIENTED_EDGE('',*,*,#459,.F.);
#587=ORIENTED_EDGE('',*,*,#463,.F.);
#588=ORIENTED_EDGE('',*,*,#464,.T.);
#589=ORIENTED_EDGE('',*,*,#454,.T.);
#590=ORIENTED_EDGE('',*,*,#464,.F.);
#591=ORIENTED_EDGE('',*,*,#409,.T.);
#592=ORIENTED_EDGE('',*,*,#465,.T.);
#593=ORIENTED_EDGE('',*,*,#466,.F.);
#594=ORIENTED_EDGE('',*,*,#465,.F.);
#595=ORIENTED_EDGE('',*,*,#467,.F.);
#596=ORIENTED_EDGE('',*,*,#468,.T.);
#597=ORIENTED_EDGE('',*,*,#448,.T.);
#598=ORIENTED_EDGE('',*,*,#468,.F.);
#599=ORIENTED_EDGE('',*,*,#416,.T.);
#600=ORIENTED_EDGE('',*,*,#469,.T.);
#601=ORIENTED_EDGE('',*,*,#470,.F.);
#602=ORIENTED_EDGE('',*,*,#469,.F.);
#603=ORIENTED_EDGE('',*,*,#413,.T.);
#604=ORIENTED_EDGE('',*,*,#471,.T.);
#605=ORIENTED_EDGE('',*,*,#472,.T.);
#606=ORIENTED_EDGE('',*,*,#473,.T.);
#607=ORIENTED_EDGE('',*,*,#472,.F.);
#608=ORIENTED_EDGE('',*,*,#474,.F.);
#609=ORIENTED_EDGE('',*,*,#475,.F.);
#610=ORIENTED_EDGE('',*,*,#418,.F.);
#611=ORIENTED_EDGE('',*,*,#425,.F.);
#612=ORIENTED_EDGE('',*,*,#476,.T.);
#613=ORIENTED_EDGE('',*,*,#470,.T.);
#614=ORIENTED_EDGE('',*,*,#412,.T.);
#615=ORIENTED_EDGE('',*,*,#477,.F.);
#616=ORIENTED_EDGE('',*,*,#474,.T.);
#617=ORIENTED_EDGE('',*,*,#471,.F.);
#618=ORIENTED_EDGE('',*,*,#411,.T.);
#619=ORIENTED_EDGE('',*,*,#419,.T.);
#620=ORIENTED_EDGE('',*,*,#475,.T.);
#621=ORIENTED_EDGE('',*,*,#477,.T.);
#622=ORIENTED_EDGE('',*,*,#406,.T.);
#623=ORIENTED_EDGE('',*,*,#478,.T.);
#624=ORIENTED_EDGE('',*,*,#479,.T.);
#625=ORIENTED_EDGE('',*,*,#441,.T.);
#626=ORIENTED_EDGE('',*,*,#479,.F.);
#627=ORIENTED_EDGE('',*,*,#480,.F.);
#628=ORIENTED_EDGE('',*,*,#481,.F.);
#629=ORIENTED_EDGE('',*,*,#482,.F.);
#630=ORIENTED_EDGE('',*,*,#439,.F.);
#631=ORIENTED_EDGE('',*,*,#442,.T.);
#632=ORIENTED_EDGE('',*,*,#466,.T.);
#633=ORIENTED_EDGE('',*,*,#405,.T.);
#634=ORIENTED_EDGE('',*,*,#483,.F.);
#635=ORIENTED_EDGE('',*,*,#480,.T.);
#636=ORIENTED_EDGE('',*,*,#478,.F.);
#637=ORIENTED_EDGE('',*,*,#404,.T.);
#638=ORIENTED_EDGE('',*,*,#484,.T.);
#639=ORIENTED_EDGE('',*,*,#481,.T.);
#640=ORIENTED_EDGE('',*,*,#483,.T.);
#641=ORIENTED_EDGE('',*,*,#450,.T.);
#642=ORIENTED_EDGE('',*,*,#456,.T.);
#643=ORIENTED_EDGE('',*,*,#485,.T.);
#644=ORIENTED_EDGE('',*,*,#486,.T.);
#645=ORIENTED_EDGE('',*,*,#451,.T.);
#646=ORIENTED_EDGE('',*,*,#486,.F.);
#647=ORIENTED_EDGE('',*,*,#487,.T.);
#648=ORIENTED_EDGE('',*,*,#488,.F.);
#649=ORIENTED_EDGE('',*,*,#452,.T.);
#650=ORIENTED_EDGE('',*,*,#488,.T.);
#651=ORIENTED_EDGE('',*,*,#489,.T.);
#652=ORIENTED_EDGE('',*,*,#490,.T.);
#653=ORIENTED_EDGE('',*,*,#445,.T.);
#654=ORIENTED_EDGE('',*,*,#491,.T.);
#655=ORIENTED_EDGE('',*,*,#492,.T.);
#656=ORIENTED_EDGE('',*,*,#461,.T.);
#657=ORIENTED_EDGE('',*,*,#485,.F.);
#658=ORIENTED_EDGE('',*,*,#455,.F.);
#659=ORIENTED_EDGE('',*,*,#428,.F.);
#660=ORIENTED_EDGE('',*,*,#493,.T.);
#661=ORIENTED_EDGE('',*,*,#489,.F.);
#662=ORIENTED_EDGE('',*,*,#487,.F.);
#663=ORIENTED_EDGE('',*,*,#463,.T.);
#664=ORIENTED_EDGE('',*,*,#453,.T.);
#665=ORIENTED_EDGE('',*,*,#490,.F.);
#666=ORIENTED_EDGE('',*,*,#493,.F.);
#667=ORIENTED_EDGE('',*,*,#427,.F.);
#668=ORIENTED_EDGE('',*,*,#403,.T.);
#669=ORIENTED_EDGE('',*,*,#440,.F.);
#670=ORIENTED_EDGE('',*,*,#482,.T.);
#671=ORIENTED_EDGE('',*,*,#484,.F.);
#672=ORIENTED_EDGE('',*,*,#492,.F.);
#673=ORIENTED_EDGE('',*,*,#494,.F.);
#674=ORIENTED_EDGE('',*,*,#435,.F.);
#675=ORIENTED_EDGE('',*,*,#458,.T.);
#676=ORIENTED_EDGE('',*,*,#460,.F.);
#677=ORIENTED_EDGE('',*,*,#462,.F.);
#678=ORIENTED_EDGE('',*,*,#467,.T.);
#679=ORIENTED_EDGE('',*,*,#444,.T.);
#680=ORIENTED_EDGE('',*,*,#436,.F.);
#681=ORIENTED_EDGE('',*,*,#494,.T.);
#682=ORIENTED_EDGE('',*,*,#491,.F.);
#683=ORIENTED_EDGE('',*,*,#414,.T.);
#684=ORIENTED_EDGE('',*,*,#473,.F.);
#685=ORIENTED_EDGE('',*,*,#476,.F.);
#686=ORIENTED_EDGE('',*,*,#424,.F.);
#687=ORIENTED_EDGE('',*,*,#430,.F.);
#688=ORIENTED_EDGE('',*,*,#495,.T.);
#689=ORIENTED_EDGE('',*,*,#496,.F.);
#690=ORIENTED_EDGE('',*,*,#497,.F.);
#691=ORIENTED_EDGE('',*,*,#431,.F.);
#692=ORIENTED_EDGE('',*,*,#497,.T.);
#693=ORIENTED_EDGE('',*,*,#498,.F.);
#694=ORIENTED_EDGE('',*,*,#499,.F.);
#695=ORIENTED_EDGE('',*,*,#432,.F.);
#696=ORIENTED_EDGE('',*,*,#499,.T.);
#697=ORIENTED_EDGE('',*,*,#500,.F.);
#698=ORIENTED_EDGE('',*,*,#501,.F.);
#699=ORIENTED_EDGE('',*,*,#433,.F.);
#700=ORIENTED_EDGE('',*,*,#501,.T.);
#701=ORIENTED_EDGE('',*,*,#502,.F.);
#702=ORIENTED_EDGE('',*,*,#495,.F.);
#703=ORIENTED_EDGE('',*,*,#502,.T.);
#704=ORIENTED_EDGE('',*,*,#500,.T.);
#705=ORIENTED_EDGE('',*,*,#498,.T.);
#706=ORIENTED_EDGE('',*,*,#496,.T.);
#707=ORIENTED_EDGE('',*,*,#503,.T.);
#708=ORIENTED_EDGE('',*,*,#504,.T.);
#709=ORIENTED_EDGE('',*,*,#423,.F.);
#710=ORIENTED_EDGE('',*,*,#505,.F.);
#711=ORIENTED_EDGE('',*,*,#506,.T.);
#712=ORIENTED_EDGE('',*,*,#505,.T.);
#713=ORIENTED_EDGE('',*,*,#422,.F.);
#714=ORIENTED_EDGE('',*,*,#507,.F.);
#715=ORIENTED_EDGE('',*,*,#508,.T.);
#716=ORIENTED_EDGE('',*,*,#507,.T.);
#717=ORIENTED_EDGE('',*,*,#421,.F.);
#718=ORIENTED_EDGE('',*,*,#509,.F.);
#719=ORIENTED_EDGE('',*,*,#510,.T.);
#720=ORIENTED_EDGE('',*,*,#509,.T.);
#721=ORIENTED_EDGE('',*,*,#420,.F.);
#722=ORIENTED_EDGE('',*,*,#504,.F.);
#723=ORIENTED_EDGE('',*,*,#510,.F.);
#724=ORIENTED_EDGE('',*,*,#503,.F.);
#725=ORIENTED_EDGE('',*,*,#506,.F.);
#726=ORIENTED_EDGE('',*,*,#508,.F.);
#727=PLANE('',#824);
#728=PLANE('',#828);
#729=PLANE('',#832);
#730=PLANE('',#833);
#731=PLANE('',#834);
#732=PLANE('',#835);
#733=PLANE('',#839);
#734=PLANE('',#843);
#735=PLANE('',#844);
#736=PLANE('',#847);
#737=PLANE('',#858);
#738=PLANE('',#860);
#739=PLANE('',#864);
#740=PLANE('',#866);
#741=PLANE('',#870);
#742=PLANE('',#875);
#743=PLANE('',#876);
#744=PLANE('',#877);
#745=PLANE('',#878);
#746=PLANE('',#879);
#747=PLANE('',#880);
#748=PLANE('',#881);
#749=PLANE('',#882);
#750=PLANE('',#883);
#751=PLANE('',#884);
#752=PLANE('',#885);
#753=PLANE('',#886);
#754=PLANE('',#887);
#755=PLANE('',#888);
#756=PLANE('',#889);
#757=PLANE('',#890);
#758=ADVANCED_FACE('',(#40,#27),#727,.T.);
#759=ADVANCED_FACE('',(#41,#28),#728,.T.);
#760=ADVANCED_FACE('',(#42),#729,.T.);
#761=ADVANCED_FACE('',(#43,#29,#30,#31,#32,#33),#730,.T.);
#762=ADVANCED_FACE('',(#44),#731,.T.);
#763=ADVANCED_FACE('',(#45,#34),#732,.F.);
#764=ADVANCED_FACE('',(#46,#35),#733,.F.);
#765=ADVANCED_FACE('',(#47),#734,.T.);
#766=ADVANCED_FACE('',(#48),#735,.T.);
#767=ADVANCED_FACE('',(#49),#15,.T.);
#768=ADVANCED_FACE('',(#50),#736,.T.);
#769=ADVANCED_FACE('',(#51),#16,.F.);
#770=ADVANCED_FACE('',(#52),#17,.F.);
#771=ADVANCED_FACE('',(#53),#18,.F.);
#772=ADVANCED_FACE('',(#54),#19,.F.);
#773=ADVANCED_FACE('',(#55),#20,.T.);
#774=ADVANCED_FACE('',(#56,#36),#737,.T.);
#775=ADVANCED_FACE('',(#57),#738,.T.);
#776=ADVANCED_FACE('',(#58),#21,.T.);
#777=ADVANCED_FACE('',(#59),#22,.T.);
#778=ADVANCED_FACE('',(#60,#37),#739,.T.);
#779=ADVANCED_FACE('',(#61),#740,.T.);
#780=ADVANCED_FACE('',(#62),#23,.T.);
#781=ADVANCED_FACE('',(#63),#24,.T.);
#782=ADVANCED_FACE('',(#64),#741,.T.);
#783=ADVANCED_FACE('',(#65),#25,.T.);
#784=ADVANCED_FACE('',(#66),#26,.T.);
#785=ADVANCED_FACE('',(#67,#38),#742,.T.);
#786=ADVANCED_FACE('',(#68),#743,.T.);
#787=ADVANCED_FACE('',(#69),#744,.T.);
#788=ADVANCED_FACE('',(#70,#39),#745,.T.);
#789=ADVANCED_FACE('',(#71),#746,.T.);
#790=ADVANCED_FACE('',(#72),#747,.T.);
#791=ADVANCED_FACE('',(#73),#748,.T.);
#792=ADVANCED_FACE('',(#74),#749,.T.);
#793=ADVANCED_FACE('',(#75),#750,.T.);
#794=ADVANCED_FACE('',(#76),#751,.T.);
#795=ADVANCED_FACE('',(#77),#752,.T.);
#796=ADVANCED_FACE('',(#78),#753,.T.);
#797=ADVANCED_FACE('',(#79),#754,.T.);
#798=ADVANCED_FACE('',(#80),#755,.T.);
#799=ADVANCED_FACE('',(#81),#756,.T.);
#800=ADVANCED_FACE('',(#82),#757,.F.);
#801=CLOSED_SHELL('',(#758,#759,#760,#761,#762,#763,#764,#765,#766,#767,
#768,#769,#770,#771,#772,#773,#774,#775,#776,#777,#778,#779,#780,#781,#782,
#783,#784,#785,#786,#787,#788,#789,#790,#791,#792,#793,#794,#795,#796,#797,
#798,#799,#800));
#802=DERIVED_UNIT_ELEMENT(#805,1.);
#803=DERIVED_UNIT_ELEMENT(#1340,-3.);
#804=DIMENSIONAL_EXPONENTS(0.,1.,0.,0.,0.,0.,0.);
#805=(
CONVERSION_BASED_UNIT('gram',#807)
MASS_UNIT()
NAMED_UNIT(#804)
);
#806=(
MASS_UNIT()
NAMED_UNIT(*)
SI_UNIT(.KILO.,.GRAM.)
);
#807=MASS_MEASURE_WITH_UNIT(MASS_MEASURE(0.001),#806);
#808=DERIVED_UNIT((#802,#803));
#809=MEASURE_REPRESENTATION_ITEM('density measure',
POSITIVE_RATIO_MEASURE(1.),#808);
#810=PROPERTY_DEFINITION_REPRESENTATION(#815,#812);
#811=PROPERTY_DEFINITION_REPRESENTATION(#816,#813);
#812=REPRESENTATION('material name',(#814),#1337);
#813=REPRESENTATION('density',(#809),#1337);
#814=DESCRIPTIVE_REPRESENTATION_ITEM('Generisch','Generisch');
#815=PROPERTY_DEFINITION('material property','material name',#1347);
#816=PROPERTY_DEFINITION('material property','density of part',#1347);
#817=DATE_TIME_ROLE('creation_date');
#818=APPLIED_DATE_AND_TIME_ASSIGNMENT(#819,#817,(#1347));
#819=DATE_AND_TIME(#820,#821);
#820=CALENDAR_DATE(2026,16,4);
#821=LOCAL_TIME(0,0,0.,#822);
#822=COORDINATED_UNIVERSAL_TIME_OFFSET(0,0,.BEHIND.);
#823=AXIS2_PLACEMENT_3D('',#1111,#891,#892);
#824=AXIS2_PLACEMENT_3D('',#1112,#893,#894);
#825=AXIS2_PLACEMENT_3D('',#1117,#896,#897);
#826=AXIS2_PLACEMENT_3D('',#1121,#899,#900);
#827=AXIS2_PLACEMENT_3D('',#1126,#903,#904);
#828=AXIS2_PLACEMENT_3D('',#1127,#905,#906);
#829=AXIS2_PLACEMENT_3D('',#1132,#908,#909);
#830=AXIS2_PLACEMENT_3D('',#1136,#911,#912);
#831=AXIS2_PLACEMENT_3D('',#1141,#915,#916);
#832=AXIS2_PLACEMENT_3D('',#1142,#917,#918);
#833=AXIS2_PLACEMENT_3D('',#1148,#922,#923);
#834=AXIS2_PLACEMENT_3D('',#1189,#945,#946);
#835=AXIS2_PLACEMENT_3D('',#1193,#949,#950);
#836=AXIS2_PLACEMENT_3D('',#1199,#953,#954);
#837=AXIS2_PLACEMENT_3D('',#1202,#956,#957);
#838=AXIS2_PLACEMENT_3D('',#1204,#958,#959);
#839=AXIS2_PLACEMENT_3D('',#1205,#960,#961);
#840=AXIS2_PLACEMENT_3D('',#1209,#963,#964);
#841=AXIS2_PLACEMENT_3D('',#1213,#966,#967);
#842=AXIS2_PLACEMENT_3D('',#1216,#969,#970);
#843=AXIS2_PLACEMENT_3D('',#1217,#971,#972);
#844=AXIS2_PLACEMENT_3D('',#1221,#975,#976);
#845=AXIS2_PLACEMENT_3D('',#1225,#979,#980);
#846=AXIS2_PLACEMENT_3D('',#1228,#982,#983);
#847=AXIS2_PLACEMENT_3D('',#1229,#984,#985);
#848=AXIS2_PLACEMENT_3D('',#1233,#988,#989);
#849=AXIS2_PLACEMENT_3D('',#1235,#990,#991);
#850=AXIS2_PLACEMENT_3D('',#1237,#993,#994);
#851=AXIS2_PLACEMENT_3D('',#1240,#996,#997);
#852=AXIS2_PLACEMENT_3D('',#1241,#998,#999);
#853=AXIS2_PLACEMENT_3D('',#1243,#1000,#1001);
#854=AXIS2_PLACEMENT_3D('',#1245,#1003,#1004);
#855=AXIS2_PLACEMENT_3D('',#1248,#1006,#1007);
#856=AXIS2_PLACEMENT_3D('',#1249,#1008,#1009);
#857=AXIS2_PLACEMENT_3D('',#1253,#1011,#1012);
#858=AXIS2_PLACEMENT_3D('',#1255,#1014,#1015);
#859=AXIS2_PLACEMENT_3D('',#1258,#1017,#1018);
#860=AXIS2_PLACEMENT_3D('',#1260,#1020,#1021);
#861=AXIS2_PLACEMENT_3D('',#1262,#1023,#1024);
#862=AXIS2_PLACEMENT_3D('',#1263,#1025,#1026);
#863=AXIS2_PLACEMENT_3D('',#1266,#1028,#1029);
#864=AXIS2_PLACEMENT_3D('',#1267,#1030,#1031);
#865=AXIS2_PLACEMENT_3D('',#1271,#1033,#1034);
#866=AXIS2_PLACEMENT_3D('',#1273,#1036,#1037);
#867=AXIS2_PLACEMENT_3D('',#1275,#1039,#1040);
#868=AXIS2_PLACEMENT_3D('',#1277,#1042,#1043);
#869=AXIS2_PLACEMENT_3D('',#1279,#1044,#1045);
#870=AXIS2_PLACEMENT_3D('',#1281,#1047,#1048);
#871=AXIS2_PLACEMENT_3D('',#1285,#1051,#1052);
#872=AXIS2_PLACEMENT_3D('',#1287,#1053,#1054);
#873=AXIS2_PLACEMENT_3D('',#1289,#1056,#1057);
#874=AXIS2_PLACEMENT_3D('',#1292,#1059,#1060);
#875=AXIS2_PLACEMENT_3D('',#1293,#1061,#1062);
#876=AXIS2_PLACEMENT_3D('',#1295,#1064,#1065);
#877=AXIS2_PLACEMENT_3D('',#1296,#1066,#1067);
#878=AXIS2_PLACEMENT_3D('',#1297,#1068,#1069);
#879=AXIS2_PLACEMENT_3D('',#1299,#1071,#1072);
#880=AXIS2_PLACEMENT_3D('',#1300,#1073,#1074);
#881=AXIS2_PLACEMENT_3D('',#1301,#1075,#1076);
#882=AXIS2_PLACEMENT_3D('',#1307,#1080,#1081);
#883=AXIS2_PLACEMENT_3D('',#1311,#1084,#1085);
#884=AXIS2_PLACEMENT_3D('',#1315,#1088,#1089);
#885=AXIS2_PLACEMENT_3D('',#1317,#1091,#1092);
#886=AXIS2_PLACEMENT_3D('',#1318,#1093,#1094);
#887=AXIS2_PLACEMENT_3D('',#1324,#1098,#1099);
#888=AXIS2_PLACEMENT_3D('',#1328,#1102,#1103);
#889=AXIS2_PLACEMENT_3D('',#1332,#1106,#1107);
#890=AXIS2_PLACEMENT_3D('',#1334,#1109,#1110);
#891=DIRECTION('axis',(0.,0.,1.));
#892=DIRECTION('refdir',(1.,0.,0.));
#893=DIRECTION('center_axis',(0.,1.,0.));
#894=DIRECTION('ref_axis',(0.,0.,1.));
#895=DIRECTION('',(0.,0.,-1.));
#896=DIRECTION('center_axis',(0.,-1.,0.));
#897=DIRECTION('ref_axis',(-0.707106781186547,0.,0.707106781186548));
#898=DIRECTION('',(-1.,0.,0.));
#899=DIRECTION('center_axis',(0.,-1.,0.));
#900=DIRECTION('ref_axis',(0.70710678118655,0.,0.707106781186545));
#901=DIRECTION('',(0.,0.,1.));
#902=DIRECTION('',(-1.,-1.44497573703925E-16,0.));
#903=DIRECTION('center_axis',(0.,1.,0.));
#904=DIRECTION('ref_axis',(1.,0.,0.));
#905=DIRECTION('center_axis',(0.,1.,0.));
#906=DIRECTION('ref_axis',(0.,0.,1.));
#907=DIRECTION('',(0.,0.,-1.));
#908=DIRECTION('center_axis',(0.,-1.,0.));
#909=DIRECTION('ref_axis',(-0.70710678118655,0.,0.707106781186545));
#910=DIRECTION('',(-1.,0.,0.));
#911=DIRECTION('center_axis',(0.,-1.,0.));
#912=DIRECTION('ref_axis',(0.707106781186548,0.,0.707106781186547));
#913=DIRECTION('',(0.,0.,1.));
#914=DIRECTION('',(-1.,-1.44497573703925E-16,0.));
#915=DIRECTION('center_axis',(0.,1.,0.));
#916=DIRECTION('ref_axis',(1.,0.,0.));
#917=DIRECTION('center_axis',(-1.,0.,0.));
#918=DIRECTION('ref_axis',(0.,-1.,0.));
#919=DIRECTION('',(0.,1.,0.));
#920=DIRECTION('',(0.,0.,1.));
#921=DIRECTION('',(0.,-1.,0.));
#922=DIRECTION('center_axis',(0.,0.,1.));
#923=DIRECTION('ref_axis',(1.,0.,0.));
#924=DIRECTION('',(0.,1.,0.));
#925=DIRECTION('',(-1.,0.,0.));
#926=DIRECTION('',(0.,-1.,0.));
#927=DIRECTION('',(1.,0.,0.));
#928=DIRECTION('',(0.,-1.,0.));
#929=DIRECTION('',(-1.,-8.88178419700125E-16,0.));
#930=DIRECTION('',(-1.,1.44497573703925E-16,0.));
#931=DIRECTION('',(0.,1.,0.));
#932=DIRECTION('',(1.,0.,0.));
#933=DIRECTION('',(0.,-1.,0.));
#934=DIRECTION('',(-1.,0.,0.));
#935=DIRECTION('',(-3.70074341541719E-16,1.,0.));
#936=DIRECTION('',(1.,1.0449157878825E-16,0.));
#937=DIRECTION('',(0.,-1.,0.));
#938=DIRECTION('',(0.,1.,0.));
#939=DIRECTION('',(1.,0.,0.));
#940=DIRECTION('',(0.,-1.,0.));
#941=DIRECTION('',(-1.,1.44497573703925E-16,0.));
#942=DIRECTION('',(0.,-1.,0.));
#943=DIRECTION('',(-1.,8.88178419700126E-16,0.));
#944=DIRECTION('',(0.,1.,0.));
#945=DIRECTION('center_axis',(1.,0.,0.));
#946=DIRECTION('ref_axis',(0.,1.,0.));
#947=DIRECTION('',(0.,1.,0.));
#948=DIRECTION('',(0.,0.,1.));
#949=DIRECTION('center_axis',(0.,1.,0.));
#950=DIRECTION('ref_axis',(0.,0.,1.));
#951=DIRECTION('',(0.,0.,1.));
#952=DIRECTION('',(0.,0.,-1.));
#953=DIRECTION('center_axis',(0.,1.,0.));
#954=DIRECTION('ref_axis',(0.707106781186548,0.,0.707106781186547));
#955=DIRECTION('',(1.,0.,0.));
#956=DIRECTION('center_axis',(0.,1.,0.));
#957=DIRECTION('ref_axis',(-0.70710678118655,0.,0.707106781186545));
#958=DIRECTION('center_axis',(0.,-1.,0.));
#959=DIRECTION('ref_axis',(1.,0.,0.));
#960=DIRECTION('center_axis',(0.,1.,0.));
#961=DIRECTION('ref_axis',(0.,0.,1.));
#962=DIRECTION('',(0.,0.,-1.));
#963=DIRECTION('center_axis',(0.,1.,0.));
#964=DIRECTION('ref_axis',(0.70710678118655,0.,0.707106781186545));
#965=DIRECTION('',(1.,0.,0.));
#966=DIRECTION('center_axis',(0.,1.,0.));
#967=DIRECTION('ref_axis',(-0.707106781186548,0.,0.707106781186547));
#968=DIRECTION('',(0.,0.,1.));
#969=DIRECTION('center_axis',(0.,-1.,0.));
#970=DIRECTION('ref_axis',(1.,0.,0.));
#971=DIRECTION('center_axis',(1.,0.,0.));
#972=DIRECTION('ref_axis',(0.,1.,0.));
#973=DIRECTION('',(0.,0.,1.));
#974=DIRECTION('',(0.,1.,0.));
#975=DIRECTION('center_axis',(-1.,0.,0.));
#976=DIRECTION('ref_axis',(0.,-1.,0.));
#977=DIRECTION('',(0.,-1.,0.));
#978=DIRECTION('',(0.,0.,1.));
#979=DIRECTION('center_axis',(0.,-1.,0.));
#980=DIRECTION('ref_axis',(-0.70710678118655,0.,0.707106781186545));
#981=DIRECTION('',(0.,1.,0.));
#982=DIRECTION('center_axis',(0.,-1.,0.));
#983=DIRECTION('ref_axis',(-0.70710678118655,0.,0.707106781186545));
#984=DIRECTION('center_axis',(0.,0.,1.));
#985=DIRECTION('ref_axis',(1.,0.,0.));
#986=DIRECTION('',(0.,-1.,0.));
#987=DIRECTION('',(-1.,0.,0.));
#988=DIRECTION('center_axis',(0.,-1.,0.));
#989=DIRECTION('ref_axis',(1.,0.,0.));
#990=DIRECTION('center_axis',(0.,-1.,0.));
#991=DIRECTION('ref_axis',(1.,0.,0.));
#992=DIRECTION('',(0.,-1.,0.));
#993=DIRECTION('center_axis',(0.,-1.,0.));
#994=DIRECTION('ref_axis',(1.,0.,0.));
#995=DIRECTION('',(0.,-1.,0.));
#996=DIRECTION('center_axis',(8.88178419700126E-16,1.,0.));
#997=DIRECTION('ref_axis',(1.,0.,0.));
#998=DIRECTION('center_axis',(0.,-1.,0.));
#999=DIRECTION('ref_axis',(1.,0.,0.));
#1000=DIRECTION('center_axis',(0.,-1.,0.));
#1001=DIRECTION('ref_axis',(1.,0.,0.));
#1002=DIRECTION('',(0.,-1.,0.));
#1003=DIRECTION('center_axis',(0.,-1.,0.));
#1004=DIRECTION('ref_axis',(1.,0.,0.));
#1005=DIRECTION('',(0.,-1.,0.));
#1006=DIRECTION('center_axis',(-8.88178419700125E-16,1.,0.));
#1007=DIRECTION('ref_axis',(1.,0.,0.));
#1008=DIRECTION('center_axis',(0.,1.,0.));
#1009=DIRECTION('ref_axis',(0.707106781186548,0.,0.707106781186547));
#1010=DIRECTION('',(0.,-1.,0.));
#1011=DIRECTION('center_axis',(-8.88178419700125E-16,1.,0.));
#1012=DIRECTION('ref_axis',(0.707106781186548,0.,0.707106781186547));
#1013=DIRECTION('',(0.,1.,0.));
#1014=DIRECTION('center_axis',(8.88178419700125E-16,-1.,0.));
#1015=DIRECTION('ref_axis',(1.,8.88178419700125E-16,0.));
#1016=DIRECTION('',(1.,8.88178419700125E-16,0.));
#1017=DIRECTION('center_axis',(-8.88178419700125E-16,1.,0.));
#1018=DIRECTION('ref_axis',(-0.70710678118655,0.,0.707106781186545));
#1019=DIRECTION('',(0.,0.,1.));
#1020=DIRECTION('center_axis',(0.,0.,1.));
#1021=DIRECTION('ref_axis',(1.,0.,0.));
#1022=DIRECTION('',(0.,1.,0.));
#1023=DIRECTION('center_axis',(0.,-1.,0.));
#1024=DIRECTION('ref_axis',(-0.70710678118655,0.,0.707106781186545));
#1025=DIRECTION('center_axis',(0.,1.,0.));
#1026=DIRECTION('ref_axis',(0.70710678118655,0.,0.707106781186545));
#1027=DIRECTION('',(0.,-1.,0.));
#1028=DIRECTION('center_axis',(8.88178419700126E-16,1.,0.));
#1029=DIRECTION('ref_axis',(0.70710678118655,0.,0.707106781186545));
#1030=DIRECTION('center_axis',(-8.88178419700126E-16,-1.,0.));
#1031=DIRECTION('ref_axis',(1.,-8.88178419700126E-16,0.));
#1032=DIRECTION('',(1.,-8.88178419700126E-16,0.));
#1033=DIRECTION('center_axis',(8.88178419700126E-16,1.,0.));
#1034=DIRECTION('ref_axis',(-0.707106781186547,0.,0.707106781186548));
#1035=DIRECTION('',(0.,0.,1.));
#1036=DIRECTION('center_axis',(0.,0.,1.));
#1037=DIRECTION('ref_axis',(1.,0.,0.));
#1038=DIRECTION('',(0.,1.,0.));
#1039=DIRECTION('center_axis',(0.,-1.,0.));
#1040=DIRECTION('ref_axis',(-0.707106781186547,0.,0.707106781186548));
#1041=DIRECTION('',(0.,-1.,0.));
#1042=DIRECTION('center_axis',(0.,1.,0.));
#1043=DIRECTION('ref_axis',(0.70710678118655,0.,0.707106781186545));
#1044=DIRECTION('center_axis',(0.,-1.,0.));
#1045=DIRECTION('ref_axis',(0.70710678118655,0.,0.707106781186545));
#1046=DIRECTION('',(0.,-1.,0.));
#1047=DIRECTION('center_axis',(0.,0.,1.));
#1048=DIRECTION('ref_axis',(1.,0.,0.));
#1049=DIRECTION('',(-1.,0.,0.));
#1050=DIRECTION('',(0.,1.,0.));
#1051=DIRECTION('center_axis',(0.,-1.,0.));
#1052=DIRECTION('ref_axis',(-0.707106781186548,0.,0.707106781186547));
#1053=DIRECTION('center_axis',(0.,-1.,0.));
#1054=DIRECTION('ref_axis',(-0.707106781186548,0.,0.707106781186547));
#1055=DIRECTION('',(0.,-1.,0.));
#1056=DIRECTION('center_axis',(0.,1.,0.));
#1057=DIRECTION('ref_axis',(0.707106781186548,0.,0.707106781186547));
#1058=DIRECTION('',(0.,1.,0.));
#1059=DIRECTION('center_axis',(0.,-1.,0.));
#1060=DIRECTION('ref_axis',(0.707106781186548,0.,0.707106781186547));
#1061=DIRECTION('center_axis',(0.,1.,0.));
#1062=DIRECTION('ref_axis',(-1.,0.,0.));
#1063=DIRECTION('',(0.,0.,1.));
#1064=DIRECTION('center_axis',(-1.,0.,0.));
#1065=DIRECTION('ref_axis',(0.,-1.,0.));
#1066=DIRECTION('center_axis',(-1.,0.,0.));
#1067=DIRECTION('ref_axis',(0.,-1.,0.));
#1068=DIRECTION('center_axis',(0.,1.,0.));
#1069=DIRECTION('ref_axis',(-1.,0.,0.));
#1070=DIRECTION('',(0.,0.,1.));
#1071=DIRECTION('center_axis',(1.,0.,0.));
#1072=DIRECTION('ref_axis',(0.,1.,0.));
#1073=DIRECTION('center_axis',(1.,0.,0.));
#1074=DIRECTION('ref_axis',(0.,1.,0.));
#1075=DIRECTION('center_axis',(0.,-1.,0.));
#1076=DIRECTION('ref_axis',(1.,0.,0.));
#1077=DIRECTION('',(0.,0.,1.));
#1078=DIRECTION('',(1.,0.,0.));
#1079=DIRECTION('',(0.,0.,1.));
#1080=DIRECTION('center_axis',(-1.,-3.70074341541719E-16,0.));
#1081=DIRECTION('ref_axis',(3.70074341541719E-16,-1.,0.));
#1082=DIRECTION('',(3.70074341541719E-16,-1.,0.));
#1083=DIRECTION('',(0.,0.,1.));
#1084=DIRECTION('center_axis',(-1.0449157878825E-16,1.,0.));
#1085=DIRECTION('ref_axis',(-1.,-1.0449157878825E-16,0.));
#1086=DIRECTION('',(-1.,-1.0449157878825E-16,0.));
#1087=DIRECTION('',(0.,0.,1.));
#1088=DIRECTION('center_axis',(1.,0.,0.));
#1089=DIRECTION('ref_axis',(0.,1.,0.));
#1090=DIRECTION('',(0.,1.,0.));
#1091=DIRECTION('center_axis',(0.,0.,1.));
#1092=DIRECTION('ref_axis',(1.,0.,0.));
#1093=DIRECTION('center_axis',(0.,-1.,0.));
#1094=DIRECTION('ref_axis',(1.,0.,0.));
#1095=DIRECTION('',(1.,0.,0.));
#1096=DIRECTION('',(0.,0.,1.));
#1097=DIRECTION('',(0.,0.,1.));
#1098=DIRECTION('center_axis',(-1.,0.,0.));
#1099=DIRECTION('ref_axis',(0.,-1.,0.));
#1100=DIRECTION('',(0.,-1.,0.));
#1101=DIRECTION('',(0.,0.,1.));
#1102=DIRECTION('center_axis',(0.,1.,0.));
#1103=DIRECTION('ref_axis',(-1.,0.,0.));
#1104=DIRECTION('',(-1.,0.,0.));
#1105=DIRECTION('',(0.,0.,1.));
#1106=DIRECTION('center_axis',(1.,0.,0.));
#1107=DIRECTION('ref_axis',(0.,1.,0.));
#1108=DIRECTION('',(0.,1.,0.));
#1109=DIRECTION('center_axis',(0.,0.,1.));
#1110=DIRECTION('ref_axis',(1.,0.,0.));
#1111=CARTESIAN_POINT('',(0.,0.,0.));
#1112=CARTESIAN_POINT('Origin',(0.399999999944702,25.8500000000175,8.5));
#1113=CARTESIAN_POINT('',(38.5999999999447,25.8500000000175,9.));
#1114=CARTESIAN_POINT('',(38.5999999999447,25.8500000000175,2.));
#1115=CARTESIAN_POINT('',(38.5999999999447,25.8500000000175,5.25));
#1116=CARTESIAN_POINT('',(40.5999999999447,25.8500000000175,11.));
#1117=CARTESIAN_POINT('Origin',(40.5999999999447,25.8500000000175,9.));
#1118=CARTESIAN_POINT('',(41.5999999999447,25.8500000000175,11.));
#1119=CARTESIAN_POINT('',(20.7499999999447,25.8500000000175,11.));
#1120=CARTESIAN_POINT('',(43.5999999999447,25.8500000000175,9.));
#1121=CARTESIAN_POINT('Origin',(41.5999999999447,25.8500000000175,9.));
#1122=CARTESIAN_POINT('',(43.5999999999447,25.8500000000175,2.));
#1123=CARTESIAN_POINT('',(43.5999999999447,25.8500000000175,5.25));
#1124=CARTESIAN_POINT('',(-49.1,25.8500000000175,2.));
#1125=CARTESIAN_POINT('',(39.8499999999447,25.8500000000175,8.5));
#1126=CARTESIAN_POINT('Origin',(41.0999999999447,25.8500000000175,8.5));
#1127=CARTESIAN_POINT('Origin',(0.399999999944702,25.8500000000175,8.5));
#1128=CARTESIAN_POINT('',(-43.6000000000553,25.8500000000175,9.));
#1129=CARTESIAN_POINT('',(-43.6000000000553,25.8500000000175,2.));
#1130=CARTESIAN_POINT('',(-43.6000000000553,25.8500000000175,5.25));
#1131=CARTESIAN_POINT('',(-41.6000000000553,25.8500000000175,11.));
#1132=CARTESIAN_POINT('Origin',(-41.6000000000553,25.8500000000175,9.));
#1133=CARTESIAN_POINT('',(-40.6000000000553,25.8500000000175,11.));
#1134=CARTESIAN_POINT('',(-20.3500000000553,25.8500000000175,11.));
#1135=CARTESIAN_POINT('',(-38.6000000000553,25.8500000000175,9.));
#1136=CARTESIAN_POINT('Origin',(-40.6000000000553,25.8500000000175,9.));
#1137=CARTESIAN_POINT('',(-38.6000000000553,25.8500000000175,2.));
#1138=CARTESIAN_POINT('',(-38.6000000000553,25.8500000000175,5.25));
#1139=CARTESIAN_POINT('',(-49.1,25.8500000000175,2.));
#1140=CARTESIAN_POINT('',(-42.3500000000553,25.8500000000175,8.5));
#1141=CARTESIAN_POINT('Origin',(-41.1000000000553,25.8500000000175,8.5));
#1142=CARTESIAN_POINT('Origin',(-43.6000000000553,26.0999999999825,2.));
#1143=CARTESIAN_POINT('',(-43.6000000000553,24.5999999999825,2.));
#1144=CARTESIAN_POINT('',(-43.6000000000553,13.0499999999913,2.));
#1145=CARTESIAN_POINT('',(-43.6000000000553,24.5999999999825,9.));
#1146=CARTESIAN_POINT('',(-43.6000000000553,24.5999999999825,2.));
#1147=CARTESIAN_POINT('',(-43.6000000000553,25.7249999999825,9.));
#1148=CARTESIAN_POINT('Origin',(0.,0.,2.));
#1149=CARTESIAN_POINT('',(49.1,-29.1,2.));
#1150=CARTESIAN_POINT('',(49.1,29.1,2.));
#1151=CARTESIAN_POINT('',(49.1,-29.1,2.));
#1152=CARTESIAN_POINT('',(-49.1,29.1,2.));
#1153=CARTESIAN_POINT('',(49.1,29.1,2.));
#1154=CARTESIAN_POINT('',(-49.1,-29.1,2.));
#1155=CARTESIAN_POINT('',(-49.1,29.1,2.));
#1156=CARTESIAN_POINT('',(-49.1,-29.1,2.));
#1157=CARTESIAN_POINT('',(-38.6000000000553,24.5999999999825,2.));
#1158=CARTESIAN_POINT('',(-38.6000000000553,12.2999999999913,2.));
#1159=CARTESIAN_POINT('',(-21.8000000000277,24.5999999999826,2.));
#1160=CARTESIAN_POINT('',(43.5999999999447,-25.8500000000175,2.));
#1161=CARTESIAN_POINT('',(38.5999999999447,-25.8500000000175,2.));
#1162=CARTESIAN_POINT('',(-49.1,-25.8500000000175,2.));
#1163=CARTESIAN_POINT('',(38.5999999999447,-24.6000000000175,2.));
#1164=CARTESIAN_POINT('',(38.5999999999447,-12.3000000000087,2.));
#1165=CARTESIAN_POINT('',(43.5999999999447,-24.6000000000175,2.));
#1166=CARTESIAN_POINT('',(21.7999999999723,-24.6000000000175,2.));
#1167=CARTESIAN_POINT('',(43.5999999999447,-13.0500000000087,2.));
#1168=CARTESIAN_POINT('',(42.5,-24.,2.));
#1169=CARTESIAN_POINT('',(-42.5,-24.,2.));
#1170=CARTESIAN_POINT('',(-21.25,-24.,2.));
#1171=CARTESIAN_POINT('',(-42.5,24.,2.));
#1172=CARTESIAN_POINT('',(-42.5,12.,2.));
#1173=CARTESIAN_POINT('',(42.5,24.,2.));
#1174=CARTESIAN_POINT('',(21.25,24.,2.));
#1175=CARTESIAN_POINT('',(42.5,-12.,2.));
#1176=CARTESIAN_POINT('',(-43.6000000000553,-25.8500000000175,2.));
#1177=CARTESIAN_POINT('',(-43.6000000000553,-24.6000000000175,2.));
#1178=CARTESIAN_POINT('',(-43.6000000000553,-12.3000000000087,2.));
#1179=CARTESIAN_POINT('',(-38.6000000000553,-24.6000000000175,2.));
#1180=CARTESIAN_POINT('',(-19.3000000000277,-24.6000000000175,2.));
#1181=CARTESIAN_POINT('',(-38.6000000000553,-25.8500000000175,2.));
#1182=CARTESIAN_POINT('',(-38.6000000000553,-13.0500000000087,2.));
#1183=CARTESIAN_POINT('',(-49.1,-25.8500000000175,2.));
#1184=CARTESIAN_POINT('',(43.5999999999447,24.5999999999825,2.));
#1185=CARTESIAN_POINT('',(43.5999999999447,12.2999999999913,2.));
#1186=CARTESIAN_POINT('',(38.5999999999447,24.5999999999825,2.));
#1187=CARTESIAN_POINT('',(19.2999999999724,24.5999999999826,2.));
#1188=CARTESIAN_POINT('',(38.5999999999447,13.0499999999913,2.));
#1189=CARTESIAN_POINT('Origin',(43.5999999999447,24.5999999999825,2.));
#1190=CARTESIAN_POINT('',(43.5999999999447,24.5999999999825,9.));
#1191=CARTESIAN_POINT('',(43.5999999999447,24.9749999999825,9.));
#1192=CARTESIAN_POINT('',(43.5999999999447,24.5999999999825,2.));
#1193=CARTESIAN_POINT('Origin',(0.399999999944702,-25.8500000000175,8.5));
#1194=CARTESIAN_POINT('',(-43.6000000000553,-25.8500000000175,9.));
#1195=CARTESIAN_POINT('',(-43.6000000000553,-25.8500000000175,5.25));
#1196=CARTESIAN_POINT('',(-38.6000000000553,-25.8500000000175,9.));
#1197=CARTESIAN_POINT('',(-38.6000000000553,-25.8500000000175,5.25));
#1198=CARTESIAN_POINT('',(-40.6000000000553,-25.8500000000175,11.));
#1199=CARTESIAN_POINT('Origin',(-40.6000000000553,-25.8500000000175,9.));
#1200=CARTESIAN_POINT('',(-41.6000000000553,-25.8500000000175,11.));
#1201=CARTESIAN_POINT('',(-20.3500000000553,-25.8500000000175,11.));
#1202=CARTESIAN_POINT('Origin',(-41.6000000000553,-25.8500000000175,9.));
#1203=CARTESIAN_POINT('',(-42.3500000000553,-25.8500000000175,8.5));
#1204=CARTESIAN_POINT('Origin',(-41.1000000000553,-25.8500000000175,8.5));
#1205=CARTESIAN_POINT('Origin',(0.399999999944702,-25.8500000000175,8.5));
#1206=CARTESIAN_POINT('',(43.5999999999447,-25.8500000000175,9.));
#1207=CARTESIAN_POINT('',(43.5999999999447,-25.8500000000175,5.25));
#1208=CARTESIAN_POINT('',(41.5999999999447,-25.8500000000175,11.));
#1209=CARTESIAN_POINT('Origin',(41.5999999999447,-25.8500000000175,9.));
#1210=CARTESIAN_POINT('',(40.5999999999447,-25.8500000000175,11.));
#1211=CARTESIAN_POINT('',(20.7499999999447,-25.8500000000175,11.));
#1212=CARTESIAN_POINT('',(38.5999999999447,-25.8500000000175,9.));
#1213=CARTESIAN_POINT('Origin',(40.5999999999447,-25.8500000000175,9.));
#1214=CARTESIAN_POINT('',(38.5999999999447,-25.8500000000175,5.25));
#1215=CARTESIAN_POINT('',(39.8499999999447,-25.8500000000175,8.5));
#1216=CARTESIAN_POINT('Origin',(41.0999999999447,-25.8500000000175,8.5));
#1217=CARTESIAN_POINT('Origin',(43.5999999999447,-26.1000000000175,2.));
#1218=CARTESIAN_POINT('',(43.5999999999447,-24.6000000000175,9.));
#1219=CARTESIAN_POINT('',(43.5999999999447,-24.6000000000175,2.));
#1220=CARTESIAN_POINT('',(43.5999999999447,-25.7250000000175,9.));
#1221=CARTESIAN_POINT('Origin',(-43.6000000000553,-24.6000000000175,2.));
#1222=CARTESIAN_POINT('',(-43.6000000000553,-24.6000000000175,9.));
#1223=CARTESIAN_POINT('',(-43.6000000000553,-24.9750000000175,9.));
#1224=CARTESIAN_POINT('',(-43.6000000000553,-24.6000000000175,2.));
#1225=CARTESIAN_POINT('Origin',(-41.6000000000553,-24.9750000000175,9.));
#1226=CARTESIAN_POINT('',(-41.6000000000553,-24.6000000000175,11.));
#1227=CARTESIAN_POINT('',(-41.6000000000553,-24.9750000000175,11.));
#1228=CARTESIAN_POINT('Origin',(-41.6000000000553,-24.6000000000175,9.));
#1229=CARTESIAN_POINT('Origin',(-41.1000000000553,-25.3500000000175,11.));
#1230=CARTESIAN_POINT('',(-40.6000000000553,-24.6000000000175,11.));
#1231=CARTESIAN_POINT('',(-40.6000000000553,-25.7250000000175,11.));
#1232=CARTESIAN_POINT('',(-38.6000000000553,-24.6000000000175,11.));
#1233=CARTESIAN_POINT('Origin',(41.0999999999447,26.0999999999825,8.5));
#1234=CARTESIAN_POINT('',(39.8499999999447,-24.6000000000175,8.5));
#1235=CARTESIAN_POINT('Origin',(41.0999999999447,-24.6000000000175,8.5));
#1236=CARTESIAN_POINT('',(39.8499999999447,26.0999999999825,8.5));
#1237=CARTESIAN_POINT('Origin',(41.0999999999447,26.0999999999825,8.5));
#1238=CARTESIAN_POINT('',(39.8499999999447,24.5999999999825,8.5));
#1239=CARTESIAN_POINT('',(39.8499999999447,26.0999999999825,8.5));
#1240=CARTESIAN_POINT('Origin',(41.0999999999447,24.5999999999825,8.5));
#1241=CARTESIAN_POINT('Origin',(-41.1000000000553,26.0999999999825,8.5));
#1242=CARTESIAN_POINT('',(-42.3500000000553,-24.6000000000175,8.5));
#1243=CARTESIAN_POINT('Origin',(-41.1000000000553,-24.6000000000175,8.5));
#1244=CARTESIAN_POINT('',(-42.3500000000553,26.0999999999825,8.5));
#1245=CARTESIAN_POINT('Origin',(-41.1000000000553,26.0999999999825,8.5));
#1246=CARTESIAN_POINT('',(-42.3500000000553,24.5999999999825,8.5));
#1247=CARTESIAN_POINT('',(-42.3500000000553,26.0999999999825,8.5));
#1248=CARTESIAN_POINT('Origin',(-41.1000000000553,24.5999999999825,8.5));
#1249=CARTESIAN_POINT('Origin',(-40.6000000000553,24.9749999999825,9.));
#1250=CARTESIAN_POINT('',(-40.6000000000553,24.5999999999825,11.));
#1251=CARTESIAN_POINT('',(-40.6000000000553,24.9749999999825,11.));
#1252=CARTESIAN_POINT('',(-38.6000000000553,24.5999999999825,9.));
#1253=CARTESIAN_POINT('Origin',(-40.6000000000553,24.5999999999825,9.));
#1254=CARTESIAN_POINT('',(-38.6000000000553,24.9749999999825,9.));
#1255=CARTESIAN_POINT('Origin',(-43.6000000000553,24.5999999999825,2.));
#1256=CARTESIAN_POINT('',(-41.6000000000553,24.5999999999825,11.));
#1257=CARTESIAN_POINT('',(-43.6000000000553,24.5999999999825,11.));
#1258=CARTESIAN_POINT('Origin',(-41.6000000000553,24.5999999999825,9.));
#1259=CARTESIAN_POINT('',(-38.6000000000553,24.5999999999825,2.));
#1260=CARTESIAN_POINT('Origin',(-41.1000000000553,25.3499999999825,11.));
#1261=CARTESIAN_POINT('',(-41.6000000000553,25.7249999999825,11.));
#1262=CARTESIAN_POINT('Origin',(-41.6000000000553,25.7249999999825,9.));
#1263=CARTESIAN_POINT('Origin',(41.5999999999447,24.9749999999825,9.));
#1264=CARTESIAN_POINT('',(41.5999999999447,24.5999999999825,11.));
#1265=CARTESIAN_POINT('',(41.5999999999447,24.9749999999825,11.));
#1266=CARTESIAN_POINT('Origin',(41.5999999999447,24.5999999999825,9.));
#1267=CARTESIAN_POINT('Origin',(38.5999999999447,24.5999999999825,2.));
#1268=CARTESIAN_POINT('',(40.5999999999447,24.5999999999825,11.));
#1269=CARTESIAN_POINT('',(38.5999999999447,24.5999999999825,11.));
#1270=CARTESIAN_POINT('',(38.5999999999447,24.5999999999825,9.));
#1271=CARTESIAN_POINT('Origin',(40.5999999999447,24.5999999999825,9.));
#1272=CARTESIAN_POINT('',(38.5999999999447,24.5999999999825,2.));
#1273=CARTESIAN_POINT('Origin',(41.0999999999447,25.3499999999825,11.));
#1274=CARTESIAN_POINT('',(40.5999999999447,25.7249999999825,11.));
#1275=CARTESIAN_POINT('Origin',(40.5999999999447,25.7249999999825,9.));
#1276=CARTESIAN_POINT('',(38.5999999999447,25.7249999999825,9.));
#1277=CARTESIAN_POINT('Origin',(41.5999999999447,-25.7250000000175,9.));
#1278=CARTESIAN_POINT('',(41.5999999999447,-24.6000000000175,11.));
#1279=CARTESIAN_POINT('Origin',(41.5999999999447,-24.6000000000175,9.));
#1280=CARTESIAN_POINT('',(41.5999999999447,-25.7250000000175,11.));
#1281=CARTESIAN_POINT('Origin',(41.0999999999447,-25.3500000000175,11.));
#1282=CARTESIAN_POINT('',(40.5999999999447,-24.6000000000175,11.));
#1283=CARTESIAN_POINT('',(43.5999999999447,-24.6000000000175,11.));
#1284=CARTESIAN_POINT('',(40.5999999999447,-24.9750000000175,11.));
#1285=CARTESIAN_POINT('Origin',(40.5999999999447,-24.9750000000175,9.));
#1286=CARTESIAN_POINT('',(38.5999999999447,-24.6000000000175,9.));
#1287=CARTESIAN_POINT('Origin',(40.5999999999447,-24.6000000000175,9.));
#1288=CARTESIAN_POINT('',(38.5999999999447,-24.9750000000175,9.));
#1289=CARTESIAN_POINT('Origin',(-40.6000000000553,-25.7250000000175,9.));
#1290=CARTESIAN_POINT('',(-38.6000000000553,-24.6000000000175,9.));
#1291=CARTESIAN_POINT('',(-38.6000000000553,-25.7250000000175,9.));
#1292=CARTESIAN_POINT('Origin',(-40.6000000000553,-24.6000000000175,9.));
#1293=CARTESIAN_POINT('Origin',(43.5999999999447,-24.6000000000175,2.));
#1294=CARTESIAN_POINT('',(38.5999999999447,-24.6000000000175,2.));
#1295=CARTESIAN_POINT('Origin',(38.5999999999447,-24.6000000000175,2.));
#1296=CARTESIAN_POINT('Origin',(38.5999999999447,26.0999999999825,2.));
#1297=CARTESIAN_POINT('Origin',(-38.6000000000553,-24.6000000000175,2.));
#1298=CARTESIAN_POINT('',(-38.6000000000553,-24.6000000000175,2.));
#1299=CARTESIAN_POINT('Origin',(-38.6000000000553,-26.1000000000175,2.));
#1300=CARTESIAN_POINT('Origin',(-38.6000000000553,24.5999999999825,2.));
#1301=CARTESIAN_POINT('Origin',(-42.5,-24.,2.));
#1302=CARTESIAN_POINT('',(42.5,-24.,3.6));
#1303=CARTESIAN_POINT('',(42.5,-24.,2.));
#1304=CARTESIAN_POINT('',(-42.5,-24.,3.6));
#1305=CARTESIAN_POINT('',(-42.5,-24.,3.6));
#1306=CARTESIAN_POINT('',(-42.5,-24.,2.));
#1307=CARTESIAN_POINT('Origin',(-42.5,24.,2.));
#1308=CARTESIAN_POINT('',(-42.5,24.,3.6));
#1309=CARTESIAN_POINT('',(-42.5,24.,3.6));
#1310=CARTESIAN_POINT('',(-42.5,24.,2.));
#1311=CARTESIAN_POINT('Origin',(42.5,24.,2.));
#1312=CARTESIAN_POINT('',(42.5,24.,3.6));
#1313=CARTESIAN_POINT('',(42.5,24.,3.6));
#1314=CARTESIAN_POINT('',(42.5,24.,2.));
#1315=CARTESIAN_POINT('Origin',(42.5,-24.,2.));
#1316=CARTESIAN_POINT('',(42.5,-24.,3.6));
#1317=CARTESIAN_POINT('Origin',(-8.88178419700125E-15,-4.44089209850063E-15,
3.6));
#1318=CARTESIAN_POINT('Origin',(-49.1,-29.1,0.));
#1319=CARTESIAN_POINT('',(-49.1,-29.1,0.));
#1320=CARTESIAN_POINT('',(49.1,-29.1,0.));
#1321=CARTESIAN_POINT('',(-49.1,-29.1,0.));
#1322=CARTESIAN_POINT('',(49.1,-29.1,0.));
#1323=CARTESIAN_POINT('',(-49.1,-29.1,0.));
#1324=CARTESIAN_POINT('Origin',(-49.1,29.1,0.));
#1325=CARTESIAN_POINT('',(-49.1,29.1,0.));
#1326=CARTESIAN_POINT('',(-49.1,29.1,0.));
#1327=CARTESIAN_POINT('',(-49.1,29.1,0.));
#1328=CARTESIAN_POINT('Origin',(49.1,29.1,0.));
#1329=CARTESIAN_POINT('',(49.1,29.1,0.));
#1330=CARTESIAN_POINT('',(49.1,29.1,0.));
#1331=CARTESIAN_POINT('',(49.1,29.1,0.));
#1332=CARTESIAN_POINT('Origin',(49.1,-29.1,0.));
#1333=CARTESIAN_POINT('',(49.1,-29.1,0.));
#1334=CARTESIAN_POINT('Origin',(0.,0.,0.));
#1335=UNCERTAINTY_MEASURE_WITH_UNIT(LENGTH_MEASURE(0.01),#1339,
'DISTANCE_ACCURACY_VALUE',
'Maximum model space distance between geometric entities at asserted c
onnectivities');
#1336=UNCERTAINTY_MEASURE_WITH_UNIT(LENGTH_MEASURE(0.01),#1339,
'DISTANCE_ACCURACY_VALUE',
'Maximum model space distance between geometric entities at asserted c
onnectivities');
#1337=(
GEOMETRIC_REPRESENTATION_CONTEXT(3)
GLOBAL_UNCERTAINTY_ASSIGNED_CONTEXT((#1335))
GLOBAL_UNIT_ASSIGNED_CONTEXT((#1339,#1341,#1342))
REPRESENTATION_CONTEXT('','3D')
);
#1338=(
GEOMETRIC_REPRESENTATION_CONTEXT(3)
GLOBAL_UNCERTAINTY_ASSIGNED_CONTEXT((#1336))
GLOBAL_UNIT_ASSIGNED_CONTEXT((#1339,#1341,#1342))
REPRESENTATION_CONTEXT('','3D')
);
#1339=(
LENGTH_UNIT()
NAMED_UNIT(*)
SI_UNIT(.MILLI.,.METRE.)
);
#1340=(
LENGTH_UNIT()
NAMED_UNIT(*)
SI_UNIT(.CENTI.,.METRE.)
);
#1341=(
NAMED_UNIT(*)
PLANE_ANGLE_UNIT()
SI_UNIT($,.RADIAN.)
);
#1342=(
NAMED_UNIT(*)
SI_UNIT($,.STERADIAN.)
SOLID_ANGLE_UNIT()
);
#1343=SHAPE_DEFINITION_REPRESENTATION(#1344,#1345);
#1344=PRODUCT_DEFINITION_SHAPE('',$,#1347);
#1345=SHAPE_REPRESENTATION('',(#823),#1337);
#1346=PRODUCT_DEFINITION_CONTEXT('part definition',#1351,'design');
#1347=PRODUCT_DEFINITION('V-002584','V-002584',#1348,#1346);
#1348=PRODUCT_DEFINITION_FORMATION('0',$,#1353);
#1349=PRODUCT_RELATED_PRODUCT_CATEGORY('V-002584','V-002584',(#1353));
#1350=APPLICATION_PROTOCOL_DEFINITION('international standard',
'automotive_design',2009,#1351);
#1351=APPLICATION_CONTEXT(
'Core Data for Automotive Mechanical Design Process');
#1352=PRODUCT_CONTEXT('part definition',#1351,'mechanical');
#1353=PRODUCT('V-002584','V-002584','Dekcel TAIT PLEXER',(#1352));
#1354=PRESENTATION_STYLE_ASSIGNMENT((#1355));
#1355=SURFACE_STYLE_USAGE(.BOTH.,#1358);
#1356=SURFACE_STYLE_RENDERING_WITH_PROPERTIES($,#1362,(#1357));
#1357=SURFACE_STYLE_TRANSPARENT(0.);
#1358=SURFACE_SIDE_STYLE('',(#1359,#1356));
#1359=SURFACE_STYLE_FILL_AREA(#1360);
#1360=FILL_AREA_STYLE('',(#1361));
#1361=FILL_AREA_STYLE_COLOUR('',#1362);
#1362=COLOUR_RGB('',0.749019607843137,0.749019607843137,0.749019607843137);
ENDSEC;
END-ISO-10303-21;
