ISO-10303-21;
HEADER;
/* Generated by software containing ST-Developer
 * from STEP Tools, Inc. (www.steptools.com) 
 */

FILE_DESCRIPTION(
/* description */ ('Geh\X\E4use_TAIT_PLEXER'),
/* implementation_level */ '2;1');

FILE_NAME(
/* name */ 'unterteil.stp',
/* time_stamp */ '2026-04-17T09:48:40+02:00',
/* author */ ('nathanael.callegari'),
/* organization */ (''),
/* preprocessor_version */ 'ST-DEVELOPER v20',
/* originating_system */ 'Autodesk Inventor 2025',
/* authorisation */ '');

FILE_SCHEMA (('AUTOMOTIVE_DESIGN { 1 0 10303 214 3 1 1 }'));
ENDSEC;

DATA;
#10=MECHANICAL_DESIGN_GEOMETRIC_PRESENTATION_REPRESENTATION('',(#13),#1008);
#11=SHAPE_REPRESENTATION_RELATIONSHIP('SRR','None',#1015,#12);
#12=ADVANCED_BREP_SHAPE_REPRESENTATION('',(#14),#1007);
#13=STYLED_ITEM('',(#1024),#14);
#14=MANIFOLD_SOLID_BREP('Volumenk\X\F6rper1',#619);
#15=FACE_BOUND('',#101,.T.);
#16=FACE_BOUND('',#102,.T.);
#17=FACE_BOUND('',#106,.T.);
#18=FACE_BOUND('',#107,.T.);
#19=FACE_BOUND('',#109,.T.);
#20=FACE_BOUND('',#110,.T.);
#21=FACE_BOUND('',#114,.T.);
#22=FACE_BOUND('',#115,.T.);
#23=PLANE('',#654);
#24=PLANE('',#655);
#25=PLANE('',#656);
#26=PLANE('',#657);
#27=PLANE('',#658);
#28=PLANE('',#659);
#29=PLANE('',#660);
#30=PLANE('',#661);
#31=PLANE('',#662);
#32=PLANE('',#663);
#33=PLANE('',#664);
#34=PLANE('',#665);
#35=PLANE('',#666);
#36=PLANE('',#667);
#37=PLANE('',#668);
#38=PLANE('',#669);
#39=PLANE('',#670);
#40=PLANE('',#671);
#41=PLANE('',#672);
#42=PLANE('',#673);
#43=PLANE('',#674);
#44=PLANE('',#675);
#45=PLANE('',#676);
#46=PLANE('',#677);
#47=PLANE('',#678);
#48=PLANE('',#679);
#49=FACE_OUTER_BOUND('',#79,.T.);
#50=FACE_OUTER_BOUND('',#80,.T.);
#51=FACE_OUTER_BOUND('',#81,.T.);
#52=FACE_OUTER_BOUND('',#82,.T.);
#53=FACE_OUTER_BOUND('',#83,.T.);
#54=FACE_OUTER_BOUND('',#84,.T.);
#55=FACE_OUTER_BOUND('',#85,.T.);
#56=FACE_OUTER_BOUND('',#86,.T.);
#57=FACE_OUTER_BOUND('',#87,.T.);
#58=FACE_OUTER_BOUND('',#88,.T.);
#59=FACE_OUTER_BOUND('',#89,.T.);
#60=FACE_OUTER_BOUND('',#90,.T.);
#61=FACE_OUTER_BOUND('',#91,.T.);
#62=FACE_OUTER_BOUND('',#92,.T.);
#63=FACE_OUTER_BOUND('',#93,.T.);
#64=FACE_OUTER_BOUND('',#94,.T.);
#65=FACE_OUTER_BOUND('',#95,.T.);
#66=FACE_OUTER_BOUND('',#96,.T.);
#67=FACE_OUTER_BOUND('',#97,.T.);
#68=FACE_OUTER_BOUND('',#98,.T.);
#69=FACE_OUTER_BOUND('',#99,.T.);
#70=FACE_OUTER_BOUND('',#100,.T.);
#71=FACE_OUTER_BOUND('',#103,.T.);
#72=FACE_OUTER_BOUND('',#104,.T.);
#73=FACE_OUTER_BOUND('',#105,.T.);
#74=FACE_OUTER_BOUND('',#108,.T.);
#75=FACE_OUTER_BOUND('',#111,.T.);
#76=FACE_OUTER_BOUND('',#112,.T.);
#77=FACE_OUTER_BOUND('',#113,.T.);
#78=FACE_OUTER_BOUND('',#116,.T.);
#79=EDGE_LOOP('',(#417,#418,#419,#420));
#80=EDGE_LOOP('',(#421,#422,#423,#424));
#81=EDGE_LOOP('',(#425,#426,#427,#428));
#82=EDGE_LOOP('',(#429,#430,#431,#432));
#83=EDGE_LOOP('',(#433,#434,#435,#436));
#84=EDGE_LOOP('',(#437,#438,#439,#440));
#85=EDGE_LOOP('',(#441,#442,#443,#444));
#86=EDGE_LOOP('',(#445,#446,#447,#448));
#87=EDGE_LOOP('',(#449,#450,#451,#452,#453,#454,#455,#456));
#88=EDGE_LOOP('',(#457,#458,#459,#460));
#89=EDGE_LOOP('',(#461,#462,#463,#464));
#90=EDGE_LOOP('',(#465,#466,#467,#468));
#91=EDGE_LOOP('',(#469,#470,#471,#472));
#92=EDGE_LOOP('',(#473,#474,#475,#476));
#93=EDGE_LOOP('',(#477,#478,#479,#480));
#94=EDGE_LOOP('',(#481,#482,#483,#484));
#95=EDGE_LOOP('',(#485,#486,#487,#488));
#96=EDGE_LOOP('',(#489,#490,#491,#492));
#97=EDGE_LOOP('',(#493,#494,#495,#496));
#98=EDGE_LOOP('',(#497,#498,#499,#500,#501,#502,#503,#504));
#99=EDGE_LOOP('',(#505,#506,#507,#508,#509,#510,#511,#512));
#100=EDGE_LOOP('',(#513,#514,#515,#516,#517,#518,#519,#520));
#101=EDGE_LOOP('',(#521));
#102=EDGE_LOOP('',(#522));
#103=EDGE_LOOP('',(#523,#524,#525,#526,#527,#528));
#104=EDGE_LOOP('',(#529,#530,#531,#532,#533,#534));
#105=EDGE_LOOP('',(#535,#536,#537,#538,#539,#540,#541,#542));
#106=EDGE_LOOP('',(#543));
#107=EDGE_LOOP('',(#544));
#108=EDGE_LOOP('',(#545,#546,#547,#548,#549,#550,#551,#552));
#109=EDGE_LOOP('',(#553));
#110=EDGE_LOOP('',(#554));
#111=EDGE_LOOP('',(#555,#556,#557,#558,#559,#560,#561,#562));
#112=EDGE_LOOP('',(#563,#564,#565,#566,#567,#568,#569,#570));
#113=EDGE_LOOP('',(#571,#572,#573,#574));
#114=EDGE_LOOP('',(#575));
#115=EDGE_LOOP('',(#576));
#116=EDGE_LOOP('',(#577,#578,#579,#580,#581,#582,#583,#584));
#117=LINE('',#839,#193);
#118=LINE('',#845,#194);
#119=LINE('',#851,#195);
#120=LINE('',#857,#196);
#121=LINE('',#862,#197);
#122=LINE('',#864,#198);
#123=LINE('',#866,#199);
#124=LINE('',#867,#200);
#125=LINE('',#871,#201);
#126=LINE('',#873,#202);
#127=LINE('',#875,#203);
#128=LINE('',#876,#204);
#129=LINE('',#879,#205);
#130=LINE('',#881,#206);
#131=LINE('',#882,#207);
#132=LINE('',#885,#208);
#133=LINE('',#887,#209);
#134=LINE('',#888,#210);
#135=LINE('',#892,#211);
#136=LINE('',#894,#212);
#137=LINE('',#895,#213);
#138=LINE('',#897,#214);
#139=LINE('',#898,#215);
#140=LINE('',#900,#216);
#141=LINE('',#904,#217);
#142=LINE('',#906,#218);
#143=LINE('',#908,#219);
#144=LINE('',#909,#220);
#145=LINE('',#913,#221);
#146=LINE('',#915,#222);
#147=LINE('',#917,#223);
#148=LINE('',#918,#224);
#149=LINE('',#920,#225);
#150=LINE('',#921,#226);
#151=LINE('',#925,#227);
#152=LINE('',#927,#228);
#153=LINE('',#929,#229);
#154=LINE('',#930,#230);
#155=LINE('',#934,#231);
#156=LINE('',#936,#232);
#157=LINE('',#938,#233);
#158=LINE('',#939,#234);
#159=LINE('',#941,#235);
#160=LINE('',#942,#236);
#161=LINE('',#946,#237);
#162=LINE('',#948,#238);
#163=LINE('',#950,#239);
#164=LINE('',#951,#240);
#165=LINE('',#955,#241);
#166=LINE('',#957,#242);
#167=LINE('',#959,#243);
#168=LINE('',#960,#244);
#169=LINE('',#962,#245);
#170=LINE('',#963,#246);
#171=LINE('',#966,#247);
#172=LINE('',#967,#248);
#173=LINE('',#969,#249);
#174=LINE('',#970,#250);
#175=LINE('',#973,#251);
#176=LINE('',#974,#252);
#177=LINE('',#976,#253);
#178=LINE('',#977,#254);
#179=LINE('',#980,#255);
#180=LINE('',#981,#256);
#181=LINE('',#982,#257);
#182=LINE('',#984,#258);
#183=LINE('',#985,#259);
#184=LINE('',#988,#260);
#185=LINE('',#989,#261);
#186=LINE('',#992,#262);
#187=LINE('',#993,#263);
#188=LINE('',#995,#264);
#189=LINE('',#997,#265);
#190=LINE('',#1000,#266);
#191=LINE('',#1001,#267);
#192=LINE('',#1003,#268);
#193=VECTOR('',#686,1.25);
#194=VECTOR('',#693,1.25);
#195=VECTOR('',#700,1.25);
#196=VECTOR('',#707,1.25);
#197=VECTOR('',#712,10.);
#198=VECTOR('',#713,10.);
#199=VECTOR('',#714,10.);
#200=VECTOR('',#715,10.);
#201=VECTOR('',#718,10.);
#202=VECTOR('',#719,10.);
#203=VECTOR('',#720,10.);
#204=VECTOR('',#721,10.);
#205=VECTOR('',#724,10.);
#206=VECTOR('',#725,10.);
#207=VECTOR('',#726,10.);
#208=VECTOR('',#729,10.);
#209=VECTOR('',#730,10.);
#210=VECTOR('',#731,10.);
#211=VECTOR('',#734,10.);
#212=VECTOR('',#735,10.);
#213=VECTOR('',#736,10.);
#214=VECTOR('',#737,10.);
#215=VECTOR('',#738,10.);
#216=VECTOR('',#741,10.);
#217=VECTOR('',#744,10.);
#218=VECTOR('',#745,10.);
#219=VECTOR('',#746,10.);
#220=VECTOR('',#747,10.);
#221=VECTOR('',#750,10.);
#222=VECTOR('',#751,10.);
#223=VECTOR('',#752,10.);
#224=VECTOR('',#753,10.);
#225=VECTOR('',#756,10.);
#226=VECTOR('',#757,10.);
#227=VECTOR('',#760,10.);
#228=VECTOR('',#761,10.);
#229=VECTOR('',#762,10.);
#230=VECTOR('',#763,10.);
#231=VECTOR('',#766,10.);
#232=VECTOR('',#767,10.);
#233=VECTOR('',#768,10.);
#234=VECTOR('',#769,10.);
#235=VECTOR('',#772,10.);
#236=VECTOR('',#773,10.);
#237=VECTOR('',#776,10.);
#238=VECTOR('',#777,10.);
#239=VECTOR('',#778,10.);
#240=VECTOR('',#779,10.);
#241=VECTOR('',#782,10.);
#242=VECTOR('',#783,10.);
#243=VECTOR('',#784,10.);
#244=VECTOR('',#785,10.);
#245=VECTOR('',#788,10.);
#246=VECTOR('',#789,10.);
#247=VECTOR('',#792,10.);
#248=VECTOR('',#793,10.);
#249=VECTOR('',#794,10.);
#250=VECTOR('',#795,10.);
#251=VECTOR('',#798,10.);
#252=VECTOR('',#799,10.);
#253=VECTOR('',#800,10.);
#254=VECTOR('',#801,10.);
#255=VECTOR('',#804,10.);
#256=VECTOR('',#805,10.);
#257=VECTOR('',#806,10.);
#258=VECTOR('',#809,10.);
#259=VECTOR('',#810,10.);
#260=VECTOR('',#813,10.);
#261=VECTOR('',#814,10.);
#262=VECTOR('',#817,10.);
#263=VECTOR('',#818,10.);
#264=VECTOR('',#821,10.);
#265=VECTOR('',#824,10.);
#266=VECTOR('',#827,10.);
#267=VECTOR('',#828,10.);
#268=VECTOR('',#831,10.);
#269=CIRCLE('',#643,1.25);
#270=CIRCLE('',#644,1.25);
#271=CIRCLE('',#646,1.25);
#272=CIRCLE('',#647,1.25);
#273=CIRCLE('',#649,1.25);
#274=CIRCLE('',#650,1.25);
#275=CIRCLE('',#652,1.25);
#276=CIRCLE('',#653,1.25);
#277=VERTEX_POINT('',#836);
#278=VERTEX_POINT('',#838);
#279=VERTEX_POINT('',#842);
#280=VERTEX_POINT('',#844);
#281=VERTEX_POINT('',#848);
#282=VERTEX_POINT('',#850);
#283=VERTEX_POINT('',#854);
#284=VERTEX_POINT('',#856);
#285=VERTEX_POINT('',#860);
#286=VERTEX_POINT('',#861);
#287=VERTEX_POINT('',#863);
#288=VERTEX_POINT('',#865);
#289=VERTEX_POINT('',#869);
#290=VERTEX_POINT('',#870);
#291=VERTEX_POINT('',#872);
#292=VERTEX_POINT('',#874);
#293=VERTEX_POINT('',#878);
#294=VERTEX_POINT('',#880);
#295=VERTEX_POINT('',#884);
#296=VERTEX_POINT('',#886);
#297=VERTEX_POINT('',#890);
#298=VERTEX_POINT('',#891);
#299=VERTEX_POINT('',#893);
#300=VERTEX_POINT('',#896);
#301=VERTEX_POINT('',#902);
#302=VERTEX_POINT('',#903);
#303=VERTEX_POINT('',#905);
#304=VERTEX_POINT('',#907);
#305=VERTEX_POINT('',#911);
#306=VERTEX_POINT('',#912);
#307=VERTEX_POINT('',#914);
#308=VERTEX_POINT('',#916);
#309=VERTEX_POINT('',#923);
#310=VERTEX_POINT('',#924);
#311=VERTEX_POINT('',#926);
#312=VERTEX_POINT('',#928);
#313=VERTEX_POINT('',#932);
#314=VERTEX_POINT('',#933);
#315=VERTEX_POINT('',#935);
#316=VERTEX_POINT('',#937);
#317=VERTEX_POINT('',#944);
#318=VERTEX_POINT('',#945);
#319=VERTEX_POINT('',#947);
#320=VERTEX_POINT('',#949);
#321=VERTEX_POINT('',#953);
#322=VERTEX_POINT('',#954);
#323=VERTEX_POINT('',#956);
#324=VERTEX_POINT('',#958);
#325=VERTEX_POINT('',#965);
#326=VERTEX_POINT('',#968);
#327=VERTEX_POINT('',#972);
#328=VERTEX_POINT('',#975);
#329=VERTEX_POINT('',#979);
#330=VERTEX_POINT('',#987);
#331=VERTEX_POINT('',#991);
#332=VERTEX_POINT('',#999);
#333=EDGE_CURVE('',#277,#277,#269,.T.);
#334=EDGE_CURVE('',#277,#278,#117,.T.);
#335=EDGE_CURVE('',#278,#278,#270,.T.);
#336=EDGE_CURVE('',#279,#279,#271,.T.);
#337=EDGE_CURVE('',#279,#280,#118,.T.);
#338=EDGE_CURVE('',#280,#280,#272,.T.);
#339=EDGE_CURVE('',#281,#281,#273,.T.);
#340=EDGE_CURVE('',#281,#282,#119,.T.);
#341=EDGE_CURVE('',#282,#282,#274,.T.);
#342=EDGE_CURVE('',#283,#283,#275,.T.);
#343=EDGE_CURVE('',#283,#284,#120,.T.);
#344=EDGE_CURVE('',#284,#284,#276,.T.);
#345=EDGE_CURVE('',#285,#286,#121,.T.);
#346=EDGE_CURVE('',#286,#287,#122,.T.);
#347=EDGE_CURVE('',#287,#288,#123,.T.);
#348=EDGE_CURVE('',#288,#285,#124,.T.);
#349=EDGE_CURVE('',#289,#290,#125,.T.);
#350=EDGE_CURVE('',#289,#291,#126,.T.);
#351=EDGE_CURVE('',#291,#292,#127,.T.);
#352=EDGE_CURVE('',#290,#292,#128,.T.);
#353=EDGE_CURVE('',#293,#289,#129,.T.);
#354=EDGE_CURVE('',#293,#294,#130,.T.);
#355=EDGE_CURVE('',#294,#291,#131,.T.);
#356=EDGE_CURVE('',#295,#293,#132,.T.);
#357=EDGE_CURVE('',#295,#296,#133,.T.);
#358=EDGE_CURVE('',#296,#294,#134,.T.);
#359=EDGE_CURVE('',#297,#298,#135,.T.);
#360=EDGE_CURVE('',#299,#297,#136,.T.);
#361=EDGE_CURVE('',#292,#299,#137,.T.);
#362=EDGE_CURVE('',#300,#296,#138,.T.);
#363=EDGE_CURVE('',#298,#300,#139,.T.);
#364=EDGE_CURVE('',#295,#290,#140,.T.);
#365=EDGE_CURVE('',#301,#302,#141,.T.);
#366=EDGE_CURVE('',#303,#301,#142,.T.);
#367=EDGE_CURVE('',#304,#303,#143,.T.);
#368=EDGE_CURVE('',#302,#304,#144,.T.);
#369=EDGE_CURVE('',#305,#306,#145,.T.);
#370=EDGE_CURVE('',#307,#305,#146,.T.);
#371=EDGE_CURVE('',#308,#307,#147,.T.);
#372=EDGE_CURVE('',#306,#308,#148,.T.);
#373=EDGE_CURVE('',#304,#307,#149,.T.);
#374=EDGE_CURVE('',#308,#303,#150,.T.);
#375=EDGE_CURVE('',#309,#310,#151,.T.);
#376=EDGE_CURVE('',#311,#309,#152,.T.);
#377=EDGE_CURVE('',#312,#311,#153,.T.);
#378=EDGE_CURVE('',#310,#312,#154,.T.);
#379=EDGE_CURVE('',#313,#314,#155,.T.);
#380=EDGE_CURVE('',#315,#313,#156,.T.);
#381=EDGE_CURVE('',#316,#315,#157,.T.);
#382=EDGE_CURVE('',#314,#316,#158,.T.);
#383=EDGE_CURVE('',#312,#315,#159,.T.);
#384=EDGE_CURVE('',#316,#311,#160,.T.);
#385=EDGE_CURVE('',#317,#318,#161,.T.);
#386=EDGE_CURVE('',#319,#317,#162,.T.);
#387=EDGE_CURVE('',#320,#319,#163,.T.);
#388=EDGE_CURVE('',#318,#320,#164,.T.);
#389=EDGE_CURVE('',#321,#322,#165,.T.);
#390=EDGE_CURVE('',#323,#321,#166,.T.);
#391=EDGE_CURVE('',#324,#323,#167,.T.);
#392=EDGE_CURVE('',#322,#324,#168,.T.);
#393=EDGE_CURVE('',#320,#323,#169,.T.);
#394=EDGE_CURVE('',#324,#319,#170,.T.);
#395=EDGE_CURVE('',#325,#301,#171,.T.);
#396=EDGE_CURVE('',#288,#325,#172,.T.);
#397=EDGE_CURVE('',#326,#287,#173,.T.);
#398=EDGE_CURVE('',#306,#326,#174,.T.);
#399=EDGE_CURVE('',#327,#309,#175,.T.);
#400=EDGE_CURVE('',#298,#327,#176,.T.);
#401=EDGE_CURVE('',#300,#328,#177,.T.);
#402=EDGE_CURVE('',#314,#328,#178,.T.);
#403=EDGE_CURVE('',#329,#317,#179,.T.);
#404=EDGE_CURVE('',#285,#329,#180,.T.);
#405=EDGE_CURVE('',#322,#325,#181,.T.);
#406=EDGE_CURVE('',#310,#329,#182,.T.);
#407=EDGE_CURVE('',#318,#327,#183,.T.);
#408=EDGE_CURVE('',#302,#330,#184,.T.);
#409=EDGE_CURVE('',#330,#321,#185,.T.);
#410=EDGE_CURVE('',#331,#299,#186,.T.);
#411=EDGE_CURVE('',#328,#331,#187,.T.);
#412=EDGE_CURVE('',#297,#330,#188,.T.);
#413=EDGE_CURVE('',#331,#305,#189,.T.);
#414=EDGE_CURVE('',#332,#313,#190,.T.);
#415=EDGE_CURVE('',#286,#332,#191,.T.);
#416=EDGE_CURVE('',#326,#332,#192,.T.);
#417=ORIENTED_EDGE('',*,*,#333,.F.);
#418=ORIENTED_EDGE('',*,*,#334,.T.);
#419=ORIENTED_EDGE('',*,*,#335,.F.);
#420=ORIENTED_EDGE('',*,*,#334,.F.);
#421=ORIENTED_EDGE('',*,*,#336,.F.);
#422=ORIENTED_EDGE('',*,*,#337,.T.);
#423=ORIENTED_EDGE('',*,*,#338,.F.);
#424=ORIENTED_EDGE('',*,*,#337,.F.);
#425=ORIENTED_EDGE('',*,*,#339,.F.);
#426=ORIENTED_EDGE('',*,*,#340,.T.);
#427=ORIENTED_EDGE('',*,*,#341,.F.);
#428=ORIENTED_EDGE('',*,*,#340,.F.);
#429=ORIENTED_EDGE('',*,*,#342,.F.);
#430=ORIENTED_EDGE('',*,*,#343,.T.);
#431=ORIENTED_EDGE('',*,*,#344,.F.);
#432=ORIENTED_EDGE('',*,*,#343,.F.);
#433=ORIENTED_EDGE('',*,*,#345,.T.);
#434=ORIENTED_EDGE('',*,*,#346,.T.);
#435=ORIENTED_EDGE('',*,*,#347,.T.);
#436=ORIENTED_EDGE('',*,*,#348,.T.);
#437=ORIENTED_EDGE('',*,*,#349,.F.);
#438=ORIENTED_EDGE('',*,*,#350,.T.);
#439=ORIENTED_EDGE('',*,*,#351,.T.);
#440=ORIENTED_EDGE('',*,*,#352,.F.);
#441=ORIENTED_EDGE('',*,*,#353,.F.);
#442=ORIENTED_EDGE('',*,*,#354,.T.);
#443=ORIENTED_EDGE('',*,*,#355,.T.);
#444=ORIENTED_EDGE('',*,*,#350,.F.);
#445=ORIENTED_EDGE('',*,*,#356,.F.);
#446=ORIENTED_EDGE('',*,*,#357,.T.);
#447=ORIENTED_EDGE('',*,*,#358,.T.);
#448=ORIENTED_EDGE('',*,*,#354,.F.);
#449=ORIENTED_EDGE('',*,*,#359,.F.);
#450=ORIENTED_EDGE('',*,*,#360,.F.);
#451=ORIENTED_EDGE('',*,*,#361,.F.);
#452=ORIENTED_EDGE('',*,*,#351,.F.);
#453=ORIENTED_EDGE('',*,*,#355,.F.);
#454=ORIENTED_EDGE('',*,*,#358,.F.);
#455=ORIENTED_EDGE('',*,*,#362,.F.);
#456=ORIENTED_EDGE('',*,*,#363,.F.);
#457=ORIENTED_EDGE('',*,*,#356,.T.);
#458=ORIENTED_EDGE('',*,*,#353,.T.);
#459=ORIENTED_EDGE('',*,*,#349,.T.);
#460=ORIENTED_EDGE('',*,*,#364,.F.);
#461=ORIENTED_EDGE('',*,*,#365,.F.);
#462=ORIENTED_EDGE('',*,*,#366,.F.);
#463=ORIENTED_EDGE('',*,*,#367,.F.);
#464=ORIENTED_EDGE('',*,*,#368,.F.);
#465=ORIENTED_EDGE('',*,*,#369,.F.);
#466=ORIENTED_EDGE('',*,*,#370,.F.);
#467=ORIENTED_EDGE('',*,*,#371,.F.);
#468=ORIENTED_EDGE('',*,*,#372,.F.);
#469=ORIENTED_EDGE('',*,*,#373,.F.);
#470=ORIENTED_EDGE('',*,*,#367,.T.);
#471=ORIENTED_EDGE('',*,*,#374,.F.);
#472=ORIENTED_EDGE('',*,*,#371,.T.);
#473=ORIENTED_EDGE('',*,*,#375,.F.);
#474=ORIENTED_EDGE('',*,*,#376,.F.);
#475=ORIENTED_EDGE('',*,*,#377,.F.);
#476=ORIENTED_EDGE('',*,*,#378,.F.);
#477=ORIENTED_EDGE('',*,*,#379,.F.);
#478=ORIENTED_EDGE('',*,*,#380,.F.);
#479=ORIENTED_EDGE('',*,*,#381,.F.);
#480=ORIENTED_EDGE('',*,*,#382,.F.);
#481=ORIENTED_EDGE('',*,*,#383,.F.);
#482=ORIENTED_EDGE('',*,*,#377,.T.);
#483=ORIENTED_EDGE('',*,*,#384,.F.);
#484=ORIENTED_EDGE('',*,*,#381,.T.);
#485=ORIENTED_EDGE('',*,*,#385,.F.);
#486=ORIENTED_EDGE('',*,*,#386,.F.);
#487=ORIENTED_EDGE('',*,*,#387,.F.);
#488=ORIENTED_EDGE('',*,*,#388,.F.);
#489=ORIENTED_EDGE('',*,*,#389,.F.);
#490=ORIENTED_EDGE('',*,*,#390,.F.);
#491=ORIENTED_EDGE('',*,*,#391,.F.);
#492=ORIENTED_EDGE('',*,*,#392,.F.);
#493=ORIENTED_EDGE('',*,*,#393,.F.);
#494=ORIENTED_EDGE('',*,*,#387,.T.);
#495=ORIENTED_EDGE('',*,*,#394,.F.);
#496=ORIENTED_EDGE('',*,*,#391,.T.);
#497=ORIENTED_EDGE('',*,*,#372,.T.);
#498=ORIENTED_EDGE('',*,*,#374,.T.);
#499=ORIENTED_EDGE('',*,*,#366,.T.);
#500=ORIENTED_EDGE('',*,*,#395,.F.);
#501=ORIENTED_EDGE('',*,*,#396,.F.);
#502=ORIENTED_EDGE('',*,*,#347,.F.);
#503=ORIENTED_EDGE('',*,*,#397,.F.);
#504=ORIENTED_EDGE('',*,*,#398,.F.);
#505=ORIENTED_EDGE('',*,*,#382,.T.);
#506=ORIENTED_EDGE('',*,*,#384,.T.);
#507=ORIENTED_EDGE('',*,*,#376,.T.);
#508=ORIENTED_EDGE('',*,*,#399,.F.);
#509=ORIENTED_EDGE('',*,*,#400,.F.);
#510=ORIENTED_EDGE('',*,*,#363,.T.);
#511=ORIENTED_EDGE('',*,*,#401,.T.);
#512=ORIENTED_EDGE('',*,*,#402,.F.);
#513=ORIENTED_EDGE('',*,*,#392,.T.);
#514=ORIENTED_EDGE('',*,*,#394,.T.);
#515=ORIENTED_EDGE('',*,*,#386,.T.);
#516=ORIENTED_EDGE('',*,*,#403,.F.);
#517=ORIENTED_EDGE('',*,*,#404,.F.);
#518=ORIENTED_EDGE('',*,*,#348,.F.);
#519=ORIENTED_EDGE('',*,*,#396,.T.);
#520=ORIENTED_EDGE('',*,*,#405,.F.);
#521=ORIENTED_EDGE('',*,*,#335,.T.);
#522=ORIENTED_EDGE('',*,*,#341,.T.);
#523=ORIENTED_EDGE('',*,*,#375,.T.);
#524=ORIENTED_EDGE('',*,*,#406,.T.);
#525=ORIENTED_EDGE('',*,*,#403,.T.);
#526=ORIENTED_EDGE('',*,*,#385,.T.);
#527=ORIENTED_EDGE('',*,*,#407,.T.);
#528=ORIENTED_EDGE('',*,*,#399,.T.);
#529=ORIENTED_EDGE('',*,*,#365,.T.);
#530=ORIENTED_EDGE('',*,*,#408,.T.);
#531=ORIENTED_EDGE('',*,*,#409,.T.);
#532=ORIENTED_EDGE('',*,*,#389,.T.);
#533=ORIENTED_EDGE('',*,*,#405,.T.);
#534=ORIENTED_EDGE('',*,*,#395,.T.);
#535=ORIENTED_EDGE('',*,*,#364,.T.);
#536=ORIENTED_EDGE('',*,*,#352,.T.);
#537=ORIENTED_EDGE('',*,*,#361,.T.);
#538=ORIENTED_EDGE('',*,*,#410,.F.);
#539=ORIENTED_EDGE('',*,*,#411,.F.);
#540=ORIENTED_EDGE('',*,*,#401,.F.);
#541=ORIENTED_EDGE('',*,*,#362,.T.);
#542=ORIENTED_EDGE('',*,*,#357,.F.);
#543=ORIENTED_EDGE('',*,*,#338,.T.);
#544=ORIENTED_EDGE('',*,*,#344,.T.);
#545=ORIENTED_EDGE('',*,*,#390,.T.);
#546=ORIENTED_EDGE('',*,*,#409,.F.);
#547=ORIENTED_EDGE('',*,*,#412,.F.);
#548=ORIENTED_EDGE('',*,*,#359,.T.);
#549=ORIENTED_EDGE('',*,*,#400,.T.);
#550=ORIENTED_EDGE('',*,*,#407,.F.);
#551=ORIENTED_EDGE('',*,*,#388,.T.);
#552=ORIENTED_EDGE('',*,*,#393,.T.);
#553=ORIENTED_EDGE('',*,*,#333,.T.);
#554=ORIENTED_EDGE('',*,*,#339,.T.);
#555=ORIENTED_EDGE('',*,*,#370,.T.);
#556=ORIENTED_EDGE('',*,*,#413,.F.);
#557=ORIENTED_EDGE('',*,*,#410,.T.);
#558=ORIENTED_EDGE('',*,*,#360,.T.);
#559=ORIENTED_EDGE('',*,*,#412,.T.);
#560=ORIENTED_EDGE('',*,*,#408,.F.);
#561=ORIENTED_EDGE('',*,*,#368,.T.);
#562=ORIENTED_EDGE('',*,*,#373,.T.);
#563=ORIENTED_EDGE('',*,*,#380,.T.);
#564=ORIENTED_EDGE('',*,*,#414,.F.);
#565=ORIENTED_EDGE('',*,*,#415,.F.);
#566=ORIENTED_EDGE('',*,*,#345,.F.);
#567=ORIENTED_EDGE('',*,*,#404,.T.);
#568=ORIENTED_EDGE('',*,*,#406,.F.);
#569=ORIENTED_EDGE('',*,*,#378,.T.);
#570=ORIENTED_EDGE('',*,*,#383,.T.);
#571=ORIENTED_EDGE('',*,*,#415,.T.);
#572=ORIENTED_EDGE('',*,*,#416,.F.);
#573=ORIENTED_EDGE('',*,*,#397,.T.);
#574=ORIENTED_EDGE('',*,*,#346,.F.);
#575=ORIENTED_EDGE('',*,*,#336,.T.);
#576=ORIENTED_EDGE('',*,*,#342,.T.);
#577=ORIENTED_EDGE('',*,*,#369,.T.);
#578=ORIENTED_EDGE('',*,*,#398,.T.);
#579=ORIENTED_EDGE('',*,*,#416,.T.);
#580=ORIENTED_EDGE('',*,*,#414,.T.);
#581=ORIENTED_EDGE('',*,*,#379,.T.);
#582=ORIENTED_EDGE('',*,*,#402,.T.);
#583=ORIENTED_EDGE('',*,*,#411,.T.);
#584=ORIENTED_EDGE('',*,*,#413,.T.);
#585=CYLINDRICAL_SURFACE('',#642,1.25);
#586=CYLINDRICAL_SURFACE('',#645,1.25);
#587=CYLINDRICAL_SURFACE('',#648,1.25);
#588=CYLINDRICAL_SURFACE('',#651,1.25);
#589=ADVANCED_FACE('',(#49),#585,.F.);
#590=ADVANCED_FACE('',(#50),#586,.F.);
#591=ADVANCED_FACE('',(#51),#587,.F.);
#592=ADVANCED_FACE('',(#52),#588,.F.);
#593=ADVANCED_FACE('',(#53),#23,.T.);
#594=ADVANCED_FACE('',(#54),#24,.F.);
#595=ADVANCED_FACE('',(#55),#25,.F.);
#596=ADVANCED_FACE('',(#56),#26,.F.);
#597=ADVANCED_FACE('',(#57),#27,.F.);
#598=ADVANCED_FACE('',(#58),#28,.F.);
#599=ADVANCED_FACE('',(#59),#29,.F.);
#600=ADVANCED_FACE('',(#60),#30,.F.);
#601=ADVANCED_FACE('',(#61),#31,.T.);
#602=ADVANCED_FACE('',(#62),#32,.F.);
#603=ADVANCED_FACE('',(#63),#33,.F.);
#604=ADVANCED_FACE('',(#64),#34,.T.);
#605=ADVANCED_FACE('',(#65),#35,.F.);
#606=ADVANCED_FACE('',(#66),#36,.F.);
#607=ADVANCED_FACE('',(#67),#37,.T.);
#608=ADVANCED_FACE('',(#68),#38,.T.);
#609=ADVANCED_FACE('',(#69),#39,.T.);
#610=ADVANCED_FACE('',(#70,#15,#16),#40,.T.);
#611=ADVANCED_FACE('',(#71),#41,.T.);
#612=ADVANCED_FACE('',(#72),#42,.T.);
#613=ADVANCED_FACE('',(#73,#17,#18),#43,.T.);
#614=ADVANCED_FACE('',(#74,#19,#20),#44,.T.);
#615=ADVANCED_FACE('',(#75),#45,.T.);
#616=ADVANCED_FACE('',(#76),#46,.T.);
#617=ADVANCED_FACE('',(#77,#21,#22),#47,.T.);
#618=ADVANCED_FACE('',(#78),#48,.T.);
#619=CLOSED_SHELL('',(#589,#590,#591,#592,#593,#594,#595,#596,#597,#598,
#599,#600,#601,#602,#603,#604,#605,#606,#607,#608,#609,#610,#611,#612,#613,
#614,#615,#616,#617,#618));
#620=DERIVED_UNIT_ELEMENT(#623,1.);
#621=DERIVED_UNIT_ELEMENT(#1010,-3.);
#622=DIMENSIONAL_EXPONENTS(0.,1.,0.,0.,0.,0.,0.);
#623=(
CONVERSION_BASED_UNIT('gram',#625)
MASS_UNIT()
NAMED_UNIT(#622)
);
#624=(
MASS_UNIT()
NAMED_UNIT(*)
SI_UNIT(.KILO.,.GRAM.)
);
#625=MASS_MEASURE_WITH_UNIT(MASS_MEASURE(0.001),#624);
#626=DERIVED_UNIT((#620,#621));
#627=MEASURE_REPRESENTATION_ITEM('density measure',
POSITIVE_RATIO_MEASURE(1.),#626);
#628=PROPERTY_DEFINITION_REPRESENTATION(#633,#630);
#629=PROPERTY_DEFINITION_REPRESENTATION(#634,#631);
#630=REPRESENTATION('material name',(#632),#1007);
#631=REPRESENTATION('density',(#627),#1007);
#632=DESCRIPTIVE_REPRESENTATION_ITEM('Generisch','Generisch');
#633=PROPERTY_DEFINITION('material property','material name',#1017);
#634=PROPERTY_DEFINITION('material property','density of part',#1017);
#635=DATE_TIME_ROLE('creation_date');
#636=APPLIED_DATE_AND_TIME_ASSIGNMENT(#637,#635,(#1017));
#637=DATE_AND_TIME(#638,#639);
#638=CALENDAR_DATE(2026,16,4);
#639=LOCAL_TIME(0,0,0.,#640);
#640=COORDINATED_UNIVERSAL_TIME_OFFSET(0,0,.BEHIND.);
#641=AXIS2_PLACEMENT_3D('',#834,#680,#681);
#642=AXIS2_PLACEMENT_3D('',#835,#682,#683);
#643=AXIS2_PLACEMENT_3D('',#837,#684,#685);
#644=AXIS2_PLACEMENT_3D('',#840,#687,#688);
#645=AXIS2_PLACEMENT_3D('',#841,#689,#690);
#646=AXIS2_PLACEMENT_3D('',#843,#691,#692);
#647=AXIS2_PLACEMENT_3D('',#846,#694,#695);
#648=AXIS2_PLACEMENT_3D('',#847,#696,#697);
#649=AXIS2_PLACEMENT_3D('',#849,#698,#699);
#650=AXIS2_PLACEMENT_3D('',#852,#701,#702);
#651=AXIS2_PLACEMENT_3D('',#853,#703,#704);
#652=AXIS2_PLACEMENT_3D('',#855,#705,#706);
#653=AXIS2_PLACEMENT_3D('',#858,#708,#709);
#654=AXIS2_PLACEMENT_3D('',#859,#710,#711);
#655=AXIS2_PLACEMENT_3D('',#868,#716,#717);
#656=AXIS2_PLACEMENT_3D('',#877,#722,#723);
#657=AXIS2_PLACEMENT_3D('',#883,#727,#728);
#658=AXIS2_PLACEMENT_3D('',#889,#732,#733);
#659=AXIS2_PLACEMENT_3D('',#899,#739,#740);
#660=AXIS2_PLACEMENT_3D('',#901,#742,#743);
#661=AXIS2_PLACEMENT_3D('',#910,#748,#749);
#662=AXIS2_PLACEMENT_3D('',#919,#754,#755);
#663=AXIS2_PLACEMENT_3D('',#922,#758,#759);
#664=AXIS2_PLACEMENT_3D('',#931,#764,#765);
#665=AXIS2_PLACEMENT_3D('',#940,#770,#771);
#666=AXIS2_PLACEMENT_3D('',#943,#774,#775);
#667=AXIS2_PLACEMENT_3D('',#952,#780,#781);
#668=AXIS2_PLACEMENT_3D('',#961,#786,#787);
#669=AXIS2_PLACEMENT_3D('',#964,#790,#791);
#670=AXIS2_PLACEMENT_3D('',#971,#796,#797);
#671=AXIS2_PLACEMENT_3D('',#978,#802,#803);
#672=AXIS2_PLACEMENT_3D('',#983,#807,#808);
#673=AXIS2_PLACEMENT_3D('',#986,#811,#812);
#674=AXIS2_PLACEMENT_3D('',#990,#815,#816);
#675=AXIS2_PLACEMENT_3D('',#994,#819,#820);
#676=AXIS2_PLACEMENT_3D('',#996,#822,#823);
#677=AXIS2_PLACEMENT_3D('',#998,#825,#826);
#678=AXIS2_PLACEMENT_3D('',#1002,#829,#830);
#679=AXIS2_PLACEMENT_3D('',#1004,#832,#833);
#680=DIRECTION('axis',(0.,0.,1.));
#681=DIRECTION('refdir',(1.,0.,0.));
#682=DIRECTION('center_axis',(0.,-1.,0.));
#683=DIRECTION('ref_axis',(1.,0.,0.));
#684=DIRECTION('center_axis',(-1.44497573703925E-16,1.,0.));
#685=DIRECTION('ref_axis',(1.,0.,0.));
#686=DIRECTION('',(0.,1.,0.));
#687=DIRECTION('center_axis',(9.04458675866056E-17,-1.,0.));
#688=DIRECTION('ref_axis',(1.,0.,0.));
#689=DIRECTION('center_axis',(0.,-1.,0.));
#690=DIRECTION('ref_axis',(1.,0.,0.));
#691=DIRECTION('center_axis',(0.,1.,0.));
#692=DIRECTION('ref_axis',(1.,0.,0.));
#693=DIRECTION('',(0.,1.,0.));
#694=DIRECTION('center_axis',(0.,-1.,0.));
#695=DIRECTION('ref_axis',(1.,0.,0.));
#696=DIRECTION('center_axis',(0.,-1.,0.));
#697=DIRECTION('ref_axis',(1.,0.,0.));
#698=DIRECTION('center_axis',(-1.44497573703925E-16,1.,0.));
#699=DIRECTION('ref_axis',(1.,0.,0.));
#700=DIRECTION('',(0.,1.,0.));
#701=DIRECTION('center_axis',(9.04458675866056E-17,-1.,0.));
#702=DIRECTION('ref_axis',(1.,0.,0.));
#703=DIRECTION('center_axis',(0.,-1.,0.));
#704=DIRECTION('ref_axis',(1.,0.,0.));
#705=DIRECTION('center_axis',(0.,1.,0.));
#706=DIRECTION('ref_axis',(1.,0.,0.));
#707=DIRECTION('',(0.,1.,0.));
#708=DIRECTION('center_axis',(0.,-1.,0.));
#709=DIRECTION('ref_axis',(1.,0.,0.));
#710=DIRECTION('center_axis',(0.,0.,-1.));
#711=DIRECTION('ref_axis',(-1.,0.,0.));
#712=DIRECTION('',(0.,-1.,0.));
#713=DIRECTION('',(-1.,0.,0.));
#714=DIRECTION('',(0.,1.,0.));
#715=DIRECTION('',(1.,9.04458675866056E-17,0.));
#716=DIRECTION('center_axis',(1.,0.,0.));
#717=DIRECTION('ref_axis',(0.,-1.,0.));
#718=DIRECTION('',(0.,-1.,0.));
#719=DIRECTION('',(0.,0.,-1.));
#720=DIRECTION('',(0.,-1.,0.));
#721=DIRECTION('',(0.,0.,-1.));
#722=DIRECTION('center_axis',(7.13969790755661E-17,-1.,0.));
#723=DIRECTION('ref_axis',(-1.,-7.13969790755661E-17,0.));
#724=DIRECTION('',(-1.,-7.13969790755661E-17,0.));
#725=DIRECTION('',(0.,0.,-1.));
#726=DIRECTION('',(-1.,-7.13969790755661E-17,0.));
#727=DIRECTION('center_axis',(-1.,0.,0.));
#728=DIRECTION('ref_axis',(0.,1.,0.));
#729=DIRECTION('',(0.,1.,0.));
#730=DIRECTION('',(0.,0.,-1.));
#731=DIRECTION('',(0.,1.,0.));
#732=DIRECTION('center_axis',(0.,0.,-1.));
#733=DIRECTION('ref_axis',(-1.,0.,0.));
#734=DIRECTION('',(1.,1.44497573703925E-16,0.));
#735=DIRECTION('',(-3.40298245095833E-16,1.,0.));
#736=DIRECTION('',(-1.,0.,0.));
#737=DIRECTION('',(-1.,0.,0.));
#738=DIRECTION('',(0.,-1.,0.));
#739=DIRECTION('center_axis',(0.,0.,-1.));
#740=DIRECTION('ref_axis',(-1.,0.,0.));
#741=DIRECTION('',(-1.,0.,0.));
#742=DIRECTION('center_axis',(0.,1.,0.));
#743=DIRECTION('ref_axis',(-1.,0.,0.));
#744=DIRECTION('',(1.,0.,0.));
#745=DIRECTION('',(0.,0.,1.));
#746=DIRECTION('',(-1.,0.,0.));
#747=DIRECTION('',(0.,0.,-1.));
#748=DIRECTION('center_axis',(0.,-1.,0.));
#749=DIRECTION('ref_axis',(1.,0.,0.));
#750=DIRECTION('',(-1.,0.,0.));
#751=DIRECTION('',(0.,0.,1.));
#752=DIRECTION('',(1.,0.,0.));
#753=DIRECTION('',(0.,0.,-1.));
#754=DIRECTION('center_axis',(0.,0.,1.));
#755=DIRECTION('ref_axis',(1.,0.,0.));
#756=DIRECTION('',(3.40298245095833E-16,-1.,0.));
#757=DIRECTION('',(0.,1.,0.));
#758=DIRECTION('center_axis',(0.,1.,0.));
#759=DIRECTION('ref_axis',(-1.,0.,0.));
#760=DIRECTION('',(1.,0.,0.));
#761=DIRECTION('',(0.,0.,1.));
#762=DIRECTION('',(-1.,0.,0.));
#763=DIRECTION('',(0.,0.,-1.));
#764=DIRECTION('center_axis',(0.,-1.,0.));
#765=DIRECTION('ref_axis',(1.,0.,0.));
#766=DIRECTION('',(-1.,0.,0.));
#767=DIRECTION('',(0.,0.,1.));
#768=DIRECTION('',(1.,0.,0.));
#769=DIRECTION('',(0.,0.,-1.));
#770=DIRECTION('center_axis',(0.,0.,1.));
#771=DIRECTION('ref_axis',(1.,0.,0.));
#772=DIRECTION('',(0.,-1.,0.));
#773=DIRECTION('',(0.,1.,0.));
#774=DIRECTION('center_axis',(1.,7.40148683079129E-16,0.));
#775=DIRECTION('ref_axis',(-7.40148683079129E-16,1.,0.));
#776=DIRECTION('',(7.40148683079129E-16,-1.,0.));
#777=DIRECTION('',(0.,0.,1.));
#778=DIRECTION('',(-7.40148683079129E-16,1.,0.));
#779=DIRECTION('',(0.,0.,-1.));
#780=DIRECTION('center_axis',(-1.,-7.40148683079129E-16,0.));
#781=DIRECTION('ref_axis',(7.40148683079129E-16,-1.,0.));
#782=DIRECTION('',(-7.40148683079129E-16,1.,0.));
#783=DIRECTION('',(0.,0.,1.));
#784=DIRECTION('',(7.40148683079129E-16,-1.,0.));
#785=DIRECTION('',(0.,0.,-1.));
#786=DIRECTION('center_axis',(0.,0.,1.));
#787=DIRECTION('ref_axis',(1.,0.,0.));
#788=DIRECTION('',(-1.,-1.44497573703925E-16,0.));
#789=DIRECTION('',(1.,9.04458675866056E-17,0.));
#790=DIRECTION('center_axis',(-1.,0.,0.));
#791=DIRECTION('ref_axis',(0.,-1.,0.));
#792=DIRECTION('',(0.,-1.,0.));
#793=DIRECTION('',(0.,0.,1.));
#794=DIRECTION('',(0.,0.,-1.));
#795=DIRECTION('',(0.,-1.,0.));
#796=DIRECTION('center_axis',(-1.,0.,0.));
#797=DIRECTION('ref_axis',(0.,-1.,0.));
#798=DIRECTION('',(0.,-1.,0.));
#799=DIRECTION('',(0.,0.,1.));
#800=DIRECTION('',(0.,0.,1.));
#801=DIRECTION('',(0.,-1.,0.));
#802=DIRECTION('center_axis',(-9.04458675866056E-17,1.,0.));
#803=DIRECTION('ref_axis',(-1.,-9.04458675866056E-17,0.));
#804=DIRECTION('',(-1.,-9.04458675866056E-17,0.));
#805=DIRECTION('',(0.,0.,1.));
#806=DIRECTION('',(-1.,-9.04458675866056E-17,0.));
#807=DIRECTION('center_axis',(0.,0.,1.));
#808=DIRECTION('ref_axis',(1.,0.,0.));
#809=DIRECTION('',(0.,1.,0.));
#810=DIRECTION('',(1.,1.44497573703925E-16,0.));
#811=DIRECTION('center_axis',(0.,0.,1.));
#812=DIRECTION('ref_axis',(1.,0.,0.));
#813=DIRECTION('',(-3.40298245095833E-16,1.,0.));
#814=DIRECTION('',(1.,1.44497573703925E-16,0.));
#815=DIRECTION('center_axis',(0.,1.,0.));
#816=DIRECTION('ref_axis',(-1.,0.,0.));
#817=DIRECTION('',(0.,0.,-1.));
#818=DIRECTION('',(-1.,0.,0.));
#819=DIRECTION('center_axis',(1.44497573703925E-16,-1.,0.));
#820=DIRECTION('ref_axis',(1.,1.44497573703925E-16,0.));
#821=DIRECTION('',(0.,0.,1.));
#822=DIRECTION('center_axis',(1.,3.40298245095833E-16,0.));
#823=DIRECTION('ref_axis',(-3.40298245095833E-16,1.,0.));
#824=DIRECTION('',(-3.40298245095833E-16,1.,0.));
#825=DIRECTION('center_axis',(1.,0.,0.));
#826=DIRECTION('ref_axis',(0.,1.,0.));
#827=DIRECTION('',(0.,1.,0.));
#828=DIRECTION('',(0.,0.,1.));
#829=DIRECTION('center_axis',(0.,-1.,0.));
#830=DIRECTION('ref_axis',(1.,0.,0.));
#831=DIRECTION('',(1.,0.,0.));
#832=DIRECTION('center_axis',(0.,0.,1.));
#833=DIRECTION('ref_axis',(1.,0.,0.));
#834=CARTESIAN_POINT('',(0.,0.,0.));
#835=CARTESIAN_POINT('Origin',(41.1,86.4152370901458,7.7));
#836=CARTESIAN_POINT('',(39.85,26.1,7.7));
#837=CARTESIAN_POINT('Origin',(41.1,26.1,7.7));
#838=CARTESIAN_POINT('',(39.85,29.1000000000175,7.7));
#839=CARTESIAN_POINT('',(39.85,86.4152370901458,7.7));
#840=CARTESIAN_POINT('Origin',(41.1,29.1000000000175,7.7));
#841=CARTESIAN_POINT('Origin',(41.1,86.4152370901458,7.7));
#842=CARTESIAN_POINT('',(39.85,-29.1000000000175,7.7));
#843=CARTESIAN_POINT('Origin',(41.1,-29.1000000000175,7.7));
#844=CARTESIAN_POINT('',(39.85,-26.1,7.7));
#845=CARTESIAN_POINT('',(39.85,86.4152370901458,7.7));
#846=CARTESIAN_POINT('Origin',(41.1,-26.1,7.7));
#847=CARTESIAN_POINT('Origin',(-41.1,86.4152370901458,7.7));
#848=CARTESIAN_POINT('',(-42.35,26.1,7.7));
#849=CARTESIAN_POINT('Origin',(-41.1,26.1,7.7));
#850=CARTESIAN_POINT('',(-42.35,29.1000000000175,7.7));
#851=CARTESIAN_POINT('',(-42.35,86.4152370901458,7.7));
#852=CARTESIAN_POINT('Origin',(-41.1,29.1000000000175,7.7));
#853=CARTESIAN_POINT('Origin',(-41.1,86.4152370901458,7.7));
#854=CARTESIAN_POINT('',(-42.35,-29.1000000000175,7.7));
#855=CARTESIAN_POINT('Origin',(-41.1,-29.1000000000175,7.7));
#856=CARTESIAN_POINT('',(-42.35,-26.1,7.7));
#857=CARTESIAN_POINT('',(-42.35,86.4152370901458,7.7));
#858=CARTESIAN_POINT('Origin',(-41.1,-26.1,7.7));
#859=CARTESIAN_POINT('Origin',(3.63797880709171E-11,-4.44089209850063E-15,
-3.5));
#860=CARTESIAN_POINT('',(49.1000000000175,29.1000000000175,-3.5));
#861=CARTESIAN_POINT('',(49.1000000000175,-29.1000000000175,-3.5));
#862=CARTESIAN_POINT('',(49.1000000000175,29.1000000000175,-3.5));
#863=CARTESIAN_POINT('',(-49.0999999999447,-29.1000000000175,-3.5));
#864=CARTESIAN_POINT('',(49.1000000000175,-29.1000000000175,-3.5));
#865=CARTESIAN_POINT('',(-49.0999999999447,29.1000000000175,-3.5));
#866=CARTESIAN_POINT('',(-49.0999999999447,-29.1000000000175,-3.5));
#867=CARTESIAN_POINT('',(-49.0999999999447,29.1000000000175,-3.5));
#868=CARTESIAN_POINT('Origin',(-31.1000000000029,11.1000000000029,0.));
#869=CARTESIAN_POINT('',(-31.1000000000029,11.1000000000029,0.));
#870=CARTESIAN_POINT('',(-31.1000000000029,-26.1,0.));
#871=CARTESIAN_POINT('',(-31.1000000000029,5.55000000000145,0.));
#872=CARTESIAN_POINT('',(-31.1000000000029,11.1000000000029,-2.5));
#873=CARTESIAN_POINT('',(-31.1000000000029,11.1000000000029,0.));
#874=CARTESIAN_POINT('',(-31.1000000000029,-26.1,-2.5));
#875=CARTESIAN_POINT('',(-31.1000000000029,-26.1,-2.5));
#876=CARTESIAN_POINT('',(-31.1000000000029,-26.1,0.));
#877=CARTESIAN_POINT('Origin',(31.1000000000029,11.1000000000029,0.));
#878=CARTESIAN_POINT('',(31.1000000000029,11.1000000000029,0.));
#879=CARTESIAN_POINT('',(15.5500000000196,11.1000000000029,0.));
#880=CARTESIAN_POINT('',(31.1000000000029,11.1000000000029,-2.5));
#881=CARTESIAN_POINT('',(31.1000000000029,11.1000000000029,0.));
#882=CARTESIAN_POINT('',(-31.1000000000029,11.1000000000029,-2.5));
#883=CARTESIAN_POINT('Origin',(31.1000000000029,-26.1,0.));
#884=CARTESIAN_POINT('',(31.1000000000029,-26.1,0.));
#885=CARTESIAN_POINT('',(31.1000000000029,-13.05,0.));
#886=CARTESIAN_POINT('',(31.1000000000029,-26.1,-2.5));
#887=CARTESIAN_POINT('',(31.1000000000029,-26.1,0.));
#888=CARTESIAN_POINT('',(31.1000000000029,11.1000000000029,-2.5));
#889=CARTESIAN_POINT('Origin',(-8.88178419700125E-15,-4.44089209850063E-15,
-2.5));
#890=CARTESIAN_POINT('',(-46.1,26.1,-2.5));
#891=CARTESIAN_POINT('',(46.1,26.1,-2.5));
#892=CARTESIAN_POINT('',(46.1,26.1,-2.5));
#893=CARTESIAN_POINT('',(-46.1,-26.1,-2.5));
#894=CARTESIAN_POINT('',(-46.1,26.1,-2.5));
#895=CARTESIAN_POINT('',(-46.1,-26.1,-2.5));
#896=CARTESIAN_POINT('',(46.1,-26.1,-2.5));
#897=CARTESIAN_POINT('',(-46.1,-26.1,-2.5));
#898=CARTESIAN_POINT('',(46.1,-26.1,-2.5));
#899=CARTESIAN_POINT('Origin',(3.63797880709171E-11,-2.22044604925031E-15,
0.));
#900=CARTESIAN_POINT('',(46.1,-26.1,0.));
#901=CARTESIAN_POINT('Origin',(-46.1,19.6,1.6));
#902=CARTESIAN_POINT('',(-49.0999999999447,19.6,14.2));
#903=CARTESIAN_POINT('',(-46.1,19.6,14.2));
#904=CARTESIAN_POINT('',(-23.0499999999818,19.6,14.2));
#905=CARTESIAN_POINT('',(-49.0999999999447,19.6,1.6));
#906=CARTESIAN_POINT('',(-49.0999999999447,19.6,0.8));
#907=CARTESIAN_POINT('',(-46.1,19.6,1.6));
#908=CARTESIAN_POINT('',(-46.1,19.6,1.6));
#909=CARTESIAN_POINT('',(-46.1,19.6,0.8));
#910=CARTESIAN_POINT('Origin',(-49.0999999999447,-20.4,1.6));
#911=CARTESIAN_POINT('',(-46.1,-20.4,14.2));
#912=CARTESIAN_POINT('',(-49.0999999999447,-20.4,14.2));
#913=CARTESIAN_POINT('',(-24.5499999999542,-20.4,14.2));
#914=CARTESIAN_POINT('',(-46.1,-20.4,1.6));
#915=CARTESIAN_POINT('',(-46.1,-20.4,0.8));
#916=CARTESIAN_POINT('',(-49.0999999999447,-20.4,1.6));
#917=CARTESIAN_POINT('',(-49.0999999999447,-20.4,1.6));
#918=CARTESIAN_POINT('',(-49.0999999999447,-20.4,0.8));
#919=CARTESIAN_POINT('Origin',(-47.5999999999723,-0.400000000000009,1.6));
#920=CARTESIAN_POINT('',(-46.1,-13.25,1.6));
#921=CARTESIAN_POINT('',(-49.0999999999447,14.3500000000087,1.6));
#922=CARTESIAN_POINT('Origin',(49.1000000000175,20.4,1.6));
#923=CARTESIAN_POINT('',(46.1,20.4,14.2));
#924=CARTESIAN_POINT('',(49.1000000000175,20.4,14.2));
#925=CARTESIAN_POINT('',(24.5500000000269,20.4,14.2));
#926=CARTESIAN_POINT('',(46.1,20.4,1.6));
#927=CARTESIAN_POINT('',(46.1,20.4,0.8));
#928=CARTESIAN_POINT('',(49.1000000000175,20.4,1.6));
#929=CARTESIAN_POINT('',(49.1000000000175,20.4,1.6));
#930=CARTESIAN_POINT('',(49.1000000000175,20.4,0.8));
#931=CARTESIAN_POINT('Origin',(46.1,-19.6,1.6));
#932=CARTESIAN_POINT('',(49.1000000000175,-19.6,14.2));
#933=CARTESIAN_POINT('',(46.1,-19.6,14.2));
#934=CARTESIAN_POINT('',(23.0500000000182,-19.6,14.2));
#935=CARTESIAN_POINT('',(49.1000000000175,-19.6,1.6));
#936=CARTESIAN_POINT('',(49.1000000000175,-19.6,0.8));
#937=CARTESIAN_POINT('',(46.1,-19.6,1.6));
#938=CARTESIAN_POINT('',(46.1,-19.6,1.6));
#939=CARTESIAN_POINT('',(46.1,-19.6,0.8));
#940=CARTESIAN_POINT('Origin',(47.6000000000087,0.400000000000005,1.6));
#941=CARTESIAN_POINT('',(49.1000000000175,-14.3500000000087,1.6));
#942=CARTESIAN_POINT('',(46.1,13.25,1.6));
#943=CARTESIAN_POINT('Origin',(14.6,26.1,1.6));
#944=CARTESIAN_POINT('',(14.6,29.1000000000175,14.2));
#945=CARTESIAN_POINT('',(14.6,26.1,14.2));
#946=CARTESIAN_POINT('',(14.6,13.05,14.2));
#947=CARTESIAN_POINT('',(14.6,29.1000000000175,1.6));
#948=CARTESIAN_POINT('',(14.6,29.1000000000175,0.8));
#949=CARTESIAN_POINT('',(14.6,26.1,1.6));
#950=CARTESIAN_POINT('',(14.6,26.1,1.6));
#951=CARTESIAN_POINT('',(14.6,26.1,0.8));
#952=CARTESIAN_POINT('Origin',(-16.4,29.1000000000175,1.6));
#953=CARTESIAN_POINT('',(-16.4,26.1,14.2));
#954=CARTESIAN_POINT('',(-16.4,29.1000000000175,14.2));
#955=CARTESIAN_POINT('',(-16.4,14.5500000000087,14.2));
#956=CARTESIAN_POINT('',(-16.4,26.1,1.6));
#957=CARTESIAN_POINT('',(-16.4,26.1,0.8));
#958=CARTESIAN_POINT('',(-16.4,29.1000000000175,1.6));
#959=CARTESIAN_POINT('',(-16.4,29.1000000000175,1.6));
#960=CARTESIAN_POINT('',(-16.4,29.1000000000175,0.8));
#961=CARTESIAN_POINT('Origin',(-0.900000000000012,27.6000000000087,1.6));
#962=CARTESIAN_POINT('',(-23.5,26.1,1.6));
#963=CARTESIAN_POINT('',(24.1000000000087,29.1000000000175,1.6));
#964=CARTESIAN_POINT('Origin',(-49.0999999999447,29.1000000000175,0.));
#965=CARTESIAN_POINT('',(-49.0999999999447,29.1000000000175,14.2));
#966=CARTESIAN_POINT('',(-49.0999999999447,29.1000000000175,14.2));
#967=CARTESIAN_POINT('',(-49.0999999999447,29.1000000000175,0.));
#968=CARTESIAN_POINT('',(-49.0999999999447,-29.1000000000175,14.2));
#969=CARTESIAN_POINT('',(-49.0999999999447,-29.1000000000175,0.));
#970=CARTESIAN_POINT('',(-49.0999999999447,29.1000000000175,14.2));
#971=CARTESIAN_POINT('Origin',(46.1,26.1,0.));
#972=CARTESIAN_POINT('',(46.1,26.1,14.2));
#973=CARTESIAN_POINT('',(46.1,26.1,14.2));
#974=CARTESIAN_POINT('',(46.1,26.1,0.));
#975=CARTESIAN_POINT('',(46.1,-26.1,14.2));
#976=CARTESIAN_POINT('',(46.1,-26.1,0.));
#977=CARTESIAN_POINT('',(46.1,26.1,14.2));
#978=CARTESIAN_POINT('Origin',(49.1000000000175,29.1000000000175,0.));
#979=CARTESIAN_POINT('',(49.1000000000175,29.1000000000175,14.2));
#980=CARTESIAN_POINT('',(49.1000000000175,29.1000000000175,14.2));
#981=CARTESIAN_POINT('',(49.1000000000175,29.1000000000175,0.));
#982=CARTESIAN_POINT('',(49.1000000000175,29.1000000000175,14.2));
#983=CARTESIAN_POINT('Origin',(3.63797880709171E-11,-4.44089209850063E-15,
14.2));
#984=CARTESIAN_POINT('',(49.1000000000175,-29.1000000000175,14.2));
#985=CARTESIAN_POINT('',(-46.1,26.1,14.2));
#986=CARTESIAN_POINT('Origin',(3.63797880709171E-11,-4.44089209850063E-15,
14.2));
#987=CARTESIAN_POINT('',(-46.1,26.1,14.2));
#988=CARTESIAN_POINT('',(-46.1,-26.1,14.2));
#989=CARTESIAN_POINT('',(-46.1,26.1,14.2));
#990=CARTESIAN_POINT('Origin',(46.1,-26.1,0.));
#991=CARTESIAN_POINT('',(-46.1,-26.1,14.2));
#992=CARTESIAN_POINT('',(-46.1,-26.1,0.));
#993=CARTESIAN_POINT('',(46.1,-26.1,14.2));
#994=CARTESIAN_POINT('Origin',(-46.1,26.1,0.));
#995=CARTESIAN_POINT('',(-46.1,26.1,0.));
#996=CARTESIAN_POINT('Origin',(-46.1,-26.1,0.));
#997=CARTESIAN_POINT('',(-46.1,-26.1,14.2));
#998=CARTESIAN_POINT('Origin',(49.1000000000175,-29.1000000000175,0.));
#999=CARTESIAN_POINT('',(49.1000000000175,-29.1000000000175,14.2));
#1000=CARTESIAN_POINT('',(49.1000000000175,-29.1000000000175,14.2));
#1001=CARTESIAN_POINT('',(49.1000000000175,-29.1000000000175,0.));
#1002=CARTESIAN_POINT('Origin',(-49.0999999999447,-29.1000000000175,0.));
#1003=CARTESIAN_POINT('',(-49.0999999999447,-29.1000000000175,14.2));
#1004=CARTESIAN_POINT('Origin',(3.63797880709171E-11,-4.44089209850063E-15,
14.2));
#1005=UNCERTAINTY_MEASURE_WITH_UNIT(LENGTH_MEASURE(0.01),#1009,
'DISTANCE_ACCURACY_VALUE',
'Maximum model space distance between geometric entities at asserted c
onnectivities');
#1006=UNCERTAINTY_MEASURE_WITH_UNIT(LENGTH_MEASURE(0.01),#1009,
'DISTANCE_ACCURACY_VALUE',
'Maximum model space distance between geometric entities at asserted c
onnectivities');
#1007=(
GEOMETRIC_REPRESENTATION_CONTEXT(3)
GLOBAL_UNCERTAINTY_ASSIGNED_CONTEXT((#1005))
GLOBAL_UNIT_ASSIGNED_CONTEXT((#1009,#1011,#1012))
REPRESENTATION_CONTEXT('','3D')
);
#1008=(
GEOMETRIC_REPRESENTATION_CONTEXT(3)
GLOBAL_UNCERTAINTY_ASSIGNED_CONTEXT((#1006))
GLOBAL_UNIT_ASSIGNED_CONTEXT((#1009,#1011,#1012))
REPRESENTATION_CONTEXT('','3D')
);
#1009=(
LENGTH_UNIT()
NAMED_UNIT(*)
SI_UNIT(.MILLI.,.METRE.)
);
#1010=(
LENGTH_UNIT()
NAMED_UNIT(*)
SI_UNIT(.CENTI.,.METRE.)
);
#1011=(
NAMED_UNIT(*)
PLANE_ANGLE_UNIT()
SI_UNIT($,.RADIAN.)
);
#1012=(
NAMED_UNIT(*)
SI_UNIT($,.STERADIAN.)
SOLID_ANGLE_UNIT()
);
#1013=SHAPE_DEFINITION_REPRESENTATION(#1014,#1015);
#1014=PRODUCT_DEFINITION_SHAPE('',$,#1017);
#1015=SHAPE_REPRESENTATION('',(#641),#1007);
#1016=PRODUCT_DEFINITION_CONTEXT('part definition',#1021,'design');
#1017=PRODUCT_DEFINITION('V-002581','V-002581',#1018,#1016);
#1018=PRODUCT_DEFINITION_FORMATION('0',$,#1023);
#1019=PRODUCT_RELATED_PRODUCT_CATEGORY('V-002581','V-002581',(#1023));
#1020=APPLICATION_PROTOCOL_DEFINITION('international standard',
'automotive_design',2009,#1021);
#1021=APPLICATION_CONTEXT(
'Core Data for Automotive Mechanical Design Process');
#1022=PRODUCT_CONTEXT('part definition',#1021,'mechanical');
#1023=PRODUCT('V-002581','V-002581','Geh\X\E4use_TAIT_PLEXER',(#1022));
#1024=PRESENTATION_STYLE_ASSIGNMENT((#1025));
#1025=SURFACE_STYLE_USAGE(.BOTH.,#1028);
#1026=SURFACE_STYLE_RENDERING_WITH_PROPERTIES($,#1032,(#1027));
#1027=SURFACE_STYLE_TRANSPARENT(0.);
#1028=SURFACE_SIDE_STYLE('',(#1029,#1026));
#1029=SURFACE_STYLE_FILL_AREA(#1030);
#1030=FILL_AREA_STYLE('',(#1031));
#1031=FILL_AREA_STYLE_COLOUR('',#1032);
#1032=COLOUR_RGB('',0.749019607843137,0.749019607843137,0.749019607843137);
ENDSEC;
END-ISO-10303-21;
