%TF.GenerationSoftware,KiCad,Pcbnew,9.0.4*%
%TF.CreationDate,2025-09-22T16:02:19+02:00*%
%TF.ProjectId,SAULink9_ATPI_v2.0,5341554c-696e-46b3-995f-415450495f76,rev?*%
%TF.SameCoordinates,Original*%
%TF.FileFunction,Copper,L2,Bot*%
%TF.FilePolarity,Positive*%
%FSLAX46Y46*%
G04 Gerber Fmt 4.6, Leading zero omitted, Abs format (unit mm)*
G04 Created by KiCad (PCBNEW 9.0.4) date 2025-09-22 16:02:19*
%MOMM*%
%LPD*%
G01*
G04 APERTURE LIST*
%TA.AperFunction,ViaPad*%
%ADD10C,0.600000*%
%TD*%
%TA.AperFunction,Conductor*%
%ADD11C,0.200000*%
%TD*%
G04 APERTURE END LIST*
D10*
%TO.N,Net-(C2-Pad1)*%
X121729252Y-91443048D03*
X125561752Y-94126748D03*
%TO.N,Net-(J2-Pad3)*%
X134300000Y-93150000D03*
X146550000Y-87550000D03*
%TO.N,Net-(J1-VBUS)*%
X126310000Y-86030000D03*
X136926252Y-84739748D03*
X116638752Y-91150000D03*
X132776252Y-84750496D03*
X134276252Y-90901748D03*
%TO.N,Net-(D1-K)*%
X146650000Y-83500000D03*
X128300000Y-83500000D03*
%TO.N,GND*%
X126800000Y-87400000D03*
X129651252Y-91801748D03*
X145700000Y-93800000D03*
X150610000Y-98210000D03*
X130351252Y-95201748D03*
X132426252Y-93051748D03*
X129126252Y-93826748D03*
X133776252Y-92076748D03*
X132451252Y-95201748D03*
X130101252Y-90126748D03*
X134326252Y-94851748D03*
X132850000Y-79800000D03*
%TO.N,Net-(R3-Pad2)*%
X132226252Y-90101748D03*
X126360000Y-83970000D03*
%TO.N,Net-(C4-Pad1)*%
X136926252Y-87301748D03*
X133363752Y-90139248D03*
X118476252Y-83301748D03*
X125230000Y-87160000D03*
%TD*%
D11*
%TO.N,Net-(C2-Pad1)*%
X125561752Y-94126748D02*
X122001252Y-94126748D01*
X122001252Y-94126748D02*
X121729252Y-93854748D01*
X121729252Y-93854748D02*
X121729252Y-91443048D01*
%TO.N,Net-(J2-Pad3)*%
X146550000Y-92950000D02*
X146350000Y-93150000D01*
X146350000Y-93150000D02*
X134300000Y-93150000D01*
X146550000Y-87550000D02*
X146550000Y-92950000D01*
%TO.N,Net-(J1-VBUS)*%
X127600000Y-86230000D02*
X127600000Y-90600000D01*
X136926252Y-84739748D02*
X136776252Y-84739748D01*
X127950000Y-90950000D02*
X127600000Y-90600000D01*
X133026252Y-90901748D02*
X132776252Y-90651748D01*
X132800000Y-84726748D02*
X136913252Y-84726748D01*
X132776252Y-90651748D02*
X132478000Y-90950000D01*
X116850000Y-90600000D02*
X127600000Y-90600000D01*
X116638752Y-90811248D02*
X116850000Y-90600000D01*
X126310000Y-86030000D02*
X127400000Y-86030000D01*
X132776252Y-84750496D02*
X132800000Y-84726748D01*
X132776252Y-84750496D02*
X132776252Y-90651748D01*
X134276252Y-90901748D02*
X133026252Y-90901748D01*
X116638752Y-91150000D02*
X116638752Y-90811248D01*
X136913252Y-84726748D02*
X136926252Y-84739748D01*
X127400000Y-86030000D02*
X127600000Y-86230000D01*
X132478000Y-90950000D02*
X127950000Y-90950000D01*
%TO.N,Net-(D1-K)*%
X128300000Y-83500000D02*
X146650000Y-83500000D01*
%TO.N,Net-(R3-Pad2)*%
X126391000Y-84001000D02*
X126360000Y-83970000D01*
X132220000Y-84180000D02*
X132041000Y-84001000D01*
X132220000Y-90095496D02*
X132220000Y-84180000D01*
X126360000Y-83970000D02*
X126380000Y-83990000D01*
X132041000Y-84001000D02*
X126391000Y-84001000D01*
X132226252Y-90101748D02*
X132220000Y-90095496D01*
%TO.N,Net-(C4-Pad1)*%
X118640000Y-87140000D02*
X118476252Y-86976252D01*
X125210000Y-87140000D02*
X118640000Y-87140000D01*
X136801252Y-87301748D02*
X136901252Y-87301748D01*
X136901252Y-87301748D02*
X134063752Y-90139248D01*
X134063752Y-90139248D02*
X133363752Y-90139248D01*
X125230000Y-87160000D02*
X125210000Y-87140000D01*
X118476252Y-86976252D02*
X118476252Y-83301748D01*
%TD*%
%TA.AperFunction,Conductor*%
%TO.N,GND*%
G36*
X152075569Y-78422796D02*
G01*
X152142596Y-78442517D01*
X152188322Y-78495346D01*
X152199500Y-78546796D01*
X152199500Y-98752795D01*
X152179815Y-98819834D01*
X152127011Y-98865589D01*
X152075433Y-98876795D01*
X123640019Y-98861367D01*
X123572990Y-98841646D01*
X123531121Y-98796550D01*
X121387659Y-94850112D01*
X121213653Y-94529740D01*
X121199616Y-94495851D01*
X121190053Y-94486288D01*
X121183598Y-94474403D01*
X121160135Y-94455408D01*
X121160135Y-94455407D01*
X121155078Y-94451313D01*
X121129149Y-94425384D01*
X121116655Y-94420208D01*
X121106143Y-94411698D01*
X121095344Y-94408501D01*
X121077205Y-94403130D01*
X121070962Y-94401281D01*
X121037080Y-94387248D01*
X121023557Y-94387248D01*
X121010586Y-94383408D01*
X120980571Y-94386567D01*
X120967593Y-94387248D01*
X117329372Y-94387248D01*
X117262333Y-94367563D01*
X117216578Y-94314759D01*
X117205372Y-94263366D01*
X117202628Y-91390321D01*
X121328752Y-91390321D01*
X121328752Y-91495774D01*
X121356045Y-91597634D01*
X121356046Y-91597637D01*
X121408773Y-91688962D01*
X121489086Y-91769275D01*
X121487401Y-91770959D01*
X121521439Y-91817571D01*
X121528752Y-91859524D01*
X121528752Y-93894631D01*
X121559276Y-93968322D01*
X121887678Y-94296724D01*
X121961370Y-94327248D01*
X122041134Y-94327248D01*
X125145276Y-94327248D01*
X125212315Y-94346933D01*
X125234810Y-94367628D01*
X125235525Y-94366914D01*
X125241272Y-94372661D01*
X125315839Y-94447228D01*
X125407165Y-94499955D01*
X125509025Y-94527248D01*
X125509027Y-94527248D01*
X125614477Y-94527248D01*
X125614479Y-94527248D01*
X125716339Y-94499955D01*
X125807665Y-94447228D01*
X125882232Y-94372661D01*
X125934959Y-94281335D01*
X125962252Y-94179475D01*
X125962252Y-94074021D01*
X125934959Y-93972161D01*
X125882232Y-93880835D01*
X125807665Y-93806268D01*
X125716339Y-93753541D01*
X125614479Y-93726248D01*
X125509025Y-93726248D01*
X125407165Y-93753541D01*
X125407162Y-93753542D01*
X125315837Y-93806269D01*
X125235525Y-93886582D01*
X125233840Y-93884897D01*
X125187229Y-93918935D01*
X125145276Y-93926248D01*
X122135664Y-93926248D01*
X122106223Y-93917603D01*
X122076237Y-93911080D01*
X122071221Y-93907325D01*
X122068625Y-93906563D01*
X122047983Y-93889929D01*
X121966071Y-93808017D01*
X121932586Y-93746694D01*
X121929752Y-93720336D01*
X121929752Y-93097273D01*
X133899500Y-93097273D01*
X133899500Y-93202727D01*
X133926793Y-93304587D01*
X133979520Y-93395913D01*
X134054087Y-93470480D01*
X134145413Y-93523207D01*
X134247273Y-93550500D01*
X134247275Y-93550500D01*
X134352725Y-93550500D01*
X134352727Y-93550500D01*
X134454587Y-93523207D01*
X134545913Y-93470480D01*
X134620480Y-93395913D01*
X134620480Y-93395912D01*
X134626227Y-93390166D01*
X134627911Y-93391850D01*
X134674523Y-93357813D01*
X134716476Y-93350500D01*
X146389880Y-93350500D01*
X146389882Y-93350500D01*
X146463574Y-93319976D01*
X146719976Y-93063574D01*
X146750500Y-92989882D01*
X146750500Y-92910118D01*
X146750500Y-87966476D01*
X146770185Y-87899437D01*
X146790880Y-87876941D01*
X146790166Y-87876227D01*
X146795913Y-87870480D01*
X146870480Y-87795913D01*
X146923207Y-87704587D01*
X146950500Y-87602727D01*
X146950500Y-87497273D01*
X146923207Y-87395413D01*
X146870480Y-87304087D01*
X146795913Y-87229520D01*
X146704587Y-87176793D01*
X146602727Y-87149500D01*
X146497273Y-87149500D01*
X146395413Y-87176793D01*
X146395410Y-87176794D01*
X146304085Y-87229521D01*
X146229521Y-87304085D01*
X146176794Y-87395410D01*
X146176793Y-87395413D01*
X146149500Y-87497273D01*
X146149500Y-87602727D01*
X146176167Y-87702248D01*
X146176793Y-87704586D01*
X146176794Y-87704589D01*
X146229521Y-87795914D01*
X146309834Y-87876227D01*
X146308149Y-87877911D01*
X146342187Y-87924523D01*
X146349500Y-87966476D01*
X146349500Y-92815588D01*
X146340855Y-92845028D01*
X146334332Y-92875015D01*
X146330577Y-92880030D01*
X146329815Y-92882627D01*
X146313181Y-92903269D01*
X146303269Y-92913181D01*
X146241946Y-92946666D01*
X146215588Y-92949500D01*
X134716476Y-92949500D01*
X134649437Y-92929815D01*
X134626941Y-92909119D01*
X134626227Y-92909834D01*
X134545914Y-92829521D01*
X134545913Y-92829520D01*
X134454587Y-92776793D01*
X134352727Y-92749500D01*
X134247273Y-92749500D01*
X134145413Y-92776793D01*
X134145410Y-92776794D01*
X134054085Y-92829521D01*
X133979521Y-92904085D01*
X133926794Y-92995410D01*
X133926793Y-92995413D01*
X133899500Y-93097273D01*
X121929752Y-93097273D01*
X121929752Y-91859524D01*
X121949437Y-91792485D01*
X121970132Y-91769989D01*
X121969418Y-91769275D01*
X121975165Y-91763528D01*
X122049732Y-91688961D01*
X122102459Y-91597635D01*
X122129752Y-91495775D01*
X122129752Y-91390321D01*
X122102459Y-91288461D01*
X122049732Y-91197135D01*
X121975165Y-91122568D01*
X121908311Y-91083970D01*
X121883841Y-91069842D01*
X121883840Y-91069841D01*
X121883839Y-91069841D01*
X121781979Y-91042548D01*
X121676525Y-91042548D01*
X121598054Y-91063574D01*
X121574665Y-91069841D01*
X121574662Y-91069842D01*
X121483337Y-91122569D01*
X121408773Y-91197133D01*
X121356046Y-91288458D01*
X121356045Y-91288461D01*
X121328752Y-91390321D01*
X117202628Y-91390321D01*
X117202183Y-90924618D01*
X117221804Y-90857560D01*
X117274564Y-90811755D01*
X117326183Y-90800500D01*
X127465588Y-90800500D01*
X127532627Y-90820185D01*
X127553269Y-90836819D01*
X127780024Y-91063574D01*
X127836426Y-91119976D01*
X127910118Y-91150500D01*
X127910120Y-91150500D01*
X132517880Y-91150500D01*
X132517882Y-91150500D01*
X132591574Y-91119976D01*
X132688572Y-91022977D01*
X132749891Y-90989493D01*
X132819583Y-90994477D01*
X132846607Y-91008551D01*
X132855929Y-91014974D01*
X132856275Y-91015320D01*
X132856276Y-91015322D01*
X132912678Y-91071724D01*
X132964785Y-91093307D01*
X132986369Y-91102248D01*
X132986370Y-91102248D01*
X133859776Y-91102248D01*
X133926815Y-91121933D01*
X133949310Y-91142628D01*
X133950025Y-91141914D01*
X133955772Y-91147661D01*
X134030339Y-91222228D01*
X134121665Y-91274955D01*
X134223525Y-91302248D01*
X134223527Y-91302248D01*
X134328977Y-91302248D01*
X134328979Y-91302248D01*
X134430839Y-91274955D01*
X134522165Y-91222228D01*
X134596732Y-91147661D01*
X134649459Y-91056335D01*
X134676752Y-90954475D01*
X134676752Y-90849021D01*
X134649459Y-90747161D01*
X134596732Y-90655835D01*
X134522165Y-90581268D01*
X134430839Y-90528541D01*
X134328979Y-90501248D01*
X134284664Y-90501248D01*
X134217625Y-90481563D01*
X134171870Y-90428759D01*
X134161926Y-90359601D01*
X134190951Y-90296045D01*
X134196983Y-90289567D01*
X134801100Y-89685450D01*
X136752535Y-87734013D01*
X136813856Y-87700530D01*
X136865393Y-87701757D01*
X136865469Y-87701187D01*
X136870773Y-87701885D01*
X136872308Y-87701921D01*
X136873525Y-87702248D01*
X136873527Y-87702248D01*
X136978977Y-87702248D01*
X136978979Y-87702248D01*
X137080839Y-87674955D01*
X137172165Y-87622228D01*
X137246732Y-87547661D01*
X137299459Y-87456335D01*
X137326752Y-87354475D01*
X137326752Y-87249021D01*
X137299459Y-87147161D01*
X137246732Y-87055835D01*
X137172165Y-86981268D01*
X137080839Y-86928541D01*
X136978979Y-86901248D01*
X136873525Y-86901248D01*
X136771665Y-86928541D01*
X136771662Y-86928542D01*
X136680337Y-86981269D01*
X136605773Y-87055833D01*
X136553046Y-87147158D01*
X136553045Y-87147161D01*
X136525752Y-87249021D01*
X136525752Y-87342335D01*
X136506067Y-87409374D01*
X136489433Y-87430016D01*
X134017021Y-89902429D01*
X133990093Y-89917132D01*
X133964275Y-89933725D01*
X133958074Y-89934616D01*
X133955698Y-89935914D01*
X133929340Y-89938748D01*
X133780228Y-89938748D01*
X133713189Y-89919063D01*
X133690693Y-89898367D01*
X133689979Y-89899082D01*
X133609666Y-89818769D01*
X133609665Y-89818768D01*
X133542811Y-89780170D01*
X133518341Y-89766042D01*
X133518340Y-89766041D01*
X133518339Y-89766041D01*
X133416479Y-89738748D01*
X133311025Y-89738748D01*
X133209165Y-89766041D01*
X133209164Y-89766041D01*
X133162751Y-89792838D01*
X133094851Y-89809310D01*
X133028824Y-89786457D01*
X132985634Y-89731535D01*
X132976752Y-89685450D01*
X132976752Y-85166972D01*
X132996437Y-85099933D01*
X133009903Y-85082578D01*
X133018963Y-85072824D01*
X133022165Y-85070976D01*
X133096732Y-84996409D01*
X133107868Y-84977119D01*
X133117405Y-84966854D01*
X133135878Y-84955865D01*
X133151435Y-84941032D01*
X133167274Y-84937189D01*
X133177454Y-84931134D01*
X133190390Y-84931581D01*
X133208254Y-84927248D01*
X136500456Y-84927248D01*
X136567495Y-84946933D01*
X136599351Y-84980342D01*
X136600824Y-84979212D01*
X136605770Y-84985658D01*
X136605772Y-84985661D01*
X136680339Y-85060228D01*
X136771665Y-85112955D01*
X136873525Y-85140248D01*
X136873527Y-85140248D01*
X136978977Y-85140248D01*
X136978979Y-85140248D01*
X137080839Y-85112955D01*
X137172165Y-85060228D01*
X137246732Y-84985661D01*
X137299459Y-84894335D01*
X137326752Y-84792475D01*
X137326752Y-84687021D01*
X137299459Y-84585161D01*
X137246732Y-84493835D01*
X137172165Y-84419268D01*
X137087696Y-84370500D01*
X137080841Y-84366542D01*
X137080840Y-84366541D01*
X137080839Y-84366541D01*
X136978979Y-84339248D01*
X136873525Y-84339248D01*
X136771665Y-84366541D01*
X136771662Y-84366542D01*
X136680337Y-84419269D01*
X136609678Y-84489929D01*
X136548355Y-84523414D01*
X136521997Y-84526248D01*
X133169759Y-84526248D01*
X133102720Y-84506563D01*
X133082078Y-84489929D01*
X133022166Y-84430017D01*
X133022165Y-84430016D01*
X132934951Y-84379663D01*
X132930841Y-84377290D01*
X132930840Y-84377289D01*
X132930839Y-84377289D01*
X132828979Y-84349996D01*
X132723525Y-84349996D01*
X132621665Y-84377289D01*
X132621660Y-84377291D01*
X132606498Y-84386045D01*
X132538598Y-84402516D01*
X132472571Y-84379663D01*
X132429382Y-84324741D01*
X132420500Y-84278657D01*
X132420500Y-84140119D01*
X132420499Y-84140116D01*
X132389976Y-84066426D01*
X132333574Y-84010024D01*
X132235731Y-83912181D01*
X132202246Y-83850858D01*
X132207230Y-83781166D01*
X132249102Y-83725233D01*
X132314566Y-83700816D01*
X132323412Y-83700500D01*
X146233524Y-83700500D01*
X146300563Y-83720185D01*
X146323058Y-83740880D01*
X146323773Y-83740166D01*
X146329520Y-83745913D01*
X146404087Y-83820480D01*
X146495413Y-83873207D01*
X146597273Y-83900500D01*
X146597275Y-83900500D01*
X146702725Y-83900500D01*
X146702727Y-83900500D01*
X146804587Y-83873207D01*
X146895913Y-83820480D01*
X146970480Y-83745913D01*
X147023207Y-83654587D01*
X147050500Y-83552727D01*
X147050500Y-83447273D01*
X147023207Y-83345413D01*
X146970480Y-83254087D01*
X146895913Y-83179520D01*
X146804587Y-83126793D01*
X146702727Y-83099500D01*
X146597273Y-83099500D01*
X146495413Y-83126793D01*
X146495410Y-83126794D01*
X146404085Y-83179521D01*
X146323773Y-83259834D01*
X146322088Y-83258149D01*
X146275477Y-83292187D01*
X146233524Y-83299500D01*
X128716476Y-83299500D01*
X128649437Y-83279815D01*
X128626941Y-83259119D01*
X128626227Y-83259834D01*
X128545914Y-83179521D01*
X128545913Y-83179520D01*
X128454587Y-83126793D01*
X128352727Y-83099500D01*
X128247273Y-83099500D01*
X128145413Y-83126793D01*
X128145410Y-83126794D01*
X128054085Y-83179521D01*
X127979521Y-83254085D01*
X127926794Y-83345410D01*
X127926793Y-83345413D01*
X127899500Y-83447273D01*
X127899500Y-83552727D01*
X127924065Y-83644409D01*
X127922403Y-83714256D01*
X127883241Y-83772119D01*
X127819012Y-83799623D01*
X127804291Y-83800500D01*
X126796188Y-83800500D01*
X126729149Y-83780815D01*
X126688803Y-83738503D01*
X126680480Y-83724087D01*
X126605913Y-83649520D01*
X126514587Y-83596793D01*
X126412727Y-83569500D01*
X126307273Y-83569500D01*
X126205413Y-83596793D01*
X126205410Y-83596794D01*
X126114085Y-83649521D01*
X126039521Y-83724085D01*
X125986794Y-83815410D01*
X125986793Y-83815413D01*
X125959500Y-83917273D01*
X125959500Y-84022727D01*
X125986793Y-84124587D01*
X126039520Y-84215913D01*
X126114087Y-84290480D01*
X126205413Y-84343207D01*
X126307273Y-84370500D01*
X126307275Y-84370500D01*
X126412725Y-84370500D01*
X126412727Y-84370500D01*
X126514587Y-84343207D01*
X126605913Y-84290480D01*
X126633343Y-84263050D01*
X126658576Y-84237818D01*
X126719899Y-84204334D01*
X126746256Y-84201500D01*
X131895500Y-84201500D01*
X131962539Y-84221185D01*
X132008294Y-84273989D01*
X132019500Y-84325500D01*
X132019500Y-89690745D01*
X131999815Y-89757784D01*
X131983181Y-89778426D01*
X131905773Y-89855833D01*
X131853046Y-89947158D01*
X131853045Y-89947161D01*
X131825752Y-90049021D01*
X131825752Y-90154475D01*
X131853045Y-90256335D01*
X131905772Y-90347661D01*
X131980339Y-90422228D01*
X132071665Y-90474955D01*
X132173525Y-90502248D01*
X132173532Y-90502248D01*
X132175905Y-90502561D01*
X132177764Y-90503383D01*
X132181375Y-90504351D01*
X132181224Y-90504914D01*
X132239801Y-90530829D01*
X132278271Y-90589154D01*
X132279101Y-90659019D01*
X132242027Y-90718242D01*
X132178821Y-90748020D01*
X132159717Y-90749500D01*
X128084412Y-90749500D01*
X128054971Y-90740855D01*
X128024985Y-90734332D01*
X128019969Y-90730577D01*
X128017373Y-90729815D01*
X127996731Y-90713181D01*
X127836819Y-90553269D01*
X127803334Y-90491946D01*
X127800500Y-90465588D01*
X127800500Y-86190119D01*
X127800499Y-86190116D01*
X127798209Y-86184587D01*
X127769976Y-86116426D01*
X127713574Y-86060024D01*
X127513574Y-85860024D01*
X127439883Y-85829500D01*
X127439882Y-85829500D01*
X126726476Y-85829500D01*
X126659437Y-85809815D01*
X126636941Y-85789119D01*
X126636227Y-85789834D01*
X126555914Y-85709521D01*
X126555913Y-85709520D01*
X126464587Y-85656793D01*
X126362727Y-85629500D01*
X126257273Y-85629500D01*
X126155413Y-85656793D01*
X126155410Y-85656794D01*
X126064085Y-85709521D01*
X125989521Y-85784085D01*
X125936794Y-85875410D01*
X125936793Y-85875413D01*
X125909500Y-85977273D01*
X125909500Y-86082727D01*
X125936793Y-86184587D01*
X125989520Y-86275913D01*
X126064087Y-86350480D01*
X126155413Y-86403207D01*
X126257273Y-86430500D01*
X126257275Y-86430500D01*
X126362725Y-86430500D01*
X126362727Y-86430500D01*
X126464587Y-86403207D01*
X126555913Y-86350480D01*
X126630480Y-86275913D01*
X126630480Y-86275912D01*
X126636227Y-86270166D01*
X126637911Y-86271850D01*
X126684523Y-86237813D01*
X126726476Y-86230500D01*
X127265588Y-86230500D01*
X127295028Y-86239144D01*
X127325015Y-86245668D01*
X127330030Y-86249422D01*
X127332627Y-86250185D01*
X127353269Y-86266819D01*
X127363181Y-86276731D01*
X127396666Y-86338054D01*
X127399500Y-86364412D01*
X127399500Y-90275500D01*
X127379815Y-90342539D01*
X127327011Y-90388294D01*
X127275500Y-90399500D01*
X117325563Y-90399500D01*
X117258524Y-90379815D01*
X117212769Y-90327011D01*
X117201563Y-90275618D01*
X117194625Y-83012366D01*
X117214246Y-82945308D01*
X117267006Y-82899503D01*
X117318625Y-82888248D01*
X118037755Y-82888248D01*
X118104794Y-82907933D01*
X118150549Y-82960737D01*
X118160493Y-83029895D01*
X118145143Y-83074243D01*
X118103045Y-83147161D01*
X118075752Y-83249021D01*
X118075752Y-83354475D01*
X118100618Y-83447275D01*
X118103045Y-83456334D01*
X118103046Y-83456337D01*
X118155773Y-83547662D01*
X118236086Y-83627975D01*
X118234401Y-83629659D01*
X118268439Y-83676271D01*
X118275752Y-83718224D01*
X118275752Y-87016135D01*
X118306276Y-87089826D01*
X118470024Y-87253574D01*
X118526426Y-87309976D01*
X118600118Y-87340500D01*
X124800162Y-87340500D01*
X124867201Y-87360185D01*
X124907548Y-87402498D01*
X124909520Y-87405913D01*
X124984087Y-87480480D01*
X125075413Y-87533207D01*
X125177273Y-87560500D01*
X125177275Y-87560500D01*
X125282725Y-87560500D01*
X125282727Y-87560500D01*
X125384587Y-87533207D01*
X125475913Y-87480480D01*
X125550480Y-87405913D01*
X125603207Y-87314587D01*
X125630500Y-87212727D01*
X125630500Y-87107273D01*
X125603207Y-87005413D01*
X125550480Y-86914087D01*
X125475913Y-86839520D01*
X125384587Y-86786793D01*
X125282727Y-86759500D01*
X125177273Y-86759500D01*
X125075413Y-86786793D01*
X125075410Y-86786794D01*
X124984085Y-86839521D01*
X124920426Y-86903181D01*
X124859103Y-86936666D01*
X124832745Y-86939500D01*
X118800752Y-86939500D01*
X118733713Y-86919815D01*
X118687958Y-86867011D01*
X118676752Y-86815500D01*
X118676752Y-83718224D01*
X118696437Y-83651185D01*
X118717132Y-83628689D01*
X118716418Y-83627975D01*
X118747600Y-83596793D01*
X118796732Y-83547661D01*
X118849459Y-83456335D01*
X118876752Y-83354475D01*
X118876752Y-83249021D01*
X118849459Y-83147161D01*
X118807361Y-83074245D01*
X118790889Y-83006349D01*
X118813741Y-82940322D01*
X118868662Y-82897131D01*
X118914749Y-82888248D01*
X120974190Y-82888248D01*
X121010753Y-82892072D01*
X121023639Y-82888248D01*
X121037080Y-82888248D01*
X121065066Y-82876654D01*
X121077239Y-82872340D01*
X121106290Y-82863720D01*
X121116732Y-82855255D01*
X121129149Y-82850112D01*
X121155144Y-82824116D01*
X121183704Y-82800965D01*
X121190111Y-82789149D01*
X121199616Y-82779645D01*
X121213685Y-82745678D01*
X123531117Y-78472255D01*
X123580379Y-78422708D01*
X123640187Y-78407368D01*
X152075569Y-78422796D01*
G37*
%TD.AperFunction*%
%TD*%
M02*
