%TF.GenerationSoftware,KiCad,Pcbnew,9.0.4*%
%TF.CreationDate,2025-09-22T16:02:19+02:00*%
%TF.ProjectId,SAULink9_ATPI_v2.0,5341554c-696e-46b3-995f-415450495f76,rev?*%
%TF.SameCoordinates,Original*%
%TF.FileFunction,Soldermask,Top*%
%TF.FilePolarity,Negative*%
%FSLAX46Y46*%
G04 Gerber Fmt 4.6, Leading zero omitted, Abs format (unit mm)*
G04 Created by KiCad (PCBNEW 9.0.4) date 2025-09-22 16:02:19*
%MOMM*%
%LPD*%
G01*
G04 APERTURE LIST*
G04 Aperture macros list*
%AMRoundRect*
0 Rectangle with rounded corners*
0 $1 Rounding radius*
0 $2 $3 $4 $5 $6 $7 $8 $9 X,Y pos of 4 corners*
0 Add a 4 corners polygon primitive as box body*
4,1,4,$2,$3,$4,$5,$6,$7,$8,$9,$2,$3,0*
0 Add four circle primitives for the rounded corners*
1,1,$1+$1,$2,$3*
1,1,$1+$1,$4,$5*
1,1,$1+$1,$6,$7*
1,1,$1+$1,$8,$9*
0 Add four rect primitives between the rounded corners*
20,1,$1+$1,$2,$3,$4,$5,0*
20,1,$1+$1,$4,$5,$6,$7,0*
20,1,$1+$1,$6,$7,$8,$9,0*
20,1,$1+$1,$8,$9,$2,$3,0*%
%AMFreePoly0*
4,1,23,0.500000,-0.750000,0.000000,-0.750000,0.000000,-0.745722,-0.065263,-0.745722,-0.191342,-0.711940,-0.304381,-0.646677,-0.396677,-0.554381,-0.461940,-0.441342,-0.495722,-0.315263,-0.495722,-0.250000,-0.500000,-0.250000,-0.500000,0.250000,-0.495722,0.250000,-0.495722,0.315263,-0.461940,0.441342,-0.396677,0.554381,-0.304381,0.646677,-0.191342,0.711940,-0.065263,0.745722,0.000000,0.745722,
0.000000,0.750000,0.500000,0.750000,0.500000,-0.750000,0.500000,-0.750000,$1*%
%AMFreePoly1*
4,1,23,0.000000,0.745722,0.065263,0.745722,0.191342,0.711940,0.304381,0.646677,0.396677,0.554381,0.461940,0.441342,0.495722,0.315263,0.495722,0.250000,0.500000,0.250000,0.500000,-0.250000,0.495722,-0.250000,0.495722,-0.315263,0.461940,-0.441342,0.396677,-0.554381,0.304381,-0.646677,0.191342,-0.711940,0.065263,-0.745722,0.000000,-0.745722,0.000000,-0.750000,-0.500000,-0.750000,
-0.500000,0.750000,0.000000,0.750000,0.000000,0.745722,0.000000,0.745722,$1*%
G04 Aperture macros list end*
%ADD10RoundRect,0.250000X-0.250000X-0.475000X0.250000X-0.475000X0.250000X0.475000X-0.250000X0.475000X0*%
%ADD11RoundRect,0.250000X-0.262500X-0.450000X0.262500X-0.450000X0.262500X0.450000X-0.262500X0.450000X0*%
%ADD12RoundRect,0.250000X0.250000X0.475000X-0.250000X0.475000X-0.250000X-0.475000X0.250000X-0.475000X0*%
%ADD13RoundRect,0.250000X-3.250000X-0.750000X3.250000X-0.750000X3.250000X0.750000X-3.250000X0.750000X0*%
%ADD14RoundRect,0.250000X-2.750000X-0.500000X2.750000X-0.500000X2.750000X0.500000X-2.750000X0.500000X0*%
%ADD15FreePoly0,180.000000*%
%ADD16FreePoly1,180.000000*%
%ADD17R,1.200000X1.200000*%
%ADD18R,1.500000X1.600000*%
%ADD19RoundRect,0.250000X-0.450000X0.262500X-0.450000X-0.262500X0.450000X-0.262500X0.450000X0.262500X0*%
%ADD20RoundRect,0.250000X0.337500X0.475000X-0.337500X0.475000X-0.337500X-0.475000X0.337500X-0.475000X0*%
%ADD21RoundRect,0.243750X0.243750X0.456250X-0.243750X0.456250X-0.243750X-0.456250X0.243750X-0.456250X0*%
%ADD22RoundRect,0.250000X-0.337500X-0.475000X0.337500X-0.475000X0.337500X0.475000X-0.337500X0.475000X0*%
%ADD23RoundRect,0.102000X1.750000X-0.500000X1.750000X0.500000X-1.750000X0.500000X-1.750000X-0.500000X0*%
%ADD24RoundRect,0.102000X1.700000X-0.750000X1.700000X0.750000X-1.700000X0.750000X-1.700000X-0.750000X0*%
%ADD25RoundRect,0.102000X-0.750000X-0.300000X0.750000X-0.300000X0.750000X0.300000X-0.750000X0.300000X0*%
%ADD26RoundRect,0.250000X0.262500X0.450000X-0.262500X0.450000X-0.262500X-0.450000X0.262500X-0.450000X0*%
%ADD27RoundRect,0.102000X0.750000X-0.140000X0.750000X0.140000X-0.750000X0.140000X-0.750000X-0.140000X0*%
%ADD28RoundRect,0.102000X0.140000X-0.750000X0.140000X0.750000X-0.140000X0.750000X-0.140000X-0.750000X0*%
%ADD29R,1.200000X1.400000*%
%ADD30RoundRect,0.150000X-0.512500X-0.150000X0.512500X-0.150000X0.512500X0.150000X-0.512500X0.150000X0*%
%ADD31RoundRect,0.225000X-0.375000X0.225000X-0.375000X-0.225000X0.375000X-0.225000X0.375000X0.225000X0*%
G04 APERTURE END LIST*
D10*
%TO.C,C5*%
X138101252Y-94801748D03*
X140001252Y-94801748D03*
%TD*%
D11*
%TO.C,R3*%
X118476252Y-84451748D03*
X120301252Y-84451748D03*
%TD*%
%TO.C,R6*%
X133751252Y-86201748D03*
X135576252Y-86201748D03*
%TD*%
%TO.C,R2*%
X118476252Y-88626748D03*
X120301252Y-88626748D03*
%TD*%
D12*
%TO.C,C8*%
X131951252Y-86201748D03*
X130051252Y-86201748D03*
%TD*%
D13*
%TO.C,J1*%
X111987252Y-92387748D03*
D14*
X111987252Y-89637748D03*
X111987252Y-87637748D03*
D13*
X111987252Y-84887748D03*
%TD*%
D15*
%TO.C,JP1*%
X151290000Y-96370000D03*
D16*
X149990000Y-96370000D03*
%TD*%
D17*
%TO.C,R8*%
X147973200Y-97953200D03*
D18*
X144723200Y-96953200D03*
D17*
X147973200Y-95953200D03*
%TD*%
D19*
%TO.C,R7*%
X127376252Y-80501748D03*
X127376252Y-82326748D03*
%TD*%
D10*
%TO.C,C4*%
X138101252Y-87301748D03*
X140001252Y-87301748D03*
%TD*%
D20*
%TO.C,C2*%
X120626252Y-90726748D03*
X118551252Y-90726748D03*
%TD*%
D21*
%TO.C,D2*%
X124855000Y-95520000D03*
X122980000Y-95520000D03*
%TD*%
D11*
%TO.C,R5*%
X122987352Y-93101748D03*
X124812352Y-93101748D03*
%TD*%
D22*
%TO.C,C1*%
X118551252Y-92851748D03*
X120626252Y-92851748D03*
%TD*%
D10*
%TO.C,C9*%
X138101252Y-89801748D03*
X140001252Y-89801748D03*
%TD*%
D23*
%TO.C,J2*%
X144200000Y-91510000D03*
X144200000Y-89510000D03*
X144200000Y-87510000D03*
X144200000Y-85510000D03*
X144200000Y-83510000D03*
X144200000Y-81510000D03*
D24*
X149950000Y-93860000D03*
X149950000Y-79160000D03*
%TD*%
D25*
%TO.C,U3*%
X129626252Y-79776748D03*
X129626252Y-82316748D03*
X135976252Y-82316748D03*
X135976252Y-79776748D03*
%TD*%
D21*
%TO.C,D3*%
X124825000Y-81750000D03*
X122950000Y-81750000D03*
%TD*%
D26*
%TO.C,R1*%
X120301252Y-86551748D03*
X118476252Y-86551748D03*
%TD*%
D10*
%TO.C,C7*%
X138076252Y-82301748D03*
X139976252Y-82301748D03*
%TD*%
D27*
%TO.C,U1*%
X127176252Y-90126748D03*
X127176252Y-90626748D03*
X127176252Y-91126748D03*
X127176252Y-91626748D03*
X127176252Y-92126748D03*
X127176252Y-92626748D03*
X127176252Y-93126748D03*
X127176252Y-93626748D03*
X127176252Y-94126748D03*
X127176252Y-94626748D03*
X127176252Y-95126748D03*
X127176252Y-95626748D03*
D28*
X128726252Y-97176748D03*
X129226252Y-97176748D03*
X129726252Y-97176748D03*
X130226252Y-97176748D03*
X130726252Y-97176748D03*
X131226252Y-97176748D03*
X131726252Y-97176748D03*
X132226252Y-97176748D03*
X132726252Y-97176748D03*
X133226252Y-97176748D03*
X133726252Y-97176748D03*
X134226252Y-97176748D03*
D27*
X135776252Y-95626748D03*
X135776252Y-95126748D03*
X135776252Y-94626748D03*
X135776252Y-94126748D03*
X135776252Y-93626748D03*
X135776252Y-93126748D03*
X135776252Y-92626748D03*
X135776252Y-92126748D03*
X135776252Y-91626748D03*
X135776252Y-91126748D03*
X135776252Y-90626748D03*
X135776252Y-90126748D03*
D28*
X134226252Y-88576748D03*
X133726252Y-88576748D03*
X133226252Y-88576748D03*
X132726252Y-88576748D03*
X132226252Y-88576748D03*
X131726252Y-88576748D03*
X131226252Y-88576748D03*
X130726252Y-88576748D03*
X130226252Y-88576748D03*
X129726252Y-88576748D03*
X129226252Y-88576748D03*
X128726252Y-88576748D03*
%TD*%
D29*
%TO.C,Y1*%
X123063452Y-88682148D03*
X123063452Y-90882148D03*
X124763452Y-90882148D03*
X124763452Y-88682148D03*
%TD*%
D10*
%TO.C,C6*%
X138076252Y-84801748D03*
X139976252Y-84801748D03*
%TD*%
%TO.C,C3*%
X138101252Y-92301748D03*
X140001252Y-92301748D03*
%TD*%
D30*
%TO.C,U2*%
X122805000Y-83960000D03*
X122805000Y-84910000D03*
X122805000Y-85860000D03*
X125080000Y-85860000D03*
X125080000Y-84910000D03*
X125080000Y-83960000D03*
%TD*%
D31*
%TO.C,D1*%
X127176252Y-85201748D03*
X127176252Y-88501748D03*
%TD*%
M02*
