%TF.GenerationSoftware,KiCad,Pcbnew,9.0.4*%
%TF.CreationDate,2025-09-22T16:02:19+02:00*%
%TF.ProjectId,SAULink9_ATPI_v2.0,5341554c-696e-46b3-995f-415450495f76,rev?*%
%TF.SameCoordinates,Original*%
%TF.FileFunction,Paste,Top*%
%TF.FilePolarity,Positive*%
%FSLAX46Y46*%
G04 Gerber Fmt 4.6, Leading zero omitted, Abs format (unit mm)*
G04 Created by KiCad (PCBNEW 9.0.4) date 2025-09-22 16:02:19*
%MOMM*%
%LPD*%
G01*
G04 APERTURE LIST*
G04 Aperture macros list*
%AMRoundRect*
0 Rectangle with rounded corners*
0 $1 Rounding radius*
0 $2 $3 $4 $5 $6 $7 $8 $9 X,Y pos of 4 corners*
0 Add a 4 corners polygon primitive as box body*
4,1,4,$2,$3,$4,$5,$6,$7,$8,$9,$2,$3,0*
0 Add four circle primitives for the rounded corners*
1,1,$1+$1,$2,$3*
1,1,$1+$1,$4,$5*
1,1,$1+$1,$6,$7*
1,1,$1+$1,$8,$9*
0 Add four rect primitives between the rounded corners*
20,1,$1+$1,$2,$3,$4,$5,0*
20,1,$1+$1,$4,$5,$6,$7,0*
20,1,$1+$1,$6,$7,$8,$9,0*
20,1,$1+$1,$8,$9,$2,$3,0*%
G04 Aperture macros list end*
%ADD10C,0.010000*%
%ADD11RoundRect,0.250000X-0.250000X-0.475000X0.250000X-0.475000X0.250000X0.475000X-0.250000X0.475000X0*%
%ADD12RoundRect,0.250000X-0.262500X-0.450000X0.262500X-0.450000X0.262500X0.450000X-0.262500X0.450000X0*%
%ADD13RoundRect,0.250000X0.250000X0.475000X-0.250000X0.475000X-0.250000X-0.475000X0.250000X-0.475000X0*%
%ADD14R,1.200000X1.200000*%
%ADD15R,1.500000X1.600000*%
%ADD16RoundRect,0.250000X-0.450000X0.262500X-0.450000X-0.262500X0.450000X-0.262500X0.450000X0.262500X0*%
%ADD17RoundRect,0.250000X0.337500X0.475000X-0.337500X0.475000X-0.337500X-0.475000X0.337500X-0.475000X0*%
%ADD18RoundRect,0.243750X0.243750X0.456250X-0.243750X0.456250X-0.243750X-0.456250X0.243750X-0.456250X0*%
%ADD19RoundRect,0.250000X-0.337500X-0.475000X0.337500X-0.475000X0.337500X0.475000X-0.337500X0.475000X0*%
%ADD20R,3.500000X1.000000*%
%ADD21R,3.400000X1.500000*%
%ADD22R,1.500000X0.600000*%
%ADD23RoundRect,0.250000X0.262500X0.450000X-0.262500X0.450000X-0.262500X-0.450000X0.262500X-0.450000X0*%
%ADD24R,1.200000X1.400000*%
%ADD25RoundRect,0.150000X-0.512500X-0.150000X0.512500X-0.150000X0.512500X0.150000X-0.512500X0.150000X0*%
%ADD26RoundRect,0.225000X-0.375000X0.225000X-0.375000X-0.225000X0.375000X-0.225000X0.375000X0.225000X0*%
G04 APERTURE END LIST*
D10*
%TO.C,U1*%
X127576252Y-90226748D02*
X126676252Y-90226748D01*
X126676252Y-90026748D01*
X127576252Y-90026748D01*
X127576252Y-90226748D01*
G36*
X127576252Y-90226748D02*
G01*
X126676252Y-90226748D01*
X126676252Y-90026748D01*
X127576252Y-90026748D01*
X127576252Y-90226748D01*
G37*
X127576252Y-90726748D02*
X126676252Y-90726748D01*
X126676252Y-90526748D01*
X127576252Y-90526748D01*
X127576252Y-90726748D01*
G36*
X127576252Y-90726748D02*
G01*
X126676252Y-90726748D01*
X126676252Y-90526748D01*
X127576252Y-90526748D01*
X127576252Y-90726748D01*
G37*
X127576252Y-91226748D02*
X126676252Y-91226748D01*
X126676252Y-91026748D01*
X127576252Y-91026748D01*
X127576252Y-91226748D01*
G36*
X127576252Y-91226748D02*
G01*
X126676252Y-91226748D01*
X126676252Y-91026748D01*
X127576252Y-91026748D01*
X127576252Y-91226748D01*
G37*
X127576252Y-91726748D02*
X126676252Y-91726748D01*
X126676252Y-91526748D01*
X127576252Y-91526748D01*
X127576252Y-91726748D01*
G36*
X127576252Y-91726748D02*
G01*
X126676252Y-91726748D01*
X126676252Y-91526748D01*
X127576252Y-91526748D01*
X127576252Y-91726748D01*
G37*
X127576252Y-92226748D02*
X126676252Y-92226748D01*
X126676252Y-92026748D01*
X127576252Y-92026748D01*
X127576252Y-92226748D01*
G36*
X127576252Y-92226748D02*
G01*
X126676252Y-92226748D01*
X126676252Y-92026748D01*
X127576252Y-92026748D01*
X127576252Y-92226748D01*
G37*
X127576252Y-92726748D02*
X126676252Y-92726748D01*
X126676252Y-92526748D01*
X127576252Y-92526748D01*
X127576252Y-92726748D01*
G36*
X127576252Y-92726748D02*
G01*
X126676252Y-92726748D01*
X126676252Y-92526748D01*
X127576252Y-92526748D01*
X127576252Y-92726748D01*
G37*
X127576252Y-93226748D02*
X126676252Y-93226748D01*
X126676252Y-93026748D01*
X127576252Y-93026748D01*
X127576252Y-93226748D01*
G36*
X127576252Y-93226748D02*
G01*
X126676252Y-93226748D01*
X126676252Y-93026748D01*
X127576252Y-93026748D01*
X127576252Y-93226748D01*
G37*
X127576252Y-93726748D02*
X126676252Y-93726748D01*
X126676252Y-93526748D01*
X127576252Y-93526748D01*
X127576252Y-93726748D01*
G36*
X127576252Y-93726748D02*
G01*
X126676252Y-93726748D01*
X126676252Y-93526748D01*
X127576252Y-93526748D01*
X127576252Y-93726748D01*
G37*
X127576252Y-94226748D02*
X126676252Y-94226748D01*
X126676252Y-94026748D01*
X127576252Y-94026748D01*
X127576252Y-94226748D01*
G36*
X127576252Y-94226748D02*
G01*
X126676252Y-94226748D01*
X126676252Y-94026748D01*
X127576252Y-94026748D01*
X127576252Y-94226748D01*
G37*
X127576252Y-94726748D02*
X126676252Y-94726748D01*
X126676252Y-94526748D01*
X127576252Y-94526748D01*
X127576252Y-94726748D01*
G36*
X127576252Y-94726748D02*
G01*
X126676252Y-94726748D01*
X126676252Y-94526748D01*
X127576252Y-94526748D01*
X127576252Y-94726748D01*
G37*
X127576252Y-95226748D02*
X126676252Y-95226748D01*
X126676252Y-95026748D01*
X127576252Y-95026748D01*
X127576252Y-95226748D01*
G36*
X127576252Y-95226748D02*
G01*
X126676252Y-95226748D01*
X126676252Y-95026748D01*
X127576252Y-95026748D01*
X127576252Y-95226748D01*
G37*
X127576252Y-95726748D02*
X126676252Y-95726748D01*
X126676252Y-95526748D01*
X127576252Y-95526748D01*
X127576252Y-95726748D01*
G36*
X127576252Y-95726748D02*
G01*
X126676252Y-95726748D01*
X126676252Y-95526748D01*
X127576252Y-95526748D01*
X127576252Y-95726748D01*
G37*
X128826252Y-88976748D02*
X128626252Y-88976748D01*
X128626252Y-88076748D01*
X128826252Y-88076748D01*
X128826252Y-88976748D01*
G36*
X128826252Y-88976748D02*
G01*
X128626252Y-88976748D01*
X128626252Y-88076748D01*
X128826252Y-88076748D01*
X128826252Y-88976748D01*
G37*
X128826252Y-97676748D02*
X128626252Y-97676748D01*
X128626252Y-96776748D01*
X128826252Y-96776748D01*
X128826252Y-97676748D01*
G36*
X128826252Y-97676748D02*
G01*
X128626252Y-97676748D01*
X128626252Y-96776748D01*
X128826252Y-96776748D01*
X128826252Y-97676748D01*
G37*
X129326252Y-88976748D02*
X129126252Y-88976748D01*
X129126252Y-88076748D01*
X129326252Y-88076748D01*
X129326252Y-88976748D01*
G36*
X129326252Y-88976748D02*
G01*
X129126252Y-88976748D01*
X129126252Y-88076748D01*
X129326252Y-88076748D01*
X129326252Y-88976748D01*
G37*
X129326252Y-97676748D02*
X129126252Y-97676748D01*
X129126252Y-96776748D01*
X129326252Y-96776748D01*
X129326252Y-97676748D01*
G36*
X129326252Y-97676748D02*
G01*
X129126252Y-97676748D01*
X129126252Y-96776748D01*
X129326252Y-96776748D01*
X129326252Y-97676748D01*
G37*
X129826252Y-88976748D02*
X129626252Y-88976748D01*
X129626252Y-88076748D01*
X129826252Y-88076748D01*
X129826252Y-88976748D01*
G36*
X129826252Y-88976748D02*
G01*
X129626252Y-88976748D01*
X129626252Y-88076748D01*
X129826252Y-88076748D01*
X129826252Y-88976748D01*
G37*
X129826252Y-97676748D02*
X129626252Y-97676748D01*
X129626252Y-96776748D01*
X129826252Y-96776748D01*
X129826252Y-97676748D01*
G36*
X129826252Y-97676748D02*
G01*
X129626252Y-97676748D01*
X129626252Y-96776748D01*
X129826252Y-96776748D01*
X129826252Y-97676748D01*
G37*
X130326252Y-88976748D02*
X130126252Y-88976748D01*
X130126252Y-88076748D01*
X130326252Y-88076748D01*
X130326252Y-88976748D01*
G36*
X130326252Y-88976748D02*
G01*
X130126252Y-88976748D01*
X130126252Y-88076748D01*
X130326252Y-88076748D01*
X130326252Y-88976748D01*
G37*
X130326252Y-97676748D02*
X130126252Y-97676748D01*
X130126252Y-96776748D01*
X130326252Y-96776748D01*
X130326252Y-97676748D01*
G36*
X130326252Y-97676748D02*
G01*
X130126252Y-97676748D01*
X130126252Y-96776748D01*
X130326252Y-96776748D01*
X130326252Y-97676748D01*
G37*
X130826252Y-88976748D02*
X130626252Y-88976748D01*
X130626252Y-88076748D01*
X130826252Y-88076748D01*
X130826252Y-88976748D01*
G36*
X130826252Y-88976748D02*
G01*
X130626252Y-88976748D01*
X130626252Y-88076748D01*
X130826252Y-88076748D01*
X130826252Y-88976748D01*
G37*
X130826252Y-97676748D02*
X130626252Y-97676748D01*
X130626252Y-96776748D01*
X130826252Y-96776748D01*
X130826252Y-97676748D01*
G36*
X130826252Y-97676748D02*
G01*
X130626252Y-97676748D01*
X130626252Y-96776748D01*
X130826252Y-96776748D01*
X130826252Y-97676748D01*
G37*
X131326252Y-88976748D02*
X131126252Y-88976748D01*
X131126252Y-88076748D01*
X131326252Y-88076748D01*
X131326252Y-88976748D01*
G36*
X131326252Y-88976748D02*
G01*
X131126252Y-88976748D01*
X131126252Y-88076748D01*
X131326252Y-88076748D01*
X131326252Y-88976748D01*
G37*
X131326252Y-97676748D02*
X131126252Y-97676748D01*
X131126252Y-96776748D01*
X131326252Y-96776748D01*
X131326252Y-97676748D01*
G36*
X131326252Y-97676748D02*
G01*
X131126252Y-97676748D01*
X131126252Y-96776748D01*
X131326252Y-96776748D01*
X131326252Y-97676748D01*
G37*
X131826252Y-88976748D02*
X131626252Y-88976748D01*
X131626252Y-88076748D01*
X131826252Y-88076748D01*
X131826252Y-88976748D01*
G36*
X131826252Y-88976748D02*
G01*
X131626252Y-88976748D01*
X131626252Y-88076748D01*
X131826252Y-88076748D01*
X131826252Y-88976748D01*
G37*
X131826252Y-97676748D02*
X131626252Y-97676748D01*
X131626252Y-96776748D01*
X131826252Y-96776748D01*
X131826252Y-97676748D01*
G36*
X131826252Y-97676748D02*
G01*
X131626252Y-97676748D01*
X131626252Y-96776748D01*
X131826252Y-96776748D01*
X131826252Y-97676748D01*
G37*
X132326252Y-88976748D02*
X132126252Y-88976748D01*
X132126252Y-88076748D01*
X132326252Y-88076748D01*
X132326252Y-88976748D01*
G36*
X132326252Y-88976748D02*
G01*
X132126252Y-88976748D01*
X132126252Y-88076748D01*
X132326252Y-88076748D01*
X132326252Y-88976748D01*
G37*
X132326252Y-97676748D02*
X132126252Y-97676748D01*
X132126252Y-96776748D01*
X132326252Y-96776748D01*
X132326252Y-97676748D01*
G36*
X132326252Y-97676748D02*
G01*
X132126252Y-97676748D01*
X132126252Y-96776748D01*
X132326252Y-96776748D01*
X132326252Y-97676748D01*
G37*
X132826252Y-88976748D02*
X132626252Y-88976748D01*
X132626252Y-88076748D01*
X132826252Y-88076748D01*
X132826252Y-88976748D01*
G36*
X132826252Y-88976748D02*
G01*
X132626252Y-88976748D01*
X132626252Y-88076748D01*
X132826252Y-88076748D01*
X132826252Y-88976748D01*
G37*
X132826252Y-97676748D02*
X132626252Y-97676748D01*
X132626252Y-96776748D01*
X132826252Y-96776748D01*
X132826252Y-97676748D01*
G36*
X132826252Y-97676748D02*
G01*
X132626252Y-97676748D01*
X132626252Y-96776748D01*
X132826252Y-96776748D01*
X132826252Y-97676748D01*
G37*
X133326252Y-88976748D02*
X133126252Y-88976748D01*
X133126252Y-88076748D01*
X133326252Y-88076748D01*
X133326252Y-88976748D01*
G36*
X133326252Y-88976748D02*
G01*
X133126252Y-88976748D01*
X133126252Y-88076748D01*
X133326252Y-88076748D01*
X133326252Y-88976748D01*
G37*
X133326252Y-97676748D02*
X133126252Y-97676748D01*
X133126252Y-96776748D01*
X133326252Y-96776748D01*
X133326252Y-97676748D01*
G36*
X133326252Y-97676748D02*
G01*
X133126252Y-97676748D01*
X133126252Y-96776748D01*
X133326252Y-96776748D01*
X133326252Y-97676748D01*
G37*
X133826252Y-88976748D02*
X133626252Y-88976748D01*
X133626252Y-88076748D01*
X133826252Y-88076748D01*
X133826252Y-88976748D01*
G36*
X133826252Y-88976748D02*
G01*
X133626252Y-88976748D01*
X133626252Y-88076748D01*
X133826252Y-88076748D01*
X133826252Y-88976748D01*
G37*
X133826252Y-97676748D02*
X133626252Y-97676748D01*
X133626252Y-96776748D01*
X133826252Y-96776748D01*
X133826252Y-97676748D01*
G36*
X133826252Y-97676748D02*
G01*
X133626252Y-97676748D01*
X133626252Y-96776748D01*
X133826252Y-96776748D01*
X133826252Y-97676748D01*
G37*
X134326252Y-88976748D02*
X134126252Y-88976748D01*
X134126252Y-88076748D01*
X134326252Y-88076748D01*
X134326252Y-88976748D01*
G36*
X134326252Y-88976748D02*
G01*
X134126252Y-88976748D01*
X134126252Y-88076748D01*
X134326252Y-88076748D01*
X134326252Y-88976748D01*
G37*
X134326252Y-97676748D02*
X134126252Y-97676748D01*
X134126252Y-96776748D01*
X134326252Y-96776748D01*
X134326252Y-97676748D01*
G36*
X134326252Y-97676748D02*
G01*
X134126252Y-97676748D01*
X134126252Y-96776748D01*
X134326252Y-96776748D01*
X134326252Y-97676748D01*
G37*
X136276252Y-90226748D02*
X135376252Y-90226748D01*
X135376252Y-90026748D01*
X136276252Y-90026748D01*
X136276252Y-90226748D01*
G36*
X136276252Y-90226748D02*
G01*
X135376252Y-90226748D01*
X135376252Y-90026748D01*
X136276252Y-90026748D01*
X136276252Y-90226748D01*
G37*
X136276252Y-90726748D02*
X135376252Y-90726748D01*
X135376252Y-90526748D01*
X136276252Y-90526748D01*
X136276252Y-90726748D01*
G36*
X136276252Y-90726748D02*
G01*
X135376252Y-90726748D01*
X135376252Y-90526748D01*
X136276252Y-90526748D01*
X136276252Y-90726748D01*
G37*
X136276252Y-91226748D02*
X135376252Y-91226748D01*
X135376252Y-91026748D01*
X136276252Y-91026748D01*
X136276252Y-91226748D01*
G36*
X136276252Y-91226748D02*
G01*
X135376252Y-91226748D01*
X135376252Y-91026748D01*
X136276252Y-91026748D01*
X136276252Y-91226748D01*
G37*
X136276252Y-91726748D02*
X135376252Y-91726748D01*
X135376252Y-91526748D01*
X136276252Y-91526748D01*
X136276252Y-91726748D01*
G36*
X136276252Y-91726748D02*
G01*
X135376252Y-91726748D01*
X135376252Y-91526748D01*
X136276252Y-91526748D01*
X136276252Y-91726748D01*
G37*
X136276252Y-92226748D02*
X135376252Y-92226748D01*
X135376252Y-92026748D01*
X136276252Y-92026748D01*
X136276252Y-92226748D01*
G36*
X136276252Y-92226748D02*
G01*
X135376252Y-92226748D01*
X135376252Y-92026748D01*
X136276252Y-92026748D01*
X136276252Y-92226748D01*
G37*
X136276252Y-92726748D02*
X135376252Y-92726748D01*
X135376252Y-92526748D01*
X136276252Y-92526748D01*
X136276252Y-92726748D01*
G36*
X136276252Y-92726748D02*
G01*
X135376252Y-92726748D01*
X135376252Y-92526748D01*
X136276252Y-92526748D01*
X136276252Y-92726748D01*
G37*
X136276252Y-93226748D02*
X135376252Y-93226748D01*
X135376252Y-93026748D01*
X136276252Y-93026748D01*
X136276252Y-93226748D01*
G36*
X136276252Y-93226748D02*
G01*
X135376252Y-93226748D01*
X135376252Y-93026748D01*
X136276252Y-93026748D01*
X136276252Y-93226748D01*
G37*
X136276252Y-93726748D02*
X135376252Y-93726748D01*
X135376252Y-93526748D01*
X136276252Y-93526748D01*
X136276252Y-93726748D01*
G36*
X136276252Y-93726748D02*
G01*
X135376252Y-93726748D01*
X135376252Y-93526748D01*
X136276252Y-93526748D01*
X136276252Y-93726748D01*
G37*
X136276252Y-94226748D02*
X135376252Y-94226748D01*
X135376252Y-94026748D01*
X136276252Y-94026748D01*
X136276252Y-94226748D01*
G36*
X136276252Y-94226748D02*
G01*
X135376252Y-94226748D01*
X135376252Y-94026748D01*
X136276252Y-94026748D01*
X136276252Y-94226748D01*
G37*
X136276252Y-94726748D02*
X135376252Y-94726748D01*
X135376252Y-94526748D01*
X136276252Y-94526748D01*
X136276252Y-94726748D01*
G36*
X136276252Y-94726748D02*
G01*
X135376252Y-94726748D01*
X135376252Y-94526748D01*
X136276252Y-94526748D01*
X136276252Y-94726748D01*
G37*
X136276252Y-95226748D02*
X135376252Y-95226748D01*
X135376252Y-95026748D01*
X136276252Y-95026748D01*
X136276252Y-95226748D01*
G36*
X136276252Y-95226748D02*
G01*
X135376252Y-95226748D01*
X135376252Y-95026748D01*
X136276252Y-95026748D01*
X136276252Y-95226748D01*
G37*
X136276252Y-95726748D02*
X135376252Y-95726748D01*
X135376252Y-95526748D01*
X136276252Y-95526748D01*
X136276252Y-95726748D01*
G36*
X136276252Y-95726748D02*
G01*
X135376252Y-95726748D01*
X135376252Y-95526748D01*
X136276252Y-95526748D01*
X136276252Y-95726748D01*
G37*
%TD*%
D11*
%TO.C,C5*%
X138101252Y-94801748D03*
X140001252Y-94801748D03*
%TD*%
D12*
%TO.C,R3*%
X118476252Y-84451748D03*
X120301252Y-84451748D03*
%TD*%
%TO.C,R6*%
X133751252Y-86201748D03*
X135576252Y-86201748D03*
%TD*%
%TO.C,R2*%
X118476252Y-88626748D03*
X120301252Y-88626748D03*
%TD*%
D13*
%TO.C,C8*%
X131951252Y-86201748D03*
X130051252Y-86201748D03*
%TD*%
D14*
%TO.C,R8*%
X147973200Y-97953200D03*
D15*
X144723200Y-96953200D03*
D14*
X147973200Y-95953200D03*
%TD*%
D16*
%TO.C,R7*%
X127376252Y-80501748D03*
X127376252Y-82326748D03*
%TD*%
D11*
%TO.C,C4*%
X138101252Y-87301748D03*
X140001252Y-87301748D03*
%TD*%
D17*
%TO.C,C2*%
X120626252Y-90726748D03*
X118551252Y-90726748D03*
%TD*%
D18*
%TO.C,D2*%
X124855000Y-95520000D03*
X122980000Y-95520000D03*
%TD*%
D12*
%TO.C,R5*%
X122987352Y-93101748D03*
X124812352Y-93101748D03*
%TD*%
D19*
%TO.C,C1*%
X118551252Y-92851748D03*
X120626252Y-92851748D03*
%TD*%
D11*
%TO.C,C9*%
X138101252Y-89801748D03*
X140001252Y-89801748D03*
%TD*%
D20*
%TO.C,J2*%
X144200000Y-91510000D03*
X144200000Y-89510000D03*
X144200000Y-87510000D03*
X144200000Y-85510000D03*
X144200000Y-83510000D03*
X144200000Y-81510000D03*
D21*
X149950000Y-93860000D03*
X149950000Y-79160000D03*
%TD*%
D22*
%TO.C,U3*%
X129626252Y-79776748D03*
X129626252Y-82316748D03*
X135976252Y-82316748D03*
X135976252Y-79776748D03*
%TD*%
D18*
%TO.C,D3*%
X124825000Y-81750000D03*
X122950000Y-81750000D03*
%TD*%
D23*
%TO.C,R1*%
X120301252Y-86551748D03*
X118476252Y-86551748D03*
%TD*%
D11*
%TO.C,C7*%
X138076252Y-82301748D03*
X139976252Y-82301748D03*
%TD*%
D24*
%TO.C,Y1*%
X123063452Y-88682148D03*
X123063452Y-90882148D03*
X124763452Y-90882148D03*
X124763452Y-88682148D03*
%TD*%
D11*
%TO.C,C6*%
X138076252Y-84801748D03*
X139976252Y-84801748D03*
%TD*%
%TO.C,C3*%
X138101252Y-92301748D03*
X140001252Y-92301748D03*
%TD*%
D25*
%TO.C,U2*%
X122805000Y-83960000D03*
X122805000Y-84910000D03*
X122805000Y-85860000D03*
X125080000Y-85860000D03*
X125080000Y-84910000D03*
X125080000Y-83960000D03*
%TD*%
D26*
%TO.C,D1*%
X127176252Y-85201748D03*
X127176252Y-88501748D03*
%TD*%
M02*
