M48
; DRILL file {KiCad 9.0.4} date 2025-09-22T16:02:17+0200
; FORMAT={-:-/ absolute / inch / decimal}
; #@! TF.CreationDate,2025-09-22T16:02:17+02:00
; #@! TF.GenerationSoftware,Kicad,Pcbnew,9.0.4
; #@! TF.FileFunction,Plated,1,2,PTH
FMAT,2
INCH
; #@! TA.AperFunction,Plated,PTH,ViaDrill
T1C0.0118
%
G90
G05
T1
X4.5921Y-3.5886
X4.6644Y-3.2796
X4.7925Y-3.6001
X4.9303Y-3.4315
X4.9434Y-3.7058
X4.9728Y-3.387
X4.9748Y-3.3059
X4.9921Y-3.4409
X5.0512Y-3.2874
X5.0837Y-3.694
X5.1044Y-3.6142
X5.1221Y-3.5483
X5.1319Y-3.7481
X5.2058Y-3.5473
X5.2136Y-3.6635
X5.2146Y-3.7481
X5.2274Y-3.3366
X5.2303Y-3.1417
X5.2505Y-3.5488
X5.2668Y-3.6251
X5.2865Y-3.5788
X5.2874Y-3.6673
X5.2884Y-3.7343
X5.3908Y-3.3362
X5.3908Y-3.4371
X5.7362Y-3.6929
X5.7697Y-3.4469
X5.7736Y-3.2874
X5.9295Y-3.8665
M30
