%TF.GenerationSoftware,KiCad,Pcbnew,9.0.4*%
%TF.CreationDate,2025-09-22T16:02:19+02:00*%
%TF.ProjectId,SAULink9_ATPI_v2.0,5341554c-696e-46b3-995f-415450495f76,rev?*%
%TF.SameCoordinates,Original*%
%TF.FileFunction,Copper,L1,Top*%
%TF.FilePolarity,Positive*%
%FSLAX46Y46*%
G04 Gerber Fmt 4.6, Leading zero omitted, Abs format (unit mm)*
G04 Created by KiCad (PCBNEW 9.0.4) date 2025-09-22 16:02:19*
%MOMM*%
%LPD*%
G01*
G04 APERTURE LIST*
G04 Aperture macros list*
%AMRoundRect*
0 Rectangle with rounded corners*
0 $1 Rounding radius*
0 $2 $3 $4 $5 $6 $7 $8 $9 X,Y pos of 4 corners*
0 Add a 4 corners polygon primitive as box body*
4,1,4,$2,$3,$4,$5,$6,$7,$8,$9,$2,$3,0*
0 Add four circle primitives for the rounded corners*
1,1,$1+$1,$2,$3*
1,1,$1+$1,$4,$5*
1,1,$1+$1,$6,$7*
1,1,$1+$1,$8,$9*
0 Add four rect primitives between the rounded corners*
20,1,$1+$1,$2,$3,$4,$5,0*
20,1,$1+$1,$4,$5,$6,$7,0*
20,1,$1+$1,$6,$7,$8,$9,0*
20,1,$1+$1,$8,$9,$2,$3,0*%
%AMFreePoly0*
4,1,23,0.500000,-0.750000,0.000000,-0.750000,0.000000,-0.745722,-0.065263,-0.745722,-0.191342,-0.711940,-0.304381,-0.646677,-0.396677,-0.554381,-0.461940,-0.441342,-0.495722,-0.315263,-0.495722,-0.250000,-0.500000,-0.250000,-0.500000,0.250000,-0.495722,0.250000,-0.495722,0.315263,-0.461940,0.441342,-0.396677,0.554381,-0.304381,0.646677,-0.191342,0.711940,-0.065263,0.745722,0.000000,0.745722,
0.000000,0.750000,0.500000,0.750000,0.500000,-0.750000,0.500000,-0.750000,$1*%
%AMFreePoly1*
4,1,23,0.000000,0.745722,0.065263,0.745722,0.191342,0.711940,0.304381,0.646677,0.396677,0.554381,0.461940,0.441342,0.495722,0.315263,0.495722,0.250000,0.500000,0.250000,0.500000,-0.250000,0.495722,-0.250000,0.495722,-0.315263,0.461940,-0.441342,0.396677,-0.554381,0.304381,-0.646677,0.191342,-0.711940,0.065263,-0.745722,0.000000,-0.745722,0.000000,-0.750000,-0.500000,-0.750000,
-0.500000,0.750000,0.000000,0.750000,0.000000,0.745722,0.000000,0.745722,$1*%
G04 Aperture macros list end*
%TA.AperFunction,SMDPad,CuDef*%
%ADD10RoundRect,0.250000X-0.250000X-0.475000X0.250000X-0.475000X0.250000X0.475000X-0.250000X0.475000X0*%
%TD*%
%TA.AperFunction,SMDPad,CuDef*%
%ADD11RoundRect,0.250000X-0.262500X-0.450000X0.262500X-0.450000X0.262500X0.450000X-0.262500X0.450000X0*%
%TD*%
%TA.AperFunction,SMDPad,CuDef*%
%ADD12RoundRect,0.250000X0.250000X0.475000X-0.250000X0.475000X-0.250000X-0.475000X0.250000X-0.475000X0*%
%TD*%
%TA.AperFunction,SMDPad,CuDef*%
%ADD13RoundRect,0.250000X-3.250000X-0.750000X3.250000X-0.750000X3.250000X0.750000X-3.250000X0.750000X0*%
%TD*%
%TA.AperFunction,SMDPad,CuDef*%
%ADD14RoundRect,0.250000X-2.750000X-0.500000X2.750000X-0.500000X2.750000X0.500000X-2.750000X0.500000X0*%
%TD*%
%TA.AperFunction,SMDPad,CuDef*%
%ADD15FreePoly0,180.000000*%
%TD*%
%TA.AperFunction,SMDPad,CuDef*%
%ADD16FreePoly1,180.000000*%
%TD*%
%TA.AperFunction,SMDPad,CuDef*%
%ADD17R,1.200000X1.200000*%
%TD*%
%TA.AperFunction,SMDPad,CuDef*%
%ADD18R,1.500000X1.600000*%
%TD*%
%TA.AperFunction,SMDPad,CuDef*%
%ADD19RoundRect,0.250000X-0.450000X0.262500X-0.450000X-0.262500X0.450000X-0.262500X0.450000X0.262500X0*%
%TD*%
%TA.AperFunction,SMDPad,CuDef*%
%ADD20RoundRect,0.250000X0.337500X0.475000X-0.337500X0.475000X-0.337500X-0.475000X0.337500X-0.475000X0*%
%TD*%
%TA.AperFunction,SMDPad,CuDef*%
%ADD21RoundRect,0.243750X0.243750X0.456250X-0.243750X0.456250X-0.243750X-0.456250X0.243750X-0.456250X0*%
%TD*%
%TA.AperFunction,SMDPad,CuDef*%
%ADD22RoundRect,0.250000X-0.337500X-0.475000X0.337500X-0.475000X0.337500X0.475000X-0.337500X0.475000X0*%
%TD*%
%TA.AperFunction,SMDPad,CuDef*%
%ADD23R,3.500000X1.000000*%
%TD*%
%TA.AperFunction,SMDPad,CuDef*%
%ADD24R,3.400000X1.500000*%
%TD*%
%TA.AperFunction,SMDPad,CuDef*%
%ADD25R,1.500000X0.600000*%
%TD*%
%TA.AperFunction,SMDPad,CuDef*%
%ADD26RoundRect,0.250000X0.262500X0.450000X-0.262500X0.450000X-0.262500X-0.450000X0.262500X-0.450000X0*%
%TD*%
%TA.AperFunction,SMDPad,CuDef*%
%ADD27R,1.500000X0.280000*%
%TD*%
%TA.AperFunction,SMDPad,CuDef*%
%ADD28R,0.280000X1.500000*%
%TD*%
%TA.AperFunction,SMDPad,CuDef*%
%ADD29R,1.200000X1.400000*%
%TD*%
%TA.AperFunction,SMDPad,CuDef*%
%ADD30RoundRect,0.150000X-0.512500X-0.150000X0.512500X-0.150000X0.512500X0.150000X-0.512500X0.150000X0*%
%TD*%
%TA.AperFunction,SMDPad,CuDef*%
%ADD31RoundRect,0.225000X-0.375000X0.225000X-0.375000X-0.225000X0.375000X-0.225000X0.375000X0.225000X0*%
%TD*%
%TA.AperFunction,ViaPad*%
%ADD32C,0.600000*%
%TD*%
%TA.AperFunction,Conductor*%
%ADD33C,0.200000*%
%TD*%
%TA.AperFunction,Conductor*%
%ADD34C,0.500000*%
%TD*%
%TA.AperFunction,Conductor*%
%ADD35C,0.800000*%
%TD*%
G04 APERTURE END LIST*
D10*
%TO.P,C5,1*%
%TO.N,Net-(C5-Pad1)*%
X138101252Y-94801748D03*
%TO.P,C5,2*%
%TO.N,GND*%
X140001252Y-94801748D03*
%TD*%
D11*
%TO.P,R3,1*%
%TO.N,Net-(C4-Pad1)*%
X118476252Y-84451748D03*
%TO.P,R3,2*%
%TO.N,Net-(R3-Pad2)*%
X120301252Y-84451748D03*
%TD*%
%TO.P,R6,1*%
%TO.N,Net-(R6-Pad1)*%
X133751252Y-86201748D03*
%TO.P,R6,2*%
%TO.N,Net-(R6-Pad2)*%
X135576252Y-86201748D03*
%TD*%
%TO.P,R2,1*%
%TO.N,Net-(J1-D-)*%
X118476252Y-88626748D03*
%TO.P,R2,2*%
%TO.N,Net-(R2-Pad2)*%
X120301252Y-88626748D03*
%TD*%
D12*
%TO.P,C8,1*%
%TO.N,Net-(J1-VBUS)*%
X131951252Y-86201748D03*
%TO.P,C8,2*%
%TO.N,GND*%
X130051252Y-86201748D03*
%TD*%
D13*
%TO.P,J1,1,VBUS*%
%TO.N,Net-(J1-VBUS)*%
X111987252Y-92387748D03*
D14*
%TO.P,J1,2,D-*%
%TO.N,Net-(J1-D-)*%
X111987252Y-89637748D03*
%TO.P,J1,3,D+*%
%TO.N,Net-(J1-D+)*%
X111987252Y-87637748D03*
D13*
%TO.P,J1,4,GND*%
%TO.N,GND*%
X111987252Y-84887748D03*
%TD*%
D15*
%TO.P,JP1,1,A*%
%TO.N,Net-(JP1-A)*%
X151290000Y-96370000D03*
D16*
%TO.P,JP1,2,B*%
%TO.N,Net-(JP1-B)*%
X149990000Y-96370000D03*
%TD*%
D17*
%TO.P,R8,1,1*%
%TO.N,Net-(JP1-A)*%
X147973200Y-97953200D03*
D18*
%TO.P,R8,2,2*%
%TO.N,Net-(JP1-B)*%
X144723200Y-96953200D03*
D17*
%TO.P,R8,3,3*%
%TO.N,GND*%
X147973200Y-95953200D03*
%TD*%
D19*
%TO.P,R7,1*%
%TO.N,Net-(D3-A)*%
X127376252Y-80501748D03*
%TO.P,R7,2*%
%TO.N,Net-(R6-Pad1)*%
X127376252Y-82326748D03*
%TD*%
D10*
%TO.P,C4,1*%
%TO.N,Net-(C4-Pad1)*%
X138101252Y-87301748D03*
%TO.P,C4,2*%
%TO.N,GND*%
X140001252Y-87301748D03*
%TD*%
D20*
%TO.P,C2,1*%
%TO.N,Net-(C2-Pad1)*%
X120626252Y-90726748D03*
%TO.P,C2,2*%
%TO.N,GND*%
X118551252Y-90726748D03*
%TD*%
D21*
%TO.P,D2,1,K*%
%TO.N,GND*%
X124855000Y-95520000D03*
%TO.P,D2,2,A*%
%TO.N,Net-(D2-A)*%
X122980000Y-95520000D03*
%TD*%
D11*
%TO.P,R5,1*%
%TO.N,Net-(D2-A)*%
X122987352Y-93101748D03*
%TO.P,R5,2*%
%TO.N,Net-(R5-Pad2)*%
X124812352Y-93101748D03*
%TD*%
D22*
%TO.P,C1,1*%
%TO.N,GND*%
X118551252Y-92851748D03*
%TO.P,C1,2*%
%TO.N,Net-(C1-Pad2)*%
X120626252Y-92851748D03*
%TD*%
D10*
%TO.P,C9,1*%
%TO.N,Net-(C9-Pad1)*%
X138101252Y-89801748D03*
%TO.P,C9,2*%
%TO.N,GND*%
X140001252Y-89801748D03*
%TD*%
D23*
%TO.P,J2,1,1*%
%TO.N,Net-(JP1-A)*%
X144200000Y-91510000D03*
%TO.P,J2,2,2*%
%TO.N,GND*%
X144200000Y-89510000D03*
%TO.P,J2,3,3*%
%TO.N,Net-(J2-Pad3)*%
X144200000Y-87510000D03*
%TO.P,J2,4,4*%
%TO.N,GND*%
X144200000Y-85510000D03*
%TO.P,J2,5,5*%
%TO.N,Net-(D1-K)*%
X144200000Y-83510000D03*
%TO.P,J2,6,6*%
%TO.N,Net-(J2-Pad6)*%
X144200000Y-81510000D03*
D24*
%TO.P,J2,S1,SHIELD*%
%TO.N,GND*%
X149950000Y-93860000D03*
%TO.P,J2,S2,SHIELD__1*%
X149950000Y-79160000D03*
%TD*%
D25*
%TO.P,U3,1*%
%TO.N,Net-(R6-Pad2)*%
X129626252Y-79776748D03*
%TO.P,U3,2*%
%TO.N,GND*%
X129626252Y-82316748D03*
%TO.P,U3,3*%
X135976252Y-82316748D03*
%TO.P,U3,4*%
%TO.N,Net-(J2-Pad6)*%
X135976252Y-79776748D03*
%TD*%
D21*
%TO.P,D3,1,K*%
%TO.N,GND*%
X124825000Y-81750000D03*
%TO.P,D3,2,A*%
%TO.N,Net-(D3-A)*%
X122950000Y-81750000D03*
%TD*%
D26*
%TO.P,R1,1*%
%TO.N,Net-(R1-Pad1)*%
X120301252Y-86551748D03*
%TO.P,R1,2*%
%TO.N,Net-(J1-D+)*%
X118476252Y-86551748D03*
%TD*%
D10*
%TO.P,C7,1*%
%TO.N,Net-(J1-VBUS)*%
X138076252Y-82301748D03*
%TO.P,C7,2*%
%TO.N,GND*%
X139976252Y-82301748D03*
%TD*%
D27*
%TO.P,U1,1*%
%TO.N,unconnected-(U1-Pad1)*%
X127176252Y-90126748D03*
%TO.P,U1,2*%
%TO.N,unconnected-(U1-Pad2)*%
X127176252Y-90626748D03*
%TO.P,U1,3*%
%TO.N,unconnected-(U1-Pad3)*%
X127176252Y-91126748D03*
%TO.P,U1,4*%
%TO.N,unconnected-(U1-Pad4)*%
X127176252Y-91626748D03*
%TO.P,U1,5*%
%TO.N,unconnected-(U1-Pad5)*%
X127176252Y-92126748D03*
%TO.P,U1,6*%
%TO.N,unconnected-(U1-Pad6)*%
X127176252Y-92626748D03*
%TO.P,U1,7*%
%TO.N,Net-(C4-Pad1)*%
X127176252Y-93126748D03*
%TO.P,U1,8*%
%TO.N,Net-(C1-Pad2)*%
X127176252Y-93626748D03*
%TO.P,U1,9*%
%TO.N,Net-(C2-Pad1)*%
X127176252Y-94126748D03*
%TO.P,U1,10*%
%TO.N,GND*%
X127176252Y-94626748D03*
%TO.P,U1,11*%
%TO.N,unconnected-(U1-Pad11)*%
X127176252Y-95126748D03*
%TO.P,U1,12*%
%TO.N,Net-(R5-Pad2)*%
X127176252Y-95626748D03*
D28*
%TO.P,U1,13*%
%TO.N,Net-(R6-Pad1)*%
X128726252Y-97176748D03*
%TO.P,U1,14*%
%TO.N,GND*%
X129226252Y-97176748D03*
%TO.P,U1,15*%
%TO.N,unconnected-(U1-Pad15)*%
X129726252Y-97176748D03*
%TO.P,U1,16*%
%TO.N,GND*%
X130226252Y-97176748D03*
%TO.P,U1,17*%
%TO.N,unconnected-(U1-Pad17)*%
X130726252Y-97176748D03*
%TO.P,U1,18*%
%TO.N,unconnected-(U1-Pad18)*%
X131226252Y-97176748D03*
%TO.P,U1,19*%
%TO.N,unconnected-(U1-Pad19)*%
X131726252Y-97176748D03*
%TO.P,U1,20*%
%TO.N,unconnected-(U1-Pad20)*%
X132226252Y-97176748D03*
%TO.P,U1,21*%
%TO.N,unconnected-(U1-Pad21)*%
X132726252Y-97176748D03*
%TO.P,U1,22*%
%TO.N,GND*%
X133226252Y-97176748D03*
%TO.P,U1,23*%
X133726252Y-97176748D03*
%TO.P,U1,24*%
X134226252Y-97176748D03*
D27*
%TO.P,U1,25*%
%TO.N,unconnected-(U1-Pad25)*%
X135776252Y-95626748D03*
%TO.P,U1,26*%
%TO.N,Net-(C5-Pad1)*%
X135776252Y-95126748D03*
%TO.P,U1,27*%
%TO.N,Net-(C3-Pad1)*%
X135776252Y-94626748D03*
%TO.P,U1,28*%
%TO.N,unconnected-(U1-Pad28)*%
X135776252Y-94126748D03*
%TO.P,U1,29*%
%TO.N,Net-(C9-Pad1)*%
X135776252Y-93626748D03*
%TO.P,U1,30*%
%TO.N,Net-(J2-Pad3)*%
X135776252Y-93126748D03*
%TO.P,U1,31*%
%TO.N,unconnected-(U1-Pad31)*%
X135776252Y-92626748D03*
%TO.P,U1,32*%
%TO.N,unconnected-(U1-Pad32)*%
X135776252Y-92126748D03*
%TO.P,U1,33*%
%TO.N,GND*%
X135776252Y-91626748D03*
%TO.P,U1,34*%
%TO.N,Net-(J1-VBUS)*%
X135776252Y-91126748D03*
%TO.P,U1,35*%
X135776252Y-90626748D03*
%TO.P,U1,36*%
%TO.N,GND*%
X135776252Y-90126748D03*
D28*
%TO.P,U1,37*%
%TO.N,Net-(C4-Pad1)*%
X134226252Y-88576748D03*
%TO.P,U1,38*%
X133726252Y-88576748D03*
%TO.P,U1,39*%
%TO.N,unconnected-(U1-Pad39)*%
X133226252Y-88576748D03*
%TO.P,U1,40*%
%TO.N,unconnected-(U1-Pad40)*%
X132726252Y-88576748D03*
%TO.P,U1,41*%
%TO.N,Net-(R3-Pad2)*%
X132226252Y-88576748D03*
%TO.P,U1,42*%
%TO.N,Net-(U1-Pad42)*%
X131726252Y-88576748D03*
%TO.P,U1,43*%
%TO.N,unconnected-(U1-Pad43)*%
X131226252Y-88576748D03*
%TO.P,U1,44*%
%TO.N,unconnected-(U1-Pad44)*%
X130726252Y-88576748D03*
%TO.P,U1,45*%
%TO.N,unconnected-(U1-Pad45)*%
X130226252Y-88576748D03*
%TO.P,U1,46*%
%TO.N,unconnected-(U1-Pad46)*%
X129726252Y-88576748D03*
%TO.P,U1,47*%
%TO.N,unconnected-(U1-Pad47)*%
X129226252Y-88576748D03*
%TO.P,U1,48*%
%TO.N,Net-(D1-A)*%
X128726252Y-88576748D03*
%TD*%
D29*
%TO.P,Y1,1,1*%
%TO.N,Net-(C2-Pad1)*%
X123063452Y-88682148D03*
%TO.P,Y1,2,2*%
%TO.N,GND*%
X123063452Y-90882148D03*
%TO.P,Y1,3,3*%
%TO.N,Net-(C1-Pad2)*%
X124763452Y-90882148D03*
%TO.P,Y1,4,4*%
%TO.N,GND*%
X124763452Y-88682148D03*
%TD*%
D10*
%TO.P,C6,1*%
%TO.N,Net-(J1-VBUS)*%
X138076252Y-84801748D03*
%TO.P,C6,2*%
%TO.N,GND*%
X139976252Y-84801748D03*
%TD*%
%TO.P,C3,1*%
%TO.N,Net-(C3-Pad1)*%
X138101252Y-92301748D03*
%TO.P,C3,2*%
%TO.N,Net-(JP1-B)*%
X140001252Y-92301748D03*
%TD*%
D30*
%TO.P,U2,1,I/O1*%
%TO.N,Net-(R1-Pad1)*%
X122805000Y-83960000D03*
%TO.P,U2,2,GND*%
%TO.N,GND*%
X122805000Y-84910000D03*
%TO.P,U2,3,I/O2*%
%TO.N,Net-(R2-Pad2)*%
X122805000Y-85860000D03*
%TO.P,U2,4,I/O2*%
%TO.N,Net-(U1-Pad42)*%
X125080000Y-85860000D03*
%TO.P,U2,5,VBUS*%
%TO.N,Net-(J1-VBUS)*%
X125080000Y-84910000D03*
%TO.P,U2,6,I/O1*%
%TO.N,Net-(R3-Pad2)*%
X125080000Y-83960000D03*
%TD*%
D31*
%TO.P,D1,1,K*%
%TO.N,Net-(D1-K)*%
X127176252Y-85201748D03*
%TO.P,D1,2,A*%
%TO.N,Net-(D1-A)*%
X127176252Y-88501748D03*
%TD*%
D32*
%TO.N,Net-(C2-Pad1)*%
X121729252Y-91443048D03*
X125561752Y-94126748D03*
%TO.N,Net-(J2-Pad3)*%
X134300000Y-93150000D03*
X146550000Y-87550000D03*
%TO.N,Net-(J1-VBUS)*%
X126310000Y-86030000D03*
X136926252Y-84739748D03*
X116638752Y-91150000D03*
X132776252Y-84750496D03*
X134276252Y-90901748D03*
%TO.N,Net-(D1-K)*%
X146650000Y-83500000D03*
X128300000Y-83500000D03*
%TO.N,GND*%
X126800000Y-87400000D03*
X129651252Y-91801748D03*
X145700000Y-93800000D03*
X150610000Y-98210000D03*
X130351252Y-95201748D03*
X132426252Y-93051748D03*
X129126252Y-93826748D03*
X133776252Y-92076748D03*
X132451252Y-95201748D03*
X130101252Y-90126748D03*
X134326252Y-94851748D03*
X132850000Y-79800000D03*
%TO.N,Net-(R3-Pad2)*%
X132226252Y-90101748D03*
X126360000Y-83970000D03*
%TO.N,Net-(C4-Pad1)*%
X136926252Y-87301748D03*
X133363752Y-90139248D03*
X118476252Y-83301748D03*
X125230000Y-87160000D03*
%TD*%
D33*
%TO.N,Net-(JP1-B)*%
X140210000Y-93370000D02*
X140001252Y-93161252D01*
X144500000Y-93370000D02*
X140210000Y-93370000D01*
X144723200Y-93593200D02*
X144500000Y-93370000D01*
X144723200Y-96953200D02*
X144723200Y-93593200D01*
X140001252Y-93161252D02*
X140001252Y-92551012D01*
%TO.N,Net-(C1-Pad2)*%
X120626252Y-92851748D02*
X121395652Y-92082348D01*
X125726252Y-93451748D02*
X125726252Y-92301748D01*
X125576252Y-92151748D02*
X125033052Y-92151748D01*
X124563252Y-92082348D02*
X124763452Y-91882148D01*
X124763452Y-90882148D02*
X124763452Y-91121648D01*
X124763452Y-91121648D02*
X124763452Y-91361248D01*
X124763452Y-91382148D02*
X124763452Y-91361248D01*
X125033052Y-92151748D02*
X124763452Y-91882148D01*
X124763452Y-91832148D02*
X124763452Y-91882148D01*
X127176252Y-93626748D02*
X125901252Y-93626748D01*
X125726252Y-92301748D02*
X125576252Y-92151748D01*
X125901252Y-93626748D02*
X125726252Y-93451748D01*
X124763452Y-91382148D02*
X124763452Y-91832148D01*
X121395652Y-92082348D02*
X124563252Y-92082348D01*
%TO.N,Net-(C2-Pad1)*%
X121551252Y-90726748D02*
X120626252Y-90726748D01*
X123063452Y-88682148D02*
X121995852Y-88682148D01*
X121726252Y-90551748D02*
X121551252Y-90726748D01*
X121995852Y-88682148D02*
X121726252Y-88951748D01*
X123063452Y-88682148D02*
X123001252Y-88619948D01*
X121551252Y-90726748D02*
X121729252Y-90904748D01*
X121729252Y-90904748D02*
X121729252Y-91443048D01*
X127176252Y-94126748D02*
X125561752Y-94126748D01*
X121726252Y-88951748D02*
X121726252Y-90551748D01*
%TO.N,Net-(J2-Pad3)*%
X144307200Y-87523200D02*
X144320400Y-87510000D01*
X134323252Y-93126748D02*
X135776252Y-93126748D01*
X134276748Y-93126748D02*
X134300000Y-93150000D01*
X144320400Y-87510000D02*
X146510000Y-87510000D01*
X134300000Y-93150000D02*
X134323252Y-93126748D01*
X146510000Y-87510000D02*
X146550000Y-87550000D01*
%TO.N,Net-(C5-Pad1)*%
X135776252Y-95126748D02*
X137701252Y-95126748D01*
X137701252Y-95126748D02*
X138026252Y-94801748D01*
%TO.N,Net-(J1-VBUS)*%
X125080000Y-84910000D02*
X126080000Y-84910000D01*
X136926252Y-84739748D02*
X137989252Y-84739748D01*
X132126252Y-84750496D02*
X131951252Y-84925496D01*
X134276252Y-90901748D02*
X134501252Y-91126748D01*
X132776252Y-84750496D02*
X132126252Y-84750496D01*
X134551252Y-90626748D02*
X135776252Y-90626748D01*
X126310000Y-85140000D02*
X126310000Y-86030000D01*
D34*
X116415252Y-92387748D02*
X111987252Y-92387748D01*
D33*
X126080000Y-84910000D02*
X126310000Y-85140000D01*
X134276252Y-90901748D02*
X134551252Y-90626748D01*
X138051252Y-84677748D02*
X138051252Y-82301748D01*
D34*
X116638752Y-92164248D02*
X116415252Y-92387748D01*
X116638752Y-91150000D02*
X116638752Y-92164248D01*
D33*
X137989252Y-84739748D02*
X138051252Y-84801748D01*
X137989252Y-84739748D02*
X138051252Y-84677748D01*
X134501252Y-91126748D02*
X135776252Y-91126748D01*
X131951252Y-84925496D02*
X131951252Y-86201748D01*
%TO.N,Net-(C9-Pad1)*%
X136926252Y-93473748D02*
X136926252Y-90023748D01*
X136926252Y-90023748D02*
X137148252Y-89801748D01*
X137148252Y-89801748D02*
X138101252Y-89801748D01*
X136773252Y-93626748D02*
X136926252Y-93473748D01*
X135776252Y-93626748D02*
X136773252Y-93626748D01*
%TO.N,Net-(D1-K)*%
X146673200Y-83523200D02*
X146723200Y-83523200D01*
X146650000Y-83500000D02*
X146673200Y-83523200D01*
X146750000Y-83550000D02*
X146723200Y-83523200D01*
X127400000Y-83500000D02*
X127176252Y-83723748D01*
X128300000Y-83500000D02*
X127400000Y-83500000D01*
X127176252Y-83723748D02*
X127176252Y-85201748D01*
X144307200Y-83523200D02*
X146626800Y-83523200D01*
X146626800Y-83523200D02*
X146650000Y-83500000D01*
%TO.N,Net-(D1-A)*%
X127176252Y-88501748D02*
X127214504Y-88540000D01*
X128689504Y-88540000D02*
X128726252Y-88576748D01*
X127214504Y-88540000D02*
X128689504Y-88540000D01*
%TO.N,Net-(D2-A)*%
X122987352Y-95261148D02*
X122987352Y-93101748D01*
X122962352Y-95286148D02*
X122987352Y-95261148D01*
%TO.N,Net-(J1-D-)*%
X116590252Y-89637748D02*
X117601252Y-88626748D01*
X117601252Y-88626748D02*
X118476252Y-88626748D01*
X111987252Y-89637748D02*
X116590252Y-89637748D01*
%TO.N,GND*%
X124763452Y-88682148D02*
X124763452Y-88638948D01*
X140160552Y-90388948D02*
X140176252Y-90388948D01*
X125700000Y-95520000D02*
X125840000Y-95380000D01*
X117465252Y-84887748D02*
X117476252Y-84876748D01*
X125840000Y-94780000D02*
X125993252Y-94626748D01*
X140176252Y-89801748D02*
X139951252Y-89576748D01*
D35*
X111987252Y-84887748D02*
X117465252Y-84887748D01*
D33*
X112073252Y-84801748D02*
X111987252Y-84887748D01*
X133226252Y-97176748D02*
X133226252Y-96681548D01*
X139951252Y-82087348D02*
X139951252Y-82301748D01*
X125993252Y-94626748D02*
X127176252Y-94626748D01*
X124855000Y-95520000D02*
X125700000Y-95520000D01*
X133726252Y-97176748D02*
X133726252Y-96651648D01*
X125840000Y-95380000D02*
X125840000Y-94780000D01*
X134226252Y-97176748D02*
X134226252Y-96651648D01*
X140176252Y-90388948D02*
X140176252Y-89801748D01*
X133226252Y-96681548D02*
X133226252Y-96651648D01*
%TO.N,Net-(R1-Pad1)*%
X121376252Y-84260000D02*
X121376252Y-84170000D01*
X121586252Y-83960000D02*
X121376252Y-84170000D01*
X121376252Y-86401748D02*
X121226252Y-86551748D01*
X121376252Y-84170000D02*
X121376252Y-86401748D01*
X121226252Y-86551748D02*
X120301252Y-86551748D01*
X122805000Y-83960000D02*
X121586252Y-83960000D01*
%TO.N,Net-(R2-Pad2)*%
X121776252Y-88373748D02*
X121523252Y-88626748D01*
X121776252Y-86030000D02*
X121776252Y-88373748D01*
X121946252Y-85860000D02*
X121776252Y-86030000D01*
X121523252Y-88626748D02*
X120301252Y-88626748D01*
X122805000Y-85860000D02*
X121946252Y-85860000D01*
%TO.N,Net-(J1-D+)*%
X116690252Y-87637748D02*
X111987252Y-87637748D01*
X118476252Y-86551748D02*
X117776252Y-86551748D01*
X117776252Y-86551748D02*
X116690252Y-87637748D01*
%TO.N,Net-(JP1-A)*%
X148790000Y-98200000D02*
X148220000Y-98200000D01*
X151290000Y-97210000D02*
X151140000Y-97360000D01*
X151140000Y-97360000D02*
X149080000Y-97360000D01*
X146373200Y-91523200D02*
X146626800Y-91776800D01*
X151300000Y-96360000D02*
X151290000Y-96370000D01*
X146853000Y-95053000D02*
X151093000Y-95053000D01*
X144307200Y-91523200D02*
X146373200Y-91523200D01*
X146626800Y-91776800D02*
X146626800Y-94826800D01*
X148220000Y-98200000D02*
X147973200Y-97953200D01*
X151093000Y-95053000D02*
X151300000Y-95260000D01*
X149080000Y-97360000D02*
X148890000Y-97550000D01*
X151300000Y-95260000D02*
X151300000Y-96360000D01*
X148890000Y-98100000D02*
X148790000Y-98200000D01*
X146626800Y-94826800D02*
X146853000Y-95053000D01*
X148890000Y-97550000D02*
X148890000Y-98100000D01*
X151290000Y-96370000D02*
X151290000Y-97210000D01*
%TO.N,Net-(R5-Pad2)*%
X127176252Y-95626748D02*
X127176252Y-96413748D01*
X126990000Y-96600000D02*
X124160000Y-96600000D01*
X124160000Y-96600000D02*
X123926252Y-96366252D01*
X124098252Y-93101748D02*
X124812352Y-93101748D01*
X123926252Y-96366252D02*
X123926252Y-93273748D01*
X123926252Y-93273748D02*
X124098252Y-93101748D01*
X127176252Y-96413748D02*
X126990000Y-96600000D01*
%TO.N,Net-(R3-Pad2)*%
X125080000Y-83960000D02*
X125100000Y-83940000D01*
X126250000Y-83960000D02*
X126280000Y-83990000D01*
X125100000Y-83360000D02*
X124913185Y-83173185D01*
X120301252Y-83378748D02*
X120301252Y-84451748D01*
X124913185Y-83173185D02*
X120506815Y-83173185D01*
X132226252Y-90101748D02*
X132226252Y-88576748D01*
X125100000Y-83940000D02*
X125100000Y-83360000D01*
X125080000Y-83960000D02*
X126250000Y-83960000D01*
X120506815Y-83173185D02*
X120301252Y-83378748D01*
%TO.N,Net-(U1-Pad42)*%
X127950000Y-87520000D02*
X131644504Y-87520000D01*
X127776252Y-86826252D02*
X127776252Y-87346252D01*
X127776252Y-87346252D02*
X127950000Y-87520000D01*
X125080000Y-85860000D02*
X125080000Y-86510000D01*
X125080000Y-86510000D02*
X125229000Y-86659000D01*
X127609000Y-86659000D02*
X127776252Y-86826252D01*
X125229000Y-86659000D02*
X127609000Y-86659000D01*
X131644504Y-87520000D02*
X131726252Y-87601748D01*
X131726252Y-87601748D02*
X131726252Y-88576748D01*
%TO.N,Net-(J2-Pad6)*%
X135761252Y-79776748D02*
X135976252Y-79776748D01*
X144026748Y-79776748D02*
X144307200Y-80057200D01*
X135751252Y-79786748D02*
X135761252Y-79776748D01*
X135976252Y-79776748D02*
X136001252Y-79801748D01*
X144307200Y-80057200D02*
X144307200Y-81523200D01*
X135976252Y-79776748D02*
X144026748Y-79776748D01*
%TO.N,Net-(R6-Pad1)*%
X134751252Y-89490948D02*
X134751252Y-86476748D01*
X127376252Y-82323748D02*
X128420000Y-81280000D01*
X128726252Y-97176748D02*
X128726252Y-95515948D01*
X128726252Y-95515948D02*
X134751252Y-89490948D01*
X133570000Y-81280000D02*
X133751252Y-81461252D01*
X133751252Y-81461252D02*
X133751252Y-86201748D01*
X127376252Y-82326748D02*
X127376252Y-82323748D01*
X128420000Y-81280000D02*
X133570000Y-81280000D01*
X134476252Y-86201748D02*
X133751252Y-86201748D01*
X134751252Y-86476748D02*
X134476252Y-86201748D01*
%TO.N,Net-(R6-Pad2)*%
X129626252Y-79776748D02*
X129626252Y-80396252D01*
X134226252Y-80576252D02*
X134490000Y-80840000D01*
X129806252Y-80576252D02*
X134226252Y-80576252D01*
X134490000Y-85410000D02*
X135281748Y-86201748D01*
X134490000Y-80840000D02*
X134490000Y-85410000D01*
X135281748Y-86201748D02*
X135576252Y-86201748D01*
X129626252Y-80396252D02*
X129806252Y-80576252D01*
%TO.N,Net-(JP1-B)*%
X149406800Y-96953200D02*
X149990000Y-96370000D01*
X144723200Y-96953200D02*
X149406800Y-96953200D01*
%TO.N,Net-(C4-Pad1)*%
X136926252Y-87301748D02*
X138101252Y-87301748D01*
X134226252Y-88576748D02*
X134226252Y-87601748D01*
X134226252Y-87601748D02*
X134151252Y-87526748D01*
X133801252Y-87526748D02*
X133776252Y-87551748D01*
X126076252Y-87456252D02*
X126076252Y-93001748D01*
X125230000Y-87160000D02*
X125780000Y-87160000D01*
X118398052Y-84373548D02*
X118476252Y-84451748D01*
X125780000Y-87160000D02*
X126076252Y-87456252D01*
X118476252Y-83301748D02*
X118476252Y-84451748D01*
X133726252Y-88576748D02*
X133726252Y-89776748D01*
X134151252Y-87526748D02*
X133801252Y-87526748D01*
X126201252Y-93126748D02*
X127176252Y-93126748D01*
X133776252Y-87551748D02*
X133726252Y-87601748D01*
X138051252Y-86726748D02*
X138051252Y-87301748D01*
X133726252Y-89776748D02*
X133363752Y-90139248D01*
X133726252Y-88839248D02*
X133726252Y-89101748D01*
X133726252Y-88839248D02*
X133726252Y-88576748D01*
X133363752Y-90139248D02*
X130376252Y-93126748D01*
X133726252Y-88576748D02*
X133726252Y-87601748D01*
X130376252Y-93126748D02*
X127176252Y-93126748D01*
X126076252Y-93001748D02*
X126201252Y-93126748D01*
%TO.N,Net-(D3-A)*%
X126130000Y-80720000D02*
X126348252Y-80501748D01*
X124250000Y-82780000D02*
X125900000Y-82780000D01*
X124100000Y-81960000D02*
X124100000Y-82630000D01*
X125900000Y-82780000D02*
X126130000Y-82550000D01*
X126130000Y-82550000D02*
X126130000Y-80720000D01*
X123130000Y-81750000D02*
X123890000Y-81750000D01*
X126348252Y-80501748D02*
X127376252Y-80501748D01*
X123890000Y-81750000D02*
X124100000Y-81960000D01*
X124100000Y-82630000D02*
X124250000Y-82780000D01*
%TO.N,Net-(C3-Pad1)*%
X137450000Y-92300000D02*
X137451748Y-92301748D01*
X137451748Y-92301748D02*
X138101252Y-92301748D01*
X137123252Y-94626748D02*
X137300000Y-94450000D01*
X137300000Y-94450000D02*
X137300000Y-92450000D01*
X137300000Y-92450000D02*
X137450000Y-92300000D01*
X135776252Y-94626748D02*
X137123252Y-94626748D01*
%TO.N,Net-(JP1-B)*%
X140001252Y-92551012D02*
X139876620Y-92426380D01*
%TD*%
%TA.AperFunction,Conductor*%
%TO.N,GND*%
G36*
X147876070Y-78420518D02*
G01*
X147943096Y-78440238D01*
X147988822Y-78493067D01*
X148000000Y-78544517D01*
X148000000Y-79035000D01*
X151900000Y-79035000D01*
X151900000Y-78546768D01*
X151902560Y-78538048D01*
X151901272Y-78529054D01*
X151912249Y-78505049D01*
X151919685Y-78479729D01*
X151926550Y-78473779D01*
X151930331Y-78465514D01*
X151952546Y-78451254D01*
X151972489Y-78433974D01*
X151983038Y-78431681D01*
X151989130Y-78427772D01*
X152024061Y-78422768D01*
X152075569Y-78422796D01*
X152142596Y-78442517D01*
X152188322Y-78495346D01*
X152199500Y-78546796D01*
X152199500Y-98752795D01*
X152179815Y-98819834D01*
X152127011Y-98865589D01*
X152075433Y-98876795D01*
X148681262Y-98874954D01*
X148614233Y-98855233D01*
X148568507Y-98802404D01*
X148558601Y-98733240D01*
X148587660Y-98669700D01*
X148612441Y-98647850D01*
X148645657Y-98625657D01*
X148667869Y-98592413D01*
X148667870Y-98592408D01*
X148673700Y-98563101D01*
X148673700Y-98524500D01*
X148693385Y-98457461D01*
X148746189Y-98411706D01*
X148797700Y-98400500D01*
X148829880Y-98400500D01*
X148829882Y-98400500D01*
X148903574Y-98369976D01*
X148986132Y-98287415D01*
X148986135Y-98287414D01*
X149003573Y-98269976D01*
X149003574Y-98269976D01*
X149059976Y-98213574D01*
X149090500Y-98139882D01*
X149090500Y-97684500D01*
X149110185Y-97617461D01*
X149162989Y-97571706D01*
X149214500Y-97560500D01*
X151179880Y-97560500D01*
X151179882Y-97560500D01*
X151253574Y-97529976D01*
X151459976Y-97323574D01*
X151490500Y-97249882D01*
X151490500Y-97249881D01*
X151495174Y-97238598D01*
X151496878Y-97239304D01*
X151522363Y-97190579D01*
X151549599Y-97169291D01*
X151576604Y-97153700D01*
X151649757Y-97111465D01*
X151671607Y-97094699D01*
X151764699Y-97001607D01*
X151781465Y-96979757D01*
X151847291Y-96865743D01*
X151857830Y-96840299D01*
X151891905Y-96713132D01*
X151895500Y-96685826D01*
X151895500Y-96054174D01*
X151891905Y-96026868D01*
X151857830Y-95899701D01*
X151847291Y-95874257D01*
X151807861Y-95805962D01*
X151781466Y-95760244D01*
X151764698Y-95738392D01*
X151764694Y-95738387D01*
X151671612Y-95645305D01*
X151671607Y-95645301D01*
X151649755Y-95628533D01*
X151562500Y-95578157D01*
X151514285Y-95527590D01*
X151500500Y-95470770D01*
X151500500Y-95220119D01*
X151500499Y-95220116D01*
X151469976Y-95146426D01*
X151413574Y-95090024D01*
X151395231Y-95071681D01*
X151361746Y-95010358D01*
X151366730Y-94940666D01*
X151408602Y-94884733D01*
X151474066Y-94860316D01*
X151482912Y-94860000D01*
X151674626Y-94860000D01*
X151674628Y-94859999D01*
X151747540Y-94845496D01*
X151747544Y-94845494D01*
X151830239Y-94790239D01*
X151885494Y-94707544D01*
X151885496Y-94707540D01*
X151899999Y-94634628D01*
X151900000Y-94634626D01*
X151900000Y-93985000D01*
X148000000Y-93985000D01*
X148000000Y-94634626D01*
X147999999Y-94634626D01*
X148013861Y-94704308D01*
X148007634Y-94773900D01*
X147964771Y-94829077D01*
X147898882Y-94852322D01*
X147892244Y-94852500D01*
X146987412Y-94852500D01*
X146957971Y-94843855D01*
X146927985Y-94837332D01*
X146922969Y-94833577D01*
X146920373Y-94832815D01*
X146899731Y-94816181D01*
X146863619Y-94780069D01*
X146830134Y-94718746D01*
X146827300Y-94692388D01*
X146827300Y-93085371D01*
X148000000Y-93085371D01*
X148000000Y-93735000D01*
X149825000Y-93735000D01*
X150075000Y-93735000D01*
X151900000Y-93735000D01*
X151900000Y-93085373D01*
X151899999Y-93085371D01*
X151885496Y-93012459D01*
X151885494Y-93012455D01*
X151830239Y-92929760D01*
X151747544Y-92874505D01*
X151747540Y-92874503D01*
X151674627Y-92860000D01*
X150075000Y-92860000D01*
X150075000Y-93735000D01*
X149825000Y-93735000D01*
X149825000Y-92860000D01*
X148225373Y-92860000D01*
X148152459Y-92874503D01*
X148152455Y-92874505D01*
X148069760Y-92929760D01*
X148014505Y-93012455D01*
X148014503Y-93012459D01*
X148000000Y-93085371D01*
X146827300Y-93085371D01*
X146827300Y-91736919D01*
X146827299Y-91736916D01*
X146796776Y-91663226D01*
X146740374Y-91606824D01*
X146486774Y-91353224D01*
X146452929Y-91339205D01*
X146413083Y-91322700D01*
X146413082Y-91322700D01*
X146174499Y-91322700D01*
X146107460Y-91303015D01*
X146061705Y-91250211D01*
X146050499Y-91198700D01*
X146050499Y-91000105D01*
X146050498Y-91000097D01*
X146044669Y-90970787D01*
X146022457Y-90937542D01*
X145989214Y-90915332D01*
X145989215Y-90915332D01*
X145989213Y-90915331D01*
X145989211Y-90915330D01*
X145989208Y-90915329D01*
X145959901Y-90909500D01*
X142440105Y-90909500D01*
X142440097Y-90909501D01*
X142410787Y-90915330D01*
X142377542Y-90937542D01*
X142355332Y-90970785D01*
X142355329Y-90970791D01*
X142349500Y-91000098D01*
X142349500Y-92019894D01*
X142349501Y-92019902D01*
X142355330Y-92049212D01*
X142377542Y-92082457D01*
X142394219Y-92093599D01*
X142410787Y-92104669D01*
X142410790Y-92104669D01*
X142410791Y-92104670D01*
X142420647Y-92106630D01*
X142440101Y-92110500D01*
X145959898Y-92110499D01*
X145989213Y-92104669D01*
X146022457Y-92082457D01*
X146044669Y-92049213D01*
X146046744Y-92038781D01*
X146050500Y-92019901D01*
X146050500Y-91847700D01*
X146053050Y-91839014D01*
X146051762Y-91830053D01*
X146062740Y-91806012D01*
X146070185Y-91780661D01*
X146077025Y-91774733D01*
X146080787Y-91766497D01*
X146103021Y-91752207D01*
X146122989Y-91734906D01*
X146133503Y-91732618D01*
X146139565Y-91728723D01*
X146174500Y-91723700D01*
X146238788Y-91723700D01*
X146305827Y-91743385D01*
X146326469Y-91760019D01*
X146389981Y-91823531D01*
X146423466Y-91884854D01*
X146426300Y-91911212D01*
X146426300Y-94866683D01*
X146436928Y-94892340D01*
X146456824Y-94940374D01*
X146739426Y-95222976D01*
X146813118Y-95253500D01*
X146892882Y-95253500D01*
X146999200Y-95253500D01*
X147066239Y-95273185D01*
X147111994Y-95325989D01*
X147123200Y-95377500D01*
X147123200Y-95828200D01*
X148823200Y-95828200D01*
X148823200Y-95377500D01*
X148842885Y-95310461D01*
X148895689Y-95264706D01*
X148947200Y-95253500D01*
X150958588Y-95253500D01*
X150988028Y-95262144D01*
X151018015Y-95268668D01*
X151023030Y-95272422D01*
X151025627Y-95273185D01*
X151046269Y-95289819D01*
X151059269Y-95302819D01*
X151092754Y-95364142D01*
X151087770Y-95433834D01*
X151045898Y-95489767D01*
X150980434Y-95514184D01*
X150971588Y-95514500D01*
X150790000Y-95514500D01*
X150783865Y-95515471D01*
X150757401Y-95519663D01*
X150757398Y-95519664D01*
X150716160Y-95549625D01*
X150650353Y-95573103D01*
X150582300Y-95557276D01*
X150568673Y-95545124D01*
X150567898Y-95546192D01*
X150552010Y-95534648D01*
X150490001Y-95514500D01*
X150490000Y-95514500D01*
X149924174Y-95514500D01*
X149924168Y-95514500D01*
X149896870Y-95518094D01*
X149769696Y-95552171D01*
X149744262Y-95562706D01*
X149744250Y-95562712D01*
X149630244Y-95628533D01*
X149608392Y-95645301D01*
X149608387Y-95645305D01*
X149515305Y-95738387D01*
X149515301Y-95738392D01*
X149498533Y-95760244D01*
X149432712Y-95874250D01*
X149432706Y-95874262D01*
X149422171Y-95899696D01*
X149388094Y-96026870D01*
X149384500Y-96054168D01*
X149384500Y-96628700D01*
X149364815Y-96695739D01*
X149312011Y-96741494D01*
X149260500Y-96752700D01*
X148939510Y-96752700D01*
X148872471Y-96733015D01*
X148826716Y-96680211D01*
X148816772Y-96611053D01*
X148817892Y-96604510D01*
X148823200Y-96577823D01*
X148823200Y-96078200D01*
X147123200Y-96078200D01*
X147123200Y-96577823D01*
X147128508Y-96604510D01*
X147122279Y-96674101D01*
X147079416Y-96729278D01*
X147013526Y-96752522D01*
X147006890Y-96752700D01*
X145697699Y-96752700D01*
X145630660Y-96733015D01*
X145584905Y-96680211D01*
X145573699Y-96628700D01*
X145573699Y-96143305D01*
X145573698Y-96143297D01*
X145567869Y-96113987D01*
X145545657Y-96080742D01*
X145512414Y-96058532D01*
X145512415Y-96058532D01*
X145512413Y-96058531D01*
X145512411Y-96058530D01*
X145512408Y-96058529D01*
X145483101Y-96052700D01*
X145483099Y-96052700D01*
X145047700Y-96052700D01*
X144980661Y-96033015D01*
X144934906Y-95980211D01*
X144923700Y-95928700D01*
X144923700Y-93553319D01*
X144923699Y-93553316D01*
X144922532Y-93550499D01*
X144893176Y-93479626D01*
X144836774Y-93423224D01*
X144829716Y-93416166D01*
X144829708Y-93416159D01*
X144613574Y-93200024D01*
X144599178Y-93194061D01*
X144539883Y-93169500D01*
X144539882Y-93169500D01*
X140648033Y-93169500D01*
X140580994Y-93149815D01*
X140535239Y-93097011D01*
X140525295Y-93027853D01*
X140536632Y-92991040D01*
X140543619Y-92976748D01*
X140591825Y-92878141D01*
X140601752Y-92810008D01*
X140601752Y-91793488D01*
X140597355Y-91763313D01*
X140593509Y-91736916D01*
X140591825Y-91725355D01*
X140540450Y-91620265D01*
X140540448Y-91620263D01*
X140540448Y-91620262D01*
X140457737Y-91537551D01*
X140352643Y-91486174D01*
X140284513Y-91476248D01*
X140284512Y-91476248D01*
X139717992Y-91476248D01*
X139717991Y-91476248D01*
X139649860Y-91486174D01*
X139544766Y-91537551D01*
X139462055Y-91620262D01*
X139410678Y-91725356D01*
X139400752Y-91793487D01*
X139400752Y-92810008D01*
X139410678Y-92878139D01*
X139462055Y-92983233D01*
X139544766Y-93065944D01*
X139544767Y-93065944D01*
X139544769Y-93065946D01*
X139649859Y-93117321D01*
X139703778Y-93125177D01*
X139767275Y-93154319D01*
X139800459Y-93200427D01*
X139800752Y-93201134D01*
X139831276Y-93274826D01*
X140040024Y-93483574D01*
X140096426Y-93539976D01*
X140170118Y-93570500D01*
X144365587Y-93570500D01*
X144395026Y-93579144D01*
X144425012Y-93585667D01*
X144430029Y-93589422D01*
X144432626Y-93590185D01*
X144453267Y-93606817D01*
X144486380Y-93639929D01*
X144519866Y-93701252D01*
X144522700Y-93727612D01*
X144522700Y-95928700D01*
X144503015Y-95995739D01*
X144450211Y-96041494D01*
X144398700Y-96052700D01*
X143963305Y-96052700D01*
X143963297Y-96052701D01*
X143933987Y-96058530D01*
X143900742Y-96080742D01*
X143878532Y-96113985D01*
X143878529Y-96113991D01*
X143872700Y-96143298D01*
X143872700Y-97763094D01*
X143872701Y-97763102D01*
X143878530Y-97792412D01*
X143900742Y-97825657D01*
X143917419Y-97836799D01*
X143933987Y-97847869D01*
X143933990Y-97847869D01*
X143933991Y-97847870D01*
X143943847Y-97849830D01*
X143963301Y-97853700D01*
X145483098Y-97853699D01*
X145512413Y-97847869D01*
X145545657Y-97825657D01*
X145567869Y-97792413D01*
X145567870Y-97792408D01*
X145573700Y-97763101D01*
X145573700Y-97277700D01*
X145593385Y-97210661D01*
X145646189Y-97164906D01*
X145697700Y-97153700D01*
X147159345Y-97153700D01*
X147226384Y-97173385D01*
X147272139Y-97226189D01*
X147282083Y-97295347D01*
X147280286Y-97301885D01*
X147280913Y-97302010D01*
X147272700Y-97343298D01*
X147272700Y-98563094D01*
X147272701Y-98563102D01*
X147278530Y-98592412D01*
X147300742Y-98625657D01*
X147332808Y-98647081D01*
X147377614Y-98700692D01*
X147386324Y-98770016D01*
X147356171Y-98833045D01*
X147296729Y-98869766D01*
X147263853Y-98874185D01*
X123640019Y-98861367D01*
X123572990Y-98841646D01*
X123531121Y-98796550D01*
X122482429Y-96865749D01*
X121213653Y-94529740D01*
X121199616Y-94495851D01*
X121190053Y-94486288D01*
X121183598Y-94474403D01*
X121160135Y-94455408D01*
X121160135Y-94455407D01*
X121155078Y-94451313D01*
X121129149Y-94425384D01*
X121116655Y-94420208D01*
X121106143Y-94411698D01*
X121088798Y-94406563D01*
X121077205Y-94403130D01*
X121070962Y-94401281D01*
X121037080Y-94387248D01*
X121023557Y-94387248D01*
X121010586Y-94383408D01*
X120980571Y-94386567D01*
X120967593Y-94387248D01*
X117353428Y-94387248D01*
X117286389Y-94367563D01*
X117240634Y-94314759D01*
X117229428Y-94263171D01*
X117230011Y-93374592D01*
X117713752Y-93374592D01*
X117720153Y-93434120D01*
X117720155Y-93434127D01*
X117770397Y-93568834D01*
X117770401Y-93568841D01*
X117856561Y-93683935D01*
X117856564Y-93683938D01*
X117971658Y-93770098D01*
X117971665Y-93770102D01*
X118106372Y-93820344D01*
X118106379Y-93820346D01*
X118165907Y-93826747D01*
X118165924Y-93826748D01*
X118426252Y-93826748D01*
X118676252Y-93826748D01*
X118936580Y-93826748D01*
X118936596Y-93826747D01*
X118996124Y-93820346D01*
X118996131Y-93820344D01*
X119130838Y-93770102D01*
X119130845Y-93770098D01*
X119245939Y-93683938D01*
X119245942Y-93683935D01*
X119332102Y-93568841D01*
X119332106Y-93568834D01*
X119382348Y-93434127D01*
X119382350Y-93434120D01*
X119388751Y-93374592D01*
X119388752Y-93374575D01*
X119388752Y-92976748D01*
X118676252Y-92976748D01*
X118676252Y-93826748D01*
X118426252Y-93826748D01*
X118426252Y-92976748D01*
X117713752Y-92976748D01*
X117713752Y-93374592D01*
X117230011Y-93374592D01*
X117231406Y-91249592D01*
X117713752Y-91249592D01*
X117720153Y-91309120D01*
X117720155Y-91309127D01*
X117770397Y-91443834D01*
X117770401Y-91443841D01*
X117856561Y-91558935D01*
X117856564Y-91558938D01*
X117971658Y-91645098D01*
X117971665Y-91645102D01*
X118046639Y-91673066D01*
X118102573Y-91714937D01*
X118126990Y-91780402D01*
X118112138Y-91848675D01*
X118062733Y-91898080D01*
X118046639Y-91905430D01*
X117971665Y-91933393D01*
X117971658Y-91933397D01*
X117856564Y-92019557D01*
X117856561Y-92019560D01*
X117770401Y-92134654D01*
X117770397Y-92134661D01*
X117720155Y-92269368D01*
X117720153Y-92269375D01*
X117713752Y-92328903D01*
X117713752Y-92726748D01*
X118426252Y-92726748D01*
X118426252Y-91876597D01*
X118415820Y-91857492D01*
X118401320Y-91840759D01*
X118399403Y-91827427D01*
X118392948Y-91815606D01*
X118394527Y-91793519D01*
X118391376Y-91771601D01*
X118396971Y-91759349D01*
X118397932Y-91745914D01*
X118411202Y-91728187D01*
X118420401Y-91708045D01*
X118426124Y-91701898D01*
X118676252Y-91701898D01*
X118686683Y-91721003D01*
X118701184Y-91737737D01*
X118703100Y-91751068D01*
X118709556Y-91762890D01*
X118707976Y-91784976D01*
X118711128Y-91806895D01*
X118705532Y-91819146D01*
X118704572Y-91832582D01*
X118686691Y-91860404D01*
X118682103Y-91870451D01*
X118678919Y-91872496D01*
X118676252Y-91876647D01*
X118676252Y-92726748D01*
X119388752Y-92726748D01*
X119388752Y-92328920D01*
X119388751Y-92328903D01*
X119382350Y-92269375D01*
X119382348Y-92269368D01*
X119332106Y-92134661D01*
X119332102Y-92134654D01*
X119245942Y-92019560D01*
X119245939Y-92019557D01*
X119130845Y-91933397D01*
X119130838Y-91933393D01*
X119055864Y-91905430D01*
X118999930Y-91863559D01*
X118975513Y-91798095D01*
X118990365Y-91729822D01*
X119039770Y-91680416D01*
X119055864Y-91673066D01*
X119130838Y-91645102D01*
X119130845Y-91645098D01*
X119245939Y-91558938D01*
X119245942Y-91558935D01*
X119332102Y-91443841D01*
X119332106Y-91443834D01*
X119382348Y-91309127D01*
X119382350Y-91309120D01*
X119388751Y-91249592D01*
X119388752Y-91249575D01*
X119388752Y-90851748D01*
X118676252Y-90851748D01*
X118676252Y-91701898D01*
X118426124Y-91701898D01*
X118426252Y-91701761D01*
X118426252Y-90851748D01*
X117713752Y-90851748D01*
X117713752Y-91249592D01*
X117231406Y-91249592D01*
X117232092Y-90203903D01*
X117713752Y-90203903D01*
X117713752Y-90601748D01*
X118426252Y-90601748D01*
X118676252Y-90601748D01*
X119388752Y-90601748D01*
X119388752Y-90203920D01*
X119388751Y-90203903D01*
X119382350Y-90144375D01*
X119382348Y-90144368D01*
X119332106Y-90009661D01*
X119332102Y-90009654D01*
X119245942Y-89894560D01*
X119245939Y-89894557D01*
X119130845Y-89808397D01*
X119130838Y-89808393D01*
X118996131Y-89758151D01*
X118996124Y-89758149D01*
X118936596Y-89751748D01*
X118676252Y-89751748D01*
X118676252Y-90601748D01*
X118426252Y-90601748D01*
X118426252Y-89751748D01*
X118165907Y-89751748D01*
X118106379Y-89758149D01*
X118106372Y-89758151D01*
X117971665Y-89808393D01*
X117971658Y-89808397D01*
X117856564Y-89894557D01*
X117856561Y-89894560D01*
X117770401Y-90009654D01*
X117770397Y-90009661D01*
X117720155Y-90144368D01*
X117720153Y-90144375D01*
X117713752Y-90203903D01*
X117232092Y-90203903D01*
X117232666Y-89330159D01*
X117252395Y-89263136D01*
X117268976Y-89242573D01*
X117647983Y-88863567D01*
X117709306Y-88830082D01*
X117735664Y-88827248D01*
X117739252Y-88827248D01*
X117806291Y-88846933D01*
X117852046Y-88899737D01*
X117863252Y-88951248D01*
X117863252Y-89110008D01*
X117873178Y-89178139D01*
X117873179Y-89178141D01*
X117922446Y-89278920D01*
X117924555Y-89283233D01*
X118007266Y-89365944D01*
X118007267Y-89365944D01*
X118007269Y-89365946D01*
X118112359Y-89417321D01*
X118146425Y-89422284D01*
X118180491Y-89427248D01*
X118180492Y-89427248D01*
X118772013Y-89427248D01*
X118801950Y-89422886D01*
X118840145Y-89417321D01*
X118945235Y-89365946D01*
X119027950Y-89283231D01*
X119079325Y-89178141D01*
X119089252Y-89110008D01*
X119089252Y-88143488D01*
X119079325Y-88075355D01*
X119027950Y-87970265D01*
X119027948Y-87970263D01*
X119027948Y-87970262D01*
X118945237Y-87887551D01*
X118910317Y-87870480D01*
X118840145Y-87836175D01*
X118840143Y-87836174D01*
X118772013Y-87826248D01*
X118772012Y-87826248D01*
X118180492Y-87826248D01*
X118180491Y-87826248D01*
X118112360Y-87836174D01*
X118007266Y-87887551D01*
X117924555Y-87970262D01*
X117873178Y-88075356D01*
X117863252Y-88143487D01*
X117863252Y-88302248D01*
X117843567Y-88369287D01*
X117790763Y-88415042D01*
X117739252Y-88426248D01*
X117641134Y-88426248D01*
X117561370Y-88426248D01*
X117561368Y-88426248D01*
X117561366Y-88426249D01*
X117487680Y-88456769D01*
X117487677Y-88456771D01*
X117444949Y-88499500D01*
X117383626Y-88532984D01*
X117313934Y-88527999D01*
X117258001Y-88486127D01*
X117233585Y-88420663D01*
X117233269Y-88411760D01*
X117233915Y-87428911D01*
X117253643Y-87361888D01*
X117270224Y-87341325D01*
X117652126Y-86959423D01*
X117713445Y-86925941D01*
X117783137Y-86930925D01*
X117839070Y-86972797D01*
X117860771Y-87030835D01*
X117862605Y-87030568D01*
X117873178Y-87103139D01*
X117873179Y-87103141D01*
X117909185Y-87176794D01*
X117924555Y-87208233D01*
X118007266Y-87290944D01*
X118007267Y-87290944D01*
X118007269Y-87290946D01*
X118112359Y-87342321D01*
X118146425Y-87347284D01*
X118180491Y-87352248D01*
X118180492Y-87352248D01*
X118772013Y-87352248D01*
X118794723Y-87348939D01*
X118840145Y-87342321D01*
X118945235Y-87290946D01*
X119027950Y-87208231D01*
X119079325Y-87103141D01*
X119089252Y-87035008D01*
X119089252Y-86068488D01*
X119079325Y-86000355D01*
X119027950Y-85895265D01*
X119027948Y-85895263D01*
X119027948Y-85895262D01*
X118945237Y-85812551D01*
X118840143Y-85761174D01*
X118772013Y-85751248D01*
X118772012Y-85751248D01*
X118180492Y-85751248D01*
X118180491Y-85751248D01*
X118112360Y-85761174D01*
X118007266Y-85812551D01*
X117924555Y-85895262D01*
X117873178Y-86000356D01*
X117863252Y-86068487D01*
X117863252Y-86227248D01*
X117843567Y-86294287D01*
X117790763Y-86340042D01*
X117739252Y-86351248D01*
X117736370Y-86351248D01*
X117736368Y-86351248D01*
X117736366Y-86351249D01*
X117662681Y-86381769D01*
X117446198Y-86598251D01*
X117384875Y-86631735D01*
X117315183Y-86626751D01*
X117259250Y-86584879D01*
X117234833Y-86519415D01*
X117234517Y-86510512D01*
X117235782Y-84585158D01*
X117236815Y-83012167D01*
X117256544Y-82945140D01*
X117309378Y-82899420D01*
X117360815Y-82888248D01*
X118037755Y-82888248D01*
X118104794Y-82907933D01*
X118150549Y-82960737D01*
X118160493Y-83029895D01*
X118145143Y-83074243D01*
X118103045Y-83147161D01*
X118075752Y-83249021D01*
X118075752Y-83354475D01*
X118100618Y-83447275D01*
X118103045Y-83456334D01*
X118103046Y-83456337D01*
X118130901Y-83504583D01*
X118147374Y-83572483D01*
X118124521Y-83638510D01*
X118077975Y-83677983D01*
X118007268Y-83712550D01*
X118007267Y-83712550D01*
X117924555Y-83795262D01*
X117873178Y-83900356D01*
X117863252Y-83968487D01*
X117863252Y-84935008D01*
X117873178Y-85003139D01*
X117924555Y-85108233D01*
X118007266Y-85190944D01*
X118007267Y-85190944D01*
X118007269Y-85190946D01*
X118112359Y-85242321D01*
X118146425Y-85247284D01*
X118180491Y-85252248D01*
X118180492Y-85252248D01*
X118772013Y-85252248D01*
X118800797Y-85248054D01*
X118840145Y-85242321D01*
X118945235Y-85190946D01*
X119027950Y-85108231D01*
X119079325Y-85003141D01*
X119089252Y-84935008D01*
X119089252Y-83968488D01*
X119079325Y-83900355D01*
X119027950Y-83795265D01*
X119027948Y-83795263D01*
X119027948Y-83795262D01*
X118945236Y-83712550D01*
X118874528Y-83677983D01*
X118822946Y-83630855D01*
X118805032Y-83563321D01*
X118821601Y-83504585D01*
X118849459Y-83456335D01*
X118876752Y-83354475D01*
X118876752Y-83249021D01*
X118849459Y-83147161D01*
X118807361Y-83074245D01*
X118790889Y-83006349D01*
X118813741Y-82940322D01*
X118868662Y-82897131D01*
X118914749Y-82888248D01*
X120208840Y-82888248D01*
X120275879Y-82907933D01*
X120321634Y-82960737D01*
X120331578Y-83029895D01*
X120302553Y-83093451D01*
X120296521Y-83099929D01*
X120131277Y-83265172D01*
X120131276Y-83265173D01*
X120100752Y-83338864D01*
X120100752Y-83530126D01*
X120081067Y-83597165D01*
X120028263Y-83642920D01*
X119994630Y-83652830D01*
X119937360Y-83661174D01*
X119832266Y-83712551D01*
X119749555Y-83795262D01*
X119698178Y-83900356D01*
X119688252Y-83968487D01*
X119688252Y-84935008D01*
X119698178Y-85003139D01*
X119749555Y-85108233D01*
X119832266Y-85190944D01*
X119832267Y-85190944D01*
X119832269Y-85190946D01*
X119937359Y-85242321D01*
X119971425Y-85247284D01*
X120005491Y-85252248D01*
X120005492Y-85252248D01*
X120597013Y-85252248D01*
X120625797Y-85248054D01*
X120665145Y-85242321D01*
X120770235Y-85190946D01*
X120852950Y-85108231D01*
X120904325Y-85003141D01*
X120914252Y-84935008D01*
X120914252Y-83968488D01*
X120904325Y-83900355D01*
X120852950Y-83795265D01*
X120852948Y-83795263D01*
X120852948Y-83795262D01*
X120770237Y-83712551D01*
X120665143Y-83661174D01*
X120608106Y-83652863D01*
X120608105Y-83652864D01*
X120608103Y-83652863D01*
X120607874Y-83652830D01*
X120576372Y-83638372D01*
X120544549Y-83623839D01*
X120544483Y-83623736D01*
X120544373Y-83623686D01*
X120525652Y-83594434D01*
X120506775Y-83565061D01*
X120506752Y-83564903D01*
X120506709Y-83564836D01*
X120501752Y-83530126D01*
X120501752Y-83513160D01*
X120521437Y-83446121D01*
X120538071Y-83425479D01*
X120553546Y-83410004D01*
X120614869Y-83376519D01*
X120641227Y-83373685D01*
X122085830Y-83373685D01*
X122152869Y-83393370D01*
X122198624Y-83446174D01*
X122208568Y-83515332D01*
X122179543Y-83578888D01*
X122154722Y-83600785D01*
X122140673Y-83610173D01*
X122111898Y-83629399D01*
X122061791Y-83704391D01*
X122008179Y-83749196D01*
X121958689Y-83759500D01*
X121546368Y-83759500D01*
X121472677Y-83790024D01*
X121206276Y-84056425D01*
X121175752Y-84130116D01*
X121175752Y-86227248D01*
X121173201Y-86235933D01*
X121174490Y-86244895D01*
X121163511Y-86268935D01*
X121156067Y-86294287D01*
X121149226Y-86300214D01*
X121145465Y-86308451D01*
X121123230Y-86322740D01*
X121103263Y-86340042D01*
X121092748Y-86342329D01*
X121086687Y-86346225D01*
X121051752Y-86351248D01*
X121038252Y-86351248D01*
X120971213Y-86331563D01*
X120925458Y-86278759D01*
X120914252Y-86227248D01*
X120914252Y-86068487D01*
X120904325Y-86000356D01*
X120904325Y-86000355D01*
X120852950Y-85895265D01*
X120852948Y-85895263D01*
X120852948Y-85895262D01*
X120770237Y-85812551D01*
X120665143Y-85761174D01*
X120597013Y-85751248D01*
X120597012Y-85751248D01*
X120005492Y-85751248D01*
X120005491Y-85751248D01*
X119937360Y-85761174D01*
X119832266Y-85812551D01*
X119749555Y-85895262D01*
X119698178Y-86000356D01*
X119688252Y-86068487D01*
X119688252Y-87035008D01*
X119698178Y-87103139D01*
X119698179Y-87103141D01*
X119734185Y-87176794D01*
X119749555Y-87208233D01*
X119832266Y-87290944D01*
X119832267Y-87290944D01*
X119832269Y-87290946D01*
X119937359Y-87342321D01*
X119971425Y-87347284D01*
X120005491Y-87352248D01*
X120005492Y-87352248D01*
X120597013Y-87352248D01*
X120619723Y-87348939D01*
X120665145Y-87342321D01*
X120770235Y-87290946D01*
X120852950Y-87208231D01*
X120904325Y-87103141D01*
X120914252Y-87035008D01*
X120914252Y-86876248D01*
X120933937Y-86809209D01*
X120986741Y-86763454D01*
X121038252Y-86752248D01*
X121266132Y-86752248D01*
X121266134Y-86752248D01*
X121339826Y-86721724D01*
X121364071Y-86697479D01*
X121425394Y-86663994D01*
X121495086Y-86668978D01*
X121551019Y-86710850D01*
X121575436Y-86776314D01*
X121575752Y-86785160D01*
X121575752Y-88239336D01*
X121567107Y-88268776D01*
X121560584Y-88298763D01*
X121556829Y-88303778D01*
X121556067Y-88306375D01*
X121539433Y-88327017D01*
X121476521Y-88389929D01*
X121415198Y-88423414D01*
X121388840Y-88426248D01*
X121038252Y-88426248D01*
X120971213Y-88406563D01*
X120925458Y-88353759D01*
X120914252Y-88302248D01*
X120914252Y-88143487D01*
X120904325Y-88075356D01*
X120904325Y-88075355D01*
X120852950Y-87970265D01*
X120852948Y-87970263D01*
X120852948Y-87970262D01*
X120770237Y-87887551D01*
X120735317Y-87870480D01*
X120665145Y-87836175D01*
X120665143Y-87836174D01*
X120597013Y-87826248D01*
X120597012Y-87826248D01*
X120005492Y-87826248D01*
X120005491Y-87826248D01*
X119937360Y-87836174D01*
X119832266Y-87887551D01*
X119749555Y-87970262D01*
X119698178Y-88075356D01*
X119688252Y-88143487D01*
X119688252Y-89110008D01*
X119698178Y-89178139D01*
X119698179Y-89178141D01*
X119747446Y-89278920D01*
X119749555Y-89283233D01*
X119832266Y-89365944D01*
X119832267Y-89365944D01*
X119832269Y-89365946D01*
X119937359Y-89417321D01*
X119971425Y-89422284D01*
X120005491Y-89427248D01*
X120005492Y-89427248D01*
X120597013Y-89427248D01*
X120626950Y-89422886D01*
X120665145Y-89417321D01*
X120770235Y-89365946D01*
X120852950Y-89283231D01*
X120904325Y-89178141D01*
X120914252Y-89110008D01*
X120914252Y-88951248D01*
X120933937Y-88884209D01*
X120986741Y-88838454D01*
X121038252Y-88827248D01*
X121401752Y-88827248D01*
X121468791Y-88846933D01*
X121514546Y-88899737D01*
X121525752Y-88951248D01*
X121525752Y-90067310D01*
X121506067Y-90134349D01*
X121453263Y-90180104D01*
X121384105Y-90190048D01*
X121320549Y-90161023D01*
X121290352Y-90121771D01*
X121252949Y-90045263D01*
X121170237Y-89962551D01*
X121065143Y-89911174D01*
X120997013Y-89901248D01*
X120997012Y-89901248D01*
X120255492Y-89901248D01*
X120255491Y-89901248D01*
X120187360Y-89911174D01*
X120082266Y-89962551D01*
X119999555Y-90045262D01*
X119948178Y-90150356D01*
X119938252Y-90218487D01*
X119938252Y-91235008D01*
X119948178Y-91303139D01*
X119999555Y-91408233D01*
X120082266Y-91490944D01*
X120082267Y-91490944D01*
X120082269Y-91490946D01*
X120187359Y-91542321D01*
X120221425Y-91547284D01*
X120255491Y-91552248D01*
X120255492Y-91552248D01*
X120997013Y-91552248D01*
X121031078Y-91547284D01*
X121065145Y-91542321D01*
X121170235Y-91490946D01*
X121170236Y-91490944D01*
X121173981Y-91489114D01*
X121242854Y-91477354D01*
X121307151Y-91504697D01*
X121339247Y-91544851D01*
X121344936Y-91556176D01*
X121356045Y-91597635D01*
X121408772Y-91688961D01*
X121414536Y-91694725D01*
X121422353Y-91710285D01*
X121426587Y-91733566D01*
X121435118Y-91755635D01*
X121432723Y-91767305D01*
X121434856Y-91779027D01*
X121425831Y-91800902D01*
X121421077Y-91824080D01*
X121412754Y-91832602D01*
X121408211Y-91843616D01*
X121388795Y-91857137D01*
X121372262Y-91874068D01*
X121359001Y-91880509D01*
X121282079Y-91912370D01*
X121282077Y-91912371D01*
X121189151Y-92005297D01*
X121127828Y-92038781D01*
X121074826Y-92036514D01*
X121074674Y-92037563D01*
X120997013Y-92026248D01*
X120997012Y-92026248D01*
X120255492Y-92026248D01*
X120255491Y-92026248D01*
X120187360Y-92036174D01*
X120082266Y-92087551D01*
X119999555Y-92170262D01*
X119948178Y-92275356D01*
X119938252Y-92343487D01*
X119938252Y-93360008D01*
X119948178Y-93428139D01*
X119999555Y-93533233D01*
X120082266Y-93615944D01*
X120082267Y-93615944D01*
X120082269Y-93615946D01*
X120187359Y-93667321D01*
X120221425Y-93672284D01*
X120255491Y-93677248D01*
X120255492Y-93677248D01*
X120997013Y-93677248D01*
X121019723Y-93673939D01*
X121065145Y-93667321D01*
X121170235Y-93615946D01*
X121252950Y-93533231D01*
X121304325Y-93428141D01*
X121314252Y-93360008D01*
X121314252Y-92498660D01*
X121322896Y-92469219D01*
X121329420Y-92439233D01*
X121333174Y-92434217D01*
X121333937Y-92431621D01*
X121350571Y-92410979D01*
X121442383Y-92319167D01*
X121503706Y-92285682D01*
X121530064Y-92282848D01*
X122316410Y-92282848D01*
X122383449Y-92302533D01*
X122429204Y-92355337D01*
X122439148Y-92424495D01*
X122427811Y-92461308D01*
X122384278Y-92550356D01*
X122374352Y-92618487D01*
X122374352Y-93585008D01*
X122384278Y-93653139D01*
X122435655Y-93758233D01*
X122518366Y-93840944D01*
X122518367Y-93840944D01*
X122518369Y-93840946D01*
X122623459Y-93892321D01*
X122680733Y-93900665D01*
X122744230Y-93929808D01*
X122781894Y-93988657D01*
X122786852Y-94023369D01*
X122786852Y-94598783D01*
X122767167Y-94665822D01*
X122714363Y-94711577D01*
X122679035Y-94721722D01*
X122645780Y-94726099D01*
X122645769Y-94726102D01*
X122535755Y-94777402D01*
X122535749Y-94777406D01*
X122449906Y-94863249D01*
X122449902Y-94863255D01*
X122398602Y-94973270D01*
X122398599Y-94973281D01*
X122392001Y-95023398D01*
X122392000Y-95023415D01*
X122392000Y-96016592D01*
X122398599Y-96066719D01*
X122398602Y-96066730D01*
X122449902Y-96176744D01*
X122449905Y-96176748D01*
X122449906Y-96176750D01*
X122535750Y-96262594D01*
X122535751Y-96262594D01*
X122535755Y-96262597D01*
X122645770Y-96313897D01*
X122645771Y-96313897D01*
X122645777Y-96313900D01*
X122695909Y-96320500D01*
X123264090Y-96320499D01*
X123264092Y-96320499D01*
X123283865Y-96317896D01*
X123314223Y-96313900D01*
X123314228Y-96313897D01*
X123314230Y-96313897D01*
X123424244Y-96262597D01*
X123424245Y-96262596D01*
X123424250Y-96262594D01*
X123510094Y-96176750D01*
X123510094Y-96176749D01*
X123514071Y-96172773D01*
X123575394Y-96139288D01*
X123645086Y-96144272D01*
X123701019Y-96186144D01*
X123725436Y-96251608D01*
X123725752Y-96260454D01*
X123725752Y-96406135D01*
X123745425Y-96453630D01*
X123756276Y-96479826D01*
X124046426Y-96769976D01*
X124120118Y-96800500D01*
X124120120Y-96800500D01*
X127029880Y-96800500D01*
X127029882Y-96800500D01*
X127103574Y-96769976D01*
X127346228Y-96527322D01*
X127376752Y-96453630D01*
X127376752Y-96373866D01*
X127376752Y-95991247D01*
X127396437Y-95924208D01*
X127449241Y-95878453D01*
X127500752Y-95867247D01*
X127936147Y-95867247D01*
X127936150Y-95867247D01*
X127965465Y-95861417D01*
X127998709Y-95839205D01*
X128020921Y-95805961D01*
X128026752Y-95776647D01*
X128026751Y-95476850D01*
X128020921Y-95447535D01*
X128020921Y-95447534D01*
X128019650Y-95445632D01*
X128018154Y-95440855D01*
X128016248Y-95436252D01*
X128016660Y-95436081D01*
X127998776Y-95378954D01*
X128017264Y-95311575D01*
X128019632Y-95307889D01*
X128020921Y-95305961D01*
X128026752Y-95276647D01*
X128026751Y-95066547D01*
X128046435Y-94999509D01*
X128081861Y-94963445D01*
X128106492Y-94946987D01*
X128161746Y-94864292D01*
X128161748Y-94864288D01*
X128176251Y-94791376D01*
X128176252Y-94791374D01*
X128176252Y-94751748D01*
X126176252Y-94751748D01*
X126176252Y-94791376D01*
X126190755Y-94864288D01*
X126190756Y-94864291D01*
X126246011Y-94946986D01*
X126246013Y-94946988D01*
X126270641Y-94963444D01*
X126315447Y-95017056D01*
X126325752Y-95066546D01*
X126325752Y-95276642D01*
X126325753Y-95276650D01*
X126331582Y-95305960D01*
X126331583Y-95305963D01*
X126332854Y-95307865D01*
X126334347Y-95312637D01*
X126336256Y-95317244D01*
X126335843Y-95317414D01*
X126353727Y-95374543D01*
X126335238Y-95441922D01*
X126332855Y-95445629D01*
X126331586Y-95447527D01*
X126331581Y-95447539D01*
X126325752Y-95476846D01*
X126325752Y-95776642D01*
X126325753Y-95776650D01*
X126331582Y-95805960D01*
X126353794Y-95839205D01*
X126370471Y-95850347D01*
X126387039Y-95861417D01*
X126387042Y-95861417D01*
X126387043Y-95861418D01*
X126396899Y-95863378D01*
X126416353Y-95867248D01*
X126851752Y-95867247D01*
X126918791Y-95886931D01*
X126964546Y-95939735D01*
X126975752Y-95991247D01*
X126975752Y-96275500D01*
X126956067Y-96342539D01*
X126903263Y-96388294D01*
X126851752Y-96399500D01*
X125644977Y-96399500D01*
X125577938Y-96379815D01*
X125532183Y-96327011D01*
X125522239Y-96257853D01*
X125533613Y-96223678D01*
X125533461Y-96223622D01*
X125535050Y-96219359D01*
X125536145Y-96216072D01*
X125536561Y-96215309D01*
X125586175Y-96082288D01*
X125592499Y-96023463D01*
X125592500Y-96023462D01*
X125592500Y-95645000D01*
X124979000Y-95645000D01*
X124970314Y-95642449D01*
X124961353Y-95643738D01*
X124937312Y-95632759D01*
X124911961Y-95625315D01*
X124906033Y-95618474D01*
X124897797Y-95614713D01*
X124883507Y-95592478D01*
X124866206Y-95572511D01*
X124863918Y-95561996D01*
X124860023Y-95555935D01*
X124855000Y-95521000D01*
X124855000Y-95520000D01*
X124854000Y-95520000D01*
X124786961Y-95500315D01*
X124741206Y-95447511D01*
X124730000Y-95396000D01*
X124730000Y-94570000D01*
X124564036Y-94570000D01*
X124505211Y-94576324D01*
X124372190Y-94625938D01*
X124372183Y-94625942D01*
X124325062Y-94661217D01*
X124259598Y-94685634D01*
X124191325Y-94670782D01*
X124141920Y-94621376D01*
X124126752Y-94561950D01*
X124126752Y-93923692D01*
X124146437Y-93856653D01*
X124199241Y-93810898D01*
X124268399Y-93800954D01*
X124331955Y-93829979D01*
X124338433Y-93836011D01*
X124343366Y-93840944D01*
X124343367Y-93840944D01*
X124343369Y-93840946D01*
X124448459Y-93892321D01*
X124482525Y-93897284D01*
X124516591Y-93902248D01*
X125045679Y-93902248D01*
X125112718Y-93921933D01*
X125158473Y-93974737D01*
X125168417Y-94043895D01*
X125165456Y-94058328D01*
X125161252Y-94074021D01*
X125161252Y-94179475D01*
X125187894Y-94278903D01*
X125188545Y-94281334D01*
X125188546Y-94281337D01*
X125199948Y-94301086D01*
X125241272Y-94372661D01*
X125241273Y-94372662D01*
X125245336Y-94379699D01*
X125243570Y-94380718D01*
X125264819Y-94435688D01*
X125250778Y-94504132D01*
X125201962Y-94554120D01*
X125141249Y-94570000D01*
X124980000Y-94570000D01*
X124980000Y-95395000D01*
X125592500Y-95395000D01*
X125592500Y-95016538D01*
X125592499Y-95016536D01*
X125586175Y-94957711D01*
X125536561Y-94824690D01*
X125536557Y-94824684D01*
X125462353Y-94725558D01*
X125437936Y-94660094D01*
X125452788Y-94591821D01*
X125502193Y-94542416D01*
X125561620Y-94527248D01*
X125614477Y-94527248D01*
X125614479Y-94527248D01*
X125716339Y-94499955D01*
X125807665Y-94447228D01*
X125882232Y-94372661D01*
X125882233Y-94372658D01*
X125884235Y-94370657D01*
X125884515Y-94370045D01*
X125885446Y-94369446D01*
X125887979Y-94366914D01*
X125888529Y-94367464D01*
X125910928Y-94353070D01*
X125936275Y-94334561D01*
X125941015Y-94333734D01*
X125943293Y-94332271D01*
X125978228Y-94327248D01*
X126052723Y-94327248D01*
X126119762Y-94346933D01*
X126165517Y-94399737D01*
X126174899Y-94456032D01*
X126176252Y-94456032D01*
X126176252Y-94501748D01*
X128176252Y-94501748D01*
X128176252Y-94462121D01*
X128176251Y-94462119D01*
X128161748Y-94389207D01*
X128161746Y-94389203D01*
X128106491Y-94306507D01*
X128081859Y-94290048D01*
X128037054Y-94236435D01*
X128026751Y-94186950D01*
X128026751Y-93976850D01*
X128020921Y-93947535D01*
X128020921Y-93947534D01*
X128019650Y-93945632D01*
X128018154Y-93940855D01*
X128016248Y-93936252D01*
X128016660Y-93936081D01*
X127998776Y-93878954D01*
X128017264Y-93811575D01*
X128019632Y-93807889D01*
X128020921Y-93805961D01*
X128026752Y-93776647D01*
X128026751Y-93476850D01*
X128026468Y-93475426D01*
X128026535Y-93474669D01*
X128026154Y-93470792D01*
X128026889Y-93470719D01*
X128032703Y-93405836D01*
X128075571Y-93350663D01*
X128141463Y-93327425D01*
X128148088Y-93327248D01*
X130332040Y-93327248D01*
X130399079Y-93346933D01*
X130444834Y-93399737D01*
X130454778Y-93468895D01*
X130425753Y-93532451D01*
X130419721Y-93538929D01*
X128556277Y-95402372D01*
X128556276Y-95402373D01*
X128525752Y-95476064D01*
X128525752Y-96298781D01*
X128506067Y-96365820D01*
X128504857Y-96367668D01*
X128491583Y-96387534D01*
X128491581Y-96387539D01*
X128485752Y-96416846D01*
X128485752Y-97936642D01*
X128485753Y-97936650D01*
X128491582Y-97965960D01*
X128513794Y-97999205D01*
X128530471Y-98010347D01*
X128547039Y-98021417D01*
X128547042Y-98021417D01*
X128547043Y-98021418D01*
X128556899Y-98023378D01*
X128576353Y-98027248D01*
X128786451Y-98027247D01*
X128853490Y-98046931D01*
X128889553Y-98082356D01*
X128906009Y-98106985D01*
X128906012Y-98106988D01*
X128988707Y-98162242D01*
X128988711Y-98162244D01*
X129061623Y-98176747D01*
X129061626Y-98176748D01*
X129101252Y-98176748D01*
X129101252Y-97051748D01*
X129351252Y-97051748D01*
X129361752Y-97051748D01*
X129370407Y-97054289D01*
X129379338Y-97053001D01*
X129403413Y-97063981D01*
X129428791Y-97071433D01*
X129434697Y-97078249D01*
X129442908Y-97081994D01*
X129457225Y-97104247D01*
X129474546Y-97124237D01*
X129476828Y-97134718D01*
X129480712Y-97140754D01*
X129485752Y-97175686D01*
X129485753Y-97177686D01*
X129466102Y-97244735D01*
X129413321Y-97290517D01*
X129361753Y-97301748D01*
X129351252Y-97301748D01*
X129351252Y-98176748D01*
X129390878Y-98176748D01*
X129390880Y-98176747D01*
X129463792Y-98162244D01*
X129463795Y-98162243D01*
X129546492Y-98106987D01*
X129562950Y-98082357D01*
X129569041Y-98077265D01*
X129572340Y-98070044D01*
X129595465Y-98055182D01*
X129616562Y-98037551D01*
X129625938Y-98035598D01*
X129631118Y-98032270D01*
X129666048Y-98027247D01*
X129786452Y-98027247D01*
X129853490Y-98046932D01*
X129889553Y-98082356D01*
X129906009Y-98106985D01*
X129906012Y-98106988D01*
X129988707Y-98162242D01*
X129988711Y-98162244D01*
X130061623Y-98176747D01*
X130061626Y-98176748D01*
X130101252Y-98176748D01*
X130351252Y-98176748D01*
X130390878Y-98176748D01*
X130390880Y-98176747D01*
X130463792Y-98162244D01*
X130463795Y-98162243D01*
X130546492Y-98106987D01*
X130562950Y-98082357D01*
X130616562Y-98037551D01*
X130666049Y-98027247D01*
X130876150Y-98027247D01*
X130905465Y-98021417D01*
X130907363Y-98020149D01*
X130912132Y-98018655D01*
X130916748Y-98016744D01*
X130916919Y-98017156D01*
X130974040Y-97999272D01*
X131041420Y-98017757D01*
X131045139Y-98020148D01*
X131046272Y-98020904D01*
X131047039Y-98021417D01*
X131047042Y-98021417D01*
X131047043Y-98021418D01*
X131056899Y-98023378D01*
X131076353Y-98027248D01*
X131376150Y-98027247D01*
X131405465Y-98021417D01*
X131407363Y-98020149D01*
X131412132Y-98018655D01*
X131416748Y-98016744D01*
X131416919Y-98017156D01*
X131474040Y-97999272D01*
X131541420Y-98017757D01*
X131545139Y-98020148D01*
X131546272Y-98020904D01*
X131547039Y-98021417D01*
X131547042Y-98021417D01*
X131547043Y-98021418D01*
X131556899Y-98023378D01*
X131576353Y-98027248D01*
X131876150Y-98027247D01*
X131905465Y-98021417D01*
X131907363Y-98020149D01*
X131912132Y-98018655D01*
X131916748Y-98016744D01*
X131916919Y-98017156D01*
X131974040Y-97999272D01*
X132041420Y-98017757D01*
X132045139Y-98020148D01*
X132046272Y-98020904D01*
X132047039Y-98021417D01*
X132047042Y-98021417D01*
X132047043Y-98021418D01*
X132056899Y-98023378D01*
X132076353Y-98027248D01*
X132376150Y-98027247D01*
X132405465Y-98021417D01*
X132407363Y-98020149D01*
X132412132Y-98018655D01*
X132416748Y-98016744D01*
X132416919Y-98017156D01*
X132474040Y-97999272D01*
X132541420Y-98017757D01*
X132545139Y-98020148D01*
X132546272Y-98020904D01*
X132547039Y-98021417D01*
X132547042Y-98021417D01*
X132547043Y-98021418D01*
X132556899Y-98023378D01*
X132576353Y-98027248D01*
X132786451Y-98027247D01*
X132853490Y-98046931D01*
X132889553Y-98082356D01*
X132906009Y-98106985D01*
X132906012Y-98106988D01*
X132988707Y-98162242D01*
X132988711Y-98162244D01*
X133061623Y-98176747D01*
X133061626Y-98176748D01*
X133101252Y-98176748D01*
X133351252Y-98176748D01*
X133390877Y-98176748D01*
X133452059Y-98164577D01*
X133500445Y-98164577D01*
X133561627Y-98176748D01*
X133601252Y-98176748D01*
X133851252Y-98176748D01*
X133890877Y-98176748D01*
X133952059Y-98164577D01*
X134000445Y-98164577D01*
X134061627Y-98176748D01*
X134101252Y-98176748D01*
X134351252Y-98176748D01*
X134390878Y-98176748D01*
X134390880Y-98176747D01*
X134463792Y-98162244D01*
X134463796Y-98162242D01*
X134546491Y-98106987D01*
X134601746Y-98024292D01*
X134601748Y-98024288D01*
X134616251Y-97951376D01*
X134616252Y-97951374D01*
X134616252Y-97301748D01*
X134351252Y-97301748D01*
X134351252Y-98176748D01*
X134101252Y-98176748D01*
X134101252Y-97301748D01*
X133851252Y-97301748D01*
X133851252Y-98176748D01*
X133601252Y-98176748D01*
X133601252Y-97301748D01*
X133351252Y-97301748D01*
X133351252Y-98176748D01*
X133101252Y-98176748D01*
X133101252Y-97051748D01*
X133351252Y-97051748D01*
X133601252Y-97051748D01*
X133851252Y-97051748D01*
X134101252Y-97051748D01*
X134351252Y-97051748D01*
X134616252Y-97051748D01*
X134616252Y-96402121D01*
X134616251Y-96402119D01*
X134601748Y-96329207D01*
X134601746Y-96329203D01*
X134546491Y-96246508D01*
X134463796Y-96191253D01*
X134463792Y-96191251D01*
X134390879Y-96176748D01*
X134351252Y-96176748D01*
X134351252Y-97051748D01*
X134101252Y-97051748D01*
X134101252Y-96176748D01*
X134061628Y-96176748D01*
X134000442Y-96188918D01*
X133952062Y-96188918D01*
X133890876Y-96176748D01*
X133851252Y-96176748D01*
X133851252Y-97051748D01*
X133601252Y-97051748D01*
X133601252Y-96176748D01*
X133561628Y-96176748D01*
X133500442Y-96188918D01*
X133452062Y-96188918D01*
X133390876Y-96176748D01*
X133351252Y-96176748D01*
X133351252Y-97051748D01*
X133101252Y-97051748D01*
X133101252Y-96176748D01*
X133061625Y-96176748D01*
X132988711Y-96191251D01*
X132988707Y-96191253D01*
X132906012Y-96246507D01*
X132906008Y-96246512D01*
X132889552Y-96271140D01*
X132835939Y-96315945D01*
X132786452Y-96326248D01*
X132576357Y-96326248D01*
X132576349Y-96326249D01*
X132547039Y-96332078D01*
X132547037Y-96332079D01*
X132545131Y-96333353D01*
X132540348Y-96334849D01*
X132535756Y-96336752D01*
X132535585Y-96336340D01*
X132478451Y-96354223D01*
X132411073Y-96335731D01*
X132407366Y-96333349D01*
X132405467Y-96332080D01*
X132405460Y-96332077D01*
X132376153Y-96326248D01*
X132076357Y-96326248D01*
X132076349Y-96326249D01*
X132047039Y-96332078D01*
X132047037Y-96332079D01*
X132045131Y-96333353D01*
X132040348Y-96334849D01*
X132035756Y-96336752D01*
X132035585Y-96336340D01*
X131978451Y-96354223D01*
X131911073Y-96335731D01*
X131907366Y-96333349D01*
X131905467Y-96332080D01*
X131905460Y-96332077D01*
X131876153Y-96326248D01*
X131576357Y-96326248D01*
X131576349Y-96326249D01*
X131547039Y-96332078D01*
X131547037Y-96332079D01*
X131545131Y-96333353D01*
X131540348Y-96334849D01*
X131535756Y-96336752D01*
X131535585Y-96336340D01*
X131478451Y-96354223D01*
X131411073Y-96335731D01*
X131407366Y-96333349D01*
X131405467Y-96332080D01*
X131405460Y-96332077D01*
X131376153Y-96326248D01*
X131076357Y-96326248D01*
X131076349Y-96326249D01*
X131047039Y-96332078D01*
X131047037Y-96332079D01*
X131045131Y-96333353D01*
X131040348Y-96334849D01*
X131035756Y-96336752D01*
X131035585Y-96336340D01*
X130978451Y-96354223D01*
X130911073Y-96335731D01*
X130907366Y-96333349D01*
X130905467Y-96332080D01*
X130905460Y-96332077D01*
X130876153Y-96326248D01*
X130666052Y-96326248D01*
X130599013Y-96306563D01*
X130562949Y-96271138D01*
X130546492Y-96246509D01*
X130546491Y-96246507D01*
X130463796Y-96191253D01*
X130463792Y-96191251D01*
X130390879Y-96176748D01*
X130351252Y-96176748D01*
X130351252Y-98176748D01*
X130101252Y-98176748D01*
X130101252Y-97301748D01*
X130090752Y-97301748D01*
X130082096Y-97299206D01*
X130073166Y-97300495D01*
X130049090Y-97289514D01*
X130023713Y-97282063D01*
X130017806Y-97275246D01*
X130009596Y-97271502D01*
X129995278Y-97249248D01*
X129977958Y-97229259D01*
X129975675Y-97218777D01*
X129971792Y-97212742D01*
X129966752Y-97177810D01*
X129966751Y-97175810D01*
X129986402Y-97108761D01*
X130039183Y-97062979D01*
X130090751Y-97051748D01*
X130101252Y-97051748D01*
X130101252Y-96176748D01*
X130061625Y-96176748D01*
X129988711Y-96191251D01*
X129988707Y-96191253D01*
X129906012Y-96246507D01*
X129906011Y-96246509D01*
X129889555Y-96271138D01*
X129883463Y-96276229D01*
X129880165Y-96283451D01*
X129857039Y-96298312D01*
X129835943Y-96315944D01*
X129826566Y-96317896D01*
X129821387Y-96321225D01*
X129786452Y-96326248D01*
X129666052Y-96326248D01*
X129599013Y-96306563D01*
X129562949Y-96271138D01*
X129546492Y-96246509D01*
X129546491Y-96246507D01*
X129463796Y-96191253D01*
X129463792Y-96191251D01*
X129390879Y-96176748D01*
X129351252Y-96176748D01*
X129351252Y-97051748D01*
X129101252Y-97051748D01*
X129101252Y-96176748D01*
X129055536Y-96176748D01*
X129055536Y-96175224D01*
X128994256Y-96163601D01*
X128943547Y-96115534D01*
X128926752Y-96053219D01*
X128926752Y-95650360D01*
X128946437Y-95583321D01*
X128963071Y-95562679D01*
X133664071Y-90861679D01*
X133725394Y-90828194D01*
X133795086Y-90833178D01*
X133851019Y-90875050D01*
X133875436Y-90940514D01*
X133875752Y-90949360D01*
X133875752Y-90954475D01*
X133903045Y-91056335D01*
X133955772Y-91147661D01*
X134030339Y-91222228D01*
X134121665Y-91274955D01*
X134223525Y-91302248D01*
X134223527Y-91302248D01*
X134328974Y-91302248D01*
X134328979Y-91302248D01*
X134332057Y-91301423D01*
X134334755Y-91301487D01*
X134337035Y-91301187D01*
X134337081Y-91301542D01*
X134401902Y-91303081D01*
X134411585Y-91306626D01*
X134461370Y-91327248D01*
X134652723Y-91327248D01*
X134719762Y-91346933D01*
X134765517Y-91399737D01*
X134774899Y-91456032D01*
X134776252Y-91456032D01*
X134776252Y-91501748D01*
X135652252Y-91501748D01*
X135660937Y-91504298D01*
X135669899Y-91503010D01*
X135693939Y-91513988D01*
X135719291Y-91521433D01*
X135725218Y-91528273D01*
X135733455Y-91532035D01*
X135747744Y-91554269D01*
X135765046Y-91574237D01*
X135767333Y-91584751D01*
X135771229Y-91590813D01*
X135776252Y-91625748D01*
X135776252Y-91627748D01*
X135756567Y-91694787D01*
X135703763Y-91740542D01*
X135652252Y-91751748D01*
X134776252Y-91751748D01*
X134776252Y-91791376D01*
X134790755Y-91864288D01*
X134790756Y-91864291D01*
X134846011Y-91946986D01*
X134846013Y-91946988D01*
X134870641Y-91963444D01*
X134915447Y-92017056D01*
X134925752Y-92066546D01*
X134925753Y-92276640D01*
X134925753Y-92276650D01*
X134931582Y-92305960D01*
X134931583Y-92305963D01*
X134932854Y-92307865D01*
X134934347Y-92312637D01*
X134936256Y-92317244D01*
X134935843Y-92317414D01*
X134953727Y-92374543D01*
X134935238Y-92441922D01*
X134932855Y-92445629D01*
X134931586Y-92447527D01*
X134931581Y-92447539D01*
X134925752Y-92476846D01*
X134925752Y-92776642D01*
X134925753Y-92776648D01*
X134926036Y-92778069D01*
X134925968Y-92778826D01*
X134926350Y-92782704D01*
X134925614Y-92782776D01*
X134924156Y-92799047D01*
X134927154Y-92819895D01*
X134921101Y-92833149D01*
X134919801Y-92847660D01*
X134906878Y-92864291D01*
X134898129Y-92883451D01*
X134885872Y-92891327D01*
X134876933Y-92902833D01*
X134857069Y-92909838D01*
X134839351Y-92921225D01*
X134814753Y-92924761D01*
X134811041Y-92926071D01*
X134804416Y-92926248D01*
X134694004Y-92926248D01*
X134626965Y-92906563D01*
X134606323Y-92889930D01*
X134576393Y-92860000D01*
X134545913Y-92829520D01*
X134456797Y-92778069D01*
X134454589Y-92776794D01*
X134454588Y-92776793D01*
X134454587Y-92776793D01*
X134352727Y-92749500D01*
X134247273Y-92749500D01*
X134145413Y-92776793D01*
X134145410Y-92776794D01*
X134054085Y-92829521D01*
X133979521Y-92904085D01*
X133926794Y-92995410D01*
X133926793Y-92995413D01*
X133899500Y-93097273D01*
X133899500Y-93202727D01*
X133926167Y-93302248D01*
X133926793Y-93304586D01*
X133926794Y-93304589D01*
X133940922Y-93329059D01*
X133979520Y-93395913D01*
X134054087Y-93470480D01*
X134145413Y-93523207D01*
X134247273Y-93550500D01*
X134247275Y-93550500D01*
X134352725Y-93550500D01*
X134352727Y-93550500D01*
X134454587Y-93523207D01*
X134545913Y-93470480D01*
X134620480Y-93395913D01*
X134624328Y-93389247D01*
X134633015Y-93380964D01*
X134638002Y-93370045D01*
X134657833Y-93357300D01*
X134674895Y-93341032D01*
X134688151Y-93337816D01*
X134696780Y-93332271D01*
X134731715Y-93327248D01*
X134804415Y-93327248D01*
X134871454Y-93346933D01*
X134917209Y-93399737D01*
X134927153Y-93468895D01*
X134926035Y-93475427D01*
X134925752Y-93476849D01*
X134925752Y-93476850D01*
X134925752Y-93776642D01*
X134925753Y-93776650D01*
X134931582Y-93805960D01*
X134931583Y-93805963D01*
X134932854Y-93807865D01*
X134934347Y-93812637D01*
X134936256Y-93817244D01*
X134935843Y-93817414D01*
X134953727Y-93874543D01*
X134935238Y-93941922D01*
X134932855Y-93945629D01*
X134931586Y-93947527D01*
X134931581Y-93947539D01*
X134925752Y-93976846D01*
X134925752Y-94276642D01*
X134925753Y-94276650D01*
X134931582Y-94305960D01*
X134931583Y-94305963D01*
X134932854Y-94307865D01*
X134934347Y-94312637D01*
X134936256Y-94317244D01*
X134935843Y-94317414D01*
X134953727Y-94374543D01*
X134935238Y-94441922D01*
X134932855Y-94445629D01*
X134931586Y-94447527D01*
X134931581Y-94447539D01*
X134925752Y-94476846D01*
X134925752Y-94776642D01*
X134925753Y-94776650D01*
X134931582Y-94805960D01*
X134931583Y-94805963D01*
X134932854Y-94807865D01*
X134934347Y-94812637D01*
X134936256Y-94817244D01*
X134935843Y-94817414D01*
X134953727Y-94874543D01*
X134935238Y-94941922D01*
X134932855Y-94945629D01*
X134931586Y-94947527D01*
X134931581Y-94947539D01*
X134925752Y-94976846D01*
X134925752Y-95276642D01*
X134925753Y-95276650D01*
X134931582Y-95305960D01*
X134931583Y-95305963D01*
X134932854Y-95307865D01*
X134934347Y-95312637D01*
X134936256Y-95317244D01*
X134935843Y-95317414D01*
X134953727Y-95374543D01*
X134935238Y-95441922D01*
X134932855Y-95445629D01*
X134931586Y-95447527D01*
X134931581Y-95447539D01*
X134925752Y-95476846D01*
X134925752Y-95776642D01*
X134925753Y-95776650D01*
X134931582Y-95805960D01*
X134953794Y-95839205D01*
X134970471Y-95850347D01*
X134987039Y-95861417D01*
X134987042Y-95861417D01*
X134987043Y-95861418D01*
X134996899Y-95863378D01*
X135016353Y-95867248D01*
X136536150Y-95867247D01*
X136565465Y-95861417D01*
X136598709Y-95839205D01*
X136620921Y-95805961D01*
X136626752Y-95776647D01*
X136626751Y-95476850D01*
X136626468Y-95475426D01*
X136626535Y-95474669D01*
X136626154Y-95470792D01*
X136626889Y-95470719D01*
X136632703Y-95405836D01*
X136675571Y-95350663D01*
X136741463Y-95327425D01*
X136748088Y-95327248D01*
X137408394Y-95327248D01*
X137475433Y-95346933D01*
X137519794Y-95396787D01*
X137539004Y-95436081D01*
X137562055Y-95483233D01*
X137644766Y-95565944D01*
X137644767Y-95565944D01*
X137644769Y-95565946D01*
X137749859Y-95617321D01*
X137783925Y-95622284D01*
X137817991Y-95627248D01*
X137817992Y-95627248D01*
X138384513Y-95627248D01*
X138407223Y-95623939D01*
X138452645Y-95617321D01*
X138557735Y-95565946D01*
X138640450Y-95483231D01*
X138691825Y-95378141D01*
X138699627Y-95324592D01*
X139251252Y-95324592D01*
X139257653Y-95384120D01*
X139257655Y-95384127D01*
X139307897Y-95518834D01*
X139307901Y-95518841D01*
X139394061Y-95633935D01*
X139394064Y-95633938D01*
X139509158Y-95720098D01*
X139509165Y-95720102D01*
X139643872Y-95770344D01*
X139643879Y-95770346D01*
X139703407Y-95776747D01*
X139703424Y-95776748D01*
X139876252Y-95776748D01*
X140126252Y-95776748D01*
X140299080Y-95776748D01*
X140299096Y-95776747D01*
X140358624Y-95770346D01*
X140358631Y-95770344D01*
X140493338Y-95720102D01*
X140493345Y-95720098D01*
X140608439Y-95633938D01*
X140608442Y-95633935D01*
X140694602Y-95518841D01*
X140694606Y-95518834D01*
X140744848Y-95384127D01*
X140744850Y-95384120D01*
X140751251Y-95324592D01*
X140751252Y-95324575D01*
X140751252Y-94926748D01*
X140126252Y-94926748D01*
X140126252Y-95776748D01*
X139876252Y-95776748D01*
X139876252Y-94926748D01*
X139251252Y-94926748D01*
X139251252Y-95324592D01*
X138699627Y-95324592D01*
X138701752Y-95310008D01*
X138701752Y-94293488D01*
X138701752Y-94293485D01*
X138701751Y-94293477D01*
X138701749Y-94293463D01*
X138699627Y-94278903D01*
X139251252Y-94278903D01*
X139251252Y-94676748D01*
X139876252Y-94676748D01*
X140126252Y-94676748D01*
X140751252Y-94676748D01*
X140751252Y-94278920D01*
X140751251Y-94278903D01*
X140744850Y-94219375D01*
X140744848Y-94219368D01*
X140694606Y-94084661D01*
X140694602Y-94084654D01*
X140608442Y-93969560D01*
X140608439Y-93969557D01*
X140493345Y-93883397D01*
X140493338Y-93883393D01*
X140358631Y-93833151D01*
X140358624Y-93833149D01*
X140299096Y-93826748D01*
X140126252Y-93826748D01*
X140126252Y-94676748D01*
X139876252Y-94676748D01*
X139876252Y-93826748D01*
X139703407Y-93826748D01*
X139643879Y-93833149D01*
X139643872Y-93833151D01*
X139509165Y-93883393D01*
X139509158Y-93883397D01*
X139394064Y-93969557D01*
X139394061Y-93969560D01*
X139307901Y-94084654D01*
X139307897Y-94084661D01*
X139257655Y-94219368D01*
X139257653Y-94219375D01*
X139251252Y-94278903D01*
X138699627Y-94278903D01*
X138691825Y-94225356D01*
X138691825Y-94225355D01*
X138640450Y-94120265D01*
X138640448Y-94120263D01*
X138640448Y-94120262D01*
X138557737Y-94037551D01*
X138452643Y-93986174D01*
X138384513Y-93976248D01*
X138384512Y-93976248D01*
X137817992Y-93976248D01*
X137817991Y-93976248D01*
X137749860Y-93986174D01*
X137678960Y-94020835D01*
X137610087Y-94032593D01*
X137545790Y-94005250D01*
X137506483Y-93947485D01*
X137500500Y-93909434D01*
X137500500Y-93194061D01*
X137520185Y-93127022D01*
X137572989Y-93081267D01*
X137642147Y-93071323D01*
X137678959Y-93082660D01*
X137749857Y-93117320D01*
X137749859Y-93117321D01*
X137817991Y-93127248D01*
X137817992Y-93127248D01*
X138384513Y-93127248D01*
X138407223Y-93123939D01*
X138452645Y-93117321D01*
X138557735Y-93065946D01*
X138640450Y-92983231D01*
X138691825Y-92878141D01*
X138701752Y-92810008D01*
X138701752Y-91793488D01*
X138697355Y-91763313D01*
X138693509Y-91736916D01*
X138691825Y-91725355D01*
X138640450Y-91620265D01*
X138640448Y-91620263D01*
X138640448Y-91620262D01*
X138557737Y-91537551D01*
X138452643Y-91486174D01*
X138384513Y-91476248D01*
X138384512Y-91476248D01*
X137817992Y-91476248D01*
X137817991Y-91476248D01*
X137749860Y-91486174D01*
X137644766Y-91537551D01*
X137562055Y-91620262D01*
X137510678Y-91725356D01*
X137500752Y-91793487D01*
X137500752Y-91979707D01*
X137481067Y-92046746D01*
X137430518Y-92091444D01*
X137413776Y-92099500D01*
X137410118Y-92099500D01*
X137336426Y-92130024D01*
X137323520Y-92142929D01*
X137304518Y-92152073D01*
X137290012Y-92154456D01*
X137277110Y-92161502D01*
X137256228Y-92160008D01*
X137235573Y-92163403D01*
X137222082Y-92157566D01*
X137207418Y-92156518D01*
X137190660Y-92143972D01*
X137171447Y-92135661D01*
X137163251Y-92123454D01*
X137151485Y-92114646D01*
X137144170Y-92095035D01*
X137132500Y-92077653D01*
X137132204Y-92062954D01*
X137127068Y-92049182D01*
X137126752Y-92040336D01*
X137126752Y-90158159D01*
X137146437Y-90091120D01*
X137163071Y-90070478D01*
X137194982Y-90038567D01*
X137256305Y-90005082D01*
X137282663Y-90002248D01*
X137376752Y-90002248D01*
X137443791Y-90021933D01*
X137489546Y-90074737D01*
X137500752Y-90126248D01*
X137500752Y-90310008D01*
X137510678Y-90378139D01*
X137562055Y-90483233D01*
X137644766Y-90565944D01*
X137644767Y-90565944D01*
X137644769Y-90565946D01*
X137749859Y-90617321D01*
X137783925Y-90622284D01*
X137817991Y-90627248D01*
X137817992Y-90627248D01*
X138384513Y-90627248D01*
X138407223Y-90623939D01*
X138452645Y-90617321D01*
X138557735Y-90565946D01*
X138640450Y-90483231D01*
X138691825Y-90378141D01*
X138699627Y-90324592D01*
X139251252Y-90324592D01*
X139257653Y-90384120D01*
X139257655Y-90384127D01*
X139307897Y-90518834D01*
X139307901Y-90518841D01*
X139394061Y-90633935D01*
X139394064Y-90633938D01*
X139509158Y-90720098D01*
X139509165Y-90720102D01*
X139643872Y-90770344D01*
X139643879Y-90770346D01*
X139703407Y-90776747D01*
X139703424Y-90776748D01*
X139876252Y-90776748D01*
X140126252Y-90776748D01*
X140299080Y-90776748D01*
X140299096Y-90776747D01*
X140358624Y-90770346D01*
X140358631Y-90770344D01*
X140493338Y-90720102D01*
X140493345Y-90720098D01*
X140608439Y-90633938D01*
X140608442Y-90633935D01*
X140694602Y-90518841D01*
X140694606Y-90518834D01*
X140744848Y-90384127D01*
X140744850Y-90384120D01*
X140751251Y-90324592D01*
X140751252Y-90324575D01*
X140751252Y-90034628D01*
X142200000Y-90034628D01*
X142214503Y-90107540D01*
X142214505Y-90107544D01*
X142269760Y-90190239D01*
X142352455Y-90245494D01*
X142352459Y-90245496D01*
X142425371Y-90259999D01*
X142425374Y-90260000D01*
X144075000Y-90260000D01*
X144325000Y-90260000D01*
X145974626Y-90260000D01*
X145974628Y-90259999D01*
X146047540Y-90245496D01*
X146047544Y-90245494D01*
X146130239Y-90190239D01*
X146185494Y-90107544D01*
X146185496Y-90107540D01*
X146199999Y-90034628D01*
X146200000Y-90034626D01*
X146200000Y-89635000D01*
X144325000Y-89635000D01*
X144325000Y-90260000D01*
X144075000Y-90260000D01*
X144075000Y-89635000D01*
X142200000Y-89635000D01*
X142200000Y-90034628D01*
X140751252Y-90034628D01*
X140751252Y-89926748D01*
X140126252Y-89926748D01*
X140126252Y-90776748D01*
X139876252Y-90776748D01*
X139876252Y-89926748D01*
X139251252Y-89926748D01*
X139251252Y-90324592D01*
X138699627Y-90324592D01*
X138701752Y-90310008D01*
X138701752Y-89293488D01*
X138701752Y-89293485D01*
X138701751Y-89293477D01*
X138701749Y-89293463D01*
X138699627Y-89278903D01*
X139251252Y-89278903D01*
X139251252Y-89676748D01*
X139876252Y-89676748D01*
X140126252Y-89676748D01*
X140751252Y-89676748D01*
X140751252Y-89278920D01*
X140751251Y-89278903D01*
X140744850Y-89219375D01*
X140744848Y-89219368D01*
X140694606Y-89084661D01*
X140694604Y-89084658D01*
X140671351Y-89053596D01*
X140671350Y-89053594D01*
X140620278Y-88985371D01*
X142200000Y-88985371D01*
X142200000Y-89385000D01*
X144075000Y-89385000D01*
X144325000Y-89385000D01*
X146200000Y-89385000D01*
X146200000Y-88985373D01*
X146199999Y-88985371D01*
X146185496Y-88912459D01*
X146185494Y-88912455D01*
X146130239Y-88829760D01*
X146047544Y-88774505D01*
X146047540Y-88774503D01*
X145974627Y-88760000D01*
X144325000Y-88760000D01*
X144325000Y-89385000D01*
X144075000Y-89385000D01*
X144075000Y-88760000D01*
X142425373Y-88760000D01*
X142352459Y-88774503D01*
X142352455Y-88774505D01*
X142269760Y-88829760D01*
X142214505Y-88912455D01*
X142214503Y-88912459D01*
X142200000Y-88985371D01*
X140620278Y-88985371D01*
X140608442Y-88969560D01*
X140608439Y-88969557D01*
X140493345Y-88883397D01*
X140493338Y-88883393D01*
X140358631Y-88833151D01*
X140358624Y-88833149D01*
X140299096Y-88826748D01*
X140126252Y-88826748D01*
X140126252Y-89676748D01*
X139876252Y-89676748D01*
X139876252Y-88826748D01*
X139703407Y-88826748D01*
X139643879Y-88833149D01*
X139643872Y-88833151D01*
X139509165Y-88883393D01*
X139509158Y-88883397D01*
X139394064Y-88969557D01*
X139394061Y-88969560D01*
X139307901Y-89084654D01*
X139307897Y-89084661D01*
X139257655Y-89219368D01*
X139257653Y-89219375D01*
X139251252Y-89278903D01*
X138699627Y-89278903D01*
X138691825Y-89225356D01*
X138691825Y-89225355D01*
X138640450Y-89120265D01*
X138640448Y-89120263D01*
X138640448Y-89120262D01*
X138557737Y-89037551D01*
X138452643Y-88986174D01*
X138384513Y-88976248D01*
X138384512Y-88976248D01*
X137817992Y-88976248D01*
X137817991Y-88976248D01*
X137749860Y-88986174D01*
X137644766Y-89037551D01*
X137562055Y-89120262D01*
X137510678Y-89225356D01*
X137500753Y-89293477D01*
X137500752Y-89293485D01*
X137500752Y-89477248D01*
X137481067Y-89544287D01*
X137428263Y-89590042D01*
X137376752Y-89601248D01*
X137108368Y-89601248D01*
X137095031Y-89606773D01*
X137034677Y-89631772D01*
X137034676Y-89631773D01*
X136978276Y-89688174D01*
X136978275Y-89688175D01*
X136870434Y-89796013D01*
X136809110Y-89829498D01*
X136739419Y-89824512D01*
X136713864Y-89811433D01*
X136623799Y-89751254D01*
X136623792Y-89751251D01*
X136550879Y-89736748D01*
X135901252Y-89736748D01*
X135901252Y-90002748D01*
X135898701Y-90011433D01*
X135899990Y-90020395D01*
X135889011Y-90044435D01*
X135881567Y-90069787D01*
X135874726Y-90075714D01*
X135870965Y-90083951D01*
X135848730Y-90098240D01*
X135828763Y-90115542D01*
X135818248Y-90117829D01*
X135812187Y-90121725D01*
X135777252Y-90126748D01*
X135776252Y-90126748D01*
X135776252Y-90127748D01*
X135756567Y-90194787D01*
X135703763Y-90240542D01*
X135652252Y-90251748D01*
X134776252Y-90251748D01*
X134776252Y-90297464D01*
X134774729Y-90297464D01*
X134763105Y-90358744D01*
X134715038Y-90409453D01*
X134652723Y-90426248D01*
X134591134Y-90426248D01*
X134511370Y-90426248D01*
X134511368Y-90426248D01*
X134511366Y-90426249D01*
X134437678Y-90456770D01*
X134428967Y-90465482D01*
X134367643Y-90498965D01*
X134337106Y-90500238D01*
X134337106Y-90501248D01*
X134323864Y-90501248D01*
X134256825Y-90481563D01*
X134211070Y-90428759D01*
X134201126Y-90359601D01*
X134230151Y-90296045D01*
X134236183Y-90289567D01*
X134564571Y-89961179D01*
X134584007Y-89950566D01*
X134600741Y-89936066D01*
X134614072Y-89934149D01*
X134625894Y-89927694D01*
X134647980Y-89929273D01*
X134669899Y-89926122D01*
X134682150Y-89931717D01*
X134695586Y-89932678D01*
X134713312Y-89945948D01*
X134733455Y-89955147D01*
X134740296Y-89965792D01*
X134741713Y-89967209D01*
X134751519Y-89974550D01*
X134752985Y-89978481D01*
X134776252Y-90001748D01*
X135651252Y-90001748D01*
X135651252Y-89736748D01*
X135052037Y-89736748D01*
X134984998Y-89717063D01*
X134939243Y-89664259D01*
X134929299Y-89595101D01*
X134937476Y-89565295D01*
X134951752Y-89530830D01*
X134951752Y-89451066D01*
X134951752Y-87249021D01*
X136525752Y-87249021D01*
X136525752Y-87354475D01*
X136547878Y-87437049D01*
X136553045Y-87456334D01*
X136553046Y-87456337D01*
X136558668Y-87466074D01*
X136605772Y-87547661D01*
X136680339Y-87622228D01*
X136771665Y-87674955D01*
X136873525Y-87702248D01*
X136873527Y-87702248D01*
X136978977Y-87702248D01*
X136978979Y-87702248D01*
X137080839Y-87674955D01*
X137172165Y-87622228D01*
X137246732Y-87547661D01*
X137246733Y-87547658D01*
X137248735Y-87545657D01*
X137249015Y-87545045D01*
X137249946Y-87544446D01*
X137252479Y-87541914D01*
X137253029Y-87542464D01*
X137275428Y-87528070D01*
X137300775Y-87509561D01*
X137305515Y-87508734D01*
X137307793Y-87507271D01*
X137342728Y-87502248D01*
X137376752Y-87502248D01*
X137443791Y-87521933D01*
X137489546Y-87574737D01*
X137500752Y-87626248D01*
X137500752Y-87810008D01*
X137510678Y-87878139D01*
X137562055Y-87983233D01*
X137644766Y-88065944D01*
X137644767Y-88065944D01*
X137644769Y-88065946D01*
X137749859Y-88117321D01*
X137783925Y-88122284D01*
X137817991Y-88127248D01*
X137817992Y-88127248D01*
X138384513Y-88127248D01*
X138416207Y-88122630D01*
X138452645Y-88117321D01*
X138557735Y-88065946D01*
X138640450Y-87983231D01*
X138691825Y-87878141D01*
X138699627Y-87824592D01*
X139251252Y-87824592D01*
X139257653Y-87884120D01*
X139257655Y-87884127D01*
X139307897Y-88018834D01*
X139307901Y-88018841D01*
X139394061Y-88133935D01*
X139394064Y-88133938D01*
X139509158Y-88220098D01*
X139509165Y-88220102D01*
X139643872Y-88270344D01*
X139643879Y-88270346D01*
X139703407Y-88276747D01*
X139703424Y-88276748D01*
X139876252Y-88276748D01*
X140126252Y-88276748D01*
X140299080Y-88276748D01*
X140299096Y-88276747D01*
X140358624Y-88270346D01*
X140358631Y-88270344D01*
X140493338Y-88220102D01*
X140493345Y-88220098D01*
X140608439Y-88133938D01*
X140608442Y-88133935D01*
X140694602Y-88018841D01*
X140694606Y-88018834D01*
X140744848Y-87884127D01*
X140744850Y-87884120D01*
X140751251Y-87824592D01*
X140751252Y-87824575D01*
X140751252Y-87426748D01*
X140126252Y-87426748D01*
X140126252Y-88276748D01*
X139876252Y-88276748D01*
X139876252Y-87426748D01*
X139251252Y-87426748D01*
X139251252Y-87824592D01*
X138699627Y-87824592D01*
X138701752Y-87810008D01*
X138701752Y-86793488D01*
X138701752Y-86793485D01*
X138701751Y-86793477D01*
X138701749Y-86793463D01*
X138699627Y-86778903D01*
X139251252Y-86778903D01*
X139251252Y-87176748D01*
X139876252Y-87176748D01*
X140126252Y-87176748D01*
X140751252Y-87176748D01*
X140751252Y-87000098D01*
X142349500Y-87000098D01*
X142349500Y-88019894D01*
X142349501Y-88019902D01*
X142355330Y-88049212D01*
X142377542Y-88082457D01*
X142384595Y-88087169D01*
X142410787Y-88104669D01*
X142410790Y-88104669D01*
X142410791Y-88104670D01*
X142420647Y-88106630D01*
X142440101Y-88110500D01*
X145959898Y-88110499D01*
X145989213Y-88104669D01*
X146022457Y-88082457D01*
X146044669Y-88049213D01*
X146044670Y-88049208D01*
X146050500Y-88019901D01*
X146050500Y-87916255D01*
X146070185Y-87849216D01*
X146122989Y-87803461D01*
X146192147Y-87793517D01*
X146255703Y-87822542D01*
X146262181Y-87828574D01*
X146304087Y-87870480D01*
X146395413Y-87923207D01*
X146497273Y-87950500D01*
X146497275Y-87950500D01*
X146602725Y-87950500D01*
X146602727Y-87950500D01*
X146704587Y-87923207D01*
X146795913Y-87870480D01*
X146870480Y-87795913D01*
X146923207Y-87704587D01*
X146950500Y-87602727D01*
X146950500Y-87497273D01*
X146923207Y-87395413D01*
X146870480Y-87304087D01*
X146795913Y-87229520D01*
X146704587Y-87176793D01*
X146602727Y-87149500D01*
X146497273Y-87149500D01*
X146395413Y-87176793D01*
X146395410Y-87176794D01*
X146304085Y-87229521D01*
X146262179Y-87271427D01*
X146200856Y-87304911D01*
X146131164Y-87299926D01*
X146075231Y-87258054D01*
X146050815Y-87192590D01*
X146050499Y-87183745D01*
X146050499Y-87000105D01*
X146050498Y-87000097D01*
X146044669Y-86970787D01*
X146022457Y-86937542D01*
X145989214Y-86915332D01*
X145989215Y-86915332D01*
X145989213Y-86915331D01*
X145989211Y-86915330D01*
X145989208Y-86915329D01*
X145959901Y-86909500D01*
X142440105Y-86909500D01*
X142440097Y-86909501D01*
X142410787Y-86915330D01*
X142377542Y-86937542D01*
X142355332Y-86970785D01*
X142355329Y-86970791D01*
X142349500Y-87000098D01*
X140751252Y-87000098D01*
X140751252Y-86778920D01*
X140751251Y-86778903D01*
X140744850Y-86719375D01*
X140744848Y-86719368D01*
X140694606Y-86584661D01*
X140694602Y-86584654D01*
X140608442Y-86469560D01*
X140608439Y-86469557D01*
X140493345Y-86383397D01*
X140493338Y-86383393D01*
X140358631Y-86333151D01*
X140358624Y-86333149D01*
X140299096Y-86326748D01*
X140126252Y-86326748D01*
X140126252Y-87176748D01*
X139876252Y-87176748D01*
X139876252Y-86326748D01*
X139703407Y-86326748D01*
X139643879Y-86333149D01*
X139643872Y-86333151D01*
X139509165Y-86383393D01*
X139509158Y-86383397D01*
X139394064Y-86469557D01*
X139394061Y-86469560D01*
X139307901Y-86584654D01*
X139307897Y-86584661D01*
X139257655Y-86719368D01*
X139257653Y-86719375D01*
X139251252Y-86778903D01*
X138699627Y-86778903D01*
X138691825Y-86725356D01*
X138691452Y-86724592D01*
X138640450Y-86620265D01*
X138640448Y-86620263D01*
X138640448Y-86620262D01*
X138557737Y-86537551D01*
X138452643Y-86486174D01*
X138384513Y-86476248D01*
X138384512Y-86476248D01*
X137817992Y-86476248D01*
X137817991Y-86476248D01*
X137749860Y-86486174D01*
X137644766Y-86537551D01*
X137562055Y-86620262D01*
X137510678Y-86725356D01*
X137500753Y-86793477D01*
X137500752Y-86793485D01*
X137500752Y-86977248D01*
X137498201Y-86985933D01*
X137499490Y-86994895D01*
X137488511Y-87018935D01*
X137481067Y-87044287D01*
X137474226Y-87050214D01*
X137470465Y-87058451D01*
X137448230Y-87072740D01*
X137428263Y-87090042D01*
X137417748Y-87092329D01*
X137411687Y-87096225D01*
X137376752Y-87101248D01*
X137342728Y-87101248D01*
X137275689Y-87081563D01*
X137253193Y-87060867D01*
X137252479Y-87061582D01*
X137172166Y-86981269D01*
X137172165Y-86981268D01*
X137080839Y-86928541D01*
X136978979Y-86901248D01*
X136873525Y-86901248D01*
X136771665Y-86928541D01*
X136771662Y-86928542D01*
X136680337Y-86981269D01*
X136605773Y-87055833D01*
X136553046Y-87147158D01*
X136553045Y-87147161D01*
X136525752Y-87249021D01*
X134951752Y-87249021D01*
X134951752Y-87063562D01*
X134971437Y-86996523D01*
X135024241Y-86950768D01*
X135093399Y-86940824D01*
X135130209Y-86952161D01*
X135189750Y-86981268D01*
X135212359Y-86992321D01*
X135280491Y-87002248D01*
X135280492Y-87002248D01*
X135872013Y-87002248D01*
X135894723Y-86998939D01*
X135940145Y-86992321D01*
X136045235Y-86940946D01*
X136127950Y-86858231D01*
X136179325Y-86753141D01*
X136189252Y-86685008D01*
X136189252Y-86034628D01*
X142200000Y-86034628D01*
X142214503Y-86107540D01*
X142214505Y-86107544D01*
X142269760Y-86190239D01*
X142352455Y-86245494D01*
X142352459Y-86245496D01*
X142425371Y-86259999D01*
X142425374Y-86260000D01*
X144075000Y-86260000D01*
X144325000Y-86260000D01*
X145974626Y-86260000D01*
X145974628Y-86259999D01*
X146047540Y-86245496D01*
X146047544Y-86245494D01*
X146130239Y-86190239D01*
X146185494Y-86107544D01*
X146185496Y-86107540D01*
X146199999Y-86034628D01*
X146200000Y-86034626D01*
X146200000Y-85635000D01*
X144325000Y-85635000D01*
X144325000Y-86260000D01*
X144075000Y-86260000D01*
X144075000Y-85635000D01*
X142200000Y-85635000D01*
X142200000Y-86034628D01*
X136189252Y-86034628D01*
X136189252Y-85718488D01*
X136185609Y-85693488D01*
X136179325Y-85650356D01*
X136179325Y-85650355D01*
X136127950Y-85545265D01*
X136127948Y-85545263D01*
X136127948Y-85545262D01*
X136045237Y-85462551D01*
X135940143Y-85411174D01*
X135872013Y-85401248D01*
X135872012Y-85401248D01*
X135280492Y-85401248D01*
X135280491Y-85401248D01*
X135212360Y-85411174D01*
X135107266Y-85462551D01*
X135054365Y-85515453D01*
X135046419Y-85519791D01*
X135040994Y-85527039D01*
X135016234Y-85536273D01*
X134993042Y-85548938D01*
X134984012Y-85548292D01*
X134975530Y-85551456D01*
X134949709Y-85545839D01*
X134923350Y-85543954D01*
X134914296Y-85538135D01*
X134907257Y-85536604D01*
X134879003Y-85515453D01*
X134726819Y-85363269D01*
X134693334Y-85301946D01*
X134690500Y-85275588D01*
X134690500Y-84687021D01*
X136525752Y-84687021D01*
X136525752Y-84792475D01*
X136552206Y-84891201D01*
X136553045Y-84894334D01*
X136553046Y-84894337D01*
X136563507Y-84912455D01*
X136605772Y-84985661D01*
X136680339Y-85060228D01*
X136771665Y-85112955D01*
X136873525Y-85140248D01*
X136873527Y-85140248D01*
X136978977Y-85140248D01*
X136978979Y-85140248D01*
X137080839Y-85112955D01*
X137172165Y-85060228D01*
X137246732Y-84985661D01*
X137246733Y-84985658D01*
X137248735Y-84983657D01*
X137249015Y-84983045D01*
X137249946Y-84982446D01*
X137252479Y-84979914D01*
X137253029Y-84980464D01*
X137275428Y-84966070D01*
X137300775Y-84947561D01*
X137305515Y-84946734D01*
X137307793Y-84945271D01*
X137342728Y-84940248D01*
X137351752Y-84940248D01*
X137418791Y-84959933D01*
X137464546Y-85012737D01*
X137475752Y-85064248D01*
X137475752Y-85310008D01*
X137485678Y-85378139D01*
X137537055Y-85483233D01*
X137619766Y-85565944D01*
X137619767Y-85565944D01*
X137619769Y-85565946D01*
X137724859Y-85617321D01*
X137758925Y-85622284D01*
X137792991Y-85627248D01*
X137792992Y-85627248D01*
X138359513Y-85627248D01*
X138388661Y-85623001D01*
X138427645Y-85617321D01*
X138532735Y-85565946D01*
X138615450Y-85483231D01*
X138666825Y-85378141D01*
X138674627Y-85324592D01*
X139226252Y-85324592D01*
X139232653Y-85384120D01*
X139232655Y-85384127D01*
X139282897Y-85518834D01*
X139282901Y-85518841D01*
X139369061Y-85633935D01*
X139369064Y-85633938D01*
X139484158Y-85720098D01*
X139484165Y-85720102D01*
X139618872Y-85770344D01*
X139618879Y-85770346D01*
X139678407Y-85776747D01*
X139678424Y-85776748D01*
X139851252Y-85776748D01*
X140101252Y-85776748D01*
X140274080Y-85776748D01*
X140274096Y-85776747D01*
X140333624Y-85770346D01*
X140333631Y-85770344D01*
X140468338Y-85720102D01*
X140468345Y-85720098D01*
X140583439Y-85633938D01*
X140583442Y-85633935D01*
X140669602Y-85518841D01*
X140669606Y-85518834D01*
X140719848Y-85384127D01*
X140719850Y-85384120D01*
X140726251Y-85324592D01*
X140726252Y-85324575D01*
X140726252Y-84985371D01*
X142200000Y-84985371D01*
X142200000Y-85385000D01*
X144075000Y-85385000D01*
X144325000Y-85385000D01*
X146200000Y-85385000D01*
X146200000Y-84985373D01*
X146199999Y-84985371D01*
X146185496Y-84912459D01*
X146185494Y-84912455D01*
X146130239Y-84829760D01*
X146047544Y-84774505D01*
X146047540Y-84774503D01*
X145974627Y-84760000D01*
X144325000Y-84760000D01*
X144325000Y-85385000D01*
X144075000Y-85385000D01*
X144075000Y-84760000D01*
X142425373Y-84760000D01*
X142352459Y-84774503D01*
X142352455Y-84774505D01*
X142269760Y-84829760D01*
X142214505Y-84912455D01*
X142214503Y-84912459D01*
X142200000Y-84985371D01*
X140726252Y-84985371D01*
X140726252Y-84926748D01*
X140101252Y-84926748D01*
X140101252Y-85776748D01*
X139851252Y-85776748D01*
X139851252Y-84926748D01*
X139226252Y-84926748D01*
X139226252Y-85324592D01*
X138674627Y-85324592D01*
X138676752Y-85310008D01*
X138676752Y-84293488D01*
X138676752Y-84293485D01*
X138676751Y-84293477D01*
X138676749Y-84293463D01*
X138674627Y-84278903D01*
X139226252Y-84278903D01*
X139226252Y-84676748D01*
X139851252Y-84676748D01*
X140101252Y-84676748D01*
X140726252Y-84676748D01*
X140726252Y-84278920D01*
X140726251Y-84278903D01*
X140719850Y-84219375D01*
X140719848Y-84219368D01*
X140669606Y-84084661D01*
X140669602Y-84084654D01*
X140583442Y-83969560D01*
X140583439Y-83969557D01*
X140468345Y-83883397D01*
X140468338Y-83883393D01*
X140333631Y-83833151D01*
X140333624Y-83833149D01*
X140274096Y-83826748D01*
X140101252Y-83826748D01*
X140101252Y-84676748D01*
X139851252Y-84676748D01*
X139851252Y-83826748D01*
X139678407Y-83826748D01*
X139618879Y-83833149D01*
X139618872Y-83833151D01*
X139484165Y-83883393D01*
X139484158Y-83883397D01*
X139369064Y-83969557D01*
X139369061Y-83969560D01*
X139282901Y-84084654D01*
X139282897Y-84084661D01*
X139232655Y-84219368D01*
X139232653Y-84219375D01*
X139226252Y-84278903D01*
X138674627Y-84278903D01*
X138666825Y-84225356D01*
X138666825Y-84225355D01*
X138615450Y-84120265D01*
X138615448Y-84120263D01*
X138615448Y-84120262D01*
X138532737Y-84037551D01*
X138427643Y-83986174D01*
X138357874Y-83976009D01*
X138294373Y-83946865D01*
X138256709Y-83888016D01*
X138251752Y-83853305D01*
X138251752Y-83250190D01*
X138271437Y-83183151D01*
X138324241Y-83137396D01*
X138357875Y-83127485D01*
X138359502Y-83127248D01*
X138359512Y-83127248D01*
X138427645Y-83117321D01*
X138532735Y-83065946D01*
X138615450Y-82983231D01*
X138666825Y-82878141D01*
X138674627Y-82824592D01*
X139226252Y-82824592D01*
X139232653Y-82884120D01*
X139232655Y-82884127D01*
X139282897Y-83018834D01*
X139282901Y-83018841D01*
X139369061Y-83133935D01*
X139369064Y-83133938D01*
X139484158Y-83220098D01*
X139484165Y-83220102D01*
X139618872Y-83270344D01*
X139618879Y-83270346D01*
X139678407Y-83276747D01*
X139678424Y-83276748D01*
X139851252Y-83276748D01*
X140101252Y-83276748D01*
X140274080Y-83276748D01*
X140274096Y-83276747D01*
X140333624Y-83270346D01*
X140333631Y-83270344D01*
X140468338Y-83220102D01*
X140468345Y-83220098D01*
X140583439Y-83133938D01*
X140583442Y-83133935D01*
X140669602Y-83018841D01*
X140669606Y-83018834D01*
X140676594Y-83000098D01*
X142349500Y-83000098D01*
X142349500Y-84019894D01*
X142349501Y-84019902D01*
X142355330Y-84049212D01*
X142377542Y-84082457D01*
X142391474Y-84091765D01*
X142410787Y-84104669D01*
X142410790Y-84104669D01*
X142410791Y-84104670D01*
X142420647Y-84106630D01*
X142440101Y-84110500D01*
X145959898Y-84110499D01*
X145989213Y-84104669D01*
X146022457Y-84082457D01*
X146044669Y-84049213D01*
X146046989Y-84037550D01*
X146050500Y-84019901D01*
X146050500Y-83847700D01*
X146053050Y-83839014D01*
X146051762Y-83830053D01*
X146062740Y-83806012D01*
X146070185Y-83780661D01*
X146077025Y-83774733D01*
X146080787Y-83766497D01*
X146103021Y-83752207D01*
X146122989Y-83734906D01*
X146133503Y-83732618D01*
X146139565Y-83728723D01*
X146174500Y-83723700D01*
X146255944Y-83723700D01*
X146322983Y-83743385D01*
X146343625Y-83760018D01*
X146404087Y-83820480D01*
X146495413Y-83873207D01*
X146597273Y-83900500D01*
X146597275Y-83900500D01*
X146702725Y-83900500D01*
X146702727Y-83900500D01*
X146804587Y-83873207D01*
X146895913Y-83820480D01*
X146970480Y-83745913D01*
X147023207Y-83654587D01*
X147050500Y-83552727D01*
X147050500Y-83447273D01*
X147023207Y-83345413D01*
X146970480Y-83254087D01*
X146895913Y-83179520D01*
X146804587Y-83126793D01*
X146702727Y-83099500D01*
X146597273Y-83099500D01*
X146495413Y-83126793D01*
X146495410Y-83126794D01*
X146404085Y-83179521D01*
X146329522Y-83254084D01*
X146329518Y-83254090D01*
X146325702Y-83260700D01*
X146317014Y-83268983D01*
X146312028Y-83279903D01*
X146292196Y-83292647D01*
X146275135Y-83308916D01*
X146261878Y-83312131D01*
X146253250Y-83317677D01*
X146218315Y-83322700D01*
X146174499Y-83322700D01*
X146107460Y-83303015D01*
X146061705Y-83250211D01*
X146050499Y-83198700D01*
X146050499Y-83000105D01*
X146050498Y-83000097D01*
X146044669Y-82970787D01*
X146022457Y-82937542D01*
X145989214Y-82915332D01*
X145989215Y-82915332D01*
X145989213Y-82915331D01*
X145989211Y-82915330D01*
X145989208Y-82915329D01*
X145959901Y-82909500D01*
X142440105Y-82909500D01*
X142440097Y-82909501D01*
X142410787Y-82915330D01*
X142377542Y-82937542D01*
X142355332Y-82970785D01*
X142355329Y-82970791D01*
X142349500Y-83000098D01*
X140676594Y-83000098D01*
X140695028Y-82950676D01*
X140719848Y-82884127D01*
X140719850Y-82884120D01*
X140726251Y-82824592D01*
X140726252Y-82824575D01*
X140726252Y-82426748D01*
X140101252Y-82426748D01*
X140101252Y-83276748D01*
X139851252Y-83276748D01*
X139851252Y-82426748D01*
X139226252Y-82426748D01*
X139226252Y-82824592D01*
X138674627Y-82824592D01*
X138676752Y-82810008D01*
X138676752Y-81793488D01*
X138676752Y-81793485D01*
X138676751Y-81793477D01*
X138676749Y-81793463D01*
X138674627Y-81778903D01*
X139226252Y-81778903D01*
X139226252Y-82176748D01*
X139851252Y-82176748D01*
X140101252Y-82176748D01*
X140726252Y-82176748D01*
X140726252Y-81778920D01*
X140726251Y-81778903D01*
X140719850Y-81719375D01*
X140719848Y-81719368D01*
X140669606Y-81584661D01*
X140669602Y-81584654D01*
X140583442Y-81469560D01*
X140583439Y-81469557D01*
X140468345Y-81383397D01*
X140468338Y-81383393D01*
X140333631Y-81333151D01*
X140333624Y-81333149D01*
X140274096Y-81326748D01*
X140101252Y-81326748D01*
X140101252Y-82176748D01*
X139851252Y-82176748D01*
X139851252Y-81326748D01*
X139678407Y-81326748D01*
X139618879Y-81333149D01*
X139618872Y-81333151D01*
X139484165Y-81383393D01*
X139484158Y-81383397D01*
X139369064Y-81469557D01*
X139369061Y-81469560D01*
X139282901Y-81584654D01*
X139282897Y-81584661D01*
X139232655Y-81719368D01*
X139232653Y-81719375D01*
X139226252Y-81778903D01*
X138674627Y-81778903D01*
X138666825Y-81725356D01*
X138666825Y-81725355D01*
X138615450Y-81620265D01*
X138615448Y-81620263D01*
X138615448Y-81620262D01*
X138532737Y-81537551D01*
X138427643Y-81486174D01*
X138359513Y-81476248D01*
X138359512Y-81476248D01*
X137792992Y-81476248D01*
X137792991Y-81476248D01*
X137724860Y-81486174D01*
X137619766Y-81537551D01*
X137537055Y-81620262D01*
X137485678Y-81725356D01*
X137475753Y-81793477D01*
X137475752Y-81793485D01*
X137475752Y-82810008D01*
X137485678Y-82878139D01*
X137485679Y-82878141D01*
X137530972Y-82970791D01*
X137537055Y-82983233D01*
X137619766Y-83065944D01*
X137619767Y-83065944D01*
X137619769Y-83065946D01*
X137724859Y-83117321D01*
X137744629Y-83120201D01*
X137808128Y-83149342D01*
X137845794Y-83208190D01*
X137850752Y-83242905D01*
X137850752Y-83860590D01*
X137831067Y-83927629D01*
X137778263Y-83973384D01*
X137744630Y-83983294D01*
X137724860Y-83986174D01*
X137619766Y-84037551D01*
X137537055Y-84120262D01*
X137485678Y-84225356D01*
X137475753Y-84293477D01*
X137475752Y-84293485D01*
X137475752Y-84415248D01*
X137473201Y-84423933D01*
X137474490Y-84432895D01*
X137463511Y-84456935D01*
X137456067Y-84482287D01*
X137449226Y-84488214D01*
X137445465Y-84496451D01*
X137423230Y-84510740D01*
X137403263Y-84528042D01*
X137392748Y-84530329D01*
X137386687Y-84534225D01*
X137351752Y-84539248D01*
X137342728Y-84539248D01*
X137275689Y-84519563D01*
X137253193Y-84498867D01*
X137252479Y-84499582D01*
X137172166Y-84419269D01*
X137172165Y-84419268D01*
X137087696Y-84370500D01*
X137080841Y-84366542D01*
X137080840Y-84366541D01*
X137080839Y-84366541D01*
X136978979Y-84339248D01*
X136873525Y-84339248D01*
X136771665Y-84366541D01*
X136771662Y-84366542D01*
X136680337Y-84419269D01*
X136605773Y-84493833D01*
X136553046Y-84585158D01*
X136553045Y-84585161D01*
X136525752Y-84687021D01*
X134690500Y-84687021D01*
X134690500Y-82641376D01*
X134976252Y-82641376D01*
X134990755Y-82714288D01*
X134990757Y-82714292D01*
X135046012Y-82796987D01*
X135128707Y-82852242D01*
X135128711Y-82852244D01*
X135201623Y-82866747D01*
X135201626Y-82866748D01*
X135851252Y-82866748D01*
X136101252Y-82866748D01*
X136750878Y-82866748D01*
X136750880Y-82866747D01*
X136823792Y-82852244D01*
X136823796Y-82852242D01*
X136906491Y-82796987D01*
X136961746Y-82714292D01*
X136961748Y-82714288D01*
X136976251Y-82641376D01*
X136976252Y-82641374D01*
X136976252Y-82441748D01*
X136101252Y-82441748D01*
X136101252Y-82866748D01*
X135851252Y-82866748D01*
X135851252Y-82441748D01*
X134976252Y-82441748D01*
X134976252Y-82641376D01*
X134690500Y-82641376D01*
X134690500Y-81992119D01*
X134976252Y-81992119D01*
X134976252Y-82191748D01*
X135851252Y-82191748D01*
X136101252Y-82191748D01*
X136976252Y-82191748D01*
X136976252Y-81992121D01*
X136976251Y-81992119D01*
X136961748Y-81919207D01*
X136961746Y-81919203D01*
X136906491Y-81836508D01*
X136823796Y-81781253D01*
X136823792Y-81781251D01*
X136750879Y-81766748D01*
X136101252Y-81766748D01*
X136101252Y-82191748D01*
X135851252Y-82191748D01*
X135851252Y-81766748D01*
X135201625Y-81766748D01*
X135128711Y-81781251D01*
X135128707Y-81781253D01*
X135046012Y-81836508D01*
X134990757Y-81919203D01*
X134990755Y-81919207D01*
X134976252Y-81992119D01*
X134690500Y-81992119D01*
X134690500Y-80800119D01*
X134690499Y-80800116D01*
X134684445Y-80785500D01*
X134659976Y-80726426D01*
X134603574Y-80670024D01*
X134339826Y-80406276D01*
X134266135Y-80375752D01*
X134266134Y-80375752D01*
X130518431Y-80375752D01*
X130451392Y-80356067D01*
X130405637Y-80303263D01*
X130395693Y-80234105D01*
X130424718Y-80170549D01*
X130447192Y-80150722D01*
X130448707Y-80149207D01*
X130448707Y-80149205D01*
X130448709Y-80149205D01*
X130470921Y-80115961D01*
X130476752Y-80086647D01*
X130476751Y-79466850D01*
X130476750Y-79466846D01*
X135125752Y-79466846D01*
X135125752Y-80086642D01*
X135125753Y-80086650D01*
X135131582Y-80115960D01*
X135153794Y-80149205D01*
X135156065Y-80150722D01*
X135187039Y-80171417D01*
X135187042Y-80171417D01*
X135187043Y-80171418D01*
X135196899Y-80173378D01*
X135216353Y-80177248D01*
X136736150Y-80177247D01*
X136765465Y-80171417D01*
X136798709Y-80149205D01*
X136820921Y-80115961D01*
X136823314Y-80103931D01*
X136827941Y-80080672D01*
X136829766Y-80081035D01*
X136852669Y-80024311D01*
X136909702Y-79983949D01*
X136949914Y-79977248D01*
X143892336Y-79977248D01*
X143921776Y-79985892D01*
X143951763Y-79992416D01*
X143956778Y-79996170D01*
X143959375Y-79996933D01*
X143980017Y-80013567D01*
X144070381Y-80103931D01*
X144103866Y-80165254D01*
X144106700Y-80191612D01*
X144106700Y-80785500D01*
X144087015Y-80852539D01*
X144034211Y-80898294D01*
X143982700Y-80909500D01*
X142440105Y-80909500D01*
X142440097Y-80909501D01*
X142410787Y-80915330D01*
X142377542Y-80937542D01*
X142355332Y-80970785D01*
X142355329Y-80970791D01*
X142349500Y-81000098D01*
X142349500Y-82019894D01*
X142349501Y-82019902D01*
X142355330Y-82049212D01*
X142377542Y-82082457D01*
X142394219Y-82093599D01*
X142410787Y-82104669D01*
X142410790Y-82104669D01*
X142410791Y-82104670D01*
X142420647Y-82106630D01*
X142440101Y-82110500D01*
X145959898Y-82110499D01*
X145989213Y-82104669D01*
X146022457Y-82082457D01*
X146044669Y-82049213D01*
X146050500Y-82019899D01*
X146050499Y-81000102D01*
X146044669Y-80970787D01*
X146044632Y-80970731D01*
X146022457Y-80937542D01*
X145989214Y-80915332D01*
X145989215Y-80915332D01*
X145989213Y-80915331D01*
X145989211Y-80915330D01*
X145989208Y-80915329D01*
X145959901Y-80909500D01*
X145959899Y-80909500D01*
X144631700Y-80909500D01*
X144564661Y-80889815D01*
X144518906Y-80837011D01*
X144507700Y-80785500D01*
X144507700Y-80017319D01*
X144507699Y-80017316D01*
X144506146Y-80013567D01*
X144477176Y-79943626D01*
X144468178Y-79934628D01*
X148000000Y-79934628D01*
X148014503Y-80007540D01*
X148014505Y-80007544D01*
X148069760Y-80090239D01*
X148152455Y-80145494D01*
X148152459Y-80145496D01*
X148225371Y-80159999D01*
X148225374Y-80160000D01*
X149825000Y-80160000D01*
X150075000Y-80160000D01*
X151674626Y-80160000D01*
X151674628Y-80159999D01*
X151747540Y-80145496D01*
X151747544Y-80145494D01*
X151830239Y-80090239D01*
X151885494Y-80007544D01*
X151885496Y-80007540D01*
X151899999Y-79934628D01*
X151900000Y-79934626D01*
X151900000Y-79285000D01*
X150075000Y-79285000D01*
X150075000Y-80160000D01*
X149825000Y-80160000D01*
X149825000Y-79285000D01*
X148000000Y-79285000D01*
X148000000Y-79934628D01*
X144468178Y-79934628D01*
X144420774Y-79887224D01*
X144140322Y-79606772D01*
X144066631Y-79576248D01*
X144066630Y-79576248D01*
X136949913Y-79576248D01*
X136882874Y-79556563D01*
X136837119Y-79503759D01*
X136828735Y-79472664D01*
X136827939Y-79472823D01*
X136820921Y-79437535D01*
X136798709Y-79404290D01*
X136765466Y-79382080D01*
X136765467Y-79382080D01*
X136765465Y-79382079D01*
X136765463Y-79382078D01*
X136765460Y-79382077D01*
X136736153Y-79376248D01*
X135216357Y-79376248D01*
X135216349Y-79376249D01*
X135187039Y-79382078D01*
X135153794Y-79404290D01*
X135131584Y-79437533D01*
X135131581Y-79437539D01*
X135125752Y-79466846D01*
X130476750Y-79466846D01*
X130470921Y-79437535D01*
X130470920Y-79437533D01*
X130448709Y-79404290D01*
X130415466Y-79382080D01*
X130415467Y-79382080D01*
X130415465Y-79382079D01*
X130415463Y-79382078D01*
X130415460Y-79382077D01*
X130386153Y-79376248D01*
X128866357Y-79376248D01*
X128866349Y-79376249D01*
X128837039Y-79382078D01*
X128803794Y-79404290D01*
X128781584Y-79437533D01*
X128781581Y-79437539D01*
X128775752Y-79466846D01*
X128775752Y-80086642D01*
X128775753Y-80086650D01*
X128781582Y-80115960D01*
X128803794Y-80149205D01*
X128806065Y-80150722D01*
X128837039Y-80171417D01*
X128837042Y-80171417D01*
X128837043Y-80171418D01*
X128846899Y-80173378D01*
X128866353Y-80177248D01*
X129301752Y-80177247D01*
X129368791Y-80196931D01*
X129414546Y-80249735D01*
X129425752Y-80301247D01*
X129425752Y-80356370D01*
X129425752Y-80436134D01*
X129456276Y-80509826D01*
X129636275Y-80689824D01*
X129636276Y-80689826D01*
X129692678Y-80746228D01*
X129744785Y-80767811D01*
X129766369Y-80776752D01*
X129766370Y-80776752D01*
X134091840Y-80776752D01*
X134158879Y-80796437D01*
X134179521Y-80813071D01*
X134253181Y-80886731D01*
X134286666Y-80948054D01*
X134289500Y-80974412D01*
X134289500Y-85297767D01*
X134269815Y-85364806D01*
X134217011Y-85410561D01*
X134147853Y-85420505D01*
X134141584Y-85419439D01*
X134125637Y-85416304D01*
X134115145Y-85411175D01*
X134054841Y-85402388D01*
X134051836Y-85401798D01*
X134023446Y-85387029D01*
X133994373Y-85373686D01*
X133992664Y-85371015D01*
X133989852Y-85369553D01*
X133973953Y-85341780D01*
X133956709Y-85314836D01*
X133956104Y-85310600D01*
X133955140Y-85308916D01*
X133955331Y-85305189D01*
X133951752Y-85280126D01*
X133951752Y-81421371D01*
X133951751Y-81421368D01*
X133936023Y-81383397D01*
X133921228Y-81347678D01*
X133864826Y-81291276D01*
X133683574Y-81110024D01*
X133643078Y-81093250D01*
X133609883Y-81079500D01*
X133609882Y-81079500D01*
X128459883Y-81079500D01*
X128380118Y-81079500D01*
X128380116Y-81079500D01*
X128318987Y-81104821D01*
X128306426Y-81110024D01*
X128153194Y-81263255D01*
X128153059Y-81263389D01*
X127739021Y-81677429D01*
X127677698Y-81710914D01*
X127651340Y-81713748D01*
X126892991Y-81713748D01*
X126824860Y-81723674D01*
X126719766Y-81775051D01*
X126637055Y-81857762D01*
X126585678Y-81962856D01*
X126577204Y-82021021D01*
X126548060Y-82084522D01*
X126489211Y-82122186D01*
X126419342Y-82122054D01*
X126360635Y-82084169D01*
X126331729Y-82020559D01*
X126330500Y-82003143D01*
X126330500Y-80854412D01*
X126336131Y-80835233D01*
X126336844Y-80815258D01*
X126345773Y-80802395D01*
X126350185Y-80787373D01*
X126366807Y-80766743D01*
X126370504Y-80763045D01*
X126374673Y-80760768D01*
X126376690Y-80757864D01*
X126390353Y-80752203D01*
X126431821Y-80729553D01*
X126501513Y-80734528D01*
X126557452Y-80776392D01*
X126580899Y-80832837D01*
X126585678Y-80865639D01*
X126585679Y-80865641D01*
X126620829Y-80937543D01*
X126637055Y-80970733D01*
X126719766Y-81053444D01*
X126719767Y-81053444D01*
X126719769Y-81053446D01*
X126824859Y-81104821D01*
X126858925Y-81109784D01*
X126892991Y-81114748D01*
X126892992Y-81114748D01*
X127859513Y-81114748D01*
X127893578Y-81109784D01*
X127927645Y-81104821D01*
X128032735Y-81053446D01*
X128115450Y-80970731D01*
X128166825Y-80865641D01*
X128176752Y-80797508D01*
X128176752Y-80205988D01*
X128175169Y-80195126D01*
X128170817Y-80165254D01*
X128166825Y-80137855D01*
X128115450Y-80032765D01*
X128115448Y-80032763D01*
X128115448Y-80032762D01*
X128032737Y-79950051D01*
X127927643Y-79898674D01*
X127859513Y-79888748D01*
X127859512Y-79888748D01*
X126892992Y-79888748D01*
X126892991Y-79888748D01*
X126824860Y-79898674D01*
X126719766Y-79950051D01*
X126637055Y-80032762D01*
X126585678Y-80137856D01*
X126577334Y-80195126D01*
X126548190Y-80258627D01*
X126489340Y-80296291D01*
X126454630Y-80301248D01*
X126308368Y-80301248D01*
X126234677Y-80331772D01*
X125960024Y-80606425D01*
X125929500Y-80680116D01*
X125929500Y-82415588D01*
X125920855Y-82445028D01*
X125914332Y-82475015D01*
X125910577Y-82480030D01*
X125909815Y-82482627D01*
X125893181Y-82503269D01*
X125853269Y-82543181D01*
X125791946Y-82576666D01*
X125765588Y-82579500D01*
X125635105Y-82579500D01*
X125568066Y-82559815D01*
X125522311Y-82507011D01*
X125512367Y-82437853D01*
X125518923Y-82412167D01*
X125556175Y-82312288D01*
X125562499Y-82253463D01*
X125562500Y-82253462D01*
X125562500Y-81875000D01*
X124949000Y-81875000D01*
X124940314Y-81872449D01*
X124931353Y-81873738D01*
X124907312Y-81862759D01*
X124881961Y-81855315D01*
X124876033Y-81848474D01*
X124867797Y-81844713D01*
X124853507Y-81822478D01*
X124836206Y-81802511D01*
X124833918Y-81791996D01*
X124830023Y-81785935D01*
X124825000Y-81751000D01*
X124825000Y-81750000D01*
X124824000Y-81750000D01*
X124756961Y-81730315D01*
X124711206Y-81677511D01*
X124700000Y-81626000D01*
X124700000Y-81625000D01*
X124950000Y-81625000D01*
X125562500Y-81625000D01*
X125562500Y-81246538D01*
X125562499Y-81246536D01*
X125556175Y-81187711D01*
X125506561Y-81054690D01*
X125506559Y-81054687D01*
X125421473Y-80941026D01*
X125307812Y-80855940D01*
X125307809Y-80855938D01*
X125174787Y-80806324D01*
X125174788Y-80806324D01*
X125115963Y-80800000D01*
X124950000Y-80800000D01*
X124950000Y-81625000D01*
X124700000Y-81625000D01*
X124700000Y-80800000D01*
X124534036Y-80800000D01*
X124475211Y-80806324D01*
X124342190Y-80855938D01*
X124342187Y-80855940D01*
X124228526Y-80941026D01*
X124143440Y-81054687D01*
X124143438Y-81054690D01*
X124093824Y-81187711D01*
X124087500Y-81246536D01*
X124087500Y-81429757D01*
X124067815Y-81496796D01*
X124015011Y-81542551D01*
X123945853Y-81552495D01*
X123939313Y-81551375D01*
X123929885Y-81549500D01*
X123929882Y-81549500D01*
X123661999Y-81549500D01*
X123594960Y-81529815D01*
X123549205Y-81477011D01*
X123537999Y-81425500D01*
X123537999Y-81253407D01*
X123534699Y-81228343D01*
X123531400Y-81203277D01*
X123531397Y-81203270D01*
X123531397Y-81203269D01*
X123480097Y-81093255D01*
X123480093Y-81093249D01*
X123394250Y-81007406D01*
X123394244Y-81007402D01*
X123284229Y-80956102D01*
X123284224Y-80956100D01*
X123284223Y-80956100D01*
X123284220Y-80956099D01*
X123284218Y-80956099D01*
X123234101Y-80949501D01*
X123234096Y-80949500D01*
X123234091Y-80949500D01*
X123234084Y-80949500D01*
X122665907Y-80949500D01*
X122615780Y-80956099D01*
X122615769Y-80956102D01*
X122505755Y-81007402D01*
X122505749Y-81007406D01*
X122419906Y-81093249D01*
X122419902Y-81093255D01*
X122368602Y-81203270D01*
X122368599Y-81203281D01*
X122362001Y-81253398D01*
X122362000Y-81253415D01*
X122362000Y-82246592D01*
X122368599Y-82296719D01*
X122368602Y-82296730D01*
X122419901Y-82406742D01*
X122419906Y-82406750D01*
X122505750Y-82492594D01*
X122505751Y-82492594D01*
X122505755Y-82492597D01*
X122615770Y-82543897D01*
X122615771Y-82543897D01*
X122615777Y-82543900D01*
X122665909Y-82550500D01*
X123234090Y-82550499D01*
X123234092Y-82550499D01*
X123250801Y-82548299D01*
X123284223Y-82543900D01*
X123284228Y-82543897D01*
X123284230Y-82543897D01*
X123394244Y-82492597D01*
X123394245Y-82492596D01*
X123394250Y-82492594D01*
X123480094Y-82406750D01*
X123480095Y-82406746D01*
X123480099Y-82406742D01*
X123531397Y-82296729D01*
X123531400Y-82296723D01*
X123538000Y-82246591D01*
X123538000Y-82074500D01*
X123540550Y-82065814D01*
X123539262Y-82056853D01*
X123550240Y-82032812D01*
X123557685Y-82007461D01*
X123564525Y-82001533D01*
X123568287Y-81993297D01*
X123590521Y-81979007D01*
X123610489Y-81961706D01*
X123621003Y-81959418D01*
X123627065Y-81955523D01*
X123662000Y-81950500D01*
X123755588Y-81950500D01*
X123822627Y-81970185D01*
X123843269Y-81986819D01*
X123863181Y-82006731D01*
X123896666Y-82068054D01*
X123899500Y-82094412D01*
X123899500Y-82669883D01*
X123930024Y-82743574D01*
X123947454Y-82761004D01*
X123980939Y-82822327D01*
X123975955Y-82892019D01*
X123934083Y-82947952D01*
X123868619Y-82972369D01*
X123859773Y-82972685D01*
X121302618Y-82972685D01*
X121235579Y-82953000D01*
X121189824Y-82900196D01*
X121179880Y-82831038D01*
X121190265Y-82796218D01*
X121196592Y-82782668D01*
X121199616Y-82779645D01*
X121212262Y-82749111D01*
X121213417Y-82746640D01*
X121213812Y-82746190D01*
X121216759Y-82740007D01*
X123531117Y-78472255D01*
X123580379Y-78422708D01*
X123640187Y-78407368D01*
X147876070Y-78420518D01*
G37*
%TD.AperFunction*%
%TA.AperFunction,Conductor*%
G36*
X128428792Y-88760185D02*
G01*
X128474547Y-88812989D01*
X128485753Y-88864500D01*
X128485753Y-89336650D01*
X128491582Y-89365960D01*
X128513794Y-89399205D01*
X128530471Y-89410347D01*
X128547039Y-89421417D01*
X128547042Y-89421417D01*
X128547043Y-89421418D01*
X128554424Y-89422886D01*
X128576353Y-89427248D01*
X128876150Y-89427247D01*
X128905465Y-89421417D01*
X128907363Y-89420149D01*
X128912132Y-89418655D01*
X128916748Y-89416744D01*
X128916919Y-89417156D01*
X128974040Y-89399272D01*
X129041420Y-89417757D01*
X129045139Y-89420148D01*
X129046272Y-89420904D01*
X129047039Y-89421417D01*
X129047042Y-89421417D01*
X129047043Y-89421418D01*
X129054424Y-89422886D01*
X129076353Y-89427248D01*
X129376150Y-89427247D01*
X129405465Y-89421417D01*
X129407363Y-89420149D01*
X129412132Y-89418655D01*
X129416748Y-89416744D01*
X129416919Y-89417156D01*
X129474040Y-89399272D01*
X129541420Y-89417757D01*
X129545139Y-89420148D01*
X129546272Y-89420904D01*
X129547039Y-89421417D01*
X129547042Y-89421417D01*
X129547043Y-89421418D01*
X129554424Y-89422886D01*
X129576353Y-89427248D01*
X129876150Y-89427247D01*
X129905465Y-89421417D01*
X129907363Y-89420149D01*
X129912132Y-89418655D01*
X129916748Y-89416744D01*
X129916919Y-89417156D01*
X129974040Y-89399272D01*
X130041420Y-89417757D01*
X130045139Y-89420148D01*
X130046272Y-89420904D01*
X130047039Y-89421417D01*
X130047042Y-89421417D01*
X130047043Y-89421418D01*
X130054424Y-89422886D01*
X130076353Y-89427248D01*
X130376150Y-89427247D01*
X130405465Y-89421417D01*
X130407363Y-89420149D01*
X130412132Y-89418655D01*
X130416748Y-89416744D01*
X130416919Y-89417156D01*
X130474040Y-89399272D01*
X130541420Y-89417757D01*
X130545139Y-89420148D01*
X130546272Y-89420904D01*
X130547039Y-89421417D01*
X130547042Y-89421417D01*
X130547043Y-89421418D01*
X130554424Y-89422886D01*
X130576353Y-89427248D01*
X130876150Y-89427247D01*
X130905465Y-89421417D01*
X130907363Y-89420149D01*
X130912132Y-89418655D01*
X130916748Y-89416744D01*
X130916919Y-89417156D01*
X130974040Y-89399272D01*
X131041420Y-89417757D01*
X131045139Y-89420148D01*
X131046272Y-89420904D01*
X131047039Y-89421417D01*
X131047042Y-89421417D01*
X131047043Y-89421418D01*
X131054424Y-89422886D01*
X131076353Y-89427248D01*
X131376150Y-89427247D01*
X131405465Y-89421417D01*
X131407363Y-89420149D01*
X131412132Y-89418655D01*
X131416748Y-89416744D01*
X131416919Y-89417156D01*
X131474040Y-89399272D01*
X131541420Y-89417757D01*
X131545139Y-89420148D01*
X131546272Y-89420904D01*
X131547039Y-89421417D01*
X131547042Y-89421417D01*
X131547043Y-89421418D01*
X131554424Y-89422886D01*
X131576353Y-89427248D01*
X131876150Y-89427247D01*
X131877561Y-89426966D01*
X131878313Y-89427033D01*
X131882208Y-89426650D01*
X131882280Y-89427388D01*
X131898544Y-89428843D01*
X131919399Y-89425845D01*
X131932645Y-89431894D01*
X131947149Y-89433192D01*
X131963787Y-89446116D01*
X131982955Y-89454870D01*
X131990828Y-89467120D01*
X132002327Y-89476053D01*
X132009337Y-89495921D01*
X132020729Y-89513648D01*
X132024262Y-89538225D01*
X132025574Y-89541942D01*
X132025752Y-89548583D01*
X132025752Y-89685270D01*
X132006067Y-89752309D01*
X131985373Y-89774808D01*
X131986086Y-89775521D01*
X131905772Y-89855835D01*
X131853046Y-89947158D01*
X131853045Y-89947161D01*
X131825752Y-90049021D01*
X131825752Y-90154475D01*
X131848814Y-90240542D01*
X131853045Y-90256334D01*
X131853046Y-90256337D01*
X131864772Y-90276646D01*
X131905772Y-90347661D01*
X131980339Y-90422228D01*
X132071665Y-90474955D01*
X132173525Y-90502248D01*
X132173527Y-90502248D01*
X132278977Y-90502248D01*
X132278979Y-90502248D01*
X132380839Y-90474955D01*
X132425572Y-90449128D01*
X132493469Y-90432655D01*
X132559497Y-90455507D01*
X132602688Y-90510427D01*
X132609330Y-90579980D01*
X132577315Y-90642083D01*
X132575252Y-90644196D01*
X130329521Y-92889929D01*
X130268198Y-92923414D01*
X130241840Y-92926248D01*
X128148089Y-92926248D01*
X128081050Y-92906563D01*
X128035295Y-92853759D01*
X128025351Y-92784601D01*
X128026472Y-92778053D01*
X128026632Y-92777248D01*
X128026752Y-92776647D01*
X128026751Y-92476850D01*
X128020921Y-92447535D01*
X128020921Y-92447534D01*
X128019650Y-92445632D01*
X128018154Y-92440855D01*
X128016248Y-92436252D01*
X128016660Y-92436081D01*
X127998776Y-92378954D01*
X128017264Y-92311575D01*
X128019632Y-92307889D01*
X128020921Y-92305961D01*
X128026752Y-92276647D01*
X128026751Y-91976850D01*
X128020921Y-91947535D01*
X128020921Y-91947534D01*
X128019650Y-91945632D01*
X128018154Y-91940855D01*
X128016248Y-91936252D01*
X128016660Y-91936081D01*
X127998776Y-91878954D01*
X128017264Y-91811575D01*
X128019632Y-91807889D01*
X128020921Y-91805961D01*
X128026752Y-91776647D01*
X128026751Y-91476850D01*
X128020921Y-91447535D01*
X128020921Y-91447534D01*
X128019650Y-91445632D01*
X128018154Y-91440855D01*
X128016248Y-91436252D01*
X128016660Y-91436081D01*
X127998776Y-91378954D01*
X128017264Y-91311575D01*
X128019632Y-91307889D01*
X128020921Y-91305961D01*
X128026752Y-91276647D01*
X128026751Y-90976850D01*
X128020921Y-90947535D01*
X128020921Y-90947534D01*
X128019650Y-90945632D01*
X128018154Y-90940855D01*
X128016248Y-90936252D01*
X128016660Y-90936081D01*
X127998776Y-90878954D01*
X128017264Y-90811575D01*
X128019632Y-90807889D01*
X128020921Y-90805961D01*
X128026752Y-90776647D01*
X128026751Y-90476850D01*
X128020921Y-90447535D01*
X128020921Y-90447534D01*
X128019650Y-90445632D01*
X128018154Y-90440855D01*
X128016248Y-90436252D01*
X128016660Y-90436081D01*
X127998776Y-90378954D01*
X128017264Y-90311575D01*
X128019632Y-90307889D01*
X128020921Y-90305961D01*
X128026752Y-90276647D01*
X128026751Y-89976850D01*
X128020921Y-89947535D01*
X128011977Y-89934149D01*
X127998709Y-89914290D01*
X127969178Y-89894560D01*
X127965465Y-89892079D01*
X127965463Y-89892078D01*
X127965460Y-89892077D01*
X127936153Y-89886248D01*
X126416350Y-89886248D01*
X126412896Y-89886589D01*
X126411103Y-89886248D01*
X126410263Y-89886249D01*
X126410263Y-89886089D01*
X126344251Y-89873565D01*
X126293545Y-89825496D01*
X126276752Y-89763185D01*
X126276752Y-88931479D01*
X126296437Y-88864440D01*
X126349241Y-88818685D01*
X126418399Y-88808741D01*
X126481955Y-88837766D01*
X126513134Y-88879075D01*
X126530504Y-88916326D01*
X126530505Y-88916327D01*
X126611673Y-88997495D01*
X126715707Y-89046007D01*
X126763113Y-89052248D01*
X127589390Y-89052247D01*
X127636797Y-89046007D01*
X127740831Y-88997495D01*
X127821999Y-88916327D01*
X127870511Y-88812293D01*
X127870511Y-88812292D01*
X127870603Y-88812095D01*
X127916775Y-88759656D01*
X127982985Y-88740500D01*
X128361753Y-88740500D01*
X128428792Y-88760185D01*
G37*
%TD.AperFunction*%
%TA.AperFunction,Conductor*%
G36*
X124427869Y-83393370D02*
G01*
X124473624Y-83446174D01*
X124483568Y-83515332D01*
X124454543Y-83578888D01*
X124429722Y-83600785D01*
X124395220Y-83623839D01*
X124386899Y-83629399D01*
X124331533Y-83712260D01*
X124331532Y-83712264D01*
X124317000Y-83785321D01*
X124317000Y-84134678D01*
X124331532Y-84207735D01*
X124331533Y-84207739D01*
X124386899Y-84290601D01*
X124448705Y-84331898D01*
X124493510Y-84385510D01*
X124502217Y-84454835D01*
X124472063Y-84517862D01*
X124448705Y-84538102D01*
X124386899Y-84579398D01*
X124331533Y-84662260D01*
X124331532Y-84662264D01*
X124317000Y-84735321D01*
X124317000Y-85084678D01*
X124331532Y-85157735D01*
X124331533Y-85157739D01*
X124386899Y-85240601D01*
X124448705Y-85281898D01*
X124493510Y-85335510D01*
X124502217Y-85404835D01*
X124472063Y-85467862D01*
X124448705Y-85488102D01*
X124386899Y-85529398D01*
X124331533Y-85612260D01*
X124331532Y-85612264D01*
X124317000Y-85685321D01*
X124317000Y-86034678D01*
X124331532Y-86107735D01*
X124331533Y-86107739D01*
X124331534Y-86107740D01*
X124386899Y-86190601D01*
X124468157Y-86244895D01*
X124469760Y-86245966D01*
X124469764Y-86245967D01*
X124542821Y-86260499D01*
X124542824Y-86260500D01*
X124542826Y-86260500D01*
X124755500Y-86260500D01*
X124822539Y-86280185D01*
X124868294Y-86332989D01*
X124879500Y-86384500D01*
X124879500Y-86549883D01*
X124910024Y-86623574D01*
X124967347Y-86680897D01*
X125000832Y-86742220D01*
X124995848Y-86811912D01*
X124967348Y-86856259D01*
X124909520Y-86914087D01*
X124856794Y-87005410D01*
X124856793Y-87005413D01*
X124829500Y-87107273D01*
X124829500Y-87212727D01*
X124854592Y-87306370D01*
X124856793Y-87314586D01*
X124856794Y-87314589D01*
X124863525Y-87326248D01*
X124909520Y-87405913D01*
X124984087Y-87480480D01*
X125019217Y-87500762D01*
X125067431Y-87551329D01*
X125080653Y-87619936D01*
X125054685Y-87684800D01*
X124997770Y-87725328D01*
X124957215Y-87732148D01*
X124888452Y-87732148D01*
X124888452Y-88557148D01*
X125613452Y-88557148D01*
X125613452Y-87957521D01*
X125613451Y-87957519D01*
X125598948Y-87884607D01*
X125598946Y-87884603D01*
X125543691Y-87801908D01*
X125460996Y-87746653D01*
X125460993Y-87746651D01*
X125452328Y-87744928D01*
X125390418Y-87712542D01*
X125355844Y-87651826D01*
X125359585Y-87582057D01*
X125398145Y-87527221D01*
X125405873Y-87520917D01*
X125475913Y-87480480D01*
X125550480Y-87405913D01*
X125553692Y-87400348D01*
X125567714Y-87388912D01*
X125587117Y-87380740D01*
X125604115Y-87368323D01*
X125618667Y-87367452D01*
X125632106Y-87361793D01*
X125652847Y-87365408D01*
X125673860Y-87364152D01*
X125686829Y-87371332D01*
X125700938Y-87373792D01*
X125715542Y-87387229D01*
X125733771Y-87397321D01*
X125839433Y-87502983D01*
X125872918Y-87564306D01*
X125875752Y-87590664D01*
X125875752Y-91874016D01*
X125856067Y-91941055D01*
X125803263Y-91986810D01*
X125734105Y-91996754D01*
X125701943Y-91984432D01*
X125701109Y-91986446D01*
X125689826Y-91981772D01*
X125645578Y-91963444D01*
X125616135Y-91951248D01*
X125616134Y-91951248D01*
X125167464Y-91951248D01*
X125138023Y-91942603D01*
X125108037Y-91936080D01*
X125103021Y-91932325D01*
X125100425Y-91931563D01*
X125079783Y-91914929D01*
X125059182Y-91894328D01*
X125025697Y-91833005D01*
X125030681Y-91763313D01*
X125072553Y-91707380D01*
X125138017Y-91682963D01*
X125146863Y-91682647D01*
X125373347Y-91682647D01*
X125373350Y-91682647D01*
X125402665Y-91676817D01*
X125435909Y-91654605D01*
X125458121Y-91621361D01*
X125463952Y-91592047D01*
X125463951Y-90172250D01*
X125458121Y-90142935D01*
X125446972Y-90126248D01*
X125435909Y-90109690D01*
X125402666Y-90087480D01*
X125402667Y-90087480D01*
X125402665Y-90087479D01*
X125402663Y-90087478D01*
X125402660Y-90087477D01*
X125373353Y-90081648D01*
X124153557Y-90081648D01*
X124153549Y-90081649D01*
X124124239Y-90087478D01*
X124080838Y-90116477D01*
X124079839Y-90114982D01*
X124031426Y-90141413D01*
X123961735Y-90136424D01*
X123905804Y-90094548D01*
X123901974Y-90089135D01*
X123843691Y-90001907D01*
X123760996Y-89946653D01*
X123760992Y-89946651D01*
X123688079Y-89932148D01*
X123188452Y-89932148D01*
X123188452Y-90758148D01*
X123185901Y-90766833D01*
X123187190Y-90775795D01*
X123176211Y-90799835D01*
X123168767Y-90825187D01*
X123161926Y-90831114D01*
X123158165Y-90839351D01*
X123135930Y-90853640D01*
X123115963Y-90870942D01*
X123105448Y-90873229D01*
X123099387Y-90877125D01*
X123064452Y-90882148D01*
X123063452Y-90882148D01*
X123063452Y-90883148D01*
X123043767Y-90950187D01*
X122990963Y-90995942D01*
X122939452Y-91007148D01*
X122213452Y-91007148D01*
X122213452Y-91061492D01*
X122207400Y-91082100D01*
X122206104Y-91103543D01*
X122197751Y-91114960D01*
X122193767Y-91128531D01*
X122177535Y-91142595D01*
X122164851Y-91159935D01*
X122151651Y-91165024D01*
X122140963Y-91174286D01*
X122119703Y-91177342D01*
X122099660Y-91185071D01*
X122085806Y-91182216D01*
X122071805Y-91184230D01*
X122052264Y-91175306D01*
X122031228Y-91170972D01*
X122012618Y-91157200D01*
X122008249Y-91155205D01*
X122002742Y-91150134D01*
X122002237Y-91149640D01*
X121975165Y-91122568D01*
X121973693Y-91121718D01*
X121967042Y-91115212D01*
X121953447Y-91090954D01*
X121937055Y-91068496D01*
X121935338Y-91058642D01*
X121932883Y-91054261D01*
X121933319Y-91047048D01*
X121929752Y-91026570D01*
X121929752Y-90864867D01*
X121929751Y-90864864D01*
X121916626Y-90833178D01*
X121899228Y-90791174D01*
X121899227Y-90791173D01*
X121894554Y-90779891D01*
X121896733Y-90778988D01*
X121880835Y-90728220D01*
X121894642Y-90677884D01*
X121891554Y-90676605D01*
X121896228Y-90665322D01*
X121926752Y-90591630D01*
X121926752Y-90157519D01*
X122213452Y-90157519D01*
X122213452Y-90757148D01*
X122938452Y-90757148D01*
X122938452Y-89932148D01*
X122438825Y-89932148D01*
X122365911Y-89946651D01*
X122365907Y-89946653D01*
X122283212Y-90001908D01*
X122227957Y-90084603D01*
X122227955Y-90084607D01*
X122213452Y-90157519D01*
X121926752Y-90157519D01*
X121926752Y-89086160D01*
X121935396Y-89056719D01*
X121941920Y-89026733D01*
X121945674Y-89021717D01*
X121946437Y-89019121D01*
X121963071Y-88998479D01*
X122042583Y-88918967D01*
X122103906Y-88885482D01*
X122130264Y-88882648D01*
X122238953Y-88882648D01*
X122305992Y-88902333D01*
X122351747Y-88955137D01*
X122362953Y-89006648D01*
X122362953Y-89392050D01*
X122368782Y-89421360D01*
X122390994Y-89454605D01*
X122407671Y-89465747D01*
X122424239Y-89476817D01*
X122424242Y-89476817D01*
X122424243Y-89476818D01*
X122434099Y-89478778D01*
X122453553Y-89482648D01*
X123673350Y-89482647D01*
X123702665Y-89476817D01*
X123729658Y-89458780D01*
X123746066Y-89447819D01*
X123747065Y-89449314D01*
X123795459Y-89422886D01*
X123865151Y-89427865D01*
X123921088Y-89469732D01*
X123924928Y-89475159D01*
X123983212Y-89562387D01*
X124065907Y-89617642D01*
X124065911Y-89617644D01*
X124138823Y-89632147D01*
X124138826Y-89632148D01*
X124638452Y-89632148D01*
X124888452Y-89632148D01*
X125388078Y-89632148D01*
X125388080Y-89632147D01*
X125460992Y-89617644D01*
X125460996Y-89617642D01*
X125543691Y-89562387D01*
X125598946Y-89479692D01*
X125598948Y-89479688D01*
X125613451Y-89406776D01*
X125613452Y-89406774D01*
X125613452Y-88807148D01*
X124888452Y-88807148D01*
X124888452Y-89632148D01*
X124638452Y-89632148D01*
X124638452Y-87732148D01*
X124138825Y-87732148D01*
X124065911Y-87746651D01*
X124065907Y-87746653D01*
X123983212Y-87801908D01*
X123924928Y-87889136D01*
X123871316Y-87933941D01*
X123801991Y-87942648D01*
X123746362Y-87916033D01*
X123746066Y-87916477D01*
X123742978Y-87914414D01*
X123738963Y-87912493D01*
X123736240Y-87909911D01*
X123705145Y-87889136D01*
X123702665Y-87887479D01*
X123702663Y-87887478D01*
X123702660Y-87887477D01*
X123673353Y-87881648D01*
X122453557Y-87881648D01*
X122453549Y-87881649D01*
X122424239Y-87887478D01*
X122390994Y-87909690D01*
X122368784Y-87942933D01*
X122368781Y-87942939D01*
X122362952Y-87972246D01*
X122362952Y-88357648D01*
X122360401Y-88366333D01*
X122361690Y-88375295D01*
X122350711Y-88399335D01*
X122343267Y-88424687D01*
X122336426Y-88430614D01*
X122332665Y-88438851D01*
X122310430Y-88453140D01*
X122290463Y-88470442D01*
X122279948Y-88472729D01*
X122273887Y-88476625D01*
X122238952Y-88481648D01*
X122100752Y-88481648D01*
X122033713Y-88461963D01*
X121987958Y-88409159D01*
X121976752Y-88357648D01*
X121976752Y-86332285D01*
X121996437Y-86265246D01*
X122049241Y-86219491D01*
X122118399Y-86209547D01*
X122169640Y-86229182D01*
X122194760Y-86245966D01*
X122194762Y-86245966D01*
X122194764Y-86245967D01*
X122267821Y-86260499D01*
X122267824Y-86260500D01*
X122267826Y-86260500D01*
X123342176Y-86260500D01*
X123342177Y-86260499D01*
X123415240Y-86245966D01*
X123498101Y-86190601D01*
X123553466Y-86107740D01*
X123568000Y-86034674D01*
X123568000Y-85685326D01*
X123568000Y-85685323D01*
X123567999Y-85685321D01*
X123553467Y-85612264D01*
X123553466Y-85612260D01*
X123519344Y-85561192D01*
X123498468Y-85494516D01*
X123516953Y-85427136D01*
X123549572Y-85391979D01*
X123555551Y-85387635D01*
X123645136Y-85298050D01*
X123645139Y-85298046D01*
X123702666Y-85185144D01*
X123717500Y-85091486D01*
X123717500Y-85035000D01*
X121892501Y-85035000D01*
X121892501Y-85091479D01*
X121907335Y-85185149D01*
X121907337Y-85185155D01*
X121964856Y-85298041D01*
X121964863Y-85298050D01*
X122054450Y-85387637D01*
X122060431Y-85391982D01*
X122064460Y-85397207D01*
X122070413Y-85400055D01*
X122085529Y-85424526D01*
X122103100Y-85447309D01*
X122103665Y-85453884D01*
X122107132Y-85459497D01*
X122106619Y-85488254D01*
X122109083Y-85516922D01*
X122105974Y-85524389D01*
X122105886Y-85529356D01*
X122090654Y-85561194D01*
X122061792Y-85604390D01*
X122008180Y-85649195D01*
X121958689Y-85659500D01*
X121906368Y-85659500D01*
X121832677Y-85690024D01*
X121832676Y-85690025D01*
X121788433Y-85734269D01*
X121727110Y-85767754D01*
X121657418Y-85762770D01*
X121601485Y-85720898D01*
X121577068Y-85655434D01*
X121576752Y-85646588D01*
X121576752Y-84304412D01*
X121585396Y-84274971D01*
X121591920Y-84244985D01*
X121595674Y-84239969D01*
X121596437Y-84237373D01*
X121613071Y-84216731D01*
X121632983Y-84196819D01*
X121694306Y-84163334D01*
X121720664Y-84160500D01*
X121958689Y-84160500D01*
X122025728Y-84180185D01*
X122061791Y-84215609D01*
X122090653Y-84258804D01*
X122111531Y-84325482D01*
X122093046Y-84392862D01*
X122060435Y-84428014D01*
X122054452Y-84432360D01*
X121964863Y-84521949D01*
X121964860Y-84521953D01*
X121907333Y-84634855D01*
X121892500Y-84728513D01*
X121892500Y-84785000D01*
X123717499Y-84785000D01*
X123717499Y-84728520D01*
X123702664Y-84634850D01*
X123702662Y-84634844D01*
X123645143Y-84521958D01*
X123645136Y-84521949D01*
X123555548Y-84432361D01*
X123549567Y-84428016D01*
X123506899Y-84372688D01*
X123500917Y-84303075D01*
X123519344Y-84258806D01*
X123553466Y-84207740D01*
X123568000Y-84134674D01*
X123568000Y-83785326D01*
X123568000Y-83785323D01*
X123567999Y-83785321D01*
X123553467Y-83712264D01*
X123553466Y-83712260D01*
X123534494Y-83683866D01*
X123498101Y-83629399D01*
X123455278Y-83600786D01*
X123410474Y-83547176D01*
X123401767Y-83477851D01*
X123431921Y-83414823D01*
X123491364Y-83378103D01*
X123524170Y-83373685D01*
X124360830Y-83373685D01*
X124427869Y-83393370D01*
G37*
%TD.AperFunction*%
%TA.AperFunction,Conductor*%
G36*
X127518791Y-86879185D02*
G01*
X127564546Y-86931989D01*
X127575752Y-86983500D01*
X127575752Y-87386135D01*
X127604745Y-87456130D01*
X127606276Y-87459826D01*
X127836426Y-87689976D01*
X127910118Y-87720500D01*
X127989882Y-87720500D01*
X128361752Y-87720500D01*
X128428791Y-87740185D01*
X128474546Y-87792989D01*
X128485752Y-87844500D01*
X128485752Y-88215500D01*
X128466067Y-88282539D01*
X128413263Y-88328294D01*
X128361752Y-88339500D01*
X127998778Y-88339500D01*
X127931739Y-88319815D01*
X127885984Y-88267011D01*
X127875839Y-88231687D01*
X127870511Y-88191203D01*
X127821999Y-88087169D01*
X127740831Y-88006001D01*
X127636797Y-87957489D01*
X127636795Y-87957488D01*
X127636796Y-87957488D01*
X127589391Y-87951248D01*
X126763119Y-87951248D01*
X126748091Y-87953226D01*
X126715707Y-87957489D01*
X126715705Y-87957490D01*
X126715703Y-87957490D01*
X126611672Y-88006001D01*
X126530505Y-88087168D01*
X126513134Y-88124421D01*
X126466961Y-88176860D01*
X126399767Y-88196012D01*
X126332886Y-88175796D01*
X126287552Y-88122630D01*
X126276752Y-88072016D01*
X126276752Y-87416371D01*
X126276751Y-87416368D01*
X126272421Y-87405914D01*
X126246228Y-87342678D01*
X126189826Y-87286276D01*
X125974731Y-87071181D01*
X125941246Y-87009858D01*
X125946230Y-86940166D01*
X125988102Y-86884233D01*
X126053566Y-86859816D01*
X126062412Y-86859500D01*
X127451752Y-86859500D01*
X127518791Y-86879185D01*
G37*
%TD.AperFunction*%
%TA.AperFunction,Conductor*%
G36*
X133493791Y-81500185D02*
G01*
X133539546Y-81552989D01*
X133550752Y-81604500D01*
X133550752Y-85280126D01*
X133531067Y-85347165D01*
X133478263Y-85392920D01*
X133444630Y-85402830D01*
X133387360Y-85411174D01*
X133282266Y-85462551D01*
X133199555Y-85545262D01*
X133148178Y-85650356D01*
X133138252Y-85718487D01*
X133138252Y-86685008D01*
X133148178Y-86753139D01*
X133199555Y-86858233D01*
X133282266Y-86940944D01*
X133282267Y-86940944D01*
X133282269Y-86940946D01*
X133387359Y-86992321D01*
X133416199Y-86996523D01*
X133455491Y-87002248D01*
X133455492Y-87002248D01*
X134047013Y-87002248D01*
X134069723Y-86998939D01*
X134115145Y-86992321D01*
X134220235Y-86940946D01*
X134302950Y-86858231D01*
X134315351Y-86832863D01*
X134362478Y-86781281D01*
X134430012Y-86763366D01*
X134496511Y-86784806D01*
X134540862Y-86838795D01*
X134550752Y-86887323D01*
X134550752Y-87343336D01*
X134531067Y-87410375D01*
X134478263Y-87456130D01*
X134409105Y-87466074D01*
X134345549Y-87437049D01*
X134339071Y-87431017D01*
X134264826Y-87356772D01*
X134191135Y-87326248D01*
X134191134Y-87326248D01*
X133841134Y-87326248D01*
X133761370Y-87326248D01*
X133761368Y-87326248D01*
X133687677Y-87356772D01*
X133556276Y-87488173D01*
X133525752Y-87561864D01*
X133525752Y-87604910D01*
X133506067Y-87671949D01*
X133453263Y-87717704D01*
X133384105Y-87727648D01*
X133377573Y-87726530D01*
X133376154Y-87726248D01*
X133076357Y-87726248D01*
X133076349Y-87726249D01*
X133047039Y-87732078D01*
X133047037Y-87732079D01*
X133045131Y-87733353D01*
X133040348Y-87734849D01*
X133035756Y-87736752D01*
X133035585Y-87736340D01*
X132978451Y-87754223D01*
X132911073Y-87735731D01*
X132907366Y-87733349D01*
X132905467Y-87732080D01*
X132905460Y-87732077D01*
X132876153Y-87726248D01*
X132576357Y-87726248D01*
X132576349Y-87726249D01*
X132547039Y-87732078D01*
X132547037Y-87732079D01*
X132545131Y-87733353D01*
X132540348Y-87734849D01*
X132535756Y-87736752D01*
X132535585Y-87736340D01*
X132478451Y-87754223D01*
X132411073Y-87735731D01*
X132407366Y-87733349D01*
X132405467Y-87732080D01*
X132405460Y-87732077D01*
X132376153Y-87726248D01*
X132076357Y-87726248D01*
X132076351Y-87726249D01*
X132074931Y-87726532D01*
X132074173Y-87726464D01*
X132070296Y-87726846D01*
X132070223Y-87726110D01*
X132005340Y-87720297D01*
X131950167Y-87677429D01*
X131926929Y-87611537D01*
X131926752Y-87604912D01*
X131926752Y-87561867D01*
X131926751Y-87561864D01*
X131922387Y-87551329D01*
X131896228Y-87488174D01*
X131839826Y-87431772D01*
X131758078Y-87350024D01*
X131739481Y-87342321D01*
X131684387Y-87319500D01*
X131684386Y-87319500D01*
X130649535Y-87319500D01*
X130582496Y-87299815D01*
X130536741Y-87247011D01*
X130526797Y-87177853D01*
X130555822Y-87114297D01*
X130575224Y-87096234D01*
X130658439Y-87033938D01*
X130658442Y-87033935D01*
X130744602Y-86918841D01*
X130744606Y-86918834D01*
X130794848Y-86784127D01*
X130794850Y-86784120D01*
X130801251Y-86724592D01*
X130801252Y-86724575D01*
X130801252Y-86326748D01*
X129301252Y-86326748D01*
X129301252Y-86724592D01*
X129307653Y-86784120D01*
X129307655Y-86784127D01*
X129357897Y-86918834D01*
X129357901Y-86918841D01*
X129444061Y-87033935D01*
X129444064Y-87033938D01*
X129527280Y-87096234D01*
X129569151Y-87152168D01*
X129574135Y-87221859D01*
X129540649Y-87283182D01*
X129479326Y-87316666D01*
X129452969Y-87319500D01*
X128100752Y-87319500D01*
X128033713Y-87299815D01*
X127987958Y-87247011D01*
X127976752Y-87195500D01*
X127976752Y-86786371D01*
X127976751Y-86786368D01*
X127973343Y-86778141D01*
X127946228Y-86712678D01*
X127889826Y-86656276D01*
X127722574Y-86489024D01*
X127715696Y-86486175D01*
X127648883Y-86458500D01*
X127648882Y-86458500D01*
X126739837Y-86458500D01*
X126672798Y-86438815D01*
X126627043Y-86386011D01*
X126617099Y-86316853D01*
X126632450Y-86272500D01*
X126683207Y-86184587D01*
X126710500Y-86082727D01*
X126710500Y-85977273D01*
X126692029Y-85908337D01*
X126693692Y-85838491D01*
X126732854Y-85780628D01*
X126797083Y-85753124D01*
X126811788Y-85752247D01*
X127589390Y-85752247D01*
X127636797Y-85746007D01*
X127740831Y-85697495D01*
X127759423Y-85678903D01*
X129301252Y-85678903D01*
X129301252Y-86076748D01*
X129926252Y-86076748D01*
X130176252Y-86076748D01*
X130801252Y-86076748D01*
X130801252Y-85693487D01*
X131350752Y-85693487D01*
X131350752Y-86710008D01*
X131360678Y-86778139D01*
X131412055Y-86883233D01*
X131494766Y-86965944D01*
X131494767Y-86965944D01*
X131494769Y-86965946D01*
X131599859Y-87017321D01*
X131610937Y-87018935D01*
X131667991Y-87027248D01*
X131667992Y-87027248D01*
X132234513Y-87027248D01*
X132257223Y-87023939D01*
X132302645Y-87017321D01*
X132407735Y-86965946D01*
X132490450Y-86883231D01*
X132541825Y-86778141D01*
X132551752Y-86710008D01*
X132551752Y-85693488D01*
X132551247Y-85690025D01*
X132545468Y-85650356D01*
X132541825Y-85625355D01*
X132490450Y-85520265D01*
X132490448Y-85520263D01*
X132490448Y-85520262D01*
X132407737Y-85437551D01*
X132302643Y-85386174D01*
X132258105Y-85379684D01*
X132258105Y-85379685D01*
X132258104Y-85379684D01*
X132257873Y-85379651D01*
X132226313Y-85365166D01*
X132194549Y-85350660D01*
X132194482Y-85350556D01*
X132194372Y-85350506D01*
X132175608Y-85321187D01*
X132156775Y-85291882D01*
X132156752Y-85291724D01*
X132156709Y-85291657D01*
X132151752Y-85256947D01*
X132151752Y-85074996D01*
X132171437Y-85007957D01*
X132224241Y-84962202D01*
X132275752Y-84950996D01*
X132359776Y-84950996D01*
X132426815Y-84970681D01*
X132449310Y-84991376D01*
X132450025Y-84990662D01*
X132455772Y-84996409D01*
X132530339Y-85070976D01*
X132621665Y-85123703D01*
X132723525Y-85150996D01*
X132723527Y-85150996D01*
X132828977Y-85150996D01*
X132828979Y-85150996D01*
X132930839Y-85123703D01*
X133022165Y-85070976D01*
X133096732Y-84996409D01*
X133149459Y-84905083D01*
X133176752Y-84803223D01*
X133176752Y-84697769D01*
X133149459Y-84595909D01*
X133096732Y-84504583D01*
X133022165Y-84430016D01*
X132930839Y-84377289D01*
X132828979Y-84349996D01*
X132723525Y-84349996D01*
X132621665Y-84377289D01*
X132621662Y-84377290D01*
X132530337Y-84430017D01*
X132450025Y-84510330D01*
X132448340Y-84508645D01*
X132401729Y-84542683D01*
X132359776Y-84549996D01*
X132086365Y-84549996D01*
X132085807Y-84550227D01*
X132085800Y-84550231D01*
X132073717Y-84555237D01*
X132012678Y-84580520D01*
X131956276Y-84636922D01*
X131956275Y-84636923D01*
X131948258Y-84644938D01*
X131948256Y-84644941D01*
X131781276Y-84811921D01*
X131750752Y-84885612D01*
X131750752Y-85256947D01*
X131731067Y-85323986D01*
X131678263Y-85369741D01*
X131644631Y-85379651D01*
X131599860Y-85386174D01*
X131494766Y-85437551D01*
X131412055Y-85520262D01*
X131360678Y-85625356D01*
X131350752Y-85693487D01*
X130801252Y-85693487D01*
X130801252Y-85678920D01*
X130801251Y-85678903D01*
X130794850Y-85619375D01*
X130794848Y-85619368D01*
X130744606Y-85484661D01*
X130744602Y-85484654D01*
X130658442Y-85369560D01*
X130658439Y-85369557D01*
X130543345Y-85283397D01*
X130543338Y-85283393D01*
X130408631Y-85233151D01*
X130408624Y-85233149D01*
X130349096Y-85226748D01*
X130176252Y-85226748D01*
X130176252Y-86076748D01*
X129926252Y-86076748D01*
X129926252Y-85226748D01*
X129753407Y-85226748D01*
X129693879Y-85233149D01*
X129693872Y-85233151D01*
X129559165Y-85283393D01*
X129559158Y-85283397D01*
X129444064Y-85369557D01*
X129444061Y-85369560D01*
X129357901Y-85484654D01*
X129357897Y-85484661D01*
X129307655Y-85619368D01*
X129307653Y-85619375D01*
X129301252Y-85678903D01*
X127759423Y-85678903D01*
X127821999Y-85616327D01*
X127823896Y-85612260D01*
X127870511Y-85512293D01*
X127870511Y-85512292D01*
X127872851Y-85494516D01*
X127876752Y-85464887D01*
X127876751Y-84938610D01*
X127870511Y-84891203D01*
X127821999Y-84787169D01*
X127740831Y-84706001D01*
X127636797Y-84657489D01*
X127636795Y-84657488D01*
X127636796Y-84657488D01*
X127589392Y-84651248D01*
X127589391Y-84651248D01*
X127500752Y-84651248D01*
X127433713Y-84631563D01*
X127387958Y-84578759D01*
X127376752Y-84527248D01*
X127376752Y-83858159D01*
X127385396Y-83828718D01*
X127391920Y-83798732D01*
X127395674Y-83793716D01*
X127396437Y-83791120D01*
X127413071Y-83770478D01*
X127446730Y-83736819D01*
X127508053Y-83703334D01*
X127534411Y-83700500D01*
X127883524Y-83700500D01*
X127950563Y-83720185D01*
X127973058Y-83740880D01*
X127973773Y-83740166D01*
X127979520Y-83745913D01*
X128054087Y-83820480D01*
X128145413Y-83873207D01*
X128247273Y-83900500D01*
X128247275Y-83900500D01*
X128352725Y-83900500D01*
X128352727Y-83900500D01*
X128454587Y-83873207D01*
X128545913Y-83820480D01*
X128620480Y-83745913D01*
X128673207Y-83654587D01*
X128700500Y-83552727D01*
X128700500Y-83447273D01*
X128673207Y-83345413D01*
X128620480Y-83254087D01*
X128545913Y-83179520D01*
X128454587Y-83126793D01*
X128352727Y-83099500D01*
X128247273Y-83099500D01*
X128145413Y-83126793D01*
X128145410Y-83126794D01*
X128054085Y-83179521D01*
X127973773Y-83259834D01*
X127972088Y-83258149D01*
X127925477Y-83292187D01*
X127883524Y-83299500D01*
X127439882Y-83299500D01*
X127360117Y-83299500D01*
X127338533Y-83308440D01*
X127338532Y-83308440D01*
X127286426Y-83330023D01*
X127271040Y-83345410D01*
X127230024Y-83386426D01*
X127230023Y-83386426D01*
X127230020Y-83386428D01*
X127045240Y-83571207D01*
X127045236Y-83571213D01*
X127006276Y-83610173D01*
X126975752Y-83683864D01*
X126975752Y-83778730D01*
X126956067Y-83845769D01*
X126903263Y-83891524D01*
X126834105Y-83901468D01*
X126770549Y-83872443D01*
X126738216Y-83822132D01*
X126736316Y-83822920D01*
X126733208Y-83815418D01*
X126733207Y-83815413D01*
X126680480Y-83724087D01*
X126605913Y-83649520D01*
X126521507Y-83600788D01*
X126514589Y-83596794D01*
X126514588Y-83596793D01*
X126514587Y-83596793D01*
X126412727Y-83569500D01*
X126307273Y-83569500D01*
X126205413Y-83596793D01*
X126205410Y-83596794D01*
X126114085Y-83649521D01*
X126040426Y-83723181D01*
X126013498Y-83737884D01*
X125987680Y-83754477D01*
X125981479Y-83755368D01*
X125979103Y-83756666D01*
X125952745Y-83759500D01*
X125926311Y-83759500D01*
X125859272Y-83739815D01*
X125823209Y-83704391D01*
X125773101Y-83629399D01*
X125690239Y-83574033D01*
X125690235Y-83574032D01*
X125617177Y-83559500D01*
X125617174Y-83559500D01*
X125424500Y-83559500D01*
X125357461Y-83539815D01*
X125311706Y-83487011D01*
X125300500Y-83435500D01*
X125300500Y-83320119D01*
X125300499Y-83320116D01*
X125299489Y-83317677D01*
X125269976Y-83246426D01*
X125215731Y-83192181D01*
X125182246Y-83130858D01*
X125187230Y-83061166D01*
X125229102Y-83005233D01*
X125294566Y-82980816D01*
X125303412Y-82980500D01*
X125939880Y-82980500D01*
X125939882Y-82980500D01*
X126013574Y-82949976D01*
X126299976Y-82663574D01*
X126330500Y-82589882D01*
X126330500Y-82589881D01*
X126335174Y-82578598D01*
X126336673Y-82579219D01*
X126362518Y-82529809D01*
X126423233Y-82495234D01*
X126493003Y-82498973D01*
X126549676Y-82539838D01*
X126575258Y-82604856D01*
X126575752Y-82615910D01*
X126575752Y-82622508D01*
X126585678Y-82690639D01*
X126637055Y-82795733D01*
X126719766Y-82878444D01*
X126719767Y-82878444D01*
X126719769Y-82878446D01*
X126824859Y-82929821D01*
X126858925Y-82934784D01*
X126892991Y-82939748D01*
X126892992Y-82939748D01*
X127859513Y-82939748D01*
X127882223Y-82936439D01*
X127927645Y-82929821D01*
X128032735Y-82878446D01*
X128115450Y-82795731D01*
X128166825Y-82690641D01*
X128174003Y-82641376D01*
X128626252Y-82641376D01*
X128640755Y-82714288D01*
X128640757Y-82714292D01*
X128696012Y-82796987D01*
X128778707Y-82852242D01*
X128778711Y-82852244D01*
X128851623Y-82866747D01*
X128851626Y-82866748D01*
X129501252Y-82866748D01*
X129751252Y-82866748D01*
X130400878Y-82866748D01*
X130400880Y-82866747D01*
X130473792Y-82852244D01*
X130473796Y-82852242D01*
X130556491Y-82796987D01*
X130611746Y-82714292D01*
X130611748Y-82714288D01*
X130626251Y-82641376D01*
X130626252Y-82641374D01*
X130626252Y-82441748D01*
X129751252Y-82441748D01*
X129751252Y-82866748D01*
X129501252Y-82866748D01*
X129501252Y-82441748D01*
X128626252Y-82441748D01*
X128626252Y-82641376D01*
X128174003Y-82641376D01*
X128176752Y-82622508D01*
X128176752Y-82030988D01*
X128171089Y-81992119D01*
X128626252Y-81992119D01*
X128626252Y-82191748D01*
X129501252Y-82191748D01*
X129751252Y-82191748D01*
X130626252Y-82191748D01*
X130626252Y-81992121D01*
X130626251Y-81992119D01*
X130611748Y-81919207D01*
X130611746Y-81919203D01*
X130556491Y-81836508D01*
X130473796Y-81781253D01*
X130473792Y-81781251D01*
X130400879Y-81766748D01*
X129751252Y-81766748D01*
X129751252Y-82191748D01*
X129501252Y-82191748D01*
X129501252Y-81766748D01*
X128851625Y-81766748D01*
X128778711Y-81781251D01*
X128778707Y-81781253D01*
X128696012Y-81836508D01*
X128640757Y-81919203D01*
X128640755Y-81919207D01*
X128626252Y-81992119D01*
X128171089Y-81992119D01*
X128166825Y-81962855D01*
X128152616Y-81933790D01*
X128149539Y-81922565D01*
X128149967Y-81898803D01*
X128145967Y-81875370D01*
X128150587Y-81864506D01*
X128150800Y-81852707D01*
X128164007Y-81832948D01*
X128173311Y-81811073D01*
X128181424Y-81802124D01*
X128466732Y-81516816D01*
X128528054Y-81483334D01*
X128554412Y-81480500D01*
X133426752Y-81480500D01*
X133493791Y-81500185D01*
G37*
%TD.AperFunction*%
%TD*%
M02*
