%TF.GenerationSoftware,KiCad,Pcbnew,9.0.4*%
%TF.CreationDate,2025-12-04T14:56:59+01:00*%
%TF.ProjectId,GM340_conboard,474d3334-305f-4636-9f6e-626f6172642e,rev?*%
%TF.SameCoordinates,Original*%
%TF.FileFunction,Copper,L2,Bot*%
%TF.FilePolarity,Positive*%
%FSLAX46Y46*%
G04 Gerber Fmt 4.6, Leading zero omitted, Abs format (unit mm)*
G04 Created by KiCad (PCBNEW 9.0.4) date 2025-12-04 14:56:59*
%MOMM*%
%LPD*%
G01*
G04 APERTURE LIST*
%TA.AperFunction,ComponentPad*%
%ADD10C,4.700000*%
%TD*%
%TA.AperFunction,ComponentPad*%
%ADD11R,1.500000X1.500000*%
%TD*%
%TA.AperFunction,ComponentPad*%
%ADD12R,1.700000X1.700000*%
%TD*%
%TA.AperFunction,ComponentPad*%
%ADD13C,1.700000*%
%TD*%
%TA.AperFunction,Conductor*%
%ADD14C,0.200000*%
%TD*%
G04 APERTURE END LIST*
D10*
%TO.P,REF1,1*%
%TO.N,N/C*%
X92964000Y-68834000D03*
%TD*%
%TO.P,REF4,1*%
%TO.N,N/C*%
X92964000Y-78994000D03*
%TD*%
D11*
%TO.P,7,1,1*%
%TO.N,Net-(J1-Pin_7)*%
X124155200Y-77724000D03*
%TD*%
%TO.P,20,1,1*%
%TO.N,Net-(J1-Pin_20)*%
X115925600Y-62484000D03*
%TD*%
%TO.P,1,1,1*%
%TO.N,Net-(J1-Pin_1)*%
X124155200Y-85344000D03*
%TD*%
%TO.P,4,1,1*%
%TO.N,Net-(J1-Pin_4)*%
X115925600Y-82804000D03*
%TD*%
%TO.P,14,1,1*%
%TO.N,Net-(J1-Pin_14)*%
X115925600Y-70104000D03*
%TD*%
%TO.P,3,1,1*%
%TO.N,Net-(J1-Pin_3)*%
X124155200Y-82804000D03*
%TD*%
%TO.P,9,1,1*%
%TO.N,Net-(J1-Pin_9)*%
X124155200Y-75184000D03*
%TD*%
%TO.P,13,1,1*%
%TO.N,Net-(J1-Pin_13)*%
X124155200Y-70104000D03*
%TD*%
%TO.P,2,1,1*%
%TO.N,Net-(J1-Pin_2)*%
X115925600Y-85344000D03*
%TD*%
%TO.P,8,1,1*%
%TO.N,Net-(J1-Pin_8)*%
X115925600Y-77724000D03*
%TD*%
%TO.P,15,1,1*%
%TO.N,Net-(J1-Pin_15)*%
X124155200Y-67564000D03*
%TD*%
%TO.P,17,1,1*%
%TO.N,Net-(J1-Pin_17)*%
X124155200Y-65024000D03*
%TD*%
%TO.P,16,1,1*%
%TO.N,Net-(J1-Pin_16)*%
X115925600Y-67564000D03*
%TD*%
D10*
%TO.P,REF3,1*%
%TO.N,N/C*%
X104648000Y-78994000D03*
%TD*%
D11*
%TO.P,12,1,1*%
%TO.N,Net-(J1-Pin_12)*%
X115925600Y-72644000D03*
%TD*%
D10*
%TO.P,REF2,1*%
%TO.N,N/C*%
X104648000Y-68834000D03*
%TD*%
D11*
%TO.P,6,1,1*%
%TO.N,Net-(J1-Pin_6)*%
X115925600Y-80264000D03*
%TD*%
D12*
%TO.P,J1,1,Pin_1*%
%TO.N,Net-(J1-Pin_1)*%
X131760000Y-85320000D03*
D13*
%TO.P,J1,2,Pin_2*%
%TO.N,Net-(J1-Pin_2)*%
X134300000Y-85320000D03*
%TO.P,J1,3,Pin_3*%
%TO.N,Net-(J1-Pin_3)*%
X131760000Y-82780000D03*
%TO.P,J1,4,Pin_4*%
%TO.N,Net-(J1-Pin_4)*%
X134300000Y-82780000D03*
%TO.P,J1,5,Pin_5*%
%TO.N,Net-(J1-Pin_5)*%
X131760000Y-80240000D03*
%TO.P,J1,6,Pin_6*%
%TO.N,Net-(J1-Pin_6)*%
X134300000Y-80240000D03*
%TO.P,J1,7,Pin_7*%
%TO.N,Net-(J1-Pin_7)*%
X131760000Y-77700000D03*
%TO.P,J1,8,Pin_8*%
%TO.N,Net-(J1-Pin_8)*%
X134300000Y-77700000D03*
%TO.P,J1,9,Pin_9*%
%TO.N,Net-(J1-Pin_9)*%
X131760000Y-75160000D03*
%TO.P,J1,10,Pin_10*%
%TO.N,Net-(J1-Pin_10)*%
X134300000Y-75160000D03*
%TO.P,J1,11,Pin_11*%
%TO.N,Net-(J1-Pin_11)*%
X131760000Y-72620000D03*
%TO.P,J1,12,Pin_12*%
%TO.N,Net-(J1-Pin_12)*%
X134300000Y-72620000D03*
%TO.P,J1,13,Pin_13*%
%TO.N,Net-(J1-Pin_13)*%
X131760000Y-70080000D03*
%TO.P,J1,14,Pin_14*%
%TO.N,Net-(J1-Pin_14)*%
X134300000Y-70080000D03*
%TO.P,J1,15,Pin_15*%
%TO.N,Net-(J1-Pin_15)*%
X131760000Y-67540000D03*
%TO.P,J1,16,Pin_16*%
%TO.N,Net-(J1-Pin_16)*%
X134300000Y-67540000D03*
%TO.P,J1,17,Pin_17*%
%TO.N,Net-(J1-Pin_17)*%
X131760000Y-65000000D03*
%TO.P,J1,18,Pin_18*%
%TO.N,Net-(J1-Pin_18)*%
X134300000Y-65000000D03*
%TO.P,J1,19,Pin_19*%
%TO.N,Net-(J1-Pin_19)*%
X131760000Y-62460000D03*
%TO.P,J1,20,Pin_20*%
%TO.N,Net-(J1-Pin_20)*%
X134300000Y-62460000D03*
%TD*%
D11*
%TO.P,11,1,1*%
%TO.N,Net-(J1-Pin_11)*%
X124155200Y-72644000D03*
%TD*%
%TO.P,5,1,1*%
%TO.N,Net-(J1-Pin_5)*%
X124155200Y-80264000D03*
%TD*%
%TO.P,19,1,1*%
%TO.N,Net-(J1-Pin_19)*%
X124155200Y-62484000D03*
%TD*%
%TO.P,18,1,1*%
%TO.N,Net-(J1-Pin_18)*%
X115925600Y-65024000D03*
%TD*%
%TO.P,10,1,1*%
%TO.N,Net-(J1-Pin_10)*%
X115925600Y-75184000D03*
%TD*%
D14*
%TO.N,Net-(J1-Pin_14)*%
X115925600Y-70104000D02*
X118484075Y-70104000D01*
X119754075Y-71374000D02*
X133414200Y-71374000D01*
X118484075Y-70104000D02*
X119754075Y-71374000D01*
X133414200Y-71374000D02*
X134989000Y-69799200D01*
%TO.N,Net-(J1-Pin_8)*%
X115925600Y-77724000D02*
X118539527Y-77724000D01*
X133056800Y-78943200D02*
X134300000Y-77700000D01*
X119758727Y-78943200D02*
X133056800Y-78943200D01*
X118539527Y-77724000D02*
X119758727Y-78943200D01*
%TO.N,Net-(J1-Pin_6)*%
X119769502Y-81534000D02*
X133006000Y-81534000D01*
X118499502Y-80264000D02*
X119769502Y-81534000D01*
X115925600Y-80264000D02*
X118499502Y-80264000D01*
X133006000Y-81534000D02*
X134300000Y-80240000D01*
%TO.N,Net-(J1-Pin_20)*%
X119684800Y-63754000D02*
X133006000Y-63754000D01*
X115925600Y-62484000D02*
X118414800Y-62484000D01*
X118414800Y-62484000D02*
X119684800Y-63754000D01*
X133006000Y-63754000D02*
X134300000Y-62460000D01*
%TO.N,Net-(J1-Pin_4)*%
X115925600Y-82804000D02*
X118574145Y-82804000D01*
X133149000Y-83931000D02*
X134300000Y-82780000D01*
X119701145Y-83931000D02*
X133149000Y-83931000D01*
X118574145Y-82804000D02*
X119701145Y-83931000D01*
%TO.N,Net-(J1-Pin_12)*%
X115925600Y-72644000D02*
X118411800Y-72644000D01*
X133006000Y-73914000D02*
X134300000Y-72620000D01*
X118411800Y-72644000D02*
X119681800Y-73914000D01*
X119681800Y-73914000D02*
X133006000Y-73914000D01*
%TO.N,Net-(J1-Pin_16)*%
X133006000Y-68834000D02*
X134300000Y-67540000D01*
X118424310Y-67564000D02*
X119694310Y-68834000D01*
X115925600Y-67564000D02*
X118424310Y-67564000D01*
X119694310Y-68834000D02*
X133006000Y-68834000D01*
%TO.N,Net-(J1-Pin_10)*%
X118500776Y-75184000D02*
X119821576Y-76504800D01*
X119821576Y-76504800D02*
X132955200Y-76504800D01*
X115925600Y-75184000D02*
X118500776Y-75184000D01*
X132955200Y-76504800D02*
X134300000Y-75160000D01*
%TO.N,Net-(J1-Pin_2)*%
X115925600Y-85344000D02*
X118563197Y-85344000D01*
X133249000Y-84269000D02*
X134300000Y-85320000D01*
X118563197Y-85344000D02*
X119638197Y-84269000D01*
X119638197Y-84269000D02*
X133249000Y-84269000D01*
%TO.N,Net-(J1-Pin_18)*%
X119684800Y-66294000D02*
X133006000Y-66294000D01*
X133006000Y-66294000D02*
X134300000Y-65000000D01*
X115925600Y-65024000D02*
X118414800Y-65024000D01*
X118414800Y-65024000D02*
X119684800Y-66294000D01*
%TD*%
M02*
