%TF.GenerationSoftware,KiCad,Pcbnew,9.0.4*%
%TF.CreationDate,2025-12-04T14:56:59+01:00*%
%TF.ProjectId,GM340_conboard,474d3334-305f-4636-9f6e-626f6172642e,rev?*%
%TF.SameCoordinates,Original*%
%TF.FileFunction,Legend,Top*%
%TF.FilePolarity,Positive*%
%FSLAX46Y46*%
G04 Gerber Fmt 4.6, Leading zero omitted, Abs format (unit mm)*
G04 Created by KiCad (PCBNEW 9.0.4) date 2025-12-04 14:56:59*
%MOMM*%
%LPD*%
G01*
G04 APERTURE LIST*
%ADD10C,0.250000*%
%ADD11C,0.150000*%
%ADD12C,0.120000*%
%ADD13C,0.000000*%
G04 APERTURE END LIST*
D10*
X91718762Y-63231056D02*
X91861619Y-63278675D01*
X91861619Y-63278675D02*
X92099714Y-63278675D01*
X92099714Y-63278675D02*
X92194952Y-63231056D01*
X92194952Y-63231056D02*
X92242571Y-63183436D01*
X92242571Y-63183436D02*
X92290190Y-63088198D01*
X92290190Y-63088198D02*
X92290190Y-62992960D01*
X92290190Y-62992960D02*
X92242571Y-62897722D01*
X92242571Y-62897722D02*
X92194952Y-62850103D01*
X92194952Y-62850103D02*
X92099714Y-62802484D01*
X92099714Y-62802484D02*
X91909238Y-62754865D01*
X91909238Y-62754865D02*
X91814000Y-62707246D01*
X91814000Y-62707246D02*
X91766381Y-62659627D01*
X91766381Y-62659627D02*
X91718762Y-62564389D01*
X91718762Y-62564389D02*
X91718762Y-62469151D01*
X91718762Y-62469151D02*
X91766381Y-62373913D01*
X91766381Y-62373913D02*
X91814000Y-62326294D01*
X91814000Y-62326294D02*
X91909238Y-62278675D01*
X91909238Y-62278675D02*
X92147333Y-62278675D01*
X92147333Y-62278675D02*
X92290190Y-62326294D01*
X92671143Y-62992960D02*
X93147333Y-62992960D01*
X92575905Y-63278675D02*
X92909238Y-62278675D01*
X92909238Y-62278675D02*
X93242571Y-63278675D01*
X93575905Y-62278675D02*
X93575905Y-63088198D01*
X93575905Y-63088198D02*
X93623524Y-63183436D01*
X93623524Y-63183436D02*
X93671143Y-63231056D01*
X93671143Y-63231056D02*
X93766381Y-63278675D01*
X93766381Y-63278675D02*
X93956857Y-63278675D01*
X93956857Y-63278675D02*
X94052095Y-63231056D01*
X94052095Y-63231056D02*
X94099714Y-63183436D01*
X94099714Y-63183436D02*
X94147333Y-63088198D01*
X94147333Y-63088198D02*
X94147333Y-62278675D01*
X95099714Y-63278675D02*
X94623524Y-63278675D01*
X94623524Y-63278675D02*
X94623524Y-62278675D01*
X95433048Y-63278675D02*
X95433048Y-62612008D01*
X95433048Y-62278675D02*
X95385429Y-62326294D01*
X95385429Y-62326294D02*
X95433048Y-62373913D01*
X95433048Y-62373913D02*
X95480667Y-62326294D01*
X95480667Y-62326294D02*
X95433048Y-62278675D01*
X95433048Y-62278675D02*
X95433048Y-62373913D01*
X95909238Y-62612008D02*
X95909238Y-63278675D01*
X95909238Y-62707246D02*
X95956857Y-62659627D01*
X95956857Y-62659627D02*
X96052095Y-62612008D01*
X96052095Y-62612008D02*
X96194952Y-62612008D01*
X96194952Y-62612008D02*
X96290190Y-62659627D01*
X96290190Y-62659627D02*
X96337809Y-62754865D01*
X96337809Y-62754865D02*
X96337809Y-63278675D01*
X96814000Y-63278675D02*
X96814000Y-62278675D01*
X96909238Y-62897722D02*
X97194952Y-63278675D01*
X97194952Y-62612008D02*
X96814000Y-62992960D01*
X97671143Y-63278675D02*
X97861619Y-63278675D01*
X97861619Y-63278675D02*
X97956857Y-63231056D01*
X97956857Y-63231056D02*
X98004476Y-63183436D01*
X98004476Y-63183436D02*
X98099714Y-63040579D01*
X98099714Y-63040579D02*
X98147333Y-62850103D01*
X98147333Y-62850103D02*
X98147333Y-62469151D01*
X98147333Y-62469151D02*
X98099714Y-62373913D01*
X98099714Y-62373913D02*
X98052095Y-62326294D01*
X98052095Y-62326294D02*
X97956857Y-62278675D01*
X97956857Y-62278675D02*
X97766381Y-62278675D01*
X97766381Y-62278675D02*
X97671143Y-62326294D01*
X97671143Y-62326294D02*
X97623524Y-62373913D01*
X97623524Y-62373913D02*
X97575905Y-62469151D01*
X97575905Y-62469151D02*
X97575905Y-62707246D01*
X97575905Y-62707246D02*
X97623524Y-62802484D01*
X97623524Y-62802484D02*
X97671143Y-62850103D01*
X97671143Y-62850103D02*
X97766381Y-62897722D01*
X97766381Y-62897722D02*
X97956857Y-62897722D01*
X97956857Y-62897722D02*
X98052095Y-62850103D01*
X98052095Y-62850103D02*
X98099714Y-62802484D01*
X98099714Y-62802484D02*
X98147333Y-62707246D01*
X99909238Y-63183436D02*
X99861619Y-63231056D01*
X99861619Y-63231056D02*
X99718762Y-63278675D01*
X99718762Y-63278675D02*
X99623524Y-63278675D01*
X99623524Y-63278675D02*
X99480667Y-63231056D01*
X99480667Y-63231056D02*
X99385429Y-63135817D01*
X99385429Y-63135817D02*
X99337810Y-63040579D01*
X99337810Y-63040579D02*
X99290191Y-62850103D01*
X99290191Y-62850103D02*
X99290191Y-62707246D01*
X99290191Y-62707246D02*
X99337810Y-62516770D01*
X99337810Y-62516770D02*
X99385429Y-62421532D01*
X99385429Y-62421532D02*
X99480667Y-62326294D01*
X99480667Y-62326294D02*
X99623524Y-62278675D01*
X99623524Y-62278675D02*
X99718762Y-62278675D01*
X99718762Y-62278675D02*
X99861619Y-62326294D01*
X99861619Y-62326294D02*
X99909238Y-62373913D01*
X100528286Y-62278675D02*
X100718762Y-62278675D01*
X100718762Y-62278675D02*
X100814000Y-62326294D01*
X100814000Y-62326294D02*
X100909238Y-62421532D01*
X100909238Y-62421532D02*
X100956857Y-62612008D01*
X100956857Y-62612008D02*
X100956857Y-62945341D01*
X100956857Y-62945341D02*
X100909238Y-63135817D01*
X100909238Y-63135817D02*
X100814000Y-63231056D01*
X100814000Y-63231056D02*
X100718762Y-63278675D01*
X100718762Y-63278675D02*
X100528286Y-63278675D01*
X100528286Y-63278675D02*
X100433048Y-63231056D01*
X100433048Y-63231056D02*
X100337810Y-63135817D01*
X100337810Y-63135817D02*
X100290191Y-62945341D01*
X100290191Y-62945341D02*
X100290191Y-62612008D01*
X100290191Y-62612008D02*
X100337810Y-62421532D01*
X100337810Y-62421532D02*
X100433048Y-62326294D01*
X100433048Y-62326294D02*
X100528286Y-62278675D01*
X101385429Y-63278675D02*
X101385429Y-62278675D01*
X101385429Y-62278675D02*
X101956857Y-63278675D01*
X101956857Y-63278675D02*
X101956857Y-62278675D01*
X102766381Y-62754865D02*
X102909238Y-62802484D01*
X102909238Y-62802484D02*
X102956857Y-62850103D01*
X102956857Y-62850103D02*
X103004476Y-62945341D01*
X103004476Y-62945341D02*
X103004476Y-63088198D01*
X103004476Y-63088198D02*
X102956857Y-63183436D01*
X102956857Y-63183436D02*
X102909238Y-63231056D01*
X102909238Y-63231056D02*
X102814000Y-63278675D01*
X102814000Y-63278675D02*
X102433048Y-63278675D01*
X102433048Y-63278675D02*
X102433048Y-62278675D01*
X102433048Y-62278675D02*
X102766381Y-62278675D01*
X102766381Y-62278675D02*
X102861619Y-62326294D01*
X102861619Y-62326294D02*
X102909238Y-62373913D01*
X102909238Y-62373913D02*
X102956857Y-62469151D01*
X102956857Y-62469151D02*
X102956857Y-62564389D01*
X102956857Y-62564389D02*
X102909238Y-62659627D01*
X102909238Y-62659627D02*
X102861619Y-62707246D01*
X102861619Y-62707246D02*
X102766381Y-62754865D01*
X102766381Y-62754865D02*
X102433048Y-62754865D01*
X103623524Y-62278675D02*
X103814000Y-62278675D01*
X103814000Y-62278675D02*
X103909238Y-62326294D01*
X103909238Y-62326294D02*
X104004476Y-62421532D01*
X104004476Y-62421532D02*
X104052095Y-62612008D01*
X104052095Y-62612008D02*
X104052095Y-62945341D01*
X104052095Y-62945341D02*
X104004476Y-63135817D01*
X104004476Y-63135817D02*
X103909238Y-63231056D01*
X103909238Y-63231056D02*
X103814000Y-63278675D01*
X103814000Y-63278675D02*
X103623524Y-63278675D01*
X103623524Y-63278675D02*
X103528286Y-63231056D01*
X103528286Y-63231056D02*
X103433048Y-63135817D01*
X103433048Y-63135817D02*
X103385429Y-62945341D01*
X103385429Y-62945341D02*
X103385429Y-62612008D01*
X103385429Y-62612008D02*
X103433048Y-62421532D01*
X103433048Y-62421532D02*
X103528286Y-62326294D01*
X103528286Y-62326294D02*
X103623524Y-62278675D01*
X104433048Y-62992960D02*
X104909238Y-62992960D01*
X104337810Y-63278675D02*
X104671143Y-62278675D01*
X104671143Y-62278675D02*
X105004476Y-63278675D01*
X105909238Y-63278675D02*
X105575905Y-62802484D01*
X105337810Y-63278675D02*
X105337810Y-62278675D01*
X105337810Y-62278675D02*
X105718762Y-62278675D01*
X105718762Y-62278675D02*
X105814000Y-62326294D01*
X105814000Y-62326294D02*
X105861619Y-62373913D01*
X105861619Y-62373913D02*
X105909238Y-62469151D01*
X105909238Y-62469151D02*
X105909238Y-62612008D01*
X105909238Y-62612008D02*
X105861619Y-62707246D01*
X105861619Y-62707246D02*
X105814000Y-62754865D01*
X105814000Y-62754865D02*
X105718762Y-62802484D01*
X105718762Y-62802484D02*
X105337810Y-62802484D01*
X106337810Y-63278675D02*
X106337810Y-62278675D01*
X106337810Y-62278675D02*
X106575905Y-62278675D01*
X106575905Y-62278675D02*
X106718762Y-62326294D01*
X106718762Y-62326294D02*
X106814000Y-62421532D01*
X106814000Y-62421532D02*
X106861619Y-62516770D01*
X106861619Y-62516770D02*
X106909238Y-62707246D01*
X106909238Y-62707246D02*
X106909238Y-62850103D01*
X106909238Y-62850103D02*
X106861619Y-63040579D01*
X106861619Y-63040579D02*
X106814000Y-63135817D01*
X106814000Y-63135817D02*
X106718762Y-63231056D01*
X106718762Y-63231056D02*
X106575905Y-63278675D01*
X106575905Y-63278675D02*
X106337810Y-63278675D01*
X94123524Y-64221952D02*
X94361619Y-64888619D01*
X94361619Y-64888619D02*
X94599714Y-64221952D01*
X95504476Y-64888619D02*
X94933048Y-64888619D01*
X95218762Y-64888619D02*
X95218762Y-63888619D01*
X95218762Y-63888619D02*
X95123524Y-64031476D01*
X95123524Y-64031476D02*
X95028286Y-64126714D01*
X95028286Y-64126714D02*
X94933048Y-64174333D01*
X95933048Y-64793380D02*
X95980667Y-64841000D01*
X95980667Y-64841000D02*
X95933048Y-64888619D01*
X95933048Y-64888619D02*
X95885429Y-64841000D01*
X95885429Y-64841000D02*
X95933048Y-64793380D01*
X95933048Y-64793380D02*
X95933048Y-64888619D01*
X96599714Y-63888619D02*
X96694952Y-63888619D01*
X96694952Y-63888619D02*
X96790190Y-63936238D01*
X96790190Y-63936238D02*
X96837809Y-63983857D01*
X96837809Y-63983857D02*
X96885428Y-64079095D01*
X96885428Y-64079095D02*
X96933047Y-64269571D01*
X96933047Y-64269571D02*
X96933047Y-64507666D01*
X96933047Y-64507666D02*
X96885428Y-64698142D01*
X96885428Y-64698142D02*
X96837809Y-64793380D01*
X96837809Y-64793380D02*
X96790190Y-64841000D01*
X96790190Y-64841000D02*
X96694952Y-64888619D01*
X96694952Y-64888619D02*
X96599714Y-64888619D01*
X96599714Y-64888619D02*
X96504476Y-64841000D01*
X96504476Y-64841000D02*
X96456857Y-64793380D01*
X96456857Y-64793380D02*
X96409238Y-64698142D01*
X96409238Y-64698142D02*
X96361619Y-64507666D01*
X96361619Y-64507666D02*
X96361619Y-64269571D01*
X96361619Y-64269571D02*
X96409238Y-64079095D01*
X96409238Y-64079095D02*
X96456857Y-63983857D01*
X96456857Y-63983857D02*
X96504476Y-63936238D01*
X96504476Y-63936238D02*
X96599714Y-63888619D01*
X98647333Y-64888619D02*
X98075905Y-64888619D01*
X98361619Y-64888619D02*
X98361619Y-63888619D01*
X98361619Y-63888619D02*
X98266381Y-64031476D01*
X98266381Y-64031476D02*
X98171143Y-64126714D01*
X98171143Y-64126714D02*
X98075905Y-64174333D01*
X99028286Y-63983857D02*
X99075905Y-63936238D01*
X99075905Y-63936238D02*
X99171143Y-63888619D01*
X99171143Y-63888619D02*
X99409238Y-63888619D01*
X99409238Y-63888619D02*
X99504476Y-63936238D01*
X99504476Y-63936238D02*
X99552095Y-63983857D01*
X99552095Y-63983857D02*
X99599714Y-64079095D01*
X99599714Y-64079095D02*
X99599714Y-64174333D01*
X99599714Y-64174333D02*
X99552095Y-64317190D01*
X99552095Y-64317190D02*
X98980667Y-64888619D01*
X98980667Y-64888619D02*
X99599714Y-64888619D01*
X100742571Y-63841000D02*
X99885429Y-65126714D01*
X101028286Y-63983857D02*
X101075905Y-63936238D01*
X101075905Y-63936238D02*
X101171143Y-63888619D01*
X101171143Y-63888619D02*
X101409238Y-63888619D01*
X101409238Y-63888619D02*
X101504476Y-63936238D01*
X101504476Y-63936238D02*
X101552095Y-63983857D01*
X101552095Y-63983857D02*
X101599714Y-64079095D01*
X101599714Y-64079095D02*
X101599714Y-64174333D01*
X101599714Y-64174333D02*
X101552095Y-64317190D01*
X101552095Y-64317190D02*
X100980667Y-64888619D01*
X100980667Y-64888619D02*
X101599714Y-64888619D01*
X102218762Y-63888619D02*
X102314000Y-63888619D01*
X102314000Y-63888619D02*
X102409238Y-63936238D01*
X102409238Y-63936238D02*
X102456857Y-63983857D01*
X102456857Y-63983857D02*
X102504476Y-64079095D01*
X102504476Y-64079095D02*
X102552095Y-64269571D01*
X102552095Y-64269571D02*
X102552095Y-64507666D01*
X102552095Y-64507666D02*
X102504476Y-64698142D01*
X102504476Y-64698142D02*
X102456857Y-64793380D01*
X102456857Y-64793380D02*
X102409238Y-64841000D01*
X102409238Y-64841000D02*
X102314000Y-64888619D01*
X102314000Y-64888619D02*
X102218762Y-64888619D01*
X102218762Y-64888619D02*
X102123524Y-64841000D01*
X102123524Y-64841000D02*
X102075905Y-64793380D01*
X102075905Y-64793380D02*
X102028286Y-64698142D01*
X102028286Y-64698142D02*
X101980667Y-64507666D01*
X101980667Y-64507666D02*
X101980667Y-64269571D01*
X101980667Y-64269571D02*
X102028286Y-64079095D01*
X102028286Y-64079095D02*
X102075905Y-63983857D01*
X102075905Y-63983857D02*
X102123524Y-63936238D01*
X102123524Y-63936238D02*
X102218762Y-63888619D01*
X102933048Y-63983857D02*
X102980667Y-63936238D01*
X102980667Y-63936238D02*
X103075905Y-63888619D01*
X103075905Y-63888619D02*
X103314000Y-63888619D01*
X103314000Y-63888619D02*
X103409238Y-63936238D01*
X103409238Y-63936238D02*
X103456857Y-63983857D01*
X103456857Y-63983857D02*
X103504476Y-64079095D01*
X103504476Y-64079095D02*
X103504476Y-64174333D01*
X103504476Y-64174333D02*
X103456857Y-64317190D01*
X103456857Y-64317190D02*
X102885429Y-64888619D01*
X102885429Y-64888619D02*
X103504476Y-64888619D01*
X104409238Y-63888619D02*
X103933048Y-63888619D01*
X103933048Y-63888619D02*
X103885429Y-64364809D01*
X103885429Y-64364809D02*
X103933048Y-64317190D01*
X103933048Y-64317190D02*
X104028286Y-64269571D01*
X104028286Y-64269571D02*
X104266381Y-64269571D01*
X104266381Y-64269571D02*
X104361619Y-64317190D01*
X104361619Y-64317190D02*
X104409238Y-64364809D01*
X104409238Y-64364809D02*
X104456857Y-64460047D01*
X104456857Y-64460047D02*
X104456857Y-64698142D01*
X104456857Y-64698142D02*
X104409238Y-64793380D01*
X104409238Y-64793380D02*
X104361619Y-64841000D01*
X104361619Y-64841000D02*
X104266381Y-64888619D01*
X104266381Y-64888619D02*
X104028286Y-64888619D01*
X104028286Y-64888619D02*
X103933048Y-64841000D01*
X103933048Y-64841000D02*
X103885429Y-64793380D01*
G36*
X95731954Y-83821588D02*
G01*
X95835985Y-83925620D01*
X95895285Y-84162817D01*
X95895285Y-84632038D01*
X95835985Y-84869235D01*
X95731953Y-84973267D01*
X95633633Y-85022428D01*
X95406936Y-85022428D01*
X95308615Y-84973267D01*
X95204584Y-84869236D01*
X95145285Y-84632039D01*
X95145285Y-84162816D01*
X95204583Y-83925620D01*
X95308616Y-83821587D01*
X95406936Y-83772428D01*
X95633634Y-83772428D01*
X95731954Y-83821588D01*
G37*
G36*
X97303382Y-83821588D02*
G01*
X97346125Y-83864330D01*
X97395285Y-83962650D01*
X97395285Y-84117920D01*
X97346124Y-84216242D01*
X97303385Y-84258980D01*
X97205062Y-84308142D01*
X96788142Y-84308142D01*
X96788142Y-83772428D01*
X97205063Y-83772428D01*
X97303382Y-83821588D01*
G37*
G36*
X104097579Y-85439095D02*
G01*
X93445306Y-85439095D01*
X93445306Y-83623042D01*
X93611973Y-83623042D01*
X93611973Y-83671814D01*
X93630637Y-83716874D01*
X93665125Y-83751362D01*
X93710185Y-83770026D01*
X93734571Y-83772428D01*
X94038142Y-83772428D01*
X94038142Y-85147428D01*
X94040544Y-85171814D01*
X94059208Y-85216874D01*
X94093696Y-85251362D01*
X94138756Y-85270026D01*
X94187528Y-85270026D01*
X94232588Y-85251362D01*
X94267076Y-85216874D01*
X94285740Y-85171814D01*
X94288142Y-85147428D01*
X94288142Y-84147428D01*
X94895285Y-84147428D01*
X94895285Y-84647428D01*
X94895704Y-84651682D01*
X94895433Y-84653504D01*
X94896782Y-84662632D01*
X94897687Y-84671814D01*
X94898391Y-84673515D01*
X94899017Y-84677745D01*
X94970445Y-84963459D01*
X94978690Y-84986534D01*
X94984223Y-84994002D01*
X94987780Y-85002588D01*
X95003325Y-85021530D01*
X95146183Y-85164389D01*
X95155771Y-85172257D01*
X95157932Y-85174749D01*
X95161688Y-85177113D01*
X95165125Y-85179934D01*
X95168175Y-85181197D01*
X95178670Y-85187804D01*
X95321527Y-85259232D01*
X95344413Y-85267989D01*
X95348892Y-85268307D01*
X95353042Y-85270026D01*
X95377428Y-85272428D01*
X95663142Y-85272428D01*
X95687528Y-85270026D01*
X95691676Y-85268307D01*
X95696158Y-85267989D01*
X95719043Y-85259232D01*
X95861901Y-85187803D01*
X95872395Y-85181196D01*
X95875446Y-85179933D01*
X95878880Y-85177114D01*
X95882638Y-85174749D01*
X95884799Y-85172257D01*
X95894388Y-85164388D01*
X96037245Y-85021530D01*
X96052790Y-85002588D01*
X96056346Y-84994000D01*
X96061879Y-84986534D01*
X96070124Y-84963459D01*
X96141553Y-84677746D01*
X96142178Y-84673514D01*
X96142883Y-84671814D01*
X96143787Y-84662635D01*
X96145137Y-84653505D01*
X96144865Y-84651682D01*
X96145285Y-84647428D01*
X96145285Y-84147428D01*
X96144865Y-84143173D01*
X96145137Y-84141351D01*
X96143787Y-84132220D01*
X96142883Y-84123042D01*
X96142178Y-84121341D01*
X96141553Y-84117110D01*
X96070124Y-83831397D01*
X96061879Y-83808322D01*
X96056346Y-83800854D01*
X96052789Y-83792267D01*
X96037244Y-83773325D01*
X95911346Y-83647428D01*
X96538142Y-83647428D01*
X96538142Y-85147428D01*
X96540544Y-85171814D01*
X96559208Y-85216874D01*
X96593696Y-85251362D01*
X96638756Y-85270026D01*
X96687528Y-85270026D01*
X96732588Y-85251362D01*
X96767076Y-85216874D01*
X96785740Y-85171814D01*
X96788142Y-85147428D01*
X96788142Y-84558142D01*
X97234571Y-84558142D01*
X97258957Y-84555740D01*
X97263105Y-84554021D01*
X97267587Y-84553703D01*
X97290472Y-84544946D01*
X97433330Y-84473517D01*
X97443826Y-84466909D01*
X97446874Y-84465647D01*
X97450305Y-84462830D01*
X97454067Y-84460463D01*
X97456230Y-84457968D01*
X97465816Y-84450102D01*
X97537245Y-84378673D01*
X97545111Y-84369087D01*
X97547606Y-84366924D01*
X97549974Y-84363162D01*
X97552790Y-84359731D01*
X97554051Y-84356684D01*
X97560661Y-84346186D01*
X97632089Y-84203329D01*
X97640846Y-84180443D01*
X97641164Y-84175963D01*
X97642883Y-84171814D01*
X97645285Y-84147428D01*
X97645285Y-83933142D01*
X97642883Y-83908756D01*
X97641164Y-83904606D01*
X97640846Y-83900127D01*
X97632089Y-83877241D01*
X97560661Y-83734384D01*
X97554053Y-83723887D01*
X97552790Y-83720838D01*
X97549971Y-83717403D01*
X97547606Y-83713646D01*
X97545114Y-83711484D01*
X97537245Y-83701896D01*
X97498410Y-83663062D01*
X98967696Y-83663062D01*
X98973129Y-83686956D01*
X99473129Y-85186957D01*
X99483119Y-85209332D01*
X99488970Y-85216079D01*
X99492965Y-85224068D01*
X99504804Y-85234335D01*
X99515074Y-85246177D01*
X99523064Y-85250172D01*
X99529811Y-85256023D01*
X99544678Y-85260978D01*
X99558699Y-85267989D01*
X99567608Y-85268622D01*
X99576080Y-85271446D01*
X99591714Y-85270335D01*
X99607348Y-85271446D01*
X99615819Y-85268622D01*
X99624729Y-85267989D01*
X99638748Y-85260979D01*
X99653618Y-85256023D01*
X99660365Y-85250171D01*
X99668354Y-85246177D01*
X99678621Y-85234337D01*
X99690463Y-85224068D01*
X99694458Y-85216076D01*
X99700309Y-85209331D01*
X99710299Y-85186956D01*
X100210299Y-83686956D01*
X100215732Y-83663062D01*
X100214621Y-83647428D01*
X100466713Y-83647428D01*
X100466713Y-85147428D01*
X100469115Y-85171814D01*
X100487779Y-85216874D01*
X100522267Y-85251362D01*
X100567327Y-85270026D01*
X100616099Y-85270026D01*
X100661159Y-85251362D01*
X100695647Y-85216874D01*
X100714311Y-85171814D01*
X100716713Y-85147428D01*
X100716713Y-83647428D01*
X101180999Y-83647428D01*
X101180999Y-85147428D01*
X101183401Y-85171814D01*
X101202065Y-85216874D01*
X101236553Y-85251362D01*
X101281613Y-85270026D01*
X101305999Y-85272428D01*
X102020285Y-85272428D01*
X102044671Y-85270026D01*
X102089731Y-85251362D01*
X102124219Y-85216874D01*
X102142883Y-85171814D01*
X102142883Y-85123042D01*
X102124219Y-85077982D01*
X102089731Y-85043494D01*
X102044671Y-85024830D01*
X102020285Y-85022428D01*
X101430999Y-85022428D01*
X101430999Y-84486714D01*
X101805999Y-84486714D01*
X101830385Y-84484312D01*
X101875445Y-84465648D01*
X101909933Y-84431160D01*
X101928597Y-84386100D01*
X101928597Y-84337328D01*
X101909933Y-84292268D01*
X101875445Y-84257780D01*
X101830385Y-84239116D01*
X101805999Y-84236714D01*
X101430999Y-84236714D01*
X101430999Y-83772428D01*
X102020285Y-83772428D01*
X102044671Y-83770026D01*
X102089731Y-83751362D01*
X102124219Y-83716874D01*
X102142883Y-83671814D01*
X102142883Y-83652101D01*
X102395373Y-83652101D01*
X102398684Y-83676381D01*
X102755827Y-85176381D01*
X102758711Y-85184749D01*
X102759110Y-85187749D01*
X102760680Y-85190461D01*
X102763812Y-85199547D01*
X102774454Y-85214253D01*
X102783547Y-85229959D01*
X102788641Y-85233858D01*
X102792405Y-85239059D01*
X102807866Y-85248573D01*
X102822276Y-85259603D01*
X102828476Y-85261256D01*
X102833944Y-85264621D01*
X102851865Y-85267493D01*
X102869402Y-85272170D01*
X102875765Y-85271324D01*
X102882101Y-85272340D01*
X102899755Y-85268136D01*
X102917749Y-85265746D01*
X102923302Y-85262530D01*
X102929547Y-85261044D01*
X102944253Y-85250401D01*
X102959959Y-85241309D01*
X102963858Y-85236214D01*
X102969059Y-85232451D01*
X102978573Y-85216989D01*
X102989603Y-85202580D01*
X102992976Y-85193584D01*
X102994621Y-85190912D01*
X102995100Y-85187919D01*
X102998207Y-85179636D01*
X103163142Y-84561128D01*
X103328078Y-85179636D01*
X103331184Y-85187918D01*
X103331664Y-85190912D01*
X103333309Y-85193585D01*
X103336682Y-85202579D01*
X103347709Y-85216986D01*
X103357226Y-85232451D01*
X103362426Y-85236214D01*
X103366326Y-85241309D01*
X103382031Y-85250401D01*
X103396738Y-85261044D01*
X103402982Y-85262530D01*
X103408536Y-85265746D01*
X103426529Y-85268136D01*
X103444184Y-85272340D01*
X103450519Y-85271324D01*
X103456883Y-85272170D01*
X103474419Y-85267493D01*
X103492341Y-85264621D01*
X103497808Y-85261256D01*
X103504009Y-85259603D01*
X103518418Y-85248573D01*
X103533880Y-85239059D01*
X103537643Y-85233858D01*
X103542738Y-85229959D01*
X103551830Y-85214253D01*
X103562473Y-85199547D01*
X103565604Y-85190461D01*
X103567175Y-85187749D01*
X103567573Y-85184749D01*
X103570458Y-85176381D01*
X103927601Y-83676381D01*
X103930912Y-83652101D01*
X103923193Y-83603944D01*
X103897631Y-83562405D01*
X103858119Y-83533812D01*
X103810673Y-83522516D01*
X103762516Y-83530235D01*
X103720977Y-83555797D01*
X103692384Y-83595309D01*
X103684399Y-83618475D01*
X103441995Y-84636569D01*
X103283921Y-84043792D01*
X103281779Y-84038080D01*
X103281460Y-84035679D01*
X103279809Y-84032828D01*
X103275317Y-84020848D01*
X103265288Y-84007746D01*
X103257023Y-83993469D01*
X103250593Y-83988548D01*
X103245673Y-83982119D01*
X103231395Y-83973853D01*
X103218294Y-83963825D01*
X103210469Y-83961738D01*
X103203463Y-83957682D01*
X103187109Y-83955509D01*
X103171168Y-83951258D01*
X103163142Y-83952324D01*
X103155116Y-83951258D01*
X103139174Y-83955509D01*
X103122821Y-83957682D01*
X103115814Y-83961738D01*
X103107990Y-83963825D01*
X103094888Y-83973853D01*
X103080611Y-83982119D01*
X103075690Y-83988548D01*
X103069261Y-83993469D01*
X103060995Y-84007746D01*
X103050967Y-84020848D01*
X103046474Y-84032828D01*
X103044824Y-84035679D01*
X103044504Y-84038080D01*
X103042363Y-84043792D01*
X102884289Y-84636568D01*
X102641886Y-83618475D01*
X102633901Y-83595309D01*
X102605308Y-83555797D01*
X102563769Y-83530235D01*
X102515612Y-83522516D01*
X102468166Y-83533812D01*
X102428654Y-83562405D01*
X102403092Y-83603944D01*
X102395373Y-83652101D01*
X102142883Y-83652101D01*
X102142883Y-83623042D01*
X102124219Y-83577982D01*
X102089731Y-83543494D01*
X102044671Y-83524830D01*
X102020285Y-83522428D01*
X101305999Y-83522428D01*
X101281613Y-83524830D01*
X101236553Y-83543494D01*
X101202065Y-83577982D01*
X101183401Y-83623042D01*
X101180999Y-83647428D01*
X100716713Y-83647428D01*
X100714311Y-83623042D01*
X100695647Y-83577982D01*
X100661159Y-83543494D01*
X100616099Y-83524830D01*
X100567327Y-83524830D01*
X100522267Y-83543494D01*
X100487779Y-83577982D01*
X100469115Y-83623042D01*
X100466713Y-83647428D01*
X100214621Y-83647428D01*
X100212275Y-83614412D01*
X100190463Y-83570788D01*
X100153618Y-83538833D01*
X100107348Y-83523410D01*
X100058699Y-83526867D01*
X100015074Y-83548679D01*
X99983119Y-83585524D01*
X99973129Y-83607899D01*
X99591713Y-84752144D01*
X99210299Y-83607900D01*
X99200309Y-83585525D01*
X99168354Y-83548679D01*
X99124729Y-83526867D01*
X99076080Y-83523410D01*
X99029811Y-83538833D01*
X98992965Y-83570788D01*
X98971153Y-83614413D01*
X98967696Y-83663062D01*
X97498410Y-83663062D01*
X97465816Y-83630468D01*
X97456227Y-83622599D01*
X97454067Y-83620108D01*
X97450310Y-83617743D01*
X97446874Y-83614923D01*
X97443822Y-83613659D01*
X97433330Y-83607054D01*
X97290473Y-83535625D01*
X97267587Y-83526867D01*
X97263105Y-83526548D01*
X97258957Y-83524830D01*
X97234571Y-83522428D01*
X96663142Y-83522428D01*
X96638756Y-83524830D01*
X96593696Y-83543494D01*
X96559208Y-83577982D01*
X96540544Y-83623042D01*
X96538142Y-83647428D01*
X95911346Y-83647428D01*
X95894387Y-83630469D01*
X95884801Y-83622602D01*
X95882638Y-83620108D01*
X95878876Y-83617740D01*
X95875445Y-83614924D01*
X95872397Y-83613661D01*
X95861901Y-83607054D01*
X95719044Y-83535625D01*
X95696158Y-83526867D01*
X95691676Y-83526548D01*
X95687528Y-83524830D01*
X95663142Y-83522428D01*
X95377428Y-83522428D01*
X95353042Y-83524830D01*
X95348893Y-83526548D01*
X95344411Y-83526867D01*
X95321526Y-83535625D01*
X95178669Y-83607054D01*
X95168176Y-83613659D01*
X95165125Y-83614923D01*
X95161688Y-83617743D01*
X95157932Y-83620108D01*
X95155771Y-83622599D01*
X95146183Y-83630468D01*
X95003325Y-83773325D01*
X94987780Y-83792267D01*
X94984222Y-83800854D01*
X94978690Y-83808322D01*
X94970445Y-83831397D01*
X94899017Y-84117111D01*
X94898391Y-84121340D01*
X94897687Y-84123042D01*
X94896782Y-84132223D01*
X94895433Y-84141352D01*
X94895704Y-84143173D01*
X94895285Y-84147428D01*
X94288142Y-84147428D01*
X94288142Y-83772428D01*
X94591714Y-83772428D01*
X94616100Y-83770026D01*
X94661160Y-83751362D01*
X94695648Y-83716874D01*
X94714312Y-83671814D01*
X94714312Y-83623042D01*
X94695648Y-83577982D01*
X94661160Y-83543494D01*
X94616100Y-83524830D01*
X94591714Y-83522428D01*
X93734571Y-83522428D01*
X93710185Y-83524830D01*
X93665125Y-83543494D01*
X93630637Y-83577982D01*
X93611973Y-83623042D01*
X93445306Y-83623042D01*
X93445306Y-83355761D01*
X104097579Y-83355761D01*
X104097579Y-85439095D01*
G37*
D11*
X121962019Y-78057332D02*
X121962019Y-77390666D01*
X121962019Y-77390666D02*
X122962019Y-77819237D01*
X113827657Y-63245904D02*
X113780038Y-63198285D01*
X113780038Y-63198285D02*
X113732419Y-63103047D01*
X113732419Y-63103047D02*
X113732419Y-62864952D01*
X113732419Y-62864952D02*
X113780038Y-62769714D01*
X113780038Y-62769714D02*
X113827657Y-62722095D01*
X113827657Y-62722095D02*
X113922895Y-62674476D01*
X113922895Y-62674476D02*
X114018133Y-62674476D01*
X114018133Y-62674476D02*
X114160990Y-62722095D01*
X114160990Y-62722095D02*
X114732419Y-63293523D01*
X114732419Y-63293523D02*
X114732419Y-62674476D01*
X113732419Y-62055428D02*
X113732419Y-61960190D01*
X113732419Y-61960190D02*
X113780038Y-61864952D01*
X113780038Y-61864952D02*
X113827657Y-61817333D01*
X113827657Y-61817333D02*
X113922895Y-61769714D01*
X113922895Y-61769714D02*
X114113371Y-61722095D01*
X114113371Y-61722095D02*
X114351466Y-61722095D01*
X114351466Y-61722095D02*
X114541942Y-61769714D01*
X114541942Y-61769714D02*
X114637180Y-61817333D01*
X114637180Y-61817333D02*
X114684800Y-61864952D01*
X114684800Y-61864952D02*
X114732419Y-61960190D01*
X114732419Y-61960190D02*
X114732419Y-62055428D01*
X114732419Y-62055428D02*
X114684800Y-62150666D01*
X114684800Y-62150666D02*
X114637180Y-62198285D01*
X114637180Y-62198285D02*
X114541942Y-62245904D01*
X114541942Y-62245904D02*
X114351466Y-62293523D01*
X114351466Y-62293523D02*
X114113371Y-62293523D01*
X114113371Y-62293523D02*
X113922895Y-62245904D01*
X113922895Y-62245904D02*
X113827657Y-62198285D01*
X113827657Y-62198285D02*
X113780038Y-62150666D01*
X113780038Y-62150666D02*
X113732419Y-62055428D01*
X122962019Y-85058285D02*
X122962019Y-85629713D01*
X122962019Y-85343999D02*
X121962019Y-85343999D01*
X121962019Y-85343999D02*
X122104876Y-85439237D01*
X122104876Y-85439237D02*
X122200114Y-85534475D01*
X122200114Y-85534475D02*
X122247733Y-85629713D01*
X114065752Y-82613523D02*
X114732419Y-82613523D01*
X113684800Y-82851618D02*
X114399085Y-83089713D01*
X114399085Y-83089713D02*
X114399085Y-82470666D01*
X114732419Y-70294476D02*
X114732419Y-70865904D01*
X114732419Y-70580190D02*
X113732419Y-70580190D01*
X113732419Y-70580190D02*
X113875276Y-70675428D01*
X113875276Y-70675428D02*
X113970514Y-70770666D01*
X113970514Y-70770666D02*
X114018133Y-70865904D01*
X114065752Y-69437333D02*
X114732419Y-69437333D01*
X113684800Y-69675428D02*
X114399085Y-69913523D01*
X114399085Y-69913523D02*
X114399085Y-69294476D01*
X121962019Y-83137332D02*
X121962019Y-82518285D01*
X121962019Y-82518285D02*
X122342971Y-82851618D01*
X122342971Y-82851618D02*
X122342971Y-82708761D01*
X122342971Y-82708761D02*
X122390590Y-82613523D01*
X122390590Y-82613523D02*
X122438209Y-82565904D01*
X122438209Y-82565904D02*
X122533447Y-82518285D01*
X122533447Y-82518285D02*
X122771542Y-82518285D01*
X122771542Y-82518285D02*
X122866780Y-82565904D01*
X122866780Y-82565904D02*
X122914400Y-82613523D01*
X122914400Y-82613523D02*
X122962019Y-82708761D01*
X122962019Y-82708761D02*
X122962019Y-82994475D01*
X122962019Y-82994475D02*
X122914400Y-83089713D01*
X122914400Y-83089713D02*
X122866780Y-83137332D01*
X122962019Y-75374475D02*
X122962019Y-75183999D01*
X122962019Y-75183999D02*
X122914400Y-75088761D01*
X122914400Y-75088761D02*
X122866780Y-75041142D01*
X122866780Y-75041142D02*
X122723923Y-74945904D01*
X122723923Y-74945904D02*
X122533447Y-74898285D01*
X122533447Y-74898285D02*
X122152495Y-74898285D01*
X122152495Y-74898285D02*
X122057257Y-74945904D01*
X122057257Y-74945904D02*
X122009638Y-74993523D01*
X122009638Y-74993523D02*
X121962019Y-75088761D01*
X121962019Y-75088761D02*
X121962019Y-75279237D01*
X121962019Y-75279237D02*
X122009638Y-75374475D01*
X122009638Y-75374475D02*
X122057257Y-75422094D01*
X122057257Y-75422094D02*
X122152495Y-75469713D01*
X122152495Y-75469713D02*
X122390590Y-75469713D01*
X122390590Y-75469713D02*
X122485828Y-75422094D01*
X122485828Y-75422094D02*
X122533447Y-75374475D01*
X122533447Y-75374475D02*
X122581066Y-75279237D01*
X122581066Y-75279237D02*
X122581066Y-75088761D01*
X122581066Y-75088761D02*
X122533447Y-74993523D01*
X122533447Y-74993523D02*
X122485828Y-74945904D01*
X122485828Y-74945904D02*
X122390590Y-74898285D01*
X122962019Y-70294476D02*
X122962019Y-70865904D01*
X122962019Y-70580190D02*
X121962019Y-70580190D01*
X121962019Y-70580190D02*
X122104876Y-70675428D01*
X122104876Y-70675428D02*
X122200114Y-70770666D01*
X122200114Y-70770666D02*
X122247733Y-70865904D01*
X121962019Y-69961142D02*
X121962019Y-69342095D01*
X121962019Y-69342095D02*
X122342971Y-69675428D01*
X122342971Y-69675428D02*
X122342971Y-69532571D01*
X122342971Y-69532571D02*
X122390590Y-69437333D01*
X122390590Y-69437333D02*
X122438209Y-69389714D01*
X122438209Y-69389714D02*
X122533447Y-69342095D01*
X122533447Y-69342095D02*
X122771542Y-69342095D01*
X122771542Y-69342095D02*
X122866780Y-69389714D01*
X122866780Y-69389714D02*
X122914400Y-69437333D01*
X122914400Y-69437333D02*
X122962019Y-69532571D01*
X122962019Y-69532571D02*
X122962019Y-69818285D01*
X122962019Y-69818285D02*
X122914400Y-69913523D01*
X122914400Y-69913523D02*
X122866780Y-69961142D01*
X113827657Y-85629713D02*
X113780038Y-85582094D01*
X113780038Y-85582094D02*
X113732419Y-85486856D01*
X113732419Y-85486856D02*
X113732419Y-85248761D01*
X113732419Y-85248761D02*
X113780038Y-85153523D01*
X113780038Y-85153523D02*
X113827657Y-85105904D01*
X113827657Y-85105904D02*
X113922895Y-85058285D01*
X113922895Y-85058285D02*
X114018133Y-85058285D01*
X114018133Y-85058285D02*
X114160990Y-85105904D01*
X114160990Y-85105904D02*
X114732419Y-85677332D01*
X114732419Y-85677332D02*
X114732419Y-85058285D01*
X114160990Y-77819237D02*
X114113371Y-77914475D01*
X114113371Y-77914475D02*
X114065752Y-77962094D01*
X114065752Y-77962094D02*
X113970514Y-78009713D01*
X113970514Y-78009713D02*
X113922895Y-78009713D01*
X113922895Y-78009713D02*
X113827657Y-77962094D01*
X113827657Y-77962094D02*
X113780038Y-77914475D01*
X113780038Y-77914475D02*
X113732419Y-77819237D01*
X113732419Y-77819237D02*
X113732419Y-77628761D01*
X113732419Y-77628761D02*
X113780038Y-77533523D01*
X113780038Y-77533523D02*
X113827657Y-77485904D01*
X113827657Y-77485904D02*
X113922895Y-77438285D01*
X113922895Y-77438285D02*
X113970514Y-77438285D01*
X113970514Y-77438285D02*
X114065752Y-77485904D01*
X114065752Y-77485904D02*
X114113371Y-77533523D01*
X114113371Y-77533523D02*
X114160990Y-77628761D01*
X114160990Y-77628761D02*
X114160990Y-77819237D01*
X114160990Y-77819237D02*
X114208609Y-77914475D01*
X114208609Y-77914475D02*
X114256228Y-77962094D01*
X114256228Y-77962094D02*
X114351466Y-78009713D01*
X114351466Y-78009713D02*
X114541942Y-78009713D01*
X114541942Y-78009713D02*
X114637180Y-77962094D01*
X114637180Y-77962094D02*
X114684800Y-77914475D01*
X114684800Y-77914475D02*
X114732419Y-77819237D01*
X114732419Y-77819237D02*
X114732419Y-77628761D01*
X114732419Y-77628761D02*
X114684800Y-77533523D01*
X114684800Y-77533523D02*
X114637180Y-77485904D01*
X114637180Y-77485904D02*
X114541942Y-77438285D01*
X114541942Y-77438285D02*
X114351466Y-77438285D01*
X114351466Y-77438285D02*
X114256228Y-77485904D01*
X114256228Y-77485904D02*
X114208609Y-77533523D01*
X114208609Y-77533523D02*
X114160990Y-77628761D01*
X122962019Y-67754476D02*
X122962019Y-68325904D01*
X122962019Y-68040190D02*
X121962019Y-68040190D01*
X121962019Y-68040190D02*
X122104876Y-68135428D01*
X122104876Y-68135428D02*
X122200114Y-68230666D01*
X122200114Y-68230666D02*
X122247733Y-68325904D01*
X121962019Y-66849714D02*
X121962019Y-67325904D01*
X121962019Y-67325904D02*
X122438209Y-67373523D01*
X122438209Y-67373523D02*
X122390590Y-67325904D01*
X122390590Y-67325904D02*
X122342971Y-67230666D01*
X122342971Y-67230666D02*
X122342971Y-66992571D01*
X122342971Y-66992571D02*
X122390590Y-66897333D01*
X122390590Y-66897333D02*
X122438209Y-66849714D01*
X122438209Y-66849714D02*
X122533447Y-66802095D01*
X122533447Y-66802095D02*
X122771542Y-66802095D01*
X122771542Y-66802095D02*
X122866780Y-66849714D01*
X122866780Y-66849714D02*
X122914400Y-66897333D01*
X122914400Y-66897333D02*
X122962019Y-66992571D01*
X122962019Y-66992571D02*
X122962019Y-67230666D01*
X122962019Y-67230666D02*
X122914400Y-67325904D01*
X122914400Y-67325904D02*
X122866780Y-67373523D01*
X122962019Y-65214476D02*
X122962019Y-65785904D01*
X122962019Y-65500190D02*
X121962019Y-65500190D01*
X121962019Y-65500190D02*
X122104876Y-65595428D01*
X122104876Y-65595428D02*
X122200114Y-65690666D01*
X122200114Y-65690666D02*
X122247733Y-65785904D01*
X121962019Y-64881142D02*
X121962019Y-64214476D01*
X121962019Y-64214476D02*
X122962019Y-64643047D01*
X114732419Y-67754476D02*
X114732419Y-68325904D01*
X114732419Y-68040190D02*
X113732419Y-68040190D01*
X113732419Y-68040190D02*
X113875276Y-68135428D01*
X113875276Y-68135428D02*
X113970514Y-68230666D01*
X113970514Y-68230666D02*
X114018133Y-68325904D01*
X113732419Y-66897333D02*
X113732419Y-67087809D01*
X113732419Y-67087809D02*
X113780038Y-67183047D01*
X113780038Y-67183047D02*
X113827657Y-67230666D01*
X113827657Y-67230666D02*
X113970514Y-67325904D01*
X113970514Y-67325904D02*
X114160990Y-67373523D01*
X114160990Y-67373523D02*
X114541942Y-67373523D01*
X114541942Y-67373523D02*
X114637180Y-67325904D01*
X114637180Y-67325904D02*
X114684800Y-67278285D01*
X114684800Y-67278285D02*
X114732419Y-67183047D01*
X114732419Y-67183047D02*
X114732419Y-66992571D01*
X114732419Y-66992571D02*
X114684800Y-66897333D01*
X114684800Y-66897333D02*
X114637180Y-66849714D01*
X114637180Y-66849714D02*
X114541942Y-66802095D01*
X114541942Y-66802095D02*
X114303847Y-66802095D01*
X114303847Y-66802095D02*
X114208609Y-66849714D01*
X114208609Y-66849714D02*
X114160990Y-66897333D01*
X114160990Y-66897333D02*
X114113371Y-66992571D01*
X114113371Y-66992571D02*
X114113371Y-67183047D01*
X114113371Y-67183047D02*
X114160990Y-67278285D01*
X114160990Y-67278285D02*
X114208609Y-67325904D01*
X114208609Y-67325904D02*
X114303847Y-67373523D01*
X114732419Y-72834476D02*
X114732419Y-73405904D01*
X114732419Y-73120190D02*
X113732419Y-73120190D01*
X113732419Y-73120190D02*
X113875276Y-73215428D01*
X113875276Y-73215428D02*
X113970514Y-73310666D01*
X113970514Y-73310666D02*
X114018133Y-73405904D01*
X113827657Y-72453523D02*
X113780038Y-72405904D01*
X113780038Y-72405904D02*
X113732419Y-72310666D01*
X113732419Y-72310666D02*
X113732419Y-72072571D01*
X113732419Y-72072571D02*
X113780038Y-71977333D01*
X113780038Y-71977333D02*
X113827657Y-71929714D01*
X113827657Y-71929714D02*
X113922895Y-71882095D01*
X113922895Y-71882095D02*
X114018133Y-71882095D01*
X114018133Y-71882095D02*
X114160990Y-71929714D01*
X114160990Y-71929714D02*
X114732419Y-72501142D01*
X114732419Y-72501142D02*
X114732419Y-71882095D01*
X113732419Y-80073523D02*
X113732419Y-80263999D01*
X113732419Y-80263999D02*
X113780038Y-80359237D01*
X113780038Y-80359237D02*
X113827657Y-80406856D01*
X113827657Y-80406856D02*
X113970514Y-80502094D01*
X113970514Y-80502094D02*
X114160990Y-80549713D01*
X114160990Y-80549713D02*
X114541942Y-80549713D01*
X114541942Y-80549713D02*
X114637180Y-80502094D01*
X114637180Y-80502094D02*
X114684800Y-80454475D01*
X114684800Y-80454475D02*
X114732419Y-80359237D01*
X114732419Y-80359237D02*
X114732419Y-80168761D01*
X114732419Y-80168761D02*
X114684800Y-80073523D01*
X114684800Y-80073523D02*
X114637180Y-80025904D01*
X114637180Y-80025904D02*
X114541942Y-79978285D01*
X114541942Y-79978285D02*
X114303847Y-79978285D01*
X114303847Y-79978285D02*
X114208609Y-80025904D01*
X114208609Y-80025904D02*
X114160990Y-80073523D01*
X114160990Y-80073523D02*
X114113371Y-80168761D01*
X114113371Y-80168761D02*
X114113371Y-80359237D01*
X114113371Y-80359237D02*
X114160990Y-80454475D01*
X114160990Y-80454475D02*
X114208609Y-80502094D01*
X114208609Y-80502094D02*
X114303847Y-80549713D01*
X137076666Y-87544819D02*
X137076666Y-88259104D01*
X137076666Y-88259104D02*
X137029047Y-88401961D01*
X137029047Y-88401961D02*
X136933809Y-88497200D01*
X136933809Y-88497200D02*
X136790952Y-88544819D01*
X136790952Y-88544819D02*
X136695714Y-88544819D01*
X138076666Y-88544819D02*
X137505238Y-88544819D01*
X137790952Y-88544819D02*
X137790952Y-87544819D01*
X137790952Y-87544819D02*
X137695714Y-87687676D01*
X137695714Y-87687676D02*
X137600476Y-87782914D01*
X137600476Y-87782914D02*
X137505238Y-87830533D01*
X122962019Y-72834476D02*
X122962019Y-73405904D01*
X122962019Y-73120190D02*
X121962019Y-73120190D01*
X121962019Y-73120190D02*
X122104876Y-73215428D01*
X122104876Y-73215428D02*
X122200114Y-73310666D01*
X122200114Y-73310666D02*
X122247733Y-73405904D01*
X122962019Y-71882095D02*
X122962019Y-72453523D01*
X122962019Y-72167809D02*
X121962019Y-72167809D01*
X121962019Y-72167809D02*
X122104876Y-72263047D01*
X122104876Y-72263047D02*
X122200114Y-72358285D01*
X122200114Y-72358285D02*
X122247733Y-72453523D01*
X121962019Y-80025904D02*
X121962019Y-80502094D01*
X121962019Y-80502094D02*
X122438209Y-80549713D01*
X122438209Y-80549713D02*
X122390590Y-80502094D01*
X122390590Y-80502094D02*
X122342971Y-80406856D01*
X122342971Y-80406856D02*
X122342971Y-80168761D01*
X122342971Y-80168761D02*
X122390590Y-80073523D01*
X122390590Y-80073523D02*
X122438209Y-80025904D01*
X122438209Y-80025904D02*
X122533447Y-79978285D01*
X122533447Y-79978285D02*
X122771542Y-79978285D01*
X122771542Y-79978285D02*
X122866780Y-80025904D01*
X122866780Y-80025904D02*
X122914400Y-80073523D01*
X122914400Y-80073523D02*
X122962019Y-80168761D01*
X122962019Y-80168761D02*
X122962019Y-80406856D01*
X122962019Y-80406856D02*
X122914400Y-80502094D01*
X122914400Y-80502094D02*
X122866780Y-80549713D01*
X122962019Y-62674476D02*
X122962019Y-63245904D01*
X122962019Y-62960190D02*
X121962019Y-62960190D01*
X121962019Y-62960190D02*
X122104876Y-63055428D01*
X122104876Y-63055428D02*
X122200114Y-63150666D01*
X122200114Y-63150666D02*
X122247733Y-63245904D01*
X122962019Y-62198285D02*
X122962019Y-62007809D01*
X122962019Y-62007809D02*
X122914400Y-61912571D01*
X122914400Y-61912571D02*
X122866780Y-61864952D01*
X122866780Y-61864952D02*
X122723923Y-61769714D01*
X122723923Y-61769714D02*
X122533447Y-61722095D01*
X122533447Y-61722095D02*
X122152495Y-61722095D01*
X122152495Y-61722095D02*
X122057257Y-61769714D01*
X122057257Y-61769714D02*
X122009638Y-61817333D01*
X122009638Y-61817333D02*
X121962019Y-61912571D01*
X121962019Y-61912571D02*
X121962019Y-62103047D01*
X121962019Y-62103047D02*
X122009638Y-62198285D01*
X122009638Y-62198285D02*
X122057257Y-62245904D01*
X122057257Y-62245904D02*
X122152495Y-62293523D01*
X122152495Y-62293523D02*
X122390590Y-62293523D01*
X122390590Y-62293523D02*
X122485828Y-62245904D01*
X122485828Y-62245904D02*
X122533447Y-62198285D01*
X122533447Y-62198285D02*
X122581066Y-62103047D01*
X122581066Y-62103047D02*
X122581066Y-61912571D01*
X122581066Y-61912571D02*
X122533447Y-61817333D01*
X122533447Y-61817333D02*
X122485828Y-61769714D01*
X122485828Y-61769714D02*
X122390590Y-61722095D01*
X114732419Y-65214476D02*
X114732419Y-65785904D01*
X114732419Y-65500190D02*
X113732419Y-65500190D01*
X113732419Y-65500190D02*
X113875276Y-65595428D01*
X113875276Y-65595428D02*
X113970514Y-65690666D01*
X113970514Y-65690666D02*
X114018133Y-65785904D01*
X114160990Y-64643047D02*
X114113371Y-64738285D01*
X114113371Y-64738285D02*
X114065752Y-64785904D01*
X114065752Y-64785904D02*
X113970514Y-64833523D01*
X113970514Y-64833523D02*
X113922895Y-64833523D01*
X113922895Y-64833523D02*
X113827657Y-64785904D01*
X113827657Y-64785904D02*
X113780038Y-64738285D01*
X113780038Y-64738285D02*
X113732419Y-64643047D01*
X113732419Y-64643047D02*
X113732419Y-64452571D01*
X113732419Y-64452571D02*
X113780038Y-64357333D01*
X113780038Y-64357333D02*
X113827657Y-64309714D01*
X113827657Y-64309714D02*
X113922895Y-64262095D01*
X113922895Y-64262095D02*
X113970514Y-64262095D01*
X113970514Y-64262095D02*
X114065752Y-64309714D01*
X114065752Y-64309714D02*
X114113371Y-64357333D01*
X114113371Y-64357333D02*
X114160990Y-64452571D01*
X114160990Y-64452571D02*
X114160990Y-64643047D01*
X114160990Y-64643047D02*
X114208609Y-64738285D01*
X114208609Y-64738285D02*
X114256228Y-64785904D01*
X114256228Y-64785904D02*
X114351466Y-64833523D01*
X114351466Y-64833523D02*
X114541942Y-64833523D01*
X114541942Y-64833523D02*
X114637180Y-64785904D01*
X114637180Y-64785904D02*
X114684800Y-64738285D01*
X114684800Y-64738285D02*
X114732419Y-64643047D01*
X114732419Y-64643047D02*
X114732419Y-64452571D01*
X114732419Y-64452571D02*
X114684800Y-64357333D01*
X114684800Y-64357333D02*
X114637180Y-64309714D01*
X114637180Y-64309714D02*
X114541942Y-64262095D01*
X114541942Y-64262095D02*
X114351466Y-64262095D01*
X114351466Y-64262095D02*
X114256228Y-64309714D01*
X114256228Y-64309714D02*
X114208609Y-64357333D01*
X114208609Y-64357333D02*
X114160990Y-64452571D01*
X114732419Y-75374476D02*
X114732419Y-75945904D01*
X114732419Y-75660190D02*
X113732419Y-75660190D01*
X113732419Y-75660190D02*
X113875276Y-75755428D01*
X113875276Y-75755428D02*
X113970514Y-75850666D01*
X113970514Y-75850666D02*
X114018133Y-75945904D01*
X113732419Y-74755428D02*
X113732419Y-74660190D01*
X113732419Y-74660190D02*
X113780038Y-74564952D01*
X113780038Y-74564952D02*
X113827657Y-74517333D01*
X113827657Y-74517333D02*
X113922895Y-74469714D01*
X113922895Y-74469714D02*
X114113371Y-74422095D01*
X114113371Y-74422095D02*
X114351466Y-74422095D01*
X114351466Y-74422095D02*
X114541942Y-74469714D01*
X114541942Y-74469714D02*
X114637180Y-74517333D01*
X114637180Y-74517333D02*
X114684800Y-74564952D01*
X114684800Y-74564952D02*
X114732419Y-74660190D01*
X114732419Y-74660190D02*
X114732419Y-74755428D01*
X114732419Y-74755428D02*
X114684800Y-74850666D01*
X114684800Y-74850666D02*
X114637180Y-74898285D01*
X114637180Y-74898285D02*
X114541942Y-74945904D01*
X114541942Y-74945904D02*
X114351466Y-74993523D01*
X114351466Y-74993523D02*
X114113371Y-74993523D01*
X114113371Y-74993523D02*
X113922895Y-74945904D01*
X113922895Y-74945904D02*
X113827657Y-74898285D01*
X113827657Y-74898285D02*
X113780038Y-74850666D01*
X113780038Y-74850666D02*
X113732419Y-74755428D01*
D12*
%TO.C,7*%
X123205200Y-76774000D02*
X125105200Y-76774000D01*
X123205200Y-78674000D02*
X123205200Y-76774000D01*
X125105200Y-76774000D02*
X125105200Y-78674000D01*
X125105200Y-78674000D02*
X123205200Y-78674000D01*
%TO.C,20*%
X114975600Y-61534000D02*
X116875600Y-61534000D01*
X114975600Y-63434000D02*
X114975600Y-61534000D01*
X116875600Y-61534000D02*
X116875600Y-63434000D01*
X116875600Y-63434000D02*
X114975600Y-63434000D01*
%TO.C,1*%
X123205200Y-84394000D02*
X125105200Y-84394000D01*
X123205200Y-86294000D02*
X123205200Y-84394000D01*
X125105200Y-84394000D02*
X125105200Y-86294000D01*
X125105200Y-86294000D02*
X123205200Y-86294000D01*
%TO.C,4*%
X114975600Y-81854000D02*
X116875600Y-81854000D01*
X114975600Y-83754000D02*
X114975600Y-81854000D01*
X116875600Y-81854000D02*
X116875600Y-83754000D01*
X116875600Y-83754000D02*
X114975600Y-83754000D01*
%TO.C,14*%
X114975600Y-69154000D02*
X116875600Y-69154000D01*
X114975600Y-71054000D02*
X114975600Y-69154000D01*
X116875600Y-69154000D02*
X116875600Y-71054000D01*
X116875600Y-71054000D02*
X114975600Y-71054000D01*
%TO.C,3*%
X123205200Y-81854000D02*
X125105200Y-81854000D01*
X123205200Y-83754000D02*
X123205200Y-81854000D01*
X125105200Y-81854000D02*
X125105200Y-83754000D01*
X125105200Y-83754000D02*
X123205200Y-83754000D01*
%TO.C,9*%
X123205200Y-74234000D02*
X125105200Y-74234000D01*
X123205200Y-76134000D02*
X123205200Y-74234000D01*
X125105200Y-74234000D02*
X125105200Y-76134000D01*
X125105200Y-76134000D02*
X123205200Y-76134000D01*
%TO.C,13*%
X123205200Y-69154000D02*
X125105200Y-69154000D01*
X123205200Y-71054000D02*
X123205200Y-69154000D01*
X125105200Y-69154000D02*
X125105200Y-71054000D01*
X125105200Y-71054000D02*
X123205200Y-71054000D01*
D13*
%TO.C,G1*%
G36*
X98923133Y-77837980D02*
G01*
X98923133Y-77901052D01*
X98801494Y-77901052D01*
X98679855Y-77901052D01*
X98679855Y-77837980D01*
X98679855Y-77774908D01*
X98801494Y-77774908D01*
X98923133Y-77774908D01*
X98923133Y-77837980D01*
G37*
G36*
X99148390Y-77306373D02*
G01*
X99148390Y-77369445D01*
X98801494Y-77369445D01*
X98454598Y-77369445D01*
X98454598Y-77306373D01*
X98454598Y-77243301D01*
X98801494Y-77243301D01*
X99148390Y-77243301D01*
X99148390Y-77306373D01*
G37*
G36*
X99022246Y-77572176D02*
G01*
X99022246Y-77639753D01*
X98801494Y-77639753D01*
X98580742Y-77639753D01*
X98580742Y-77578103D01*
X98580742Y-77516453D01*
X98744371Y-77510526D01*
X98801645Y-77508568D01*
X98857089Y-77506883D01*
X98906399Y-77505586D01*
X98945268Y-77504794D01*
X98965124Y-77504599D01*
X99022246Y-77504599D01*
X99022246Y-77572176D01*
G37*
G36*
X98683072Y-76973226D02*
G01*
X98771067Y-76973882D01*
X98860559Y-76974894D01*
X98946313Y-76976196D01*
X99023094Y-76977722D01*
X99070346Y-76978935D01*
X99274534Y-76984877D01*
X99274534Y-77042007D01*
X99274534Y-77099136D01*
X99104809Y-77099136D01*
X99051703Y-77099333D01*
X98984600Y-77099891D01*
X98907520Y-77100757D01*
X98824485Y-77101882D01*
X98739512Y-77103213D01*
X98656623Y-77104700D01*
X98636274Y-77105099D01*
X98337464Y-77111061D01*
X98337464Y-77042027D01*
X98337464Y-76972992D01*
X98601811Y-76972992D01*
X98683072Y-76973226D01*
G37*
G36*
X96794226Y-72720571D02*
G01*
X96850395Y-72721764D01*
X96893784Y-72724394D01*
X96927010Y-72728941D01*
X96952690Y-72735882D01*
X96973441Y-72745699D01*
X96991879Y-72758870D01*
X97007019Y-72772424D01*
X97028145Y-72796646D01*
X97048272Y-72826083D01*
X97052071Y-72832765D01*
X97071519Y-72868806D01*
X97071186Y-74634823D01*
X97071121Y-74854612D01*
X97071011Y-75057005D01*
X97070851Y-75242625D01*
X97070638Y-75412096D01*
X97070366Y-75566041D01*
X97070033Y-75705085D01*
X97069635Y-75829851D01*
X97069167Y-75940964D01*
X97068626Y-76039046D01*
X97068007Y-76124722D01*
X97067306Y-76198616D01*
X97066520Y-76261351D01*
X97065645Y-76313551D01*
X97064676Y-76355840D01*
X97063610Y-76388841D01*
X97062443Y-76413179D01*
X97061170Y-76429478D01*
X97059788Y-76438361D01*
X97059686Y-76438723D01*
X97035596Y-76489418D01*
X96996654Y-76531084D01*
X96964514Y-76552156D01*
X96950758Y-76558912D01*
X96936373Y-76563978D01*
X96918558Y-76567625D01*
X96894509Y-76570123D01*
X96861423Y-76571742D01*
X96816497Y-76572752D01*
X96756928Y-76573424D01*
X96742643Y-76573544D01*
X96683782Y-76573652D01*
X96628403Y-76573064D01*
X96580028Y-76571870D01*
X96542176Y-76570162D01*
X96518370Y-76568030D01*
X96516512Y-76567730D01*
X96464872Y-76553549D01*
X96426627Y-76530704D01*
X96398870Y-76497918D01*
X96377727Y-76463911D01*
X96377727Y-74679874D01*
X96377763Y-74501423D01*
X96377869Y-74327525D01*
X96378043Y-74159060D01*
X96378279Y-73996906D01*
X96378575Y-73841944D01*
X96378927Y-73695052D01*
X96379332Y-73557110D01*
X96379786Y-73428998D01*
X96380285Y-73311594D01*
X96380827Y-73205779D01*
X96381407Y-73112431D01*
X96382022Y-73032431D01*
X96382669Y-72966657D01*
X96383344Y-72915989D01*
X96384043Y-72881306D01*
X96384763Y-72863488D01*
X96384993Y-72861511D01*
X96399465Y-72826680D01*
X96426001Y-72790630D01*
X96459885Y-72758706D01*
X96494860Y-72736947D01*
X96509205Y-72731363D01*
X96526160Y-72727176D01*
X96548420Y-72724190D01*
X96578681Y-72722209D01*
X96619639Y-72721035D01*
X96673988Y-72720472D01*
X96722660Y-72720334D01*
X96794226Y-72720571D01*
G37*
G36*
X100960667Y-72729328D02*
G01*
X101025069Y-72730103D01*
X101075614Y-72731914D01*
X101114385Y-72735190D01*
X101143464Y-72740357D01*
X101164932Y-72747843D01*
X101180872Y-72758076D01*
X101193365Y-72771484D01*
X101204493Y-72788494D01*
X101209209Y-72796724D01*
X101229470Y-72832765D01*
X101229618Y-74642173D01*
X101229607Y-74872113D01*
X101229532Y-75084487D01*
X101229390Y-75279750D01*
X101229181Y-75458357D01*
X101228900Y-75620762D01*
X101228546Y-75767421D01*
X101228115Y-75898787D01*
X101227606Y-76015316D01*
X101227016Y-76117463D01*
X101226343Y-76205682D01*
X101225584Y-76280428D01*
X101224736Y-76342155D01*
X101223798Y-76391319D01*
X101222766Y-76428374D01*
X101221638Y-76453775D01*
X101220412Y-76467977D01*
X101219655Y-76471261D01*
X101197052Y-76503734D01*
X101165539Y-76535310D01*
X101135158Y-76556923D01*
X101123663Y-76561807D01*
X101107638Y-76565598D01*
X101084743Y-76568460D01*
X101052640Y-76570557D01*
X101008991Y-76572054D01*
X100951456Y-76573117D01*
X100896386Y-76573741D01*
X100831131Y-76573963D01*
X100772158Y-76573404D01*
X100722148Y-76572141D01*
X100683787Y-76570253D01*
X100659757Y-76567815D01*
X100655013Y-76566783D01*
X100622520Y-76549912D01*
X100589874Y-76521606D01*
X100562504Y-76487564D01*
X100545840Y-76453484D01*
X100545330Y-76451677D01*
X100544069Y-76439871D01*
X100542924Y-76414058D01*
X100541893Y-76373958D01*
X100540975Y-76319287D01*
X100540168Y-76249765D01*
X100539473Y-76165109D01*
X100538888Y-76065038D01*
X100538410Y-75949270D01*
X100538041Y-75817523D01*
X100537778Y-75669517D01*
X100537620Y-75504967D01*
X100537566Y-75323595D01*
X100537616Y-75125116D01*
X100537767Y-74909250D01*
X100538019Y-74675715D01*
X100538097Y-74615356D01*
X100538382Y-74403294D01*
X100538660Y-74208506D01*
X100538937Y-74030246D01*
X100539221Y-73867767D01*
X100539520Y-73720322D01*
X100539841Y-73587165D01*
X100540192Y-73467549D01*
X100540581Y-73360728D01*
X100541015Y-73265955D01*
X100541502Y-73182483D01*
X100542050Y-73109567D01*
X100542666Y-73046459D01*
X100543358Y-72992413D01*
X100544134Y-72946682D01*
X100545000Y-72908520D01*
X100545966Y-72877181D01*
X100547038Y-72851917D01*
X100548224Y-72831983D01*
X100549532Y-72816631D01*
X100550969Y-72805115D01*
X100552544Y-72796688D01*
X100554263Y-72790605D01*
X100556134Y-72786118D01*
X100556846Y-72784751D01*
X100566180Y-72769426D01*
X100576988Y-72757198D01*
X100591290Y-72747721D01*
X100611106Y-72740646D01*
X100638456Y-72735627D01*
X100675360Y-72732316D01*
X100723838Y-72730367D01*
X100785910Y-72729432D01*
X100863596Y-72729165D01*
X100880328Y-72729161D01*
X100960667Y-72729328D01*
G37*
G36*
X99016202Y-69932649D02*
G01*
X99265589Y-69956295D01*
X99515774Y-69997462D01*
X99767185Y-70056123D01*
X100020254Y-70132252D01*
X100166552Y-70183876D01*
X100262690Y-70221175D01*
X100364567Y-70263545D01*
X100469259Y-70309578D01*
X100573844Y-70357868D01*
X100675397Y-70407005D01*
X100770997Y-70455583D01*
X100857718Y-70502195D01*
X100932638Y-70545432D01*
X100981488Y-70576231D01*
X101117648Y-70675836D01*
X101245758Y-70787836D01*
X101364269Y-70910271D01*
X101471630Y-71041183D01*
X101566294Y-71178611D01*
X101646710Y-71320595D01*
X101711329Y-71465175D01*
X101734103Y-71528342D01*
X101746659Y-71565972D01*
X101757520Y-71599369D01*
X101766816Y-71630118D01*
X101774679Y-71659802D01*
X101781239Y-71690006D01*
X101786628Y-71722315D01*
X101790976Y-71758314D01*
X101794414Y-71799587D01*
X101797073Y-71847719D01*
X101799084Y-71904294D01*
X101800577Y-71970897D01*
X101801684Y-72049112D01*
X101802535Y-72140525D01*
X101803262Y-72246718D01*
X101803995Y-72369278D01*
X101804029Y-72375037D01*
X101807577Y-72971512D01*
X101876830Y-73011560D01*
X101965376Y-73067967D01*
X102058426Y-73136789D01*
X102151742Y-73214682D01*
X102241085Y-73298302D01*
X102243902Y-73301107D01*
X102370209Y-73439325D01*
X102480789Y-73586342D01*
X102575636Y-73742144D01*
X102654743Y-73906718D01*
X102718104Y-74080050D01*
X102765711Y-74262129D01*
X102780374Y-74337594D01*
X102789886Y-74407039D01*
X102796760Y-74489091D01*
X102800911Y-74578588D01*
X102802254Y-74670371D01*
X102800703Y-74759278D01*
X102796175Y-74840147D01*
X102789650Y-74900626D01*
X102759860Y-75059410D01*
X102716449Y-75217769D01*
X102660847Y-75371719D01*
X102594485Y-75517274D01*
X102522884Y-75643975D01*
X102420956Y-75792011D01*
X102309140Y-75926670D01*
X102185499Y-76049948D01*
X102048092Y-76163844D01*
X101950720Y-76233628D01*
X101856976Y-76297221D01*
X101570559Y-76297221D01*
X101284142Y-76297221D01*
X101281733Y-74064922D01*
X101279323Y-71832623D01*
X101253601Y-71756036D01*
X101220315Y-71666276D01*
X101182434Y-71583514D01*
X101137427Y-71503187D01*
X101082763Y-71420730D01*
X101023712Y-71341563D01*
X100954367Y-71259569D01*
X100873059Y-71175350D01*
X100784139Y-71092802D01*
X100691956Y-71015826D01*
X100600860Y-70948319D01*
X100542763Y-70910431D01*
X100483329Y-70875795D01*
X100421454Y-70843441D01*
X100353347Y-70811590D01*
X100275218Y-70778465D01*
X100188947Y-70744458D01*
X99992390Y-70672272D01*
X99807236Y-70611093D01*
X99631122Y-70560301D01*
X99461688Y-70519269D01*
X99296573Y-70487377D01*
X99133415Y-70463999D01*
X99121359Y-70462591D01*
X99046019Y-70456102D01*
X98957351Y-70452046D01*
X98859714Y-70450343D01*
X98757466Y-70450915D01*
X98654965Y-70453682D01*
X98556571Y-70458565D01*
X98466642Y-70465486D01*
X98389537Y-70474365D01*
X98378010Y-70476064D01*
X98225932Y-70502733D01*
X98071913Y-70536662D01*
X97913228Y-70578608D01*
X97747155Y-70629323D01*
X97570970Y-70689565D01*
X97458961Y-70730712D01*
X97327026Y-70783064D01*
X97209992Y-70835802D01*
X97104804Y-70890826D01*
X97008406Y-70950035D01*
X96917743Y-71015326D01*
X96829759Y-71088601D01*
X96741399Y-71171756D01*
X96728318Y-71184803D01*
X96617734Y-71305133D01*
X96524336Y-71427110D01*
X96447293Y-71552034D01*
X96385775Y-71681207D01*
X96351762Y-71774056D01*
X96332785Y-71832623D01*
X96330337Y-74064922D01*
X96327890Y-76297221D01*
X96041515Y-76297221D01*
X95755139Y-76297221D01*
X95656465Y-76230353D01*
X95504108Y-76116971D01*
X95366437Y-75993199D01*
X95243237Y-75858779D01*
X95134292Y-75713455D01*
X95039388Y-75556968D01*
X94965287Y-75405202D01*
X94900139Y-75234383D01*
X94852257Y-75060365D01*
X94821422Y-74884312D01*
X94807414Y-74707385D01*
X94810017Y-74530750D01*
X94829009Y-74355569D01*
X94864174Y-74183006D01*
X94915291Y-74014224D01*
X94982143Y-73850386D01*
X95064510Y-73692657D01*
X95162173Y-73542199D01*
X95274914Y-73400176D01*
X95359364Y-73309730D01*
X95424839Y-73245734D01*
X95484339Y-73191859D01*
X95542949Y-73143996D01*
X95605753Y-73098037D01*
X95677833Y-73049874D01*
X95692945Y-73040168D01*
X95801068Y-72971077D01*
X95806425Y-72370314D01*
X95807508Y-72251107D01*
X95808510Y-72148466D01*
X95809485Y-72060933D01*
X95810485Y-71987055D01*
X95811563Y-71925376D01*
X95812772Y-71874440D01*
X95814166Y-71832792D01*
X95815797Y-71798977D01*
X95817718Y-71771539D01*
X95819982Y-71749023D01*
X95822643Y-71729975D01*
X95825753Y-71712937D01*
X95829366Y-71696456D01*
X95831260Y-71688459D01*
X95879718Y-71524773D01*
X95945197Y-71364980D01*
X96026872Y-71210470D01*
X96123918Y-71062633D01*
X96235511Y-70922857D01*
X96360826Y-70792533D01*
X96365970Y-70787671D01*
X96431089Y-70728375D01*
X96495165Y-70674648D01*
X96560781Y-70624813D01*
X96630521Y-70577195D01*
X96706969Y-70530115D01*
X96792708Y-70481898D01*
X96890324Y-70430866D01*
X96998225Y-70377370D01*
X97256709Y-70259907D01*
X97512552Y-70160174D01*
X97766183Y-70078145D01*
X98018031Y-70013795D01*
X98268527Y-69967097D01*
X98518101Y-69938024D01*
X98767183Y-69926551D01*
X99016202Y-69932649D01*
G37*
G36*
X98906029Y-71287570D02*
G01*
X99001523Y-71287769D01*
X99090022Y-71288087D01*
X99170032Y-71288511D01*
X99240057Y-71289030D01*
X99298603Y-71289632D01*
X99344174Y-71290305D01*
X99375276Y-71291038D01*
X99390412Y-71291819D01*
X99391668Y-71292122D01*
X99387443Y-71300634D01*
X99375276Y-71323536D01*
X99355923Y-71359434D01*
X99330143Y-71406939D01*
X99298695Y-71464657D01*
X99262336Y-71531197D01*
X99221825Y-71605168D01*
X99177919Y-71685178D01*
X99134875Y-71763479D01*
X98878081Y-72230215D01*
X98878081Y-72840092D01*
X98878081Y-73449970D01*
X98857808Y-73450174D01*
X98841239Y-73450929D01*
X98810966Y-73452836D01*
X98771251Y-73455609D01*
X98726351Y-73458963D01*
X98724906Y-73459075D01*
X98635655Y-73467449D01*
X98562667Y-73477747D01*
X98504248Y-73490423D01*
X98458701Y-73505928D01*
X98424331Y-73524715D01*
X98400956Y-73545476D01*
X98384164Y-73569053D01*
X98374460Y-73591295D01*
X98373505Y-73597905D01*
X98381434Y-73619534D01*
X98403418Y-73645374D01*
X98436758Y-73673007D01*
X98478752Y-73700015D01*
X98500713Y-73711805D01*
X98525317Y-73723551D01*
X98547189Y-73731420D01*
X98569433Y-73735256D01*
X98595150Y-73734902D01*
X98627443Y-73730202D01*
X98669414Y-73720999D01*
X98724165Y-73707136D01*
X98755286Y-73698942D01*
X98862725Y-73674218D01*
X98964244Y-73658197D01*
X99057964Y-73650924D01*
X99142001Y-73652444D01*
X99214475Y-73662804D01*
X99273504Y-73682047D01*
X99282124Y-73686235D01*
X99325544Y-73716901D01*
X99354273Y-73754701D01*
X99368711Y-73796918D01*
X99369255Y-73840834D01*
X99356304Y-73883731D01*
X99330256Y-73922890D01*
X99291509Y-73955595D01*
X99240462Y-73979126D01*
X99239143Y-73979538D01*
X99212388Y-73986301D01*
X99181338Y-73990740D01*
X99142104Y-73993159D01*
X99090793Y-73993863D01*
X99058287Y-73993654D01*
X98994695Y-73992088D01*
X98939260Y-73988378D01*
X98887182Y-73981711D01*
X98833662Y-73971276D01*
X98773899Y-73956262D01*
X98703094Y-73935857D01*
X98686283Y-73930784D01*
X98580082Y-73898554D01*
X98506077Y-73934141D01*
X98450701Y-73963207D01*
X98409441Y-73990155D01*
X98383369Y-74014165D01*
X98373556Y-74034415D01*
X98373505Y-74035783D01*
X98381552Y-74054153D01*
X98404174Y-74077096D01*
X98439092Y-74102805D01*
X98484029Y-74129473D01*
X98505940Y-74140823D01*
X98533567Y-74154397D01*
X98554945Y-74163138D01*
X98574258Y-74167029D01*
X98595688Y-74166049D01*
X98623417Y-74160180D01*
X98661629Y-74149403D01*
X98693370Y-74139964D01*
X98775491Y-74118491D01*
X98861093Y-74101448D01*
X98946882Y-74089110D01*
X99029561Y-74081752D01*
X99105834Y-74079648D01*
X99172406Y-74083074D01*
X99225979Y-74092303D01*
X99234737Y-74094836D01*
X99289016Y-74118941D01*
X99330316Y-74151686D01*
X99357850Y-74190812D01*
X99370834Y-74234059D01*
X99368480Y-74279170D01*
X99350003Y-74323884D01*
X99325414Y-74355466D01*
X99292400Y-74383708D01*
X99253783Y-74404034D01*
X99206537Y-74417320D01*
X99147636Y-74424444D01*
X99080813Y-74426309D01*
X99005145Y-74424143D01*
X98933712Y-74417346D01*
X98860750Y-74405038D01*
X98780497Y-74386339D01*
X98730502Y-74372827D01*
X98668806Y-74356420D01*
X98620228Y-74346313D01*
X98580948Y-74342645D01*
X98547151Y-74345554D01*
X98515017Y-74355178D01*
X98480731Y-74371657D01*
X98461457Y-74382585D01*
X98416709Y-74410794D01*
X98388483Y-74434571D01*
X98376467Y-74455916D01*
X98380348Y-74476826D01*
X98399815Y-74499301D01*
X98434554Y-74525339D01*
X98438723Y-74528127D01*
X98478262Y-74553576D01*
X98511125Y-74571541D01*
X98541078Y-74582367D01*
X98571885Y-74586402D01*
X98607311Y-74583992D01*
X98651120Y-74575483D01*
X98707078Y-74561221D01*
X98730184Y-74554947D01*
X98819206Y-74532333D01*
X98897768Y-74516512D01*
X98971708Y-74506596D01*
X99046867Y-74501694D01*
X99085318Y-74500858D01*
X99160417Y-74503418D01*
X99221448Y-74513220D01*
X99271152Y-74531002D01*
X99312265Y-74557503D01*
X99319872Y-74564071D01*
X99350859Y-74602665D01*
X99367404Y-74646728D01*
X99369949Y-74692639D01*
X99358936Y-74736772D01*
X99334806Y-74775506D01*
X99298002Y-74805217D01*
X99289962Y-74809377D01*
X99253823Y-74824885D01*
X99218189Y-74835679D01*
X99179055Y-74842295D01*
X99132415Y-74845271D01*
X99074262Y-74845144D01*
X99032964Y-74843832D01*
X98957556Y-74839677D01*
X98891527Y-74832883D01*
X98828657Y-74822376D01*
X98762727Y-74807081D01*
X98687518Y-74785921D01*
X98673396Y-74781674D01*
X98632392Y-74769430D01*
X98604218Y-74762040D01*
X98584474Y-74759088D01*
X98568756Y-74760157D01*
X98552663Y-74764831D01*
X98541090Y-74769156D01*
X98504756Y-74785649D01*
X98466560Y-74807236D01*
X98430771Y-74831015D01*
X98401659Y-74854084D01*
X98383491Y-74873541D01*
X98380882Y-74878088D01*
X98375577Y-74895898D01*
X98381083Y-74910857D01*
X98391732Y-74923371D01*
X98408847Y-74937151D01*
X98437515Y-74955735D01*
X98473018Y-74976181D01*
X98494939Y-74987761D01*
X98576945Y-75029585D01*
X98672148Y-75000711D01*
X98781556Y-74970460D01*
X98882063Y-74949247D01*
X98979659Y-74935962D01*
X99050067Y-74930754D01*
X99100105Y-74928614D01*
X99137224Y-74928344D01*
X99166462Y-74930333D01*
X99192861Y-74934969D01*
X99221460Y-74942642D01*
X99227479Y-74944451D01*
X99286486Y-74969282D01*
X99330758Y-75003115D01*
X99359695Y-75045263D01*
X99372700Y-75095034D01*
X99373399Y-75112368D01*
X99365396Y-75149265D01*
X99344603Y-75186513D01*
X99314990Y-75217845D01*
X99299918Y-75228303D01*
X99246052Y-75253228D01*
X99183606Y-75269426D01*
X99111419Y-75276870D01*
X99028333Y-75275536D01*
X98933186Y-75265397D01*
X98824818Y-75246429D01*
X98702070Y-75218604D01*
X98686504Y-75214716D01*
X98639614Y-75203021D01*
X98606256Y-75195420D01*
X98582493Y-75191579D01*
X98564388Y-75191161D01*
X98548006Y-75193830D01*
X98529411Y-75199251D01*
X98524319Y-75200880D01*
X98467733Y-75223199D01*
X98421994Y-75249737D01*
X98390540Y-75278465D01*
X98388599Y-75280992D01*
X98377421Y-75299167D01*
X98375294Y-75316251D01*
X98381137Y-75341082D01*
X98381213Y-75341337D01*
X98401213Y-75379925D01*
X98436316Y-75411904D01*
X98486864Y-75437385D01*
X98553199Y-75456481D01*
X98635662Y-75469304D01*
X98734596Y-75475966D01*
X98794736Y-75477040D01*
X98869071Y-75477284D01*
X98869071Y-76089984D01*
X98869071Y-76702684D01*
X99134875Y-76702684D01*
X99400678Y-76702684D01*
X99400678Y-76770261D01*
X99400678Y-76837838D01*
X98805999Y-76837838D01*
X98211320Y-76837838D01*
X98211320Y-76770261D01*
X98211320Y-76702684D01*
X98468113Y-76702684D01*
X98724906Y-76702684D01*
X98724906Y-76158891D01*
X98724906Y-75615099D01*
X98641561Y-75609095D01*
X98544863Y-75598406D01*
X98463555Y-75581076D01*
X98396058Y-75556539D01*
X98340795Y-75524225D01*
X98297762Y-75485331D01*
X98261475Y-75432592D01*
X98241676Y-75374821D01*
X98238751Y-75314519D01*
X98253084Y-75254191D01*
X98259825Y-75238512D01*
X98283332Y-75198280D01*
X98314634Y-75163635D01*
X98358170Y-75129826D01*
X98366731Y-75124068D01*
X98400502Y-75101718D01*
X98397718Y-75099556D01*
X98842040Y-75099556D01*
X98850206Y-75106497D01*
X98871676Y-75114553D01*
X98901908Y-75122335D01*
X98936361Y-75128453D01*
X98936648Y-75128492D01*
X98961764Y-75130570D01*
X98998189Y-75131899D01*
X99041467Y-75132506D01*
X99087144Y-75132420D01*
X99130765Y-75131667D01*
X99167873Y-75130277D01*
X99194013Y-75128275D01*
X99202404Y-75126843D01*
X99220508Y-75116707D01*
X99227838Y-75105241D01*
X99226229Y-75092810D01*
X99214871Y-75083665D01*
X99192149Y-75077552D01*
X99156447Y-75074217D01*
X99106150Y-75073405D01*
X99039643Y-75074862D01*
X99035761Y-75074993D01*
X98968140Y-75077729D01*
X98916880Y-75080838D01*
X98880321Y-75084531D01*
X98856804Y-75089018D01*
X98844670Y-75094510D01*
X98842040Y-75099556D01*
X98397718Y-75099556D01*
X98346602Y-75059861D01*
X98315113Y-75033049D01*
X98285348Y-75003770D01*
X98264721Y-74979588D01*
X98249068Y-74956174D01*
X98241184Y-74936292D01*
X98239080Y-74912277D01*
X98240204Y-74885193D01*
X98245393Y-74848160D01*
X98257487Y-74815930D01*
X98278813Y-74784968D01*
X98311702Y-74751743D01*
X98348756Y-74720472D01*
X98399136Y-74679977D01*
X98391523Y-74672962D01*
X98861917Y-74672962D01*
X98862113Y-74682584D01*
X98871324Y-74690289D01*
X98891543Y-74697123D01*
X98925558Y-74702745D01*
X98969173Y-74706982D01*
X99018195Y-74709664D01*
X99068428Y-74710619D01*
X99115677Y-74709674D01*
X99155748Y-74706658D01*
X99178775Y-74702885D01*
X99211266Y-74692017D01*
X99226314Y-74679319D01*
X99224259Y-74665890D01*
X99205440Y-74652827D01*
X99170196Y-74641230D01*
X99158960Y-74638709D01*
X99126169Y-74633741D01*
X99090653Y-74632710D01*
X99046535Y-74635617D01*
X99017741Y-74638745D01*
X98953723Y-74647211D01*
X98906937Y-74655551D01*
X98876596Y-74664043D01*
X98861917Y-74672962D01*
X98391523Y-74672962D01*
X98331958Y-74618076D01*
X98292960Y-74580599D01*
X98266257Y-74550277D01*
X98249696Y-74523497D01*
X98241125Y-74496644D01*
X98238391Y-74466104D01*
X98238351Y-74460925D01*
X98243996Y-74420867D01*
X98261949Y-74382153D01*
X98293732Y-74342439D01*
X98340871Y-74299380D01*
X98346172Y-74295055D01*
X98395079Y-74255483D01*
X98861757Y-74255483D01*
X98876270Y-74263763D01*
X98902982Y-74271197D01*
X98938981Y-74277550D01*
X98981358Y-74282585D01*
X99027204Y-74286068D01*
X99073609Y-74287761D01*
X99117664Y-74287430D01*
X99156459Y-74284839D01*
X99187084Y-74279752D01*
X99202899Y-74274180D01*
X99223480Y-74261196D01*
X99228336Y-74249705D01*
X99218990Y-74235988D01*
X99218670Y-74235667D01*
X99203909Y-74230187D01*
X99174845Y-74226482D01*
X99135096Y-74224440D01*
X99088282Y-74223951D01*
X99038021Y-74224903D01*
X98987933Y-74227185D01*
X98941635Y-74230687D01*
X98902747Y-74235297D01*
X98874886Y-74240905D01*
X98862350Y-74246592D01*
X98861757Y-74255483D01*
X98395079Y-74255483D01*
X98403268Y-74248857D01*
X98381629Y-74232243D01*
X98329692Y-74190781D01*
X98291446Y-74155917D01*
X98265040Y-74125124D01*
X98248628Y-74095874D01*
X98240359Y-74065637D01*
X98238351Y-74036291D01*
X98241878Y-73994960D01*
X98251809Y-73965534D01*
X98253198Y-73963308D01*
X98276270Y-73933626D01*
X98306874Y-73900610D01*
X98339318Y-73869948D01*
X98367909Y-73847329D01*
X98371827Y-73844786D01*
X98401685Y-73826222D01*
X98398974Y-73823688D01*
X98849326Y-73823688D01*
X98857272Y-73831458D01*
X98878673Y-73838625D01*
X98912009Y-73844809D01*
X98955761Y-73849629D01*
X99008410Y-73852704D01*
X99062792Y-73853666D01*
X99108947Y-73853184D01*
X99150274Y-73851890D01*
X99182517Y-73849975D01*
X99201420Y-73847630D01*
X99202404Y-73847382D01*
X99222833Y-73835993D01*
X99227303Y-73820580D01*
X99215531Y-73805634D01*
X99205360Y-73800452D01*
X99187328Y-73797305D01*
X99155298Y-73795424D01*
X99113238Y-73794719D01*
X99065119Y-73795099D01*
X99014912Y-73796474D01*
X98966586Y-73798754D01*
X98924112Y-73801848D01*
X98891461Y-73805666D01*
X98879874Y-73807861D01*
X98856353Y-73815696D01*
X98849326Y-73823688D01*
X98398974Y-73823688D01*
X98322657Y-73752350D01*
X98243629Y-73678478D01*
X98239995Y-73614175D01*
X98239092Y-73574940D01*
X98242439Y-73545968D01*
X98251179Y-73519774D01*
X98255989Y-73509327D01*
X98289145Y-73461041D01*
X98338180Y-73419092D01*
X98401910Y-73384023D01*
X98479151Y-73356379D01*
X98568719Y-73336703D01*
X98653983Y-73326624D01*
X98724906Y-73321155D01*
X98724906Y-72771835D01*
X98724906Y-72222516D01*
X98477601Y-71770776D01*
X98431976Y-71687351D01*
X98388871Y-71608372D01*
X98349080Y-71535304D01*
X98313396Y-71469611D01*
X98292650Y-71431296D01*
X98457942Y-71431296D01*
X98458164Y-71436927D01*
X98458692Y-71438423D01*
X98464856Y-71451111D01*
X98478183Y-71476379D01*
X98497359Y-71511865D01*
X98521066Y-71555210D01*
X98547988Y-71604049D01*
X98576808Y-71656023D01*
X98606209Y-71708769D01*
X98634876Y-71759925D01*
X98661492Y-71807131D01*
X98684740Y-71848023D01*
X98703303Y-71880241D01*
X98715866Y-71901424D01*
X98721112Y-71909208D01*
X98721132Y-71909211D01*
X98722126Y-71900587D01*
X98723023Y-71876265D01*
X98723785Y-71838565D01*
X98724377Y-71789810D01*
X98724662Y-71747391D01*
X98879722Y-71747391D01*
X98879991Y-71810152D01*
X98880969Y-71857640D01*
X98882636Y-71889073D01*
X98884972Y-71903670D01*
X98886389Y-71904406D01*
X98892864Y-71894604D01*
X98906984Y-71871123D01*
X98927569Y-71835997D01*
X98953439Y-71791258D01*
X98983413Y-71738939D01*
X99016311Y-71681073D01*
X99026199Y-71663600D01*
X99059337Y-71604827D01*
X99089402Y-71551215D01*
X99115295Y-71504743D01*
X99135920Y-71467391D01*
X99150180Y-71441138D01*
X99156979Y-71427964D01*
X99157400Y-71426845D01*
X99148908Y-71425390D01*
X99125488Y-71424446D01*
X99090228Y-71424061D01*
X99046216Y-71424284D01*
X99019993Y-71424673D01*
X98882587Y-71427160D01*
X98880183Y-71670138D01*
X98879722Y-71747391D01*
X98724662Y-71747391D01*
X98724763Y-71732320D01*
X98724906Y-71668417D01*
X98724906Y-71665933D01*
X98724906Y-71422655D01*
X98588788Y-71422655D01*
X98536641Y-71422798D01*
X98499998Y-71423428D01*
X98476344Y-71424851D01*
X98463164Y-71427372D01*
X98457942Y-71431296D01*
X98292650Y-71431296D01*
X98282612Y-71412758D01*
X98257521Y-71366208D01*
X98238916Y-71331425D01*
X98227591Y-71309875D01*
X98224349Y-71303269D01*
X98223919Y-71300116D01*
X98226030Y-71297413D01*
X98231950Y-71295125D01*
X98242948Y-71293217D01*
X98260293Y-71291656D01*
X98285253Y-71290407D01*
X98319096Y-71289435D01*
X98363091Y-71288706D01*
X98418506Y-71288186D01*
X98486609Y-71287840D01*
X98568670Y-71287633D01*
X98665956Y-71287532D01*
X98779736Y-71287502D01*
X98805035Y-71287501D01*
X98906029Y-71287570D01*
G37*
D12*
%TO.C,2*%
X114975600Y-84394000D02*
X116875600Y-84394000D01*
X114975600Y-86294000D02*
X114975600Y-84394000D01*
X116875600Y-84394000D02*
X116875600Y-86294000D01*
X116875600Y-86294000D02*
X114975600Y-86294000D01*
%TO.C,8*%
X114975600Y-76774000D02*
X116875600Y-76774000D01*
X114975600Y-78674000D02*
X114975600Y-76774000D01*
X116875600Y-76774000D02*
X116875600Y-78674000D01*
X116875600Y-78674000D02*
X114975600Y-78674000D01*
%TO.C,15*%
X123205200Y-66614000D02*
X125105200Y-66614000D01*
X123205200Y-68514000D02*
X123205200Y-66614000D01*
X125105200Y-66614000D02*
X125105200Y-68514000D01*
X125105200Y-68514000D02*
X123205200Y-68514000D01*
%TO.C,17*%
X123205200Y-64074000D02*
X125105200Y-64074000D01*
X123205200Y-65974000D02*
X123205200Y-64074000D01*
X125105200Y-64074000D02*
X125105200Y-65974000D01*
X125105200Y-65974000D02*
X123205200Y-65974000D01*
%TO.C,16*%
X114975600Y-66614000D02*
X116875600Y-66614000D01*
X114975600Y-68514000D02*
X114975600Y-66614000D01*
X116875600Y-66614000D02*
X116875600Y-68514000D01*
X116875600Y-68514000D02*
X114975600Y-68514000D01*
%TO.C,12*%
X114975600Y-71694000D02*
X116875600Y-71694000D01*
X114975600Y-73594000D02*
X114975600Y-71694000D01*
X116875600Y-71694000D02*
X116875600Y-73594000D01*
X116875600Y-73594000D02*
X114975600Y-73594000D01*
%TO.C,6*%
X114975600Y-79314000D02*
X116875600Y-79314000D01*
X114975600Y-81214000D02*
X114975600Y-79314000D01*
X116875600Y-79314000D02*
X116875600Y-81214000D01*
X116875600Y-81214000D02*
X114975600Y-81214000D01*
%TO.C,J1*%
X130650000Y-86650000D02*
X130650000Y-85320000D01*
X131760000Y-86650000D02*
X130650000Y-86650000D01*
X133250000Y-62100000D02*
X132810000Y-62100000D01*
X133250000Y-62820000D02*
X132810000Y-62820000D01*
X133250000Y-64640000D02*
X132810000Y-64640000D01*
X133250000Y-65360000D02*
X132810000Y-65360000D01*
X133250000Y-67180000D02*
X132810000Y-67180000D01*
X133250000Y-67900000D02*
X132810000Y-67900000D01*
X133250000Y-69720000D02*
X132810000Y-69720000D01*
X133250000Y-70440000D02*
X132810000Y-70440000D01*
X133250000Y-72260000D02*
X132810000Y-72260000D01*
X133250000Y-72980000D02*
X132810000Y-72980000D01*
X133250000Y-74800000D02*
X132810000Y-74800000D01*
X133250000Y-75520000D02*
X132810000Y-75520000D01*
X133250000Y-77340000D02*
X132810000Y-77340000D01*
X133250000Y-78060000D02*
X132810000Y-78060000D01*
X133250000Y-79880000D02*
X132810000Y-79880000D01*
X133250000Y-80600000D02*
X132810000Y-80600000D01*
X133250000Y-82420000D02*
X132810000Y-82420000D01*
X133250000Y-83140000D02*
X132810000Y-83140000D01*
X133250000Y-84960000D02*
X132870000Y-84960000D01*
X133250000Y-85680000D02*
X132870000Y-85680000D01*
X135760000Y-62100000D02*
X135350000Y-62100000D01*
X135760000Y-62820000D02*
X135350000Y-62820000D01*
X135760000Y-64640000D02*
X135350000Y-64640000D01*
X135760000Y-65360000D02*
X135350000Y-65360000D01*
X135760000Y-67180000D02*
X135350000Y-67180000D01*
X135760000Y-67900000D02*
X135350000Y-67900000D01*
X135760000Y-69720000D02*
X135350000Y-69720000D01*
X135760000Y-70440000D02*
X135350000Y-70440000D01*
X135760000Y-72260000D02*
X135350000Y-72260000D01*
X135760000Y-72980000D02*
X135350000Y-72980000D01*
X135760000Y-74800000D02*
X135350000Y-74800000D01*
X135760000Y-75520000D02*
X135350000Y-75520000D01*
X135760000Y-77340000D02*
X135350000Y-77340000D01*
X135760000Y-78060000D02*
X135350000Y-78060000D01*
X135760000Y-79880000D02*
X135350000Y-79880000D01*
X135760000Y-80600000D02*
X135350000Y-80600000D01*
X135760000Y-82420000D02*
X135350000Y-82420000D01*
X135760000Y-83140000D02*
X135350000Y-83140000D01*
X135760000Y-84960000D02*
X135350000Y-84960000D01*
X135760000Y-85680000D02*
X135350000Y-85680000D01*
X135760000Y-86650000D02*
X135760000Y-61130000D01*
X144390000Y-61130000D02*
X135760000Y-61130000D01*
X144390000Y-63730000D02*
X135760000Y-63730000D01*
X144390000Y-66270000D02*
X135760000Y-66270000D01*
X144390000Y-68810000D02*
X135760000Y-68810000D01*
X144390000Y-71350000D02*
X135760000Y-71350000D01*
X144390000Y-73890000D02*
X135760000Y-73890000D01*
X144390000Y-76430000D02*
X135760000Y-76430000D01*
X144390000Y-78970000D02*
X135760000Y-78970000D01*
X144390000Y-81510000D02*
X135760000Y-81510000D01*
X144390000Y-84050000D02*
X135760000Y-84050000D01*
X144390000Y-84168100D02*
X135760000Y-84168100D01*
X144390000Y-84286195D02*
X135760000Y-84286195D01*
X144390000Y-84404290D02*
X135760000Y-84404290D01*
X144390000Y-84522385D02*
X135760000Y-84522385D01*
X144390000Y-84640480D02*
X135760000Y-84640480D01*
X144390000Y-84758575D02*
X135760000Y-84758575D01*
X144390000Y-84876670D02*
X135760000Y-84876670D01*
X144390000Y-84994765D02*
X135760000Y-84994765D01*
X144390000Y-85112860D02*
X135760000Y-85112860D01*
X144390000Y-85230955D02*
X135760000Y-85230955D01*
X144390000Y-85349050D02*
X135760000Y-85349050D01*
X144390000Y-85467145D02*
X135760000Y-85467145D01*
X144390000Y-85585240D02*
X135760000Y-85585240D01*
X144390000Y-85703335D02*
X135760000Y-85703335D01*
X144390000Y-85821430D02*
X135760000Y-85821430D01*
X144390000Y-85939525D02*
X135760000Y-85939525D01*
X144390000Y-86057620D02*
X135760000Y-86057620D01*
X144390000Y-86175715D02*
X135760000Y-86175715D01*
X144390000Y-86293810D02*
X135760000Y-86293810D01*
X144390000Y-86411905D02*
X135760000Y-86411905D01*
X144390000Y-86530000D02*
X135760000Y-86530000D01*
X144390000Y-86650000D02*
X135760000Y-86650000D01*
X144390000Y-86650000D02*
X144390000Y-61130000D01*
%TO.C,11*%
X123205200Y-71694000D02*
X125105200Y-71694000D01*
X123205200Y-73594000D02*
X123205200Y-71694000D01*
X125105200Y-71694000D02*
X125105200Y-73594000D01*
X125105200Y-73594000D02*
X123205200Y-73594000D01*
%TO.C,5*%
X123205200Y-79314000D02*
X125105200Y-79314000D01*
X123205200Y-81214000D02*
X123205200Y-79314000D01*
X125105200Y-79314000D02*
X125105200Y-81214000D01*
X125105200Y-81214000D02*
X123205200Y-81214000D01*
%TO.C,19*%
X123205200Y-61534000D02*
X125105200Y-61534000D01*
X123205200Y-63434000D02*
X123205200Y-61534000D01*
X125105200Y-61534000D02*
X125105200Y-63434000D01*
X125105200Y-63434000D02*
X123205200Y-63434000D01*
%TO.C,18*%
X114975600Y-64074000D02*
X116875600Y-64074000D01*
X114975600Y-65974000D02*
X114975600Y-64074000D01*
X116875600Y-64074000D02*
X116875600Y-65974000D01*
X116875600Y-65974000D02*
X114975600Y-65974000D01*
%TO.C,10*%
X114975600Y-74234000D02*
X116875600Y-74234000D01*
X114975600Y-76134000D02*
X114975600Y-74234000D01*
X116875600Y-74234000D02*
X116875600Y-76134000D01*
X116875600Y-76134000D02*
X114975600Y-76134000D01*
%TD*%
M02*
