M48
; DRILL file {KiCad 9.0.4} date 2025-12-04T14:56:57+0100
; FORMAT={-:-/ absolute / inch / decimal}
; #@! TF.CreationDate,2025-12-04T14:56:57+01:00
; #@! TF.GenerationSoftware,Kicad,Pcbnew,9.0.4
; #@! TF.FileFunction,Plated,1,2,PTH
FMAT,2
INCH
; #@! TA.AperFunction,Plated,PTH,ComponentDrill
T1C0.0276
; #@! TA.AperFunction,Plated,PTH,ComponentDrill
T2C0.0394
; #@! TA.AperFunction,Plated,PTH,ComponentDrill
T3C0.1063
%
G90
G05
T1
X4.564Y-2.46
X4.564Y-2.56
X4.564Y-2.66
X4.564Y-2.76
X4.564Y-2.86
X4.564Y-2.96
X4.564Y-3.06
X4.564Y-3.16
X4.564Y-3.26
X4.564Y-3.36
X4.888Y-2.46
X4.888Y-2.56
X4.888Y-2.66
X4.888Y-2.76
X4.888Y-2.86
X4.888Y-2.96
X4.888Y-3.06
X4.888Y-3.16
X4.888Y-3.26
X4.888Y-3.36
T2
X5.1874Y-2.4591
X5.1874Y-2.5591
X5.1874Y-2.6591
X5.1874Y-2.7591
X5.1874Y-2.8591
X5.1874Y-2.9591
X5.1874Y-3.0591
X5.1874Y-3.1591
X5.1874Y-3.2591
X5.1874Y-3.3591
X5.2874Y-2.4591
X5.2874Y-2.5591
X5.2874Y-2.6591
X5.2874Y-2.7591
X5.2874Y-2.8591
X5.2874Y-2.9591
X5.2874Y-3.0591
X5.2874Y-3.1591
X5.2874Y-3.2591
X5.2874Y-3.3591
T3
X3.66Y-2.71
X3.66Y-3.11
X4.12Y-2.71
X4.12Y-3.11
M30
