%TF.GenerationSoftware,KiCad,Pcbnew,9.0.7*%
%TF.CreationDate,2026-03-16T17:48:55+01:00*%
%TF.ProjectId,GM340_conboard,474d3334-305f-4636-9f6e-626f6172642e,rev?*%
%TF.SameCoordinates,Original*%
%TF.FileFunction,Legend,Bot*%
%TF.FilePolarity,Positive*%
%FSLAX46Y46*%
G04 Gerber Fmt 4.6, Leading zero omitted, Abs format (unit mm)*
G04 Created by KiCad (PCBNEW 9.0.7) date 2026-03-16 17:48:55*
%MOMM*%
%LPD*%
G01*
G04 APERTURE LIST*
%ADD10C,0.000000*%
G04 APERTURE END LIST*
D10*
%TO.C,G2*%
G36*
X99157402Y-77306373D02*
G01*
X99157402Y-77369445D01*
X98810506Y-77369445D01*
X98463610Y-77369445D01*
X98463610Y-77306373D01*
X98463610Y-77243301D01*
X98810506Y-77243301D01*
X99157402Y-77243301D01*
X99157402Y-77306373D01*
G37*
G36*
X98932145Y-77837980D02*
G01*
X98932145Y-77901052D01*
X98810506Y-77901052D01*
X98688867Y-77901052D01*
X98688867Y-77837980D01*
X98688867Y-77774908D01*
X98810506Y-77774908D01*
X98932145Y-77774908D01*
X98932145Y-77837980D01*
G37*
G36*
X98666732Y-77504794D02*
G01*
X98705601Y-77505586D01*
X98754911Y-77506883D01*
X98810355Y-77508568D01*
X98867629Y-77510526D01*
X99031258Y-77516453D01*
X99031258Y-77578103D01*
X99031258Y-77639753D01*
X98810506Y-77639753D01*
X98589754Y-77639753D01*
X98589754Y-77572176D01*
X98589754Y-77504599D01*
X98646876Y-77504599D01*
X98666732Y-77504794D01*
G37*
G36*
X99274536Y-77042027D02*
G01*
X99274536Y-77111061D01*
X98975726Y-77105099D01*
X98955377Y-77104700D01*
X98872488Y-77103213D01*
X98787515Y-77101882D01*
X98704480Y-77100757D01*
X98627400Y-77099891D01*
X98560297Y-77099333D01*
X98507191Y-77099136D01*
X98337466Y-77099136D01*
X98337466Y-77042007D01*
X98337466Y-76984877D01*
X98541654Y-76978935D01*
X98588906Y-76977722D01*
X98665687Y-76976196D01*
X98751441Y-76974894D01*
X98840933Y-76973882D01*
X98928928Y-76973226D01*
X99010189Y-76972992D01*
X99274536Y-76972992D01*
X99274536Y-77042027D01*
G37*
G36*
X100938012Y-72720472D02*
G01*
X100992361Y-72721035D01*
X101033319Y-72722209D01*
X101063580Y-72724190D01*
X101085840Y-72727176D01*
X101102795Y-72731363D01*
X101117140Y-72736947D01*
X101152115Y-72758706D01*
X101185999Y-72790630D01*
X101212535Y-72826680D01*
X101227007Y-72861511D01*
X101227237Y-72863488D01*
X101227957Y-72881306D01*
X101228656Y-72915989D01*
X101229331Y-72966657D01*
X101229978Y-73032431D01*
X101230593Y-73112431D01*
X101231173Y-73205779D01*
X101231715Y-73311594D01*
X101232214Y-73428998D01*
X101232668Y-73557110D01*
X101233073Y-73695052D01*
X101233425Y-73841944D01*
X101233721Y-73996906D01*
X101233957Y-74159060D01*
X101234131Y-74327525D01*
X101234237Y-74501423D01*
X101234273Y-74679874D01*
X101234273Y-76463911D01*
X101213130Y-76497918D01*
X101185373Y-76530704D01*
X101147128Y-76553549D01*
X101095488Y-76567730D01*
X101093630Y-76568030D01*
X101069824Y-76570162D01*
X101031972Y-76571870D01*
X100983597Y-76573064D01*
X100928218Y-76573652D01*
X100869357Y-76573544D01*
X100855072Y-76573424D01*
X100795503Y-76572752D01*
X100750577Y-76571742D01*
X100717491Y-76570123D01*
X100693442Y-76567625D01*
X100675627Y-76563978D01*
X100661242Y-76558912D01*
X100647486Y-76552156D01*
X100615346Y-76531084D01*
X100576404Y-76489418D01*
X100552314Y-76438723D01*
X100552212Y-76438361D01*
X100550830Y-76429478D01*
X100549557Y-76413179D01*
X100548390Y-76388841D01*
X100547324Y-76355840D01*
X100546355Y-76313551D01*
X100545480Y-76261351D01*
X100544694Y-76198616D01*
X100543993Y-76124722D01*
X100543374Y-76039046D01*
X100542833Y-75940964D01*
X100542365Y-75829851D01*
X100541967Y-75705085D01*
X100541634Y-75566041D01*
X100541362Y-75412096D01*
X100541149Y-75242625D01*
X100540989Y-75057005D01*
X100540879Y-74854612D01*
X100540814Y-74634823D01*
X100540481Y-72868806D01*
X100559929Y-72832765D01*
X100563728Y-72826083D01*
X100583855Y-72796646D01*
X100604981Y-72772424D01*
X100620121Y-72758870D01*
X100638559Y-72745699D01*
X100659310Y-72735882D01*
X100684990Y-72728941D01*
X100718216Y-72724394D01*
X100761605Y-72721764D01*
X100817774Y-72720571D01*
X100889340Y-72720334D01*
X100938012Y-72720472D01*
G37*
G36*
X96748404Y-72729165D02*
G01*
X96826090Y-72729432D01*
X96888162Y-72730367D01*
X96936640Y-72732316D01*
X96973544Y-72735627D01*
X97000894Y-72740646D01*
X97020710Y-72747721D01*
X97035012Y-72757198D01*
X97045820Y-72769426D01*
X97055154Y-72784751D01*
X97055866Y-72786118D01*
X97057737Y-72790605D01*
X97059456Y-72796688D01*
X97061031Y-72805115D01*
X97062468Y-72816631D01*
X97063776Y-72831983D01*
X97064962Y-72851917D01*
X97066034Y-72877181D01*
X97067000Y-72908520D01*
X97067866Y-72946682D01*
X97068642Y-72992413D01*
X97069334Y-73046459D01*
X97069950Y-73109567D01*
X97070498Y-73182483D01*
X97070985Y-73265955D01*
X97071419Y-73360728D01*
X97071808Y-73467549D01*
X97072159Y-73587165D01*
X97072480Y-73720322D01*
X97072779Y-73867767D01*
X97073063Y-74030246D01*
X97073340Y-74208506D01*
X97073618Y-74403294D01*
X97073903Y-74615356D01*
X97073981Y-74675715D01*
X97074233Y-74909250D01*
X97074384Y-75125116D01*
X97074434Y-75323595D01*
X97074380Y-75504967D01*
X97074222Y-75669517D01*
X97073959Y-75817523D01*
X97073590Y-75949270D01*
X97073112Y-76065038D01*
X97072527Y-76165109D01*
X97071832Y-76249765D01*
X97071025Y-76319287D01*
X97070107Y-76373958D01*
X97069076Y-76414058D01*
X97067931Y-76439871D01*
X97066670Y-76451677D01*
X97066160Y-76453484D01*
X97049496Y-76487564D01*
X97022126Y-76521606D01*
X96989480Y-76549912D01*
X96956987Y-76566783D01*
X96952243Y-76567815D01*
X96928213Y-76570253D01*
X96889852Y-76572141D01*
X96839842Y-76573404D01*
X96780869Y-76573963D01*
X96715614Y-76573741D01*
X96660544Y-76573117D01*
X96603009Y-76572054D01*
X96559360Y-76570557D01*
X96527257Y-76568460D01*
X96504362Y-76565598D01*
X96488337Y-76561807D01*
X96476842Y-76556923D01*
X96446461Y-76535310D01*
X96414948Y-76503734D01*
X96392345Y-76471261D01*
X96391588Y-76467977D01*
X96390362Y-76453775D01*
X96389234Y-76428374D01*
X96388202Y-76391319D01*
X96387264Y-76342155D01*
X96386416Y-76280428D01*
X96385657Y-76205682D01*
X96384984Y-76117463D01*
X96384394Y-76015316D01*
X96383885Y-75898787D01*
X96383454Y-75767421D01*
X96383100Y-75620762D01*
X96382819Y-75458357D01*
X96382610Y-75279750D01*
X96382468Y-75084487D01*
X96382393Y-74872113D01*
X96382382Y-74642173D01*
X96382530Y-72832765D01*
X96402791Y-72796724D01*
X96407507Y-72788494D01*
X96418635Y-72771484D01*
X96431128Y-72758076D01*
X96447068Y-72747843D01*
X96468536Y-72740357D01*
X96497615Y-72735190D01*
X96536386Y-72731914D01*
X96586931Y-72730103D01*
X96651333Y-72729328D01*
X96731672Y-72729161D01*
X96748404Y-72729165D01*
G37*
G36*
X99093899Y-69938024D02*
G01*
X99343473Y-69967097D01*
X99593969Y-70013795D01*
X99845817Y-70078145D01*
X100099448Y-70160174D01*
X100355291Y-70259907D01*
X100613775Y-70377370D01*
X100721676Y-70430866D01*
X100819292Y-70481898D01*
X100905031Y-70530115D01*
X100981479Y-70577195D01*
X101051219Y-70624813D01*
X101116835Y-70674648D01*
X101180911Y-70728375D01*
X101246030Y-70787671D01*
X101251174Y-70792533D01*
X101376489Y-70922857D01*
X101488082Y-71062633D01*
X101585128Y-71210470D01*
X101666803Y-71364980D01*
X101732282Y-71524773D01*
X101780740Y-71688459D01*
X101782634Y-71696456D01*
X101786247Y-71712937D01*
X101789357Y-71729975D01*
X101792018Y-71749023D01*
X101794282Y-71771539D01*
X101796203Y-71798977D01*
X101797834Y-71832792D01*
X101799228Y-71874440D01*
X101800437Y-71925376D01*
X101801515Y-71987055D01*
X101802515Y-72060933D01*
X101803490Y-72148466D01*
X101804492Y-72251107D01*
X101805575Y-72370314D01*
X101810932Y-72971077D01*
X101919055Y-73040168D01*
X101934167Y-73049874D01*
X102006247Y-73098037D01*
X102069051Y-73143996D01*
X102127661Y-73191859D01*
X102187161Y-73245734D01*
X102252636Y-73309730D01*
X102337086Y-73400176D01*
X102449827Y-73542199D01*
X102547490Y-73692657D01*
X102629857Y-73850386D01*
X102696709Y-74014224D01*
X102747826Y-74183006D01*
X102782991Y-74355569D01*
X102801983Y-74530750D01*
X102804586Y-74707385D01*
X102790578Y-74884312D01*
X102759743Y-75060365D01*
X102711861Y-75234383D01*
X102646713Y-75405202D01*
X102572612Y-75556968D01*
X102477708Y-75713455D01*
X102368763Y-75858779D01*
X102245563Y-75993199D01*
X102107892Y-76116971D01*
X101955535Y-76230353D01*
X101856861Y-76297221D01*
X101570485Y-76297221D01*
X101284110Y-76297221D01*
X101281663Y-74064922D01*
X101279215Y-71832623D01*
X101260238Y-71774056D01*
X101226225Y-71681207D01*
X101164707Y-71552034D01*
X101087664Y-71427110D01*
X100994266Y-71305133D01*
X100883682Y-71184803D01*
X100870601Y-71171756D01*
X100782241Y-71088601D01*
X100694257Y-71015326D01*
X100603594Y-70950035D01*
X100507196Y-70890826D01*
X100402008Y-70835802D01*
X100284974Y-70783064D01*
X100153039Y-70730712D01*
X100041030Y-70689565D01*
X99864845Y-70629323D01*
X99698772Y-70578608D01*
X99540087Y-70536662D01*
X99386068Y-70502733D01*
X99233990Y-70476064D01*
X99222463Y-70474365D01*
X99145358Y-70465486D01*
X99055429Y-70458565D01*
X98957035Y-70453682D01*
X98854534Y-70450915D01*
X98752286Y-70450343D01*
X98654649Y-70452046D01*
X98565981Y-70456102D01*
X98490641Y-70462591D01*
X98478585Y-70463999D01*
X98315427Y-70487377D01*
X98150312Y-70519269D01*
X97980878Y-70560301D01*
X97804764Y-70611093D01*
X97619610Y-70672272D01*
X97423053Y-70744458D01*
X97336782Y-70778465D01*
X97258653Y-70811590D01*
X97190546Y-70843441D01*
X97128671Y-70875795D01*
X97069237Y-70910431D01*
X97011140Y-70948319D01*
X96920044Y-71015826D01*
X96827861Y-71092802D01*
X96738941Y-71175350D01*
X96657633Y-71259569D01*
X96588288Y-71341563D01*
X96529237Y-71420730D01*
X96474573Y-71503187D01*
X96429566Y-71583514D01*
X96391685Y-71666276D01*
X96358399Y-71756036D01*
X96332677Y-71832623D01*
X96330267Y-74064922D01*
X96327858Y-76297221D01*
X96041441Y-76297221D01*
X95755024Y-76297221D01*
X95661280Y-76233628D01*
X95563908Y-76163844D01*
X95426501Y-76049948D01*
X95302860Y-75926670D01*
X95191044Y-75792011D01*
X95089116Y-75643975D01*
X95017515Y-75517274D01*
X94951153Y-75371719D01*
X94895551Y-75217769D01*
X94852140Y-75059410D01*
X94822350Y-74900626D01*
X94815825Y-74840147D01*
X94811297Y-74759278D01*
X94809746Y-74670371D01*
X94811089Y-74578588D01*
X94815240Y-74489091D01*
X94822114Y-74407039D01*
X94831626Y-74337594D01*
X94846289Y-74262129D01*
X94893896Y-74080050D01*
X94957257Y-73906718D01*
X95036364Y-73742144D01*
X95131211Y-73586342D01*
X95241791Y-73439325D01*
X95368098Y-73301107D01*
X95370915Y-73298302D01*
X95460258Y-73214682D01*
X95553574Y-73136789D01*
X95646624Y-73067967D01*
X95735170Y-73011560D01*
X95804423Y-72971512D01*
X95807971Y-72375037D01*
X95808005Y-72369278D01*
X95808738Y-72246718D01*
X95809465Y-72140525D01*
X95810316Y-72049112D01*
X95811423Y-71970897D01*
X95812916Y-71904294D01*
X95814927Y-71847719D01*
X95817586Y-71799587D01*
X95821024Y-71758314D01*
X95825372Y-71722315D01*
X95830761Y-71690006D01*
X95837321Y-71659802D01*
X95845184Y-71630118D01*
X95854480Y-71599369D01*
X95865341Y-71565972D01*
X95877897Y-71528342D01*
X95900671Y-71465175D01*
X95965290Y-71320595D01*
X96045706Y-71178611D01*
X96140370Y-71041183D01*
X96247731Y-70910271D01*
X96366242Y-70787836D01*
X96494352Y-70675836D01*
X96630512Y-70576231D01*
X96679362Y-70545432D01*
X96754282Y-70502195D01*
X96841003Y-70455583D01*
X96936603Y-70407005D01*
X97038156Y-70357868D01*
X97142741Y-70309578D01*
X97247433Y-70263545D01*
X97349310Y-70221175D01*
X97445448Y-70183876D01*
X97591746Y-70132252D01*
X97844815Y-70056123D01*
X98096226Y-69997462D01*
X98346411Y-69956295D01*
X98595798Y-69932649D01*
X98844817Y-69926551D01*
X99093899Y-69938024D01*
G37*
G36*
X99298604Y-71469611D02*
G01*
X99262920Y-71535304D01*
X99223129Y-71608372D01*
X99180024Y-71687351D01*
X99134399Y-71770776D01*
X98887094Y-72222516D01*
X98887094Y-72771835D01*
X98887094Y-73321155D01*
X98958017Y-73326624D01*
X99043281Y-73336703D01*
X99132849Y-73356379D01*
X99210090Y-73384023D01*
X99273820Y-73419092D01*
X99322855Y-73461041D01*
X99356011Y-73509327D01*
X99360821Y-73519774D01*
X99369561Y-73545968D01*
X99372908Y-73574940D01*
X99372005Y-73614175D01*
X99368371Y-73678478D01*
X99289343Y-73752350D01*
X99213026Y-73823688D01*
X99210315Y-73826222D01*
X99240173Y-73844786D01*
X99244091Y-73847329D01*
X99272682Y-73869948D01*
X99305126Y-73900610D01*
X99335730Y-73933626D01*
X99358802Y-73963308D01*
X99360191Y-73965534D01*
X99370122Y-73994960D01*
X99373649Y-74036291D01*
X99371641Y-74065637D01*
X99363372Y-74095874D01*
X99346960Y-74125124D01*
X99320554Y-74155917D01*
X99282308Y-74190781D01*
X99230371Y-74232243D01*
X99208732Y-74248857D01*
X99216921Y-74255483D01*
X99265828Y-74295055D01*
X99271129Y-74299380D01*
X99318268Y-74342439D01*
X99350051Y-74382153D01*
X99368004Y-74420867D01*
X99373649Y-74460925D01*
X99373609Y-74466104D01*
X99370875Y-74496644D01*
X99362304Y-74523497D01*
X99345743Y-74550277D01*
X99319040Y-74580599D01*
X99280042Y-74618076D01*
X99220477Y-74672962D01*
X99212864Y-74679977D01*
X99263244Y-74720472D01*
X99300298Y-74751743D01*
X99333187Y-74784968D01*
X99354513Y-74815930D01*
X99366607Y-74848160D01*
X99371796Y-74885193D01*
X99372920Y-74912277D01*
X99370816Y-74936292D01*
X99362932Y-74956174D01*
X99347279Y-74979588D01*
X99326652Y-75003770D01*
X99296887Y-75033049D01*
X99265398Y-75059861D01*
X99214282Y-75099556D01*
X99211498Y-75101718D01*
X99245269Y-75124068D01*
X99253830Y-75129826D01*
X99297366Y-75163635D01*
X99328668Y-75198280D01*
X99352175Y-75238512D01*
X99358916Y-75254191D01*
X99373249Y-75314519D01*
X99370324Y-75374821D01*
X99350525Y-75432592D01*
X99314238Y-75485331D01*
X99271205Y-75524225D01*
X99215942Y-75556539D01*
X99148445Y-75581076D01*
X99067137Y-75598406D01*
X98970439Y-75609095D01*
X98887094Y-75615099D01*
X98887094Y-76158891D01*
X98887094Y-76702684D01*
X99143887Y-76702684D01*
X99400680Y-76702684D01*
X99400680Y-76770261D01*
X99400680Y-76837838D01*
X98806001Y-76837838D01*
X98211322Y-76837838D01*
X98211322Y-76770261D01*
X98211322Y-76702684D01*
X98477125Y-76702684D01*
X98742929Y-76702684D01*
X98742929Y-76089984D01*
X98742929Y-75477284D01*
X98817264Y-75477040D01*
X98877404Y-75475966D01*
X98976338Y-75469304D01*
X99058801Y-75456481D01*
X99125136Y-75437385D01*
X99175684Y-75411904D01*
X99210787Y-75379925D01*
X99230787Y-75341337D01*
X99230863Y-75341082D01*
X99236706Y-75316251D01*
X99234579Y-75299167D01*
X99223401Y-75280992D01*
X99221460Y-75278465D01*
X99190006Y-75249737D01*
X99144267Y-75223199D01*
X99087681Y-75200880D01*
X99082589Y-75199251D01*
X99063994Y-75193830D01*
X99047612Y-75191161D01*
X99029507Y-75191579D01*
X99005744Y-75195420D01*
X98972386Y-75203021D01*
X98925496Y-75214716D01*
X98909930Y-75218604D01*
X98787182Y-75246429D01*
X98678814Y-75265397D01*
X98583667Y-75275536D01*
X98500581Y-75276870D01*
X98428394Y-75269426D01*
X98365948Y-75253228D01*
X98312082Y-75228303D01*
X98297010Y-75217845D01*
X98267397Y-75186513D01*
X98246604Y-75149265D01*
X98238601Y-75112368D01*
X98238888Y-75105241D01*
X98384162Y-75105241D01*
X98391492Y-75116707D01*
X98409596Y-75126843D01*
X98417987Y-75128275D01*
X98444127Y-75130277D01*
X98481235Y-75131667D01*
X98524856Y-75132420D01*
X98570533Y-75132506D01*
X98613811Y-75131899D01*
X98650236Y-75130570D01*
X98675352Y-75128492D01*
X98675639Y-75128453D01*
X98710092Y-75122335D01*
X98740324Y-75114553D01*
X98761794Y-75106497D01*
X98769960Y-75099556D01*
X98767330Y-75094510D01*
X98755196Y-75089018D01*
X98731679Y-75084531D01*
X98695120Y-75080838D01*
X98643860Y-75077729D01*
X98576239Y-75074993D01*
X98572357Y-75074862D01*
X98505850Y-75073405D01*
X98455553Y-75074217D01*
X98419851Y-75077552D01*
X98397129Y-75083665D01*
X98385771Y-75092810D01*
X98384162Y-75105241D01*
X98238888Y-75105241D01*
X98239300Y-75095034D01*
X98252305Y-75045263D01*
X98281242Y-75003115D01*
X98325514Y-74969282D01*
X98384521Y-74944451D01*
X98390540Y-74942642D01*
X98419139Y-74934969D01*
X98445538Y-74930333D01*
X98474776Y-74928344D01*
X98511895Y-74928614D01*
X98561933Y-74930754D01*
X98632341Y-74935962D01*
X98729937Y-74949247D01*
X98830444Y-74970460D01*
X98939852Y-75000711D01*
X99035055Y-75029585D01*
X99117061Y-74987761D01*
X99138982Y-74976181D01*
X99174485Y-74955735D01*
X99203153Y-74937151D01*
X99220268Y-74923371D01*
X99230917Y-74910857D01*
X99236423Y-74895898D01*
X99231118Y-74878088D01*
X99228509Y-74873541D01*
X99210341Y-74854084D01*
X99181229Y-74831015D01*
X99145440Y-74807236D01*
X99107244Y-74785649D01*
X99070910Y-74769156D01*
X99059337Y-74764831D01*
X99043244Y-74760157D01*
X99027526Y-74759088D01*
X99007782Y-74762040D01*
X98979608Y-74769430D01*
X98938604Y-74781674D01*
X98924482Y-74785921D01*
X98849273Y-74807081D01*
X98783343Y-74822376D01*
X98720473Y-74832883D01*
X98654444Y-74839677D01*
X98579036Y-74843832D01*
X98537738Y-74845144D01*
X98479585Y-74845271D01*
X98432945Y-74842295D01*
X98393811Y-74835679D01*
X98358177Y-74824885D01*
X98322038Y-74809377D01*
X98313998Y-74805217D01*
X98277194Y-74775506D01*
X98253064Y-74736772D01*
X98242051Y-74692639D01*
X98242789Y-74679319D01*
X98385686Y-74679319D01*
X98400734Y-74692017D01*
X98433225Y-74702885D01*
X98456252Y-74706658D01*
X98496323Y-74709674D01*
X98543572Y-74710619D01*
X98593805Y-74709664D01*
X98642827Y-74706982D01*
X98686442Y-74702745D01*
X98720457Y-74697123D01*
X98740676Y-74690289D01*
X98749887Y-74682584D01*
X98750083Y-74672962D01*
X98735404Y-74664043D01*
X98705063Y-74655551D01*
X98658277Y-74647211D01*
X98594259Y-74638745D01*
X98565465Y-74635617D01*
X98521347Y-74632710D01*
X98485831Y-74633741D01*
X98453040Y-74638709D01*
X98441804Y-74641230D01*
X98406560Y-74652827D01*
X98387741Y-74665890D01*
X98385686Y-74679319D01*
X98242789Y-74679319D01*
X98244596Y-74646728D01*
X98261141Y-74602665D01*
X98292128Y-74564071D01*
X98299735Y-74557503D01*
X98340848Y-74531002D01*
X98390552Y-74513220D01*
X98451583Y-74503418D01*
X98526682Y-74500858D01*
X98565133Y-74501694D01*
X98640292Y-74506596D01*
X98714232Y-74516512D01*
X98792794Y-74532333D01*
X98881816Y-74554947D01*
X98904922Y-74561221D01*
X98960880Y-74575483D01*
X99004689Y-74583992D01*
X99040115Y-74586402D01*
X99070922Y-74582367D01*
X99100875Y-74571541D01*
X99133738Y-74553576D01*
X99173277Y-74528127D01*
X99177446Y-74525339D01*
X99212185Y-74499301D01*
X99231652Y-74476826D01*
X99235533Y-74455916D01*
X99223517Y-74434571D01*
X99195291Y-74410794D01*
X99150543Y-74382585D01*
X99131269Y-74371657D01*
X99096983Y-74355178D01*
X99064849Y-74345554D01*
X99031052Y-74342645D01*
X98991772Y-74346313D01*
X98943194Y-74356420D01*
X98881498Y-74372827D01*
X98831503Y-74386339D01*
X98751250Y-74405038D01*
X98678288Y-74417346D01*
X98606855Y-74424143D01*
X98531187Y-74426309D01*
X98464364Y-74424444D01*
X98405463Y-74417320D01*
X98358217Y-74404034D01*
X98319600Y-74383708D01*
X98286586Y-74355466D01*
X98261997Y-74323884D01*
X98243520Y-74279170D01*
X98241982Y-74249705D01*
X98383664Y-74249705D01*
X98388520Y-74261196D01*
X98409101Y-74274180D01*
X98424916Y-74279752D01*
X98455541Y-74284839D01*
X98494336Y-74287430D01*
X98538391Y-74287761D01*
X98584796Y-74286068D01*
X98630642Y-74282585D01*
X98673019Y-74277550D01*
X98709018Y-74271197D01*
X98735730Y-74263763D01*
X98750243Y-74255483D01*
X98749650Y-74246592D01*
X98737114Y-74240905D01*
X98709253Y-74235297D01*
X98670365Y-74230687D01*
X98624067Y-74227185D01*
X98573979Y-74224903D01*
X98523718Y-74223951D01*
X98476904Y-74224440D01*
X98437155Y-74226482D01*
X98408091Y-74230187D01*
X98393330Y-74235667D01*
X98393010Y-74235988D01*
X98383664Y-74249705D01*
X98241982Y-74249705D01*
X98241166Y-74234059D01*
X98254150Y-74190812D01*
X98281684Y-74151686D01*
X98322984Y-74118941D01*
X98377263Y-74094836D01*
X98386021Y-74092303D01*
X98439594Y-74083074D01*
X98506166Y-74079648D01*
X98582439Y-74081752D01*
X98665118Y-74089110D01*
X98750907Y-74101448D01*
X98836509Y-74118491D01*
X98918630Y-74139964D01*
X98950371Y-74149403D01*
X98988583Y-74160180D01*
X99016312Y-74166049D01*
X99037742Y-74167029D01*
X99057055Y-74163138D01*
X99078433Y-74154397D01*
X99106060Y-74140823D01*
X99127971Y-74129473D01*
X99172908Y-74102805D01*
X99207826Y-74077096D01*
X99230448Y-74054153D01*
X99238495Y-74035783D01*
X99238444Y-74034415D01*
X99228631Y-74014165D01*
X99202559Y-73990155D01*
X99161299Y-73963207D01*
X99105923Y-73934141D01*
X99031918Y-73898554D01*
X98925717Y-73930784D01*
X98908906Y-73935857D01*
X98838101Y-73956262D01*
X98778338Y-73971276D01*
X98724818Y-73981711D01*
X98672740Y-73988378D01*
X98617305Y-73992088D01*
X98553713Y-73993654D01*
X98521207Y-73993863D01*
X98469896Y-73993159D01*
X98430662Y-73990740D01*
X98399612Y-73986301D01*
X98372857Y-73979538D01*
X98371538Y-73979126D01*
X98320491Y-73955595D01*
X98281744Y-73922890D01*
X98255696Y-73883731D01*
X98242745Y-73840834D01*
X98242996Y-73820580D01*
X98384697Y-73820580D01*
X98389167Y-73835993D01*
X98409596Y-73847382D01*
X98410580Y-73847630D01*
X98429483Y-73849975D01*
X98461726Y-73851890D01*
X98503053Y-73853184D01*
X98549208Y-73853666D01*
X98603590Y-73852704D01*
X98656239Y-73849629D01*
X98699991Y-73844809D01*
X98733327Y-73838625D01*
X98754728Y-73831458D01*
X98762674Y-73823688D01*
X98755647Y-73815696D01*
X98732126Y-73807861D01*
X98720539Y-73805666D01*
X98687888Y-73801848D01*
X98645414Y-73798754D01*
X98597088Y-73796474D01*
X98546881Y-73795099D01*
X98498762Y-73794719D01*
X98456702Y-73795424D01*
X98424672Y-73797305D01*
X98406640Y-73800452D01*
X98396469Y-73805634D01*
X98384697Y-73820580D01*
X98242996Y-73820580D01*
X98243289Y-73796918D01*
X98257727Y-73754701D01*
X98286456Y-73716901D01*
X98329876Y-73686235D01*
X98338496Y-73682047D01*
X98397525Y-73662804D01*
X98469999Y-73652444D01*
X98554036Y-73650924D01*
X98647756Y-73658197D01*
X98749275Y-73674218D01*
X98856714Y-73698942D01*
X98887835Y-73707136D01*
X98942586Y-73720999D01*
X98984557Y-73730202D01*
X99016850Y-73734902D01*
X99042567Y-73735256D01*
X99064811Y-73731420D01*
X99086683Y-73723551D01*
X99111287Y-73711805D01*
X99133248Y-73700015D01*
X99175242Y-73673007D01*
X99208582Y-73645374D01*
X99230566Y-73619534D01*
X99238495Y-73597905D01*
X99237540Y-73591295D01*
X99227836Y-73569053D01*
X99211044Y-73545476D01*
X99187669Y-73524715D01*
X99153299Y-73505928D01*
X99107752Y-73490423D01*
X99049333Y-73477747D01*
X98976345Y-73467449D01*
X98887094Y-73459075D01*
X98885649Y-73458963D01*
X98840749Y-73455609D01*
X98801034Y-73452836D01*
X98770761Y-73450929D01*
X98754192Y-73450174D01*
X98733919Y-73449970D01*
X98733919Y-72840092D01*
X98733919Y-72230215D01*
X98477125Y-71763479D01*
X98434081Y-71685178D01*
X98390175Y-71605168D01*
X98349664Y-71531197D01*
X98313305Y-71464657D01*
X98292703Y-71426845D01*
X98454600Y-71426845D01*
X98455021Y-71427964D01*
X98461820Y-71441138D01*
X98476080Y-71467391D01*
X98496705Y-71504743D01*
X98522598Y-71551215D01*
X98552663Y-71604827D01*
X98585801Y-71663600D01*
X98595689Y-71681073D01*
X98628587Y-71738939D01*
X98658561Y-71791258D01*
X98684431Y-71835997D01*
X98705016Y-71871123D01*
X98719136Y-71894604D01*
X98725611Y-71904406D01*
X98727028Y-71903670D01*
X98729364Y-71889073D01*
X98731031Y-71857640D01*
X98732009Y-71810152D01*
X98732278Y-71747391D01*
X98731817Y-71670138D01*
X98729413Y-71427160D01*
X98592007Y-71424673D01*
X98565784Y-71424284D01*
X98521772Y-71424061D01*
X98486512Y-71424446D01*
X98463092Y-71425390D01*
X98454600Y-71426845D01*
X98292703Y-71426845D01*
X98290420Y-71422655D01*
X98887094Y-71422655D01*
X98887094Y-71665933D01*
X98887094Y-71668417D01*
X98887237Y-71732320D01*
X98887338Y-71747391D01*
X98887623Y-71789810D01*
X98888215Y-71838565D01*
X98888977Y-71876265D01*
X98889874Y-71900587D01*
X98890868Y-71909211D01*
X98890888Y-71909208D01*
X98896134Y-71901424D01*
X98908697Y-71880241D01*
X98927260Y-71848023D01*
X98950508Y-71807131D01*
X98977124Y-71759925D01*
X99005791Y-71708769D01*
X99035192Y-71656023D01*
X99064012Y-71604049D01*
X99090934Y-71555210D01*
X99114641Y-71511865D01*
X99133817Y-71476379D01*
X99147144Y-71451111D01*
X99153308Y-71438423D01*
X99153836Y-71436927D01*
X99154058Y-71431296D01*
X99148836Y-71427372D01*
X99135656Y-71424851D01*
X99112002Y-71423428D01*
X99075359Y-71422798D01*
X99023212Y-71422655D01*
X98887094Y-71422655D01*
X98290420Y-71422655D01*
X98281857Y-71406939D01*
X98256077Y-71359434D01*
X98236724Y-71323536D01*
X98224557Y-71300634D01*
X98220332Y-71292122D01*
X98221588Y-71291819D01*
X98236724Y-71291038D01*
X98267826Y-71290305D01*
X98313397Y-71289632D01*
X98371943Y-71289030D01*
X98441968Y-71288511D01*
X98521978Y-71288087D01*
X98610477Y-71287769D01*
X98705971Y-71287570D01*
X98806965Y-71287501D01*
X98832264Y-71287502D01*
X98946044Y-71287532D01*
X99043330Y-71287633D01*
X99125391Y-71287840D01*
X99193494Y-71288186D01*
X99248909Y-71288706D01*
X99292904Y-71289435D01*
X99326747Y-71290407D01*
X99351707Y-71291656D01*
X99369052Y-71293217D01*
X99380050Y-71295125D01*
X99385970Y-71297413D01*
X99388081Y-71300116D01*
X99387651Y-71303269D01*
X99384409Y-71309875D01*
X99373084Y-71331425D01*
X99354479Y-71366208D01*
X99329388Y-71412758D01*
X99319350Y-71431296D01*
X99298604Y-71469611D01*
G37*
%TD*%
M02*
