%TF.GenerationSoftware,KiCad,Pcbnew,9.0.4*%
%TF.CreationDate,2025-12-04T14:56:59+01:00*%
%TF.ProjectId,GM340_conboard,474d3334-305f-4636-9f6e-626f6172642e,rev?*%
%TF.SameCoordinates,Original*%
%TF.FileFunction,Soldermask,Bot*%
%TF.FilePolarity,Negative*%
%FSLAX46Y46*%
G04 Gerber Fmt 4.6, Leading zero omitted, Abs format (unit mm)*
G04 Created by KiCad (PCBNEW 9.0.4) date 2025-12-04 14:56:59*
%MOMM*%
%LPD*%
G01*
G04 APERTURE LIST*
%ADD10C,4.700000*%
%ADD11R,1.500000X1.500000*%
%ADD12R,1.700000X1.700000*%
%ADD13C,1.700000*%
G04 APERTURE END LIST*
D10*
%TO.C,REF1*%
X92964000Y-68834000D03*
%TD*%
%TO.C,REF4*%
X92964000Y-78994000D03*
%TD*%
D11*
%TO.C,7*%
X124155200Y-77724000D03*
%TD*%
%TO.C,20*%
X115925600Y-62484000D03*
%TD*%
%TO.C,1*%
X124155200Y-85344000D03*
%TD*%
%TO.C,4*%
X115925600Y-82804000D03*
%TD*%
%TO.C,14*%
X115925600Y-70104000D03*
%TD*%
%TO.C,3*%
X124155200Y-82804000D03*
%TD*%
%TO.C,9*%
X124155200Y-75184000D03*
%TD*%
%TO.C,13*%
X124155200Y-70104000D03*
%TD*%
%TO.C,2*%
X115925600Y-85344000D03*
%TD*%
%TO.C,8*%
X115925600Y-77724000D03*
%TD*%
%TO.C,15*%
X124155200Y-67564000D03*
%TD*%
%TO.C,17*%
X124155200Y-65024000D03*
%TD*%
%TO.C,16*%
X115925600Y-67564000D03*
%TD*%
D10*
%TO.C,REF3*%
X104648000Y-78994000D03*
%TD*%
D11*
%TO.C,12*%
X115925600Y-72644000D03*
%TD*%
D10*
%TO.C,REF2*%
X104648000Y-68834000D03*
%TD*%
D11*
%TO.C,6*%
X115925600Y-80264000D03*
%TD*%
D12*
%TO.C,J1*%
X131760000Y-85320000D03*
D13*
X134300000Y-85320000D03*
X131760000Y-82780000D03*
X134300000Y-82780000D03*
X131760000Y-80240000D03*
X134300000Y-80240000D03*
X131760000Y-77700000D03*
X134300000Y-77700000D03*
X131760000Y-75160000D03*
X134300000Y-75160000D03*
X131760000Y-72620000D03*
X134300000Y-72620000D03*
X131760000Y-70080000D03*
X134300000Y-70080000D03*
X131760000Y-67540000D03*
X134300000Y-67540000D03*
X131760000Y-65000000D03*
X134300000Y-65000000D03*
X131760000Y-62460000D03*
X134300000Y-62460000D03*
%TD*%
D11*
%TO.C,11*%
X124155200Y-72644000D03*
%TD*%
%TO.C,5*%
X124155200Y-80264000D03*
%TD*%
%TO.C,19*%
X124155200Y-62484000D03*
%TD*%
%TO.C,18*%
X115925600Y-65024000D03*
%TD*%
%TO.C,10*%
X115925600Y-75184000D03*
%TD*%
M02*
