%TF.GenerationSoftware,KiCad,Pcbnew,9.0.7*%
%TF.CreationDate,2026-03-17T15:21:45+01:00*%
%TF.ProjectId,SAULink9_TAIT_PLEXER,5341554c-696e-46b3-995f-544149545f50,rev?*%
%TF.SameCoordinates,Original*%
%TF.FileFunction,Copper,L1,Top*%
%TF.FilePolarity,Positive*%
%FSLAX46Y46*%
G04 Gerber Fmt 4.6, Leading zero omitted, Abs format (unit mm)*
G04 Created by KiCad (PCBNEW 9.0.7) date 2026-03-17 15:21:45*
%MOMM*%
%LPD*%
G01*
G04 APERTURE LIST*
G04 Aperture macros list*
%AMRoundRect*
0 Rectangle with rounded corners*
0 $1 Rounding radius*
0 $2 $3 $4 $5 $6 $7 $8 $9 X,Y pos of 4 corners*
0 Add a 4 corners polygon primitive as box body*
4,1,4,$2,$3,$4,$5,$6,$7,$8,$9,$2,$3,0*
0 Add four circle primitives for the rounded corners*
1,1,$1+$1,$2,$3*
1,1,$1+$1,$4,$5*
1,1,$1+$1,$6,$7*
1,1,$1+$1,$8,$9*
0 Add four rect primitives between the rounded corners*
20,1,$1+$1,$2,$3,$4,$5,0*
20,1,$1+$1,$4,$5,$6,$7,0*
20,1,$1+$1,$6,$7,$8,$9,0*
20,1,$1+$1,$8,$9,$2,$3,0*%
G04 Aperture macros list end*
%TA.AperFunction,SMDPad,CuDef*%
%ADD10RoundRect,0.250000X0.250000X0.475000X-0.250000X0.475000X-0.250000X-0.475000X0.250000X-0.475000X0*%
%TD*%
%TA.AperFunction,SMDPad,CuDef*%
%ADD11RoundRect,0.150000X-0.650000X-0.150000X0.650000X-0.150000X0.650000X0.150000X-0.650000X0.150000X0*%
%TD*%
%TA.AperFunction,SMDPad,CuDef*%
%ADD12RoundRect,0.243750X-0.243750X-0.456250X0.243750X-0.456250X0.243750X0.456250X-0.243750X0.456250X0*%
%TD*%
%TA.AperFunction,SMDPad,CuDef*%
%ADD13RoundRect,0.250000X-0.450000X0.262500X-0.450000X-0.262500X0.450000X-0.262500X0.450000X0.262500X0*%
%TD*%
%TA.AperFunction,SMDPad,CuDef*%
%ADD14RoundRect,0.250000X0.475000X-0.250000X0.475000X0.250000X-0.475000X0.250000X-0.475000X-0.250000X0*%
%TD*%
%TA.AperFunction,ComponentPad*%
%ADD15R,1.600000X1.600000*%
%TD*%
%TA.AperFunction,ComponentPad*%
%ADD16C,1.600000*%
%TD*%
%TA.AperFunction,SMDPad,CuDef*%
%ADD17RoundRect,0.250000X-0.475000X0.250000X-0.475000X-0.250000X0.475000X-0.250000X0.475000X0.250000X0*%
%TD*%
%TA.AperFunction,SMDPad,CuDef*%
%ADD18RoundRect,0.250000X-0.262500X-0.450000X0.262500X-0.450000X0.262500X0.450000X-0.262500X0.450000X0*%
%TD*%
%TA.AperFunction,ViaPad*%
%ADD19C,0.600000*%
%TD*%
%TA.AperFunction,Conductor*%
%ADD20C,0.601000*%
%TD*%
%TA.AperFunction,Conductor*%
%ADD21C,0.800000*%
%TD*%
G04 APERTURE END LIST*
D10*
%TO.P,C3,1*%
%TO.N,+12V*%
X185420000Y-99695000D03*
%TO.P,C3,2*%
%TO.N,GND*%
X183520000Y-99695000D03*
%TD*%
D11*
%TO.P,U1,1,B1*%
%TO.N,Net-(U1-B1)*%
X149225000Y-87630000D03*
%TO.P,U1,2,B0*%
%TO.N,Net-(U1-B0)*%
X149225000Y-88900000D03*
%TO.P,U1,3,C1*%
%TO.N,Net-(U1-C1)*%
X149225000Y-90170000D03*
%TO.P,U1,4,C*%
%TO.N,Net-(J2-P12)*%
X149225000Y-91440000D03*
%TO.P,U1,5,C0*%
%TO.N,Net-(U1-C0)*%
X149225000Y-92710000D03*
%TO.P,U1,6,INH*%
%TO.N,Net-(U1-INH)*%
X149225000Y-93980000D03*
%TO.P,U1,7,VEE*%
%TO.N,GND*%
X149225000Y-95250000D03*
%TO.P,U1,8,VSS*%
X149225000Y-96520000D03*
%TO.P,U1,9,S3*%
%TO.N,Net-(U1-S1)*%
X155725000Y-96520000D03*
%TO.P,U1,10,S2*%
X155725000Y-95250000D03*
%TO.P,U1,11,S1*%
X155725000Y-93980000D03*
%TO.P,U1,12,A0*%
%TO.N,Net-(U1-A0)*%
X155725000Y-92710000D03*
%TO.P,U1,13,A1*%
%TO.N,unconnected-(U1-A1-Pad13)*%
X155725000Y-91440000D03*
%TO.P,U1,14,A*%
%TO.N,Net-(U1-A)*%
X155725000Y-90170000D03*
%TO.P,U1,15,B*%
%TO.N,Net-(J2-P13)*%
X155725000Y-88900000D03*
%TO.P,U1,16,VDD*%
%TO.N,+12V*%
X155725000Y-87630000D03*
%TD*%
D12*
%TO.P,D1,1,K*%
%TO.N,GND*%
X182910000Y-73660000D03*
%TO.P,D1,2,A*%
%TO.N,Net-(D1-A)*%
X184785000Y-73660000D03*
%TD*%
D13*
%TO.P,R1,1*%
%TO.N,Net-(U2-A0)*%
X162560000Y-96920000D03*
%TO.P,R1,2*%
%TO.N,GND*%
X162560000Y-98745000D03*
%TD*%
D14*
%TO.P,C2,1*%
%TO.N,Net-(U1-B0)*%
X175260000Y-90800000D03*
%TO.P,C2,2*%
%TO.N,Net-(U2-B0)*%
X175260000Y-88900000D03*
%TD*%
D11*
%TO.P,U2,1,B1*%
%TO.N,Net-(U2-B1)*%
X183515000Y-87630000D03*
%TO.P,U2,2,B0*%
%TO.N,Net-(U2-B0)*%
X183515000Y-88900000D03*
%TO.P,U2,3,C1*%
%TO.N,Net-(U2-C1)*%
X183515000Y-90170000D03*
%TO.P,U2,4,C*%
%TO.N,Net-(U2-C)*%
X183515000Y-91440000D03*
%TO.P,U2,5,C0*%
%TO.N,Net-(U1-C0)*%
X183515000Y-92710000D03*
%TO.P,U2,6,INH*%
%TO.N,Net-(U1-INH)*%
X183515000Y-93980000D03*
%TO.P,U2,7,VEE*%
%TO.N,GND*%
X183515000Y-95250000D03*
%TO.P,U2,8,VSS*%
X183515000Y-96520000D03*
%TO.P,U2,9,S3*%
%TO.N,Net-(U1-S1)*%
X190015000Y-96520000D03*
%TO.P,U2,10,S2*%
X190015000Y-95250000D03*
%TO.P,U2,11,S1*%
X190015000Y-93980000D03*
%TO.P,U2,12,A0*%
%TO.N,Net-(U2-A0)*%
X190015000Y-92710000D03*
%TO.P,U2,13,A1*%
%TO.N,unconnected-(U2-A1-Pad13)*%
X190015000Y-91440000D03*
%TO.P,U2,14,A*%
%TO.N,Net-(J3-P13)*%
X190015000Y-90170000D03*
%TO.P,U2,15,B*%
%TO.N,Net-(U2-B)*%
X190015000Y-88900000D03*
%TO.P,U2,16,VDD*%
%TO.N,+12V*%
X190015000Y-87630000D03*
%TD*%
D15*
%TO.P,J2,1,1*%
%TO.N,unconnected-(J2-Pad1)*%
X132715000Y-100035000D03*
D16*
%TO.P,J2,2,2*%
%TO.N,unconnected-(J2-Pad2)*%
X132715000Y-97265000D03*
%TO.P,J2,3,3*%
%TO.N,unconnected-(J2-Pad3)*%
X132715000Y-94495000D03*
%TO.P,J2,4,4*%
%TO.N,unconnected-(J2-Pad4)*%
X132715000Y-91725000D03*
%TO.P,J2,5,5*%
%TO.N,unconnected-(J2-Pad5)*%
X132715000Y-88955000D03*
%TO.P,J2,6,6*%
%TO.N,unconnected-(J2-Pad6)*%
X132715000Y-86185000D03*
%TO.P,J2,7,7*%
%TO.N,Net-(U1-A)*%
X132715000Y-83415000D03*
%TO.P,J2,8,8*%
%TO.N,unconnected-(J2-Pad8)*%
X132715000Y-80645000D03*
%TO.P,J2,9,P9*%
%TO.N,unconnected-(J2-P9-Pad9)*%
X130175000Y-98650000D03*
%TO.P,J2,10,P10*%
%TO.N,unconnected-(J2-P10-Pad10)*%
X130175000Y-95880000D03*
%TO.P,J2,11,P111*%
%TO.N,unconnected-(J2-P111-Pad11)*%
X130175000Y-93110000D03*
%TO.P,J2,12,P12*%
%TO.N,Net-(J2-P12)*%
X130175000Y-90340000D03*
%TO.P,J2,13,P13*%
%TO.N,Net-(J2-P13)*%
X130175000Y-87570000D03*
%TO.P,J2,14,P14*%
%TO.N,unconnected-(J2-P14-Pad14)*%
X130175000Y-84800000D03*
%TO.P,J2,15,P15*%
%TO.N,GND*%
X130175000Y-82030000D03*
%TD*%
D10*
%TO.P,C4,1*%
%TO.N,+12V*%
X151130000Y-99695000D03*
%TO.P,C4,2*%
%TO.N,GND*%
X149230000Y-99695000D03*
%TD*%
D17*
%TO.P,C1,1*%
%TO.N,Net-(U1-A0)*%
X162560000Y-93030000D03*
%TO.P,C1,2*%
%TO.N,Net-(U2-A0)*%
X162560000Y-94930000D03*
%TD*%
D15*
%TO.P,J1,1,1*%
%TO.N,GND*%
X162735000Y-73660000D03*
D16*
%TO.P,J1,2,2*%
%TO.N,Net-(U2-C1)*%
X165505000Y-73660000D03*
%TO.P,J1,3,3*%
%TO.N,unconnected-(J1-Pad3)*%
X168275000Y-73660000D03*
%TO.P,J1,4,4*%
%TO.N,Net-(U1-C1)*%
X171045000Y-73660000D03*
%TO.P,J1,5,5*%
%TO.N,+12V*%
X173815000Y-73660000D03*
%TO.P,J1,6,6*%
%TO.N,Net-(U1-INH)*%
X164120000Y-71120000D03*
%TO.P,J1,7,7*%
%TO.N,Net-(U2-B1)*%
X166890000Y-71120000D03*
%TO.P,J1,8,8*%
%TO.N,Net-(U1-S1)*%
X169660000Y-71120000D03*
%TO.P,J1,9,9*%
%TO.N,Net-(U1-B1)*%
X172430000Y-71120000D03*
%TD*%
D18*
%TO.P,R3,1*%
%TO.N,+12V*%
X179070000Y-73660000D03*
%TO.P,R3,2*%
%TO.N,Net-(D1-A)*%
X180895000Y-73660000D03*
%TD*%
D15*
%TO.P,J3,1,1*%
%TO.N,unconnected-(J3-Pad1)*%
X205105000Y-79895000D03*
D16*
%TO.P,J3,2,2*%
%TO.N,Net-(U2-C)*%
X205105000Y-82665000D03*
%TO.P,J3,3,3*%
%TO.N,unconnected-(J3-Pad3)*%
X205105000Y-85435000D03*
%TO.P,J3,4,4*%
%TO.N,unconnected-(J3-Pad4)*%
X205105000Y-88205000D03*
%TO.P,J3,5,5*%
%TO.N,unconnected-(J3-Pad5)*%
X205105000Y-90975000D03*
%TO.P,J3,6,6*%
%TO.N,unconnected-(J3-Pad6)*%
X205105000Y-93745000D03*
%TO.P,J3,7,7*%
%TO.N,Net-(U2-B)*%
X205105000Y-96515000D03*
%TO.P,J3,8,8*%
%TO.N,unconnected-(J3-Pad8)*%
X205105000Y-99285000D03*
%TO.P,J3,9,P9*%
%TO.N,unconnected-(J3-P9-Pad9)*%
X207645000Y-81280000D03*
%TO.P,J3,10,P10*%
%TO.N,unconnected-(J3-P10-Pad10)*%
X207645000Y-84050000D03*
%TO.P,J3,11,P111*%
%TO.N,unconnected-(J3-P111-Pad11)*%
X207645000Y-86820000D03*
%TO.P,J3,12,P12*%
%TO.N,unconnected-(J3-P12-Pad12)*%
X207645000Y-89590000D03*
%TO.P,J3,13,P13*%
%TO.N,Net-(J3-P13)*%
X207645000Y-92360000D03*
%TO.P,J3,14,P14*%
%TO.N,unconnected-(J3-P14-Pad14)*%
X207645000Y-95130000D03*
%TO.P,J3,15,P15*%
%TO.N,GND*%
X207645000Y-97900000D03*
%TD*%
D13*
%TO.P,R2,1*%
%TO.N,Net-(U1-B0)*%
X175260000Y-92710000D03*
%TO.P,R2,2*%
%TO.N,GND*%
X175260000Y-94535000D03*
%TD*%
D19*
%TO.N,GND*%
X184785000Y-84582000D03*
%TO.N,Net-(U2-A0)*%
X164780000Y-94930000D03*
X187964900Y-94615000D03*
%TO.N,GND*%
X175895000Y-71120000D03*
X147955000Y-80645000D03*
X181356000Y-71755000D03*
X179705000Y-92710000D03*
X180975000Y-96520000D03*
X163195000Y-80645000D03*
X196215000Y-85725000D03*
X130175000Y-100584000D03*
X154305000Y-80645000D03*
X168910000Y-80645000D03*
X177800000Y-86995000D03*
%TO.N,Net-(U1-INH)*%
X150689100Y-94720600D03*
X184915800Y-93110600D03*
%TO.N,Net-(U1-S1)*%
X157103300Y-103050000D03*
X160448600Y-74412500D03*
X153597625Y-94590875D03*
%TO.N,Net-(U2-B1)*%
X178224300Y-84842000D03*
%TO.N,Net-(U1-A)*%
X152489250Y-91529250D03*
%TO.N,Net-(U2-C1)*%
X178523700Y-90170000D03*
%TO.N,+12V*%
X154168900Y-88991100D03*
X184785000Y-70358000D03*
X155097300Y-99712500D03*
X186942600Y-91547300D03*
%TO.N,Net-(J2-P13)*%
X157899400Y-88900000D03*
X157899400Y-77059000D03*
%TD*%
D20*
%TO.N,Net-(U1-INH)*%
X184531000Y-93980000D02*
X184046400Y-93980000D01*
X184915800Y-93595200D02*
X184531000Y-93980000D01*
X184915800Y-93110600D02*
X184915800Y-93595200D01*
D21*
%TO.N,Net-(U2-C)*%
X185166000Y-91440000D02*
X183515000Y-91440000D01*
X186055000Y-90551000D02*
X185166000Y-91440000D01*
X186055000Y-83820000D02*
X186055000Y-90551000D01*
X187210000Y-82665000D02*
X186055000Y-83820000D01*
X205105000Y-82665000D02*
X187210000Y-82665000D01*
%TO.N,+12V*%
X187325000Y-91164900D02*
X186942600Y-91547300D01*
X187325000Y-88265000D02*
X187325000Y-91164900D01*
X187960000Y-87630000D02*
X187325000Y-88265000D01*
X190015000Y-87630000D02*
X187960000Y-87630000D01*
%TO.N,Net-(U1-S1)*%
X155725000Y-93980000D02*
X155725000Y-96520000D01*
X154208500Y-93980000D02*
X155725000Y-93980000D01*
X153597625Y-94590875D02*
X154208500Y-93980000D01*
%TO.N,Net-(U1-A0)*%
X162494000Y-92964000D02*
X162560000Y-93030000D01*
X159258000Y-92964000D02*
X162494000Y-92964000D01*
X159004000Y-92710000D02*
X159258000Y-92964000D01*
X155725000Y-92710000D02*
X159004000Y-92710000D01*
%TO.N,Net-(J2-P12)*%
X149215000Y-91450000D02*
X149225000Y-91440000D01*
X138547000Y-91450000D02*
X149215000Y-91450000D01*
X137160000Y-92837000D02*
X138547000Y-91450000D01*
X136144000Y-102235000D02*
X137160000Y-101219000D01*
X137160000Y-101219000D02*
X137160000Y-92837000D01*
X128143000Y-102235000D02*
X136144000Y-102235000D01*
X127000000Y-101092000D02*
X128143000Y-102235000D01*
X128100000Y-90340000D02*
X127000000Y-91440000D01*
X130175000Y-90340000D02*
X128100000Y-90340000D01*
X127000000Y-91440000D02*
X127000000Y-101092000D01*
%TO.N,Net-(U1-C1)*%
X171450000Y-76962000D02*
X171450000Y-74065000D01*
X171450000Y-74065000D02*
X171045000Y-73660000D01*
X147275000Y-78150000D02*
X170262000Y-78150000D01*
X146685000Y-90170000D02*
X146050000Y-89535000D01*
X170262000Y-78150000D02*
X171450000Y-76962000D01*
X149225000Y-90170000D02*
X146685000Y-90170000D01*
X146050000Y-89535000D02*
X146050000Y-79375000D01*
X146050000Y-79375000D02*
X147275000Y-78150000D01*
%TO.N,Net-(U2-A0)*%
X162703000Y-96777000D02*
X162560000Y-96920000D01*
X187964900Y-94615000D02*
X187964900Y-93196800D01*
X162703000Y-95073000D02*
X162703000Y-96777000D01*
X188451700Y-92710000D02*
X190015000Y-92710000D01*
X162560000Y-94930000D02*
X162703000Y-95073000D01*
X164780000Y-94930000D02*
X162560000Y-94930000D01*
X187964900Y-93196800D02*
X188451700Y-92710000D01*
%TO.N,Net-(U2-B0)*%
X183515000Y-88900000D02*
X175260000Y-88900000D01*
%TO.N,Net-(U1-B0)*%
X151130000Y-85090000D02*
X151765000Y-84455000D01*
X150495000Y-88900000D02*
X151130000Y-88265000D01*
X172085000Y-84455000D02*
X173355000Y-85725000D01*
X149225000Y-88900000D02*
X150495000Y-88900000D01*
X151130000Y-88265000D02*
X151130000Y-85090000D01*
X173355000Y-90170000D02*
X173990000Y-90805000D01*
X173990000Y-90805000D02*
X173995000Y-90800000D01*
X173995000Y-90800000D02*
X175260000Y-90800000D01*
X151765000Y-84455000D02*
X172085000Y-84455000D01*
X173355000Y-85725000D02*
X173355000Y-90170000D01*
X175260000Y-90800000D02*
X175260000Y-92710000D01*
%TO.N,Net-(U1-B1)*%
X186690000Y-69850000D02*
X186690000Y-81769372D01*
X149225000Y-84455000D02*
X149225000Y-87630000D01*
X186690000Y-81769372D02*
X185295472Y-83163900D01*
X172430000Y-69505000D02*
X173355000Y-68580000D01*
X185420000Y-68580000D02*
X186690000Y-69850000D01*
X150516100Y-83163900D02*
X149225000Y-84455000D01*
X185295472Y-83163900D02*
X150516100Y-83163900D01*
X173355000Y-68580000D02*
X185420000Y-68580000D01*
X172430000Y-71120000D02*
X172430000Y-69505000D01*
D20*
%TO.N,Net-(U1-INH)*%
X149948500Y-93980000D02*
X149225000Y-93980000D01*
D21*
X183515000Y-93980000D02*
X184046400Y-93980000D01*
D20*
X150689100Y-94720600D02*
X149948500Y-93980000D01*
D21*
%TO.N,Net-(U1-S1)*%
X160448600Y-74412500D02*
X160448600Y-69421400D01*
X190015000Y-96520000D02*
X190015000Y-102085000D01*
X190015000Y-102085000D02*
X189050000Y-103050000D01*
X189050000Y-103050000D02*
X157103300Y-103050000D01*
X168910000Y-68580000D02*
X169660000Y-69330000D01*
X160448600Y-69421400D02*
X161290000Y-68580000D01*
X169660000Y-69330000D02*
X169660000Y-71120000D01*
X190015000Y-93980000D02*
X190015000Y-95250000D01*
X190015000Y-96520000D02*
X190015000Y-95250000D01*
X161290000Y-68580000D02*
X168910000Y-68580000D01*
%TO.N,Net-(U2-B1)*%
X183515000Y-87630000D02*
X183515000Y-85725000D01*
X183515000Y-85725000D02*
X182632000Y-84842000D01*
X182632000Y-84842000D02*
X178224300Y-84842000D01*
%TO.N,Net-(U1-A)*%
X153783200Y-90235300D02*
X155659700Y-90235300D01*
X155659700Y-90235300D02*
X155725000Y-90170000D01*
X152489250Y-91529250D02*
X153783200Y-90235300D01*
%TO.N,Net-(U2-B)*%
X198167200Y-88900000D02*
X190015000Y-88900000D01*
X205105000Y-95837800D02*
X198167200Y-88900000D01*
X205105000Y-96515000D02*
X205105000Y-95837800D01*
%TO.N,Net-(U2-C1)*%
X178523700Y-90170000D02*
X183515000Y-90170000D01*
%TO.N,+12V*%
X154168900Y-88555300D02*
X154168900Y-88991100D01*
X185420000Y-99618600D02*
X185420000Y-99695000D01*
X186153500Y-92336400D02*
X186153500Y-94341700D01*
X151147500Y-99712500D02*
X151130000Y-99695000D01*
X155725000Y-87630000D02*
X155625800Y-87630000D01*
X185420000Y-97790000D02*
X180178900Y-97790000D01*
X156310500Y-100925700D02*
X155097300Y-99712500D01*
X173815000Y-73660000D02*
X179070000Y-73660000D01*
X185420000Y-95075200D02*
X185420000Y-99695000D01*
X155725000Y-87630000D02*
X155094200Y-87630000D01*
X179070000Y-71501000D02*
X179070000Y-73660000D01*
X180213000Y-70358000D02*
X179070000Y-71501000D01*
X155097300Y-99712500D02*
X151147500Y-99712500D01*
X155094200Y-87630000D02*
X154168900Y-88555300D01*
X186942600Y-91547300D02*
X186153500Y-92336400D01*
X177043200Y-100925700D02*
X156310500Y-100925700D01*
X180178900Y-97790000D02*
X177043200Y-100925700D01*
X184785000Y-70358000D02*
X180213000Y-70358000D01*
X186153500Y-94341700D02*
X185420000Y-95075200D01*
%TO.N,Net-(J2-P13)*%
X127892500Y-87570000D02*
X130175000Y-87570000D01*
X127000000Y-78105000D02*
X127000000Y-86677500D01*
X157899400Y-77059000D02*
X128046000Y-77059000D01*
X127000000Y-86677500D02*
X127892500Y-87570000D01*
X128046000Y-77059000D02*
X127000000Y-78105000D01*
X157899400Y-88900000D02*
X155725000Y-88900000D01*
%TO.N,Net-(J3-P13)*%
X210820000Y-100330000D02*
X210820000Y-93345000D01*
X210820000Y-93345000D02*
X209835000Y-92360000D01*
X209550000Y-101600000D02*
X210820000Y-100330000D01*
X201930000Y-100330000D02*
X203200000Y-101600000D01*
X201930000Y-94615000D02*
X201930000Y-100330000D01*
X209835000Y-92360000D02*
X207645000Y-92360000D01*
X203200000Y-101600000D02*
X209550000Y-101600000D01*
X190015000Y-90170000D02*
X197485000Y-90170000D01*
X197485000Y-90170000D02*
X201930000Y-94615000D01*
%TO.N,Net-(D1-A)*%
X180895000Y-73660000D02*
X180895000Y-74850000D01*
X181610000Y-75565000D02*
X184150000Y-75565000D01*
X180895000Y-74850000D02*
X181610000Y-75565000D01*
X184785000Y-74930000D02*
X184785000Y-73660000D01*
X184150000Y-75565000D02*
X184785000Y-74930000D01*
%TO.N,Net-(U1-C0)*%
X149225000Y-92710000D02*
X149970700Y-92710000D01*
X182880000Y-92710000D02*
X183515000Y-92710000D01*
X157169500Y-99908800D02*
X175681200Y-99908800D01*
X175681200Y-99908800D02*
X182880000Y-92710000D01*
X149970700Y-92710000D02*
X157169500Y-99908800D01*
%TD*%
%TA.AperFunction,Conductor*%
%TO.N,GND*%
G36*
X129251992Y-91260185D02*
G01*
X129272634Y-91276819D01*
X129327786Y-91331971D01*
X129476224Y-91439815D01*
X129493390Y-91452287D01*
X129595787Y-91504461D01*
X129675776Y-91545218D01*
X129675778Y-91545218D01*
X129675781Y-91545220D01*
X129727385Y-91561987D01*
X129866131Y-91607069D01*
X129923806Y-91646507D01*
X129951004Y-91710866D01*
X129939089Y-91779712D01*
X129891845Y-91831188D01*
X129866131Y-91842931D01*
X129675776Y-91904781D01*
X129493386Y-91997715D01*
X129327786Y-92118028D01*
X129183028Y-92262786D01*
X129062715Y-92428386D01*
X128969781Y-92610776D01*
X128906522Y-92805465D01*
X128874500Y-93007648D01*
X128874500Y-93212351D01*
X128906522Y-93414534D01*
X128969781Y-93609223D01*
X129022404Y-93712499D01*
X129048804Y-93764313D01*
X129062715Y-93791613D01*
X129183028Y-93957213D01*
X129327786Y-94101971D01*
X129456797Y-94195701D01*
X129493390Y-94222287D01*
X129609607Y-94281503D01*
X129675776Y-94315218D01*
X129675778Y-94315218D01*
X129675781Y-94315220D01*
X129754956Y-94340945D01*
X129866131Y-94377069D01*
X129923806Y-94416507D01*
X129951004Y-94480866D01*
X129939089Y-94549712D01*
X129891845Y-94601188D01*
X129866131Y-94612931D01*
X129675776Y-94674781D01*
X129493386Y-94767715D01*
X129327786Y-94888028D01*
X129183028Y-95032786D01*
X129062715Y-95198386D01*
X128969781Y-95380776D01*
X128906522Y-95575465D01*
X128874500Y-95777648D01*
X128874500Y-95982351D01*
X128906522Y-96184534D01*
X128969781Y-96379223D01*
X129062715Y-96561613D01*
X129183028Y-96727213D01*
X129327786Y-96871971D01*
X129482749Y-96984556D01*
X129493390Y-96992287D01*
X129609607Y-97051503D01*
X129675776Y-97085218D01*
X129675778Y-97085218D01*
X129675781Y-97085220D01*
X129754956Y-97110945D01*
X129866131Y-97147069D01*
X129923806Y-97186507D01*
X129951004Y-97250866D01*
X129939089Y-97319712D01*
X129891845Y-97371188D01*
X129866131Y-97382931D01*
X129675776Y-97444781D01*
X129493386Y-97537715D01*
X129327786Y-97658028D01*
X129183028Y-97802786D01*
X129062715Y-97968386D01*
X128969781Y-98150776D01*
X128906522Y-98345465D01*
X128874500Y-98547648D01*
X128874500Y-98752351D01*
X128906522Y-98954534D01*
X128969781Y-99149223D01*
X129062715Y-99331613D01*
X129183028Y-99497213D01*
X129327786Y-99641971D01*
X129482749Y-99754556D01*
X129493390Y-99762287D01*
X129604695Y-99819000D01*
X129675776Y-99855218D01*
X129675778Y-99855218D01*
X129675781Y-99855220D01*
X129780137Y-99889127D01*
X129870465Y-99918477D01*
X129955820Y-99931996D01*
X130072648Y-99950500D01*
X130072649Y-99950500D01*
X130277351Y-99950500D01*
X130277352Y-99950500D01*
X130479534Y-99918477D01*
X130674219Y-99855220D01*
X130856610Y-99762287D01*
X130949590Y-99694732D01*
X131022213Y-99641971D01*
X131022215Y-99641968D01*
X131022219Y-99641966D01*
X131166966Y-99497219D01*
X131190181Y-99465265D01*
X131245510Y-99422600D01*
X131315123Y-99416619D01*
X131376919Y-99449224D01*
X131411277Y-99510062D01*
X131414500Y-99538150D01*
X131414500Y-100882870D01*
X131414501Y-100882876D01*
X131420908Y-100942483D01*
X131471202Y-101077328D01*
X131471204Y-101077331D01*
X131515265Y-101136189D01*
X131539683Y-101201652D01*
X131524832Y-101269925D01*
X131475427Y-101319331D01*
X131415999Y-101334500D01*
X128567362Y-101334500D01*
X128500323Y-101314815D01*
X128479681Y-101298181D01*
X127936819Y-100755319D01*
X127903334Y-100693996D01*
X127900500Y-100667638D01*
X127900500Y-91864362D01*
X127920185Y-91797323D01*
X127936819Y-91776681D01*
X128436681Y-91276819D01*
X128498004Y-91243334D01*
X128524362Y-91240500D01*
X129184953Y-91240500D01*
X129251992Y-91260185D01*
G37*
%TD.AperFunction*%
%TA.AperFunction,Conductor*%
G36*
X145959677Y-77979185D02*
G01*
X146005432Y-78031989D01*
X146015376Y-78101147D01*
X145986351Y-78164703D01*
X145980319Y-78171181D01*
X145354175Y-78797323D01*
X145354170Y-78797329D01*
X145350536Y-78800964D01*
X145318130Y-78849464D01*
X145317610Y-78850240D01*
X145317597Y-78850261D01*
X145251988Y-78948451D01*
X145251986Y-78948455D01*
X145224052Y-79015895D01*
X145184105Y-79112333D01*
X145184103Y-79112341D01*
X145149500Y-79286303D01*
X145149500Y-89623696D01*
X145184103Y-89797659D01*
X145184104Y-89797663D01*
X145184105Y-89797666D01*
X145202317Y-89841632D01*
X145251984Y-89961542D01*
X145251985Y-89961543D01*
X145251987Y-89961547D01*
X145285820Y-90012181D01*
X145309863Y-90048163D01*
X145309863Y-90048164D01*
X145350537Y-90109038D01*
X145350540Y-90109041D01*
X145579319Y-90337819D01*
X145612804Y-90399142D01*
X145607820Y-90468833D01*
X145565949Y-90524767D01*
X145500484Y-90549184D01*
X145491638Y-90549500D01*
X138458303Y-90549500D01*
X138284341Y-90584103D01*
X138284329Y-90584106D01*
X138202392Y-90618045D01*
X138202393Y-90618046D01*
X138120455Y-90651985D01*
X138045174Y-90702287D01*
X138045173Y-90702288D01*
X137972961Y-90750537D01*
X136460540Y-92262958D01*
X136460534Y-92262965D01*
X136434406Y-92302068D01*
X136434394Y-92302088D01*
X136431851Y-92305895D01*
X136361987Y-92410453D01*
X136334620Y-92476523D01*
X136331717Y-92483530D01*
X136331716Y-92483533D01*
X136294105Y-92574333D01*
X136294103Y-92574341D01*
X136259500Y-92748303D01*
X136259500Y-100794638D01*
X136239815Y-100861677D01*
X136223181Y-100882319D01*
X135807319Y-101298181D01*
X135745996Y-101331666D01*
X135719638Y-101334500D01*
X134014001Y-101334500D01*
X133946962Y-101314815D01*
X133901207Y-101262011D01*
X133891263Y-101192853D01*
X133914734Y-101136189D01*
X133958796Y-101077331D01*
X134009091Y-100942483D01*
X134015500Y-100882873D01*
X134015499Y-99187128D01*
X134009091Y-99127517D01*
X134000601Y-99104755D01*
X133958797Y-98992671D01*
X133958793Y-98992664D01*
X133872547Y-98877455D01*
X133872544Y-98877452D01*
X133757335Y-98791206D01*
X133757328Y-98791202D01*
X133622482Y-98740908D01*
X133622483Y-98740908D01*
X133562883Y-98734501D01*
X133562881Y-98734500D01*
X133562873Y-98734500D01*
X133562865Y-98734500D01*
X133183753Y-98734500D01*
X133116714Y-98714815D01*
X133070959Y-98662011D01*
X133061015Y-98592853D01*
X133090040Y-98529297D01*
X133145434Y-98492569D01*
X133214219Y-98470220D01*
X133396610Y-98377287D01*
X133502851Y-98300099D01*
X133562213Y-98256971D01*
X133562215Y-98256968D01*
X133562219Y-98256966D01*
X133706966Y-98112219D01*
X133706968Y-98112215D01*
X133706971Y-98112213D01*
X133759732Y-98039590D01*
X133827287Y-97946610D01*
X133920220Y-97764219D01*
X133983477Y-97569534D01*
X134015500Y-97367352D01*
X134015500Y-97162648D01*
X134014892Y-97158812D01*
X133983477Y-96960465D01*
X133937685Y-96819534D01*
X133920220Y-96765781D01*
X133920218Y-96765778D01*
X133920218Y-96765776D01*
X133859188Y-96646000D01*
X133827287Y-96583390D01*
X133811463Y-96561610D01*
X133706971Y-96417786D01*
X133562213Y-96273028D01*
X133396613Y-96152715D01*
X133396612Y-96152714D01*
X133396610Y-96152713D01*
X133312000Y-96109602D01*
X133214223Y-96059781D01*
X133023868Y-95997931D01*
X132966193Y-95958493D01*
X132938995Y-95894134D01*
X132950910Y-95825288D01*
X132998154Y-95773812D01*
X133023868Y-95762069D01*
X133110147Y-95734035D01*
X133214219Y-95700220D01*
X133396610Y-95607287D01*
X133494432Y-95536216D01*
X133562213Y-95486971D01*
X133562215Y-95486968D01*
X133562219Y-95486966D01*
X133706966Y-95342219D01*
X133706968Y-95342215D01*
X133706971Y-95342213D01*
X133759732Y-95269590D01*
X133827287Y-95176610D01*
X133920220Y-94994219D01*
X133983477Y-94799534D01*
X134015500Y-94597352D01*
X134015500Y-94392648D01*
X134014892Y-94388812D01*
X133983477Y-94190465D01*
X133931176Y-94029500D01*
X133920220Y-93995781D01*
X133920218Y-93995778D01*
X133920218Y-93995776D01*
X133857513Y-93872712D01*
X133827287Y-93813390D01*
X133811463Y-93791610D01*
X133706971Y-93647786D01*
X133562213Y-93503028D01*
X133396613Y-93382715D01*
X133396612Y-93382714D01*
X133396610Y-93382713D01*
X133295695Y-93331294D01*
X133214223Y-93289781D01*
X133023868Y-93227931D01*
X132966193Y-93188493D01*
X132938995Y-93124134D01*
X132950910Y-93055288D01*
X132998154Y-93003812D01*
X133023868Y-92992069D01*
X133066508Y-92978213D01*
X133214219Y-92930220D01*
X133396610Y-92837287D01*
X133489590Y-92769732D01*
X133562213Y-92716971D01*
X133562215Y-92716968D01*
X133562219Y-92716966D01*
X133706966Y-92572219D01*
X133706968Y-92572215D01*
X133706971Y-92572213D01*
X133770895Y-92484227D01*
X133827287Y-92406610D01*
X133920220Y-92224219D01*
X133983477Y-92029534D01*
X134015500Y-91827352D01*
X134015500Y-91622648D01*
X134014755Y-91617942D01*
X133983477Y-91420465D01*
X133933480Y-91266591D01*
X133920220Y-91225781D01*
X133920218Y-91225778D01*
X133920218Y-91225776D01*
X133874372Y-91135800D01*
X133827287Y-91043390D01*
X133787868Y-90989134D01*
X133706971Y-90877786D01*
X133562213Y-90733028D01*
X133396613Y-90612715D01*
X133396612Y-90612714D01*
X133396610Y-90612713D01*
X133333188Y-90580398D01*
X133214223Y-90519781D01*
X133023868Y-90457931D01*
X132966193Y-90418493D01*
X132938995Y-90354134D01*
X132950910Y-90285288D01*
X132998154Y-90233812D01*
X133023868Y-90222069D01*
X133066508Y-90208213D01*
X133214219Y-90160220D01*
X133396610Y-90067287D01*
X133489590Y-89999732D01*
X133562213Y-89946971D01*
X133562215Y-89946968D01*
X133562219Y-89946966D01*
X133706966Y-89802219D01*
X133706968Y-89802215D01*
X133706971Y-89802213D01*
X133760047Y-89729158D01*
X133827287Y-89636610D01*
X133920220Y-89454219D01*
X133983477Y-89259534D01*
X134015500Y-89057352D01*
X134015500Y-88852648D01*
X134013344Y-88839034D01*
X133983477Y-88650465D01*
X133950894Y-88550185D01*
X133920220Y-88455781D01*
X133920218Y-88455778D01*
X133920218Y-88455776D01*
X133875499Y-88368011D01*
X133827287Y-88273390D01*
X133811463Y-88251610D01*
X133706971Y-88107786D01*
X133562213Y-87963028D01*
X133396613Y-87842715D01*
X133396612Y-87842714D01*
X133396610Y-87842713D01*
X133336266Y-87811966D01*
X133214223Y-87749781D01*
X133023868Y-87687931D01*
X132966193Y-87648493D01*
X132938995Y-87584134D01*
X132950910Y-87515288D01*
X132998154Y-87463812D01*
X133023868Y-87452069D01*
X133066508Y-87438213D01*
X133214219Y-87390220D01*
X133396610Y-87297287D01*
X133503535Y-87219602D01*
X133562213Y-87176971D01*
X133562215Y-87176968D01*
X133562219Y-87176966D01*
X133706966Y-87032219D01*
X133706968Y-87032215D01*
X133706971Y-87032213D01*
X133773852Y-86940158D01*
X133827287Y-86866610D01*
X133920220Y-86684219D01*
X133983477Y-86489534D01*
X134015500Y-86287352D01*
X134015500Y-86082648D01*
X134014892Y-86078812D01*
X133983477Y-85880465D01*
X133937685Y-85739534D01*
X133920220Y-85685781D01*
X133920218Y-85685778D01*
X133920218Y-85685776D01*
X133852529Y-85552931D01*
X133827287Y-85503390D01*
X133811463Y-85481610D01*
X133706971Y-85337786D01*
X133562213Y-85193028D01*
X133396613Y-85072715D01*
X133396612Y-85072714D01*
X133396610Y-85072713D01*
X133336266Y-85041966D01*
X133214223Y-84979781D01*
X133023868Y-84917931D01*
X132966193Y-84878493D01*
X132938995Y-84814134D01*
X132950910Y-84745288D01*
X132998154Y-84693812D01*
X133023868Y-84682069D01*
X133066508Y-84668213D01*
X133214219Y-84620220D01*
X133396610Y-84527287D01*
X133489590Y-84459732D01*
X133562213Y-84406971D01*
X133562215Y-84406968D01*
X133562219Y-84406966D01*
X133706966Y-84262219D01*
X133706968Y-84262215D01*
X133706971Y-84262213D01*
X133768647Y-84177322D01*
X133827287Y-84096610D01*
X133920220Y-83914219D01*
X133983477Y-83719534D01*
X134015500Y-83517352D01*
X134015500Y-83312648D01*
X133998099Y-83202786D01*
X133983477Y-83110465D01*
X133937685Y-82969534D01*
X133920220Y-82915781D01*
X133920218Y-82915778D01*
X133920218Y-82915776D01*
X133852529Y-82782931D01*
X133827287Y-82733390D01*
X133811274Y-82711350D01*
X133706971Y-82567786D01*
X133562213Y-82423028D01*
X133396613Y-82302715D01*
X133396612Y-82302714D01*
X133396610Y-82302713D01*
X133313892Y-82260566D01*
X133214223Y-82209781D01*
X133023868Y-82147931D01*
X132966193Y-82108493D01*
X132938995Y-82044134D01*
X132950910Y-81975288D01*
X132998154Y-81923812D01*
X133023868Y-81912069D01*
X133066508Y-81898213D01*
X133214219Y-81850220D01*
X133396610Y-81757287D01*
X133507879Y-81676446D01*
X133562213Y-81636971D01*
X133562215Y-81636968D01*
X133562219Y-81636966D01*
X133706966Y-81492219D01*
X133706968Y-81492215D01*
X133706971Y-81492213D01*
X133775425Y-81397992D01*
X133827287Y-81326610D01*
X133920220Y-81144219D01*
X133983477Y-80949534D01*
X134015500Y-80747352D01*
X134015500Y-80542648D01*
X133998099Y-80432784D01*
X133983477Y-80340465D01*
X133954127Y-80250137D01*
X133920220Y-80145781D01*
X133920218Y-80145778D01*
X133920218Y-80145776D01*
X133884043Y-80074780D01*
X133827287Y-79963390D01*
X133819556Y-79952749D01*
X133706971Y-79797786D01*
X133562213Y-79653028D01*
X133396613Y-79532715D01*
X133396612Y-79532714D01*
X133396610Y-79532713D01*
X133339653Y-79503691D01*
X133214223Y-79439781D01*
X133019534Y-79376522D01*
X132844995Y-79348878D01*
X132817352Y-79344500D01*
X132612648Y-79344500D01*
X132588329Y-79348351D01*
X132410465Y-79376522D01*
X132215776Y-79439781D01*
X132033386Y-79532715D01*
X131867786Y-79653028D01*
X131723028Y-79797786D01*
X131602715Y-79963386D01*
X131509781Y-80145776D01*
X131446522Y-80340465D01*
X131419136Y-80513379D01*
X131414500Y-80542648D01*
X131414500Y-80747352D01*
X131418878Y-80774995D01*
X131446522Y-80949534D01*
X131509781Y-81144223D01*
X131544984Y-81213311D01*
X131591231Y-81304076D01*
X131602715Y-81326613D01*
X131723028Y-81492213D01*
X131867786Y-81636971D01*
X132016224Y-81744815D01*
X132033390Y-81757287D01*
X132149607Y-81816503D01*
X132215776Y-81850218D01*
X132215778Y-81850218D01*
X132215781Y-81850220D01*
X132294956Y-81875945D01*
X132406131Y-81912069D01*
X132463806Y-81951507D01*
X132491004Y-82015866D01*
X132479089Y-82084712D01*
X132431845Y-82136188D01*
X132406131Y-82147931D01*
X132215776Y-82209781D01*
X132033386Y-82302715D01*
X131867786Y-82423028D01*
X131723028Y-82567786D01*
X131602715Y-82733386D01*
X131509781Y-82915776D01*
X131446522Y-83110465D01*
X131414500Y-83312648D01*
X131414500Y-83517351D01*
X131446522Y-83719534D01*
X131509781Y-83914223D01*
X131567985Y-84028453D01*
X131598903Y-84089133D01*
X131602715Y-84096613D01*
X131723028Y-84262213D01*
X131867786Y-84406971D01*
X132022749Y-84519556D01*
X132033390Y-84527287D01*
X132135534Y-84579332D01*
X132215776Y-84620218D01*
X132215778Y-84620218D01*
X132215781Y-84620220D01*
X132294956Y-84645945D01*
X132406131Y-84682069D01*
X132463806Y-84721507D01*
X132491004Y-84785866D01*
X132479089Y-84854712D01*
X132431845Y-84906188D01*
X132406131Y-84917931D01*
X132215776Y-84979781D01*
X132033386Y-85072715D01*
X131867786Y-85193028D01*
X131723028Y-85337786D01*
X131602715Y-85503386D01*
X131509781Y-85685776D01*
X131446522Y-85880465D01*
X131414500Y-86082648D01*
X131414500Y-86287351D01*
X131446522Y-86489534D01*
X131509781Y-86684223D01*
X131551547Y-86766192D01*
X131597987Y-86857335D01*
X131602715Y-86866613D01*
X131723028Y-87032213D01*
X131867786Y-87176971D01*
X132022749Y-87289556D01*
X132033390Y-87297287D01*
X132149607Y-87356503D01*
X132215776Y-87390218D01*
X132215778Y-87390218D01*
X132215781Y-87390220D01*
X132289910Y-87414306D01*
X132406131Y-87452069D01*
X132463806Y-87491507D01*
X132491004Y-87555866D01*
X132479089Y-87624712D01*
X132431845Y-87676188D01*
X132406131Y-87687931D01*
X132215776Y-87749781D01*
X132033386Y-87842715D01*
X131867786Y-87963028D01*
X131723028Y-88107786D01*
X131602715Y-88273386D01*
X131509781Y-88455776D01*
X131446522Y-88650465D01*
X131414500Y-88852648D01*
X131414500Y-89057351D01*
X131446522Y-89259534D01*
X131509781Y-89454223D01*
X131602715Y-89636613D01*
X131723028Y-89802213D01*
X131867786Y-89946971D01*
X132022749Y-90059556D01*
X132033390Y-90067287D01*
X132115327Y-90109036D01*
X132215776Y-90160218D01*
X132215778Y-90160218D01*
X132215781Y-90160220D01*
X132294956Y-90185945D01*
X132406131Y-90222069D01*
X132463806Y-90261507D01*
X132491004Y-90325866D01*
X132479089Y-90394712D01*
X132431845Y-90446188D01*
X132406131Y-90457931D01*
X132215776Y-90519781D01*
X132033386Y-90612715D01*
X131867786Y-90733028D01*
X131723028Y-90877786D01*
X131602715Y-91043386D01*
X131509781Y-91225776D01*
X131446522Y-91420465D01*
X131415245Y-91617942D01*
X131414500Y-91622648D01*
X131414500Y-91827352D01*
X131417456Y-91846016D01*
X131446522Y-92029534D01*
X131509781Y-92224223D01*
X131562283Y-92327262D01*
X131598070Y-92397498D01*
X131602715Y-92406613D01*
X131723028Y-92572213D01*
X131867786Y-92716971D01*
X132016453Y-92824982D01*
X132033390Y-92837287D01*
X132149607Y-92896503D01*
X132215776Y-92930218D01*
X132215778Y-92930218D01*
X132215781Y-92930220D01*
X132294956Y-92955945D01*
X132406131Y-92992069D01*
X132463806Y-93031507D01*
X132491004Y-93095866D01*
X132479089Y-93164712D01*
X132431845Y-93216188D01*
X132406131Y-93227931D01*
X132215776Y-93289781D01*
X132033386Y-93382715D01*
X131867786Y-93503028D01*
X131723028Y-93647786D01*
X131602715Y-93813386D01*
X131509781Y-93995776D01*
X131446522Y-94190465D01*
X131414500Y-94392648D01*
X131414500Y-94597351D01*
X131446522Y-94799534D01*
X131509781Y-94994223D01*
X131602715Y-95176613D01*
X131723028Y-95342213D01*
X131867786Y-95486971D01*
X132008761Y-95589393D01*
X132033390Y-95607287D01*
X132137224Y-95660193D01*
X132215776Y-95700218D01*
X132215778Y-95700218D01*
X132215781Y-95700220D01*
X132294956Y-95725945D01*
X132406131Y-95762069D01*
X132463806Y-95801507D01*
X132491004Y-95865866D01*
X132479089Y-95934712D01*
X132431845Y-95986188D01*
X132406131Y-95997931D01*
X132215776Y-96059781D01*
X132033386Y-96152715D01*
X131867786Y-96273028D01*
X131723028Y-96417786D01*
X131602715Y-96583386D01*
X131509781Y-96765776D01*
X131446522Y-96960465D01*
X131414500Y-97162648D01*
X131414500Y-97367351D01*
X131446522Y-97569534D01*
X131509781Y-97764223D01*
X131566831Y-97876187D01*
X131595778Y-97933000D01*
X131602715Y-97946613D01*
X131723028Y-98112213D01*
X131867786Y-98256971D01*
X132017751Y-98365925D01*
X132033390Y-98377287D01*
X132215781Y-98470220D01*
X132284567Y-98492570D01*
X132342241Y-98532006D01*
X132369440Y-98596365D01*
X132357526Y-98665211D01*
X132310282Y-98716687D01*
X132246248Y-98734500D01*
X131867130Y-98734500D01*
X131867123Y-98734501D01*
X131807516Y-98740908D01*
X131672671Y-98791202D01*
X131664886Y-98795454D01*
X131664080Y-98793978D01*
X131608345Y-98814766D01*
X131540072Y-98799914D01*
X131490667Y-98750508D01*
X131475500Y-98691082D01*
X131475500Y-98547648D01*
X131443477Y-98345465D01*
X131397647Y-98204417D01*
X131380220Y-98150781D01*
X131380218Y-98150778D01*
X131380218Y-98150776D01*
X131312529Y-98017931D01*
X131287287Y-97968390D01*
X131237600Y-97900001D01*
X131166971Y-97802786D01*
X131022213Y-97658028D01*
X130856613Y-97537715D01*
X130856612Y-97537714D01*
X130856610Y-97537713D01*
X130799653Y-97508691D01*
X130674223Y-97444781D01*
X130483868Y-97382931D01*
X130426193Y-97343493D01*
X130398995Y-97279134D01*
X130410910Y-97210288D01*
X130458154Y-97158812D01*
X130483868Y-97147069D01*
X130526508Y-97133213D01*
X130674219Y-97085220D01*
X130856610Y-96992287D01*
X130949590Y-96924732D01*
X131022213Y-96871971D01*
X131022215Y-96871968D01*
X131022219Y-96871966D01*
X131166966Y-96727219D01*
X131166968Y-96727215D01*
X131166971Y-96727213D01*
X131235279Y-96633193D01*
X131287287Y-96561610D01*
X131380220Y-96379219D01*
X131443477Y-96184534D01*
X131475500Y-95982352D01*
X131475500Y-95777648D01*
X131474718Y-95772712D01*
X131443477Y-95575465D01*
X131397685Y-95434534D01*
X131380220Y-95380781D01*
X131380218Y-95380778D01*
X131380218Y-95380776D01*
X131327668Y-95277642D01*
X131287287Y-95198390D01*
X131271463Y-95176610D01*
X131166971Y-95032786D01*
X131022213Y-94888028D01*
X130856613Y-94767715D01*
X130856612Y-94767714D01*
X130856610Y-94767713D01*
X130786017Y-94731744D01*
X130674223Y-94674781D01*
X130483868Y-94612931D01*
X130426193Y-94573493D01*
X130398995Y-94509134D01*
X130410910Y-94440288D01*
X130458154Y-94388812D01*
X130483868Y-94377069D01*
X130534344Y-94360668D01*
X130674219Y-94315220D01*
X130856610Y-94222287D01*
X130964229Y-94144098D01*
X131022213Y-94101971D01*
X131022215Y-94101968D01*
X131022219Y-94101966D01*
X131166966Y-93957219D01*
X131166968Y-93957215D01*
X131166971Y-93957213D01*
X131234330Y-93864499D01*
X131287287Y-93791610D01*
X131380220Y-93609219D01*
X131443477Y-93414534D01*
X131475500Y-93212352D01*
X131475500Y-93007648D01*
X131474892Y-93003812D01*
X131443477Y-92805465D01*
X131391513Y-92645537D01*
X131380220Y-92610781D01*
X131380218Y-92610778D01*
X131380218Y-92610776D01*
X131320873Y-92494306D01*
X131287287Y-92428390D01*
X131264843Y-92397498D01*
X131166971Y-92262786D01*
X131022213Y-92118028D01*
X130856613Y-91997715D01*
X130856612Y-91997714D01*
X130856610Y-91997713D01*
X130788088Y-91962799D01*
X130674223Y-91904781D01*
X130483868Y-91842931D01*
X130426193Y-91803493D01*
X130398995Y-91739134D01*
X130410910Y-91670288D01*
X130458154Y-91618812D01*
X130483868Y-91607069D01*
X130531968Y-91591440D01*
X130674219Y-91545220D01*
X130856610Y-91452287D01*
X130963377Y-91374717D01*
X131022213Y-91331971D01*
X131022215Y-91331968D01*
X131022219Y-91331966D01*
X131166966Y-91187219D01*
X131166968Y-91187215D01*
X131166971Y-91187213D01*
X131219732Y-91114590D01*
X131287287Y-91021610D01*
X131380220Y-90839219D01*
X131443477Y-90644534D01*
X131475500Y-90442352D01*
X131475500Y-90237648D01*
X131473732Y-90226484D01*
X131443477Y-90035465D01*
X131410583Y-89934228D01*
X131380220Y-89840781D01*
X131380218Y-89840778D01*
X131380218Y-89840776D01*
X131312529Y-89707931D01*
X131287287Y-89658390D01*
X131258042Y-89618137D01*
X131166971Y-89492786D01*
X131022213Y-89348028D01*
X130856613Y-89227715D01*
X130856612Y-89227714D01*
X130856610Y-89227713D01*
X130796266Y-89196966D01*
X130674223Y-89134781D01*
X130483868Y-89072931D01*
X130426193Y-89033493D01*
X130398995Y-88969134D01*
X130410910Y-88900288D01*
X130458154Y-88848812D01*
X130483868Y-88837069D01*
X130563148Y-88811309D01*
X130674219Y-88775220D01*
X130856610Y-88682287D01*
X130969878Y-88599994D01*
X131022213Y-88561971D01*
X131022215Y-88561968D01*
X131022219Y-88561966D01*
X131166966Y-88417219D01*
X131166968Y-88417215D01*
X131166971Y-88417213D01*
X131233268Y-88325961D01*
X131287287Y-88251610D01*
X131380220Y-88069219D01*
X131443477Y-87874534D01*
X131475500Y-87672352D01*
X131475500Y-87467648D01*
X131474892Y-87463812D01*
X131443477Y-87265465D01*
X131414127Y-87175137D01*
X131380220Y-87070781D01*
X131380218Y-87070778D01*
X131380218Y-87070776D01*
X131312529Y-86937931D01*
X131287287Y-86888390D01*
X131271463Y-86866610D01*
X131166971Y-86722786D01*
X131022213Y-86578028D01*
X130856613Y-86457715D01*
X130856612Y-86457714D01*
X130856610Y-86457713D01*
X130796266Y-86426966D01*
X130674223Y-86364781D01*
X130483868Y-86302931D01*
X130426193Y-86263493D01*
X130398995Y-86199134D01*
X130410910Y-86130288D01*
X130458154Y-86078812D01*
X130483868Y-86067069D01*
X130526508Y-86053213D01*
X130674219Y-86005220D01*
X130856610Y-85912287D01*
X130949590Y-85844732D01*
X131022213Y-85791971D01*
X131022215Y-85791968D01*
X131022219Y-85791966D01*
X131166966Y-85647219D01*
X131166968Y-85647215D01*
X131166971Y-85647213D01*
X131219732Y-85574590D01*
X131287287Y-85481610D01*
X131380220Y-85299219D01*
X131443477Y-85104534D01*
X131475500Y-84902352D01*
X131475500Y-84697648D01*
X131474892Y-84693812D01*
X131443477Y-84495465D01*
X131388442Y-84326086D01*
X131380220Y-84300781D01*
X131380218Y-84300778D01*
X131380218Y-84300776D01*
X131336389Y-84214758D01*
X131287287Y-84118390D01*
X131258381Y-84078604D01*
X131166971Y-83952786D01*
X131022213Y-83808028D01*
X130856613Y-83687715D01*
X130856612Y-83687714D01*
X130856610Y-83687713D01*
X130796266Y-83656966D01*
X130674223Y-83594781D01*
X130483060Y-83532668D01*
X130425385Y-83493230D01*
X130398187Y-83428871D01*
X130410102Y-83360025D01*
X130457346Y-83308549D01*
X130483061Y-83296806D01*
X130674029Y-83234755D01*
X130856349Y-83141859D01*
X130900921Y-83109474D01*
X130304409Y-82512962D01*
X130367993Y-82495925D01*
X130482007Y-82430099D01*
X130575099Y-82337007D01*
X130640925Y-82222993D01*
X130657962Y-82159410D01*
X131254474Y-82755922D01*
X131254474Y-82755921D01*
X131286859Y-82711349D01*
X131379755Y-82529031D01*
X131442990Y-82334417D01*
X131475000Y-82132317D01*
X131475000Y-81927682D01*
X131442990Y-81725582D01*
X131379755Y-81530968D01*
X131286859Y-81348650D01*
X131254474Y-81304077D01*
X131254474Y-81304076D01*
X130657962Y-81900589D01*
X130640925Y-81837007D01*
X130575099Y-81722993D01*
X130482007Y-81629901D01*
X130367993Y-81564075D01*
X130304408Y-81547037D01*
X130900922Y-80950524D01*
X130900921Y-80950523D01*
X130856359Y-80918147D01*
X130856350Y-80918141D01*
X130674031Y-80825244D01*
X130479417Y-80762009D01*
X130277317Y-80730000D01*
X130072683Y-80730000D01*
X129870582Y-80762009D01*
X129675968Y-80825244D01*
X129493644Y-80918143D01*
X129449077Y-80950523D01*
X129449077Y-80950524D01*
X130045591Y-81547037D01*
X129982007Y-81564075D01*
X129867993Y-81629901D01*
X129774901Y-81722993D01*
X129709075Y-81837007D01*
X129692037Y-81900590D01*
X129095524Y-81304077D01*
X129095523Y-81304077D01*
X129063143Y-81348644D01*
X128970244Y-81530968D01*
X128907009Y-81725582D01*
X128875000Y-81927682D01*
X128875000Y-82132317D01*
X128907009Y-82334417D01*
X128970244Y-82529031D01*
X129063141Y-82711350D01*
X129063147Y-82711359D01*
X129095523Y-82755921D01*
X129095524Y-82755922D01*
X129692037Y-82159409D01*
X129709075Y-82222993D01*
X129774901Y-82337007D01*
X129867993Y-82430099D01*
X129982007Y-82495925D01*
X130045590Y-82512962D01*
X129449076Y-83109474D01*
X129493650Y-83141859D01*
X129675968Y-83234755D01*
X129866939Y-83296806D01*
X129924614Y-83336244D01*
X129951812Y-83400603D01*
X129939897Y-83469449D01*
X129892653Y-83520925D01*
X129866939Y-83532668D01*
X129675776Y-83594781D01*
X129493386Y-83687715D01*
X129327786Y-83808028D01*
X129183028Y-83952786D01*
X129062715Y-84118386D01*
X128969781Y-84300776D01*
X128906522Y-84495465D01*
X128874500Y-84697648D01*
X128874500Y-84902351D01*
X128906522Y-85104534D01*
X128969781Y-85299223D01*
X129016962Y-85391819D01*
X129053230Y-85462999D01*
X129062715Y-85481613D01*
X129183028Y-85647213D01*
X129327786Y-85791971D01*
X129482749Y-85904556D01*
X129493390Y-85912287D01*
X129609607Y-85971503D01*
X129675776Y-86005218D01*
X129675778Y-86005218D01*
X129675781Y-86005220D01*
X129754956Y-86030945D01*
X129866131Y-86067069D01*
X129923806Y-86106507D01*
X129951004Y-86170866D01*
X129939089Y-86239712D01*
X129891845Y-86291188D01*
X129866131Y-86302931D01*
X129675776Y-86364781D01*
X129493386Y-86457715D01*
X129327786Y-86578028D01*
X129327782Y-86578032D01*
X129272634Y-86633181D01*
X129211311Y-86666666D01*
X129184953Y-86669500D01*
X128316861Y-86669500D01*
X128249822Y-86649815D01*
X128229180Y-86633181D01*
X127936819Y-86340819D01*
X127903334Y-86279496D01*
X127900500Y-86253138D01*
X127900500Y-78529361D01*
X127920185Y-78462322D01*
X127936819Y-78441680D01*
X128382680Y-77995819D01*
X128444003Y-77962334D01*
X128470361Y-77959500D01*
X145892638Y-77959500D01*
X145959677Y-77979185D01*
G37*
%TD.AperFunction*%
%TA.AperFunction,Conductor*%
G36*
X206224808Y-81118096D02*
G01*
X206238147Y-81116179D01*
X206258285Y-81125375D01*
X206279916Y-81130079D01*
X206289444Y-81139605D01*
X206301703Y-81145204D01*
X206313673Y-81163829D01*
X206329326Y-81179480D01*
X206333013Y-81193924D01*
X206339477Y-81203982D01*
X206344500Y-81238917D01*
X206344500Y-81382351D01*
X206376522Y-81584534D01*
X206439781Y-81779223D01*
X206503691Y-81904653D01*
X206527565Y-81951507D01*
X206532715Y-81961613D01*
X206653028Y-82127213D01*
X206797786Y-82271971D01*
X206927050Y-82365885D01*
X206963390Y-82392287D01*
X207079607Y-82451503D01*
X207145776Y-82485218D01*
X207145778Y-82485218D01*
X207145781Y-82485220D01*
X207178728Y-82495925D01*
X207336131Y-82547069D01*
X207393806Y-82586507D01*
X207421004Y-82650866D01*
X207409089Y-82719712D01*
X207361845Y-82771188D01*
X207336131Y-82782931D01*
X207145776Y-82844781D01*
X206963386Y-82937715D01*
X206797786Y-83058028D01*
X206653028Y-83202786D01*
X206532715Y-83368386D01*
X206439781Y-83550776D01*
X206376522Y-83745465D01*
X206345108Y-83943812D01*
X206344500Y-83947648D01*
X206344500Y-84152352D01*
X206346745Y-84166523D01*
X206376522Y-84354534D01*
X206439781Y-84549223D01*
X206497985Y-84663453D01*
X206527565Y-84721507D01*
X206532715Y-84731613D01*
X206653028Y-84897213D01*
X206797786Y-85041971D01*
X206947797Y-85150958D01*
X206963390Y-85162287D01*
X207079607Y-85221503D01*
X207145776Y-85255218D01*
X207145778Y-85255218D01*
X207145781Y-85255220D01*
X207186816Y-85268553D01*
X207336131Y-85317069D01*
X207393806Y-85356507D01*
X207421004Y-85420866D01*
X207409089Y-85489712D01*
X207361845Y-85541188D01*
X207336131Y-85552931D01*
X207145776Y-85614781D01*
X206963386Y-85707715D01*
X206797786Y-85828028D01*
X206653028Y-85972786D01*
X206532715Y-86138386D01*
X206439781Y-86320776D01*
X206376522Y-86515465D01*
X206345108Y-86713812D01*
X206344500Y-86717648D01*
X206344500Y-86922352D01*
X206345797Y-86930540D01*
X206376522Y-87124534D01*
X206439781Y-87319223D01*
X206488225Y-87414298D01*
X206527565Y-87491507D01*
X206532715Y-87501613D01*
X206653028Y-87667213D01*
X206797786Y-87811971D01*
X206949305Y-87922054D01*
X206963390Y-87932287D01*
X207027968Y-87965191D01*
X207145776Y-88025218D01*
X207145778Y-88025218D01*
X207145781Y-88025220D01*
X207224956Y-88050945D01*
X207336131Y-88087069D01*
X207393806Y-88126507D01*
X207421004Y-88190866D01*
X207409089Y-88259712D01*
X207361845Y-88311188D01*
X207336131Y-88322931D01*
X207145776Y-88384781D01*
X206963386Y-88477715D01*
X206797786Y-88598028D01*
X206653028Y-88742786D01*
X206532715Y-88908386D01*
X206439781Y-89090776D01*
X206376522Y-89285465D01*
X206344500Y-89487648D01*
X206344500Y-89692351D01*
X206376522Y-89894534D01*
X206439781Y-90089223D01*
X206485016Y-90178000D01*
X206527565Y-90261507D01*
X206532715Y-90271613D01*
X206653028Y-90437213D01*
X206797786Y-90581971D01*
X206933112Y-90680289D01*
X206963390Y-90702287D01*
X207045325Y-90744035D01*
X207145776Y-90795218D01*
X207145778Y-90795218D01*
X207145781Y-90795220D01*
X207175881Y-90805000D01*
X207336131Y-90857069D01*
X207393806Y-90896507D01*
X207421004Y-90960866D01*
X207409089Y-91029712D01*
X207361845Y-91081188D01*
X207336131Y-91092931D01*
X207145776Y-91154781D01*
X206963386Y-91247715D01*
X206797786Y-91368028D01*
X206653028Y-91512786D01*
X206532715Y-91678386D01*
X206439781Y-91860776D01*
X206376522Y-92055465D01*
X206344500Y-92257648D01*
X206344500Y-92462351D01*
X206376522Y-92664534D01*
X206439781Y-92859223D01*
X206503691Y-92984653D01*
X206527565Y-93031507D01*
X206532715Y-93041613D01*
X206653028Y-93207213D01*
X206797786Y-93351971D01*
X206952749Y-93464556D01*
X206963390Y-93472287D01*
X207079607Y-93531503D01*
X207145776Y-93565218D01*
X207145778Y-93565218D01*
X207145781Y-93565220D01*
X207189789Y-93579519D01*
X207336131Y-93627069D01*
X207393806Y-93666507D01*
X207421004Y-93730866D01*
X207409089Y-93799712D01*
X207361845Y-93851188D01*
X207336131Y-93862931D01*
X207145776Y-93924781D01*
X206963386Y-94017715D01*
X206797786Y-94138028D01*
X206653028Y-94282786D01*
X206532715Y-94448386D01*
X206439781Y-94630776D01*
X206376522Y-94825465D01*
X206344500Y-95027648D01*
X206344500Y-95232351D01*
X206376522Y-95434534D01*
X206439781Y-95629223D01*
X206494511Y-95736635D01*
X206531855Y-95809927D01*
X206532715Y-95811613D01*
X206653028Y-95977213D01*
X206797786Y-96121971D01*
X206952749Y-96234556D01*
X206963390Y-96242287D01*
X207145781Y-96335220D01*
X207291807Y-96382666D01*
X207336938Y-96397331D01*
X207394614Y-96436769D01*
X207421812Y-96501127D01*
X207409897Y-96569974D01*
X207362653Y-96621449D01*
X207336939Y-96633193D01*
X207145968Y-96695244D01*
X206963644Y-96788143D01*
X206919077Y-96820523D01*
X206919077Y-96820524D01*
X207515591Y-97417037D01*
X207452007Y-97434075D01*
X207337993Y-97499901D01*
X207244901Y-97592993D01*
X207179075Y-97707007D01*
X207162037Y-97770590D01*
X206565524Y-97174077D01*
X206565523Y-97174077D01*
X206533143Y-97218644D01*
X206440244Y-97400968D01*
X206377009Y-97595582D01*
X206345000Y-97797682D01*
X206345000Y-98002317D01*
X206377009Y-98204417D01*
X206440244Y-98399031D01*
X206533141Y-98581350D01*
X206533147Y-98581359D01*
X206565523Y-98625921D01*
X206565524Y-98625922D01*
X207162037Y-98029409D01*
X207179075Y-98092993D01*
X207244901Y-98207007D01*
X207337993Y-98300099D01*
X207452007Y-98365925D01*
X207515590Y-98382962D01*
X206919076Y-98979474D01*
X206963650Y-99011859D01*
X207145968Y-99104755D01*
X207340582Y-99167990D01*
X207542683Y-99200000D01*
X207747317Y-99200000D01*
X207949417Y-99167990D01*
X208144031Y-99104755D01*
X208326349Y-99011859D01*
X208370921Y-98979474D01*
X207774409Y-98382962D01*
X207837993Y-98365925D01*
X207952007Y-98300099D01*
X208045099Y-98207007D01*
X208110925Y-98092993D01*
X208127962Y-98029410D01*
X208724474Y-98625922D01*
X208724474Y-98625921D01*
X208756859Y-98581349D01*
X208849755Y-98399031D01*
X208912990Y-98204417D01*
X208945000Y-98002317D01*
X208945000Y-97797682D01*
X208912990Y-97595582D01*
X208849755Y-97400968D01*
X208756859Y-97218650D01*
X208724474Y-97174077D01*
X208724474Y-97174076D01*
X208127962Y-97770589D01*
X208110925Y-97707007D01*
X208045099Y-97592993D01*
X207952007Y-97499901D01*
X207837993Y-97434075D01*
X207774408Y-97417037D01*
X208370922Y-96820524D01*
X208370921Y-96820523D01*
X208326359Y-96788147D01*
X208326350Y-96788141D01*
X208144031Y-96695244D01*
X207953060Y-96633193D01*
X207895385Y-96593755D01*
X207868187Y-96529396D01*
X207880102Y-96460550D01*
X207927347Y-96409074D01*
X207953061Y-96397331D01*
X207957157Y-96396000D01*
X208144219Y-96335220D01*
X208326610Y-96242287D01*
X208446813Y-96154955D01*
X208492213Y-96121971D01*
X208492215Y-96121968D01*
X208492219Y-96121966D01*
X208636966Y-95977219D01*
X208636968Y-95977215D01*
X208636971Y-95977213D01*
X208709765Y-95877019D01*
X208757287Y-95811610D01*
X208850220Y-95629219D01*
X208913477Y-95434534D01*
X208945500Y-95232352D01*
X208945500Y-95027648D01*
X208927775Y-94915737D01*
X208913477Y-94825465D01*
X208850218Y-94630776D01*
X208802961Y-94538031D01*
X208757287Y-94448390D01*
X208729759Y-94410500D01*
X208636971Y-94282786D01*
X208492213Y-94138028D01*
X208326613Y-94017715D01*
X208326612Y-94017714D01*
X208326610Y-94017713D01*
X208252594Y-93980000D01*
X208144223Y-93924781D01*
X207953868Y-93862931D01*
X207896193Y-93823493D01*
X207868995Y-93759134D01*
X207880910Y-93690288D01*
X207928154Y-93638812D01*
X207953868Y-93627069D01*
X207996508Y-93613213D01*
X208144219Y-93565220D01*
X208326610Y-93472287D01*
X208419590Y-93404732D01*
X208492213Y-93351971D01*
X208492215Y-93351968D01*
X208492219Y-93351966D01*
X208547366Y-93296819D01*
X208608689Y-93263334D01*
X208635047Y-93260500D01*
X209410638Y-93260500D01*
X209477677Y-93280185D01*
X209498319Y-93296819D01*
X209883181Y-93681680D01*
X209916666Y-93743003D01*
X209919500Y-93769361D01*
X209919500Y-99905638D01*
X209899815Y-99972677D01*
X209883181Y-99993319D01*
X209213319Y-100663181D01*
X209151996Y-100696666D01*
X209125638Y-100699500D01*
X205709982Y-100699500D01*
X205642943Y-100679815D01*
X205597188Y-100627011D01*
X205587244Y-100557853D01*
X205616269Y-100494297D01*
X205653687Y-100465015D01*
X205672589Y-100455383D01*
X205786610Y-100397287D01*
X205889275Y-100322697D01*
X205952213Y-100276971D01*
X205952215Y-100276968D01*
X205952219Y-100276966D01*
X206096966Y-100132219D01*
X206096968Y-100132215D01*
X206096971Y-100132213D01*
X206149732Y-100059590D01*
X206217287Y-99966610D01*
X206310220Y-99784219D01*
X206373477Y-99589534D01*
X206405500Y-99387352D01*
X206405500Y-99182648D01*
X206373477Y-98980466D01*
X206373475Y-98980461D01*
X206373475Y-98980458D01*
X206370254Y-98970544D01*
X206370250Y-98970534D01*
X206325285Y-98832147D01*
X206310220Y-98785781D01*
X206310218Y-98785778D01*
X206310218Y-98785776D01*
X206248786Y-98665211D01*
X206217287Y-98603390D01*
X206201274Y-98581350D01*
X206096971Y-98437786D01*
X205952213Y-98293028D01*
X205786613Y-98172715D01*
X205786612Y-98172714D01*
X205786610Y-98172713D01*
X205729653Y-98143691D01*
X205604223Y-98079781D01*
X205413868Y-98017931D01*
X205356193Y-97978493D01*
X205328995Y-97914134D01*
X205340910Y-97845288D01*
X205388154Y-97793812D01*
X205413868Y-97782069D01*
X205468804Y-97764219D01*
X205604219Y-97720220D01*
X205786610Y-97627287D01*
X205866101Y-97569534D01*
X205952213Y-97506971D01*
X205952215Y-97506968D01*
X205952219Y-97506966D01*
X206096966Y-97362219D01*
X206096968Y-97362215D01*
X206096971Y-97362213D01*
X206157330Y-97279134D01*
X206217287Y-97196610D01*
X206310220Y-97014219D01*
X206373477Y-96819534D01*
X206405500Y-96617352D01*
X206405500Y-96412648D01*
X206404934Y-96409074D01*
X206373477Y-96210465D01*
X206310218Y-96015776D01*
X206257046Y-95911421D01*
X206217287Y-95833390D01*
X206189759Y-95795500D01*
X206096971Y-95667786D01*
X205964700Y-95535515D01*
X205937820Y-95495286D01*
X205903016Y-95411259D01*
X205903014Y-95411255D01*
X205903013Y-95411253D01*
X205879208Y-95375626D01*
X205804464Y-95263763D01*
X205649846Y-95109145D01*
X205616361Y-95047822D01*
X205621345Y-94978130D01*
X205663217Y-94922197D01*
X205681229Y-94910980D01*
X205786610Y-94857287D01*
X205866101Y-94799534D01*
X205952213Y-94736971D01*
X205952215Y-94736968D01*
X205952219Y-94736966D01*
X206096966Y-94592219D01*
X206096968Y-94592215D01*
X206096971Y-94592213D01*
X206177868Y-94480866D01*
X206217287Y-94426610D01*
X206310220Y-94244219D01*
X206373477Y-94049534D01*
X206405500Y-93847352D01*
X206405500Y-93642648D01*
X206403526Y-93630185D01*
X206373477Y-93440465D01*
X206333894Y-93318642D01*
X206310220Y-93245781D01*
X206310218Y-93245778D01*
X206310218Y-93245776D01*
X206248830Y-93125297D01*
X206217287Y-93063390D01*
X206187591Y-93022516D01*
X206096971Y-92897786D01*
X205952213Y-92753028D01*
X205786613Y-92632715D01*
X205786612Y-92632714D01*
X205786610Y-92632713D01*
X205729653Y-92603691D01*
X205604223Y-92539781D01*
X205413868Y-92477931D01*
X205356193Y-92438493D01*
X205328995Y-92374134D01*
X205340910Y-92305288D01*
X205388154Y-92253812D01*
X205413868Y-92242069D01*
X205468804Y-92224219D01*
X205604219Y-92180220D01*
X205786610Y-92087287D01*
X205906852Y-91999927D01*
X205952213Y-91966971D01*
X205952220Y-91966965D01*
X206024111Y-91895074D01*
X206096966Y-91822219D01*
X206096968Y-91822215D01*
X206096971Y-91822213D01*
X206177868Y-91710866D01*
X206217287Y-91656610D01*
X206310220Y-91474219D01*
X206373477Y-91279534D01*
X206405500Y-91077352D01*
X206405500Y-90872648D01*
X206404441Y-90865961D01*
X206373477Y-90670465D01*
X206334070Y-90549184D01*
X206310220Y-90475781D01*
X206310218Y-90475778D01*
X206310218Y-90475776D01*
X206264314Y-90385686D01*
X206217287Y-90293390D01*
X206189759Y-90255500D01*
X206096971Y-90127786D01*
X205952213Y-89983028D01*
X205786613Y-89862715D01*
X205786612Y-89862714D01*
X205786610Y-89862713D01*
X205728578Y-89833144D01*
X205604223Y-89769781D01*
X205413868Y-89707931D01*
X205356193Y-89668493D01*
X205328995Y-89604134D01*
X205340910Y-89535288D01*
X205388154Y-89483812D01*
X205413868Y-89472069D01*
X205476058Y-89451862D01*
X205604219Y-89410220D01*
X205786610Y-89317287D01*
X205879590Y-89249732D01*
X205952213Y-89196971D01*
X205952215Y-89196968D01*
X205952219Y-89196966D01*
X206096966Y-89052219D01*
X206096968Y-89052215D01*
X206096971Y-89052213D01*
X206177868Y-88940866D01*
X206217287Y-88886610D01*
X206310220Y-88704219D01*
X206373477Y-88509534D01*
X206405500Y-88307352D01*
X206405500Y-88102648D01*
X206404892Y-88098812D01*
X206373477Y-87900465D01*
X206310218Y-87705776D01*
X206268913Y-87624712D01*
X206217287Y-87523390D01*
X206189759Y-87485500D01*
X206096971Y-87357786D01*
X205952213Y-87213028D01*
X205786613Y-87092715D01*
X205786612Y-87092714D01*
X205786610Y-87092713D01*
X205725622Y-87061638D01*
X205604223Y-86999781D01*
X205413868Y-86937931D01*
X205356193Y-86898493D01*
X205328995Y-86834134D01*
X205340910Y-86765288D01*
X205388154Y-86713812D01*
X205413868Y-86702069D01*
X205514104Y-86669500D01*
X205604219Y-86640220D01*
X205786610Y-86547287D01*
X205879590Y-86479732D01*
X205952213Y-86426971D01*
X205952215Y-86426968D01*
X205952219Y-86426966D01*
X206096966Y-86282219D01*
X206096968Y-86282215D01*
X206096971Y-86282213D01*
X206193492Y-86149361D01*
X206217287Y-86116610D01*
X206310220Y-85934219D01*
X206373477Y-85739534D01*
X206405500Y-85537352D01*
X206405500Y-85332648D01*
X206404893Y-85328812D01*
X206373477Y-85130465D01*
X206310218Y-84935776D01*
X206268913Y-84854712D01*
X206217287Y-84753390D01*
X206189759Y-84715500D01*
X206096971Y-84587786D01*
X205952213Y-84443028D01*
X205786613Y-84322715D01*
X205786612Y-84322714D01*
X205786610Y-84322713D01*
X205695090Y-84276081D01*
X205604223Y-84229781D01*
X205413868Y-84167931D01*
X205356193Y-84128493D01*
X205328995Y-84064134D01*
X205340910Y-83995288D01*
X205388154Y-83943812D01*
X205413868Y-83932069D01*
X205485814Y-83908692D01*
X205604219Y-83870220D01*
X205786610Y-83777287D01*
X205879590Y-83709732D01*
X205952213Y-83656971D01*
X205952215Y-83656968D01*
X205952219Y-83656966D01*
X206096966Y-83512219D01*
X206096968Y-83512215D01*
X206096971Y-83512213D01*
X206178059Y-83400603D01*
X206217287Y-83346610D01*
X206310220Y-83164219D01*
X206373477Y-82969534D01*
X206405500Y-82767352D01*
X206405500Y-82562648D01*
X206404892Y-82558812D01*
X206373477Y-82360465D01*
X206341938Y-82263400D01*
X206310220Y-82165781D01*
X206310218Y-82165778D01*
X206310218Y-82165776D01*
X206268913Y-82084712D01*
X206217287Y-81983390D01*
X206176813Y-81927682D01*
X206096971Y-81817786D01*
X205952213Y-81673028D01*
X205786613Y-81552715D01*
X205786612Y-81552714D01*
X205786610Y-81552713D01*
X205729653Y-81523691D01*
X205604223Y-81459781D01*
X205567010Y-81447690D01*
X205535431Y-81437429D01*
X205477757Y-81397992D01*
X205450559Y-81333633D01*
X205462474Y-81264787D01*
X205509718Y-81213311D01*
X205573750Y-81195499D01*
X205952872Y-81195499D01*
X206012483Y-81189091D01*
X206147331Y-81138796D01*
X206147334Y-81138793D01*
X206155114Y-81134546D01*
X206155920Y-81136022D01*
X206158806Y-81134946D01*
X206168989Y-81126123D01*
X206190900Y-81122972D01*
X206211642Y-81115234D01*
X206224808Y-81118096D01*
G37*
%TD.AperFunction*%
%TA.AperFunction,Conductor*%
G36*
X171727677Y-85375185D02*
G01*
X171748319Y-85391819D01*
X172418181Y-86061681D01*
X172451666Y-86123004D01*
X172454500Y-86149362D01*
X172454500Y-90258696D01*
X172489103Y-90432658D01*
X172489105Y-90432666D01*
X172514699Y-90494456D01*
X172514702Y-90494463D01*
X172516993Y-90499992D01*
X172556987Y-90596547D01*
X172612942Y-90680289D01*
X172616379Y-90685433D01*
X172616385Y-90685444D01*
X172655532Y-90744031D01*
X172655538Y-90744039D01*
X173286195Y-91374694D01*
X173286216Y-91374717D01*
X173415960Y-91504461D01*
X173415968Y-91504467D01*
X173502054Y-91561988D01*
X173502055Y-91561988D01*
X173563447Y-91603009D01*
X173563451Y-91603011D01*
X173563454Y-91603013D01*
X173715261Y-91665894D01*
X173727334Y-91670895D01*
X173876171Y-91700500D01*
X173901303Y-91705499D01*
X173901307Y-91705500D01*
X173901308Y-91705500D01*
X174078693Y-91705500D01*
X174078693Y-91705499D01*
X174091849Y-91702883D01*
X174116041Y-91700500D01*
X174196269Y-91700500D01*
X174263308Y-91720185D01*
X174309063Y-91772989D01*
X174319007Y-91842147D01*
X174289982Y-91905703D01*
X174283951Y-91912181D01*
X174217287Y-91978845D01*
X174125187Y-92128163D01*
X174125185Y-92128168D01*
X174097349Y-92212170D01*
X174070001Y-92294703D01*
X174070001Y-92294704D01*
X174070000Y-92294704D01*
X174059501Y-92397476D01*
X174059500Y-92397496D01*
X174059500Y-93022501D01*
X174059501Y-93022519D01*
X174070000Y-93125296D01*
X174070001Y-93125299D01*
X174121443Y-93280538D01*
X174125186Y-93291834D01*
X174216862Y-93440466D01*
X174217289Y-93441157D01*
X174311304Y-93535172D01*
X174344789Y-93596495D01*
X174339805Y-93666187D01*
X174311305Y-93710534D01*
X174217682Y-93804157D01*
X174125643Y-93953375D01*
X174125641Y-93953380D01*
X174070494Y-94119802D01*
X174070493Y-94119809D01*
X174060000Y-94222513D01*
X174060000Y-94285000D01*
X176459999Y-94285000D01*
X176459999Y-94222528D01*
X176459998Y-94222513D01*
X176449505Y-94119802D01*
X176394358Y-93953380D01*
X176394356Y-93953375D01*
X176302315Y-93804154D01*
X176208695Y-93710534D01*
X176175210Y-93649211D01*
X176180194Y-93579519D01*
X176208691Y-93535176D01*
X176302712Y-93441156D01*
X176394814Y-93291834D01*
X176449999Y-93125297D01*
X176460500Y-93022509D01*
X176460499Y-92397492D01*
X176460498Y-92397487D01*
X176460498Y-92397476D01*
X176449999Y-92294703D01*
X176449998Y-92294700D01*
X176432558Y-92242069D01*
X176394814Y-92128166D01*
X176302712Y-91978844D01*
X176196818Y-91872950D01*
X176182111Y-91846016D01*
X176165523Y-91820204D01*
X176164631Y-91814003D01*
X176163334Y-91811627D01*
X176160500Y-91785269D01*
X176160500Y-91736867D01*
X176180185Y-91669828D01*
X176199386Y-91648656D01*
X176198549Y-91647819D01*
X176254928Y-91591440D01*
X176327712Y-91518656D01*
X176419814Y-91369334D01*
X176474999Y-91202797D01*
X176485500Y-91100009D01*
X176485499Y-90499992D01*
X176484933Y-90494456D01*
X176474999Y-90397203D01*
X176474998Y-90397200D01*
X176451360Y-90325866D01*
X176419814Y-90230666D01*
X176327712Y-90081344D01*
X176258549Y-90012181D01*
X176225064Y-89950858D01*
X176230048Y-89881166D01*
X176271920Y-89825233D01*
X176337384Y-89800816D01*
X176346230Y-89800500D01*
X177527962Y-89800500D01*
X177595001Y-89820185D01*
X177640756Y-89872989D01*
X177650700Y-89942147D01*
X177649579Y-89948691D01*
X177623200Y-90081304D01*
X177623200Y-90258695D01*
X177657803Y-90432658D01*
X177657806Y-90432667D01*
X177725683Y-90596540D01*
X177725690Y-90596553D01*
X177824235Y-90744034D01*
X177824238Y-90744038D01*
X177949661Y-90869461D01*
X177949665Y-90869464D01*
X178097146Y-90968009D01*
X178097159Y-90968016D01*
X178206846Y-91013449D01*
X178261034Y-91035894D01*
X178261036Y-91035894D01*
X178261041Y-91035896D01*
X178435004Y-91070499D01*
X178435007Y-91070500D01*
X178435009Y-91070500D01*
X182092462Y-91070500D01*
X182159501Y-91090185D01*
X182205256Y-91142989D01*
X182216080Y-91204228D01*
X182214500Y-91224298D01*
X182214500Y-91655701D01*
X182217401Y-91692567D01*
X182217402Y-91692573D01*
X182263254Y-91850393D01*
X182263254Y-91850394D01*
X182263255Y-91850396D01*
X182263256Y-91850398D01*
X182271514Y-91864362D01*
X182289677Y-91895074D01*
X182306858Y-91962799D01*
X182284698Y-92029061D01*
X182270625Y-92045875D01*
X175344519Y-98971981D01*
X175283196Y-99005466D01*
X175256838Y-99008300D01*
X163824662Y-99008300D01*
X163779368Y-98995000D01*
X161340864Y-98995000D01*
X161321697Y-99005466D01*
X161295339Y-99008300D01*
X157593861Y-99008300D01*
X157526822Y-98988615D01*
X157506180Y-98971981D01*
X156071108Y-97536909D01*
X156055389Y-97508122D01*
X156038637Y-97479881D01*
X156038718Y-97477593D01*
X156037623Y-97475586D01*
X156039963Y-97442855D01*
X156041139Y-97410056D01*
X156042443Y-97408177D01*
X156042607Y-97405894D01*
X156062280Y-97379614D01*
X156080994Y-97352668D01*
X156083617Y-97351111D01*
X156084479Y-97349961D01*
X156111339Y-97334667D01*
X156122767Y-97329933D01*
X156170207Y-97320500D01*
X156440686Y-97320500D01*
X156440694Y-97320500D01*
X156477569Y-97317598D01*
X156477571Y-97317597D01*
X156477573Y-97317597D01*
X156519191Y-97305505D01*
X156635398Y-97271744D01*
X156776865Y-97188081D01*
X156893081Y-97071865D01*
X156976744Y-96930398D01*
X157022598Y-96772569D01*
X157025500Y-96735694D01*
X157025500Y-96304306D01*
X157022598Y-96267431D01*
X157006047Y-96210464D01*
X156988836Y-96151224D01*
X156976744Y-96109602D01*
X156893081Y-95968135D01*
X156893078Y-95968132D01*
X156888298Y-95961969D01*
X156890750Y-95960066D01*
X156864155Y-95911421D01*
X156869104Y-95841726D01*
X156889940Y-95809304D01*
X156888298Y-95808031D01*
X156893075Y-95801870D01*
X156893081Y-95801865D01*
X156976744Y-95660398D01*
X157017069Y-95521601D01*
X157022597Y-95502573D01*
X157022598Y-95502567D01*
X157022598Y-95502565D01*
X157025500Y-95465694D01*
X157025500Y-95034306D01*
X157022598Y-94997431D01*
X157016990Y-94978130D01*
X156987803Y-94877666D01*
X156976744Y-94839602D01*
X156893081Y-94698135D01*
X156893078Y-94698132D01*
X156888298Y-94691969D01*
X156890750Y-94690066D01*
X156864155Y-94641421D01*
X156869104Y-94571726D01*
X156889940Y-94539304D01*
X156888298Y-94538031D01*
X156893075Y-94531870D01*
X156893081Y-94531865D01*
X156976744Y-94390398D01*
X157022598Y-94232569D01*
X157025500Y-94195694D01*
X157025500Y-93764306D01*
X157023920Y-93744228D01*
X157038285Y-93675851D01*
X157087336Y-93626094D01*
X157147538Y-93610500D01*
X158579638Y-93610500D01*
X158646677Y-93630185D01*
X158667319Y-93646819D01*
X158683961Y-93663461D01*
X158683965Y-93663464D01*
X158831453Y-93762013D01*
X158913393Y-93795953D01*
X158995334Y-93829895D01*
X159161420Y-93862931D01*
X159169303Y-93864499D01*
X159169307Y-93864500D01*
X159169308Y-93864500D01*
X159169309Y-93864500D01*
X161541358Y-93864500D01*
X161608397Y-93884185D01*
X161654152Y-93936989D01*
X161664096Y-94006147D01*
X161635071Y-94069703D01*
X161618269Y-94085766D01*
X161616343Y-94087288D01*
X161492289Y-94211342D01*
X161400187Y-94360663D01*
X161400185Y-94360668D01*
X161381682Y-94416507D01*
X161345001Y-94527203D01*
X161345001Y-94527204D01*
X161345000Y-94527204D01*
X161334500Y-94629983D01*
X161334500Y-95230001D01*
X161334501Y-95230019D01*
X161345000Y-95332796D01*
X161345001Y-95332799D01*
X161371582Y-95413013D01*
X161397364Y-95490819D01*
X161400184Y-95499327D01*
X161400187Y-95499336D01*
X161423422Y-95537006D01*
X161492288Y-95648656D01*
X161616344Y-95772712D01*
X161694504Y-95820921D01*
X161741228Y-95872867D01*
X161752451Y-95941830D01*
X161724608Y-96005912D01*
X161694505Y-96031997D01*
X161641344Y-96064787D01*
X161517289Y-96188842D01*
X161425187Y-96338163D01*
X161425186Y-96338166D01*
X161370001Y-96504703D01*
X161370001Y-96504704D01*
X161370000Y-96504704D01*
X161359500Y-96607483D01*
X161359500Y-97232501D01*
X161359501Y-97232519D01*
X161370000Y-97335296D01*
X161370001Y-97335299D01*
X161425185Y-97501831D01*
X161425187Y-97501836D01*
X161517289Y-97651157D01*
X161611304Y-97745172D01*
X161644789Y-97806495D01*
X161639805Y-97876187D01*
X161611305Y-97920534D01*
X161517682Y-98014157D01*
X161425643Y-98163375D01*
X161425641Y-98163380D01*
X161370494Y-98329802D01*
X161370493Y-98329809D01*
X161360000Y-98432513D01*
X161360000Y-98495000D01*
X163759999Y-98495000D01*
X163759999Y-98432528D01*
X163759998Y-98432513D01*
X163749505Y-98329802D01*
X163694358Y-98163380D01*
X163694356Y-98163375D01*
X163602315Y-98014154D01*
X163508695Y-97920534D01*
X163475210Y-97859211D01*
X163480194Y-97789519D01*
X163508691Y-97745176D01*
X163602712Y-97651156D01*
X163694814Y-97501834D01*
X163749999Y-97335297D01*
X163760500Y-97232509D01*
X163760499Y-96607492D01*
X163756666Y-96569974D01*
X163749999Y-96504703D01*
X163749998Y-96504700D01*
X163727488Y-96436769D01*
X163694814Y-96338166D01*
X163673924Y-96304298D01*
X163621961Y-96220051D01*
X163617265Y-96203493D01*
X163608523Y-96189890D01*
X163603500Y-96154955D01*
X163603500Y-95954500D01*
X163623185Y-95887461D01*
X163675989Y-95841706D01*
X163727500Y-95830500D01*
X164868693Y-95830500D01*
X164868694Y-95830499D01*
X164963657Y-95811610D01*
X165042658Y-95795896D01*
X165042661Y-95795894D01*
X165042666Y-95795894D01*
X165185731Y-95736635D01*
X165206540Y-95728016D01*
X165206540Y-95728015D01*
X165206547Y-95728013D01*
X165354035Y-95629464D01*
X165479464Y-95504035D01*
X165578013Y-95356547D01*
X165645894Y-95192666D01*
X165646617Y-95189035D01*
X165676759Y-95037499D01*
X165680500Y-95018691D01*
X165680500Y-94847486D01*
X174060001Y-94847486D01*
X174070494Y-94950197D01*
X174125641Y-95116619D01*
X174125643Y-95116624D01*
X174217684Y-95265845D01*
X174341654Y-95389815D01*
X174490875Y-95481856D01*
X174490880Y-95481858D01*
X174657302Y-95537005D01*
X174657309Y-95537006D01*
X174760019Y-95547499D01*
X175009999Y-95547499D01*
X175510000Y-95547499D01*
X175759972Y-95547499D01*
X175759986Y-95547498D01*
X175862697Y-95537005D01*
X176029119Y-95481858D01*
X176029124Y-95481856D01*
X176178345Y-95389815D01*
X176302315Y-95265845D01*
X176394356Y-95116624D01*
X176394358Y-95116619D01*
X176449505Y-94950197D01*
X176449506Y-94950190D01*
X176459999Y-94847486D01*
X176460000Y-94847473D01*
X176460000Y-94785000D01*
X175510000Y-94785000D01*
X175510000Y-95547499D01*
X175009999Y-95547499D01*
X175010000Y-95547498D01*
X175010000Y-94785000D01*
X174060001Y-94785000D01*
X174060001Y-94847486D01*
X165680500Y-94847486D01*
X165680500Y-94841309D01*
X165680500Y-94841306D01*
X165663895Y-94757830D01*
X165663895Y-94757829D01*
X165645896Y-94667341D01*
X165645893Y-94667332D01*
X165578016Y-94503459D01*
X165578009Y-94503446D01*
X165479464Y-94355965D01*
X165479461Y-94355961D01*
X165354038Y-94230538D01*
X165354034Y-94230535D01*
X165206553Y-94131990D01*
X165206540Y-94131983D01*
X165042667Y-94064106D01*
X165042658Y-94064103D01*
X164868694Y-94029500D01*
X164868691Y-94029500D01*
X163646230Y-94029500D01*
X163579191Y-94009815D01*
X163533436Y-93957011D01*
X163523492Y-93887853D01*
X163552517Y-93824297D01*
X163558549Y-93817819D01*
X163584758Y-93791610D01*
X163627712Y-93748656D01*
X163719814Y-93599334D01*
X163774999Y-93432797D01*
X163785500Y-93330009D01*
X163785499Y-92729992D01*
X163784168Y-92716966D01*
X163774999Y-92627203D01*
X163774998Y-92627200D01*
X163757480Y-92574334D01*
X163719814Y-92460666D01*
X163627712Y-92311344D01*
X163503656Y-92187288D01*
X163391367Y-92118028D01*
X163354336Y-92095187D01*
X163354331Y-92095185D01*
X163330487Y-92087284D01*
X163187797Y-92040001D01*
X163187795Y-92040000D01*
X163085010Y-92029500D01*
X162034998Y-92029500D01*
X162034980Y-92029501D01*
X161932203Y-92040000D01*
X161893612Y-92052788D01*
X161880280Y-92057206D01*
X161841278Y-92063500D01*
X159682363Y-92063500D01*
X159615324Y-92043815D01*
X159594682Y-92027181D01*
X159578038Y-92010537D01*
X159512827Y-91966965D01*
X159430548Y-91911988D01*
X159430547Y-91911987D01*
X159430544Y-91911985D01*
X159430541Y-91911984D01*
X159344987Y-91876547D01*
X159266666Y-91844105D01*
X159266658Y-91844103D01*
X159092696Y-91809500D01*
X159092692Y-91809500D01*
X159092691Y-91809500D01*
X157147538Y-91809500D01*
X157080499Y-91789815D01*
X157034744Y-91737011D01*
X157023920Y-91675772D01*
X157024697Y-91665893D01*
X157025500Y-91655694D01*
X157025500Y-91224306D01*
X157022598Y-91187431D01*
X157022536Y-91187219D01*
X156980749Y-91043386D01*
X156976744Y-91029602D01*
X156893081Y-90888135D01*
X156893078Y-90888132D01*
X156888298Y-90881969D01*
X156890750Y-90880066D01*
X156864155Y-90831421D01*
X156869104Y-90761726D01*
X156889940Y-90729304D01*
X156888298Y-90728031D01*
X156893075Y-90721870D01*
X156893081Y-90721865D01*
X156976744Y-90580398D01*
X157015736Y-90446188D01*
X157022597Y-90422573D01*
X157022598Y-90422567D01*
X157022919Y-90418493D01*
X157025500Y-90385694D01*
X157025500Y-89954306D01*
X157023920Y-89934228D01*
X157038285Y-89865851D01*
X157087336Y-89816094D01*
X157147538Y-89800500D01*
X157988093Y-89800500D01*
X157988094Y-89800499D01*
X158046082Y-89788964D01*
X158162058Y-89765896D01*
X158162061Y-89765894D01*
X158162066Y-89765894D01*
X158325947Y-89698013D01*
X158473435Y-89599464D01*
X158598864Y-89474035D01*
X158697413Y-89326547D01*
X158765294Y-89162666D01*
X158765427Y-89162000D01*
X158799899Y-88988695D01*
X158799900Y-88988693D01*
X158799900Y-88811306D01*
X158799899Y-88811304D01*
X158765296Y-88637341D01*
X158765293Y-88637332D01*
X158697416Y-88473459D01*
X158697409Y-88473446D01*
X158598864Y-88325965D01*
X158598861Y-88325961D01*
X158473438Y-88200538D01*
X158473434Y-88200535D01*
X158325953Y-88101990D01*
X158325940Y-88101983D01*
X158162067Y-88034106D01*
X158162058Y-88034103D01*
X157988094Y-87999500D01*
X157988091Y-87999500D01*
X157147538Y-87999500D01*
X157080499Y-87979815D01*
X157034744Y-87927011D01*
X157023920Y-87865772D01*
X157025499Y-87845701D01*
X157025500Y-87845694D01*
X157025500Y-87414306D01*
X157022598Y-87377431D01*
X157017824Y-87361000D01*
X156976745Y-87219606D01*
X156976744Y-87219603D01*
X156976744Y-87219602D01*
X156893081Y-87078135D01*
X156893079Y-87078133D01*
X156893076Y-87078129D01*
X156776870Y-86961923D01*
X156776862Y-86961917D01*
X156635396Y-86878255D01*
X156635393Y-86878254D01*
X156477573Y-86832402D01*
X156477567Y-86832401D01*
X156440701Y-86829500D01*
X156440694Y-86829500D01*
X156170207Y-86829500D01*
X156122755Y-86820061D01*
X155987667Y-86764106D01*
X155987658Y-86764103D01*
X155813694Y-86729500D01*
X155813691Y-86729500D01*
X155182892Y-86729500D01*
X155005508Y-86729500D01*
X155005503Y-86729500D01*
X154831539Y-86764103D01*
X154831523Y-86764108D01*
X154715653Y-86812102D01*
X154715654Y-86812103D01*
X154667654Y-86831986D01*
X154648511Y-86844777D01*
X154609961Y-86870536D01*
X154598410Y-86878254D01*
X154520161Y-86930537D01*
X153469437Y-87981261D01*
X153457251Y-87999500D01*
X153434129Y-88034106D01*
X153429964Y-88040339D01*
X153429963Y-88040340D01*
X153370885Y-88128755D01*
X153336946Y-88210693D01*
X153303006Y-88292629D01*
X153303003Y-88292641D01*
X153268400Y-88466603D01*
X153268400Y-89079795D01*
X153303003Y-89253758D01*
X153303006Y-89253767D01*
X153335230Y-89331563D01*
X153342699Y-89401033D01*
X153311423Y-89463512D01*
X153289560Y-89482117D01*
X153230189Y-89521788D01*
X153209165Y-89535835D01*
X153209159Y-89535840D01*
X151789790Y-90955208D01*
X151789784Y-90955215D01*
X151691238Y-91102701D01*
X151623355Y-91266583D01*
X151623353Y-91266591D01*
X151588750Y-91440553D01*
X151588750Y-91617946D01*
X151623353Y-91791908D01*
X151623355Y-91791916D01*
X151691238Y-91955798D01*
X151789784Y-92103284D01*
X151789790Y-92103291D01*
X151915208Y-92228709D01*
X151915215Y-92228715D01*
X152062701Y-92327261D01*
X152062702Y-92327261D01*
X152062703Y-92327262D01*
X152226584Y-92395145D01*
X152324956Y-92414712D01*
X152400553Y-92429749D01*
X152400557Y-92429750D01*
X152400558Y-92429750D01*
X152577943Y-92429750D01*
X152577944Y-92429749D01*
X152751916Y-92395145D01*
X152915797Y-92327262D01*
X153063286Y-92228714D01*
X154119880Y-91172118D01*
X154146807Y-91157415D01*
X154172626Y-91140823D01*
X154178826Y-91139931D01*
X154181203Y-91138634D01*
X154207561Y-91135800D01*
X154300500Y-91135800D01*
X154367539Y-91155485D01*
X154413294Y-91208289D01*
X154424500Y-91259800D01*
X154424500Y-91655701D01*
X154427401Y-91692567D01*
X154427402Y-91692573D01*
X154473254Y-91850393D01*
X154473255Y-91850396D01*
X154473256Y-91850398D01*
X154499677Y-91895074D01*
X154556917Y-91991862D01*
X154561702Y-91998031D01*
X154559256Y-91999927D01*
X154585857Y-92048642D01*
X154580873Y-92118334D01*
X154560069Y-92150703D01*
X154561702Y-92151969D01*
X154556917Y-92158137D01*
X154473255Y-92299603D01*
X154473254Y-92299606D01*
X154427402Y-92457426D01*
X154427401Y-92457432D01*
X154424500Y-92494298D01*
X154424500Y-92925701D01*
X154426080Y-92945772D01*
X154411715Y-93014149D01*
X154362664Y-93063906D01*
X154302462Y-93079500D01*
X154119804Y-93079500D01*
X153945841Y-93114103D01*
X153945833Y-93114105D01*
X153846954Y-93155062D01*
X153846947Y-93155065D01*
X153839832Y-93158013D01*
X153781953Y-93181987D01*
X153685206Y-93246632D01*
X153681487Y-93249116D01*
X153681485Y-93249118D01*
X153634462Y-93280537D01*
X153634461Y-93280538D01*
X152898165Y-94016833D01*
X152843066Y-94099294D01*
X152789453Y-94144098D01*
X152720128Y-94152805D01*
X152657101Y-94122650D01*
X152652283Y-94118083D01*
X150544741Y-92010540D01*
X150544737Y-92010537D01*
X150544736Y-92010536D01*
X150524214Y-91996823D01*
X150479411Y-91943212D01*
X150470704Y-91873887D01*
X150475325Y-91858110D01*
X150474568Y-91857890D01*
X150522597Y-91692573D01*
X150522598Y-91692567D01*
X150523920Y-91675772D01*
X150525500Y-91655694D01*
X150525500Y-91224306D01*
X150522598Y-91187431D01*
X150522536Y-91187219D01*
X150480749Y-91043386D01*
X150476744Y-91029602D01*
X150393081Y-90888135D01*
X150393078Y-90888132D01*
X150388298Y-90881969D01*
X150390750Y-90880066D01*
X150364155Y-90831421D01*
X150369104Y-90761726D01*
X150389940Y-90729304D01*
X150388298Y-90728031D01*
X150393075Y-90721870D01*
X150393081Y-90721865D01*
X150476744Y-90580398D01*
X150515736Y-90446188D01*
X150522597Y-90422573D01*
X150522598Y-90422567D01*
X150522919Y-90418493D01*
X150525500Y-90385694D01*
X150525500Y-89954306D01*
X150523124Y-89924116D01*
X150529646Y-89893066D01*
X150534486Y-89861714D01*
X150536776Y-89859124D01*
X150537488Y-89855740D01*
X150559762Y-89833144D01*
X150580784Y-89809386D01*
X150584734Y-89807814D01*
X150586540Y-89805983D01*
X150613038Y-89795056D01*
X150617744Y-89793726D01*
X150757666Y-89765895D01*
X150839606Y-89731953D01*
X150921547Y-89698013D01*
X150921549Y-89698011D01*
X150921552Y-89698010D01*
X151009955Y-89638939D01*
X151009955Y-89638938D01*
X151009959Y-89638936D01*
X151069036Y-89599464D01*
X151829464Y-88839035D01*
X151897650Y-88736988D01*
X151928013Y-88691547D01*
X151965936Y-88599992D01*
X151995895Y-88527666D01*
X152030500Y-88353691D01*
X152030500Y-88176308D01*
X152030500Y-85514361D01*
X152039144Y-85484920D01*
X152045668Y-85454934D01*
X152049422Y-85449918D01*
X152050185Y-85447322D01*
X152066819Y-85426680D01*
X152101680Y-85391819D01*
X152163003Y-85358334D01*
X152189361Y-85355500D01*
X171660638Y-85355500D01*
X171727677Y-85375185D01*
G37*
%TD.AperFunction*%
%TA.AperFunction,Conductor*%
G36*
X182151526Y-94814486D02*
G01*
X182207459Y-94856358D01*
X182231876Y-94921822D01*
X182227269Y-94965262D01*
X182217899Y-94997511D01*
X182217704Y-94999998D01*
X182217705Y-95000000D01*
X183391000Y-95000000D01*
X183458039Y-95019685D01*
X183503794Y-95072489D01*
X183515000Y-95124000D01*
X183515000Y-95250000D01*
X183641000Y-95250000D01*
X183708039Y-95269685D01*
X183753794Y-95322489D01*
X183765000Y-95374000D01*
X183765000Y-96396000D01*
X183745315Y-96463039D01*
X183692511Y-96508794D01*
X183641000Y-96520000D01*
X183515000Y-96520000D01*
X183515000Y-96646000D01*
X183495315Y-96713039D01*
X183442511Y-96758794D01*
X183391000Y-96770000D01*
X182217705Y-96770000D01*
X182212387Y-96775751D01*
X182202220Y-96824150D01*
X182153167Y-96873906D01*
X182092967Y-96889500D01*
X180273361Y-96889500D01*
X180206322Y-96869815D01*
X180160567Y-96817011D01*
X180150623Y-96747853D01*
X180179648Y-96684297D01*
X180185680Y-96677819D01*
X180831502Y-96031997D01*
X181363497Y-95500001D01*
X182217704Y-95500001D01*
X182217899Y-95502486D01*
X182263718Y-95660198D01*
X182347314Y-95801552D01*
X182352100Y-95807722D01*
X182349753Y-95809542D01*
X182376564Y-95858642D01*
X182371580Y-95928334D01*
X182350541Y-95961069D01*
X182352100Y-95962278D01*
X182347314Y-95968447D01*
X182263718Y-96109801D01*
X182217899Y-96267513D01*
X182217704Y-96269998D01*
X182217705Y-96270000D01*
X183265000Y-96270000D01*
X183265000Y-95500000D01*
X182217705Y-95500000D01*
X182217704Y-95500001D01*
X181363497Y-95500001D01*
X182020511Y-94842986D01*
X182081834Y-94809502D01*
X182151526Y-94814486D01*
G37*
%TD.AperFunction*%
%TA.AperFunction,Conductor*%
G36*
X204181992Y-83585185D02*
G01*
X204202634Y-83601819D01*
X204257786Y-83656971D01*
X204412749Y-83769556D01*
X204423390Y-83777287D01*
X204539607Y-83836503D01*
X204605776Y-83870218D01*
X204605778Y-83870218D01*
X204605781Y-83870220D01*
X204638848Y-83880964D01*
X204796131Y-83932069D01*
X204853806Y-83971507D01*
X204881004Y-84035866D01*
X204869089Y-84104712D01*
X204821845Y-84156188D01*
X204796131Y-84167931D01*
X204605776Y-84229781D01*
X204423386Y-84322715D01*
X204257786Y-84443028D01*
X204113028Y-84587786D01*
X203992715Y-84753386D01*
X203899781Y-84935776D01*
X203836522Y-85130465D01*
X203804500Y-85332647D01*
X203804500Y-85537351D01*
X203836522Y-85739534D01*
X203899781Y-85934223D01*
X203963691Y-86059653D01*
X203987565Y-86106507D01*
X203992715Y-86116613D01*
X204113028Y-86282213D01*
X204257786Y-86426971D01*
X204412749Y-86539556D01*
X204423390Y-86547287D01*
X204539607Y-86606503D01*
X204605776Y-86640218D01*
X204605778Y-86640218D01*
X204605781Y-86640220D01*
X204684956Y-86665945D01*
X204796131Y-86702069D01*
X204853806Y-86741507D01*
X204881004Y-86805866D01*
X204869089Y-86874712D01*
X204821845Y-86926188D01*
X204796131Y-86937931D01*
X204605776Y-86999781D01*
X204423386Y-87092715D01*
X204257786Y-87213028D01*
X204113028Y-87357786D01*
X203992715Y-87523386D01*
X203899781Y-87705776D01*
X203836522Y-87900465D01*
X203804500Y-88102648D01*
X203804500Y-88307351D01*
X203836522Y-88509534D01*
X203899781Y-88704223D01*
X203954345Y-88811309D01*
X203987565Y-88876507D01*
X203992715Y-88886613D01*
X204113028Y-89052213D01*
X204257786Y-89196971D01*
X204412749Y-89309556D01*
X204423390Y-89317287D01*
X204539607Y-89376503D01*
X204605776Y-89410218D01*
X204605778Y-89410218D01*
X204605781Y-89410220D01*
X204661767Y-89428411D01*
X204796131Y-89472069D01*
X204853806Y-89511507D01*
X204881004Y-89575866D01*
X204869089Y-89644712D01*
X204821845Y-89696188D01*
X204796131Y-89707931D01*
X204605776Y-89769781D01*
X204423386Y-89862715D01*
X204257786Y-89983028D01*
X204113028Y-90127786D01*
X203992715Y-90293386D01*
X203899781Y-90475776D01*
X203836522Y-90670465D01*
X203805559Y-90865961D01*
X203804500Y-90872648D01*
X203804500Y-91077352D01*
X203806063Y-91087218D01*
X203836522Y-91279534D01*
X203899781Y-91474223D01*
X203959507Y-91591440D01*
X203992246Y-91655694D01*
X203992715Y-91656613D01*
X204113028Y-91822213D01*
X204257786Y-91966971D01*
X204406478Y-92075000D01*
X204423390Y-92087287D01*
X204539607Y-92146503D01*
X204605776Y-92180218D01*
X204605778Y-92180218D01*
X204605781Y-92180220D01*
X204684956Y-92205945D01*
X204796131Y-92242069D01*
X204853806Y-92281507D01*
X204881004Y-92345866D01*
X204869089Y-92414712D01*
X204821845Y-92466188D01*
X204796131Y-92477931D01*
X204605776Y-92539781D01*
X204423386Y-92632715D01*
X204257786Y-92753028D01*
X204113028Y-92897786D01*
X203992715Y-93063386D01*
X203939020Y-93168768D01*
X203891045Y-93219564D01*
X203823224Y-93236359D01*
X203757089Y-93213821D01*
X203740854Y-93200154D01*
X198741241Y-88200540D01*
X198741238Y-88200537D01*
X198656676Y-88144035D01*
X198593744Y-88101985D01*
X198593742Y-88101984D01*
X198511807Y-88068046D01*
X198511806Y-88068046D01*
X198429866Y-88034105D01*
X198429858Y-88034103D01*
X198255896Y-87999500D01*
X198255892Y-87999500D01*
X198255891Y-87999500D01*
X191437538Y-87999500D01*
X191370499Y-87979815D01*
X191324744Y-87927011D01*
X191313920Y-87865772D01*
X191315499Y-87845701D01*
X191315500Y-87845694D01*
X191315500Y-87414306D01*
X191312598Y-87377431D01*
X191307824Y-87361000D01*
X191266745Y-87219606D01*
X191266744Y-87219603D01*
X191266744Y-87219602D01*
X191183081Y-87078135D01*
X191183079Y-87078133D01*
X191183076Y-87078129D01*
X191066870Y-86961923D01*
X191066862Y-86961917D01*
X190925396Y-86878255D01*
X190925393Y-86878254D01*
X190767573Y-86832402D01*
X190767567Y-86832401D01*
X190730701Y-86829500D01*
X190730694Y-86829500D01*
X190460207Y-86829500D01*
X190412755Y-86820061D01*
X190277667Y-86764106D01*
X190277658Y-86764103D01*
X190103694Y-86729500D01*
X190103691Y-86729500D01*
X188048692Y-86729500D01*
X187871309Y-86729500D01*
X187871304Y-86729500D01*
X187697339Y-86764103D01*
X187697323Y-86764108D01*
X187581453Y-86812102D01*
X187581454Y-86812103D01*
X187533451Y-86831987D01*
X187403918Y-86918540D01*
X187385965Y-86930535D01*
X187385959Y-86930540D01*
X187167181Y-87149319D01*
X187105858Y-87182804D01*
X187036166Y-87177820D01*
X186980233Y-87135948D01*
X186955816Y-87070484D01*
X186955500Y-87061638D01*
X186955500Y-84244361D01*
X186975185Y-84177322D01*
X186991819Y-84156680D01*
X187546680Y-83601819D01*
X187608003Y-83568334D01*
X187634361Y-83565500D01*
X204114953Y-83565500D01*
X204181992Y-83585185D01*
G37*
%TD.AperFunction*%
%TA.AperFunction,Conductor*%
G36*
X185097539Y-84084085D02*
G01*
X185143294Y-84136889D01*
X185154500Y-84188400D01*
X185154500Y-90126638D01*
X185134815Y-90193677D01*
X185118181Y-90214319D01*
X185027181Y-90305319D01*
X184965858Y-90338804D01*
X184896166Y-90333820D01*
X184840233Y-90291948D01*
X184815816Y-90226484D01*
X184815500Y-90217638D01*
X184815500Y-89954313D01*
X184815499Y-89954300D01*
X184812598Y-89917431D01*
X184805519Y-89893066D01*
X184769701Y-89769780D01*
X184766744Y-89759602D01*
X184683081Y-89618135D01*
X184683078Y-89618132D01*
X184678298Y-89611969D01*
X184680750Y-89610066D01*
X184654155Y-89561421D01*
X184659104Y-89491726D01*
X184679940Y-89459304D01*
X184678298Y-89458031D01*
X184683075Y-89451870D01*
X184683081Y-89451865D01*
X184766744Y-89310398D01*
X184812598Y-89152569D01*
X184815500Y-89115694D01*
X184815500Y-88684306D01*
X184812598Y-88647431D01*
X184806057Y-88624918D01*
X184766745Y-88489606D01*
X184766744Y-88489603D01*
X184766744Y-88489602D01*
X184683081Y-88348135D01*
X184683078Y-88348132D01*
X184678298Y-88341969D01*
X184680750Y-88340066D01*
X184654155Y-88291421D01*
X184659104Y-88221726D01*
X184679940Y-88189304D01*
X184678298Y-88188031D01*
X184683075Y-88181870D01*
X184683081Y-88181865D01*
X184766744Y-88040398D01*
X184804628Y-87910001D01*
X184812597Y-87882573D01*
X184812598Y-87882567D01*
X184815499Y-87845701D01*
X184815500Y-87845694D01*
X184815500Y-87414306D01*
X184812598Y-87377431D01*
X184807824Y-87361000D01*
X184766745Y-87219606D01*
X184766744Y-87219603D01*
X184766744Y-87219602D01*
X184683081Y-87078135D01*
X184683079Y-87078133D01*
X184683076Y-87078129D01*
X184566870Y-86961923D01*
X184566867Y-86961921D01*
X184566865Y-86961919D01*
X184493515Y-86918540D01*
X184476378Y-86908405D01*
X184428695Y-86857335D01*
X184415500Y-86801673D01*
X184415500Y-85636308D01*
X184413056Y-85624023D01*
X184410612Y-85611737D01*
X184380895Y-85462334D01*
X184327177Y-85332648D01*
X184321307Y-85318477D01*
X184313015Y-85298457D01*
X184313014Y-85298455D01*
X184293025Y-85268540D01*
X184214464Y-85150965D01*
X184089035Y-85025536D01*
X183918211Y-84854712D01*
X183339582Y-84276081D01*
X183306097Y-84214758D01*
X183311081Y-84145066D01*
X183352953Y-84089133D01*
X183418417Y-84064716D01*
X183427263Y-84064400D01*
X185030500Y-84064400D01*
X185097539Y-84084085D01*
G37*
%TD.AperFunction*%
%TA.AperFunction,Conductor*%
G36*
X172555703Y-74050429D02*
G01*
X172592431Y-74105823D01*
X172609781Y-74159223D01*
X172702715Y-74341613D01*
X172823028Y-74507213D01*
X172967786Y-74651971D01*
X173118279Y-74761308D01*
X173133390Y-74772287D01*
X173221517Y-74817190D01*
X173315776Y-74865218D01*
X173315778Y-74865218D01*
X173315781Y-74865220D01*
X173420137Y-74899127D01*
X173510465Y-74928477D01*
X173574960Y-74938692D01*
X173712648Y-74960500D01*
X173712649Y-74960500D01*
X173917351Y-74960500D01*
X173917352Y-74960500D01*
X174119534Y-74928477D01*
X174314219Y-74865220D01*
X174496610Y-74772287D01*
X174621361Y-74681651D01*
X174662213Y-74651971D01*
X174662215Y-74651968D01*
X174662219Y-74651966D01*
X174717366Y-74596819D01*
X174778689Y-74563334D01*
X174805047Y-74560500D01*
X178145269Y-74560500D01*
X178212308Y-74580185D01*
X178232950Y-74596818D01*
X178338844Y-74702712D01*
X178488166Y-74794814D01*
X178654703Y-74849999D01*
X178757491Y-74860500D01*
X179382508Y-74860499D01*
X179382516Y-74860498D01*
X179382519Y-74860498D01*
X179438802Y-74854748D01*
X179485297Y-74849999D01*
X179651834Y-74794814D01*
X179801156Y-74702712D01*
X179801159Y-74702708D01*
X179805403Y-74700091D01*
X179872795Y-74681651D01*
X179939459Y-74702573D01*
X179984229Y-74756215D01*
X179994500Y-74805630D01*
X179994500Y-74938696D01*
X180028965Y-75111964D01*
X180029105Y-75112666D01*
X180057923Y-75182237D01*
X180096987Y-75276547D01*
X180150441Y-75356546D01*
X180155449Y-75364041D01*
X180195534Y-75424034D01*
X180195538Y-75424039D01*
X180910536Y-76139035D01*
X181035965Y-76264464D01*
X181183453Y-76363013D01*
X181231452Y-76382895D01*
X181347334Y-76430895D01*
X181521304Y-76465499D01*
X181521308Y-76465500D01*
X181521309Y-76465500D01*
X184238693Y-76465500D01*
X184238694Y-76465499D01*
X184412666Y-76430895D01*
X184516309Y-76387964D01*
X184576547Y-76363013D01*
X184686921Y-76289263D01*
X184724036Y-76264464D01*
X185484464Y-75504035D01*
X185537918Y-75424036D01*
X185562398Y-75387398D01*
X185616010Y-75342594D01*
X185685335Y-75333887D01*
X185748362Y-75364041D01*
X185785082Y-75423484D01*
X185789500Y-75456290D01*
X185789500Y-81345010D01*
X185769815Y-81412049D01*
X185753181Y-81432691D01*
X184958791Y-82227081D01*
X184897468Y-82260566D01*
X184871110Y-82263400D01*
X150427403Y-82263400D01*
X150253441Y-82298003D01*
X150253429Y-82298006D01*
X150171492Y-82331945D01*
X150171493Y-82331946D01*
X150089555Y-82365885D01*
X150035008Y-82402333D01*
X150035007Y-82402333D01*
X149942068Y-82464432D01*
X149942060Y-82464438D01*
X148525537Y-83880961D01*
X148509404Y-83905107D01*
X148507009Y-83908692D01*
X148426987Y-84028453D01*
X148398756Y-84096610D01*
X148395749Y-84103867D01*
X148395746Y-84103874D01*
X148359105Y-84192333D01*
X148359103Y-84192341D01*
X148332500Y-84326087D01*
X148324500Y-84366304D01*
X148324500Y-86801673D01*
X148304815Y-86868712D01*
X148263622Y-86908405D01*
X148173135Y-86961919D01*
X148173129Y-86961923D01*
X148056923Y-87078129D01*
X148056917Y-87078137D01*
X147973255Y-87219603D01*
X147973254Y-87219606D01*
X147927402Y-87377426D01*
X147927401Y-87377432D01*
X147924500Y-87414298D01*
X147924500Y-87845701D01*
X147927401Y-87882567D01*
X147927402Y-87882573D01*
X147973254Y-88040393D01*
X147973255Y-88040396D01*
X148056917Y-88181862D01*
X148061702Y-88188031D01*
X148059256Y-88189927D01*
X148085857Y-88238642D01*
X148080873Y-88308334D01*
X148060069Y-88340703D01*
X148061702Y-88341969D01*
X148056917Y-88348137D01*
X147973255Y-88489603D01*
X147973254Y-88489606D01*
X147927402Y-88647426D01*
X147927401Y-88647432D01*
X147924500Y-88684298D01*
X147924500Y-89115701D01*
X147926080Y-89135772D01*
X147911715Y-89204149D01*
X147862664Y-89253906D01*
X147802462Y-89269500D01*
X147109362Y-89269500D01*
X147079917Y-89260854D01*
X147049934Y-89254331D01*
X147044920Y-89250577D01*
X147042323Y-89249815D01*
X147021680Y-89233180D01*
X146986818Y-89198317D01*
X146953333Y-89136993D01*
X146950500Y-89110637D01*
X146950500Y-79799361D01*
X146970185Y-79732322D01*
X146986819Y-79711680D01*
X147611680Y-79086819D01*
X147673003Y-79053334D01*
X147699361Y-79050500D01*
X170350693Y-79050500D01*
X170350694Y-79050499D01*
X170524666Y-79015895D01*
X170633304Y-78970895D01*
X170688547Y-78948013D01*
X170776959Y-78888936D01*
X170836036Y-78849464D01*
X172149464Y-77536035D01*
X172206593Y-77450536D01*
X172248013Y-77388547D01*
X172287798Y-77292497D01*
X172315895Y-77224666D01*
X172350500Y-77050691D01*
X172350500Y-76873308D01*
X172350500Y-74144142D01*
X172370185Y-74077103D01*
X172422989Y-74031348D01*
X172492147Y-74021404D01*
X172555703Y-74050429D01*
G37*
%TD.AperFunction*%
%TA.AperFunction,Conductor*%
G36*
X177445264Y-84068963D02*
G01*
X177461456Y-84068530D01*
X177478096Y-84078604D01*
X177496760Y-84084085D01*
X177507366Y-84096325D01*
X177521225Y-84104716D01*
X177529777Y-84122189D01*
X177542515Y-84136889D01*
X177544820Y-84152921D01*
X177551942Y-84167471D01*
X177549690Y-84186792D01*
X177552459Y-84206047D01*
X177545644Y-84221513D01*
X177543855Y-84236871D01*
X177528131Y-84262841D01*
X177528220Y-84262900D01*
X177526903Y-84264869D01*
X177525576Y-84267063D01*
X177524835Y-84267965D01*
X177426290Y-84415446D01*
X177426283Y-84415459D01*
X177358406Y-84579332D01*
X177358403Y-84579341D01*
X177323800Y-84753304D01*
X177323800Y-84930695D01*
X177358403Y-85104658D01*
X177358406Y-85104667D01*
X177426283Y-85268540D01*
X177426290Y-85268553D01*
X177524835Y-85416034D01*
X177524838Y-85416038D01*
X177650261Y-85541461D01*
X177650265Y-85541464D01*
X177797746Y-85640009D01*
X177797759Y-85640016D01*
X177908236Y-85685776D01*
X177961634Y-85707894D01*
X177961636Y-85707894D01*
X177961641Y-85707896D01*
X178135604Y-85742499D01*
X178135607Y-85742500D01*
X178135609Y-85742500D01*
X182207638Y-85742500D01*
X182274677Y-85762185D01*
X182295319Y-85778819D01*
X182578181Y-86061680D01*
X182611666Y-86123003D01*
X182614500Y-86149361D01*
X182614500Y-86801673D01*
X182594815Y-86868712D01*
X182553622Y-86908405D01*
X182463135Y-86961919D01*
X182463129Y-86961923D01*
X182346923Y-87078129D01*
X182346917Y-87078137D01*
X182263255Y-87219603D01*
X182263254Y-87219606D01*
X182217402Y-87377426D01*
X182217401Y-87377432D01*
X182214500Y-87414298D01*
X182214500Y-87845701D01*
X182216080Y-87865772D01*
X182201715Y-87934149D01*
X182152664Y-87983906D01*
X182092462Y-87999500D01*
X176145132Y-87999500D01*
X176080036Y-87981039D01*
X176054334Y-87965186D01*
X175887797Y-87910001D01*
X175887795Y-87910000D01*
X175785010Y-87899500D01*
X174734998Y-87899500D01*
X174734980Y-87899501D01*
X174632203Y-87910000D01*
X174632200Y-87910001D01*
X174465668Y-87965185D01*
X174465656Y-87965191D01*
X174444594Y-87978182D01*
X174377201Y-87996621D01*
X174310538Y-87975697D01*
X174265770Y-87922054D01*
X174255500Y-87872642D01*
X174255500Y-85636309D01*
X174255499Y-85636306D01*
X174251218Y-85614777D01*
X174251218Y-85614776D01*
X174226341Y-85489712D01*
X174220895Y-85462334D01*
X174177816Y-85358334D01*
X174176642Y-85355499D01*
X174153330Y-85299219D01*
X174153013Y-85298453D01*
X174072991Y-85178692D01*
X174054464Y-85150964D01*
X174054462Y-85150961D01*
X174054459Y-85150958D01*
X173179581Y-84276081D01*
X173146096Y-84214758D01*
X173151080Y-84145067D01*
X173192952Y-84089133D01*
X173258416Y-84064716D01*
X173267262Y-84064400D01*
X177429721Y-84064400D01*
X177445264Y-84068963D01*
G37*
%TD.AperFunction*%
%TA.AperFunction,Conductor*%
G36*
X185748363Y-70792043D02*
G01*
X185785082Y-70851486D01*
X185789500Y-70884291D01*
X185789500Y-72612609D01*
X185769815Y-72679648D01*
X185717011Y-72725403D01*
X185647853Y-72735347D01*
X185584297Y-72706322D01*
X185577819Y-72700290D01*
X185493503Y-72615974D01*
X185493499Y-72615971D01*
X185345433Y-72524642D01*
X185345427Y-72524639D01*
X185345425Y-72524638D01*
X185279549Y-72502809D01*
X185180276Y-72469913D01*
X185078355Y-72459500D01*
X185078348Y-72459500D01*
X184491652Y-72459500D01*
X184491644Y-72459500D01*
X184389723Y-72469913D01*
X184224577Y-72524637D01*
X184224566Y-72524642D01*
X184076500Y-72615971D01*
X184076496Y-72615974D01*
X183953474Y-72738996D01*
X183953467Y-72739005D01*
X183952734Y-72740194D01*
X183952019Y-72740836D01*
X183948993Y-72744664D01*
X183948338Y-72744146D01*
X183900780Y-72786911D01*
X183831816Y-72798123D01*
X183767738Y-72770271D01*
X183745738Y-72744877D01*
X183745612Y-72744977D01*
X183743385Y-72742161D01*
X183741663Y-72740173D01*
X183741130Y-72739309D01*
X183618191Y-72616370D01*
X183470214Y-72525096D01*
X183470209Y-72525094D01*
X183305173Y-72470407D01*
X183203315Y-72460000D01*
X183160000Y-72460000D01*
X183160000Y-73536000D01*
X183140315Y-73603039D01*
X183087511Y-73648794D01*
X183036000Y-73660000D01*
X182784000Y-73660000D01*
X182716961Y-73640315D01*
X182671206Y-73587511D01*
X182660000Y-73536000D01*
X182660000Y-72460000D01*
X182616684Y-72460000D01*
X182514826Y-72470407D01*
X182349790Y-72525094D01*
X182349785Y-72525096D01*
X182201808Y-72616370D01*
X182078868Y-72739310D01*
X182019450Y-72835641D01*
X181967501Y-72882365D01*
X181898539Y-72893586D01*
X181834457Y-72865742D01*
X181808373Y-72835639D01*
X181794277Y-72812786D01*
X181750212Y-72741344D01*
X181626156Y-72617288D01*
X181476834Y-72525186D01*
X181310297Y-72470001D01*
X181310295Y-72470000D01*
X181207510Y-72459500D01*
X180582498Y-72459500D01*
X180582480Y-72459501D01*
X180479703Y-72470000D01*
X180479700Y-72470001D01*
X180313168Y-72525185D01*
X180313159Y-72525189D01*
X180159596Y-72619908D01*
X180092204Y-72638348D01*
X180025541Y-72617425D01*
X179980771Y-72563783D01*
X179970500Y-72514369D01*
X179970500Y-71925362D01*
X179990185Y-71858323D01*
X180006819Y-71837681D01*
X180549681Y-71294819D01*
X180611004Y-71261334D01*
X180637362Y-71258500D01*
X184873693Y-71258500D01*
X184873694Y-71258499D01*
X184931682Y-71246964D01*
X185047658Y-71223896D01*
X185047661Y-71223894D01*
X185047666Y-71223894D01*
X185211547Y-71156013D01*
X185359035Y-71057464D01*
X185484464Y-70932035D01*
X185530807Y-70862677D01*
X185562398Y-70815400D01*
X185616010Y-70770595D01*
X185685335Y-70761888D01*
X185748363Y-70792043D01*
G37*
%TD.AperFunction*%
%TA.AperFunction,Conductor*%
G36*
X179584676Y-69500185D02*
G01*
X179630431Y-69552989D01*
X179640375Y-69622147D01*
X179611350Y-69685703D01*
X179605318Y-69692181D01*
X178370540Y-70926958D01*
X178370534Y-70926965D01*
X178338245Y-70975290D01*
X178338239Y-70975299D01*
X178335240Y-70979789D01*
X178271987Y-71074453D01*
X178238204Y-71156013D01*
X178235611Y-71162271D01*
X178235607Y-71162280D01*
X178204105Y-71238333D01*
X178204103Y-71238341D01*
X178175395Y-71382663D01*
X178175396Y-71382664D01*
X178169500Y-71412308D01*
X178169500Y-72635500D01*
X178149815Y-72702539D01*
X178097011Y-72748294D01*
X178045500Y-72759500D01*
X174805047Y-72759500D01*
X174738008Y-72739815D01*
X174717366Y-72723181D01*
X174662213Y-72668028D01*
X174496613Y-72547715D01*
X174496612Y-72547714D01*
X174496610Y-72547713D01*
X174422761Y-72510085D01*
X174314223Y-72454781D01*
X174119534Y-72391522D01*
X173944995Y-72363878D01*
X173917352Y-72359500D01*
X173712648Y-72359500D01*
X173688329Y-72363351D01*
X173510465Y-72391522D01*
X173315776Y-72454781D01*
X173133386Y-72547715D01*
X172967786Y-72668028D01*
X172823028Y-72812786D01*
X172702715Y-72978386D01*
X172609781Y-73160776D01*
X172547931Y-73351131D01*
X172508493Y-73408806D01*
X172444134Y-73436004D01*
X172375288Y-73424089D01*
X172323812Y-73376845D01*
X172312069Y-73351131D01*
X172250218Y-73160776D01*
X172194908Y-73052225D01*
X172157287Y-72978390D01*
X172095674Y-72893586D01*
X172036971Y-72812786D01*
X171892213Y-72668028D01*
X171726613Y-72547715D01*
X171726612Y-72547714D01*
X171726610Y-72547713D01*
X171652761Y-72510085D01*
X171544223Y-72454781D01*
X171349534Y-72391522D01*
X171174995Y-72363878D01*
X171147352Y-72359500D01*
X170942648Y-72359500D01*
X170918329Y-72363351D01*
X170740465Y-72391522D01*
X170545776Y-72454781D01*
X170363386Y-72547715D01*
X170197786Y-72668028D01*
X170053028Y-72812786D01*
X169932715Y-72978386D01*
X169839781Y-73160776D01*
X169777931Y-73351131D01*
X169738493Y-73408806D01*
X169674134Y-73436004D01*
X169605288Y-73424089D01*
X169553812Y-73376845D01*
X169542069Y-73351131D01*
X169480218Y-73160776D01*
X169424908Y-73052225D01*
X169387287Y-72978390D01*
X169325674Y-72893586D01*
X169266971Y-72812786D01*
X169122213Y-72668028D01*
X168956613Y-72547715D01*
X168956612Y-72547714D01*
X168956610Y-72547713D01*
X168882761Y-72510085D01*
X168774223Y-72454781D01*
X168579534Y-72391522D01*
X168404995Y-72363878D01*
X168377352Y-72359500D01*
X168172648Y-72359500D01*
X168148329Y-72363351D01*
X167970465Y-72391522D01*
X167775776Y-72454781D01*
X167593386Y-72547715D01*
X167427786Y-72668028D01*
X167283028Y-72812786D01*
X167162715Y-72978386D01*
X167069781Y-73160776D01*
X167007931Y-73351131D01*
X166968493Y-73408806D01*
X166904134Y-73436004D01*
X166835288Y-73424089D01*
X166783812Y-73376845D01*
X166772069Y-73351131D01*
X166710218Y-73160776D01*
X166654908Y-73052225D01*
X166617287Y-72978390D01*
X166555674Y-72893586D01*
X166496971Y-72812786D01*
X166352213Y-72668028D01*
X166186613Y-72547715D01*
X166186612Y-72547714D01*
X166186610Y-72547713D01*
X166112761Y-72510085D01*
X166004223Y-72454781D01*
X165809534Y-72391522D01*
X165634995Y-72363878D01*
X165607352Y-72359500D01*
X165402648Y-72359500D01*
X165378329Y-72363351D01*
X165200465Y-72391522D01*
X165005776Y-72454781D01*
X164823386Y-72547715D01*
X164657786Y-72668028D01*
X164513028Y-72812786D01*
X164392715Y-72978386D01*
X164299781Y-73160776D01*
X164276931Y-73231103D01*
X164237493Y-73288778D01*
X164173134Y-73315976D01*
X164104288Y-73304061D01*
X164052812Y-73256816D01*
X164035000Y-73192784D01*
X164035000Y-72812172D01*
X164034999Y-72812155D01*
X164028598Y-72752627D01*
X164028596Y-72752620D01*
X163978354Y-72617913D01*
X163974103Y-72610128D01*
X163975502Y-72609363D01*
X163954610Y-72553343D01*
X163969463Y-72485070D01*
X164018870Y-72435666D01*
X164078294Y-72420500D01*
X164222351Y-72420500D01*
X164222352Y-72420500D01*
X164424534Y-72388477D01*
X164619219Y-72325220D01*
X164801610Y-72232287D01*
X164894590Y-72164732D01*
X164967213Y-72111971D01*
X164967215Y-72111968D01*
X164967219Y-72111966D01*
X165111966Y-71967219D01*
X165111968Y-71967215D01*
X165111971Y-71967213D01*
X165206080Y-71837681D01*
X165232287Y-71801610D01*
X165325220Y-71619219D01*
X165387069Y-71428868D01*
X165426507Y-71371193D01*
X165490866Y-71343995D01*
X165559712Y-71355910D01*
X165611188Y-71403154D01*
X165622931Y-71428868D01*
X165684781Y-71619223D01*
X165777715Y-71801613D01*
X165898028Y-71967213D01*
X166042786Y-72111971D01*
X166151579Y-72191012D01*
X166208390Y-72232287D01*
X166324607Y-72291503D01*
X166390776Y-72325218D01*
X166390778Y-72325218D01*
X166390781Y-72325220D01*
X166495137Y-72359127D01*
X166585465Y-72388477D01*
X166604697Y-72391523D01*
X166787648Y-72420500D01*
X166787649Y-72420500D01*
X166992351Y-72420500D01*
X166992352Y-72420500D01*
X167194534Y-72388477D01*
X167389219Y-72325220D01*
X167571610Y-72232287D01*
X167664590Y-72164732D01*
X167737213Y-72111971D01*
X167737215Y-72111968D01*
X167737219Y-72111966D01*
X167881966Y-71967219D01*
X167881968Y-71967215D01*
X167881971Y-71967213D01*
X167976080Y-71837681D01*
X168002287Y-71801610D01*
X168095220Y-71619219D01*
X168157069Y-71428868D01*
X168196507Y-71371193D01*
X168260866Y-71343995D01*
X168329712Y-71355910D01*
X168381188Y-71403154D01*
X168392931Y-71428868D01*
X168454781Y-71619223D01*
X168547715Y-71801613D01*
X168668028Y-71967213D01*
X168812786Y-72111971D01*
X168921579Y-72191012D01*
X168978390Y-72232287D01*
X169094607Y-72291503D01*
X169160776Y-72325218D01*
X169160778Y-72325218D01*
X169160781Y-72325220D01*
X169265137Y-72359127D01*
X169355465Y-72388477D01*
X169374697Y-72391523D01*
X169557648Y-72420500D01*
X169557649Y-72420500D01*
X169762351Y-72420500D01*
X169762352Y-72420500D01*
X169964534Y-72388477D01*
X170159219Y-72325220D01*
X170341610Y-72232287D01*
X170434590Y-72164732D01*
X170507213Y-72111971D01*
X170507215Y-72111968D01*
X170507219Y-72111966D01*
X170651966Y-71967219D01*
X170651968Y-71967215D01*
X170651971Y-71967213D01*
X170746080Y-71837681D01*
X170772287Y-71801610D01*
X170865220Y-71619219D01*
X170927069Y-71428868D01*
X170966507Y-71371193D01*
X171030866Y-71343995D01*
X171099712Y-71355910D01*
X171151188Y-71403154D01*
X171162931Y-71428868D01*
X171224781Y-71619223D01*
X171317715Y-71801613D01*
X171438028Y-71967213D01*
X171582786Y-72111971D01*
X171691579Y-72191012D01*
X171748390Y-72232287D01*
X171864607Y-72291503D01*
X171930776Y-72325218D01*
X171930778Y-72325218D01*
X171930781Y-72325220D01*
X172035137Y-72359127D01*
X172125465Y-72388477D01*
X172144697Y-72391523D01*
X172327648Y-72420500D01*
X172327649Y-72420500D01*
X172532351Y-72420500D01*
X172532352Y-72420500D01*
X172734534Y-72388477D01*
X172929219Y-72325220D01*
X173111610Y-72232287D01*
X173204590Y-72164732D01*
X173277213Y-72111971D01*
X173277215Y-72111968D01*
X173277219Y-72111966D01*
X173421966Y-71967219D01*
X173421968Y-71967215D01*
X173421971Y-71967213D01*
X173516080Y-71837681D01*
X173542287Y-71801610D01*
X173635220Y-71619219D01*
X173698477Y-71424534D01*
X173730500Y-71222352D01*
X173730500Y-71017648D01*
X173723791Y-70975290D01*
X173698477Y-70815465D01*
X173635218Y-70620776D01*
X173601503Y-70554607D01*
X173542287Y-70438390D01*
X173534556Y-70427749D01*
X173421971Y-70272786D01*
X173366819Y-70217634D01*
X173352115Y-70190706D01*
X173335523Y-70164888D01*
X173334631Y-70158687D01*
X173333334Y-70156311D01*
X173330500Y-70129953D01*
X173330500Y-69929361D01*
X173350185Y-69862322D01*
X173366819Y-69841680D01*
X173691680Y-69516819D01*
X173753003Y-69483334D01*
X173779361Y-69480500D01*
X179517637Y-69480500D01*
X179584676Y-69500185D01*
G37*
%TD.AperFunction*%
%TA.AperFunction,Conductor*%
G36*
X168552677Y-69500185D02*
G01*
X168573319Y-69516819D01*
X168723181Y-69666681D01*
X168756666Y-69728004D01*
X168759500Y-69754362D01*
X168759500Y-70129953D01*
X168739815Y-70196992D01*
X168723181Y-70217634D01*
X168668032Y-70272782D01*
X168668028Y-70272786D01*
X168547715Y-70438386D01*
X168454781Y-70620776D01*
X168392931Y-70811131D01*
X168353493Y-70868806D01*
X168289134Y-70896004D01*
X168220288Y-70884089D01*
X168168812Y-70836845D01*
X168157069Y-70811131D01*
X168095218Y-70620776D01*
X168061503Y-70554607D01*
X168002287Y-70438390D01*
X167994556Y-70427749D01*
X167881971Y-70272786D01*
X167737213Y-70128028D01*
X167571613Y-70007715D01*
X167571612Y-70007714D01*
X167571610Y-70007713D01*
X167514653Y-69978691D01*
X167389223Y-69914781D01*
X167194534Y-69851522D01*
X167019995Y-69823878D01*
X166992352Y-69819500D01*
X166787648Y-69819500D01*
X166763329Y-69823351D01*
X166585465Y-69851522D01*
X166390776Y-69914781D01*
X166208386Y-70007715D01*
X166042786Y-70128028D01*
X165898028Y-70272786D01*
X165777715Y-70438386D01*
X165684781Y-70620776D01*
X165622931Y-70811131D01*
X165583493Y-70868806D01*
X165519134Y-70896004D01*
X165450288Y-70884089D01*
X165398812Y-70836845D01*
X165387069Y-70811131D01*
X165325218Y-70620776D01*
X165291503Y-70554607D01*
X165232287Y-70438390D01*
X165224556Y-70427749D01*
X165111971Y-70272786D01*
X164967213Y-70128028D01*
X164801613Y-70007715D01*
X164801612Y-70007714D01*
X164801610Y-70007713D01*
X164744653Y-69978691D01*
X164619223Y-69914781D01*
X164424534Y-69851522D01*
X164249995Y-69823878D01*
X164222352Y-69819500D01*
X164017648Y-69819500D01*
X163993329Y-69823351D01*
X163815465Y-69851522D01*
X163620776Y-69914781D01*
X163438386Y-70007715D01*
X163272786Y-70128028D01*
X163128028Y-70272786D01*
X163007715Y-70438386D01*
X162914781Y-70620776D01*
X162851522Y-70815465D01*
X162826209Y-70975290D01*
X162819500Y-71017648D01*
X162819500Y-71222352D01*
X162823878Y-71249995D01*
X162851522Y-71424534D01*
X162914781Y-71619223D01*
X163007715Y-71801613D01*
X163128028Y-71967213D01*
X163272782Y-72111967D01*
X163272787Y-72111971D01*
X163305422Y-72135682D01*
X163348088Y-72191012D01*
X163354067Y-72260625D01*
X163321462Y-72322420D01*
X163260623Y-72356777D01*
X163232537Y-72360000D01*
X162985000Y-72360000D01*
X162985000Y-73226988D01*
X162927993Y-73194075D01*
X162800826Y-73160000D01*
X162669174Y-73160000D01*
X162542007Y-73194075D01*
X162485000Y-73226988D01*
X162485000Y-72360000D01*
X161887155Y-72360000D01*
X161827627Y-72366401D01*
X161827620Y-72366403D01*
X161692913Y-72416645D01*
X161692906Y-72416649D01*
X161577812Y-72502809D01*
X161572366Y-72510085D01*
X161516432Y-72551955D01*
X161446741Y-72556939D01*
X161385418Y-72523453D01*
X161351933Y-72462130D01*
X161349100Y-72435773D01*
X161349100Y-69845761D01*
X161368785Y-69778722D01*
X161385419Y-69758080D01*
X161626680Y-69516819D01*
X161688003Y-69483334D01*
X161714361Y-69480500D01*
X168485638Y-69480500D01*
X168552677Y-69500185D01*
G37*
%TD.AperFunction*%
%TA.AperFunction,Conductor*%
G36*
X214442539Y-64789685D02*
G01*
X214488294Y-64842489D01*
X214499500Y-64894000D01*
X214499500Y-114811000D01*
X214479815Y-114878039D01*
X214427011Y-114923794D01*
X214375500Y-114935000D01*
X124127487Y-114935000D01*
X124060448Y-114915315D01*
X124014693Y-114862511D01*
X124003487Y-114811000D01*
X124003487Y-78016309D01*
X126099500Y-78016309D01*
X126099500Y-78021448D01*
X126099500Y-86766196D01*
X126134103Y-86940158D01*
X126134105Y-86940166D01*
X126168046Y-87022106D01*
X126168046Y-87022107D01*
X126201984Y-87104042D01*
X126230722Y-87147052D01*
X126300537Y-87251538D01*
X126300540Y-87251541D01*
X127193036Y-88144035D01*
X127259694Y-88210693D01*
X127318466Y-88269465D01*
X127425081Y-88340703D01*
X127465953Y-88368013D01*
X127499101Y-88381743D01*
X127499102Y-88381744D01*
X127499103Y-88381744D01*
X127629834Y-88435895D01*
X127784217Y-88466603D01*
X127803804Y-88470499D01*
X127803808Y-88470500D01*
X127803809Y-88470500D01*
X127981192Y-88470500D01*
X129184953Y-88470500D01*
X129251992Y-88490185D01*
X129272634Y-88506819D01*
X129327786Y-88561971D01*
X129462604Y-88659920D01*
X129493390Y-88682287D01*
X129600747Y-88736988D01*
X129675776Y-88775218D01*
X129675778Y-88775218D01*
X129675781Y-88775220D01*
X129754956Y-88800945D01*
X129866131Y-88837069D01*
X129923806Y-88876507D01*
X129951004Y-88940866D01*
X129939089Y-89009712D01*
X129891845Y-89061188D01*
X129866131Y-89072931D01*
X129675776Y-89134781D01*
X129493386Y-89227715D01*
X129327786Y-89348028D01*
X129327782Y-89348032D01*
X129272634Y-89403181D01*
X129211311Y-89436666D01*
X129184953Y-89439500D01*
X128011303Y-89439500D01*
X127837341Y-89474103D01*
X127837333Y-89474105D01*
X127767214Y-89503150D01*
X127761541Y-89505500D01*
X127673453Y-89541987D01*
X127592671Y-89595964D01*
X127587652Y-89599317D01*
X127587651Y-89599318D01*
X127525961Y-89640537D01*
X126300537Y-90865961D01*
X126275290Y-90903748D01*
X126275289Y-90903749D01*
X126201988Y-91013449D01*
X126171433Y-91087217D01*
X126134105Y-91177333D01*
X126134103Y-91177341D01*
X126099500Y-91351303D01*
X126099500Y-101180696D01*
X126134103Y-101354658D01*
X126134105Y-101354666D01*
X126165526Y-101430524D01*
X126165529Y-101430529D01*
X126168046Y-101436606D01*
X126201987Y-101518547D01*
X126261063Y-101606959D01*
X126264169Y-101611607D01*
X126264172Y-101611613D01*
X126300534Y-101666034D01*
X126300535Y-101666035D01*
X127568958Y-102934459D01*
X127568961Y-102934462D01*
X127604917Y-102958487D01*
X127609141Y-102961309D01*
X127716453Y-103033013D01*
X127798393Y-103066953D01*
X127880334Y-103100895D01*
X128054303Y-103135499D01*
X128054307Y-103135500D01*
X128054308Y-103135500D01*
X136232693Y-103135500D01*
X136232694Y-103135499D01*
X136406666Y-103100895D01*
X136488606Y-103066953D01*
X136570547Y-103033013D01*
X136677859Y-102961309D01*
X136718036Y-102934464D01*
X137859464Y-101793036D01*
X137929184Y-101688692D01*
X137958013Y-101645547D01*
X138013616Y-101511309D01*
X138025895Y-101481666D01*
X138060500Y-101307692D01*
X138060500Y-101130308D01*
X138060500Y-100219986D01*
X148230001Y-100219986D01*
X148240494Y-100322697D01*
X148295641Y-100489119D01*
X148295643Y-100489124D01*
X148387684Y-100638345D01*
X148511654Y-100762315D01*
X148660875Y-100854356D01*
X148660880Y-100854358D01*
X148827302Y-100909505D01*
X148827309Y-100909506D01*
X148930019Y-100919999D01*
X148979999Y-100919998D01*
X148980000Y-100919998D01*
X148980000Y-99945000D01*
X148230001Y-99945000D01*
X148230001Y-100219986D01*
X138060500Y-100219986D01*
X138060500Y-99170013D01*
X148230000Y-99170013D01*
X148230000Y-99445000D01*
X148980000Y-99445000D01*
X148980000Y-98470000D01*
X148979999Y-98469999D01*
X148930029Y-98470000D01*
X148930011Y-98470001D01*
X148827302Y-98480494D01*
X148660880Y-98535641D01*
X148660875Y-98535643D01*
X148511654Y-98627684D01*
X148387684Y-98751654D01*
X148295643Y-98900875D01*
X148295641Y-98900880D01*
X148240494Y-99067302D01*
X148240493Y-99067309D01*
X148230000Y-99170013D01*
X138060500Y-99170013D01*
X138060500Y-96770001D01*
X147927704Y-96770001D01*
X147927899Y-96772486D01*
X147973718Y-96930198D01*
X148057314Y-97071552D01*
X148057321Y-97071561D01*
X148173438Y-97187678D01*
X148173447Y-97187685D01*
X148314803Y-97271282D01*
X148314806Y-97271283D01*
X148472504Y-97317099D01*
X148472510Y-97317100D01*
X148509350Y-97319999D01*
X148509366Y-97320000D01*
X148975000Y-97320000D01*
X149475000Y-97320000D01*
X149940634Y-97320000D01*
X149940649Y-97319999D01*
X149977489Y-97317100D01*
X149977495Y-97317099D01*
X150135193Y-97271283D01*
X150135196Y-97271282D01*
X150276552Y-97187685D01*
X150276561Y-97187678D01*
X150392678Y-97071561D01*
X150392685Y-97071552D01*
X150476281Y-96930198D01*
X150522100Y-96772486D01*
X150522295Y-96770001D01*
X150522295Y-96770000D01*
X149475000Y-96770000D01*
X149475000Y-97320000D01*
X148975000Y-97320000D01*
X148975000Y-96770000D01*
X147927705Y-96770000D01*
X147927704Y-96770001D01*
X138060500Y-96770001D01*
X138060500Y-95500001D01*
X147927704Y-95500001D01*
X147927899Y-95502486D01*
X147973718Y-95660198D01*
X148057314Y-95801552D01*
X148062100Y-95807722D01*
X148059753Y-95809542D01*
X148086564Y-95858642D01*
X148081580Y-95928334D01*
X148060541Y-95961069D01*
X148062100Y-95962278D01*
X148057314Y-95968447D01*
X147973718Y-96109801D01*
X147927899Y-96267513D01*
X147927704Y-96269998D01*
X147927705Y-96270000D01*
X148975000Y-96270000D01*
X148975000Y-95500000D01*
X147927705Y-95500000D01*
X147927704Y-95500001D01*
X138060500Y-95500001D01*
X138060500Y-93261362D01*
X138080185Y-93194323D01*
X138096819Y-93173681D01*
X138883681Y-92386819D01*
X138945004Y-92353334D01*
X138971362Y-92350500D01*
X147801675Y-92350500D01*
X147868714Y-92370185D01*
X147914469Y-92422989D01*
X147925293Y-92484227D01*
X147924500Y-92494295D01*
X147924500Y-92925701D01*
X147927401Y-92962567D01*
X147927402Y-92962573D01*
X147973254Y-93120393D01*
X147973255Y-93120396D01*
X147973256Y-93120398D01*
X147993756Y-93155062D01*
X148056917Y-93261862D01*
X148061702Y-93268031D01*
X148059256Y-93269927D01*
X148085857Y-93318642D01*
X148080873Y-93388334D01*
X148060069Y-93420703D01*
X148061702Y-93421969D01*
X148056917Y-93428137D01*
X147973255Y-93569603D01*
X147973254Y-93569606D01*
X147927402Y-93727426D01*
X147927401Y-93727432D01*
X147924500Y-93764298D01*
X147924500Y-94195701D01*
X147927401Y-94232567D01*
X147927402Y-94232573D01*
X147973254Y-94390393D01*
X147973255Y-94390396D01*
X148056917Y-94531862D01*
X148061702Y-94538031D01*
X148059369Y-94539840D01*
X148086210Y-94588995D01*
X148081226Y-94658687D01*
X148060470Y-94691021D01*
X148062097Y-94692283D01*
X148057313Y-94698449D01*
X147973718Y-94839801D01*
X147927899Y-94997513D01*
X147927704Y-94999998D01*
X147927705Y-95000000D01*
X149101000Y-95000000D01*
X149168039Y-95019685D01*
X149213794Y-95072489D01*
X149225000Y-95124000D01*
X149225000Y-95250000D01*
X149351000Y-95250000D01*
X149418039Y-95269685D01*
X149463794Y-95322489D01*
X149475000Y-95374000D01*
X149475000Y-96270000D01*
X150522295Y-96270000D01*
X150522295Y-96269998D01*
X150522100Y-96267513D01*
X150476281Y-96109801D01*
X150392685Y-95968447D01*
X150387900Y-95962278D01*
X150390252Y-95960453D01*
X150363445Y-95911405D01*
X150368402Y-95841712D01*
X150389465Y-95808936D01*
X150387900Y-95807722D01*
X150392685Y-95801552D01*
X150476281Y-95660198D01*
X150476283Y-95660193D01*
X150490574Y-95611006D01*
X150528180Y-95552120D01*
X150591653Y-95522914D01*
X150609650Y-95521601D01*
X150767994Y-95521601D01*
X150876584Y-95500000D01*
X150922743Y-95490818D01*
X151025635Y-95448199D01*
X151068512Y-95430439D01*
X151068513Y-95430438D01*
X151068516Y-95430437D01*
X151193187Y-95347134D01*
X151259864Y-95326258D01*
X151327244Y-95344743D01*
X151349758Y-95362557D01*
X154587520Y-98600319D01*
X154621005Y-98661642D01*
X154616021Y-98731334D01*
X154574149Y-98787267D01*
X154508685Y-98811684D01*
X154499839Y-98812000D01*
X152079332Y-98812000D01*
X152012293Y-98792315D01*
X151977442Y-98756814D01*
X151977193Y-98757011D01*
X151975361Y-98754694D01*
X151973795Y-98753099D01*
X151972714Y-98751347D01*
X151972711Y-98751343D01*
X151848657Y-98627289D01*
X151848656Y-98627288D01*
X151699334Y-98535186D01*
X151532797Y-98480001D01*
X151532795Y-98480000D01*
X151430010Y-98469500D01*
X150829998Y-98469500D01*
X150829980Y-98469501D01*
X150727203Y-98480000D01*
X150727200Y-98480001D01*
X150560668Y-98535185D01*
X150560663Y-98535187D01*
X150411342Y-98627289D01*
X150287288Y-98751343D01*
X150287283Y-98751349D01*
X150285241Y-98754661D01*
X150283247Y-98756453D01*
X150282807Y-98757011D01*
X150282711Y-98756935D01*
X150233291Y-98801383D01*
X150164328Y-98812602D01*
X150100247Y-98784755D01*
X150074168Y-98754656D01*
X150072319Y-98751659D01*
X150072316Y-98751655D01*
X149948345Y-98627684D01*
X149799124Y-98535643D01*
X149799119Y-98535641D01*
X149632697Y-98480494D01*
X149632690Y-98480493D01*
X149529986Y-98470000D01*
X149480000Y-98470000D01*
X149480000Y-100919999D01*
X149529972Y-100919999D01*
X149529986Y-100919998D01*
X149632697Y-100909505D01*
X149799119Y-100854358D01*
X149799124Y-100854356D01*
X149948345Y-100762315D01*
X150072318Y-100638342D01*
X150074165Y-100635348D01*
X150075969Y-100633724D01*
X150076798Y-100632677D01*
X150076976Y-100632818D01*
X150126110Y-100588621D01*
X150195073Y-100577396D01*
X150259156Y-100605236D01*
X150285243Y-100635341D01*
X150287288Y-100638656D01*
X150411344Y-100762712D01*
X150560666Y-100854814D01*
X150727203Y-100909999D01*
X150829991Y-100920500D01*
X151430008Y-100920499D01*
X151430016Y-100920498D01*
X151430019Y-100920498D01*
X151486302Y-100914748D01*
X151532797Y-100909999D01*
X151699334Y-100854814D01*
X151848656Y-100762712D01*
X151962049Y-100649319D01*
X152023372Y-100615834D01*
X152049730Y-100613000D01*
X154672938Y-100613000D01*
X154739977Y-100632685D01*
X154760619Y-100649319D01*
X155736460Y-101625161D01*
X155736464Y-101625164D01*
X155883946Y-101723709D01*
X155883952Y-101723712D01*
X155883953Y-101723713D01*
X156047834Y-101791595D01*
X156221803Y-101826199D01*
X156221807Y-101826200D01*
X156221808Y-101826200D01*
X177131893Y-101826200D01*
X177131894Y-101826199D01*
X177305866Y-101791595D01*
X177387806Y-101757653D01*
X177469747Y-101723713D01*
X177586730Y-101645547D01*
X177617236Y-101625164D01*
X179022414Y-100219986D01*
X182520001Y-100219986D01*
X182530494Y-100322697D01*
X182585641Y-100489119D01*
X182585643Y-100489124D01*
X182677684Y-100638345D01*
X182801654Y-100762315D01*
X182950875Y-100854356D01*
X182950880Y-100854358D01*
X183117302Y-100909505D01*
X183117309Y-100909506D01*
X183220019Y-100919999D01*
X183269999Y-100919998D01*
X183270000Y-100919998D01*
X183270000Y-99945000D01*
X182520001Y-99945000D01*
X182520001Y-100219986D01*
X179022414Y-100219986D01*
X179436443Y-99805957D01*
X180515580Y-98726819D01*
X180576903Y-98693334D01*
X180603261Y-98690500D01*
X182493230Y-98690500D01*
X182560269Y-98710185D01*
X182606024Y-98762989D01*
X182615968Y-98832147D01*
X182598768Y-98879598D01*
X182585644Y-98900873D01*
X182585641Y-98900880D01*
X182530494Y-99067302D01*
X182530493Y-99067309D01*
X182520000Y-99170013D01*
X182520000Y-99445000D01*
X183396000Y-99445000D01*
X183463039Y-99464685D01*
X183508794Y-99517489D01*
X183520000Y-99569000D01*
X183520000Y-99695000D01*
X183646000Y-99695000D01*
X183713039Y-99714685D01*
X183758794Y-99767489D01*
X183770000Y-99819000D01*
X183770000Y-100919999D01*
X183819972Y-100919999D01*
X183819986Y-100919998D01*
X183922697Y-100909505D01*
X184089119Y-100854358D01*
X184089124Y-100854356D01*
X184238345Y-100762315D01*
X184362318Y-100638342D01*
X184364165Y-100635348D01*
X184365969Y-100633724D01*
X184366798Y-100632677D01*
X184366976Y-100632818D01*
X184416110Y-100588621D01*
X184485073Y-100577396D01*
X184549156Y-100605236D01*
X184575243Y-100635341D01*
X184577288Y-100638656D01*
X184701344Y-100762712D01*
X184850666Y-100854814D01*
X185017203Y-100909999D01*
X185119991Y-100920500D01*
X185720008Y-100920499D01*
X185720016Y-100920498D01*
X185720019Y-100920498D01*
X185776302Y-100914748D01*
X185822797Y-100909999D01*
X185989334Y-100854814D01*
X186138656Y-100762712D01*
X186262712Y-100638656D01*
X186354814Y-100489334D01*
X186409999Y-100322797D01*
X186420500Y-100220009D01*
X186420499Y-99169992D01*
X186420294Y-99167990D01*
X186409999Y-99067203D01*
X186409998Y-99067200D01*
X186354814Y-98900666D01*
X186351820Y-98895812D01*
X186338960Y-98874961D01*
X186320500Y-98809867D01*
X186320500Y-95499561D01*
X186340185Y-95432522D01*
X186356819Y-95411880D01*
X186852962Y-94915737D01*
X186852964Y-94915735D01*
X186876507Y-94880500D01*
X186885703Y-94866736D01*
X186939318Y-94821935D01*
X187008643Y-94813232D01*
X187071669Y-94843390D01*
X187103362Y-94888182D01*
X187166883Y-95041541D01*
X187166890Y-95041553D01*
X187265435Y-95189034D01*
X187265438Y-95189038D01*
X187390861Y-95314461D01*
X187390865Y-95314464D01*
X187538346Y-95413009D01*
X187538359Y-95413016D01*
X187623300Y-95448199D01*
X187702234Y-95480894D01*
X187702236Y-95480894D01*
X187702241Y-95480896D01*
X187876204Y-95515499D01*
X187876207Y-95515500D01*
X187876209Y-95515500D01*
X188053593Y-95515500D01*
X188053594Y-95515499D01*
X188118619Y-95502565D01*
X188227558Y-95480896D01*
X188227561Y-95480894D01*
X188227566Y-95480894D01*
X188391447Y-95413013D01*
X188521609Y-95326041D01*
X188588286Y-95305163D01*
X188655666Y-95323647D01*
X188702357Y-95375626D01*
X188714500Y-95429143D01*
X188714500Y-95465701D01*
X188717401Y-95502567D01*
X188717402Y-95502573D01*
X188763254Y-95660393D01*
X188763255Y-95660396D01*
X188846917Y-95801862D01*
X188851702Y-95808031D01*
X188849256Y-95809927D01*
X188875857Y-95858642D01*
X188870873Y-95928334D01*
X188850069Y-95960703D01*
X188851702Y-95961969D01*
X188846917Y-95968137D01*
X188763255Y-96109603D01*
X188763254Y-96109606D01*
X188717402Y-96267426D01*
X188717401Y-96267432D01*
X188714500Y-96304298D01*
X188714500Y-96735701D01*
X188717401Y-96772567D01*
X188717402Y-96772573D01*
X188763254Y-96930393D01*
X188763255Y-96930396D01*
X188763256Y-96930398D01*
X188781038Y-96960466D01*
X188846917Y-97071862D01*
X188846923Y-97071870D01*
X188963129Y-97188076D01*
X188963132Y-97188078D01*
X188963135Y-97188081D01*
X189053623Y-97241595D01*
X189101304Y-97292661D01*
X189114500Y-97348325D01*
X189114500Y-101660638D01*
X189094815Y-101727677D01*
X189078181Y-101748319D01*
X188713319Y-102113181D01*
X188651996Y-102146666D01*
X188625638Y-102149500D01*
X157014606Y-102149500D01*
X156840641Y-102184103D01*
X156840632Y-102184106D01*
X156676759Y-102251983D01*
X156676746Y-102251990D01*
X156529265Y-102350535D01*
X156529261Y-102350538D01*
X156403838Y-102475961D01*
X156403835Y-102475965D01*
X156305290Y-102623446D01*
X156305283Y-102623459D01*
X156237406Y-102787332D01*
X156237403Y-102787341D01*
X156202800Y-102961304D01*
X156202800Y-103138695D01*
X156237403Y-103312658D01*
X156237406Y-103312667D01*
X156305283Y-103476540D01*
X156305290Y-103476553D01*
X156403835Y-103624034D01*
X156403838Y-103624038D01*
X156529261Y-103749461D01*
X156529265Y-103749464D01*
X156676746Y-103848009D01*
X156676759Y-103848016D01*
X156758692Y-103881953D01*
X156840634Y-103915894D01*
X156840636Y-103915894D01*
X156840641Y-103915896D01*
X157014604Y-103950499D01*
X157014607Y-103950500D01*
X157014609Y-103950500D01*
X189138693Y-103950500D01*
X189138694Y-103950499D01*
X189312666Y-103915895D01*
X189394606Y-103881953D01*
X189476547Y-103848013D01*
X189564959Y-103788936D01*
X189624036Y-103749464D01*
X190714464Y-102659036D01*
X190753936Y-102599959D01*
X190813013Y-102511547D01*
X190860040Y-102398013D01*
X190880895Y-102347666D01*
X190915500Y-102173692D01*
X190915500Y-101996308D01*
X190915500Y-97348325D01*
X190935185Y-97281286D01*
X190976376Y-97241595D01*
X191066865Y-97188081D01*
X191183081Y-97071865D01*
X191266744Y-96930398D01*
X191312598Y-96772569D01*
X191315500Y-96735694D01*
X191315500Y-96304306D01*
X191312598Y-96267431D01*
X191296047Y-96210464D01*
X191278836Y-96151224D01*
X191266744Y-96109602D01*
X191183081Y-95968135D01*
X191183078Y-95968132D01*
X191178298Y-95961969D01*
X191180750Y-95960066D01*
X191154155Y-95911421D01*
X191159104Y-95841726D01*
X191179940Y-95809304D01*
X191178298Y-95808031D01*
X191183075Y-95801870D01*
X191183081Y-95801865D01*
X191266744Y-95660398D01*
X191307069Y-95521601D01*
X191312597Y-95502573D01*
X191312598Y-95502567D01*
X191312598Y-95502565D01*
X191315500Y-95465694D01*
X191315500Y-95034306D01*
X191312598Y-94997431D01*
X191306990Y-94978130D01*
X191277803Y-94877666D01*
X191266744Y-94839602D01*
X191183081Y-94698135D01*
X191183078Y-94698132D01*
X191178298Y-94691969D01*
X191180750Y-94690066D01*
X191154155Y-94641421D01*
X191159104Y-94571726D01*
X191179940Y-94539304D01*
X191178298Y-94538031D01*
X191183075Y-94531870D01*
X191183081Y-94531865D01*
X191266744Y-94390398D01*
X191312598Y-94232569D01*
X191315500Y-94195694D01*
X191315500Y-93764306D01*
X191312598Y-93727431D01*
X191311310Y-93722999D01*
X191266745Y-93569606D01*
X191266744Y-93569603D01*
X191266744Y-93569602D01*
X191183081Y-93428135D01*
X191183078Y-93428132D01*
X191178298Y-93421969D01*
X191180750Y-93420066D01*
X191154155Y-93371421D01*
X191159104Y-93301726D01*
X191179940Y-93269304D01*
X191178298Y-93268031D01*
X191183075Y-93261870D01*
X191183081Y-93261865D01*
X191266744Y-93120398D01*
X191312598Y-92962569D01*
X191315500Y-92925694D01*
X191315500Y-92494306D01*
X191312598Y-92457431D01*
X191308841Y-92444500D01*
X191266745Y-92299606D01*
X191266744Y-92299603D01*
X191266744Y-92299602D01*
X191183081Y-92158135D01*
X191183078Y-92158132D01*
X191178298Y-92151969D01*
X191180750Y-92150066D01*
X191154155Y-92101421D01*
X191159104Y-92031726D01*
X191179940Y-91999304D01*
X191178298Y-91998031D01*
X191183075Y-91991870D01*
X191183081Y-91991865D01*
X191266744Y-91850398D01*
X191308841Y-91705500D01*
X191312597Y-91692573D01*
X191312598Y-91692567D01*
X191313920Y-91675772D01*
X191315500Y-91655694D01*
X191315500Y-91224306D01*
X191313920Y-91204228D01*
X191328285Y-91135851D01*
X191377336Y-91086094D01*
X191437538Y-91070500D01*
X197060638Y-91070500D01*
X197127677Y-91090185D01*
X197148319Y-91106819D01*
X200993181Y-94951680D01*
X201026666Y-95013003D01*
X201029500Y-95039361D01*
X201029500Y-100418696D01*
X201064103Y-100592658D01*
X201064105Y-100592666D01*
X201081517Y-100634703D01*
X201081520Y-100634710D01*
X201083155Y-100638656D01*
X201131987Y-100756547D01*
X201167236Y-100809300D01*
X201171634Y-100815882D01*
X201171636Y-100815886D01*
X201230537Y-100904038D01*
X201230540Y-100904041D01*
X202625964Y-102299464D01*
X202625966Y-102299466D01*
X202668602Y-102327953D01*
X202685040Y-102338936D01*
X202773453Y-102398013D01*
X202837397Y-102424499D01*
X202937334Y-102465895D01*
X203111303Y-102500499D01*
X203111307Y-102500500D01*
X203111308Y-102500500D01*
X209638693Y-102500500D01*
X209638694Y-102500499D01*
X209812666Y-102465895D01*
X209912603Y-102424499D01*
X209976547Y-102398013D01*
X210064959Y-102338936D01*
X210124036Y-102299464D01*
X211519464Y-100904036D01*
X211582764Y-100809300D01*
X211618013Y-100756547D01*
X211666845Y-100638656D01*
X211685895Y-100592666D01*
X211720500Y-100418692D01*
X211720500Y-100241308D01*
X211720500Y-93256309D01*
X211711756Y-93212352D01*
X211702280Y-93164712D01*
X211685896Y-93082341D01*
X211685893Y-93082332D01*
X211678045Y-93063386D01*
X211673616Y-93052692D01*
X211657651Y-93014149D01*
X211618016Y-92918459D01*
X211618009Y-92918446D01*
X211519465Y-92770966D01*
X211457899Y-92709400D01*
X211394035Y-92645536D01*
X211155109Y-92406610D01*
X210409039Y-91660538D01*
X210409031Y-91660532D01*
X210350625Y-91621506D01*
X210350615Y-91621500D01*
X210345289Y-91617942D01*
X210261547Y-91561987D01*
X210156936Y-91518656D01*
X210097666Y-91494105D01*
X210097658Y-91494103D01*
X209923696Y-91459500D01*
X209923692Y-91459500D01*
X209923691Y-91459500D01*
X208635047Y-91459500D01*
X208568008Y-91439815D01*
X208547366Y-91423181D01*
X208492213Y-91368028D01*
X208326613Y-91247715D01*
X208326612Y-91247714D01*
X208326610Y-91247713D01*
X208238454Y-91202795D01*
X208144223Y-91154781D01*
X207953868Y-91092931D01*
X207896193Y-91053493D01*
X207868995Y-90989134D01*
X207880910Y-90920288D01*
X207928154Y-90868812D01*
X207953868Y-90857069D01*
X208008804Y-90839219D01*
X208144219Y-90795220D01*
X208326610Y-90702287D01*
X208442560Y-90618045D01*
X208492213Y-90581971D01*
X208492215Y-90581968D01*
X208492219Y-90581966D01*
X208636966Y-90437219D01*
X208636968Y-90437215D01*
X208636971Y-90437213D01*
X208732796Y-90305319D01*
X208757287Y-90271610D01*
X208850220Y-90089219D01*
X208913477Y-89894534D01*
X208945500Y-89692352D01*
X208945500Y-89487648D01*
X208943344Y-89474034D01*
X208913477Y-89285465D01*
X208858317Y-89115701D01*
X208850220Y-89090781D01*
X208850218Y-89090778D01*
X208850218Y-89090776D01*
X208808913Y-89009712D01*
X208757287Y-88908390D01*
X208729759Y-88870500D01*
X208636971Y-88742786D01*
X208492213Y-88598028D01*
X208326613Y-88477715D01*
X208326612Y-88477714D01*
X208326610Y-88477713D01*
X208244536Y-88435894D01*
X208144223Y-88384781D01*
X207953868Y-88322931D01*
X207896193Y-88283493D01*
X207868995Y-88219134D01*
X207880910Y-88150288D01*
X207928154Y-88098812D01*
X207953868Y-88087069D01*
X208012414Y-88068046D01*
X208144219Y-88025220D01*
X208326610Y-87932287D01*
X208419590Y-87864732D01*
X208492213Y-87811971D01*
X208492215Y-87811968D01*
X208492219Y-87811966D01*
X208636966Y-87667219D01*
X208636968Y-87667215D01*
X208636971Y-87667213D01*
X208717868Y-87555866D01*
X208757287Y-87501610D01*
X208850220Y-87319219D01*
X208913477Y-87124534D01*
X208945500Y-86922352D01*
X208945500Y-86717648D01*
X208944892Y-86713812D01*
X208913477Y-86515465D01*
X208864516Y-86364780D01*
X208850220Y-86320781D01*
X208850218Y-86320778D01*
X208850218Y-86320776D01*
X208808913Y-86239712D01*
X208757287Y-86138390D01*
X208727942Y-86098000D01*
X208636971Y-85972786D01*
X208492213Y-85828028D01*
X208326613Y-85707715D01*
X208326612Y-85707714D01*
X208326610Y-85707713D01*
X208269653Y-85678691D01*
X208144223Y-85614781D01*
X207953868Y-85552931D01*
X207896193Y-85513493D01*
X207868995Y-85449134D01*
X207880910Y-85380288D01*
X207928154Y-85328812D01*
X207953868Y-85317069D01*
X208011155Y-85298455D01*
X208144219Y-85255220D01*
X208326610Y-85162287D01*
X208419590Y-85094732D01*
X208492213Y-85041971D01*
X208492215Y-85041968D01*
X208492219Y-85041966D01*
X208636966Y-84897219D01*
X208636968Y-84897215D01*
X208636971Y-84897213D01*
X208717868Y-84785866D01*
X208757287Y-84731610D01*
X208850220Y-84549219D01*
X208913477Y-84354534D01*
X208945500Y-84152352D01*
X208945500Y-83947648D01*
X208944892Y-83943812D01*
X208913477Y-83745465D01*
X208864516Y-83594780D01*
X208850220Y-83550781D01*
X208850218Y-83550778D01*
X208850218Y-83550776D01*
X208808779Y-83469449D01*
X208757287Y-83368390D01*
X208733932Y-83336244D01*
X208636971Y-83202786D01*
X208492213Y-83058028D01*
X208326613Y-82937715D01*
X208326612Y-82937714D01*
X208326610Y-82937713D01*
X208269653Y-82908691D01*
X208144223Y-82844781D01*
X207953868Y-82782931D01*
X207896193Y-82743493D01*
X207868995Y-82679134D01*
X207880910Y-82610288D01*
X207928154Y-82558812D01*
X207953868Y-82547069D01*
X208006400Y-82530000D01*
X208144219Y-82485220D01*
X208326610Y-82392287D01*
X208419590Y-82324732D01*
X208492213Y-82271971D01*
X208492215Y-82271968D01*
X208492219Y-82271966D01*
X208636966Y-82127219D01*
X208636968Y-82127215D01*
X208636971Y-82127213D01*
X208717868Y-82015866D01*
X208757287Y-81961610D01*
X208850220Y-81779219D01*
X208913477Y-81584534D01*
X208945500Y-81382352D01*
X208945500Y-81177648D01*
X208940205Y-81144219D01*
X208913477Y-80975465D01*
X208850218Y-80780776D01*
X208816503Y-80714607D01*
X208757287Y-80598390D01*
X208749556Y-80587749D01*
X208636971Y-80432786D01*
X208492213Y-80288028D01*
X208326613Y-80167715D01*
X208326612Y-80167714D01*
X208326610Y-80167713D01*
X208269653Y-80138691D01*
X208144223Y-80074781D01*
X207949534Y-80011522D01*
X207774995Y-79983878D01*
X207747352Y-79979500D01*
X207542648Y-79979500D01*
X207518329Y-79983351D01*
X207340465Y-80011522D01*
X207145776Y-80074781D01*
X206963386Y-80167715D01*
X206797786Y-80288028D01*
X206653030Y-80432784D01*
X206629816Y-80464736D01*
X206574486Y-80507401D01*
X206504872Y-80513379D01*
X206443078Y-80480772D01*
X206408721Y-80419933D01*
X206405499Y-80391855D01*
X206405499Y-79047128D01*
X206399091Y-78987517D01*
X206392891Y-78970895D01*
X206348797Y-78852671D01*
X206348793Y-78852664D01*
X206262547Y-78737455D01*
X206262544Y-78737452D01*
X206147335Y-78651206D01*
X206147328Y-78651202D01*
X206012482Y-78600908D01*
X206012483Y-78600908D01*
X205952883Y-78594501D01*
X205952881Y-78594500D01*
X205952873Y-78594500D01*
X205952864Y-78594500D01*
X204257129Y-78594500D01*
X204257123Y-78594501D01*
X204197516Y-78600908D01*
X204062671Y-78651202D01*
X204062664Y-78651206D01*
X203947455Y-78737452D01*
X203947452Y-78737455D01*
X203861206Y-78852664D01*
X203861202Y-78852671D01*
X203810908Y-78987517D01*
X203804501Y-79047116D01*
X203804501Y-79047123D01*
X203804500Y-79047135D01*
X203804500Y-80742870D01*
X203804501Y-80742876D01*
X203810908Y-80802483D01*
X203861202Y-80937328D01*
X203861206Y-80937335D01*
X203947452Y-81052544D01*
X203947455Y-81052547D01*
X204062664Y-81138793D01*
X204062671Y-81138797D01*
X204197517Y-81189091D01*
X204197516Y-81189091D01*
X204204444Y-81189835D01*
X204257127Y-81195500D01*
X204636248Y-81195499D01*
X204703285Y-81215183D01*
X204749040Y-81267987D01*
X204758984Y-81337146D01*
X204729959Y-81400701D01*
X204674566Y-81437429D01*
X204605780Y-81459779D01*
X204423386Y-81552715D01*
X204257786Y-81673028D01*
X204257782Y-81673032D01*
X204202634Y-81728181D01*
X204141311Y-81761666D01*
X204114953Y-81764500D01*
X187714500Y-81764500D01*
X187647461Y-81744815D01*
X187601706Y-81692011D01*
X187590500Y-81640500D01*
X187590500Y-69761309D01*
X187585508Y-69736211D01*
X187585508Y-69736209D01*
X187585508Y-69736208D01*
X187567642Y-69646395D01*
X187555895Y-69587334D01*
X187519796Y-69500185D01*
X187514540Y-69487495D01*
X187514538Y-69487491D01*
X187511642Y-69480500D01*
X187488013Y-69423453D01*
X187427379Y-69332708D01*
X187389464Y-69275964D01*
X187389463Y-69275963D01*
X187389462Y-69275961D01*
X187389461Y-69275960D01*
X185994035Y-67880535D01*
X185994030Y-67880531D01*
X185939622Y-67844178D01*
X185939616Y-67844175D01*
X185934959Y-67841063D01*
X185846547Y-67781987D01*
X185764606Y-67748046D01*
X185682666Y-67714105D01*
X185682658Y-67714103D01*
X185508696Y-67679500D01*
X185508692Y-67679500D01*
X185508691Y-67679500D01*
X173443692Y-67679500D01*
X173266309Y-67679500D01*
X173266304Y-67679500D01*
X173092339Y-67714103D01*
X173092323Y-67714108D01*
X172976453Y-67762102D01*
X172976454Y-67762103D01*
X172928454Y-67781986D01*
X172780965Y-67880535D01*
X172780963Y-67880537D01*
X171730535Y-68930964D01*
X171730533Y-68930966D01*
X171718153Y-68949497D01*
X171718151Y-68949500D01*
X171631988Y-69078449D01*
X171602130Y-69150535D01*
X171564105Y-69242333D01*
X171564103Y-69242341D01*
X171529500Y-69416303D01*
X171529500Y-70129953D01*
X171509815Y-70196992D01*
X171493181Y-70217634D01*
X171438032Y-70272782D01*
X171438028Y-70272786D01*
X171317715Y-70438386D01*
X171224781Y-70620776D01*
X171162931Y-70811131D01*
X171123493Y-70868806D01*
X171059134Y-70896004D01*
X170990288Y-70884089D01*
X170938812Y-70836845D01*
X170927069Y-70811131D01*
X170865218Y-70620776D01*
X170831503Y-70554607D01*
X170772287Y-70438390D01*
X170764556Y-70427749D01*
X170651971Y-70272786D01*
X170596819Y-70217634D01*
X170563334Y-70156311D01*
X170560500Y-70129953D01*
X170560500Y-69241308D01*
X170560499Y-69241307D01*
X170544075Y-69158734D01*
X170525895Y-69067334D01*
X170477086Y-68949500D01*
X170458013Y-68903453D01*
X170392587Y-68805536D01*
X170392587Y-68805535D01*
X170359467Y-68755968D01*
X170359461Y-68755960D01*
X169484035Y-67880535D01*
X169484030Y-67880531D01*
X169429622Y-67844178D01*
X169429616Y-67844175D01*
X169424959Y-67841063D01*
X169336547Y-67781987D01*
X169254606Y-67748046D01*
X169172666Y-67714105D01*
X169172658Y-67714103D01*
X168998696Y-67679500D01*
X168998692Y-67679500D01*
X168998691Y-67679500D01*
X161378691Y-67679500D01*
X161201308Y-67679500D01*
X161201305Y-67679500D01*
X161027401Y-67714091D01*
X161027402Y-67714092D01*
X161027339Y-67714104D01*
X161027329Y-67714107D01*
X160863459Y-67781983D01*
X160863446Y-67781990D01*
X160715966Y-67880534D01*
X160715964Y-67880537D01*
X159749140Y-68847358D01*
X159749137Y-68847361D01*
X159714211Y-68899632D01*
X159714205Y-68899642D01*
X159711659Y-68903453D01*
X159650587Y-68994853D01*
X159626922Y-69051987D01*
X159624019Y-69058993D01*
X159624016Y-69059000D01*
X159582705Y-69158733D01*
X159582705Y-69158734D01*
X159559387Y-69275964D01*
X159559387Y-69275965D01*
X159548100Y-69332707D01*
X159548100Y-74501195D01*
X159582703Y-74675158D01*
X159582706Y-74675167D01*
X159650583Y-74839040D01*
X159650590Y-74839053D01*
X159749135Y-74986534D01*
X159749138Y-74986538D01*
X159874561Y-75111961D01*
X159874565Y-75111964D01*
X160022046Y-75210509D01*
X160022059Y-75210516D01*
X160144963Y-75261423D01*
X160185934Y-75278394D01*
X160185936Y-75278394D01*
X160185941Y-75278396D01*
X160359904Y-75312999D01*
X160359907Y-75313000D01*
X160359909Y-75313000D01*
X160537293Y-75313000D01*
X160537294Y-75312999D01*
X160595282Y-75301464D01*
X160711258Y-75278396D01*
X160711261Y-75278394D01*
X160711266Y-75278394D01*
X160875147Y-75210513D01*
X161022635Y-75111964D01*
X161148064Y-74986535D01*
X161246613Y-74839047D01*
X161287089Y-74741326D01*
X161330928Y-74686927D01*
X161397222Y-74664861D01*
X161464921Y-74682140D01*
X161500915Y-74714470D01*
X161577812Y-74817190D01*
X161692906Y-74903350D01*
X161692913Y-74903354D01*
X161827620Y-74953596D01*
X161827627Y-74953598D01*
X161887155Y-74959999D01*
X161887172Y-74960000D01*
X162485000Y-74960000D01*
X162485000Y-74093012D01*
X162542007Y-74125925D01*
X162669174Y-74160000D01*
X162800826Y-74160000D01*
X162927993Y-74125925D01*
X162985000Y-74093012D01*
X162985000Y-74960000D01*
X163582828Y-74960000D01*
X163582844Y-74959999D01*
X163642372Y-74953598D01*
X163642379Y-74953596D01*
X163777086Y-74903354D01*
X163777093Y-74903350D01*
X163892187Y-74817190D01*
X163892190Y-74817187D01*
X163978350Y-74702093D01*
X163978354Y-74702086D01*
X164028596Y-74567379D01*
X164028598Y-74567372D01*
X164034999Y-74507844D01*
X164035000Y-74507827D01*
X164035000Y-74127215D01*
X164054685Y-74060176D01*
X164107489Y-74014421D01*
X164176647Y-74004477D01*
X164240203Y-74033502D01*
X164276931Y-74088896D01*
X164299781Y-74159223D01*
X164392715Y-74341613D01*
X164513028Y-74507213D01*
X164657786Y-74651971D01*
X164808279Y-74761308D01*
X164823390Y-74772287D01*
X164911517Y-74817190D01*
X165005776Y-74865218D01*
X165005778Y-74865218D01*
X165005781Y-74865220D01*
X165110137Y-74899127D01*
X165200465Y-74928477D01*
X165264960Y-74938692D01*
X165402648Y-74960500D01*
X165402649Y-74960500D01*
X165607351Y-74960500D01*
X165607352Y-74960500D01*
X165809534Y-74928477D01*
X166004219Y-74865220D01*
X166186610Y-74772287D01*
X166311361Y-74681651D01*
X166352213Y-74651971D01*
X166352215Y-74651968D01*
X166352219Y-74651966D01*
X166496966Y-74507219D01*
X166496968Y-74507215D01*
X166496971Y-74507213D01*
X166553552Y-74429334D01*
X166617287Y-74341610D01*
X166707872Y-74163827D01*
X166710218Y-74159223D01*
X166710218Y-74159222D01*
X166710220Y-74159219D01*
X166772069Y-73968868D01*
X166811507Y-73911193D01*
X166875866Y-73883995D01*
X166944712Y-73895910D01*
X166996188Y-73943154D01*
X167007931Y-73968868D01*
X167069781Y-74159223D01*
X167162715Y-74341613D01*
X167283028Y-74507213D01*
X167427786Y-74651971D01*
X167578279Y-74761308D01*
X167593390Y-74772287D01*
X167681517Y-74817190D01*
X167775776Y-74865218D01*
X167775778Y-74865218D01*
X167775781Y-74865220D01*
X167880137Y-74899127D01*
X167970465Y-74928477D01*
X168034960Y-74938692D01*
X168172648Y-74960500D01*
X168172649Y-74960500D01*
X168377351Y-74960500D01*
X168377352Y-74960500D01*
X168579534Y-74928477D01*
X168774219Y-74865220D01*
X168956610Y-74772287D01*
X169081361Y-74681651D01*
X169122213Y-74651971D01*
X169122215Y-74651968D01*
X169122219Y-74651966D01*
X169266966Y-74507219D01*
X169266968Y-74507215D01*
X169266971Y-74507213D01*
X169323552Y-74429334D01*
X169387287Y-74341610D01*
X169477872Y-74163827D01*
X169480218Y-74159223D01*
X169480218Y-74159222D01*
X169480220Y-74159219D01*
X169542069Y-73968868D01*
X169581507Y-73911193D01*
X169645866Y-73883995D01*
X169714712Y-73895910D01*
X169766188Y-73943154D01*
X169777931Y-73968868D01*
X169839781Y-74159223D01*
X169932715Y-74341613D01*
X170053028Y-74507213D01*
X170197786Y-74651971D01*
X170363385Y-74772284D01*
X170363387Y-74772285D01*
X170363390Y-74772287D01*
X170481796Y-74832617D01*
X170532591Y-74880591D01*
X170549500Y-74943102D01*
X170549500Y-76537638D01*
X170529815Y-76604677D01*
X170513181Y-76625319D01*
X169925319Y-77213181D01*
X169863996Y-77246666D01*
X169837638Y-77249500D01*
X158923900Y-77249500D01*
X158856861Y-77229815D01*
X158811106Y-77177011D01*
X158799900Y-77125500D01*
X158799900Y-76970306D01*
X158799899Y-76970304D01*
X158765296Y-76796341D01*
X158765293Y-76796332D01*
X158697416Y-76632459D01*
X158697409Y-76632446D01*
X158598864Y-76484965D01*
X158598861Y-76484961D01*
X158473437Y-76359537D01*
X158473434Y-76359535D01*
X158325953Y-76260990D01*
X158325940Y-76260983D01*
X158162067Y-76193106D01*
X158162058Y-76193103D01*
X157988094Y-76158500D01*
X157988091Y-76158500D01*
X128134691Y-76158500D01*
X127957308Y-76158500D01*
X127957306Y-76158500D01*
X127783340Y-76193104D01*
X127783332Y-76193106D01*
X127619459Y-76260983D01*
X127619446Y-76260990D01*
X127471966Y-76359534D01*
X127471964Y-76359537D01*
X126300538Y-77530960D01*
X126300537Y-77530961D01*
X126272560Y-77572832D01*
X126272554Y-77572840D01*
X126270468Y-77575964D01*
X126201987Y-77678453D01*
X126183348Y-77723453D01*
X126180128Y-77731225D01*
X126180127Y-77731228D01*
X126134105Y-77842333D01*
X126134103Y-77842341D01*
X126110994Y-77958519D01*
X126110981Y-77958588D01*
X126110800Y-77959500D01*
X126099500Y-78016309D01*
X124003487Y-78016309D01*
X124003487Y-64894000D01*
X124023172Y-64826961D01*
X124075976Y-64781206D01*
X124127487Y-64770000D01*
X214375500Y-64770000D01*
X214442539Y-64789685D01*
G37*
%TD.AperFunction*%
%TD*%
M02*
