%TF.GenerationSoftware,KiCad,Pcbnew,9.0.7*%
%TF.CreationDate,2026-03-17T15:21:45+01:00*%
%TF.ProjectId,SAULink9_TAIT_PLEXER,5341554c-696e-46b3-995f-544149545f50,rev?*%
%TF.SameCoordinates,Original*%
%TF.FileFunction,Paste,Top*%
%TF.FilePolarity,Positive*%
%FSLAX46Y46*%
G04 Gerber Fmt 4.6, Leading zero omitted, Abs format (unit mm)*
G04 Created by KiCad (PCBNEW 9.0.7) date 2026-03-17 15:21:45*
%MOMM*%
%LPD*%
G01*
G04 APERTURE LIST*
G04 Aperture macros list*
%AMRoundRect*
0 Rectangle with rounded corners*
0 $1 Rounding radius*
0 $2 $3 $4 $5 $6 $7 $8 $9 X,Y pos of 4 corners*
0 Add a 4 corners polygon primitive as box body*
4,1,4,$2,$3,$4,$5,$6,$7,$8,$9,$2,$3,0*
0 Add four circle primitives for the rounded corners*
1,1,$1+$1,$2,$3*
1,1,$1+$1,$4,$5*
1,1,$1+$1,$6,$7*
1,1,$1+$1,$8,$9*
0 Add four rect primitives between the rounded corners*
20,1,$1+$1,$2,$3,$4,$5,0*
20,1,$1+$1,$4,$5,$6,$7,0*
20,1,$1+$1,$6,$7,$8,$9,0*
20,1,$1+$1,$8,$9,$2,$3,0*%
G04 Aperture macros list end*
%ADD10RoundRect,0.250000X0.250000X0.475000X-0.250000X0.475000X-0.250000X-0.475000X0.250000X-0.475000X0*%
%ADD11RoundRect,0.150000X-0.650000X-0.150000X0.650000X-0.150000X0.650000X0.150000X-0.650000X0.150000X0*%
%ADD12RoundRect,0.243750X-0.243750X-0.456250X0.243750X-0.456250X0.243750X0.456250X-0.243750X0.456250X0*%
%ADD13RoundRect,0.250000X-0.450000X0.262500X-0.450000X-0.262500X0.450000X-0.262500X0.450000X0.262500X0*%
%ADD14RoundRect,0.250000X0.475000X-0.250000X0.475000X0.250000X-0.475000X0.250000X-0.475000X-0.250000X0*%
%ADD15RoundRect,0.250000X-0.475000X0.250000X-0.475000X-0.250000X0.475000X-0.250000X0.475000X0.250000X0*%
%ADD16RoundRect,0.250000X-0.262500X-0.450000X0.262500X-0.450000X0.262500X0.450000X-0.262500X0.450000X0*%
G04 APERTURE END LIST*
D10*
%TO.C,C3*%
X185420000Y-99695000D03*
X183520000Y-99695000D03*
%TD*%
D11*
%TO.C,U1*%
X149225000Y-87630000D03*
X149225000Y-88900000D03*
X149225000Y-90170000D03*
X149225000Y-91440000D03*
X149225000Y-92710000D03*
X149225000Y-93980000D03*
X149225000Y-95250000D03*
X149225000Y-96520000D03*
X155725000Y-96520000D03*
X155725000Y-95250000D03*
X155725000Y-93980000D03*
X155725000Y-92710000D03*
X155725000Y-91440000D03*
X155725000Y-90170000D03*
X155725000Y-88900000D03*
X155725000Y-87630000D03*
%TD*%
D12*
%TO.C,D1*%
X182910000Y-73660000D03*
X184785000Y-73660000D03*
%TD*%
D13*
%TO.C,R1*%
X162560000Y-96920000D03*
X162560000Y-98745000D03*
%TD*%
D14*
%TO.C,C2*%
X175260000Y-90800000D03*
X175260000Y-88900000D03*
%TD*%
D11*
%TO.C,U2*%
X183515000Y-87630000D03*
X183515000Y-88900000D03*
X183515000Y-90170000D03*
X183515000Y-91440000D03*
X183515000Y-92710000D03*
X183515000Y-93980000D03*
X183515000Y-95250000D03*
X183515000Y-96520000D03*
X190015000Y-96520000D03*
X190015000Y-95250000D03*
X190015000Y-93980000D03*
X190015000Y-92710000D03*
X190015000Y-91440000D03*
X190015000Y-90170000D03*
X190015000Y-88900000D03*
X190015000Y-87630000D03*
%TD*%
D10*
%TO.C,C4*%
X151130000Y-99695000D03*
X149230000Y-99695000D03*
%TD*%
D15*
%TO.C,C1*%
X162560000Y-93030000D03*
X162560000Y-94930000D03*
%TD*%
D16*
%TO.C,R3*%
X179070000Y-73660000D03*
X180895000Y-73660000D03*
%TD*%
D13*
%TO.C,R2*%
X175260000Y-92710000D03*
X175260000Y-94535000D03*
%TD*%
M02*
