M48
; DRILL file {KiCad 9.0.7} date 2026-03-17T15:21:43+0100
; FORMAT={-:-/ absolute / metric / decimal}
; #@! TF.CreationDate,2026-03-17T15:21:43+01:00
; #@! TF.GenerationSoftware,Kicad,Pcbnew,9.0.7
; #@! TF.FileFunction,Plated,1,2,PTH
FMAT,2
METRIC
; #@! TA.AperFunction,Plated,PTH,ViaDrill
T1C0.300
; #@! TA.AperFunction,Plated,PTH,ComponentDrill
T2C1.000
%
G90
G05
T1
X130.175Y-100.584
X147.955Y-80.645
X150.689Y-94.721
X152.489Y-91.529
X153.598Y-94.591
X154.169Y-88.991
X154.305Y-80.645
X155.097Y-99.712
X157.103Y-103.05
X157.899Y-77.059
X157.899Y-88.9
X160.449Y-74.412
X163.195Y-80.645
X164.78Y-94.93
X168.91Y-80.645
X175.895Y-71.12
X177.8Y-86.995
X178.224Y-84.842
X178.524Y-90.17
X179.705Y-92.71
X180.975Y-96.52
X181.356Y-71.755
X184.785Y-70.358
X184.785Y-84.582
X184.916Y-93.111
X186.943Y-91.547
X187.965Y-94.615
X196.215Y-85.725
T2
X130.175Y-82.03
X130.175Y-84.8
X130.175Y-87.57
X130.175Y-90.34
X130.175Y-93.11
X130.175Y-95.88
X130.175Y-98.65
X132.715Y-80.645
X132.715Y-83.415
X132.715Y-86.185
X132.715Y-88.955
X132.715Y-91.725
X132.715Y-94.495
X132.715Y-97.265
X132.715Y-100.035
X162.735Y-73.66
X164.12Y-71.12
X165.505Y-73.66
X166.89Y-71.12
X168.275Y-73.66
X169.66Y-71.12
X171.045Y-73.66
X172.43Y-71.12
X173.815Y-73.66
X205.105Y-79.895
X205.105Y-82.665
X205.105Y-85.435
X205.105Y-88.205
X205.105Y-90.975
X205.105Y-93.745
X205.105Y-96.515
X205.105Y-99.285
X207.645Y-81.28
X207.645Y-84.05
X207.645Y-86.82
X207.645Y-89.59
X207.645Y-92.36
X207.645Y-95.13
X207.645Y-97.9
M30
