%TF.GenerationSoftware,KiCad,Pcbnew,9.0.7*%
%TF.CreationDate,2026-03-17T15:21:45+01:00*%
%TF.ProjectId,SAULink9_TAIT_PLEXER,5341554c-696e-46b3-995f-544149545f50,rev?*%
%TF.SameCoordinates,Original*%
%TF.FileFunction,Copper,L2,Bot*%
%TF.FilePolarity,Positive*%
%FSLAX46Y46*%
G04 Gerber Fmt 4.6, Leading zero omitted, Abs format (unit mm)*
G04 Created by KiCad (PCBNEW 9.0.7) date 2026-03-17 15:21:45*
%MOMM*%
%LPD*%
G01*
G04 APERTURE LIST*
%TA.AperFunction,Conductor*%
%ADD10C,0.200000*%
%TD*%
%TA.AperFunction,ComponentPad*%
%ADD11R,1.600000X1.600000*%
%TD*%
%TA.AperFunction,ComponentPad*%
%ADD12C,1.600000*%
%TD*%
%TA.AperFunction,ViaPad*%
%ADD13C,0.600000*%
%TD*%
%TA.AperFunction,Conductor*%
%ADD14C,0.800000*%
%TD*%
G04 APERTURE END LIST*
D10*
%TO.N,GND*%
X205841600Y-95148400D02*
X203250800Y-95148400D01*
%TD*%
D11*
%TO.P,J2,1,1*%
%TO.N,unconnected-(J2-Pad1)*%
X132715000Y-100035000D03*
D12*
%TO.P,J2,2,2*%
%TO.N,unconnected-(J2-Pad2)*%
X132715000Y-97265000D03*
%TO.P,J2,3,3*%
%TO.N,unconnected-(J2-Pad3)*%
X132715000Y-94495000D03*
%TO.P,J2,4,4*%
%TO.N,unconnected-(J2-Pad4)*%
X132715000Y-91725000D03*
%TO.P,J2,5,5*%
%TO.N,unconnected-(J2-Pad5)*%
X132715000Y-88955000D03*
%TO.P,J2,6,6*%
%TO.N,unconnected-(J2-Pad6)*%
X132715000Y-86185000D03*
%TO.P,J2,7,7*%
%TO.N,Net-(U1-A)*%
X132715000Y-83415000D03*
%TO.P,J2,8,8*%
%TO.N,unconnected-(J2-Pad8)*%
X132715000Y-80645000D03*
%TO.P,J2,9,P9*%
%TO.N,unconnected-(J2-P9-Pad9)*%
X130175000Y-98650000D03*
%TO.P,J2,10,P10*%
%TO.N,unconnected-(J2-P10-Pad10)*%
X130175000Y-95880000D03*
%TO.P,J2,11,P111*%
%TO.N,unconnected-(J2-P111-Pad11)*%
X130175000Y-93110000D03*
%TO.P,J2,12,P12*%
%TO.N,Net-(J2-P12)*%
X130175000Y-90340000D03*
%TO.P,J2,13,P13*%
%TO.N,Net-(J2-P13)*%
X130175000Y-87570000D03*
%TO.P,J2,14,P14*%
%TO.N,unconnected-(J2-P14-Pad14)*%
X130175000Y-84800000D03*
%TO.P,J2,15,P15*%
%TO.N,GND*%
X130175000Y-82030000D03*
%TD*%
D11*
%TO.P,J1,1,1*%
%TO.N,GND*%
X162735000Y-73660000D03*
D12*
%TO.P,J1,2,2*%
%TO.N,Net-(U2-C1)*%
X165505000Y-73660000D03*
%TO.P,J1,3,3*%
%TO.N,unconnected-(J1-Pad3)*%
X168275000Y-73660000D03*
%TO.P,J1,4,4*%
%TO.N,Net-(U1-C1)*%
X171045000Y-73660000D03*
%TO.P,J1,5,5*%
%TO.N,+12V*%
X173815000Y-73660000D03*
%TO.P,J1,6,6*%
%TO.N,Net-(U1-INH)*%
X164120000Y-71120000D03*
%TO.P,J1,7,7*%
%TO.N,Net-(U2-B1)*%
X166890000Y-71120000D03*
%TO.P,J1,8,8*%
%TO.N,Net-(U1-S1)*%
X169660000Y-71120000D03*
%TO.P,J1,9,9*%
%TO.N,Net-(U1-B1)*%
X172430000Y-71120000D03*
%TD*%
D11*
%TO.P,J3,1,1*%
%TO.N,unconnected-(J3-Pad1)*%
X205105000Y-79895000D03*
D12*
%TO.P,J3,2,2*%
%TO.N,Net-(U2-C)*%
X205105000Y-82665000D03*
%TO.P,J3,3,3*%
%TO.N,unconnected-(J3-Pad3)*%
X205105000Y-85435000D03*
%TO.P,J3,4,4*%
%TO.N,unconnected-(J3-Pad4)*%
X205105000Y-88205000D03*
%TO.P,J3,5,5*%
%TO.N,unconnected-(J3-Pad5)*%
X205105000Y-90975000D03*
%TO.P,J3,6,6*%
%TO.N,unconnected-(J3-Pad6)*%
X205105000Y-93745000D03*
%TO.P,J3,7,7*%
%TO.N,Net-(U2-B)*%
X205105000Y-96515000D03*
%TO.P,J3,8,8*%
%TO.N,unconnected-(J3-Pad8)*%
X205105000Y-99285000D03*
%TO.P,J3,9,P9*%
%TO.N,unconnected-(J3-P9-Pad9)*%
X207645000Y-81280000D03*
%TO.P,J3,10,P10*%
%TO.N,unconnected-(J3-P10-Pad10)*%
X207645000Y-84050000D03*
%TO.P,J3,11,P111*%
%TO.N,unconnected-(J3-P111-Pad11)*%
X207645000Y-86820000D03*
%TO.P,J3,12,P12*%
%TO.N,unconnected-(J3-P12-Pad12)*%
X207645000Y-89590000D03*
%TO.P,J3,13,P13*%
%TO.N,Net-(J3-P13)*%
X207645000Y-92360000D03*
%TO.P,J3,14,P14*%
%TO.N,unconnected-(J3-P14-Pad14)*%
X207645000Y-95130000D03*
%TO.P,J3,15,P15*%
%TO.N,GND*%
X207645000Y-97900000D03*
%TD*%
D13*
%TO.N,GND*%
X184785000Y-84582000D03*
%TO.N,Net-(U2-A0)*%
X164780000Y-94930000D03*
X187964900Y-94615000D03*
%TO.N,GND*%
X175895000Y-71120000D03*
X147955000Y-80645000D03*
X181356000Y-71755000D03*
X179705000Y-92710000D03*
X180975000Y-96520000D03*
X163195000Y-80645000D03*
X196215000Y-85725000D03*
X130175000Y-100584000D03*
X154305000Y-80645000D03*
X168910000Y-80645000D03*
X177800000Y-86995000D03*
%TO.N,Net-(U1-INH)*%
X150689100Y-94720600D03*
X184915800Y-93110600D03*
%TO.N,Net-(U1-S1)*%
X157103300Y-103050000D03*
X160448600Y-74412500D03*
X153597625Y-94590875D03*
%TO.N,Net-(U2-B1)*%
X178224300Y-84842000D03*
%TO.N,Net-(U1-A)*%
X152489250Y-91529250D03*
%TO.N,Net-(U2-C1)*%
X178523700Y-90170000D03*
%TO.N,+12V*%
X154168900Y-88991100D03*
X184785000Y-70358000D03*
X155097300Y-99712500D03*
X186942600Y-91547300D03*
%TO.N,Net-(J2-P13)*%
X157899400Y-88900000D03*
X157899400Y-77059000D03*
%TD*%
D14*
%TO.N,Net-(U1-INH)*%
X182880000Y-68580000D02*
X181610000Y-67310000D01*
X165100000Y-67310000D02*
X164120000Y-68290000D01*
X182880000Y-90138700D02*
X182880000Y-68580000D01*
X164120000Y-68290000D02*
X164120000Y-71120000D01*
X181610000Y-67310000D02*
X165100000Y-67310000D01*
X184915800Y-92174500D02*
X182880000Y-90138700D01*
X184915800Y-93110600D02*
X184915800Y-92174500D01*
%TO.N,Net-(U2-A0)*%
X187964900Y-94615000D02*
X187959900Y-94615000D01*
X187959900Y-94615000D02*
X187644900Y-94930000D01*
X187644900Y-94930000D02*
X164780000Y-94930000D01*
%TO.N,Net-(U1-INH)*%
X150689100Y-72195900D02*
X150689100Y-94720600D01*
X164120000Y-71120000D02*
X151765000Y-71120000D01*
X151765000Y-71120000D02*
X150689100Y-72195900D01*
%TO.N,Net-(U1-S1)*%
X153035000Y-102235000D02*
X153850000Y-103050000D01*
X153597625Y-94590875D02*
X153035000Y-95153500D01*
X153035000Y-95153500D02*
X153035000Y-102235000D01*
X159840000Y-103050000D02*
X160448700Y-102441300D01*
X160448700Y-74412500D02*
X160448600Y-74412500D01*
X157103300Y-103050000D02*
X159840000Y-103050000D01*
X160448700Y-102441300D02*
X160448700Y-74412500D01*
X153850000Y-103050000D02*
X157103300Y-103050000D01*
%TO.N,Net-(U2-B1)*%
X177165000Y-68580000D02*
X167640000Y-68580000D01*
X178224300Y-69639300D02*
X177165000Y-68580000D01*
X166890000Y-69330000D02*
X166890000Y-71120000D01*
X178224300Y-84842000D02*
X178224300Y-69639300D01*
X167640000Y-68580000D02*
X166890000Y-69330000D01*
%TO.N,Net-(U1-A)*%
X152089600Y-91928900D02*
X152489250Y-91529250D01*
X136120000Y-83415000D02*
X137160000Y-84455000D01*
X132715000Y-83415000D02*
X136120000Y-83415000D01*
X137160000Y-94615000D02*
X138289300Y-95744300D01*
X138289300Y-95744300D02*
X151118300Y-95744300D01*
X152089600Y-94773000D02*
X152089600Y-91928900D01*
X137160000Y-84455000D02*
X137160000Y-94615000D01*
X151118300Y-95744300D02*
X152089600Y-94773000D01*
%TO.N,Net-(U2-C1)*%
X166370000Y-90170000D02*
X165505000Y-89305000D01*
X178523700Y-90170000D02*
X166370000Y-90170000D01*
X165505000Y-89305000D02*
X165505000Y-73660000D01*
%TO.N,+12V*%
X187325000Y-71501000D02*
X187325000Y-91164900D01*
X186182000Y-70358000D02*
X187325000Y-71501000D01*
X155097300Y-89919500D02*
X155097300Y-99712500D01*
X187325000Y-91164900D02*
X186942600Y-91547300D01*
X184785000Y-70358000D02*
X186182000Y-70358000D01*
X154168900Y-88991100D02*
X155097300Y-89919500D01*
%TO.N,Net-(J2-P13)*%
X130115000Y-87630000D02*
X130175000Y-87570000D01*
X157899400Y-88900000D02*
X157899400Y-77059000D01*
X129540000Y-87630000D02*
X130115000Y-87630000D01*
%TD*%
%TA.AperFunction,Conductor*%
%TO.N,GND*%
G36*
X163196992Y-72040185D02*
G01*
X163217634Y-72056819D01*
X163272782Y-72111967D01*
X163272787Y-72111971D01*
X163305422Y-72135682D01*
X163348088Y-72191012D01*
X163354067Y-72260625D01*
X163321462Y-72322420D01*
X163260623Y-72356777D01*
X163232537Y-72360000D01*
X162985000Y-72360000D01*
X162985000Y-73226988D01*
X162927993Y-73194075D01*
X162800826Y-73160000D01*
X162669174Y-73160000D01*
X162542007Y-73194075D01*
X162485000Y-73226988D01*
X162485000Y-72360000D01*
X161887155Y-72360000D01*
X161827627Y-72366401D01*
X161827620Y-72366403D01*
X161692913Y-72416645D01*
X161692906Y-72416649D01*
X161577812Y-72502809D01*
X161577809Y-72502812D01*
X161491649Y-72617906D01*
X161491645Y-72617913D01*
X161441403Y-72752620D01*
X161441401Y-72752627D01*
X161435000Y-72812155D01*
X161435000Y-73410000D01*
X162301988Y-73410000D01*
X162269075Y-73467007D01*
X162235000Y-73594174D01*
X162235000Y-73725826D01*
X162269075Y-73852993D01*
X162301988Y-73910000D01*
X161435000Y-73910000D01*
X161398681Y-73946319D01*
X161395521Y-73943159D01*
X161362511Y-73971764D01*
X161293353Y-73981708D01*
X161229797Y-73952683D01*
X161207898Y-73927862D01*
X161148161Y-73838461D01*
X161022738Y-73713038D01*
X161022734Y-73713035D01*
X160875253Y-73614490D01*
X160875240Y-73614483D01*
X160711367Y-73546606D01*
X160711358Y-73546603D01*
X160537394Y-73512000D01*
X160537391Y-73512000D01*
X160359909Y-73512000D01*
X160359906Y-73512000D01*
X160185941Y-73546603D01*
X160185932Y-73546606D01*
X160022059Y-73614483D01*
X160022046Y-73614490D01*
X159874565Y-73713035D01*
X159874561Y-73713038D01*
X159749138Y-73838461D01*
X159749135Y-73838465D01*
X159650590Y-73985946D01*
X159650583Y-73985959D01*
X159582706Y-74149832D01*
X159582703Y-74149841D01*
X159548100Y-74323804D01*
X159548100Y-74506273D01*
X159548200Y-74508304D01*
X159548200Y-102016938D01*
X159539555Y-102046378D01*
X159533032Y-102076365D01*
X159529277Y-102081380D01*
X159528515Y-102083977D01*
X159511881Y-102104619D01*
X159503319Y-102113181D01*
X159441996Y-102146666D01*
X159415638Y-102149500D01*
X154274362Y-102149500D01*
X154207323Y-102129815D01*
X154186681Y-102113181D01*
X153971819Y-101898319D01*
X153938334Y-101836996D01*
X153935500Y-101810638D01*
X153935500Y-95577862D01*
X153944144Y-95548421D01*
X153950668Y-95518435D01*
X153954422Y-95513419D01*
X153955185Y-95510823D01*
X153971819Y-95490181D01*
X153985119Y-95476881D01*
X154046442Y-95443396D01*
X154116134Y-95448380D01*
X154172067Y-95490252D01*
X154196484Y-95555716D01*
X154196800Y-95564562D01*
X154196800Y-99801195D01*
X154231403Y-99975158D01*
X154231406Y-99975167D01*
X154299283Y-100139040D01*
X154299290Y-100139053D01*
X154397835Y-100286534D01*
X154397838Y-100286538D01*
X154523261Y-100411961D01*
X154523265Y-100411964D01*
X154670746Y-100510509D01*
X154670759Y-100510516D01*
X154774478Y-100553477D01*
X154834634Y-100578394D01*
X154834636Y-100578394D01*
X154834641Y-100578396D01*
X155008604Y-100612999D01*
X155008607Y-100613000D01*
X155008609Y-100613000D01*
X155185993Y-100613000D01*
X155185994Y-100612999D01*
X155243982Y-100601464D01*
X155359958Y-100578396D01*
X155359961Y-100578394D01*
X155359966Y-100578394D01*
X155523847Y-100510513D01*
X155671335Y-100411964D01*
X155796764Y-100286535D01*
X155895313Y-100139047D01*
X155963194Y-99975166D01*
X155964896Y-99966613D01*
X155997799Y-99801195D01*
X155997800Y-99801193D01*
X155997800Y-89830808D01*
X155997799Y-89830807D01*
X155989846Y-89790821D01*
X155963195Y-89656834D01*
X155895313Y-89492953D01*
X155895312Y-89492952D01*
X155895309Y-89492946D01*
X155796764Y-89345464D01*
X155796761Y-89345460D01*
X154742941Y-88291640D01*
X154742934Y-88291634D01*
X154595448Y-88193088D01*
X154431566Y-88125205D01*
X154431558Y-88125203D01*
X154257596Y-88090600D01*
X154257592Y-88090600D01*
X154080208Y-88090600D01*
X154080203Y-88090600D01*
X153906241Y-88125203D01*
X153906233Y-88125205D01*
X153742351Y-88193088D01*
X153594865Y-88291634D01*
X153594858Y-88291640D01*
X153469440Y-88417058D01*
X153469434Y-88417065D01*
X153370888Y-88564551D01*
X153303005Y-88728433D01*
X153303003Y-88728441D01*
X153268400Y-88902403D01*
X153268400Y-89079796D01*
X153303003Y-89253758D01*
X153303005Y-89253766D01*
X153370888Y-89417648D01*
X153469434Y-89565134D01*
X153469440Y-89565141D01*
X154160481Y-90256181D01*
X154193966Y-90317504D01*
X154196800Y-90343862D01*
X154196800Y-93678788D01*
X154177115Y-93745827D01*
X154124311Y-93791582D01*
X154055153Y-93801526D01*
X154025347Y-93793349D01*
X153860291Y-93724980D01*
X153860283Y-93724978D01*
X153686321Y-93690375D01*
X153686317Y-93690375D01*
X153508933Y-93690375D01*
X153508928Y-93690375D01*
X153334966Y-93724978D01*
X153334958Y-93724980D01*
X153165450Y-93795194D01*
X153164824Y-93793683D01*
X153104151Y-93806316D01*
X153038907Y-93781316D01*
X152997536Y-93725011D01*
X152990100Y-93682716D01*
X152990100Y-92353261D01*
X153009785Y-92286222D01*
X153026414Y-92265584D01*
X153188713Y-92103286D01*
X153287262Y-91955797D01*
X153355144Y-91791916D01*
X153389749Y-91617942D01*
X153389749Y-91440559D01*
X153355144Y-91266584D01*
X153287262Y-91102704D01*
X153287260Y-91102701D01*
X153287258Y-91102697D01*
X153188713Y-90955215D01*
X153188710Y-90955211D01*
X153063288Y-90829789D01*
X153063284Y-90829786D01*
X152915802Y-90731241D01*
X152915792Y-90731236D01*
X152751916Y-90663356D01*
X152751908Y-90663354D01*
X152577945Y-90628751D01*
X152577941Y-90628751D01*
X152400558Y-90628751D01*
X152400553Y-90628751D01*
X152226591Y-90663354D01*
X152226583Y-90663356D01*
X152062705Y-90731236D01*
X152062696Y-90731241D01*
X151915214Y-90829786D01*
X151915210Y-90829789D01*
X151801281Y-90943719D01*
X151739958Y-90977204D01*
X151670266Y-90972220D01*
X151614333Y-90930348D01*
X151589916Y-90864884D01*
X151589600Y-90856038D01*
X151589600Y-76970304D01*
X156998900Y-76970304D01*
X156998900Y-88988695D01*
X157033503Y-89162658D01*
X157033506Y-89162667D01*
X157101383Y-89326540D01*
X157101390Y-89326553D01*
X157199935Y-89474034D01*
X157199938Y-89474038D01*
X157325361Y-89599461D01*
X157325365Y-89599464D01*
X157472846Y-89698009D01*
X157472859Y-89698016D01*
X157595763Y-89748923D01*
X157636734Y-89765894D01*
X157636736Y-89765894D01*
X157636741Y-89765896D01*
X157810704Y-89800499D01*
X157810707Y-89800500D01*
X157810709Y-89800500D01*
X157988093Y-89800500D01*
X157988094Y-89800499D01*
X158046082Y-89788964D01*
X158162058Y-89765896D01*
X158162061Y-89765894D01*
X158162066Y-89765894D01*
X158325947Y-89698013D01*
X158473435Y-89599464D01*
X158598864Y-89474035D01*
X158697413Y-89326547D01*
X158765294Y-89162666D01*
X158799900Y-88988691D01*
X158799900Y-76970309D01*
X158799900Y-76970306D01*
X158799899Y-76970304D01*
X158765296Y-76796341D01*
X158765293Y-76796332D01*
X158697416Y-76632459D01*
X158697409Y-76632446D01*
X158598864Y-76484965D01*
X158598861Y-76484961D01*
X158473438Y-76359538D01*
X158473434Y-76359535D01*
X158325953Y-76260990D01*
X158325940Y-76260983D01*
X158162067Y-76193106D01*
X158162058Y-76193103D01*
X157988094Y-76158500D01*
X157988091Y-76158500D01*
X157810709Y-76158500D01*
X157810706Y-76158500D01*
X157636741Y-76193103D01*
X157636732Y-76193106D01*
X157472859Y-76260983D01*
X157472846Y-76260990D01*
X157325365Y-76359535D01*
X157325361Y-76359538D01*
X157199938Y-76484961D01*
X157199935Y-76484965D01*
X157101390Y-76632446D01*
X157101383Y-76632459D01*
X157033506Y-76796332D01*
X157033503Y-76796341D01*
X156998900Y-76970304D01*
X151589600Y-76970304D01*
X151589600Y-72620261D01*
X151609285Y-72553222D01*
X151625919Y-72532580D01*
X152101680Y-72056819D01*
X152163003Y-72023334D01*
X152189361Y-72020500D01*
X163129953Y-72020500D01*
X163196992Y-72040185D01*
G37*
%TD.AperFunction*%
%TA.AperFunction,Conductor*%
G36*
X214442539Y-64789685D02*
G01*
X214488294Y-64842489D01*
X214499500Y-64894000D01*
X214499500Y-114811000D01*
X214479815Y-114878039D01*
X214427011Y-114923794D01*
X214375500Y-114935000D01*
X123949000Y-114935000D01*
X123881961Y-114915315D01*
X123836206Y-114862511D01*
X123825000Y-114811000D01*
X123825000Y-87541304D01*
X128639500Y-87541304D01*
X128639500Y-87718695D01*
X128674103Y-87892658D01*
X128674106Y-87892667D01*
X128741983Y-88056540D01*
X128741990Y-88056553D01*
X128840535Y-88204034D01*
X128840538Y-88204038D01*
X128965961Y-88329461D01*
X128965965Y-88329464D01*
X129113449Y-88428011D01*
X129113451Y-88428011D01*
X129113453Y-88428013D01*
X129227872Y-88475406D01*
X129268101Y-88502286D01*
X129327786Y-88561971D01*
X129482749Y-88674556D01*
X129493390Y-88682287D01*
X129609607Y-88741503D01*
X129675776Y-88775218D01*
X129675778Y-88775218D01*
X129675781Y-88775220D01*
X129754956Y-88800945D01*
X129866131Y-88837069D01*
X129923806Y-88876507D01*
X129951004Y-88940866D01*
X129939089Y-89009712D01*
X129891845Y-89061188D01*
X129866131Y-89072931D01*
X129675776Y-89134781D01*
X129493386Y-89227715D01*
X129327786Y-89348028D01*
X129183028Y-89492786D01*
X129062715Y-89658386D01*
X128969781Y-89840776D01*
X128906522Y-90035465D01*
X128874500Y-90237648D01*
X128874500Y-90442351D01*
X128906522Y-90644534D01*
X128969781Y-90839223D01*
X129023025Y-90943719D01*
X129040381Y-90977782D01*
X129062715Y-91021613D01*
X129183028Y-91187213D01*
X129327786Y-91331971D01*
X129477241Y-91440554D01*
X129493390Y-91452287D01*
X129609607Y-91511503D01*
X129675776Y-91545218D01*
X129675778Y-91545218D01*
X129675781Y-91545220D01*
X129754956Y-91570945D01*
X129866131Y-91607069D01*
X129923806Y-91646507D01*
X129951004Y-91710866D01*
X129939089Y-91779712D01*
X129891845Y-91831188D01*
X129866131Y-91842931D01*
X129675776Y-91904781D01*
X129493386Y-91997715D01*
X129327786Y-92118028D01*
X129183028Y-92262786D01*
X129062715Y-92428386D01*
X128969781Y-92610776D01*
X128906522Y-92805465D01*
X128874500Y-93007648D01*
X128874500Y-93212351D01*
X128906522Y-93414534D01*
X128969781Y-93609223D01*
X129062715Y-93791613D01*
X129183028Y-93957213D01*
X129327786Y-94101971D01*
X129482749Y-94214556D01*
X129493390Y-94222287D01*
X129603359Y-94278319D01*
X129675776Y-94315218D01*
X129675778Y-94315218D01*
X129675781Y-94315220D01*
X129754956Y-94340945D01*
X129866131Y-94377069D01*
X129923806Y-94416507D01*
X129951004Y-94480866D01*
X129939089Y-94549712D01*
X129891845Y-94601188D01*
X129866131Y-94612931D01*
X129675776Y-94674781D01*
X129493386Y-94767715D01*
X129327786Y-94888028D01*
X129183028Y-95032786D01*
X129062715Y-95198386D01*
X128969781Y-95380776D01*
X128906522Y-95575465D01*
X128876553Y-95764685D01*
X128874500Y-95777648D01*
X128874500Y-95982352D01*
X128878878Y-96009995D01*
X128906522Y-96184534D01*
X128969781Y-96379223D01*
X129011220Y-96460550D01*
X129052882Y-96542316D01*
X129062715Y-96561613D01*
X129183028Y-96727213D01*
X129327786Y-96871971D01*
X129482749Y-96984556D01*
X129493390Y-96992287D01*
X129609607Y-97051503D01*
X129675776Y-97085218D01*
X129675778Y-97085218D01*
X129675781Y-97085220D01*
X129754956Y-97110945D01*
X129866131Y-97147069D01*
X129923806Y-97186507D01*
X129951004Y-97250866D01*
X129939089Y-97319712D01*
X129891845Y-97371188D01*
X129866131Y-97382931D01*
X129675776Y-97444781D01*
X129493386Y-97537715D01*
X129327786Y-97658028D01*
X129183028Y-97802786D01*
X129062715Y-97968386D01*
X128969781Y-98150776D01*
X128906522Y-98345465D01*
X128874500Y-98547648D01*
X128874500Y-98752351D01*
X128906522Y-98954534D01*
X128969781Y-99149223D01*
X129062715Y-99331613D01*
X129183028Y-99497213D01*
X129327786Y-99641971D01*
X129482749Y-99754556D01*
X129493390Y-99762287D01*
X129609607Y-99821503D01*
X129675776Y-99855218D01*
X129675778Y-99855218D01*
X129675781Y-99855220D01*
X129780137Y-99889127D01*
X129870465Y-99918477D01*
X129971557Y-99934488D01*
X130072648Y-99950500D01*
X130072649Y-99950500D01*
X130277351Y-99950500D01*
X130277352Y-99950500D01*
X130479534Y-99918477D01*
X130674219Y-99855220D01*
X130856610Y-99762287D01*
X130949590Y-99694732D01*
X131022213Y-99641971D01*
X131022215Y-99641968D01*
X131022219Y-99641966D01*
X131166966Y-99497219D01*
X131190181Y-99465265D01*
X131245510Y-99422600D01*
X131315123Y-99416619D01*
X131376919Y-99449224D01*
X131411277Y-99510062D01*
X131414500Y-99538150D01*
X131414500Y-100882870D01*
X131414501Y-100882876D01*
X131420908Y-100942483D01*
X131471202Y-101077328D01*
X131471206Y-101077335D01*
X131557452Y-101192544D01*
X131557455Y-101192547D01*
X131672664Y-101278793D01*
X131672671Y-101278797D01*
X131807517Y-101329091D01*
X131807516Y-101329091D01*
X131814444Y-101329835D01*
X131867127Y-101335500D01*
X133562872Y-101335499D01*
X133622483Y-101329091D01*
X133757331Y-101278796D01*
X133872546Y-101192546D01*
X133958796Y-101077331D01*
X134009091Y-100942483D01*
X134015500Y-100882873D01*
X134015499Y-99187128D01*
X134009091Y-99127517D01*
X134000601Y-99104755D01*
X133958797Y-98992671D01*
X133958793Y-98992664D01*
X133872547Y-98877455D01*
X133872544Y-98877452D01*
X133757335Y-98791206D01*
X133757328Y-98791202D01*
X133622482Y-98740908D01*
X133622483Y-98740908D01*
X133562883Y-98734501D01*
X133562881Y-98734500D01*
X133562873Y-98734500D01*
X133562865Y-98734500D01*
X133183753Y-98734500D01*
X133116714Y-98714815D01*
X133070959Y-98662011D01*
X133061015Y-98592853D01*
X133090040Y-98529297D01*
X133145434Y-98492569D01*
X133214219Y-98470220D01*
X133396610Y-98377287D01*
X133502851Y-98300099D01*
X133562213Y-98256971D01*
X133562215Y-98256968D01*
X133562219Y-98256966D01*
X133706966Y-98112219D01*
X133706968Y-98112215D01*
X133706971Y-98112213D01*
X133759732Y-98039590D01*
X133827287Y-97946610D01*
X133920220Y-97764219D01*
X133983477Y-97569534D01*
X134015500Y-97367352D01*
X134015500Y-97162648D01*
X134014892Y-97158812D01*
X133983477Y-96960465D01*
X133920218Y-96765776D01*
X133858576Y-96644799D01*
X133827287Y-96583390D01*
X133811463Y-96561610D01*
X133706971Y-96417786D01*
X133562213Y-96273028D01*
X133396613Y-96152715D01*
X133396612Y-96152714D01*
X133396610Y-96152713D01*
X133336266Y-96121966D01*
X133214223Y-96059781D01*
X133023868Y-95997931D01*
X132966193Y-95958493D01*
X132938995Y-95894134D01*
X132950910Y-95825288D01*
X132998154Y-95773812D01*
X133023868Y-95762069D01*
X133066508Y-95748213D01*
X133214219Y-95700220D01*
X133396610Y-95607287D01*
X133507805Y-95526500D01*
X133562213Y-95486971D01*
X133562215Y-95486968D01*
X133562219Y-95486966D01*
X133706966Y-95342219D01*
X133706968Y-95342215D01*
X133706971Y-95342213D01*
X133762923Y-95265200D01*
X133827287Y-95176610D01*
X133920220Y-94994219D01*
X133983477Y-94799534D01*
X134015500Y-94597352D01*
X134015500Y-94392648D01*
X134014892Y-94388812D01*
X133983477Y-94190465D01*
X133930255Y-94026666D01*
X133920220Y-93995781D01*
X133920218Y-93995778D01*
X133920218Y-93995776D01*
X133879850Y-93916550D01*
X133827287Y-93813390D01*
X133812969Y-93793683D01*
X133706971Y-93647786D01*
X133562213Y-93503028D01*
X133396613Y-93382715D01*
X133396612Y-93382714D01*
X133396610Y-93382713D01*
X133336266Y-93351966D01*
X133214223Y-93289781D01*
X133023868Y-93227931D01*
X132966193Y-93188493D01*
X132938995Y-93124134D01*
X132950910Y-93055288D01*
X132998154Y-93003812D01*
X133023868Y-92992069D01*
X133066508Y-92978213D01*
X133214219Y-92930220D01*
X133396610Y-92837287D01*
X133489590Y-92769732D01*
X133562213Y-92716971D01*
X133562215Y-92716968D01*
X133562219Y-92716966D01*
X133706966Y-92572219D01*
X133706968Y-92572215D01*
X133706971Y-92572213D01*
X133759732Y-92499590D01*
X133827287Y-92406610D01*
X133920220Y-92224219D01*
X133983477Y-92029534D01*
X134015500Y-91827352D01*
X134015500Y-91622648D01*
X134014755Y-91617942D01*
X133983477Y-91420465D01*
X133939345Y-91284641D01*
X133920220Y-91225781D01*
X133920218Y-91225778D01*
X133920218Y-91225776D01*
X133866704Y-91120751D01*
X133827287Y-91043390D01*
X133787868Y-90989134D01*
X133706971Y-90877786D01*
X133562213Y-90733028D01*
X133396613Y-90612715D01*
X133396612Y-90612714D01*
X133396610Y-90612713D01*
X133303453Y-90565247D01*
X133214223Y-90519781D01*
X133023868Y-90457931D01*
X132966193Y-90418493D01*
X132938995Y-90354134D01*
X132950910Y-90285288D01*
X132998154Y-90233812D01*
X133023868Y-90222069D01*
X133066508Y-90208213D01*
X133214219Y-90160220D01*
X133396610Y-90067287D01*
X133489590Y-89999732D01*
X133562213Y-89946971D01*
X133562215Y-89946968D01*
X133562219Y-89946966D01*
X133706966Y-89802219D01*
X133706968Y-89802215D01*
X133706971Y-89802213D01*
X133770815Y-89714338D01*
X133827287Y-89636610D01*
X133920220Y-89454219D01*
X133983477Y-89259534D01*
X134015500Y-89057352D01*
X134015500Y-88852648D01*
X134014892Y-88848812D01*
X133983477Y-88650465D01*
X133929663Y-88484845D01*
X133920220Y-88455781D01*
X133920218Y-88455778D01*
X133920218Y-88455776D01*
X133855858Y-88329464D01*
X133827287Y-88273390D01*
X133787868Y-88219134D01*
X133706971Y-88107786D01*
X133562213Y-87963028D01*
X133396613Y-87842715D01*
X133396612Y-87842714D01*
X133396610Y-87842713D01*
X133336266Y-87811966D01*
X133214223Y-87749781D01*
X133023868Y-87687931D01*
X132966193Y-87648493D01*
X132938995Y-87584134D01*
X132950910Y-87515288D01*
X132998154Y-87463812D01*
X133023868Y-87452069D01*
X133066508Y-87438213D01*
X133214219Y-87390220D01*
X133396610Y-87297287D01*
X133489590Y-87229732D01*
X133562213Y-87176971D01*
X133562215Y-87176968D01*
X133562219Y-87176966D01*
X133706966Y-87032219D01*
X133706968Y-87032215D01*
X133706971Y-87032213D01*
X133759732Y-86959590D01*
X133827287Y-86866610D01*
X133920220Y-86684219D01*
X133983477Y-86489534D01*
X134015500Y-86287352D01*
X134015500Y-86082648D01*
X134014892Y-86078812D01*
X133983477Y-85880465D01*
X133937685Y-85739534D01*
X133920220Y-85685781D01*
X133920218Y-85685778D01*
X133920218Y-85685776D01*
X133852529Y-85552931D01*
X133827287Y-85503390D01*
X133787868Y-85449134D01*
X133706971Y-85337786D01*
X133562213Y-85193028D01*
X133396613Y-85072715D01*
X133396612Y-85072714D01*
X133396610Y-85072713D01*
X133336266Y-85041966D01*
X133214223Y-84979781D01*
X133023868Y-84917931D01*
X132966193Y-84878493D01*
X132938995Y-84814134D01*
X132950910Y-84745288D01*
X132998154Y-84693812D01*
X133023868Y-84682069D01*
X133066508Y-84668213D01*
X133214219Y-84620220D01*
X133396610Y-84527287D01*
X133489590Y-84459732D01*
X133562213Y-84406971D01*
X133562215Y-84406968D01*
X133562219Y-84406966D01*
X133617366Y-84351819D01*
X133678689Y-84318334D01*
X133705047Y-84315500D01*
X135695638Y-84315500D01*
X135762677Y-84335185D01*
X135783319Y-84351819D01*
X136223181Y-84791681D01*
X136256666Y-84853004D01*
X136259500Y-84879362D01*
X136259500Y-94703696D01*
X136294103Y-94877658D01*
X136294105Y-94877666D01*
X136323368Y-94948314D01*
X136323370Y-94948318D01*
X136325764Y-94954097D01*
X136361987Y-95041547D01*
X136417942Y-95125289D01*
X136421232Y-95130213D01*
X136421237Y-95130222D01*
X136460532Y-95189031D01*
X136460538Y-95189039D01*
X137589836Y-96318335D01*
X137668832Y-96397331D01*
X137715266Y-96443765D01*
X137862746Y-96542309D01*
X137862759Y-96542316D01*
X137985663Y-96593223D01*
X138026634Y-96610194D01*
X138062614Y-96617351D01*
X138200605Y-96644800D01*
X138200608Y-96644800D01*
X151206993Y-96644800D01*
X151206994Y-96644799D01*
X151380966Y-96610195D01*
X151462906Y-96576253D01*
X151544847Y-96542313D01*
X151633259Y-96483236D01*
X151692336Y-96443764D01*
X151922820Y-96213279D01*
X151984142Y-96179795D01*
X152053833Y-96184779D01*
X152109767Y-96226650D01*
X152134184Y-96292115D01*
X152134500Y-96300961D01*
X152134500Y-102323696D01*
X152169103Y-102497658D01*
X152169105Y-102497666D01*
X152200526Y-102573524D01*
X152200529Y-102573529D01*
X152203046Y-102579606D01*
X152236987Y-102661547D01*
X152296063Y-102749959D01*
X152299169Y-102754607D01*
X152299172Y-102754613D01*
X152335534Y-102809034D01*
X153275966Y-103749466D01*
X153310326Y-103772423D01*
X153335040Y-103788936D01*
X153423453Y-103848013D01*
X153505393Y-103881953D01*
X153511480Y-103884474D01*
X153511485Y-103884477D01*
X153547940Y-103899577D01*
X153587334Y-103915895D01*
X153761303Y-103950499D01*
X153761307Y-103950500D01*
X153761308Y-103950500D01*
X159928693Y-103950500D01*
X159928694Y-103950499D01*
X160102666Y-103915895D01*
X160184606Y-103881953D01*
X160266547Y-103848013D01*
X160354959Y-103788936D01*
X160414036Y-103749464D01*
X161148164Y-103015336D01*
X161202201Y-102934464D01*
X161246713Y-102867847D01*
X161271073Y-102809036D01*
X161314595Y-102703966D01*
X161349200Y-102529992D01*
X161349200Y-102352608D01*
X161349200Y-74884360D01*
X161368885Y-74817321D01*
X161421689Y-74771566D01*
X161490847Y-74761622D01*
X161554403Y-74790647D01*
X161572468Y-74810050D01*
X161577814Y-74817191D01*
X161692906Y-74903350D01*
X161692913Y-74903354D01*
X161827620Y-74953596D01*
X161827627Y-74953598D01*
X161887155Y-74959999D01*
X161887172Y-74960000D01*
X162485000Y-74960000D01*
X162485000Y-74093012D01*
X162542007Y-74125925D01*
X162669174Y-74160000D01*
X162800826Y-74160000D01*
X162927993Y-74125925D01*
X162985000Y-74093012D01*
X162985000Y-74960000D01*
X163582828Y-74960000D01*
X163582844Y-74959999D01*
X163642372Y-74953598D01*
X163642379Y-74953596D01*
X163777086Y-74903354D01*
X163777093Y-74903350D01*
X163892187Y-74817190D01*
X163892190Y-74817187D01*
X163978350Y-74702093D01*
X163978354Y-74702086D01*
X164028596Y-74567379D01*
X164028598Y-74567372D01*
X164034999Y-74507844D01*
X164035000Y-74507827D01*
X164035000Y-74127215D01*
X164054685Y-74060176D01*
X164107489Y-74014421D01*
X164176647Y-74004477D01*
X164240203Y-74033502D01*
X164276931Y-74088896D01*
X164299781Y-74159223D01*
X164363691Y-74284653D01*
X164383640Y-74323804D01*
X164392715Y-74341613D01*
X164513028Y-74507213D01*
X164568181Y-74562366D01*
X164601666Y-74623689D01*
X164604500Y-74650047D01*
X164604500Y-89393696D01*
X164639103Y-89567658D01*
X164639106Y-89567670D01*
X164659375Y-89616602D01*
X164706985Y-89731544D01*
X164706990Y-89731552D01*
X164753060Y-89800500D01*
X164753060Y-89800501D01*
X164805532Y-89879031D01*
X164805538Y-89879039D01*
X165670536Y-90744035D01*
X165734077Y-90807576D01*
X165795966Y-90869465D01*
X165943449Y-90968011D01*
X165943453Y-90968013D01*
X165967035Y-90977780D01*
X165967037Y-90977782D01*
X165967038Y-90977782D01*
X166107334Y-91035895D01*
X166281303Y-91070499D01*
X166281307Y-91070500D01*
X166281308Y-91070500D01*
X178612393Y-91070500D01*
X178612394Y-91070499D01*
X178670382Y-91058964D01*
X178786358Y-91035896D01*
X178786361Y-91035894D01*
X178786366Y-91035894D01*
X178928058Y-90977204D01*
X178950240Y-90968016D01*
X178950240Y-90968015D01*
X178950247Y-90968013D01*
X179097735Y-90869464D01*
X179223164Y-90744035D01*
X179321713Y-90596547D01*
X179389594Y-90432666D01*
X179391219Y-90424500D01*
X179418909Y-90285288D01*
X179424200Y-90258691D01*
X179424200Y-90081309D01*
X179424200Y-90081306D01*
X179424199Y-90081304D01*
X179389596Y-89907341D01*
X179389593Y-89907332D01*
X179321716Y-89743459D01*
X179321709Y-89743446D01*
X179223164Y-89595965D01*
X179223161Y-89595961D01*
X179097738Y-89470538D01*
X179097734Y-89470535D01*
X178950253Y-89371990D01*
X178950240Y-89371983D01*
X178786367Y-89304106D01*
X178786358Y-89304103D01*
X178612394Y-89269500D01*
X178612391Y-89269500D01*
X166794361Y-89269500D01*
X166727322Y-89249815D01*
X166706680Y-89233181D01*
X166441819Y-88968319D01*
X166408334Y-88906996D01*
X166405500Y-88880638D01*
X166405500Y-74650047D01*
X166425185Y-74583008D01*
X166441819Y-74562366D01*
X166496966Y-74507219D01*
X166496968Y-74507215D01*
X166496971Y-74507213D01*
X166549732Y-74434590D01*
X166617287Y-74341610D01*
X166710220Y-74159219D01*
X166772069Y-73968868D01*
X166811507Y-73911193D01*
X166875866Y-73883995D01*
X166944712Y-73895910D01*
X166996188Y-73943154D01*
X167007931Y-73968868D01*
X167069781Y-74159223D01*
X167133691Y-74284653D01*
X167153640Y-74323804D01*
X167162715Y-74341613D01*
X167283028Y-74507213D01*
X167427786Y-74651971D01*
X167578711Y-74761622D01*
X167593390Y-74772287D01*
X167709607Y-74831503D01*
X167775776Y-74865218D01*
X167775778Y-74865218D01*
X167775781Y-74865220D01*
X167834688Y-74884360D01*
X167970465Y-74928477D01*
X168071557Y-74944488D01*
X168172648Y-74960500D01*
X168172649Y-74960500D01*
X168377351Y-74960500D01*
X168377352Y-74960500D01*
X168579534Y-74928477D01*
X168774219Y-74865220D01*
X168956610Y-74772287D01*
X169053234Y-74702086D01*
X169122213Y-74651971D01*
X169122215Y-74651968D01*
X169122219Y-74651966D01*
X169266966Y-74507219D01*
X169266968Y-74507215D01*
X169266971Y-74507213D01*
X169319732Y-74434590D01*
X169387287Y-74341610D01*
X169480220Y-74159219D01*
X169542069Y-73968868D01*
X169581507Y-73911193D01*
X169645866Y-73883995D01*
X169714712Y-73895910D01*
X169766188Y-73943154D01*
X169777931Y-73968868D01*
X169839781Y-74159223D01*
X169903691Y-74284653D01*
X169923640Y-74323804D01*
X169932715Y-74341613D01*
X170053028Y-74507213D01*
X170197786Y-74651971D01*
X170348711Y-74761622D01*
X170363390Y-74772287D01*
X170479607Y-74831503D01*
X170545776Y-74865218D01*
X170545778Y-74865218D01*
X170545781Y-74865220D01*
X170604688Y-74884360D01*
X170740465Y-74928477D01*
X170841557Y-74944488D01*
X170942648Y-74960500D01*
X170942649Y-74960500D01*
X171147351Y-74960500D01*
X171147352Y-74960500D01*
X171349534Y-74928477D01*
X171544219Y-74865220D01*
X171726610Y-74772287D01*
X171823234Y-74702086D01*
X171892213Y-74651971D01*
X171892215Y-74651968D01*
X171892219Y-74651966D01*
X172036966Y-74507219D01*
X172036968Y-74507215D01*
X172036971Y-74507213D01*
X172089732Y-74434590D01*
X172157287Y-74341610D01*
X172250220Y-74159219D01*
X172312069Y-73968868D01*
X172351507Y-73911193D01*
X172415866Y-73883995D01*
X172484712Y-73895910D01*
X172536188Y-73943154D01*
X172547931Y-73968868D01*
X172609781Y-74159223D01*
X172673691Y-74284653D01*
X172693640Y-74323804D01*
X172702715Y-74341613D01*
X172823028Y-74507213D01*
X172967786Y-74651971D01*
X173118711Y-74761622D01*
X173133390Y-74772287D01*
X173249607Y-74831503D01*
X173315776Y-74865218D01*
X173315778Y-74865218D01*
X173315781Y-74865220D01*
X173374688Y-74884360D01*
X173510465Y-74928477D01*
X173611557Y-74944488D01*
X173712648Y-74960500D01*
X173712649Y-74960500D01*
X173917351Y-74960500D01*
X173917352Y-74960500D01*
X174119534Y-74928477D01*
X174314219Y-74865220D01*
X174496610Y-74772287D01*
X174593234Y-74702086D01*
X174662213Y-74651971D01*
X174662215Y-74651968D01*
X174662219Y-74651966D01*
X174806966Y-74507219D01*
X174806968Y-74507215D01*
X174806971Y-74507213D01*
X174859732Y-74434590D01*
X174927287Y-74341610D01*
X175020220Y-74159219D01*
X175083477Y-73964534D01*
X175115500Y-73762352D01*
X175115500Y-73557648D01*
X175094346Y-73424089D01*
X175083477Y-73355465D01*
X175020218Y-73160776D01*
X174986503Y-73094607D01*
X174927287Y-72978390D01*
X174919556Y-72967749D01*
X174806971Y-72812786D01*
X174662213Y-72668028D01*
X174496613Y-72547715D01*
X174496612Y-72547714D01*
X174496610Y-72547713D01*
X174408487Y-72502812D01*
X174314223Y-72454781D01*
X174119534Y-72391522D01*
X173944995Y-72363878D01*
X173917352Y-72359500D01*
X173712648Y-72359500D01*
X173688329Y-72363351D01*
X173510465Y-72391522D01*
X173315776Y-72454781D01*
X173133386Y-72547715D01*
X172967786Y-72668028D01*
X172823028Y-72812786D01*
X172702715Y-72978386D01*
X172609781Y-73160776D01*
X172547931Y-73351131D01*
X172508493Y-73408806D01*
X172444134Y-73436004D01*
X172375288Y-73424089D01*
X172323812Y-73376845D01*
X172312069Y-73351131D01*
X172250218Y-73160776D01*
X172216503Y-73094607D01*
X172157287Y-72978390D01*
X172149556Y-72967749D01*
X172036971Y-72812786D01*
X171892213Y-72668028D01*
X171726613Y-72547715D01*
X171726612Y-72547714D01*
X171726610Y-72547713D01*
X171638487Y-72502812D01*
X171544223Y-72454781D01*
X171349534Y-72391522D01*
X171174995Y-72363878D01*
X171147352Y-72359500D01*
X170942648Y-72359500D01*
X170918329Y-72363351D01*
X170740465Y-72391522D01*
X170545776Y-72454781D01*
X170363386Y-72547715D01*
X170197786Y-72668028D01*
X170053028Y-72812786D01*
X169932715Y-72978386D01*
X169839781Y-73160776D01*
X169777931Y-73351131D01*
X169738493Y-73408806D01*
X169674134Y-73436004D01*
X169605288Y-73424089D01*
X169553812Y-73376845D01*
X169542069Y-73351131D01*
X169480218Y-73160776D01*
X169446503Y-73094607D01*
X169387287Y-72978390D01*
X169379556Y-72967749D01*
X169266971Y-72812786D01*
X169122213Y-72668028D01*
X168956613Y-72547715D01*
X168956612Y-72547714D01*
X168956610Y-72547713D01*
X168868487Y-72502812D01*
X168774223Y-72454781D01*
X168579534Y-72391522D01*
X168404995Y-72363878D01*
X168377352Y-72359500D01*
X168172648Y-72359500D01*
X168148329Y-72363351D01*
X167970465Y-72391522D01*
X167775776Y-72454781D01*
X167593386Y-72547715D01*
X167427786Y-72668028D01*
X167283028Y-72812786D01*
X167162715Y-72978386D01*
X167069781Y-73160776D01*
X167007931Y-73351131D01*
X166968493Y-73408806D01*
X166904134Y-73436004D01*
X166835288Y-73424089D01*
X166783812Y-73376845D01*
X166772069Y-73351131D01*
X166710218Y-73160776D01*
X166676503Y-73094607D01*
X166617287Y-72978390D01*
X166609556Y-72967749D01*
X166496971Y-72812786D01*
X166352213Y-72668028D01*
X166186613Y-72547715D01*
X166186612Y-72547714D01*
X166186610Y-72547713D01*
X166098487Y-72502812D01*
X166004223Y-72454781D01*
X165809534Y-72391522D01*
X165634995Y-72363878D01*
X165607352Y-72359500D01*
X165402648Y-72359500D01*
X165378329Y-72363351D01*
X165200465Y-72391522D01*
X165005776Y-72454781D01*
X164823386Y-72547715D01*
X164657786Y-72668028D01*
X164513028Y-72812786D01*
X164392715Y-72978386D01*
X164299781Y-73160776D01*
X164276931Y-73231103D01*
X164237493Y-73288778D01*
X164173134Y-73315976D01*
X164104288Y-73304061D01*
X164052812Y-73256816D01*
X164035000Y-73192784D01*
X164035000Y-72812172D01*
X164034999Y-72812155D01*
X164028598Y-72752627D01*
X164028596Y-72752620D01*
X163978354Y-72617913D01*
X163974103Y-72610128D01*
X163975502Y-72609363D01*
X163954610Y-72553343D01*
X163969463Y-72485070D01*
X164018870Y-72435666D01*
X164078294Y-72420500D01*
X164222351Y-72420500D01*
X164222352Y-72420500D01*
X164424534Y-72388477D01*
X164619219Y-72325220D01*
X164801610Y-72232287D01*
X164894590Y-72164732D01*
X164967213Y-72111971D01*
X164967215Y-72111968D01*
X164967219Y-72111966D01*
X165111966Y-71967219D01*
X165111968Y-71967215D01*
X165111971Y-71967213D01*
X165206080Y-71837681D01*
X165232287Y-71801610D01*
X165325220Y-71619219D01*
X165387069Y-71428868D01*
X165426507Y-71371193D01*
X165490866Y-71343995D01*
X165559712Y-71355910D01*
X165611188Y-71403154D01*
X165622931Y-71428868D01*
X165684781Y-71619223D01*
X165777715Y-71801613D01*
X165898028Y-71967213D01*
X166042786Y-72111971D01*
X166151579Y-72191012D01*
X166208390Y-72232287D01*
X166324607Y-72291503D01*
X166390776Y-72325218D01*
X166390778Y-72325218D01*
X166390781Y-72325220D01*
X166495137Y-72359127D01*
X166585465Y-72388477D01*
X166604697Y-72391523D01*
X166787648Y-72420500D01*
X166787649Y-72420500D01*
X166992351Y-72420500D01*
X166992352Y-72420500D01*
X167194534Y-72388477D01*
X167389219Y-72325220D01*
X167571610Y-72232287D01*
X167664590Y-72164732D01*
X167737213Y-72111971D01*
X167737215Y-72111968D01*
X167737219Y-72111966D01*
X167881966Y-71967219D01*
X167881968Y-71967215D01*
X167881971Y-71967213D01*
X167976080Y-71837681D01*
X168002287Y-71801610D01*
X168095220Y-71619219D01*
X168157069Y-71428868D01*
X168196507Y-71371193D01*
X168260866Y-71343995D01*
X168329712Y-71355910D01*
X168381188Y-71403154D01*
X168392931Y-71428868D01*
X168454781Y-71619223D01*
X168547715Y-71801613D01*
X168668028Y-71967213D01*
X168812786Y-72111971D01*
X168921579Y-72191012D01*
X168978390Y-72232287D01*
X169094607Y-72291503D01*
X169160776Y-72325218D01*
X169160778Y-72325218D01*
X169160781Y-72325220D01*
X169265137Y-72359127D01*
X169355465Y-72388477D01*
X169374697Y-72391523D01*
X169557648Y-72420500D01*
X169557649Y-72420500D01*
X169762351Y-72420500D01*
X169762352Y-72420500D01*
X169964534Y-72388477D01*
X170159219Y-72325220D01*
X170341610Y-72232287D01*
X170434590Y-72164732D01*
X170507213Y-72111971D01*
X170507215Y-72111968D01*
X170507219Y-72111966D01*
X170651966Y-71967219D01*
X170651968Y-71967215D01*
X170651971Y-71967213D01*
X170746080Y-71837681D01*
X170772287Y-71801610D01*
X170865220Y-71619219D01*
X170927069Y-71428868D01*
X170966507Y-71371193D01*
X171030866Y-71343995D01*
X171099712Y-71355910D01*
X171151188Y-71403154D01*
X171162931Y-71428868D01*
X171224781Y-71619223D01*
X171317715Y-71801613D01*
X171438028Y-71967213D01*
X171582786Y-72111971D01*
X171691579Y-72191012D01*
X171748390Y-72232287D01*
X171864607Y-72291503D01*
X171930776Y-72325218D01*
X171930778Y-72325218D01*
X171930781Y-72325220D01*
X172035137Y-72359127D01*
X172125465Y-72388477D01*
X172144697Y-72391523D01*
X172327648Y-72420500D01*
X172327649Y-72420500D01*
X172532351Y-72420500D01*
X172532352Y-72420500D01*
X172734534Y-72388477D01*
X172929219Y-72325220D01*
X173111610Y-72232287D01*
X173204590Y-72164732D01*
X173277213Y-72111971D01*
X173277215Y-72111968D01*
X173277219Y-72111966D01*
X173421966Y-71967219D01*
X173421968Y-71967215D01*
X173421971Y-71967213D01*
X173516080Y-71837681D01*
X173542287Y-71801610D01*
X173635220Y-71619219D01*
X173698477Y-71424534D01*
X173730500Y-71222352D01*
X173730500Y-71017648D01*
X173723791Y-70975290D01*
X173698477Y-70815465D01*
X173635218Y-70620776D01*
X173601503Y-70554607D01*
X173542287Y-70438390D01*
X173529314Y-70420534D01*
X173421971Y-70272786D01*
X173277213Y-70128028D01*
X173111613Y-70007715D01*
X173111612Y-70007714D01*
X173111610Y-70007713D01*
X173049331Y-69975980D01*
X172929223Y-69914781D01*
X172734534Y-69851522D01*
X172559995Y-69823878D01*
X172532352Y-69819500D01*
X172327648Y-69819500D01*
X172303329Y-69823351D01*
X172125465Y-69851522D01*
X171930776Y-69914781D01*
X171748386Y-70007715D01*
X171582786Y-70128028D01*
X171438028Y-70272786D01*
X171317715Y-70438386D01*
X171224781Y-70620776D01*
X171162931Y-70811131D01*
X171123493Y-70868806D01*
X171059134Y-70896004D01*
X170990288Y-70884089D01*
X170938812Y-70836845D01*
X170927069Y-70811131D01*
X170865218Y-70620776D01*
X170831503Y-70554607D01*
X170772287Y-70438390D01*
X170759314Y-70420534D01*
X170651971Y-70272786D01*
X170507213Y-70128028D01*
X170341613Y-70007715D01*
X170341612Y-70007714D01*
X170341610Y-70007713D01*
X170279331Y-69975980D01*
X170159223Y-69914781D01*
X169964534Y-69851522D01*
X169789995Y-69823878D01*
X169762352Y-69819500D01*
X169557648Y-69819500D01*
X169533329Y-69823351D01*
X169355465Y-69851522D01*
X169160776Y-69914781D01*
X168978386Y-70007715D01*
X168812786Y-70128028D01*
X168668028Y-70272786D01*
X168547715Y-70438386D01*
X168454781Y-70620776D01*
X168392931Y-70811131D01*
X168353493Y-70868806D01*
X168289134Y-70896004D01*
X168220288Y-70884089D01*
X168168812Y-70836845D01*
X168157069Y-70811131D01*
X168095218Y-70620776D01*
X168061503Y-70554607D01*
X168002287Y-70438390D01*
X167989314Y-70420534D01*
X167881971Y-70272786D01*
X167826819Y-70217634D01*
X167793334Y-70156311D01*
X167790500Y-70129953D01*
X167790500Y-69754362D01*
X167810185Y-69687323D01*
X167826819Y-69666681D01*
X167976681Y-69516819D01*
X168038004Y-69483334D01*
X168064362Y-69480500D01*
X176740638Y-69480500D01*
X176807677Y-69500185D01*
X176828319Y-69516819D01*
X177287481Y-69975980D01*
X177320966Y-70037303D01*
X177323800Y-70063661D01*
X177323800Y-84930695D01*
X177358403Y-85104658D01*
X177358406Y-85104667D01*
X177426283Y-85268540D01*
X177426290Y-85268553D01*
X177524835Y-85416034D01*
X177524838Y-85416038D01*
X177650261Y-85541461D01*
X177650265Y-85541464D01*
X177797746Y-85640009D01*
X177797759Y-85640016D01*
X177908236Y-85685776D01*
X177961634Y-85707894D01*
X177961636Y-85707894D01*
X177961641Y-85707896D01*
X178135604Y-85742499D01*
X178135607Y-85742500D01*
X178135609Y-85742500D01*
X178312993Y-85742500D01*
X178312994Y-85742499D01*
X178370982Y-85730964D01*
X178486958Y-85707896D01*
X178486961Y-85707894D01*
X178486966Y-85707894D01*
X178633450Y-85647219D01*
X178650840Y-85640016D01*
X178650840Y-85640015D01*
X178650847Y-85640013D01*
X178798335Y-85541464D01*
X178923764Y-85416035D01*
X179022313Y-85268547D01*
X179090194Y-85104666D01*
X179090221Y-85104534D01*
X179115035Y-84979781D01*
X179124800Y-84930691D01*
X179124800Y-69550609D01*
X179124800Y-69550606D01*
X179124799Y-69550604D01*
X179090196Y-69376641D01*
X179090193Y-69376632D01*
X179022316Y-69212759D01*
X179022309Y-69212746D01*
X178923765Y-69065266D01*
X178862861Y-69004362D01*
X178798335Y-68939836D01*
X178572860Y-68714361D01*
X178280681Y-68422181D01*
X178247196Y-68360858D01*
X178252180Y-68291166D01*
X178294052Y-68235233D01*
X178359516Y-68210816D01*
X178368362Y-68210500D01*
X181185638Y-68210500D01*
X181252677Y-68230185D01*
X181273319Y-68246819D01*
X181943181Y-68916681D01*
X181976666Y-68978004D01*
X181979500Y-69004362D01*
X181979500Y-90227396D01*
X182014103Y-90401359D01*
X182014105Y-90401366D01*
X182040645Y-90465437D01*
X182081987Y-90565247D01*
X182126480Y-90631835D01*
X182130310Y-90637567D01*
X182180537Y-90712738D01*
X182180538Y-90712739D01*
X183978981Y-92511181D01*
X184012466Y-92572504D01*
X184015300Y-92598862D01*
X184015300Y-93199295D01*
X184049903Y-93373258D01*
X184049906Y-93373267D01*
X184117783Y-93537140D01*
X184117790Y-93537153D01*
X184216335Y-93684634D01*
X184216338Y-93684638D01*
X184346072Y-93814372D01*
X184345122Y-93815321D01*
X184380591Y-93867395D01*
X184382460Y-93937240D01*
X184346272Y-93997007D01*
X184283515Y-94027722D01*
X184262591Y-94029500D01*
X164691306Y-94029500D01*
X164517341Y-94064103D01*
X164517332Y-94064106D01*
X164353459Y-94131983D01*
X164353446Y-94131990D01*
X164205965Y-94230535D01*
X164205961Y-94230538D01*
X164080538Y-94355961D01*
X164080535Y-94355965D01*
X163981990Y-94503446D01*
X163981983Y-94503459D01*
X163914106Y-94667332D01*
X163914103Y-94667341D01*
X163879500Y-94841304D01*
X163879500Y-95018695D01*
X163914103Y-95192658D01*
X163914106Y-95192667D01*
X163981983Y-95356540D01*
X163981990Y-95356553D01*
X164080535Y-95504034D01*
X164080538Y-95504038D01*
X164205961Y-95629461D01*
X164205965Y-95629464D01*
X164353446Y-95728009D01*
X164353459Y-95728016D01*
X164441988Y-95764685D01*
X164517334Y-95795894D01*
X164517336Y-95795894D01*
X164517341Y-95795896D01*
X164691304Y-95830499D01*
X164691307Y-95830500D01*
X164691309Y-95830500D01*
X187733593Y-95830500D01*
X187733594Y-95830499D01*
X187907566Y-95795895D01*
X187989506Y-95761953D01*
X188071447Y-95728013D01*
X188179808Y-95655608D01*
X188218936Y-95629464D01*
X188515234Y-95333163D01*
X188534026Y-95317743D01*
X188538935Y-95314464D01*
X188664364Y-95189035D01*
X188762913Y-95041547D01*
X188830794Y-94877666D01*
X188834849Y-94857284D01*
X188865399Y-94703695D01*
X188865400Y-94703693D01*
X188865400Y-94526306D01*
X188865399Y-94526304D01*
X188830796Y-94352341D01*
X188830793Y-94352332D01*
X188762916Y-94188459D01*
X188762909Y-94188446D01*
X188664364Y-94040965D01*
X188664361Y-94040961D01*
X188538938Y-93915538D01*
X188538934Y-93915535D01*
X188391453Y-93816990D01*
X188391440Y-93816983D01*
X188227567Y-93749106D01*
X188227558Y-93749103D01*
X188053594Y-93714500D01*
X188053591Y-93714500D01*
X188048592Y-93714500D01*
X187871208Y-93714500D01*
X187871206Y-93714500D01*
X187818532Y-93724978D01*
X187781275Y-93732389D01*
X187697241Y-93749103D01*
X187697232Y-93749106D01*
X187533359Y-93816983D01*
X187533346Y-93816990D01*
X187398484Y-93907102D01*
X187398485Y-93907103D01*
X187385868Y-93915533D01*
X187385861Y-93915539D01*
X187308220Y-93993181D01*
X187246897Y-94026666D01*
X187220539Y-94029500D01*
X185569009Y-94029500D01*
X185501970Y-94009815D01*
X185456215Y-93957011D01*
X185446271Y-93887853D01*
X185475296Y-93824297D01*
X185486931Y-93812968D01*
X185615261Y-93684638D01*
X185615264Y-93684635D01*
X185713813Y-93537147D01*
X185781694Y-93373266D01*
X185816300Y-93199291D01*
X185816300Y-92085809D01*
X185816300Y-92085808D01*
X185781695Y-91911834D01*
X185746700Y-91827351D01*
X185742426Y-91817032D01*
X185742425Y-91817031D01*
X185739306Y-91809500D01*
X185713813Y-91747953D01*
X185632421Y-91626142D01*
X185630181Y-91622789D01*
X185615266Y-91600466D01*
X183816819Y-89802019D01*
X183783334Y-89740696D01*
X183780500Y-89714338D01*
X183780500Y-70884291D01*
X183800185Y-70817252D01*
X183852989Y-70771497D01*
X183922147Y-70761553D01*
X183985703Y-70790578D01*
X184007602Y-70815400D01*
X184085535Y-70932034D01*
X184085538Y-70932038D01*
X184210961Y-71057461D01*
X184210965Y-71057464D01*
X184358446Y-71156009D01*
X184358459Y-71156016D01*
X184481363Y-71206923D01*
X184522334Y-71223894D01*
X184522336Y-71223894D01*
X184522341Y-71223896D01*
X184696304Y-71258499D01*
X184696307Y-71258500D01*
X184696309Y-71258500D01*
X185757638Y-71258500D01*
X185824677Y-71278185D01*
X185845319Y-71294819D01*
X186388181Y-71837681D01*
X186421666Y-71899004D01*
X186424500Y-71925362D01*
X186424500Y-90740537D01*
X186404815Y-90807576D01*
X186388181Y-90828218D01*
X186243140Y-90973258D01*
X186243134Y-90973265D01*
X186144588Y-91120751D01*
X186076705Y-91284633D01*
X186076703Y-91284641D01*
X186042100Y-91458603D01*
X186042100Y-91635996D01*
X186076703Y-91809958D01*
X186076705Y-91809966D01*
X186144588Y-91973848D01*
X186243134Y-92121334D01*
X186243140Y-92121341D01*
X186368558Y-92246759D01*
X186368565Y-92246765D01*
X186516051Y-92345311D01*
X186516052Y-92345311D01*
X186516053Y-92345312D01*
X186679934Y-92413195D01*
X186807118Y-92438493D01*
X186853903Y-92447799D01*
X186853907Y-92447800D01*
X186853908Y-92447800D01*
X187031293Y-92447800D01*
X187031294Y-92447799D01*
X187205266Y-92413195D01*
X187369147Y-92345312D01*
X187516636Y-92246764D01*
X188024463Y-91738936D01*
X188024464Y-91738935D01*
X188123013Y-91591447D01*
X188190894Y-91427566D01*
X188205355Y-91354865D01*
X188219325Y-91284634D01*
X188225500Y-91253594D01*
X188225500Y-79047135D01*
X203804500Y-79047135D01*
X203804500Y-80742870D01*
X203804501Y-80742876D01*
X203810908Y-80802483D01*
X203861202Y-80937328D01*
X203861206Y-80937335D01*
X203947452Y-81052544D01*
X203947455Y-81052547D01*
X204062664Y-81138793D01*
X204062671Y-81138797D01*
X204197517Y-81189091D01*
X204197516Y-81189091D01*
X204204444Y-81189835D01*
X204257127Y-81195500D01*
X204636248Y-81195499D01*
X204703285Y-81215183D01*
X204749040Y-81267987D01*
X204758984Y-81337146D01*
X204729959Y-81400701D01*
X204674566Y-81437429D01*
X204605780Y-81459779D01*
X204423386Y-81552715D01*
X204257786Y-81673028D01*
X204113028Y-81817786D01*
X203992715Y-81983386D01*
X203899781Y-82165776D01*
X203836522Y-82360465D01*
X203804500Y-82562648D01*
X203804500Y-82767351D01*
X203836522Y-82969534D01*
X203899781Y-83164223D01*
X203963691Y-83289653D01*
X203987431Y-83336244D01*
X203992715Y-83346613D01*
X204113028Y-83512213D01*
X204257786Y-83656971D01*
X204412749Y-83769556D01*
X204423390Y-83777287D01*
X204539607Y-83836503D01*
X204605776Y-83870218D01*
X204605778Y-83870218D01*
X204605781Y-83870220D01*
X204638848Y-83880964D01*
X204796131Y-83932069D01*
X204853806Y-83971507D01*
X204881004Y-84035866D01*
X204869089Y-84104712D01*
X204821845Y-84156188D01*
X204796131Y-84167931D01*
X204605776Y-84229781D01*
X204423386Y-84322715D01*
X204257786Y-84443028D01*
X204113028Y-84587786D01*
X203992715Y-84753386D01*
X203899781Y-84935776D01*
X203836522Y-85130465D01*
X203804500Y-85332648D01*
X203804500Y-85537351D01*
X203836522Y-85739534D01*
X203899781Y-85934223D01*
X203963691Y-86059653D01*
X203987565Y-86106507D01*
X203992715Y-86116613D01*
X204113028Y-86282213D01*
X204257786Y-86426971D01*
X204412749Y-86539556D01*
X204423390Y-86547287D01*
X204539607Y-86606503D01*
X204605776Y-86640218D01*
X204605778Y-86640218D01*
X204605781Y-86640220D01*
X204684956Y-86665945D01*
X204796131Y-86702069D01*
X204853806Y-86741507D01*
X204881004Y-86805866D01*
X204869089Y-86874712D01*
X204821845Y-86926188D01*
X204796131Y-86937931D01*
X204605776Y-86999781D01*
X204423386Y-87092715D01*
X204257786Y-87213028D01*
X204113028Y-87357786D01*
X203992715Y-87523386D01*
X203899781Y-87705776D01*
X203836522Y-87900465D01*
X203804500Y-88102648D01*
X203804500Y-88307351D01*
X203836522Y-88509534D01*
X203899781Y-88704223D01*
X203963691Y-88829653D01*
X203989670Y-88880638D01*
X203992715Y-88886613D01*
X204113028Y-89052213D01*
X204257786Y-89196971D01*
X204405244Y-89304103D01*
X204423390Y-89317287D01*
X204530737Y-89371983D01*
X204605776Y-89410218D01*
X204605778Y-89410218D01*
X204605781Y-89410220D01*
X204684956Y-89435945D01*
X204796131Y-89472069D01*
X204853806Y-89511507D01*
X204881004Y-89575866D01*
X204869089Y-89644712D01*
X204821845Y-89696188D01*
X204796131Y-89707931D01*
X204605776Y-89769781D01*
X204423386Y-89862715D01*
X204257786Y-89983028D01*
X204113028Y-90127786D01*
X203992715Y-90293386D01*
X203899781Y-90475776D01*
X203836522Y-90670465D01*
X203804500Y-90872648D01*
X203804500Y-91077351D01*
X203836522Y-91279534D01*
X203899781Y-91474223D01*
X203959507Y-91591440D01*
X203987565Y-91646507D01*
X203992715Y-91656613D01*
X204113028Y-91822213D01*
X204257786Y-91966971D01*
X204412749Y-92079556D01*
X204423390Y-92087287D01*
X204490225Y-92121341D01*
X204605776Y-92180218D01*
X204605778Y-92180218D01*
X204605781Y-92180220D01*
X204684956Y-92205945D01*
X204796131Y-92242069D01*
X204853806Y-92281507D01*
X204881004Y-92345866D01*
X204869089Y-92414712D01*
X204821845Y-92466188D01*
X204796131Y-92477931D01*
X204605776Y-92539781D01*
X204423386Y-92632715D01*
X204257786Y-92753028D01*
X204113028Y-92897786D01*
X203992715Y-93063386D01*
X203899781Y-93245776D01*
X203836522Y-93440465D01*
X203804500Y-93642648D01*
X203804500Y-93847351D01*
X203836522Y-94049534D01*
X203899781Y-94244223D01*
X203963691Y-94369653D01*
X203987565Y-94416507D01*
X203992715Y-94426613D01*
X204113028Y-94592213D01*
X204257786Y-94736971D01*
X204412749Y-94849556D01*
X204423390Y-94857287D01*
X204539607Y-94916503D01*
X204605776Y-94950218D01*
X204605778Y-94950218D01*
X204605781Y-94950220D01*
X204684956Y-94975945D01*
X204796131Y-95012069D01*
X204853806Y-95051507D01*
X204881004Y-95115866D01*
X204869089Y-95184712D01*
X204821845Y-95236188D01*
X204796131Y-95247931D01*
X204605776Y-95309781D01*
X204423386Y-95402715D01*
X204257786Y-95523028D01*
X204113028Y-95667786D01*
X203992715Y-95833386D01*
X203899781Y-96015776D01*
X203836522Y-96210465D01*
X203804500Y-96412648D01*
X203804500Y-96617351D01*
X203836522Y-96819534D01*
X203899781Y-97014223D01*
X203963691Y-97139653D01*
X203987565Y-97186507D01*
X203992715Y-97196613D01*
X204113028Y-97362213D01*
X204257786Y-97506971D01*
X204376188Y-97592993D01*
X204423390Y-97627287D01*
X204531420Y-97682331D01*
X204605776Y-97720218D01*
X204605778Y-97720218D01*
X204605781Y-97720220D01*
X204684956Y-97745945D01*
X204796131Y-97782069D01*
X204853806Y-97821507D01*
X204881004Y-97885866D01*
X204869089Y-97954712D01*
X204821845Y-98006188D01*
X204796131Y-98017931D01*
X204605776Y-98079781D01*
X204423386Y-98172715D01*
X204257786Y-98293028D01*
X204113028Y-98437786D01*
X203992715Y-98603386D01*
X203899781Y-98785776D01*
X203836522Y-98980465D01*
X203804500Y-99182648D01*
X203804500Y-99387351D01*
X203836522Y-99589534D01*
X203899781Y-99784223D01*
X203992715Y-99966613D01*
X204113028Y-100132213D01*
X204257786Y-100276971D01*
X204412749Y-100389556D01*
X204423390Y-100397287D01*
X204539607Y-100456503D01*
X204605776Y-100490218D01*
X204605778Y-100490218D01*
X204605781Y-100490220D01*
X204668246Y-100510516D01*
X204800465Y-100553477D01*
X204901557Y-100569488D01*
X205002648Y-100585500D01*
X205002649Y-100585500D01*
X205207351Y-100585500D01*
X205207352Y-100585500D01*
X205409534Y-100553477D01*
X205604219Y-100490220D01*
X205786610Y-100397287D01*
X205879590Y-100329732D01*
X205952213Y-100276971D01*
X205952215Y-100276968D01*
X205952219Y-100276966D01*
X206096966Y-100132219D01*
X206096968Y-100132215D01*
X206096971Y-100132213D01*
X206149732Y-100059590D01*
X206217287Y-99966610D01*
X206310220Y-99784219D01*
X206373477Y-99589534D01*
X206405500Y-99387352D01*
X206405500Y-99182648D01*
X206373477Y-98980466D01*
X206373475Y-98980461D01*
X206373475Y-98980458D01*
X206370254Y-98970544D01*
X206370250Y-98970534D01*
X206340006Y-98877452D01*
X206310220Y-98785781D01*
X206310218Y-98785778D01*
X206310218Y-98785776D01*
X206248786Y-98665211D01*
X206217287Y-98603390D01*
X206201274Y-98581350D01*
X206096971Y-98437786D01*
X205952213Y-98293028D01*
X205786613Y-98172715D01*
X205786612Y-98172714D01*
X205786610Y-98172713D01*
X205729653Y-98143691D01*
X205604223Y-98079781D01*
X205413868Y-98017931D01*
X205356193Y-97978493D01*
X205328995Y-97914134D01*
X205340910Y-97845288D01*
X205388154Y-97793812D01*
X205413868Y-97782069D01*
X205468804Y-97764219D01*
X205604219Y-97720220D01*
X205786610Y-97627287D01*
X205866101Y-97569534D01*
X205952213Y-97506971D01*
X205952215Y-97506968D01*
X205952219Y-97506966D01*
X206096966Y-97362219D01*
X206096968Y-97362215D01*
X206096971Y-97362213D01*
X206207349Y-97210288D01*
X206217287Y-97196610D01*
X206310220Y-97014219D01*
X206373477Y-96819534D01*
X206405500Y-96617352D01*
X206405500Y-96412648D01*
X206404934Y-96409074D01*
X206373477Y-96210465D01*
X206310218Y-96015776D01*
X206268913Y-95934712D01*
X206217287Y-95833390D01*
X206189759Y-95795500D01*
X206096971Y-95667786D01*
X205952213Y-95523028D01*
X205786613Y-95402715D01*
X205786612Y-95402714D01*
X205786610Y-95402713D01*
X205729653Y-95373691D01*
X205604223Y-95309781D01*
X205413868Y-95247931D01*
X205356193Y-95208493D01*
X205328995Y-95144134D01*
X205340910Y-95075288D01*
X205388154Y-95023812D01*
X205413868Y-95012069D01*
X205468804Y-94994219D01*
X205604219Y-94950220D01*
X205786610Y-94857287D01*
X205883574Y-94786839D01*
X205952213Y-94736971D01*
X205952215Y-94736968D01*
X205952219Y-94736966D01*
X206096966Y-94592219D01*
X206096968Y-94592215D01*
X206096971Y-94592213D01*
X206177868Y-94480866D01*
X206217287Y-94426610D01*
X206310220Y-94244219D01*
X206373477Y-94049534D01*
X206405500Y-93847352D01*
X206405500Y-93642648D01*
X206404892Y-93638812D01*
X206373477Y-93440465D01*
X206310218Y-93245776D01*
X206268913Y-93164712D01*
X206217287Y-93063390D01*
X206189759Y-93025500D01*
X206096971Y-92897786D01*
X205952213Y-92753028D01*
X205786613Y-92632715D01*
X205786612Y-92632714D01*
X205786610Y-92632713D01*
X205720174Y-92598862D01*
X205604223Y-92539781D01*
X205413868Y-92477931D01*
X205356193Y-92438493D01*
X205328995Y-92374134D01*
X205340910Y-92305288D01*
X205388154Y-92253812D01*
X205413868Y-92242069D01*
X205468804Y-92224219D01*
X205604219Y-92180220D01*
X205786610Y-92087287D01*
X205879590Y-92019732D01*
X205952213Y-91966971D01*
X205952215Y-91966968D01*
X205952219Y-91966966D01*
X206096966Y-91822219D01*
X206096968Y-91822215D01*
X206096971Y-91822213D01*
X206177868Y-91710866D01*
X206217287Y-91656610D01*
X206310220Y-91474219D01*
X206373477Y-91279534D01*
X206405500Y-91077352D01*
X206405500Y-90872648D01*
X206404270Y-90864884D01*
X206373477Y-90670465D01*
X206310218Y-90475776D01*
X206268913Y-90394712D01*
X206217287Y-90293390D01*
X206192080Y-90258695D01*
X206096971Y-90127786D01*
X205952213Y-89983028D01*
X205786613Y-89862715D01*
X205786612Y-89862714D01*
X205786610Y-89862713D01*
X205723991Y-89830807D01*
X205604223Y-89769781D01*
X205413868Y-89707931D01*
X205356193Y-89668493D01*
X205328995Y-89604134D01*
X205340910Y-89535288D01*
X205388154Y-89483812D01*
X205413868Y-89472069D01*
X205468804Y-89454219D01*
X205604219Y-89410220D01*
X205786610Y-89317287D01*
X205902373Y-89233181D01*
X205952213Y-89196971D01*
X205952215Y-89196968D01*
X205952219Y-89196966D01*
X206096966Y-89052219D01*
X206096968Y-89052215D01*
X206096971Y-89052213D01*
X206177868Y-88940866D01*
X206217287Y-88886610D01*
X206310220Y-88704219D01*
X206373477Y-88509534D01*
X206405500Y-88307352D01*
X206405500Y-88102648D01*
X206403592Y-88090600D01*
X206373477Y-87900465D01*
X206314416Y-87718695D01*
X206310220Y-87705781D01*
X206310218Y-87705778D01*
X206310218Y-87705776D01*
X206268913Y-87624712D01*
X206217287Y-87523390D01*
X206189759Y-87485500D01*
X206096971Y-87357786D01*
X205952213Y-87213028D01*
X205786613Y-87092715D01*
X205786612Y-87092714D01*
X205786610Y-87092713D01*
X205714480Y-87055961D01*
X205604223Y-86999781D01*
X205413868Y-86937931D01*
X205356193Y-86898493D01*
X205328995Y-86834134D01*
X205340910Y-86765288D01*
X205388154Y-86713812D01*
X205413868Y-86702069D01*
X205468804Y-86684219D01*
X205604219Y-86640220D01*
X205786610Y-86547287D01*
X205879590Y-86479732D01*
X205952213Y-86426971D01*
X205952215Y-86426968D01*
X205952219Y-86426966D01*
X206096966Y-86282219D01*
X206096968Y-86282215D01*
X206096971Y-86282213D01*
X206177868Y-86170866D01*
X206217287Y-86116610D01*
X206310220Y-85934219D01*
X206373477Y-85739534D01*
X206405500Y-85537352D01*
X206405500Y-85332648D01*
X206404892Y-85328812D01*
X206373477Y-85130465D01*
X206310218Y-84935776D01*
X206268043Y-84853004D01*
X206217287Y-84753390D01*
X206189759Y-84715500D01*
X206096971Y-84587786D01*
X205952213Y-84443028D01*
X205786613Y-84322715D01*
X205786612Y-84322714D01*
X205786610Y-84322713D01*
X205729653Y-84293691D01*
X205604223Y-84229781D01*
X205413868Y-84167931D01*
X205356193Y-84128493D01*
X205328995Y-84064134D01*
X205340910Y-83995288D01*
X205388154Y-83943812D01*
X205413868Y-83932069D01*
X205482752Y-83909687D01*
X205604219Y-83870220D01*
X205786610Y-83777287D01*
X205879590Y-83709732D01*
X205952213Y-83656971D01*
X205952215Y-83656968D01*
X205952219Y-83656966D01*
X206096966Y-83512219D01*
X206096968Y-83512215D01*
X206096971Y-83512213D01*
X206178059Y-83400603D01*
X206217287Y-83346610D01*
X206310220Y-83164219D01*
X206373477Y-82969534D01*
X206405500Y-82767352D01*
X206405500Y-82562648D01*
X206403355Y-82549103D01*
X206373477Y-82360465D01*
X206310218Y-82165776D01*
X206268913Y-82084712D01*
X206217287Y-81983390D01*
X206176813Y-81927682D01*
X206096971Y-81817786D01*
X205952213Y-81673028D01*
X205786613Y-81552715D01*
X205786612Y-81552714D01*
X205786610Y-81552713D01*
X205729653Y-81523691D01*
X205604223Y-81459781D01*
X205567010Y-81447690D01*
X205535431Y-81437429D01*
X205477757Y-81397992D01*
X205450559Y-81333633D01*
X205462474Y-81264787D01*
X205509718Y-81213311D01*
X205573750Y-81195499D01*
X205952872Y-81195499D01*
X206012483Y-81189091D01*
X206147331Y-81138796D01*
X206147334Y-81138793D01*
X206155114Y-81134546D01*
X206155920Y-81136022D01*
X206211642Y-81115234D01*
X206279916Y-81130079D01*
X206329326Y-81179480D01*
X206344500Y-81238917D01*
X206344500Y-81382351D01*
X206376522Y-81584534D01*
X206439781Y-81779223D01*
X206503691Y-81904653D01*
X206527565Y-81951507D01*
X206532715Y-81961613D01*
X206653028Y-82127213D01*
X206797786Y-82271971D01*
X206951369Y-82383553D01*
X206963390Y-82392287D01*
X207079607Y-82451503D01*
X207145776Y-82485218D01*
X207145778Y-82485218D01*
X207145781Y-82485220D01*
X207178728Y-82495925D01*
X207336131Y-82547069D01*
X207393806Y-82586507D01*
X207421004Y-82650866D01*
X207409089Y-82719712D01*
X207361845Y-82771188D01*
X207336131Y-82782931D01*
X207145776Y-82844781D01*
X206963386Y-82937715D01*
X206797786Y-83058028D01*
X206653028Y-83202786D01*
X206532715Y-83368386D01*
X206439781Y-83550776D01*
X206376522Y-83745465D01*
X206344500Y-83947648D01*
X206344500Y-84152351D01*
X206376522Y-84354534D01*
X206439781Y-84549223D01*
X206503691Y-84674653D01*
X206527565Y-84721507D01*
X206532715Y-84731613D01*
X206653028Y-84897213D01*
X206797786Y-85041971D01*
X206952749Y-85154556D01*
X206963390Y-85162287D01*
X207079607Y-85221503D01*
X207145776Y-85255218D01*
X207145778Y-85255218D01*
X207145781Y-85255220D01*
X207186816Y-85268553D01*
X207336131Y-85317069D01*
X207393806Y-85356507D01*
X207421004Y-85420866D01*
X207409089Y-85489712D01*
X207361845Y-85541188D01*
X207336131Y-85552931D01*
X207145776Y-85614781D01*
X206963386Y-85707715D01*
X206797786Y-85828028D01*
X206653028Y-85972786D01*
X206532715Y-86138386D01*
X206439781Y-86320776D01*
X206376522Y-86515465D01*
X206344500Y-86717648D01*
X206344500Y-86922351D01*
X206376522Y-87124534D01*
X206439781Y-87319223D01*
X206503691Y-87444653D01*
X206527565Y-87491507D01*
X206532715Y-87501613D01*
X206653028Y-87667213D01*
X206797786Y-87811971D01*
X206952749Y-87924556D01*
X206963390Y-87932287D01*
X207079607Y-87991503D01*
X207145776Y-88025218D01*
X207145778Y-88025218D01*
X207145781Y-88025220D01*
X207224956Y-88050945D01*
X207336131Y-88087069D01*
X207393806Y-88126507D01*
X207421004Y-88190866D01*
X207409089Y-88259712D01*
X207361845Y-88311188D01*
X207336131Y-88322931D01*
X207145776Y-88384781D01*
X206963386Y-88477715D01*
X206797786Y-88598028D01*
X206653028Y-88742786D01*
X206532717Y-88908383D01*
X206439781Y-89090776D01*
X206376522Y-89285465D01*
X206344500Y-89487648D01*
X206344500Y-89692351D01*
X206376522Y-89894534D01*
X206439781Y-90089223D01*
X206503691Y-90214653D01*
X206527565Y-90261507D01*
X206532715Y-90271613D01*
X206653028Y-90437213D01*
X206797786Y-90581971D01*
X206952749Y-90694556D01*
X206963390Y-90702287D01*
X207045325Y-90744035D01*
X207145776Y-90795218D01*
X207145778Y-90795218D01*
X207145781Y-90795220D01*
X207183809Y-90807576D01*
X207336131Y-90857069D01*
X207393806Y-90896507D01*
X207421004Y-90960866D01*
X207409089Y-91029712D01*
X207361845Y-91081188D01*
X207336131Y-91092931D01*
X207145776Y-91154781D01*
X206963386Y-91247715D01*
X206797786Y-91368028D01*
X206653028Y-91512786D01*
X206532715Y-91678386D01*
X206439781Y-91860776D01*
X206376522Y-92055465D01*
X206344500Y-92257648D01*
X206344500Y-92462351D01*
X206376522Y-92664534D01*
X206439781Y-92859223D01*
X206503691Y-92984653D01*
X206527565Y-93031507D01*
X206532715Y-93041613D01*
X206653028Y-93207213D01*
X206797786Y-93351971D01*
X206952749Y-93464556D01*
X206963390Y-93472287D01*
X207079607Y-93531503D01*
X207145776Y-93565218D01*
X207145778Y-93565218D01*
X207145781Y-93565220D01*
X207224956Y-93590945D01*
X207336131Y-93627069D01*
X207393806Y-93666507D01*
X207421004Y-93730866D01*
X207409089Y-93799712D01*
X207361845Y-93851188D01*
X207336131Y-93862931D01*
X207145776Y-93924781D01*
X206963386Y-94017715D01*
X206797786Y-94138028D01*
X206653028Y-94282786D01*
X206532715Y-94448386D01*
X206439781Y-94630776D01*
X206376522Y-94825465D01*
X206344500Y-95027648D01*
X206344500Y-95232351D01*
X206376522Y-95434534D01*
X206439781Y-95629223D01*
X206503691Y-95754653D01*
X206527565Y-95801507D01*
X206532715Y-95811613D01*
X206653028Y-95977213D01*
X206797786Y-96121971D01*
X206923465Y-96213280D01*
X206963390Y-96242287D01*
X207145781Y-96335220D01*
X207291807Y-96382666D01*
X207336938Y-96397331D01*
X207394614Y-96436769D01*
X207421812Y-96501127D01*
X207409897Y-96569974D01*
X207362653Y-96621449D01*
X207336939Y-96633193D01*
X207145968Y-96695244D01*
X206963644Y-96788143D01*
X206919077Y-96820523D01*
X206919077Y-96820524D01*
X207515591Y-97417037D01*
X207452007Y-97434075D01*
X207337993Y-97499901D01*
X207244901Y-97592993D01*
X207179075Y-97707007D01*
X207162037Y-97770590D01*
X206565524Y-97174077D01*
X206565523Y-97174077D01*
X206533143Y-97218644D01*
X206440244Y-97400968D01*
X206377009Y-97595582D01*
X206345000Y-97797682D01*
X206345000Y-98002317D01*
X206377009Y-98204417D01*
X206440244Y-98399031D01*
X206533141Y-98581350D01*
X206533147Y-98581359D01*
X206565523Y-98625921D01*
X206565524Y-98625922D01*
X207162037Y-98029409D01*
X207179075Y-98092993D01*
X207244901Y-98207007D01*
X207337993Y-98300099D01*
X207452007Y-98365925D01*
X207515590Y-98382962D01*
X206919076Y-98979474D01*
X206963650Y-99011859D01*
X207145968Y-99104755D01*
X207340582Y-99167990D01*
X207542683Y-99200000D01*
X207747317Y-99200000D01*
X207949417Y-99167990D01*
X208144031Y-99104755D01*
X208326349Y-99011859D01*
X208370921Y-98979474D01*
X207774409Y-98382962D01*
X207837993Y-98365925D01*
X207952007Y-98300099D01*
X208045099Y-98207007D01*
X208110925Y-98092993D01*
X208127962Y-98029410D01*
X208724474Y-98625922D01*
X208724474Y-98625921D01*
X208756859Y-98581349D01*
X208849755Y-98399031D01*
X208912990Y-98204417D01*
X208945000Y-98002317D01*
X208945000Y-97797682D01*
X208912990Y-97595582D01*
X208849755Y-97400968D01*
X208756859Y-97218650D01*
X208724474Y-97174077D01*
X208724474Y-97174076D01*
X208127962Y-97770589D01*
X208110925Y-97707007D01*
X208045099Y-97592993D01*
X207952007Y-97499901D01*
X207837993Y-97434075D01*
X207774408Y-97417037D01*
X208370922Y-96820524D01*
X208370921Y-96820523D01*
X208326359Y-96788147D01*
X208326350Y-96788141D01*
X208144031Y-96695244D01*
X207953060Y-96633193D01*
X207895385Y-96593755D01*
X207868187Y-96529396D01*
X207880102Y-96460550D01*
X207927347Y-96409074D01*
X207953061Y-96397331D01*
X208144219Y-96335220D01*
X208326610Y-96242287D01*
X208419590Y-96174732D01*
X208492213Y-96121971D01*
X208492215Y-96121968D01*
X208492219Y-96121966D01*
X208636966Y-95977219D01*
X208636968Y-95977215D01*
X208636971Y-95977213D01*
X208717868Y-95865866D01*
X208757287Y-95811610D01*
X208850220Y-95629219D01*
X208913477Y-95434534D01*
X208945500Y-95232352D01*
X208945500Y-95027648D01*
X208944081Y-95018691D01*
X208913477Y-94825465D01*
X208879144Y-94719800D01*
X208850220Y-94630781D01*
X208850218Y-94630778D01*
X208850218Y-94630776D01*
X208808913Y-94549712D01*
X208757287Y-94448390D01*
X208729759Y-94410500D01*
X208636971Y-94282786D01*
X208492213Y-94138028D01*
X208326613Y-94017715D01*
X208326612Y-94017714D01*
X208326610Y-94017713D01*
X208269653Y-93988691D01*
X208144223Y-93924781D01*
X207953868Y-93862931D01*
X207896193Y-93823493D01*
X207868995Y-93759134D01*
X207880910Y-93690288D01*
X207928154Y-93638812D01*
X207953868Y-93627069D01*
X208008804Y-93609219D01*
X208144219Y-93565220D01*
X208326610Y-93472287D01*
X208419590Y-93404732D01*
X208492213Y-93351971D01*
X208492215Y-93351968D01*
X208492219Y-93351966D01*
X208636966Y-93207219D01*
X208636968Y-93207215D01*
X208636971Y-93207213D01*
X208717868Y-93095866D01*
X208757287Y-93041610D01*
X208850220Y-92859219D01*
X208913477Y-92664534D01*
X208945500Y-92462352D01*
X208945500Y-92257648D01*
X208943775Y-92246759D01*
X208913477Y-92055465D01*
X208884127Y-91965137D01*
X208850220Y-91860781D01*
X208850218Y-91860778D01*
X208850218Y-91860776D01*
X208792731Y-91747953D01*
X208757287Y-91678390D01*
X208726486Y-91635996D01*
X208636971Y-91512786D01*
X208492213Y-91368028D01*
X208326613Y-91247715D01*
X208326612Y-91247714D01*
X208326610Y-91247713D01*
X208269653Y-91218691D01*
X208144223Y-91154781D01*
X207953868Y-91092931D01*
X207896193Y-91053493D01*
X207868995Y-90989134D01*
X207880910Y-90920288D01*
X207928154Y-90868812D01*
X207953868Y-90857069D01*
X208008804Y-90839219D01*
X208144219Y-90795220D01*
X208326610Y-90702287D01*
X208423580Y-90631835D01*
X208492213Y-90581971D01*
X208492215Y-90581968D01*
X208492219Y-90581966D01*
X208636966Y-90437219D01*
X208636968Y-90437215D01*
X208636971Y-90437213D01*
X208723943Y-90317504D01*
X208757287Y-90271610D01*
X208850220Y-90089219D01*
X208913477Y-89894534D01*
X208945500Y-89692352D01*
X208945500Y-89487648D01*
X208943344Y-89474034D01*
X208913477Y-89285465D01*
X208850218Y-89090776D01*
X208757283Y-88908383D01*
X208636971Y-88742786D01*
X208492213Y-88598028D01*
X208326613Y-88477715D01*
X208326612Y-88477714D01*
X208326610Y-88477713D01*
X208269653Y-88448691D01*
X208144223Y-88384781D01*
X207953868Y-88322931D01*
X207896193Y-88283493D01*
X207868995Y-88219134D01*
X207880910Y-88150288D01*
X207928154Y-88098812D01*
X207953868Y-88087069D01*
X208008804Y-88069219D01*
X208144219Y-88025220D01*
X208326610Y-87932287D01*
X208419590Y-87864732D01*
X208492213Y-87811971D01*
X208492215Y-87811968D01*
X208492219Y-87811966D01*
X208636966Y-87667219D01*
X208636968Y-87667215D01*
X208636971Y-87667213D01*
X208728444Y-87541309D01*
X208757287Y-87501610D01*
X208850220Y-87319219D01*
X208913477Y-87124534D01*
X208945500Y-86922352D01*
X208945500Y-86717648D01*
X208944892Y-86713812D01*
X208913477Y-86515465D01*
X208850218Y-86320776D01*
X208808913Y-86239712D01*
X208757287Y-86138390D01*
X208729759Y-86100500D01*
X208636971Y-85972786D01*
X208492213Y-85828028D01*
X208326613Y-85707715D01*
X208326612Y-85707714D01*
X208326610Y-85707713D01*
X208269653Y-85678691D01*
X208144223Y-85614781D01*
X207953868Y-85552931D01*
X207896193Y-85513493D01*
X207868995Y-85449134D01*
X207880910Y-85380288D01*
X207928154Y-85328812D01*
X207953868Y-85317069D01*
X208008804Y-85299219D01*
X208144219Y-85255220D01*
X208326610Y-85162287D01*
X208419590Y-85094732D01*
X208492213Y-85041971D01*
X208492215Y-85041968D01*
X208492219Y-85041966D01*
X208636966Y-84897219D01*
X208636968Y-84897215D01*
X208636971Y-84897213D01*
X208717868Y-84785866D01*
X208757287Y-84731610D01*
X208850220Y-84549219D01*
X208913477Y-84354534D01*
X208945500Y-84152352D01*
X208945500Y-83947648D01*
X208944892Y-83943812D01*
X208913477Y-83745465D01*
X208850218Y-83550776D01*
X208808779Y-83469449D01*
X208757287Y-83368390D01*
X208733932Y-83336244D01*
X208636971Y-83202786D01*
X208492213Y-83058028D01*
X208326613Y-82937715D01*
X208326612Y-82937714D01*
X208326610Y-82937713D01*
X208269653Y-82908691D01*
X208144223Y-82844781D01*
X207953868Y-82782931D01*
X207896193Y-82743493D01*
X207868995Y-82679134D01*
X207880910Y-82610288D01*
X207928154Y-82558812D01*
X207953868Y-82547069D01*
X208006400Y-82530000D01*
X208144219Y-82485220D01*
X208326610Y-82392287D01*
X208419590Y-82324732D01*
X208492213Y-82271971D01*
X208492215Y-82271968D01*
X208492219Y-82271966D01*
X208636966Y-82127219D01*
X208636968Y-82127215D01*
X208636971Y-82127213D01*
X208717868Y-82015866D01*
X208757287Y-81961610D01*
X208850220Y-81779219D01*
X208913477Y-81584534D01*
X208945500Y-81382352D01*
X208945500Y-81177648D01*
X208925686Y-81052547D01*
X208913477Y-80975465D01*
X208850218Y-80780776D01*
X208816503Y-80714607D01*
X208757287Y-80598390D01*
X208749556Y-80587749D01*
X208636971Y-80432786D01*
X208492213Y-80288028D01*
X208326613Y-80167715D01*
X208326612Y-80167714D01*
X208326610Y-80167713D01*
X208269653Y-80138691D01*
X208144223Y-80074781D01*
X207949534Y-80011522D01*
X207774995Y-79983878D01*
X207747352Y-79979500D01*
X207542648Y-79979500D01*
X207518329Y-79983351D01*
X207340465Y-80011522D01*
X207145776Y-80074781D01*
X206963386Y-80167715D01*
X206797786Y-80288028D01*
X206653030Y-80432784D01*
X206629816Y-80464736D01*
X206574486Y-80507401D01*
X206504872Y-80513379D01*
X206443078Y-80480772D01*
X206408721Y-80419933D01*
X206405499Y-80391855D01*
X206405499Y-79047128D01*
X206399091Y-78987517D01*
X206348796Y-78852669D01*
X206348795Y-78852668D01*
X206348793Y-78852664D01*
X206262547Y-78737455D01*
X206262544Y-78737452D01*
X206147335Y-78651206D01*
X206147328Y-78651202D01*
X206012482Y-78600908D01*
X206012483Y-78600908D01*
X205952883Y-78594501D01*
X205952881Y-78594500D01*
X205952873Y-78594500D01*
X205952864Y-78594500D01*
X204257129Y-78594500D01*
X204257123Y-78594501D01*
X204197516Y-78600908D01*
X204062671Y-78651202D01*
X204062664Y-78651206D01*
X203947455Y-78737452D01*
X203947452Y-78737455D01*
X203861206Y-78852664D01*
X203861202Y-78852671D01*
X203810908Y-78987517D01*
X203804501Y-79047116D01*
X203804501Y-79047123D01*
X203804500Y-79047135D01*
X188225500Y-79047135D01*
X188225500Y-71412312D01*
X188225499Y-71412303D01*
X188225413Y-71411870D01*
X188190896Y-71238340D01*
X188190895Y-71238334D01*
X188156796Y-71156013D01*
X188123013Y-71074453D01*
X188059760Y-70979789D01*
X188056754Y-70975290D01*
X188024465Y-70926965D01*
X188024459Y-70926958D01*
X186756038Y-69658537D01*
X186733285Y-69643334D01*
X186657454Y-69592666D01*
X186608547Y-69559987D01*
X186526606Y-69526046D01*
X186444666Y-69492105D01*
X186444658Y-69492103D01*
X186270696Y-69457500D01*
X186270692Y-69457500D01*
X186270691Y-69457500D01*
X184696309Y-69457500D01*
X184696306Y-69457500D01*
X184522341Y-69492103D01*
X184522332Y-69492106D01*
X184358459Y-69559983D01*
X184358446Y-69559990D01*
X184210965Y-69658535D01*
X184210961Y-69658538D01*
X184085538Y-69783961D01*
X184085535Y-69783965D01*
X184007602Y-69900599D01*
X183953989Y-69945404D01*
X183884664Y-69954111D01*
X183821637Y-69923956D01*
X183784918Y-69864513D01*
X183780500Y-69831708D01*
X183780500Y-68491308D01*
X183775089Y-68464108D01*
X183775089Y-68464106D01*
X183745895Y-68317334D01*
X183687308Y-68175894D01*
X183678013Y-68153453D01*
X183618936Y-68065040D01*
X183611013Y-68053183D01*
X183579466Y-68005966D01*
X182184035Y-66610535D01*
X182184030Y-66610531D01*
X182129622Y-66574178D01*
X182129616Y-66574175D01*
X182124959Y-66571063D01*
X182036547Y-66511987D01*
X181954606Y-66478046D01*
X181872666Y-66444105D01*
X181872658Y-66444103D01*
X181698696Y-66409500D01*
X181698692Y-66409500D01*
X181698691Y-66409500D01*
X165188691Y-66409500D01*
X165011308Y-66409500D01*
X165011305Y-66409500D01*
X164837401Y-66444091D01*
X164837402Y-66444092D01*
X164837339Y-66444104D01*
X164837329Y-66444107D01*
X164673459Y-66511983D01*
X164673446Y-66511990D01*
X164525966Y-66610534D01*
X164525964Y-66610537D01*
X163420538Y-67715960D01*
X163420534Y-67715965D01*
X163406784Y-67736545D01*
X163406783Y-67736547D01*
X163321990Y-67863446D01*
X163321985Y-67863456D01*
X163288046Y-67945393D01*
X163254107Y-68027327D01*
X163254105Y-68027333D01*
X163254105Y-68027334D01*
X163229019Y-68153453D01*
X163229019Y-68153454D01*
X163219500Y-68201307D01*
X163219500Y-70095500D01*
X163199815Y-70162539D01*
X163147011Y-70208294D01*
X163095500Y-70219500D01*
X151676306Y-70219500D01*
X151606590Y-70233368D01*
X151606589Y-70233368D01*
X151502341Y-70254103D01*
X151502332Y-70254106D01*
X151338459Y-70321983D01*
X151338446Y-70321990D01*
X151190966Y-70420534D01*
X151190964Y-70420537D01*
X149989638Y-71621860D01*
X149989637Y-71621861D01*
X149952325Y-71677702D01*
X149950163Y-71680940D01*
X149891087Y-71769353D01*
X149877726Y-71801610D01*
X149874385Y-71809674D01*
X149874384Y-71809677D01*
X149823205Y-71933233D01*
X149823203Y-71933241D01*
X149793603Y-72082049D01*
X149793604Y-72082050D01*
X149788600Y-72107209D01*
X149788600Y-94719800D01*
X149768915Y-94786839D01*
X149716111Y-94832594D01*
X149664600Y-94843800D01*
X138713661Y-94843800D01*
X138646622Y-94824115D01*
X138625980Y-94807481D01*
X138096819Y-94278319D01*
X138063334Y-94216996D01*
X138060500Y-94190638D01*
X138060500Y-84366309D01*
X138058158Y-84354534D01*
X138052499Y-84326086D01*
X138051828Y-84322715D01*
X138025896Y-84192341D01*
X138025895Y-84192334D01*
X137986244Y-84096610D01*
X137958013Y-84028453D01*
X137881115Y-83913368D01*
X137870321Y-83897214D01*
X137859466Y-83880966D01*
X136694035Y-82715535D01*
X136694030Y-82715531D01*
X136639779Y-82679283D01*
X136639774Y-82679280D01*
X136634959Y-82676063D01*
X136546547Y-82616987D01*
X136458459Y-82580500D01*
X136452557Y-82578055D01*
X136452553Y-82578053D01*
X136382666Y-82549105D01*
X136382658Y-82549103D01*
X136208696Y-82514500D01*
X136208692Y-82514500D01*
X136208691Y-82514500D01*
X133705047Y-82514500D01*
X133638008Y-82494815D01*
X133617366Y-82478181D01*
X133562213Y-82423028D01*
X133396613Y-82302715D01*
X133396612Y-82302714D01*
X133396610Y-82302713D01*
X133336266Y-82271966D01*
X133214223Y-82209781D01*
X133023868Y-82147931D01*
X132966193Y-82108493D01*
X132938995Y-82044134D01*
X132950910Y-81975288D01*
X132998154Y-81923812D01*
X133023868Y-81912069D01*
X133066508Y-81898213D01*
X133214219Y-81850220D01*
X133396610Y-81757287D01*
X133507879Y-81676446D01*
X133562213Y-81636971D01*
X133562215Y-81636968D01*
X133562219Y-81636966D01*
X133706966Y-81492219D01*
X133706968Y-81492215D01*
X133706971Y-81492213D01*
X133775425Y-81397992D01*
X133827287Y-81326610D01*
X133920220Y-81144219D01*
X133983477Y-80949534D01*
X134015500Y-80747352D01*
X134015500Y-80542648D01*
X133998099Y-80432784D01*
X133983477Y-80340465D01*
X133954127Y-80250137D01*
X133920220Y-80145781D01*
X133920218Y-80145778D01*
X133920218Y-80145776D01*
X133884043Y-80074780D01*
X133827287Y-79963390D01*
X133819556Y-79952749D01*
X133706971Y-79797786D01*
X133562213Y-79653028D01*
X133396613Y-79532715D01*
X133396612Y-79532714D01*
X133396610Y-79532713D01*
X133339653Y-79503691D01*
X133214223Y-79439781D01*
X133019534Y-79376522D01*
X132844995Y-79348878D01*
X132817352Y-79344500D01*
X132612648Y-79344500D01*
X132588329Y-79348351D01*
X132410465Y-79376522D01*
X132215776Y-79439781D01*
X132033386Y-79532715D01*
X131867786Y-79653028D01*
X131723028Y-79797786D01*
X131602715Y-79963386D01*
X131509781Y-80145776D01*
X131446522Y-80340465D01*
X131419136Y-80513379D01*
X131414500Y-80542648D01*
X131414500Y-80747352D01*
X131418878Y-80774995D01*
X131446522Y-80949534D01*
X131509781Y-81144223D01*
X131544984Y-81213311D01*
X131591231Y-81304076D01*
X131602715Y-81326613D01*
X131723028Y-81492213D01*
X131867786Y-81636971D01*
X131986188Y-81722993D01*
X132033390Y-81757287D01*
X132149607Y-81816503D01*
X132215776Y-81850218D01*
X132215778Y-81850218D01*
X132215781Y-81850220D01*
X132294956Y-81875945D01*
X132406131Y-81912069D01*
X132463806Y-81951507D01*
X132491004Y-82015866D01*
X132479089Y-82084712D01*
X132431845Y-82136188D01*
X132406131Y-82147931D01*
X132215776Y-82209781D01*
X132033386Y-82302715D01*
X131867786Y-82423028D01*
X131723028Y-82567786D01*
X131602715Y-82733386D01*
X131509781Y-82915776D01*
X131446522Y-83110465D01*
X131414500Y-83312648D01*
X131414500Y-83517351D01*
X131446522Y-83719534D01*
X131509781Y-83914223D01*
X131602715Y-84096613D01*
X131723028Y-84262213D01*
X131867786Y-84406971D01*
X132022749Y-84519556D01*
X132033390Y-84527287D01*
X132149607Y-84586503D01*
X132215776Y-84620218D01*
X132215778Y-84620218D01*
X132215781Y-84620220D01*
X132294956Y-84645945D01*
X132406131Y-84682069D01*
X132463806Y-84721507D01*
X132491004Y-84785866D01*
X132479089Y-84854712D01*
X132431845Y-84906188D01*
X132406131Y-84917931D01*
X132215776Y-84979781D01*
X132033386Y-85072715D01*
X131867786Y-85193028D01*
X131723028Y-85337786D01*
X131602715Y-85503386D01*
X131509781Y-85685776D01*
X131446522Y-85880465D01*
X131414500Y-86082648D01*
X131414500Y-86287351D01*
X131446522Y-86489534D01*
X131509781Y-86684223D01*
X131602715Y-86866613D01*
X131723028Y-87032213D01*
X131867786Y-87176971D01*
X132022749Y-87289556D01*
X132033390Y-87297287D01*
X132149607Y-87356503D01*
X132215776Y-87390218D01*
X132215778Y-87390218D01*
X132215781Y-87390220D01*
X132294956Y-87415945D01*
X132406131Y-87452069D01*
X132463806Y-87491507D01*
X132491004Y-87555866D01*
X132479089Y-87624712D01*
X132431845Y-87676188D01*
X132406131Y-87687931D01*
X132215776Y-87749781D01*
X132033386Y-87842715D01*
X131867786Y-87963028D01*
X131723028Y-88107786D01*
X131602715Y-88273386D01*
X131509781Y-88455776D01*
X131446522Y-88650465D01*
X131414500Y-88852648D01*
X131414500Y-89057351D01*
X131446522Y-89259534D01*
X131509781Y-89454223D01*
X131566294Y-89565134D01*
X131592518Y-89616602D01*
X131602715Y-89636613D01*
X131723028Y-89802213D01*
X131867786Y-89946971D01*
X132009607Y-90050008D01*
X132033390Y-90067287D01*
X132149607Y-90126503D01*
X132215776Y-90160218D01*
X132215778Y-90160218D01*
X132215781Y-90160220D01*
X132294956Y-90185945D01*
X132406131Y-90222069D01*
X132463806Y-90261507D01*
X132491004Y-90325866D01*
X132479089Y-90394712D01*
X132431845Y-90446188D01*
X132406131Y-90457931D01*
X132215776Y-90519781D01*
X132033386Y-90612715D01*
X131867786Y-90733028D01*
X131723028Y-90877786D01*
X131602715Y-91043386D01*
X131509781Y-91225776D01*
X131446522Y-91420465D01*
X131414500Y-91622648D01*
X131414500Y-91827351D01*
X131446522Y-92029534D01*
X131509781Y-92224223D01*
X131602715Y-92406613D01*
X131723028Y-92572213D01*
X131867786Y-92716971D01*
X132022749Y-92829556D01*
X132033390Y-92837287D01*
X132149607Y-92896503D01*
X132215776Y-92930218D01*
X132215778Y-92930218D01*
X132215781Y-92930220D01*
X132294956Y-92955945D01*
X132406131Y-92992069D01*
X132463806Y-93031507D01*
X132491004Y-93095866D01*
X132479089Y-93164712D01*
X132431845Y-93216188D01*
X132406131Y-93227931D01*
X132215776Y-93289781D01*
X132033386Y-93382715D01*
X131867786Y-93503028D01*
X131723028Y-93647786D01*
X131602715Y-93813386D01*
X131509781Y-93995776D01*
X131446522Y-94190465D01*
X131414500Y-94392648D01*
X131414500Y-94597351D01*
X131446522Y-94799534D01*
X131509781Y-94994223D01*
X131602715Y-95176613D01*
X131723028Y-95342213D01*
X131867786Y-95486971D01*
X132022749Y-95599556D01*
X132033390Y-95607287D01*
X132149607Y-95666503D01*
X132215776Y-95700218D01*
X132215778Y-95700218D01*
X132215781Y-95700220D01*
X132294956Y-95725945D01*
X132406131Y-95762069D01*
X132463806Y-95801507D01*
X132491004Y-95865866D01*
X132479089Y-95934712D01*
X132431845Y-95986188D01*
X132406131Y-95997931D01*
X132215776Y-96059781D01*
X132033386Y-96152715D01*
X131867786Y-96273028D01*
X131723028Y-96417786D01*
X131602715Y-96583386D01*
X131509781Y-96765776D01*
X131446522Y-96960465D01*
X131414500Y-97162648D01*
X131414500Y-97367351D01*
X131446522Y-97569534D01*
X131509781Y-97764223D01*
X131571762Y-97885866D01*
X131578964Y-97900001D01*
X131602715Y-97946613D01*
X131723028Y-98112213D01*
X131867786Y-98256971D01*
X132017751Y-98365925D01*
X132033390Y-98377287D01*
X132215781Y-98470220D01*
X132284567Y-98492570D01*
X132342241Y-98532006D01*
X132369440Y-98596365D01*
X132357526Y-98665211D01*
X132310282Y-98716687D01*
X132246248Y-98734500D01*
X131867130Y-98734500D01*
X131867123Y-98734501D01*
X131807516Y-98740908D01*
X131672671Y-98791202D01*
X131664886Y-98795454D01*
X131664080Y-98793978D01*
X131608345Y-98814766D01*
X131540072Y-98799914D01*
X131490667Y-98750508D01*
X131475500Y-98691082D01*
X131475500Y-98547648D01*
X131443477Y-98345465D01*
X131397647Y-98204417D01*
X131380220Y-98150781D01*
X131380218Y-98150778D01*
X131380218Y-98150776D01*
X131312529Y-98017931D01*
X131287287Y-97968390D01*
X131237600Y-97900001D01*
X131166971Y-97802786D01*
X131022213Y-97658028D01*
X130856613Y-97537715D01*
X130856612Y-97537714D01*
X130856610Y-97537713D01*
X130782400Y-97499901D01*
X130674223Y-97444781D01*
X130483868Y-97382931D01*
X130426193Y-97343493D01*
X130398995Y-97279134D01*
X130410910Y-97210288D01*
X130458154Y-97158812D01*
X130483868Y-97147069D01*
X130526508Y-97133213D01*
X130674219Y-97085220D01*
X130856610Y-96992287D01*
X130949590Y-96924732D01*
X131022213Y-96871971D01*
X131022215Y-96871968D01*
X131022219Y-96871966D01*
X131166966Y-96727219D01*
X131166968Y-96727215D01*
X131166971Y-96727213D01*
X131235279Y-96633193D01*
X131287287Y-96561610D01*
X131380220Y-96379219D01*
X131443477Y-96184534D01*
X131475500Y-95982352D01*
X131475500Y-95777648D01*
X131473447Y-95764685D01*
X131443477Y-95575465D01*
X131397685Y-95434534D01*
X131380220Y-95380781D01*
X131380218Y-95380778D01*
X131380218Y-95380776D01*
X131312529Y-95247931D01*
X131287287Y-95198390D01*
X131247868Y-95144134D01*
X131166971Y-95032786D01*
X131022213Y-94888028D01*
X130856613Y-94767715D01*
X130856612Y-94767714D01*
X130856610Y-94767713D01*
X130762576Y-94719800D01*
X130674223Y-94674781D01*
X130483868Y-94612931D01*
X130426193Y-94573493D01*
X130398995Y-94509134D01*
X130410910Y-94440288D01*
X130458154Y-94388812D01*
X130483868Y-94377069D01*
X130526508Y-94363213D01*
X130674219Y-94315220D01*
X130856610Y-94222287D01*
X130949590Y-94154732D01*
X131022213Y-94101971D01*
X131022215Y-94101968D01*
X131022219Y-94101966D01*
X131166966Y-93957219D01*
X131166968Y-93957215D01*
X131166971Y-93957213D01*
X131232226Y-93867395D01*
X131287287Y-93791610D01*
X131380220Y-93609219D01*
X131443477Y-93414534D01*
X131475500Y-93212352D01*
X131475500Y-93007648D01*
X131474892Y-93003812D01*
X131443477Y-92805465D01*
X131397685Y-92664534D01*
X131380220Y-92610781D01*
X131380218Y-92610778D01*
X131380218Y-92610776D01*
X131312529Y-92477931D01*
X131287287Y-92428390D01*
X131247868Y-92374134D01*
X131166971Y-92262786D01*
X131022213Y-92118028D01*
X130856613Y-91997715D01*
X130856612Y-91997714D01*
X130856610Y-91997713D01*
X130796266Y-91966966D01*
X130674223Y-91904781D01*
X130483868Y-91842931D01*
X130426193Y-91803493D01*
X130398995Y-91739134D01*
X130410910Y-91670288D01*
X130458154Y-91618812D01*
X130483868Y-91607069D01*
X130531968Y-91591440D01*
X130674219Y-91545220D01*
X130856610Y-91452287D01*
X130949590Y-91384732D01*
X131022213Y-91331971D01*
X131022215Y-91331968D01*
X131022219Y-91331966D01*
X131166966Y-91187219D01*
X131166968Y-91187215D01*
X131166971Y-91187213D01*
X131228374Y-91102697D01*
X131287287Y-91021610D01*
X131380220Y-90839219D01*
X131443477Y-90644534D01*
X131475500Y-90442352D01*
X131475500Y-90237648D01*
X131473876Y-90227392D01*
X131443477Y-90035465D01*
X131392648Y-89879031D01*
X131380220Y-89840781D01*
X131380218Y-89840778D01*
X131380218Y-89840776D01*
X131324561Y-89731544D01*
X131287287Y-89658390D01*
X131271463Y-89636610D01*
X131166971Y-89492786D01*
X131022213Y-89348028D01*
X130856613Y-89227715D01*
X130856612Y-89227714D01*
X130856610Y-89227713D01*
X130796266Y-89196966D01*
X130674223Y-89134781D01*
X130483868Y-89072931D01*
X130426193Y-89033493D01*
X130398995Y-88969134D01*
X130410910Y-88900288D01*
X130458154Y-88848812D01*
X130483868Y-88837069D01*
X130526508Y-88823213D01*
X130674219Y-88775220D01*
X130856610Y-88682287D01*
X130949590Y-88614732D01*
X131022213Y-88561971D01*
X131022215Y-88561968D01*
X131022219Y-88561966D01*
X131166966Y-88417219D01*
X131166968Y-88417215D01*
X131166971Y-88417213D01*
X131230725Y-88329461D01*
X131287287Y-88251610D01*
X131380220Y-88069219D01*
X131443477Y-87874534D01*
X131475500Y-87672352D01*
X131475500Y-87467648D01*
X131474892Y-87463812D01*
X131443477Y-87265465D01*
X131397685Y-87124534D01*
X131380220Y-87070781D01*
X131380218Y-87070778D01*
X131380218Y-87070776D01*
X131312529Y-86937931D01*
X131287287Y-86888390D01*
X131271463Y-86866610D01*
X131166971Y-86722786D01*
X131022213Y-86578028D01*
X130856613Y-86457715D01*
X130856612Y-86457714D01*
X130856610Y-86457713D01*
X130796266Y-86426966D01*
X130674223Y-86364781D01*
X130483868Y-86302931D01*
X130426193Y-86263493D01*
X130398995Y-86199134D01*
X130410910Y-86130288D01*
X130458154Y-86078812D01*
X130483868Y-86067069D01*
X130526508Y-86053213D01*
X130674219Y-86005220D01*
X130856610Y-85912287D01*
X130949590Y-85844732D01*
X131022213Y-85791971D01*
X131022215Y-85791968D01*
X131022219Y-85791966D01*
X131166966Y-85647219D01*
X131166968Y-85647215D01*
X131166971Y-85647213D01*
X131219732Y-85574590D01*
X131287287Y-85481610D01*
X131380220Y-85299219D01*
X131443477Y-85104534D01*
X131475500Y-84902352D01*
X131475500Y-84697648D01*
X131474892Y-84693812D01*
X131443477Y-84495465D01*
X131396803Y-84351819D01*
X131380220Y-84300781D01*
X131380218Y-84300778D01*
X131380218Y-84300776D01*
X131312529Y-84167931D01*
X131287287Y-84118390D01*
X131247868Y-84064134D01*
X131166971Y-83952786D01*
X131022213Y-83808028D01*
X130856613Y-83687715D01*
X130856612Y-83687714D01*
X130856610Y-83687713D01*
X130796266Y-83656966D01*
X130674223Y-83594781D01*
X130483060Y-83532668D01*
X130425385Y-83493230D01*
X130398187Y-83428871D01*
X130410102Y-83360025D01*
X130457346Y-83308549D01*
X130483061Y-83296806D01*
X130674029Y-83234755D01*
X130856349Y-83141859D01*
X130900921Y-83109474D01*
X130304409Y-82512962D01*
X130367993Y-82495925D01*
X130482007Y-82430099D01*
X130575099Y-82337007D01*
X130640925Y-82222993D01*
X130657962Y-82159410D01*
X131254474Y-82755922D01*
X131254474Y-82755921D01*
X131286859Y-82711349D01*
X131379755Y-82529031D01*
X131442990Y-82334417D01*
X131475000Y-82132317D01*
X131475000Y-81927682D01*
X131442990Y-81725582D01*
X131379755Y-81530968D01*
X131286859Y-81348650D01*
X131254474Y-81304077D01*
X131254474Y-81304076D01*
X130657962Y-81900589D01*
X130640925Y-81837007D01*
X130575099Y-81722993D01*
X130482007Y-81629901D01*
X130367993Y-81564075D01*
X130304408Y-81547037D01*
X130900922Y-80950524D01*
X130900921Y-80950523D01*
X130856359Y-80918147D01*
X130856350Y-80918141D01*
X130674031Y-80825244D01*
X130479417Y-80762009D01*
X130277317Y-80730000D01*
X130072683Y-80730000D01*
X129870582Y-80762009D01*
X129675968Y-80825244D01*
X129493644Y-80918143D01*
X129449077Y-80950523D01*
X129449077Y-80950524D01*
X130045591Y-81547037D01*
X129982007Y-81564075D01*
X129867993Y-81629901D01*
X129774901Y-81722993D01*
X129709075Y-81837007D01*
X129692037Y-81900590D01*
X129095524Y-81304077D01*
X129095523Y-81304077D01*
X129063143Y-81348644D01*
X128970244Y-81530968D01*
X128907009Y-81725582D01*
X128875000Y-81927682D01*
X128875000Y-82132317D01*
X128907009Y-82334417D01*
X128970244Y-82529031D01*
X129063141Y-82711350D01*
X129063147Y-82711359D01*
X129095523Y-82755921D01*
X129095524Y-82755922D01*
X129692037Y-82159409D01*
X129709075Y-82222993D01*
X129774901Y-82337007D01*
X129867993Y-82430099D01*
X129982007Y-82495925D01*
X130045590Y-82512962D01*
X129449076Y-83109474D01*
X129493650Y-83141859D01*
X129675968Y-83234755D01*
X129866939Y-83296806D01*
X129924614Y-83336244D01*
X129951812Y-83400603D01*
X129939897Y-83469449D01*
X129892653Y-83520925D01*
X129866939Y-83532668D01*
X129675776Y-83594781D01*
X129493386Y-83687715D01*
X129327786Y-83808028D01*
X129183028Y-83952786D01*
X129062715Y-84118386D01*
X128969781Y-84300776D01*
X128906522Y-84495465D01*
X128874500Y-84697648D01*
X128874500Y-84902351D01*
X128906522Y-85104534D01*
X128969781Y-85299223D01*
X129062715Y-85481613D01*
X129183028Y-85647213D01*
X129327786Y-85791971D01*
X129482749Y-85904556D01*
X129493390Y-85912287D01*
X129609607Y-85971503D01*
X129675776Y-86005218D01*
X129675778Y-86005218D01*
X129675781Y-86005220D01*
X129754956Y-86030945D01*
X129866131Y-86067069D01*
X129923806Y-86106507D01*
X129951004Y-86170866D01*
X129939089Y-86239712D01*
X129891845Y-86291188D01*
X129866131Y-86302931D01*
X129675776Y-86364781D01*
X129493386Y-86457715D01*
X129327786Y-86578028D01*
X129183033Y-86722781D01*
X129107496Y-86826748D01*
X129076072Y-86856962D01*
X128986699Y-86916681D01*
X128978215Y-86922351D01*
X128965961Y-86930539D01*
X128965958Y-86930542D01*
X128840538Y-87055961D01*
X128840535Y-87055965D01*
X128741990Y-87203446D01*
X128741983Y-87203459D01*
X128674106Y-87367332D01*
X128674103Y-87367341D01*
X128639500Y-87541304D01*
X123825000Y-87541304D01*
X123825000Y-64894000D01*
X123844685Y-64826961D01*
X123897489Y-64781206D01*
X123949000Y-64770000D01*
X214375500Y-64770000D01*
X214442539Y-64789685D01*
G37*
%TD.AperFunction*%
%TD*%
M02*
