%TF.GenerationSoftware,KiCad,Pcbnew,9.0.7*%
%TF.CreationDate,2026-03-17T15:21:45+01:00*%
%TF.ProjectId,SAULink9_TAIT_PLEXER,5341554c-696e-46b3-995f-544149545f50,rev?*%
%TF.SameCoordinates,Original*%
%TF.FileFunction,Soldermask,Top*%
%TF.FilePolarity,Negative*%
%FSLAX46Y46*%
G04 Gerber Fmt 4.6, Leading zero omitted, Abs format (unit mm)*
G04 Created by KiCad (PCBNEW 9.0.7) date 2026-03-17 15:21:45*
%MOMM*%
%LPD*%
G01*
G04 APERTURE LIST*
G04 Aperture macros list*
%AMRoundRect*
0 Rectangle with rounded corners*
0 $1 Rounding radius*
0 $2 $3 $4 $5 $6 $7 $8 $9 X,Y pos of 4 corners*
0 Add a 4 corners polygon primitive as box body*
4,1,4,$2,$3,$4,$5,$6,$7,$8,$9,$2,$3,0*
0 Add four circle primitives for the rounded corners*
1,1,$1+$1,$2,$3*
1,1,$1+$1,$4,$5*
1,1,$1+$1,$6,$7*
1,1,$1+$1,$8,$9*
0 Add four rect primitives between the rounded corners*
20,1,$1+$1,$2,$3,$4,$5,0*
20,1,$1+$1,$4,$5,$6,$7,0*
20,1,$1+$1,$6,$7,$8,$9,0*
20,1,$1+$1,$8,$9,$2,$3,0*%
G04 Aperture macros list end*
%ADD10RoundRect,0.250000X0.250000X0.475000X-0.250000X0.475000X-0.250000X-0.475000X0.250000X-0.475000X0*%
%ADD11RoundRect,0.150000X-0.650000X-0.150000X0.650000X-0.150000X0.650000X0.150000X-0.650000X0.150000X0*%
%ADD12RoundRect,0.243750X-0.243750X-0.456250X0.243750X-0.456250X0.243750X0.456250X-0.243750X0.456250X0*%
%ADD13RoundRect,0.250000X-0.450000X0.262500X-0.450000X-0.262500X0.450000X-0.262500X0.450000X0.262500X0*%
%ADD14RoundRect,0.250000X0.475000X-0.250000X0.475000X0.250000X-0.475000X0.250000X-0.475000X-0.250000X0*%
%ADD15R,1.600000X1.600000*%
%ADD16C,1.600000*%
%ADD17RoundRect,0.250000X-0.475000X0.250000X-0.475000X-0.250000X0.475000X-0.250000X0.475000X0.250000X0*%
%ADD18RoundRect,0.250000X-0.262500X-0.450000X0.262500X-0.450000X0.262500X0.450000X-0.262500X0.450000X0*%
G04 APERTURE END LIST*
D10*
%TO.C,C3*%
X185420000Y-99695000D03*
X183520000Y-99695000D03*
%TD*%
D11*
%TO.C,U1*%
X149225000Y-87630000D03*
X149225000Y-88900000D03*
X149225000Y-90170000D03*
X149225000Y-91440000D03*
X149225000Y-92710000D03*
X149225000Y-93980000D03*
X149225000Y-95250000D03*
X149225000Y-96520000D03*
X155725000Y-96520000D03*
X155725000Y-95250000D03*
X155725000Y-93980000D03*
X155725000Y-92710000D03*
X155725000Y-91440000D03*
X155725000Y-90170000D03*
X155725000Y-88900000D03*
X155725000Y-87630000D03*
%TD*%
D12*
%TO.C,D1*%
X182910000Y-73660000D03*
X184785000Y-73660000D03*
%TD*%
D13*
%TO.C,R1*%
X162560000Y-96920000D03*
X162560000Y-98745000D03*
%TD*%
D14*
%TO.C,C2*%
X175260000Y-90800000D03*
X175260000Y-88900000D03*
%TD*%
D11*
%TO.C,U2*%
X183515000Y-87630000D03*
X183515000Y-88900000D03*
X183515000Y-90170000D03*
X183515000Y-91440000D03*
X183515000Y-92710000D03*
X183515000Y-93980000D03*
X183515000Y-95250000D03*
X183515000Y-96520000D03*
X190015000Y-96520000D03*
X190015000Y-95250000D03*
X190015000Y-93980000D03*
X190015000Y-92710000D03*
X190015000Y-91440000D03*
X190015000Y-90170000D03*
X190015000Y-88900000D03*
X190015000Y-87630000D03*
%TD*%
D15*
%TO.C,J2*%
X132715000Y-100035000D03*
D16*
X132715000Y-97265000D03*
X132715000Y-94495000D03*
X132715000Y-91725000D03*
X132715000Y-88955000D03*
X132715000Y-86185000D03*
X132715000Y-83415000D03*
X132715000Y-80645000D03*
X130175000Y-98650000D03*
X130175000Y-95880000D03*
X130175000Y-93110000D03*
X130175000Y-90340000D03*
X130175000Y-87570000D03*
X130175000Y-84800000D03*
X130175000Y-82030000D03*
%TD*%
D10*
%TO.C,C4*%
X151130000Y-99695000D03*
X149230000Y-99695000D03*
%TD*%
D17*
%TO.C,C1*%
X162560000Y-93030000D03*
X162560000Y-94930000D03*
%TD*%
D15*
%TO.C,J1*%
X162735000Y-73660000D03*
D16*
X165505000Y-73660000D03*
X168275000Y-73660000D03*
X171045000Y-73660000D03*
X173815000Y-73660000D03*
X164120000Y-71120000D03*
X166890000Y-71120000D03*
X169660000Y-71120000D03*
X172430000Y-71120000D03*
%TD*%
D18*
%TO.C,R3*%
X179070000Y-73660000D03*
X180895000Y-73660000D03*
%TD*%
D15*
%TO.C,J3*%
X205105000Y-79895000D03*
D16*
X205105000Y-82665000D03*
X205105000Y-85435000D03*
X205105000Y-88205000D03*
X205105000Y-90975000D03*
X205105000Y-93745000D03*
X205105000Y-96515000D03*
X205105000Y-99285000D03*
X207645000Y-81280000D03*
X207645000Y-84050000D03*
X207645000Y-86820000D03*
X207645000Y-89590000D03*
X207645000Y-92360000D03*
X207645000Y-95130000D03*
X207645000Y-97900000D03*
%TD*%
D13*
%TO.C,R2*%
X175260000Y-92710000D03*
X175260000Y-94535000D03*
%TD*%
M02*
