%TF.GenerationSoftware,KiCad,Pcbnew,9.0.7*%
%TF.CreationDate,2026-03-17T15:21:45+01:00*%
%TF.ProjectId,SAULink9_TAIT_PLEXER,5341554c-696e-46b3-995f-544149545f50,rev?*%
%TF.SameCoordinates,Original*%
%TF.FileFunction,Legend,Bot*%
%TF.FilePolarity,Positive*%
%FSLAX46Y46*%
G04 Gerber Fmt 4.6, Leading zero omitted, Abs format (unit mm)*
G04 Created by KiCad (PCBNEW 9.0.7) date 2026-03-17 15:21:45*
%MOMM*%
%LPD*%
G01*
G04 APERTURE LIST*
%ADD10C,0.375000*%
%ADD11C,0.000000*%
G04 APERTURE END LIST*
D10*
X177775575Y-108968984D02*
X177561290Y-109040412D01*
X177561290Y-109040412D02*
X177204147Y-109040412D01*
X177204147Y-109040412D02*
X177061290Y-108968984D01*
X177061290Y-108968984D02*
X176989861Y-108897555D01*
X176989861Y-108897555D02*
X176918432Y-108754698D01*
X176918432Y-108754698D02*
X176918432Y-108611841D01*
X176918432Y-108611841D02*
X176989861Y-108468984D01*
X176989861Y-108468984D02*
X177061290Y-108397555D01*
X177061290Y-108397555D02*
X177204147Y-108326126D01*
X177204147Y-108326126D02*
X177489861Y-108254698D01*
X177489861Y-108254698D02*
X177632718Y-108183269D01*
X177632718Y-108183269D02*
X177704147Y-108111841D01*
X177704147Y-108111841D02*
X177775575Y-107968984D01*
X177775575Y-107968984D02*
X177775575Y-107826126D01*
X177775575Y-107826126D02*
X177704147Y-107683269D01*
X177704147Y-107683269D02*
X177632718Y-107611841D01*
X177632718Y-107611841D02*
X177489861Y-107540412D01*
X177489861Y-107540412D02*
X177132718Y-107540412D01*
X177132718Y-107540412D02*
X176918432Y-107611841D01*
X176347004Y-108611841D02*
X175632719Y-108611841D01*
X176489861Y-109040412D02*
X175989861Y-107540412D01*
X175989861Y-107540412D02*
X175489861Y-109040412D01*
X174989862Y-107540412D02*
X174989862Y-108754698D01*
X174989862Y-108754698D02*
X174918433Y-108897555D01*
X174918433Y-108897555D02*
X174847005Y-108968984D01*
X174847005Y-108968984D02*
X174704147Y-109040412D01*
X174704147Y-109040412D02*
X174418433Y-109040412D01*
X174418433Y-109040412D02*
X174275576Y-108968984D01*
X174275576Y-108968984D02*
X174204147Y-108897555D01*
X174204147Y-108897555D02*
X174132719Y-108754698D01*
X174132719Y-108754698D02*
X174132719Y-107540412D01*
X172704147Y-109040412D02*
X173418433Y-109040412D01*
X173418433Y-109040412D02*
X173418433Y-107540412D01*
X172204147Y-109040412D02*
X172204147Y-108040412D01*
X172204147Y-107540412D02*
X172275575Y-107611841D01*
X172275575Y-107611841D02*
X172204147Y-107683269D01*
X172204147Y-107683269D02*
X172132718Y-107611841D01*
X172132718Y-107611841D02*
X172204147Y-107540412D01*
X172204147Y-107540412D02*
X172204147Y-107683269D01*
X171489861Y-108040412D02*
X171489861Y-109040412D01*
X171489861Y-108183269D02*
X171418432Y-108111841D01*
X171418432Y-108111841D02*
X171275575Y-108040412D01*
X171275575Y-108040412D02*
X171061289Y-108040412D01*
X171061289Y-108040412D02*
X170918432Y-108111841D01*
X170918432Y-108111841D02*
X170847004Y-108254698D01*
X170847004Y-108254698D02*
X170847004Y-109040412D01*
X170132718Y-109040412D02*
X170132718Y-107540412D01*
X169989861Y-108468984D02*
X169561289Y-109040412D01*
X169561289Y-108040412D02*
X170132718Y-108611841D01*
X168847003Y-109040412D02*
X168561289Y-109040412D01*
X168561289Y-109040412D02*
X168418432Y-108968984D01*
X168418432Y-108968984D02*
X168347003Y-108897555D01*
X168347003Y-108897555D02*
X168204146Y-108683269D01*
X168204146Y-108683269D02*
X168132717Y-108397555D01*
X168132717Y-108397555D02*
X168132717Y-107826126D01*
X168132717Y-107826126D02*
X168204146Y-107683269D01*
X168204146Y-107683269D02*
X168275575Y-107611841D01*
X168275575Y-107611841D02*
X168418432Y-107540412D01*
X168418432Y-107540412D02*
X168704146Y-107540412D01*
X168704146Y-107540412D02*
X168847003Y-107611841D01*
X168847003Y-107611841D02*
X168918432Y-107683269D01*
X168918432Y-107683269D02*
X168989860Y-107826126D01*
X168989860Y-107826126D02*
X168989860Y-108183269D01*
X168989860Y-108183269D02*
X168918432Y-108326126D01*
X168918432Y-108326126D02*
X168847003Y-108397555D01*
X168847003Y-108397555D02*
X168704146Y-108468984D01*
X168704146Y-108468984D02*
X168418432Y-108468984D01*
X168418432Y-108468984D02*
X168275575Y-108397555D01*
X168275575Y-108397555D02*
X168204146Y-108326126D01*
X168204146Y-108326126D02*
X168132717Y-108183269D01*
X167847004Y-109183269D02*
X166704146Y-109183269D01*
X166561289Y-107540412D02*
X165704147Y-107540412D01*
X166132718Y-109040412D02*
X166132718Y-107540412D01*
X165275575Y-108611841D02*
X164561290Y-108611841D01*
X165418432Y-109040412D02*
X164918432Y-107540412D01*
X164918432Y-107540412D02*
X164418432Y-109040412D01*
X163918433Y-109040412D02*
X163918433Y-107540412D01*
X163418432Y-107540412D02*
X162561290Y-107540412D01*
X162989861Y-109040412D02*
X162989861Y-107540412D01*
X162418433Y-109183269D02*
X161275575Y-109183269D01*
X160918433Y-109040412D02*
X160918433Y-107540412D01*
X160918433Y-107540412D02*
X160347004Y-107540412D01*
X160347004Y-107540412D02*
X160204147Y-107611841D01*
X160204147Y-107611841D02*
X160132718Y-107683269D01*
X160132718Y-107683269D02*
X160061290Y-107826126D01*
X160061290Y-107826126D02*
X160061290Y-108040412D01*
X160061290Y-108040412D02*
X160132718Y-108183269D01*
X160132718Y-108183269D02*
X160204147Y-108254698D01*
X160204147Y-108254698D02*
X160347004Y-108326126D01*
X160347004Y-108326126D02*
X160918433Y-108326126D01*
X158704147Y-109040412D02*
X159418433Y-109040412D01*
X159418433Y-109040412D02*
X159418433Y-107540412D01*
X158204147Y-108254698D02*
X157704147Y-108254698D01*
X157489861Y-109040412D02*
X158204147Y-109040412D01*
X158204147Y-109040412D02*
X158204147Y-107540412D01*
X158204147Y-107540412D02*
X157489861Y-107540412D01*
X156989861Y-107540412D02*
X155989861Y-109040412D01*
X155989861Y-107540412D02*
X156989861Y-109040412D01*
X155418433Y-108254698D02*
X154918433Y-108254698D01*
X154704147Y-109040412D02*
X155418433Y-109040412D01*
X155418433Y-109040412D02*
X155418433Y-107540412D01*
X155418433Y-107540412D02*
X154704147Y-107540412D01*
X153204147Y-109040412D02*
X153704147Y-108326126D01*
X154061290Y-109040412D02*
X154061290Y-107540412D01*
X154061290Y-107540412D02*
X153489861Y-107540412D01*
X153489861Y-107540412D02*
X153347004Y-107611841D01*
X153347004Y-107611841D02*
X153275575Y-107683269D01*
X153275575Y-107683269D02*
X153204147Y-107826126D01*
X153204147Y-107826126D02*
X153204147Y-108040412D01*
X153204147Y-108040412D02*
X153275575Y-108183269D01*
X153275575Y-108183269D02*
X153347004Y-108254698D01*
X153347004Y-108254698D02*
X153489861Y-108326126D01*
X153489861Y-108326126D02*
X154061290Y-108326126D01*
X177847004Y-110455328D02*
X177489861Y-111455328D01*
X177489861Y-111455328D02*
X177132718Y-110455328D01*
X175775575Y-111455328D02*
X176632718Y-111455328D01*
X176204147Y-111455328D02*
X176204147Y-109955328D01*
X176204147Y-109955328D02*
X176347004Y-110169614D01*
X176347004Y-110169614D02*
X176489861Y-110312471D01*
X176489861Y-110312471D02*
X176632718Y-110383900D01*
X175132719Y-111312471D02*
X175061290Y-111383900D01*
X175061290Y-111383900D02*
X175132719Y-111455328D01*
X175132719Y-111455328D02*
X175204147Y-111383900D01*
X175204147Y-111383900D02*
X175132719Y-111312471D01*
X175132719Y-111312471D02*
X175132719Y-111455328D01*
X174132718Y-109955328D02*
X173989861Y-109955328D01*
X173989861Y-109955328D02*
X173847004Y-110026757D01*
X173847004Y-110026757D02*
X173775576Y-110098185D01*
X173775576Y-110098185D02*
X173704147Y-110241042D01*
X173704147Y-110241042D02*
X173632718Y-110526757D01*
X173632718Y-110526757D02*
X173632718Y-110883900D01*
X173632718Y-110883900D02*
X173704147Y-111169614D01*
X173704147Y-111169614D02*
X173775576Y-111312471D01*
X173775576Y-111312471D02*
X173847004Y-111383900D01*
X173847004Y-111383900D02*
X173989861Y-111455328D01*
X173989861Y-111455328D02*
X174132718Y-111455328D01*
X174132718Y-111455328D02*
X174275576Y-111383900D01*
X174275576Y-111383900D02*
X174347004Y-111312471D01*
X174347004Y-111312471D02*
X174418433Y-111169614D01*
X174418433Y-111169614D02*
X174489861Y-110883900D01*
X174489861Y-110883900D02*
X174489861Y-110526757D01*
X174489861Y-110526757D02*
X174418433Y-110241042D01*
X174418433Y-110241042D02*
X174347004Y-110098185D01*
X174347004Y-110098185D02*
X174275576Y-110026757D01*
X174275576Y-110026757D02*
X174132718Y-109955328D01*
X171561290Y-109955328D02*
X171418433Y-109955328D01*
X171418433Y-109955328D02*
X171275576Y-110026757D01*
X171275576Y-110026757D02*
X171204148Y-110098185D01*
X171204148Y-110098185D02*
X171132719Y-110241042D01*
X171132719Y-110241042D02*
X171061290Y-110526757D01*
X171061290Y-110526757D02*
X171061290Y-110883900D01*
X171061290Y-110883900D02*
X171132719Y-111169614D01*
X171132719Y-111169614D02*
X171204148Y-111312471D01*
X171204148Y-111312471D02*
X171275576Y-111383900D01*
X171275576Y-111383900D02*
X171418433Y-111455328D01*
X171418433Y-111455328D02*
X171561290Y-111455328D01*
X171561290Y-111455328D02*
X171704148Y-111383900D01*
X171704148Y-111383900D02*
X171775576Y-111312471D01*
X171775576Y-111312471D02*
X171847005Y-111169614D01*
X171847005Y-111169614D02*
X171918433Y-110883900D01*
X171918433Y-110883900D02*
X171918433Y-110526757D01*
X171918433Y-110526757D02*
X171847005Y-110241042D01*
X171847005Y-110241042D02*
X171775576Y-110098185D01*
X171775576Y-110098185D02*
X171704148Y-110026757D01*
X171704148Y-110026757D02*
X171561290Y-109955328D01*
X170561291Y-109955328D02*
X169632719Y-109955328D01*
X169632719Y-109955328D02*
X170132719Y-110526757D01*
X170132719Y-110526757D02*
X169918434Y-110526757D01*
X169918434Y-110526757D02*
X169775577Y-110598185D01*
X169775577Y-110598185D02*
X169704148Y-110669614D01*
X169704148Y-110669614D02*
X169632719Y-110812471D01*
X169632719Y-110812471D02*
X169632719Y-111169614D01*
X169632719Y-111169614D02*
X169704148Y-111312471D01*
X169704148Y-111312471D02*
X169775577Y-111383900D01*
X169775577Y-111383900D02*
X169918434Y-111455328D01*
X169918434Y-111455328D02*
X170347005Y-111455328D01*
X170347005Y-111455328D02*
X170489862Y-111383900D01*
X170489862Y-111383900D02*
X170561291Y-111312471D01*
X167918434Y-109883900D02*
X169204148Y-111812471D01*
X167489862Y-110098185D02*
X167418434Y-110026757D01*
X167418434Y-110026757D02*
X167275577Y-109955328D01*
X167275577Y-109955328D02*
X166918434Y-109955328D01*
X166918434Y-109955328D02*
X166775577Y-110026757D01*
X166775577Y-110026757D02*
X166704148Y-110098185D01*
X166704148Y-110098185D02*
X166632719Y-110241042D01*
X166632719Y-110241042D02*
X166632719Y-110383900D01*
X166632719Y-110383900D02*
X166704148Y-110598185D01*
X166704148Y-110598185D02*
X167561291Y-111455328D01*
X167561291Y-111455328D02*
X166632719Y-111455328D01*
X165704148Y-109955328D02*
X165561291Y-109955328D01*
X165561291Y-109955328D02*
X165418434Y-110026757D01*
X165418434Y-110026757D02*
X165347006Y-110098185D01*
X165347006Y-110098185D02*
X165275577Y-110241042D01*
X165275577Y-110241042D02*
X165204148Y-110526757D01*
X165204148Y-110526757D02*
X165204148Y-110883900D01*
X165204148Y-110883900D02*
X165275577Y-111169614D01*
X165275577Y-111169614D02*
X165347006Y-111312471D01*
X165347006Y-111312471D02*
X165418434Y-111383900D01*
X165418434Y-111383900D02*
X165561291Y-111455328D01*
X165561291Y-111455328D02*
X165704148Y-111455328D01*
X165704148Y-111455328D02*
X165847006Y-111383900D01*
X165847006Y-111383900D02*
X165918434Y-111312471D01*
X165918434Y-111312471D02*
X165989863Y-111169614D01*
X165989863Y-111169614D02*
X166061291Y-110883900D01*
X166061291Y-110883900D02*
X166061291Y-110526757D01*
X166061291Y-110526757D02*
X165989863Y-110241042D01*
X165989863Y-110241042D02*
X165918434Y-110098185D01*
X165918434Y-110098185D02*
X165847006Y-110026757D01*
X165847006Y-110026757D02*
X165704148Y-109955328D01*
X164632720Y-110098185D02*
X164561292Y-110026757D01*
X164561292Y-110026757D02*
X164418435Y-109955328D01*
X164418435Y-109955328D02*
X164061292Y-109955328D01*
X164061292Y-109955328D02*
X163918435Y-110026757D01*
X163918435Y-110026757D02*
X163847006Y-110098185D01*
X163847006Y-110098185D02*
X163775577Y-110241042D01*
X163775577Y-110241042D02*
X163775577Y-110383900D01*
X163775577Y-110383900D02*
X163847006Y-110598185D01*
X163847006Y-110598185D02*
X164704149Y-111455328D01*
X164704149Y-111455328D02*
X163775577Y-111455328D01*
X162489864Y-109955328D02*
X162775578Y-109955328D01*
X162775578Y-109955328D02*
X162918435Y-110026757D01*
X162918435Y-110026757D02*
X162989864Y-110098185D01*
X162989864Y-110098185D02*
X163132721Y-110312471D01*
X163132721Y-110312471D02*
X163204149Y-110598185D01*
X163204149Y-110598185D02*
X163204149Y-111169614D01*
X163204149Y-111169614D02*
X163132721Y-111312471D01*
X163132721Y-111312471D02*
X163061292Y-111383900D01*
X163061292Y-111383900D02*
X162918435Y-111455328D01*
X162918435Y-111455328D02*
X162632721Y-111455328D01*
X162632721Y-111455328D02*
X162489864Y-111383900D01*
X162489864Y-111383900D02*
X162418435Y-111312471D01*
X162418435Y-111312471D02*
X162347006Y-111169614D01*
X162347006Y-111169614D02*
X162347006Y-110812471D01*
X162347006Y-110812471D02*
X162418435Y-110669614D01*
X162418435Y-110669614D02*
X162489864Y-110598185D01*
X162489864Y-110598185D02*
X162632721Y-110526757D01*
X162632721Y-110526757D02*
X162918435Y-110526757D01*
X162918435Y-110526757D02*
X163061292Y-110598185D01*
X163061292Y-110598185D02*
X163132721Y-110669614D01*
X163132721Y-110669614D02*
X163204149Y-110812471D01*
D11*
%TO.C,G1*%
G36*
X182508751Y-113750977D02*
G01*
X182520102Y-113752010D01*
X182620772Y-113776801D01*
X182660455Y-113827712D01*
X182658568Y-113864888D01*
X182618414Y-113887198D01*
X182521102Y-113892888D01*
X182428619Y-113888099D01*
X182380915Y-113865857D01*
X182369398Y-113816153D01*
X182376963Y-113771014D01*
X182416534Y-113749188D01*
X182508751Y-113750977D01*
G37*
G36*
X182617346Y-113484580D02*
G01*
X182697861Y-113493615D01*
X182733678Y-113516095D01*
X182741832Y-113557697D01*
X182737724Y-113590689D01*
X182710618Y-113617527D01*
X182643178Y-113629466D01*
X182518371Y-113632184D01*
X182419397Y-113630815D01*
X182338881Y-113621779D01*
X182303064Y-113599300D01*
X182294911Y-113557697D01*
X182299019Y-113524706D01*
X182326125Y-113497867D01*
X182393564Y-113485928D01*
X182518371Y-113483210D01*
X182617346Y-113484580D01*
G37*
G36*
X182697392Y-113224925D02*
G01*
X182811809Y-113233078D01*
X182872798Y-113248361D01*
X182890805Y-113272165D01*
X182889788Y-113290921D01*
X182875451Y-113337341D01*
X182859283Y-113340950D01*
X182782352Y-113344506D01*
X182657925Y-113344576D01*
X182503017Y-113340992D01*
X182496325Y-113340767D01*
X182325987Y-113332519D01*
X182218385Y-113320326D01*
X182162156Y-113302117D01*
X182145937Y-113275816D01*
X182146747Y-113268572D01*
X182169038Y-113245904D01*
X182230598Y-113231788D01*
X182343139Y-113224548D01*
X182518371Y-113222507D01*
X182519098Y-113222507D01*
X182697392Y-113224925D01*
G37*
G36*
X182702032Y-112925068D02*
G01*
X182841868Y-112927903D01*
X182929966Y-112934892D01*
X182978196Y-112947861D01*
X182998429Y-112968637D01*
X183002536Y-112999046D01*
X182999228Y-113027302D01*
X182980802Y-113048815D01*
X182935374Y-113062368D01*
X182851073Y-113069789D01*
X182716029Y-113072901D01*
X182518371Y-113073533D01*
X182334710Y-113073024D01*
X182194875Y-113070189D01*
X182106777Y-113063200D01*
X182058547Y-113050231D01*
X182038314Y-113029455D01*
X182034207Y-112999046D01*
X182037515Y-112970791D01*
X182055941Y-112949278D01*
X182101369Y-112935724D01*
X182185670Y-112928304D01*
X182320714Y-112925191D01*
X182518371Y-112924559D01*
X182702032Y-112925068D01*
G37*
G36*
X181094233Y-109661437D02*
G01*
X181094856Y-109764716D01*
X181096373Y-110164801D01*
X181095939Y-110495147D01*
X181093476Y-110759587D01*
X181088903Y-110961955D01*
X181082143Y-111106086D01*
X181073115Y-111195813D01*
X181061740Y-111234971D01*
X181047080Y-111247375D01*
X180960059Y-111275582D01*
X180823797Y-111285850D01*
X180775138Y-111284715D01*
X180652909Y-111268179D01*
X180585853Y-111234971D01*
X180582998Y-111230185D01*
X180572176Y-111179628D01*
X180563681Y-111077611D01*
X180557436Y-110920300D01*
X180553360Y-110703861D01*
X180551375Y-110424460D01*
X180551401Y-110078264D01*
X180553360Y-109661437D01*
X180563093Y-108138782D01*
X180823797Y-108138782D01*
X181084500Y-108138782D01*
X181094233Y-109661437D01*
G37*
G36*
X184234959Y-108127541D02*
G01*
X184473650Y-108138782D01*
X184483386Y-109665726D01*
X184484200Y-109805260D01*
X184485486Y-110128182D01*
X184485847Y-110425260D01*
X184485325Y-110688388D01*
X184483961Y-110909458D01*
X184481799Y-111080365D01*
X184478879Y-111193001D01*
X184475244Y-111239259D01*
X184453636Y-111257572D01*
X184374743Y-111277254D01*
X184262872Y-111285549D01*
X184142916Y-111282361D01*
X184039765Y-111267596D01*
X183978313Y-111241158D01*
X183975692Y-111236061D01*
X183966179Y-111172524D01*
X183957753Y-111046721D01*
X183950455Y-110868367D01*
X183944324Y-110647175D01*
X183939401Y-110392858D01*
X183935727Y-110115130D01*
X183933342Y-109823704D01*
X183932287Y-109528293D01*
X183932601Y-109238612D01*
X183934325Y-108964373D01*
X183937500Y-108715290D01*
X183942166Y-108501076D01*
X183948364Y-108331445D01*
X183956133Y-108216110D01*
X183965515Y-108164784D01*
X183991484Y-108144464D01*
X184080645Y-108127141D01*
X184234959Y-108127541D01*
G37*
G36*
X182845531Y-105880201D02*
G01*
X183125596Y-105908924D01*
X183356348Y-105954074D01*
X183397333Y-105965356D01*
X183790222Y-106104159D01*
X184136559Y-106284068D01*
X184430324Y-106500718D01*
X184665496Y-106749744D01*
X184836055Y-107026783D01*
X184844656Y-107045119D01*
X184889968Y-107146716D01*
X184921580Y-107235721D01*
X184942466Y-107329549D01*
X184955598Y-107445613D01*
X184963951Y-107601326D01*
X184970498Y-107814104D01*
X184984781Y-108346024D01*
X185085245Y-108397976D01*
X185272819Y-108531410D01*
X185445734Y-108725706D01*
X185591932Y-108964463D01*
X185702333Y-109232809D01*
X185767857Y-109515874D01*
X185783439Y-109680580D01*
X185764516Y-110004192D01*
X185675558Y-110304038D01*
X185515727Y-110582420D01*
X185284182Y-110841638D01*
X185048197Y-111062389D01*
X184808787Y-111062389D01*
X184569377Y-111062389D01*
X184558757Y-109190908D01*
X184557796Y-109015874D01*
X184555635Y-108611069D01*
X184553283Y-108271451D01*
X184549905Y-107990315D01*
X184544666Y-107760953D01*
X184536732Y-107576661D01*
X184525267Y-107430731D01*
X184509436Y-107316459D01*
X184488405Y-107227137D01*
X184461338Y-107156060D01*
X184427401Y-107096522D01*
X184385758Y-107041817D01*
X184335574Y-106985239D01*
X184276015Y-106920081D01*
X184135753Y-106784209D01*
X183873159Y-106600853D01*
X183570432Y-106456912D01*
X183237921Y-106352356D01*
X182885981Y-106287156D01*
X182524963Y-106261283D01*
X182165220Y-106274705D01*
X181817104Y-106327394D01*
X181490966Y-106419320D01*
X181197161Y-106550453D01*
X180946038Y-106720763D01*
X180747952Y-106930221D01*
X180699318Y-106996535D01*
X180651320Y-107065544D01*
X180611466Y-107132882D01*
X180578986Y-107205471D01*
X180553110Y-107290235D01*
X180533071Y-107394098D01*
X180518097Y-107523982D01*
X180507421Y-107686812D01*
X180500271Y-107889511D01*
X180495880Y-108139002D01*
X180493477Y-108442208D01*
X180492294Y-108806054D01*
X180491561Y-109237463D01*
X180488606Y-111043768D01*
X180269988Y-111055070D01*
X180097917Y-111046422D01*
X179942165Y-110993167D01*
X179793999Y-110886432D01*
X179637520Y-110717736D01*
X179549973Y-110600379D01*
X179392285Y-110307469D01*
X179296832Y-109992512D01*
X179265360Y-109667902D01*
X179299611Y-109346033D01*
X179401331Y-109039299D01*
X179449830Y-108947278D01*
X179563315Y-108779593D01*
X179698426Y-108619870D01*
X179837569Y-108488007D01*
X179963150Y-108403903D01*
X180090724Y-108343366D01*
X180103448Y-107792052D01*
X180107024Y-107642833D01*
X180112975Y-107469204D01*
X180122353Y-107341914D01*
X180138247Y-107244063D01*
X180163747Y-107158749D01*
X180201945Y-107069071D01*
X180255930Y-106958126D01*
X180355302Y-106783923D01*
X180578384Y-106508303D01*
X180858881Y-106275908D01*
X181192662Y-106089885D01*
X181575594Y-105953377D01*
X181677237Y-105929738D01*
X181932006Y-105892671D01*
X182226482Y-105872066D01*
X182538408Y-105867912D01*
X182845531Y-105880201D01*
G37*
G36*
X183022189Y-107210430D02*
G01*
X182944854Y-107359246D01*
X182853562Y-107532114D01*
X182592858Y-108022220D01*
X182592858Y-108587754D01*
X182592858Y-109153289D01*
X182762772Y-109172441D01*
X182860693Y-109193127D01*
X182989524Y-109253356D01*
X183080069Y-109336786D01*
X183114266Y-109430172D01*
X183094540Y-109495476D01*
X183038266Y-109574166D01*
X182967827Y-109644605D01*
X182962266Y-109650166D01*
X183038266Y-109746784D01*
X183057754Y-109772170D01*
X183105619Y-109856219D01*
X183098256Y-109924675D01*
X183035349Y-110005668D01*
X182956432Y-110089671D01*
X182971282Y-110108549D01*
X183035349Y-110189997D01*
X183070367Y-110236236D01*
X183107261Y-110309737D01*
X183090666Y-110372465D01*
X183018739Y-110453677D01*
X182995256Y-110477258D01*
X182949258Y-110531141D01*
X182950036Y-110540982D01*
X182951916Y-110564756D01*
X183000118Y-110603069D01*
X183037270Y-110638640D01*
X183075713Y-110737477D01*
X183060833Y-110845359D01*
X182993225Y-110933788D01*
X182958565Y-110967880D01*
X182941573Y-110984593D01*
X182956765Y-111013752D01*
X183002765Y-111046902D01*
X183058613Y-111133660D01*
X183088624Y-111235605D01*
X183079239Y-111318951D01*
X183073597Y-111327894D01*
X183003779Y-111387669D01*
X182893793Y-111446539D01*
X182771958Y-111491440D01*
X182666591Y-111509310D01*
X182651655Y-111509997D01*
X182627898Y-111519628D01*
X182611578Y-111549337D01*
X182601303Y-111610005D01*
X182595685Y-111712515D01*
X182593333Y-111867747D01*
X182592858Y-112086583D01*
X182592858Y-112663856D01*
X182853562Y-112663856D01*
X182877638Y-112663883D01*
X183005101Y-112666584D01*
X183076387Y-112676970D01*
X183107456Y-112699658D01*
X183114266Y-112739265D01*
X183112779Y-112761232D01*
X183100777Y-112782885D01*
X183067561Y-112797227D01*
X183002481Y-112805405D01*
X182894883Y-112808569D01*
X182734118Y-112807864D01*
X182509534Y-112804441D01*
X182478314Y-112803904D01*
X182259563Y-112799227D01*
X182103408Y-112793228D01*
X181999241Y-112784639D01*
X181936455Y-112772191D01*
X181904443Y-112754615D01*
X181892597Y-112730642D01*
X181892022Y-112727384D01*
X181897408Y-112695666D01*
X181935357Y-112675772D01*
X182019842Y-112663876D01*
X182164839Y-112656155D01*
X182449286Y-112645234D01*
X182455896Y-112012096D01*
X182462506Y-111378958D01*
X182648723Y-111357022D01*
X182786623Y-111336698D01*
X182903530Y-111303745D01*
X182951295Y-111260511D01*
X182932871Y-111203686D01*
X182851214Y-111129956D01*
X182794898Y-111094848D01*
X182721359Y-111081571D01*
X182616206Y-111102773D01*
X182547031Y-111118070D01*
X182401300Y-111138538D01*
X182250238Y-111149203D01*
X182209836Y-111150082D01*
X182091944Y-111145739D01*
X182020973Y-111125162D01*
X181975497Y-111083204D01*
X181934912Y-111021134D01*
X181931538Y-110987903D01*
X182071450Y-110987903D01*
X182100095Y-111009876D01*
X182177693Y-111021992D01*
X182278273Y-111022368D01*
X182375712Y-111011005D01*
X182443885Y-110987903D01*
X182455123Y-110967880D01*
X182404989Y-110955411D01*
X182285600Y-110951229D01*
X182192964Y-110954635D01*
X182105244Y-110967897D01*
X182071450Y-110987903D01*
X181931538Y-110987903D01*
X181929422Y-110967070D01*
X181970338Y-110899442D01*
X182044601Y-110845642D01*
X182178475Y-110815552D01*
X182352052Y-110817701D01*
X182550356Y-110853279D01*
X182675542Y-110883266D01*
X182759153Y-110894168D01*
X182817428Y-110884072D01*
X182873971Y-110852955D01*
X182902649Y-110833252D01*
X182956714Y-110776974D01*
X182941542Y-110727808D01*
X182855795Y-110672489D01*
X182799710Y-110647101D01*
X182733672Y-110634804D01*
X182647685Y-110643990D01*
X182516117Y-110674835D01*
X182429551Y-110694368D01*
X182230290Y-110713312D01*
X182079518Y-110684889D01*
X181982222Y-110609706D01*
X181949649Y-110540982D01*
X182108694Y-110540982D01*
X182115870Y-110551812D01*
X182174906Y-110570736D01*
X182274091Y-110578225D01*
X182319836Y-110576823D01*
X182414266Y-110563610D01*
X182462506Y-110540982D01*
X182461768Y-110528135D01*
X182409292Y-110510194D01*
X182297109Y-110503738D01*
X182228009Y-110506347D01*
X182142212Y-110519842D01*
X182108694Y-110540982D01*
X181949649Y-110540982D01*
X181946380Y-110534084D01*
X181965617Y-110459218D01*
X182056630Y-110397053D01*
X182082892Y-110386042D01*
X182206332Y-110358724D01*
X182357646Y-110365685D01*
X182555756Y-110407316D01*
X182609564Y-110420805D01*
X182715615Y-110440142D01*
X182790232Y-110435357D01*
X182861819Y-110406360D01*
X182884865Y-110393935D01*
X182952893Y-110339223D01*
X182948700Y-110285507D01*
X182872969Y-110221503D01*
X182841233Y-110201829D01*
X182783642Y-110180652D01*
X182714781Y-110186955D01*
X182605631Y-110220644D01*
X182554433Y-110236720D01*
X182382663Y-110271676D01*
X182224602Y-110278055D01*
X182090318Y-110259395D01*
X181989882Y-110219235D01*
X181933361Y-110161112D01*
X181931730Y-110114436D01*
X182084849Y-110114436D01*
X182130576Y-110146023D01*
X182144205Y-110150895D01*
X182202961Y-110162075D01*
X182285562Y-110159168D01*
X182416583Y-110141811D01*
X182462985Y-110132138D01*
X182502389Y-110108549D01*
X182481554Y-110083971D01*
X182409416Y-110064646D01*
X182294911Y-110056818D01*
X182178428Y-110064638D01*
X182103993Y-110085574D01*
X182084849Y-110114436D01*
X181931730Y-110114436D01*
X181930826Y-110088565D01*
X181992344Y-110005133D01*
X181997055Y-110000972D01*
X182129458Y-109935685D01*
X182315772Y-109921408D01*
X182555615Y-109958174D01*
X182669229Y-109983081D01*
X182763483Y-109995682D01*
X182826736Y-109988085D01*
X182881494Y-109960447D01*
X182891265Y-109953986D01*
X182954956Y-109893743D01*
X182947008Y-109840419D01*
X182866577Y-109784014D01*
X182792905Y-109754936D01*
X182714349Y-109754275D01*
X182599954Y-109782824D01*
X182427515Y-109821592D01*
X182246563Y-109833456D01*
X182097040Y-109812310D01*
X181996964Y-109758870D01*
X181939506Y-109690198D01*
X181932248Y-109642906D01*
X182092689Y-109642906D01*
X182099200Y-109669377D01*
X182155667Y-109698262D01*
X182213119Y-109710638D01*
X182276289Y-109715538D01*
X182348002Y-109705265D01*
X182450208Y-109686147D01*
X182496193Y-109667229D01*
X182498183Y-109644605D01*
X182495442Y-109641277D01*
X182439803Y-109621615D01*
X182342969Y-109611826D01*
X182233679Y-109612031D01*
X182140672Y-109622351D01*
X182092689Y-109642906D01*
X181932248Y-109642906D01*
X181929753Y-109626647D01*
X181979539Y-109558155D01*
X182008605Y-109533742D01*
X182141149Y-109481889D01*
X182321970Y-109476083D01*
X182542688Y-109516938D01*
X182630794Y-109539702D01*
X182739048Y-109560018D01*
X182812846Y-109557722D01*
X182874861Y-109533977D01*
X182946469Y-109480404D01*
X182965717Y-109417925D01*
X182919675Y-109361025D01*
X182813237Y-109315136D01*
X182651296Y-109285692D01*
X182443885Y-109264285D01*
X182443885Y-108642171D01*
X182443885Y-108020056D01*
X182183181Y-107542888D01*
X182143556Y-107469997D01*
X182056380Y-107306809D01*
X181990508Y-107179765D01*
X182152412Y-107179765D01*
X182152750Y-107180500D01*
X182176521Y-107227884D01*
X182224396Y-107321008D01*
X182286404Y-107440469D01*
X182291201Y-107449646D01*
X182352785Y-107562644D01*
X182401011Y-107642785D01*
X182425799Y-107673240D01*
X182426517Y-107673036D01*
X182435294Y-107634158D01*
X182441519Y-107541043D01*
X182443885Y-107412536D01*
X182443885Y-107151832D01*
X182592858Y-107151832D01*
X182592858Y-107412536D01*
X182592867Y-107422865D01*
X182594475Y-107549399D01*
X182598326Y-107639139D01*
X182603642Y-107673240D01*
X182606369Y-107670876D01*
X182635656Y-107625455D01*
X182688312Y-107534127D01*
X182755239Y-107412536D01*
X182896051Y-107151832D01*
X182744455Y-107151832D01*
X182592858Y-107151832D01*
X182443885Y-107151832D01*
X182291807Y-107151832D01*
X182254309Y-107152716D01*
X182177135Y-107162547D01*
X182152412Y-107179765D01*
X181990508Y-107179765D01*
X181986232Y-107171518D01*
X181939476Y-107076539D01*
X181922477Y-107034289D01*
X181937537Y-107027275D01*
X182014294Y-107017579D01*
X182144995Y-107009839D01*
X182317175Y-107004713D01*
X182518371Y-107002859D01*
X182651347Y-107003353D01*
X182835176Y-107005875D01*
X182981916Y-107010168D01*
X183079101Y-107015824D01*
X183114266Y-107022434D01*
X183110477Y-107032881D01*
X183079440Y-107097648D01*
X183051935Y-107151832D01*
X183022189Y-107210430D01*
G37*
%TD*%
M02*
