G04 #@! TF.GenerationSoftware,KiCad,Pcbnew,8.0.0*
G04 #@! TF.CreationDate,2024-09-16T09:54:47+02:00*
G04 #@! TF.ProjectId,SVXLink_PiHat_V1,5356584c-696e-46b5-9f50-694861745f56,rev?*
G04 #@! TF.SameCoordinates,Original*
G04 #@! TF.FileFunction,Copper,L1,Top*
G04 #@! TF.FilePolarity,Positive*
%FSLAX46Y46*%
G04 Gerber Fmt 4.6, Leading zero omitted, Abs format (unit mm)*
G04 Created by KiCad (PCBNEW 8.0.0) date 2024-09-16 09:54:47*
%MOMM*%
%LPD*%
G01*
G04 APERTURE LIST*
G04 Aperture macros list*
%AMRoundRect*
0 Rectangle with rounded corners*
0 $1 Rounding radius*
0 $2 $3 $4 $5 $6 $7 $8 $9 X,Y pos of 4 corners*
0 Add a 4 corners polygon primitive as box body*
4,1,4,$2,$3,$4,$5,$6,$7,$8,$9,$2,$3,0*
0 Add four circle primitives for the rounded corners*
1,1,$1+$1,$2,$3*
1,1,$1+$1,$4,$5*
1,1,$1+$1,$6,$7*
1,1,$1+$1,$8,$9*
0 Add four rect primitives between the rounded corners*
20,1,$1+$1,$2,$3,$4,$5,0*
20,1,$1+$1,$4,$5,$6,$7,0*
20,1,$1+$1,$6,$7,$8,$9,0*
20,1,$1+$1,$8,$9,$2,$3,0*%
G04 Aperture macros list end*
G04 #@! TA.AperFunction,ComponentPad*
%ADD10R,1.700000X1.700000*%
G04 #@! TD*
G04 #@! TA.AperFunction,ComponentPad*
%ADD11O,1.700000X1.700000*%
G04 #@! TD*
G04 #@! TA.AperFunction,SMDPad,CuDef*
%ADD12RoundRect,0.250000X-0.350000X-0.450000X0.350000X-0.450000X0.350000X0.450000X-0.350000X0.450000X0*%
G04 #@! TD*
G04 #@! TA.AperFunction,ComponentPad*
%ADD13C,2.000000*%
G04 #@! TD*
G04 #@! TA.AperFunction,ComponentPad*
%ADD14C,2.700000*%
G04 #@! TD*
G04 #@! TA.AperFunction,SMDPad,CuDef*
%ADD15RoundRect,0.150000X-0.587500X-0.150000X0.587500X-0.150000X0.587500X0.150000X-0.587500X0.150000X0*%
G04 #@! TD*
G04 #@! TA.AperFunction,ComponentPad*
%ADD16R,1.600000X1.600000*%
G04 #@! TD*
G04 #@! TA.AperFunction,ComponentPad*
%ADD17O,1.600000X1.600000*%
G04 #@! TD*
G04 #@! TA.AperFunction,SMDPad,CuDef*
%ADD18RoundRect,0.250000X0.450000X-0.350000X0.450000X0.350000X-0.450000X0.350000X-0.450000X-0.350000X0*%
G04 #@! TD*
G04 #@! TA.AperFunction,SMDPad,CuDef*
%ADD19RoundRect,0.250000X0.350000X0.450000X-0.350000X0.450000X-0.350000X-0.450000X0.350000X-0.450000X0*%
G04 #@! TD*
G04 #@! TA.AperFunction,ViaPad*
%ADD20C,0.800000*%
G04 #@! TD*
G04 #@! TA.AperFunction,Conductor*
%ADD21C,0.250000*%
G04 #@! TD*
G04 #@! TA.AperFunction,Conductor*
%ADD22C,0.500000*%
G04 #@! TD*
G04 APERTURE END LIST*
D10*
X85400000Y-60350000D03*
D11*
X85400000Y-57810000D03*
X87940000Y-60350000D03*
X87940000Y-57810000D03*
X90480000Y-60350000D03*
X90480000Y-57810000D03*
X93020000Y-60350000D03*
X93020000Y-57810000D03*
X95560000Y-60350000D03*
X95560000Y-57810000D03*
X98100000Y-60350000D03*
X98100000Y-57810000D03*
X100640000Y-60350000D03*
X100640000Y-57810000D03*
X103180000Y-60350000D03*
X103180000Y-57810000D03*
X105720000Y-60350000D03*
X105720000Y-57810000D03*
X108260000Y-60350000D03*
X108260000Y-57810000D03*
X110800000Y-60350000D03*
X110800000Y-57810000D03*
X113340000Y-60350000D03*
X113340000Y-57810000D03*
X115880000Y-60350000D03*
X115880000Y-57810000D03*
X118420000Y-60350000D03*
X118420000Y-57810000D03*
X120960000Y-60350000D03*
X120960000Y-57810000D03*
X123500000Y-60350000D03*
X123500000Y-57810000D03*
X126040000Y-60350000D03*
X126040000Y-57810000D03*
X128580000Y-60350000D03*
X128580000Y-57810000D03*
X131120000Y-60350000D03*
X131120000Y-57810000D03*
X133660000Y-60350000D03*
X133660000Y-57810000D03*
D12*
X107710000Y-90640000D03*
X109710000Y-90640000D03*
D13*
X87630000Y-99060000D03*
X87630000Y-101600000D03*
X97790000Y-96520000D03*
X92710000Y-88519000D03*
D14*
X80497700Y-59009300D03*
D13*
X95250000Y-96520000D03*
D15*
X121945000Y-102590000D03*
X121945000Y-104490000D03*
X123820000Y-103540000D03*
D13*
X82550000Y-99060000D03*
X95250000Y-88519000D03*
X90170000Y-91059000D03*
X90170000Y-93980000D03*
D16*
X113080800Y-87299800D03*
D17*
X113080800Y-84759800D03*
X113080800Y-82219800D03*
X105460800Y-82219800D03*
X105460800Y-84759800D03*
X105460800Y-87299800D03*
D12*
X117450000Y-102440000D03*
X119450000Y-102440000D03*
D13*
X87630000Y-93980000D03*
X82550000Y-93980000D03*
X90170000Y-96520000D03*
D10*
X90582600Y-81635600D03*
D11*
X90582600Y-79095600D03*
X90582600Y-76555600D03*
D13*
X92710000Y-93980000D03*
D10*
X127806600Y-95905400D03*
D11*
X127806600Y-98445400D03*
D18*
X106300000Y-68296000D03*
X106300000Y-66296000D03*
D13*
X92710000Y-91059000D03*
X82550000Y-101600000D03*
X87630000Y-91059000D03*
D14*
X80497700Y-108509300D03*
D13*
X82550000Y-91059000D03*
X95250000Y-101600000D03*
X92710000Y-101600000D03*
D14*
X138497700Y-108509300D03*
D13*
X90170000Y-99060000D03*
X85090000Y-101600000D03*
X87630000Y-88519000D03*
X90170000Y-88519000D03*
X97790000Y-93980000D03*
X97790000Y-99060000D03*
X85090000Y-93980000D03*
X92710000Y-99060000D03*
D14*
X138497700Y-59009300D03*
D19*
X115080000Y-90630000D03*
X113080000Y-90630000D03*
D13*
X92710000Y-96520000D03*
X90170000Y-101600000D03*
X97790000Y-88519000D03*
D18*
X104030000Y-68286000D03*
X104030000Y-66286000D03*
D13*
X95250000Y-99060000D03*
X85090000Y-88519000D03*
X82550000Y-96520000D03*
X95250000Y-93980000D03*
X85090000Y-96520000D03*
X85090000Y-99060000D03*
D10*
X127882800Y-84132500D03*
D11*
X127882800Y-86672500D03*
D10*
X127863600Y-66611500D03*
D11*
X127863600Y-69151500D03*
X127863600Y-71691500D03*
X127863600Y-74231500D03*
X127863600Y-76771500D03*
X127863600Y-79311500D03*
D13*
X87630000Y-96520000D03*
D10*
X90608000Y-71841600D03*
D11*
X90608000Y-69301600D03*
X90608000Y-66761600D03*
D13*
X82550000Y-88519000D03*
X95250000Y-91059000D03*
X85090000Y-91059000D03*
D19*
X119430000Y-104640000D03*
X117430000Y-104640000D03*
D13*
X97790000Y-91059000D03*
X97790000Y-101600000D03*
D20*
X108102400Y-96113600D03*
X116433600Y-87934800D03*
X129286000Y-70408800D03*
X108051600Y-83667600D03*
X129286000Y-72999600D03*
X129286000Y-75488800D03*
X116332000Y-93878400D03*
X106832400Y-81127600D03*
X104038400Y-64516000D03*
D21*
X89458800Y-64516000D02*
X88900000Y-65074800D01*
X104038400Y-64516000D02*
X89458800Y-64516000D01*
X104038400Y-64516000D02*
X104030000Y-64524400D01*
X104030000Y-64524400D02*
X104030000Y-66286000D01*
X88900000Y-65074800D02*
X88900000Y-68986400D01*
X88900000Y-68986400D02*
X89215200Y-69301600D01*
X89215200Y-69301600D02*
X90608000Y-69301600D01*
D22*
X82550000Y-88519000D02*
X85090000Y-88519000D01*
D21*
X127863600Y-66611500D02*
X125514100Y-66611500D01*
D22*
X95250000Y-88519000D02*
X97790000Y-88519000D01*
D21*
X92801200Y-71841600D02*
X90608000Y-71841600D01*
X87940000Y-57810000D02*
X85400000Y-57810000D01*
X125514100Y-66611500D02*
X125425200Y-66700400D01*
D22*
X92710000Y-88519000D02*
X95250000Y-88519000D01*
D21*
X104945000Y-67371000D02*
X104030000Y-68286000D01*
X107035700Y-67411600D02*
X106995100Y-67371000D01*
X125323600Y-67411600D02*
X107035700Y-67411600D01*
X125425200Y-67310000D02*
X125323600Y-67411600D01*
X103968400Y-68224400D02*
X93421200Y-68224400D01*
X104030000Y-68286000D02*
X103968400Y-68224400D01*
D22*
X85090000Y-88519000D02*
X87630000Y-88519000D01*
D21*
X92964000Y-71678800D02*
X92801200Y-71841600D01*
X106995100Y-67371000D02*
X104945000Y-67371000D01*
D22*
X87630000Y-88519000D02*
X90170000Y-88519000D01*
D21*
X93421200Y-68224400D02*
X92964000Y-68681600D01*
D22*
X90170000Y-88519000D02*
X92710000Y-88519000D01*
D21*
X125425200Y-66700400D02*
X125425200Y-67310000D01*
X92964000Y-68681600D02*
X92964000Y-71678800D01*
X116613200Y-102440000D02*
X117450000Y-102440000D01*
X116332000Y-102158800D02*
X116613200Y-102440000D01*
X116332000Y-93878400D02*
X116332000Y-102158800D01*
X104800400Y-59080400D02*
X86669600Y-59080400D01*
X86669600Y-59080400D02*
X85400000Y-60350000D01*
X106832400Y-81127600D02*
X109321600Y-81127600D01*
X105720000Y-60350000D02*
X105720000Y-60000000D01*
X105720000Y-60000000D02*
X104800400Y-59080400D01*
X109321600Y-81127600D02*
X109710000Y-81516000D01*
X109710000Y-81516000D02*
X109710000Y-90640000D01*
X87071200Y-61722000D02*
X90119200Y-61722000D01*
X90582600Y-76555600D02*
X87122000Y-76555600D01*
X90480000Y-61361200D02*
X90480000Y-60350000D01*
X86817200Y-61976000D02*
X87071200Y-61722000D01*
X86817200Y-76250800D02*
X86817200Y-61976000D01*
X87122000Y-76555600D02*
X86817200Y-76250800D01*
X90119200Y-61722000D02*
X90480000Y-61361200D01*
X106300000Y-61951600D02*
X106070400Y-61722000D01*
X98100000Y-61422400D02*
X98100000Y-60350000D01*
X106300000Y-66296000D02*
X106300000Y-61951600D01*
X98399600Y-61722000D02*
X98100000Y-61422400D01*
X106070400Y-61722000D02*
X98399600Y-61722000D01*
X116433600Y-82143600D02*
X116433600Y-84480400D01*
X116433600Y-84480400D02*
X116154200Y-84759800D01*
X116154200Y-84759800D02*
X113080800Y-84759800D01*
X129430700Y-86672500D02*
X129844800Y-86258400D01*
X116687600Y-81889600D02*
X116433600Y-82143600D01*
X129336800Y-81889600D02*
X116687600Y-81889600D01*
X129844800Y-82397600D02*
X129336800Y-81889600D01*
X127882800Y-86672500D02*
X129430700Y-86672500D01*
X129844800Y-86258400D02*
X129844800Y-82397600D01*
X125476000Y-84378800D02*
X125722300Y-84132500D01*
X125168400Y-90630000D02*
X125476000Y-90322400D01*
X125722300Y-84132500D02*
X127882800Y-84132500D01*
X115080000Y-90630000D02*
X125168400Y-90630000D01*
X125476000Y-90322400D02*
X125476000Y-84378800D01*
X105867200Y-70154800D02*
X106300000Y-69722000D01*
X92964000Y-80619600D02*
X93167200Y-80416400D01*
X93167200Y-80416400D02*
X101854000Y-80416400D01*
X90582600Y-81635600D02*
X92811600Y-81635600D01*
X102463600Y-70154800D02*
X105867200Y-70154800D01*
X102057200Y-80213200D02*
X102057200Y-70561200D01*
X92811600Y-81635600D02*
X92964000Y-81483200D01*
X102057200Y-70561200D02*
X102463600Y-70154800D01*
X106300000Y-69722000D02*
X106300000Y-68296000D01*
X101854000Y-80416400D02*
X102057200Y-80213200D01*
X92964000Y-81483200D02*
X92964000Y-80619600D01*
X127806600Y-103130200D02*
X127396800Y-103540000D01*
X127396800Y-103540000D02*
X123820000Y-103540000D01*
X127806600Y-98445400D02*
X127806600Y-103130200D01*
X119430000Y-102460000D02*
X119450000Y-102440000D01*
X121945000Y-102590000D02*
X119600000Y-102590000D01*
X119600000Y-102590000D02*
X119450000Y-102440000D01*
X119430000Y-104640000D02*
X119430000Y-102460000D01*
X113080800Y-87299800D02*
X113080800Y-88426500D01*
X113080000Y-88427300D02*
X113080800Y-88426500D01*
X113080000Y-90630000D02*
X113080000Y-88427300D01*
X107710000Y-85002400D02*
X107710000Y-90640000D01*
X105460800Y-84759800D02*
X107467400Y-84759800D01*
X107467400Y-84759800D02*
X107710000Y-85002400D01*
G04 #@! TA.AperFunction,Conductor*
G36*
X84624075Y-91251993D02*
G01*
X84689901Y-91366007D01*
X84782993Y-91459099D01*
X84897007Y-91524925D01*
X84960590Y-91541962D01*
X84219942Y-92282609D01*
X84266768Y-92319055D01*
X84266770Y-92319056D01*
X84424110Y-92404204D01*
X84473701Y-92453423D01*
X84488809Y-92521640D01*
X84464639Y-92587196D01*
X84412552Y-92627818D01*
X84403035Y-92631760D01*
X84200589Y-92755820D01*
X84200586Y-92755821D01*
X84020031Y-92910031D01*
X83914290Y-93033838D01*
X83855783Y-93072031D01*
X83785915Y-93072529D01*
X83726869Y-93035176D01*
X83725710Y-93033838D01*
X83705013Y-93009605D01*
X83619969Y-92910031D01*
X83500596Y-92808076D01*
X83439413Y-92755821D01*
X83439410Y-92755820D01*
X83236963Y-92631760D01*
X83227450Y-92627819D01*
X83173048Y-92583976D01*
X83150985Y-92517681D01*
X83168266Y-92449983D01*
X83215889Y-92404204D01*
X83373228Y-92319057D01*
X83373231Y-92319055D01*
X83420056Y-92282609D01*
X82679409Y-91541962D01*
X82742993Y-91524925D01*
X82857007Y-91459099D01*
X82950099Y-91366007D01*
X83015925Y-91251993D01*
X83032962Y-91188409D01*
X83773433Y-91928881D01*
X83807211Y-91925379D01*
X83832794Y-91925380D01*
X83866564Y-91928882D01*
X84607037Y-91188409D01*
X84624075Y-91251993D01*
G37*
G04 #@! TD.AperFunction*
G04 #@! TA.AperFunction,Conductor*
G36*
X87164075Y-91251993D02*
G01*
X87229901Y-91366007D01*
X87322993Y-91459099D01*
X87437007Y-91524925D01*
X87500590Y-91541962D01*
X86759942Y-92282609D01*
X86806768Y-92319055D01*
X86806770Y-92319056D01*
X86964110Y-92404204D01*
X87013701Y-92453423D01*
X87028809Y-92521640D01*
X87004639Y-92587196D01*
X86952552Y-92627818D01*
X86943035Y-92631760D01*
X86740589Y-92755820D01*
X86740586Y-92755821D01*
X86560031Y-92910031D01*
X86454290Y-93033838D01*
X86395783Y-93072031D01*
X86325915Y-93072529D01*
X86266869Y-93035176D01*
X86265710Y-93033838D01*
X86245013Y-93009605D01*
X86159969Y-92910031D01*
X86040596Y-92808076D01*
X85979413Y-92755821D01*
X85979410Y-92755820D01*
X85776963Y-92631760D01*
X85767450Y-92627819D01*
X85713048Y-92583976D01*
X85690985Y-92517681D01*
X85708266Y-92449983D01*
X85755889Y-92404204D01*
X85913228Y-92319057D01*
X85913231Y-92319055D01*
X85960056Y-92282609D01*
X85219409Y-91541962D01*
X85282993Y-91524925D01*
X85397007Y-91459099D01*
X85490099Y-91366007D01*
X85555925Y-91251993D01*
X85572962Y-91188410D01*
X86313433Y-91928881D01*
X86347211Y-91925379D01*
X86372794Y-91925380D01*
X86406564Y-91928882D01*
X87147037Y-91188409D01*
X87164075Y-91251993D01*
G37*
G04 #@! TD.AperFunction*
G04 #@! TA.AperFunction,Conductor*
G36*
X89704075Y-91251993D02*
G01*
X89769901Y-91366007D01*
X89862993Y-91459099D01*
X89977007Y-91524925D01*
X90040590Y-91541962D01*
X89299942Y-92282609D01*
X89346768Y-92319055D01*
X89346770Y-92319056D01*
X89504110Y-92404204D01*
X89553701Y-92453423D01*
X89568809Y-92521640D01*
X89544639Y-92587196D01*
X89492552Y-92627818D01*
X89483035Y-92631760D01*
X89280589Y-92755820D01*
X89280586Y-92755821D01*
X89100031Y-92910031D01*
X88994290Y-93033838D01*
X88935783Y-93072031D01*
X88865915Y-93072529D01*
X88806869Y-93035176D01*
X88805710Y-93033838D01*
X88785013Y-93009605D01*
X88699969Y-92910031D01*
X88580596Y-92808076D01*
X88519413Y-92755821D01*
X88519410Y-92755820D01*
X88316963Y-92631760D01*
X88307450Y-92627819D01*
X88253048Y-92583976D01*
X88230985Y-92517681D01*
X88248266Y-92449983D01*
X88295889Y-92404204D01*
X88453228Y-92319057D01*
X88453231Y-92319055D01*
X88500056Y-92282609D01*
X87759409Y-91541962D01*
X87822993Y-91524925D01*
X87937007Y-91459099D01*
X88030099Y-91366007D01*
X88095925Y-91251993D01*
X88112962Y-91188410D01*
X88853433Y-91928881D01*
X88887211Y-91925379D01*
X88912794Y-91925380D01*
X88946564Y-91928882D01*
X89687037Y-91188409D01*
X89704075Y-91251993D01*
G37*
G04 #@! TD.AperFunction*
G04 #@! TA.AperFunction,Conductor*
G36*
X92244075Y-91251993D02*
G01*
X92309901Y-91366007D01*
X92402993Y-91459099D01*
X92517007Y-91524925D01*
X92580590Y-91541962D01*
X91839942Y-92282609D01*
X91886768Y-92319055D01*
X91886770Y-92319056D01*
X92044110Y-92404204D01*
X92093701Y-92453423D01*
X92108809Y-92521640D01*
X92084639Y-92587196D01*
X92032552Y-92627818D01*
X92023035Y-92631760D01*
X91820589Y-92755820D01*
X91820586Y-92755821D01*
X91640031Y-92910031D01*
X91534290Y-93033838D01*
X91475783Y-93072031D01*
X91405915Y-93072529D01*
X91346869Y-93035176D01*
X91345710Y-93033838D01*
X91325013Y-93009605D01*
X91239969Y-92910031D01*
X91120596Y-92808076D01*
X91059413Y-92755821D01*
X91059410Y-92755820D01*
X90856963Y-92631760D01*
X90847450Y-92627819D01*
X90793048Y-92583976D01*
X90770985Y-92517681D01*
X90788266Y-92449983D01*
X90835889Y-92404204D01*
X90993228Y-92319057D01*
X90993231Y-92319055D01*
X91040056Y-92282609D01*
X90299409Y-91541962D01*
X90362993Y-91524925D01*
X90477007Y-91459099D01*
X90570099Y-91366007D01*
X90635925Y-91251993D01*
X90652962Y-91188410D01*
X91393433Y-91928881D01*
X91427211Y-91925379D01*
X91452794Y-91925380D01*
X91486564Y-91928882D01*
X92227037Y-91188409D01*
X92244075Y-91251993D01*
G37*
G04 #@! TD.AperFunction*
G04 #@! TA.AperFunction,Conductor*
G36*
X94784075Y-91251993D02*
G01*
X94849901Y-91366007D01*
X94942993Y-91459099D01*
X95057007Y-91524925D01*
X95120590Y-91541962D01*
X94379942Y-92282609D01*
X94426768Y-92319055D01*
X94426770Y-92319056D01*
X94584110Y-92404204D01*
X94633701Y-92453423D01*
X94648809Y-92521640D01*
X94624639Y-92587196D01*
X94572552Y-92627818D01*
X94563035Y-92631760D01*
X94360589Y-92755820D01*
X94360586Y-92755821D01*
X94180031Y-92910031D01*
X94074290Y-93033838D01*
X94015783Y-93072031D01*
X93945915Y-93072529D01*
X93886869Y-93035176D01*
X93885710Y-93033838D01*
X93865013Y-93009605D01*
X93779969Y-92910031D01*
X93660596Y-92808076D01*
X93599413Y-92755821D01*
X93599410Y-92755820D01*
X93396963Y-92631760D01*
X93387450Y-92627819D01*
X93333048Y-92583976D01*
X93310985Y-92517681D01*
X93328266Y-92449983D01*
X93375889Y-92404204D01*
X93533228Y-92319057D01*
X93533231Y-92319055D01*
X93580056Y-92282609D01*
X92839409Y-91541962D01*
X92902993Y-91524925D01*
X93017007Y-91459099D01*
X93110099Y-91366007D01*
X93175925Y-91251993D01*
X93192962Y-91188410D01*
X93933433Y-91928881D01*
X93967211Y-91925379D01*
X93992794Y-91925380D01*
X94026564Y-91928882D01*
X94767037Y-91188409D01*
X94784075Y-91251993D01*
G37*
G04 #@! TD.AperFunction*
G04 #@! TA.AperFunction,Conductor*
G36*
X97324075Y-91251993D02*
G01*
X97389901Y-91366007D01*
X97482993Y-91459099D01*
X97597007Y-91524925D01*
X97660590Y-91541962D01*
X96919942Y-92282609D01*
X96966768Y-92319055D01*
X96966770Y-92319056D01*
X97124110Y-92404204D01*
X97173701Y-92453423D01*
X97188809Y-92521640D01*
X97164639Y-92587196D01*
X97112552Y-92627818D01*
X97103035Y-92631760D01*
X96900589Y-92755820D01*
X96900586Y-92755821D01*
X96720031Y-92910031D01*
X96614290Y-93033838D01*
X96555783Y-93072031D01*
X96485915Y-93072529D01*
X96426869Y-93035176D01*
X96425710Y-93033838D01*
X96405013Y-93009605D01*
X96319969Y-92910031D01*
X96200596Y-92808076D01*
X96139413Y-92755821D01*
X96139410Y-92755820D01*
X95936963Y-92631760D01*
X95927450Y-92627819D01*
X95873048Y-92583976D01*
X95850985Y-92517681D01*
X95868266Y-92449983D01*
X95915889Y-92404204D01*
X96073228Y-92319057D01*
X96073231Y-92319055D01*
X96120056Y-92282609D01*
X95379409Y-91541962D01*
X95442993Y-91524925D01*
X95557007Y-91459099D01*
X95650099Y-91366007D01*
X95715925Y-91251993D01*
X95732962Y-91188410D01*
X96473433Y-91928881D01*
X96507211Y-91925379D01*
X96532794Y-91925380D01*
X96566564Y-91928882D01*
X97307037Y-91188409D01*
X97324075Y-91251993D01*
G37*
G04 #@! TD.AperFunction*
G04 #@! TA.AperFunction,Conductor*
G36*
X83913131Y-89463823D02*
G01*
X83914200Y-89465057D01*
X84020031Y-89588969D01*
X84020034Y-89588972D01*
X84177338Y-89723322D01*
X84215532Y-89781828D01*
X84220569Y-89825297D01*
X84219942Y-89835390D01*
X84960590Y-90576037D01*
X84897007Y-90593075D01*
X84782993Y-90658901D01*
X84689901Y-90751993D01*
X84624075Y-90866007D01*
X84607037Y-90929590D01*
X83866562Y-90189115D01*
X83832794Y-90192618D01*
X83807211Y-90192618D01*
X83773435Y-90189115D01*
X83032962Y-90929589D01*
X83015925Y-90866007D01*
X82950099Y-90751993D01*
X82857007Y-90658901D01*
X82742993Y-90593075D01*
X82679410Y-90576037D01*
X83420056Y-89835390D01*
X83419430Y-89825298D01*
X83434922Y-89757168D01*
X83462658Y-89723325D01*
X83619969Y-89588969D01*
X83725711Y-89465160D01*
X83784216Y-89426968D01*
X83854084Y-89426469D01*
X83913131Y-89463823D01*
G37*
G04 #@! TD.AperFunction*
G04 #@! TA.AperFunction,Conductor*
G36*
X86453131Y-89463823D02*
G01*
X86454200Y-89465057D01*
X86560031Y-89588969D01*
X86560034Y-89588972D01*
X86717338Y-89723322D01*
X86755532Y-89781828D01*
X86760569Y-89825297D01*
X86759942Y-89835390D01*
X87500590Y-90576037D01*
X87437007Y-90593075D01*
X87322993Y-90658901D01*
X87229901Y-90751993D01*
X87164075Y-90866007D01*
X87147037Y-90929590D01*
X86406562Y-90189115D01*
X86372794Y-90192618D01*
X86347211Y-90192618D01*
X86313435Y-90189115D01*
X85572962Y-90929589D01*
X85555925Y-90866007D01*
X85490099Y-90751993D01*
X85397007Y-90658901D01*
X85282993Y-90593075D01*
X85219410Y-90576037D01*
X85960056Y-89835390D01*
X85959430Y-89825298D01*
X85974922Y-89757168D01*
X86002658Y-89723325D01*
X86159969Y-89588969D01*
X86265711Y-89465160D01*
X86324216Y-89426968D01*
X86394084Y-89426469D01*
X86453131Y-89463823D01*
G37*
G04 #@! TD.AperFunction*
G04 #@! TA.AperFunction,Conductor*
G36*
X88993131Y-89463823D02*
G01*
X88994200Y-89465057D01*
X89100031Y-89588969D01*
X89100034Y-89588972D01*
X89257338Y-89723322D01*
X89295532Y-89781828D01*
X89300569Y-89825297D01*
X89299942Y-89835390D01*
X90040590Y-90576037D01*
X89977007Y-90593075D01*
X89862993Y-90658901D01*
X89769901Y-90751993D01*
X89704075Y-90866007D01*
X89687037Y-90929590D01*
X88946562Y-90189115D01*
X88912794Y-90192618D01*
X88887211Y-90192618D01*
X88853435Y-90189115D01*
X88112962Y-90929589D01*
X88095925Y-90866007D01*
X88030099Y-90751993D01*
X87937007Y-90658901D01*
X87822993Y-90593075D01*
X87759410Y-90576037D01*
X88500056Y-89835390D01*
X88499430Y-89825298D01*
X88514922Y-89757168D01*
X88542658Y-89723325D01*
X88699969Y-89588969D01*
X88805711Y-89465160D01*
X88864216Y-89426968D01*
X88934084Y-89426469D01*
X88993131Y-89463823D01*
G37*
G04 #@! TD.AperFunction*
G04 #@! TA.AperFunction,Conductor*
G36*
X91533131Y-89463823D02*
G01*
X91534200Y-89465057D01*
X91640031Y-89588969D01*
X91640034Y-89588972D01*
X91797338Y-89723322D01*
X91835532Y-89781828D01*
X91840569Y-89825297D01*
X91839942Y-89835390D01*
X92580590Y-90576037D01*
X92517007Y-90593075D01*
X92402993Y-90658901D01*
X92309901Y-90751993D01*
X92244075Y-90866007D01*
X92227037Y-90929590D01*
X91486562Y-90189115D01*
X91452794Y-90192618D01*
X91427211Y-90192618D01*
X91393435Y-90189115D01*
X90652962Y-90929589D01*
X90635925Y-90866007D01*
X90570099Y-90751993D01*
X90477007Y-90658901D01*
X90362993Y-90593075D01*
X90299410Y-90576037D01*
X91040056Y-89835390D01*
X91039430Y-89825298D01*
X91054922Y-89757168D01*
X91082658Y-89723325D01*
X91239969Y-89588969D01*
X91345711Y-89465160D01*
X91404216Y-89426968D01*
X91474084Y-89426469D01*
X91533131Y-89463823D01*
G37*
G04 #@! TD.AperFunction*
G04 #@! TA.AperFunction,Conductor*
G36*
X94073131Y-89463823D02*
G01*
X94074200Y-89465057D01*
X94180031Y-89588969D01*
X94180034Y-89588972D01*
X94337338Y-89723322D01*
X94375532Y-89781828D01*
X94380569Y-89825297D01*
X94379942Y-89835390D01*
X95120590Y-90576037D01*
X95057007Y-90593075D01*
X94942993Y-90658901D01*
X94849901Y-90751993D01*
X94784075Y-90866007D01*
X94767037Y-90929590D01*
X94026562Y-90189115D01*
X93992794Y-90192618D01*
X93967211Y-90192618D01*
X93933435Y-90189115D01*
X93192962Y-90929589D01*
X93175925Y-90866007D01*
X93110099Y-90751993D01*
X93017007Y-90658901D01*
X92902993Y-90593075D01*
X92839410Y-90576037D01*
X93580056Y-89835390D01*
X93579430Y-89825298D01*
X93594922Y-89757168D01*
X93622658Y-89723325D01*
X93779969Y-89588969D01*
X93885711Y-89465160D01*
X93944216Y-89426968D01*
X94014084Y-89426469D01*
X94073131Y-89463823D01*
G37*
G04 #@! TD.AperFunction*
G04 #@! TA.AperFunction,Conductor*
G36*
X96613131Y-89463823D02*
G01*
X96614200Y-89465057D01*
X96720031Y-89588969D01*
X96720034Y-89588972D01*
X96877338Y-89723322D01*
X96915532Y-89781828D01*
X96920569Y-89825297D01*
X96919942Y-89835390D01*
X97660590Y-90576037D01*
X97597007Y-90593075D01*
X97482993Y-90658901D01*
X97389901Y-90751993D01*
X97324075Y-90866007D01*
X97307037Y-90929590D01*
X96566562Y-90189115D01*
X96532794Y-90192618D01*
X96507211Y-90192618D01*
X96473435Y-90189115D01*
X95732962Y-90929589D01*
X95715925Y-90866007D01*
X95650099Y-90751993D01*
X95557007Y-90658901D01*
X95442993Y-90593075D01*
X95379410Y-90576037D01*
X96120056Y-89835390D01*
X96119430Y-89825298D01*
X96134922Y-89757168D01*
X96162658Y-89723325D01*
X96319969Y-89588969D01*
X96425711Y-89465160D01*
X96484216Y-89426968D01*
X96554084Y-89426469D01*
X96613131Y-89463823D01*
G37*
G04 #@! TD.AperFunction*
G04 #@! TA.AperFunction,Conductor*
G36*
X109019539Y-81780785D02*
G01*
X109065294Y-81833589D01*
X109076500Y-81885100D01*
X109076500Y-89404476D01*
X109056815Y-89471515D01*
X109017598Y-89510013D01*
X108930186Y-89563930D01*
X108886346Y-89590971D01*
X108797681Y-89679637D01*
X108736358Y-89713122D01*
X108666666Y-89708138D01*
X108622319Y-89679637D01*
X108533653Y-89590971D01*
X108533652Y-89590970D01*
X108402402Y-89510013D01*
X108355678Y-89458067D01*
X108343500Y-89404476D01*
X108343500Y-84940005D01*
X108343499Y-84940001D01*
X108319156Y-84817622D01*
X108319155Y-84817615D01*
X108271400Y-84702325D01*
X108271399Y-84702324D01*
X108271396Y-84702318D01*
X108202072Y-84598568D01*
X108202071Y-84598567D01*
X108113833Y-84510329D01*
X108021511Y-84418007D01*
X107871236Y-84267731D01*
X107871232Y-84267728D01*
X107767481Y-84198403D01*
X107767472Y-84198398D01*
X107652185Y-84150645D01*
X107652177Y-84150643D01*
X107529798Y-84126300D01*
X107529794Y-84126300D01*
X106679152Y-84126300D01*
X106612113Y-84106615D01*
X106577579Y-84073426D01*
X106466998Y-83915500D01*
X106305100Y-83753602D01*
X106117549Y-83622277D01*
X106074455Y-83602182D01*
X106022015Y-83556010D01*
X106002863Y-83488817D01*
X106023078Y-83421936D01*
X106074455Y-83377418D01*
X106079640Y-83375000D01*
X106117549Y-83357323D01*
X106305100Y-83225998D01*
X106466998Y-83064100D01*
X106598323Y-82876549D01*
X106695084Y-82669043D01*
X106754343Y-82447887D01*
X106774298Y-82219800D01*
X106770020Y-82170907D01*
X106783786Y-82102409D01*
X106832401Y-82052225D01*
X106893548Y-82036100D01*
X106927887Y-82036100D01*
X107114688Y-81996394D01*
X107289152Y-81918718D01*
X107443653Y-81806466D01*
X107447560Y-81802127D01*
X107507046Y-81765479D01*
X107539709Y-81761100D01*
X108952500Y-81761100D01*
X109019539Y-81780785D01*
G37*
G04 #@! TD.AperFunction*
G04 #@! TA.AperFunction,Conductor*
G36*
X129090073Y-82542785D02*
G01*
X129110715Y-82559419D01*
X129174981Y-82623685D01*
X129208466Y-82685008D01*
X129211300Y-82711366D01*
X129211300Y-82757785D01*
X129191615Y-82824824D01*
X129138811Y-82870579D01*
X129069653Y-82880523D01*
X129012989Y-82857052D01*
X128979004Y-82831611D01*
X128842003Y-82780511D01*
X128781454Y-82774000D01*
X128781438Y-82774000D01*
X126984162Y-82774000D01*
X126984145Y-82774000D01*
X126923597Y-82780511D01*
X126923595Y-82780511D01*
X126786595Y-82831611D01*
X126669539Y-82919239D01*
X126581911Y-83036295D01*
X126530811Y-83173295D01*
X126530811Y-83173297D01*
X126524300Y-83233845D01*
X126524300Y-83375000D01*
X126504615Y-83442039D01*
X126451811Y-83487794D01*
X126400300Y-83499000D01*
X125659901Y-83499000D01*
X125537522Y-83523343D01*
X125537514Y-83523345D01*
X125422223Y-83571100D01*
X125422222Y-83571100D01*
X125318468Y-83640426D01*
X125318467Y-83640427D01*
X125205293Y-83753602D01*
X125072167Y-83886729D01*
X125043401Y-83915495D01*
X124983927Y-83974968D01*
X124914603Y-84078718D01*
X124914598Y-84078727D01*
X124866845Y-84194014D01*
X124866843Y-84194022D01*
X124842500Y-84316401D01*
X124842500Y-89872500D01*
X124822815Y-89939539D01*
X124770011Y-89985294D01*
X124718500Y-89996500D01*
X116257795Y-89996500D01*
X116190756Y-89976815D01*
X116145001Y-89924011D01*
X116140089Y-89911503D01*
X116122117Y-89857266D01*
X116102399Y-89825298D01*
X116029030Y-89706348D01*
X115903652Y-89580970D01*
X115772404Y-89500015D01*
X115752740Y-89487886D01*
X115752735Y-89487884D01*
X115584427Y-89432113D01*
X115480546Y-89421500D01*
X114679462Y-89421500D01*
X114679446Y-89421501D01*
X114575572Y-89432113D01*
X114407264Y-89487884D01*
X114407259Y-89487886D01*
X114256346Y-89580971D01*
X114167681Y-89669637D01*
X114106358Y-89703122D01*
X114036666Y-89698138D01*
X113992319Y-89669637D01*
X113903653Y-89580971D01*
X113903652Y-89580970D01*
X113772402Y-89500013D01*
X113725678Y-89448067D01*
X113713500Y-89394476D01*
X113713500Y-88732300D01*
X113733185Y-88665261D01*
X113785989Y-88619506D01*
X113837500Y-88608300D01*
X113929438Y-88608300D01*
X113929454Y-88608299D01*
X113956492Y-88605391D01*
X113990001Y-88601789D01*
X114127004Y-88550689D01*
X114244061Y-88463061D01*
X114331689Y-88346004D01*
X114382789Y-88209001D01*
X114386391Y-88175492D01*
X114389299Y-88148454D01*
X114389300Y-88148437D01*
X114389300Y-86451162D01*
X114389299Y-86451145D01*
X114385957Y-86420070D01*
X114382789Y-86390599D01*
X114331689Y-86253596D01*
X114244061Y-86136539D01*
X114127004Y-86048911D01*
X114100432Y-86039000D01*
X113990003Y-85997811D01*
X113975298Y-85996230D01*
X113910747Y-85969491D01*
X113870900Y-85912098D01*
X113868407Y-85842273D01*
X113904061Y-85782185D01*
X113917424Y-85771372D01*
X113925100Y-85765998D01*
X114086998Y-85604100D01*
X114197579Y-85446174D01*
X114252154Y-85402551D01*
X114299152Y-85393300D01*
X116216595Y-85393300D01*
X116216596Y-85393299D01*
X116338985Y-85368955D01*
X116454275Y-85321200D01*
X116558033Y-85251871D01*
X116925671Y-84884233D01*
X116995000Y-84780475D01*
X117042755Y-84665185D01*
X117067100Y-84542794D01*
X117067100Y-84418007D01*
X117067100Y-82647100D01*
X117086785Y-82580061D01*
X117139589Y-82534306D01*
X117191100Y-82523100D01*
X129023034Y-82523100D01*
X129090073Y-82542785D01*
G37*
G04 #@! TD.AperFunction*
G04 #@! TA.AperFunction,Conductor*
G36*
X86126739Y-61995685D02*
G01*
X86172494Y-62048489D01*
X86183700Y-62100000D01*
X86183700Y-76313198D01*
X86208043Y-76435577D01*
X86208045Y-76435585D01*
X86255798Y-76550872D01*
X86255803Y-76550881D01*
X86325128Y-76654632D01*
X86325131Y-76654636D01*
X86718163Y-77047668D01*
X86718167Y-77047671D01*
X86821918Y-77116996D01*
X86821924Y-77116999D01*
X86821925Y-77117000D01*
X86937215Y-77164755D01*
X87059601Y-77189099D01*
X87059605Y-77189100D01*
X87059606Y-77189100D01*
X87184393Y-77189100D01*
X89306644Y-77189100D01*
X89373683Y-77208785D01*
X89410452Y-77245278D01*
X89506876Y-77392865D01*
X89506884Y-77392876D01*
X89659356Y-77558502D01*
X89659360Y-77558506D01*
X89837024Y-77696789D01*
X89880293Y-77720205D01*
X89880295Y-77720206D01*
X89929886Y-77769425D01*
X89944994Y-77837642D01*
X89920824Y-77903197D01*
X89892402Y-77930836D01*
X89711522Y-78057490D01*
X89711520Y-78057491D01*
X89544491Y-78224520D01*
X89544486Y-78224526D01*
X89409000Y-78418020D01*
X89408999Y-78418022D01*
X89309170Y-78632107D01*
X89309167Y-78632113D01*
X89251964Y-78845599D01*
X89251964Y-78845600D01*
X90149588Y-78845600D01*
X90116675Y-78902607D01*
X90082600Y-79029774D01*
X90082600Y-79161426D01*
X90116675Y-79288593D01*
X90149588Y-79345600D01*
X89251964Y-79345600D01*
X89309167Y-79559086D01*
X89309170Y-79559092D01*
X89408999Y-79773178D01*
X89544494Y-79966682D01*
X89660327Y-80082515D01*
X89693812Y-80143838D01*
X89688828Y-80213530D01*
X89646956Y-80269463D01*
X89615981Y-80286377D01*
X89486395Y-80334711D01*
X89369339Y-80422339D01*
X89281711Y-80539395D01*
X89230611Y-80676395D01*
X89230611Y-80676397D01*
X89224100Y-80736945D01*
X89224100Y-82534254D01*
X89230611Y-82594802D01*
X89230611Y-82594804D01*
X89274088Y-82711366D01*
X89281711Y-82731804D01*
X89369339Y-82848861D01*
X89486396Y-82936489D01*
X89623399Y-82987589D01*
X89650650Y-82990518D01*
X89683945Y-82994099D01*
X89683962Y-82994100D01*
X91481238Y-82994100D01*
X91481254Y-82994099D01*
X91508292Y-82991191D01*
X91541801Y-82987589D01*
X91678804Y-82936489D01*
X91795861Y-82848861D01*
X91883489Y-82731804D01*
X91934589Y-82594801D01*
X91938393Y-82559419D01*
X91941099Y-82534254D01*
X91941100Y-82534237D01*
X91941100Y-82393100D01*
X91960785Y-82326061D01*
X92013589Y-82280306D01*
X92065100Y-82269100D01*
X92873995Y-82269100D01*
X92873996Y-82269099D01*
X92996385Y-82244755D01*
X93111675Y-82197000D01*
X93215433Y-82127671D01*
X93456071Y-81887033D01*
X93525400Y-81783275D01*
X93573155Y-81667985D01*
X93597500Y-81545594D01*
X93597500Y-81420806D01*
X93597500Y-81173900D01*
X93617185Y-81106861D01*
X93669989Y-81061106D01*
X93721500Y-81049900D01*
X101916395Y-81049900D01*
X101916396Y-81049899D01*
X102038785Y-81025555D01*
X102154075Y-80977800D01*
X102257833Y-80908471D01*
X102549271Y-80617033D01*
X102618600Y-80513275D01*
X102666355Y-80397985D01*
X102690700Y-80275594D01*
X102690700Y-80150806D01*
X102690700Y-70912300D01*
X102710385Y-70845261D01*
X102763189Y-70799506D01*
X102814700Y-70788300D01*
X105929595Y-70788300D01*
X105929596Y-70788299D01*
X106051985Y-70763955D01*
X106167275Y-70716200D01*
X106271033Y-70646871D01*
X106792072Y-70125833D01*
X106861401Y-70022075D01*
X106900492Y-69927700D01*
X106909155Y-69906785D01*
X106933500Y-69784394D01*
X106933500Y-69473794D01*
X106953185Y-69406755D01*
X107005989Y-69361000D01*
X107018488Y-69356091D01*
X107072738Y-69338115D01*
X107223652Y-69245030D01*
X107349030Y-69119652D01*
X107442115Y-68968738D01*
X107497887Y-68800426D01*
X107508500Y-68696545D01*
X107508499Y-68169099D01*
X107528183Y-68102061D01*
X107580987Y-68056306D01*
X107632499Y-68045100D01*
X125385995Y-68045100D01*
X125385996Y-68045099D01*
X125508385Y-68020755D01*
X125623675Y-67973000D01*
X125727433Y-67903671D01*
X125917271Y-67713833D01*
X125986600Y-67610075D01*
X126034355Y-67494785D01*
X126058700Y-67372394D01*
X126058700Y-67369000D01*
X126059203Y-67367286D01*
X126059297Y-67366333D01*
X126059477Y-67366350D01*
X126078385Y-67301961D01*
X126131189Y-67256206D01*
X126182700Y-67245000D01*
X126381100Y-67245000D01*
X126448139Y-67264685D01*
X126493894Y-67317489D01*
X126505100Y-67369000D01*
X126505100Y-67510154D01*
X126511611Y-67570702D01*
X126511611Y-67570704D01*
X126546036Y-67662998D01*
X126562711Y-67707704D01*
X126650339Y-67824761D01*
X126767396Y-67912389D01*
X126819337Y-67931762D01*
X126885195Y-67956327D01*
X126941128Y-67998199D01*
X126965544Y-68063663D01*
X126950692Y-68131936D01*
X126933090Y-68156491D01*
X126787879Y-68314230D01*
X126787876Y-68314234D01*
X126664740Y-68502707D01*
X126574303Y-68708885D01*
X126519036Y-68927128D01*
X126519034Y-68927140D01*
X126500444Y-69151494D01*
X126500444Y-69151505D01*
X126519034Y-69375859D01*
X126519036Y-69375871D01*
X126574303Y-69594114D01*
X126664740Y-69800292D01*
X126787876Y-69988765D01*
X126787884Y-69988776D01*
X126940356Y-70154402D01*
X126940361Y-70154407D01*
X126999581Y-70200500D01*
X127118024Y-70292689D01*
X127118029Y-70292691D01*
X127118031Y-70292693D01*
X127154530Y-70312446D01*
X127204120Y-70361665D01*
X127219228Y-70429882D01*
X127195057Y-70495437D01*
X127154530Y-70530554D01*
X127118031Y-70550306D01*
X127118022Y-70550312D01*
X126940361Y-70688592D01*
X126940356Y-70688597D01*
X126787884Y-70854223D01*
X126787876Y-70854234D01*
X126664740Y-71042707D01*
X126574303Y-71248885D01*
X126519036Y-71467128D01*
X126519034Y-71467140D01*
X126500444Y-71691494D01*
X126500444Y-71691505D01*
X126519034Y-71915859D01*
X126519036Y-71915871D01*
X126574303Y-72134114D01*
X126664740Y-72340292D01*
X126787876Y-72528765D01*
X126787884Y-72528776D01*
X126940356Y-72694402D01*
X126940360Y-72694406D01*
X127118024Y-72832689D01*
X127118029Y-72832691D01*
X127118031Y-72832693D01*
X127154530Y-72852446D01*
X127204120Y-72901665D01*
X127219228Y-72969882D01*
X127195057Y-73035437D01*
X127154530Y-73070554D01*
X127118031Y-73090306D01*
X127118022Y-73090312D01*
X126940361Y-73228592D01*
X126940356Y-73228597D01*
X126787884Y-73394223D01*
X126787876Y-73394234D01*
X126664740Y-73582707D01*
X126574303Y-73788885D01*
X126519036Y-74007128D01*
X126519034Y-74007140D01*
X126500444Y-74231494D01*
X126500444Y-74231505D01*
X126519034Y-74455859D01*
X126519036Y-74455871D01*
X126574303Y-74674114D01*
X126664740Y-74880292D01*
X126787876Y-75068765D01*
X126787884Y-75068776D01*
X126906017Y-75197100D01*
X126940360Y-75234406D01*
X127118024Y-75372689D01*
X127118029Y-75372691D01*
X127118031Y-75372693D01*
X127154530Y-75392446D01*
X127204120Y-75441665D01*
X127219228Y-75509882D01*
X127195057Y-75575437D01*
X127154530Y-75610554D01*
X127118031Y-75630306D01*
X127118022Y-75630312D01*
X126940361Y-75768592D01*
X126940356Y-75768597D01*
X126787884Y-75934223D01*
X126787876Y-75934234D01*
X126664740Y-76122707D01*
X126574303Y-76328885D01*
X126519036Y-76547128D01*
X126519034Y-76547140D01*
X126500444Y-76771494D01*
X126500444Y-76771505D01*
X126519034Y-76995859D01*
X126519036Y-76995871D01*
X126574303Y-77214114D01*
X126664740Y-77420292D01*
X126787876Y-77608765D01*
X126787884Y-77608776D01*
X126940356Y-77774402D01*
X126940360Y-77774406D01*
X127118024Y-77912689D01*
X127151557Y-77930836D01*
X127161295Y-77936106D01*
X127210886Y-77985325D01*
X127225994Y-78053542D01*
X127201824Y-78119097D01*
X127173402Y-78146736D01*
X126992522Y-78273390D01*
X126992520Y-78273391D01*
X126825491Y-78440420D01*
X126825486Y-78440426D01*
X126690000Y-78633920D01*
X126689999Y-78633922D01*
X126590170Y-78848007D01*
X126590167Y-78848013D01*
X126532964Y-79061499D01*
X126532964Y-79061500D01*
X127430588Y-79061500D01*
X127397675Y-79118507D01*
X127363600Y-79245674D01*
X127363600Y-79377326D01*
X127397675Y-79504493D01*
X127430588Y-79561500D01*
X126532964Y-79561500D01*
X126590167Y-79774986D01*
X126590170Y-79774992D01*
X126689999Y-79989078D01*
X126825494Y-80182582D01*
X126992517Y-80349605D01*
X127186021Y-80485100D01*
X127400107Y-80584929D01*
X127400116Y-80584933D01*
X127613600Y-80642134D01*
X127613600Y-79744512D01*
X127670607Y-79777425D01*
X127797774Y-79811500D01*
X127929426Y-79811500D01*
X128056593Y-79777425D01*
X128113600Y-79744512D01*
X128113600Y-80642133D01*
X128327083Y-80584933D01*
X128327092Y-80584929D01*
X128541178Y-80485100D01*
X128734682Y-80349605D01*
X128901705Y-80182582D01*
X129037200Y-79989078D01*
X129137029Y-79774992D01*
X129137032Y-79774986D01*
X129194236Y-79561500D01*
X128296612Y-79561500D01*
X128329525Y-79504493D01*
X128363600Y-79377326D01*
X128363600Y-79245674D01*
X128329525Y-79118507D01*
X128296612Y-79061500D01*
X129194236Y-79061500D01*
X129194235Y-79061499D01*
X129137032Y-78848013D01*
X129137029Y-78848007D01*
X129037200Y-78633922D01*
X129037199Y-78633920D01*
X128901713Y-78440426D01*
X128901708Y-78440420D01*
X128734682Y-78273394D01*
X128553797Y-78146736D01*
X128510172Y-78092159D01*
X128502980Y-78022660D01*
X128534502Y-77960306D01*
X128565900Y-77936108D01*
X128609176Y-77912689D01*
X128786840Y-77774406D01*
X128939322Y-77608768D01*
X129062460Y-77420291D01*
X129152896Y-77214116D01*
X129208164Y-76995868D01*
X129226054Y-76779971D01*
X129226756Y-76771505D01*
X129226756Y-76771494D01*
X129208165Y-76547140D01*
X129208163Y-76547128D01*
X129179914Y-76435577D01*
X129152896Y-76328884D01*
X129062460Y-76122709D01*
X129056106Y-76112984D01*
X128939323Y-75934234D01*
X128939315Y-75934223D01*
X128786843Y-75768597D01*
X128786838Y-75768592D01*
X128609177Y-75630312D01*
X128609178Y-75630312D01*
X128609176Y-75630311D01*
X128572670Y-75610555D01*
X128523079Y-75561336D01*
X128507971Y-75493119D01*
X128532141Y-75427564D01*
X128572670Y-75392445D01*
X128572684Y-75392436D01*
X128609176Y-75372689D01*
X128786840Y-75234406D01*
X128939322Y-75068768D01*
X129062460Y-74880291D01*
X129152896Y-74674116D01*
X129208164Y-74455868D01*
X129226756Y-74231500D01*
X129208164Y-74007132D01*
X129152896Y-73788884D01*
X129062460Y-73582709D01*
X128939322Y-73394232D01*
X128939319Y-73394229D01*
X128939315Y-73394223D01*
X128786843Y-73228597D01*
X128786838Y-73228592D01*
X128609177Y-73090312D01*
X128609178Y-73090312D01*
X128609176Y-73090311D01*
X128572670Y-73070555D01*
X128523079Y-73021336D01*
X128507971Y-72953119D01*
X128532141Y-72887564D01*
X128572670Y-72852445D01*
X128572684Y-72852436D01*
X128609176Y-72832689D01*
X128786840Y-72694406D01*
X128939322Y-72528768D01*
X129062460Y-72340291D01*
X129152896Y-72134116D01*
X129208164Y-71915868D01*
X129208165Y-71915859D01*
X129226756Y-71691505D01*
X129226756Y-71691494D01*
X129208165Y-71467140D01*
X129208163Y-71467128D01*
X129152896Y-71248885D01*
X129135006Y-71208100D01*
X129062460Y-71042709D01*
X128939322Y-70854232D01*
X128939319Y-70854229D01*
X128939315Y-70854223D01*
X128786843Y-70688597D01*
X128786838Y-70688592D01*
X128609177Y-70550312D01*
X128609178Y-70550312D01*
X128609176Y-70550311D01*
X128572670Y-70530555D01*
X128523079Y-70481336D01*
X128507971Y-70413119D01*
X128532141Y-70347564D01*
X128572670Y-70312445D01*
X128572684Y-70312436D01*
X128609176Y-70292689D01*
X128786840Y-70154406D01*
X128908658Y-70022078D01*
X128939315Y-69988776D01*
X128939316Y-69988774D01*
X128939322Y-69988768D01*
X129062460Y-69800291D01*
X129152896Y-69594116D01*
X129208164Y-69375868D01*
X129210829Y-69343709D01*
X129226756Y-69151505D01*
X129226756Y-69151494D01*
X129208165Y-68927140D01*
X129208163Y-68927128D01*
X129190907Y-68858985D01*
X129152896Y-68708884D01*
X129062460Y-68502709D01*
X129058609Y-68496815D01*
X128939323Y-68314234D01*
X128939315Y-68314223D01*
X128794110Y-68156491D01*
X128763187Y-68093837D01*
X128771047Y-68024411D01*
X128815194Y-67970255D01*
X128842005Y-67956327D01*
X128922339Y-67926363D01*
X128959804Y-67912389D01*
X129076861Y-67824761D01*
X129164489Y-67707704D01*
X129215589Y-67570701D01*
X129219750Y-67531996D01*
X129222099Y-67510154D01*
X129222100Y-67510137D01*
X129222100Y-65712862D01*
X129222099Y-65712845D01*
X129218757Y-65681770D01*
X129215589Y-65652299D01*
X129204759Y-65623264D01*
X129191606Y-65587999D01*
X129164489Y-65515296D01*
X129076861Y-65398239D01*
X128959804Y-65310611D01*
X128822803Y-65259511D01*
X128762254Y-65253000D01*
X128762238Y-65253000D01*
X126964962Y-65253000D01*
X126964945Y-65253000D01*
X126904397Y-65259511D01*
X126904395Y-65259511D01*
X126767395Y-65310611D01*
X126650339Y-65398239D01*
X126562711Y-65515295D01*
X126511611Y-65652295D01*
X126511611Y-65652297D01*
X126505100Y-65712845D01*
X126505100Y-65854000D01*
X126485415Y-65921039D01*
X126432611Y-65966794D01*
X126381100Y-65978000D01*
X125451702Y-65978000D01*
X125329319Y-66002343D01*
X125329314Y-66002345D01*
X125295548Y-66016329D01*
X125295549Y-66016330D01*
X125214026Y-66050098D01*
X125214022Y-66050100D01*
X125110274Y-66119422D01*
X125110266Y-66119428D01*
X124933131Y-66296563D01*
X124933128Y-66296567D01*
X124863803Y-66400318D01*
X124863798Y-66400327D01*
X124816045Y-66515614D01*
X124816043Y-66515622D01*
X124791700Y-66638001D01*
X124791700Y-66654100D01*
X124772015Y-66721139D01*
X124719211Y-66766894D01*
X124667700Y-66778100D01*
X107632500Y-66778100D01*
X107565461Y-66758415D01*
X107519706Y-66705611D01*
X107508500Y-66654100D01*
X107508499Y-65895462D01*
X107508498Y-65895446D01*
X107507477Y-65885455D01*
X107497887Y-65791574D01*
X107442115Y-65623262D01*
X107349030Y-65472348D01*
X107223652Y-65346970D01*
X107072738Y-65253885D01*
X107018493Y-65235910D01*
X106961051Y-65196138D01*
X106934228Y-65131622D01*
X106933500Y-65118205D01*
X106933500Y-62100000D01*
X106953185Y-62032961D01*
X107005989Y-61987206D01*
X107057500Y-61976000D01*
X135128000Y-61976000D01*
X141974500Y-61976000D01*
X141974500Y-108996753D01*
X141974330Y-109003243D01*
X141958544Y-109304433D01*
X141957187Y-109317340D01*
X141910517Y-109612010D01*
X141907819Y-109624706D01*
X141830600Y-109912892D01*
X141826589Y-109925237D01*
X141719670Y-110203770D01*
X141714391Y-110215627D01*
X141578941Y-110481464D01*
X141572455Y-110492697D01*
X141470258Y-110650067D01*
X141409962Y-110742914D01*
X141402333Y-110753414D01*
X141214570Y-110985282D01*
X141205885Y-110994927D01*
X140994927Y-111205885D01*
X140985282Y-111214570D01*
X140753414Y-111402333D01*
X140742914Y-111409962D01*
X140492697Y-111572455D01*
X140481464Y-111578941D01*
X140215627Y-111714391D01*
X140203770Y-111719670D01*
X139925237Y-111826589D01*
X139912892Y-111830600D01*
X139624706Y-111907819D01*
X139612010Y-111910517D01*
X139317340Y-111957187D01*
X139304433Y-111958544D01*
X139003244Y-111974330D01*
X138996754Y-111974500D01*
X80003246Y-111974500D01*
X79996756Y-111974330D01*
X79695566Y-111958544D01*
X79682659Y-111957187D01*
X79387989Y-111910517D01*
X79375293Y-111907819D01*
X79087107Y-111830600D01*
X79074762Y-111826589D01*
X78796229Y-111719670D01*
X78784372Y-111714391D01*
X78755029Y-111699440D01*
X78518529Y-111578937D01*
X78507310Y-111572460D01*
X78257079Y-111409958D01*
X78246585Y-111402333D01*
X78014717Y-111214570D01*
X78005072Y-111205885D01*
X77794114Y-110994927D01*
X77785429Y-110985282D01*
X77597666Y-110753414D01*
X77590044Y-110742923D01*
X77427535Y-110492683D01*
X77421065Y-110481477D01*
X77285603Y-110215617D01*
X77280334Y-110203781D01*
X77173407Y-109925228D01*
X77169402Y-109912901D01*
X77092176Y-109624690D01*
X77089484Y-109612022D01*
X77045300Y-109333051D01*
X77042812Y-109317340D01*
X77041455Y-109304433D01*
X77025670Y-109003243D01*
X77025500Y-108996753D01*
X77025500Y-108509301D01*
X78634453Y-108509301D01*
X78638884Y-108571253D01*
X78639200Y-108580099D01*
X78639200Y-108631115D01*
X78647398Y-108693392D01*
X78648143Y-108700728D01*
X78653418Y-108774469D01*
X78653419Y-108774479D01*
X78664107Y-108823610D01*
X78665880Y-108833778D01*
X78670998Y-108872649D01*
X78671001Y-108872661D01*
X78690319Y-108944760D01*
X78691710Y-108950493D01*
X78709928Y-109034238D01*
X78723371Y-109070281D01*
X78726963Y-109081516D01*
X78734055Y-109107980D01*
X78767126Y-109187821D01*
X78768746Y-109191940D01*
X78802825Y-109283309D01*
X78802827Y-109283313D01*
X78802829Y-109283316D01*
X78802831Y-109283321D01*
X78815607Y-109306718D01*
X78821330Y-109318680D01*
X78827285Y-109333057D01*
X78827286Y-109333058D01*
X78876410Y-109418145D01*
X78877854Y-109420716D01*
X78930237Y-109516647D01*
X78930240Y-109516651D01*
X78939120Y-109528515D01*
X78947229Y-109540806D01*
X78949100Y-109544046D01*
X78949100Y-109544047D01*
X79016108Y-109631374D01*
X79016998Y-109632549D01*
X79089543Y-109729456D01*
X79089561Y-109729477D01*
X79094666Y-109734582D01*
X79094680Y-109734597D01*
X79272761Y-109912679D01*
X79272800Y-109912715D01*
X79277530Y-109917445D01*
X79277532Y-109917447D01*
X79277540Y-109917454D01*
X79374449Y-109989999D01*
X79375546Y-109990830D01*
X79462957Y-110057902D01*
X79462965Y-110057906D01*
X79462967Y-110057908D01*
X79466178Y-110059762D01*
X79478489Y-110067882D01*
X79485082Y-110072817D01*
X79490353Y-110076763D01*
X79490357Y-110076765D01*
X79490363Y-110076769D01*
X79586281Y-110129144D01*
X79588828Y-110130573D01*
X79673943Y-110179715D01*
X79673954Y-110179719D01*
X79673955Y-110179720D01*
X79688304Y-110185663D01*
X79700283Y-110191393D01*
X79723679Y-110204169D01*
X79815039Y-110238244D01*
X79819158Y-110239865D01*
X79899024Y-110272947D01*
X79920720Y-110278759D01*
X79925477Y-110280033D01*
X79936707Y-110283623D01*
X79972763Y-110297072D01*
X79972768Y-110297073D01*
X80056493Y-110315286D01*
X80062229Y-110316677D01*
X80095165Y-110325501D01*
X80134347Y-110336001D01*
X80173212Y-110341117D01*
X80183371Y-110342887D01*
X80232532Y-110353582D01*
X80306278Y-110358855D01*
X80313578Y-110359596D01*
X80375887Y-110367800D01*
X80426900Y-110367800D01*
X80435746Y-110368116D01*
X80497699Y-110372547D01*
X80497700Y-110372547D01*
X80497701Y-110372547D01*
X80559654Y-110368116D01*
X80568500Y-110367800D01*
X80619511Y-110367800D01*
X80619513Y-110367800D01*
X80681824Y-110359596D01*
X80689120Y-110358855D01*
X80762868Y-110353582D01*
X80812023Y-110342888D01*
X80822191Y-110341117D01*
X80861053Y-110336001D01*
X80933166Y-110316677D01*
X80938847Y-110315298D01*
X81022637Y-110297072D01*
X81058706Y-110283618D01*
X81069906Y-110280038D01*
X81096377Y-110272946D01*
X81176262Y-110239855D01*
X81180360Y-110238244D01*
X81271721Y-110204169D01*
X81295114Y-110191394D01*
X81307079Y-110185669D01*
X81321457Y-110179715D01*
X81406564Y-110130577D01*
X81409096Y-110129155D01*
X81505047Y-110076763D01*
X81516905Y-110067886D01*
X81529220Y-110059762D01*
X81532443Y-110057902D01*
X81581123Y-110020547D01*
X81619853Y-109990830D01*
X81620949Y-109989999D01*
X81717867Y-109917448D01*
X81721371Y-109913943D01*
X81721394Y-109913923D01*
X81902324Y-109732994D01*
X81902344Y-109732969D01*
X81905848Y-109729467D01*
X81978410Y-109632534D01*
X81979230Y-109631453D01*
X82046297Y-109544049D01*
X82046302Y-109544043D01*
X82048162Y-109540820D01*
X82056286Y-109528505D01*
X82065158Y-109516654D01*
X82065159Y-109516652D01*
X82065160Y-109516651D01*
X82065163Y-109516647D01*
X82117555Y-109420696D01*
X82118979Y-109418162D01*
X82118989Y-109418145D01*
X82168115Y-109333057D01*
X82174069Y-109318679D01*
X82179800Y-109306703D01*
X82192569Y-109283321D01*
X82226652Y-109191940D01*
X82228265Y-109187839D01*
X82261346Y-109107977D01*
X82268438Y-109081506D01*
X82272018Y-109070306D01*
X82285472Y-109034237D01*
X82303698Y-108950447D01*
X82305082Y-108944747D01*
X82324399Y-108872661D01*
X82324401Y-108872653D01*
X82329519Y-108833778D01*
X82331290Y-108823615D01*
X82331291Y-108823610D01*
X82341982Y-108774468D01*
X82347255Y-108700720D01*
X82347996Y-108693424D01*
X82356200Y-108631113D01*
X82356200Y-108580099D01*
X82356516Y-108571253D01*
X82360947Y-108509301D01*
X136634453Y-108509301D01*
X136638884Y-108571253D01*
X136639200Y-108580099D01*
X136639200Y-108631115D01*
X136647398Y-108693392D01*
X136648143Y-108700728D01*
X136653418Y-108774469D01*
X136653419Y-108774479D01*
X136664107Y-108823610D01*
X136665880Y-108833778D01*
X136670998Y-108872649D01*
X136671001Y-108872661D01*
X136690319Y-108944760D01*
X136691710Y-108950493D01*
X136709928Y-109034238D01*
X136723371Y-109070281D01*
X136726963Y-109081516D01*
X136734055Y-109107980D01*
X136767126Y-109187821D01*
X136768746Y-109191940D01*
X136802825Y-109283309D01*
X136802827Y-109283313D01*
X136802829Y-109283316D01*
X136802831Y-109283321D01*
X136815607Y-109306718D01*
X136821330Y-109318680D01*
X136827285Y-109333057D01*
X136827286Y-109333058D01*
X136876410Y-109418145D01*
X136877854Y-109420716D01*
X136930237Y-109516647D01*
X136930240Y-109516651D01*
X136939120Y-109528515D01*
X136947229Y-109540806D01*
X136949100Y-109544046D01*
X136949100Y-109544047D01*
X137016108Y-109631374D01*
X137016998Y-109632549D01*
X137089543Y-109729456D01*
X137089561Y-109729477D01*
X137094666Y-109734582D01*
X137094680Y-109734597D01*
X137272761Y-109912679D01*
X137272800Y-109912715D01*
X137277530Y-109917445D01*
X137277532Y-109917447D01*
X137277540Y-109917454D01*
X137374449Y-109989999D01*
X137375546Y-109990830D01*
X137462957Y-110057902D01*
X137462965Y-110057906D01*
X137462967Y-110057908D01*
X137466178Y-110059762D01*
X137478489Y-110067882D01*
X137485082Y-110072817D01*
X137490353Y-110076763D01*
X137490357Y-110076765D01*
X137490363Y-110076769D01*
X137586281Y-110129144D01*
X137588828Y-110130573D01*
X137673943Y-110179715D01*
X137673954Y-110179719D01*
X137673955Y-110179720D01*
X137688304Y-110185663D01*
X137700283Y-110191393D01*
X137723679Y-110204169D01*
X137815039Y-110238244D01*
X137819158Y-110239865D01*
X137899024Y-110272947D01*
X137920720Y-110278759D01*
X137925477Y-110280033D01*
X137936707Y-110283623D01*
X137972763Y-110297072D01*
X137972768Y-110297073D01*
X138056493Y-110315286D01*
X138062229Y-110316677D01*
X138095165Y-110325501D01*
X138134347Y-110336001D01*
X138173212Y-110341117D01*
X138183371Y-110342887D01*
X138232532Y-110353582D01*
X138306278Y-110358855D01*
X138313578Y-110359596D01*
X138375887Y-110367800D01*
X138426900Y-110367800D01*
X138435746Y-110368116D01*
X138497699Y-110372547D01*
X138497700Y-110372547D01*
X138497701Y-110372547D01*
X138559654Y-110368116D01*
X138568500Y-110367800D01*
X138619511Y-110367800D01*
X138619513Y-110367800D01*
X138681824Y-110359596D01*
X138689120Y-110358855D01*
X138762868Y-110353582D01*
X138812023Y-110342888D01*
X138822191Y-110341117D01*
X138861053Y-110336001D01*
X138933166Y-110316677D01*
X138938847Y-110315298D01*
X139022637Y-110297072D01*
X139058706Y-110283618D01*
X139069906Y-110280038D01*
X139096377Y-110272946D01*
X139176262Y-110239855D01*
X139180360Y-110238244D01*
X139271721Y-110204169D01*
X139295114Y-110191394D01*
X139307079Y-110185669D01*
X139321457Y-110179715D01*
X139406564Y-110130577D01*
X139409096Y-110129155D01*
X139505047Y-110076763D01*
X139516905Y-110067886D01*
X139529220Y-110059762D01*
X139532443Y-110057902D01*
X139581123Y-110020547D01*
X139619853Y-109990830D01*
X139620949Y-109989999D01*
X139717867Y-109917448D01*
X139721371Y-109913943D01*
X139721394Y-109913923D01*
X139902324Y-109732994D01*
X139902344Y-109732969D01*
X139905848Y-109729467D01*
X139978410Y-109632534D01*
X139979230Y-109631453D01*
X140046297Y-109544049D01*
X140046302Y-109544043D01*
X140048162Y-109540820D01*
X140056286Y-109528505D01*
X140065158Y-109516654D01*
X140065159Y-109516652D01*
X140065160Y-109516651D01*
X140065163Y-109516647D01*
X140117555Y-109420696D01*
X140118979Y-109418162D01*
X140118989Y-109418145D01*
X140168115Y-109333057D01*
X140174069Y-109318679D01*
X140179800Y-109306703D01*
X140192569Y-109283321D01*
X140226652Y-109191940D01*
X140228265Y-109187839D01*
X140261346Y-109107977D01*
X140268438Y-109081506D01*
X140272018Y-109070306D01*
X140285472Y-109034237D01*
X140303698Y-108950447D01*
X140305082Y-108944747D01*
X140324399Y-108872661D01*
X140324401Y-108872653D01*
X140329519Y-108833778D01*
X140331290Y-108823615D01*
X140331291Y-108823610D01*
X140341982Y-108774468D01*
X140347255Y-108700720D01*
X140347996Y-108693424D01*
X140356200Y-108631113D01*
X140356200Y-108580099D01*
X140356516Y-108571253D01*
X140360947Y-108509301D01*
X140360947Y-108509298D01*
X140356516Y-108447345D01*
X140356200Y-108438499D01*
X140356200Y-108387487D01*
X140356199Y-108387483D01*
X140347996Y-108325178D01*
X140347255Y-108317870D01*
X140341982Y-108244132D01*
X140331287Y-108194971D01*
X140329517Y-108184809D01*
X140324401Y-108145949D01*
X140324401Y-108145947D01*
X140315853Y-108114049D01*
X140305077Y-108073829D01*
X140303686Y-108068093D01*
X140285473Y-107984368D01*
X140285472Y-107984363D01*
X140272023Y-107948307D01*
X140268433Y-107937074D01*
X140261347Y-107910624D01*
X140228265Y-107830758D01*
X140226644Y-107826639D01*
X140192569Y-107735279D01*
X140179793Y-107711883D01*
X140174063Y-107699904D01*
X140168120Y-107685555D01*
X140168118Y-107685551D01*
X140168115Y-107685543D01*
X140118973Y-107600428D01*
X140117544Y-107597881D01*
X140065169Y-107501963D01*
X140065162Y-107501952D01*
X140056282Y-107490089D01*
X140048162Y-107477778D01*
X140046308Y-107474567D01*
X140046306Y-107474565D01*
X140046302Y-107474557D01*
X139979266Y-107387194D01*
X139978399Y-107386049D01*
X139905854Y-107289140D01*
X139905847Y-107289132D01*
X139905845Y-107289130D01*
X139901115Y-107284400D01*
X139901079Y-107284361D01*
X139723011Y-107106294D01*
X139722982Y-107106266D01*
X139717877Y-107101161D01*
X139717856Y-107101143D01*
X139620949Y-107028598D01*
X139619774Y-107027708D01*
X139532446Y-106960700D01*
X139529206Y-106958829D01*
X139516915Y-106950720D01*
X139505051Y-106941840D01*
X139505047Y-106941837D01*
X139409116Y-106889454D01*
X139406545Y-106888010D01*
X139383955Y-106874968D01*
X139321457Y-106838885D01*
X139307080Y-106832930D01*
X139295118Y-106827207D01*
X139271721Y-106814431D01*
X139271718Y-106814430D01*
X139271713Y-106814427D01*
X139271709Y-106814425D01*
X139180340Y-106780346D01*
X139176221Y-106778726D01*
X139096380Y-106745655D01*
X139096378Y-106745654D01*
X139096377Y-106745654D01*
X139089496Y-106743810D01*
X139069916Y-106738563D01*
X139058681Y-106734971D01*
X139022638Y-106721528D01*
X139022638Y-106721527D01*
X138938893Y-106703310D01*
X138933160Y-106701919D01*
X138861061Y-106682601D01*
X138861049Y-106682598D01*
X138822178Y-106677480D01*
X138812010Y-106675707D01*
X138762879Y-106665019D01*
X138762869Y-106665018D01*
X138689128Y-106659743D01*
X138681792Y-106658998D01*
X138619515Y-106650800D01*
X138619513Y-106650800D01*
X138568500Y-106650800D01*
X138559654Y-106650484D01*
X138497701Y-106646053D01*
X138497699Y-106646053D01*
X138435746Y-106650484D01*
X138426900Y-106650800D01*
X138375884Y-106650800D01*
X138313605Y-106658998D01*
X138306270Y-106659743D01*
X138232535Y-106665017D01*
X138232525Y-106665019D01*
X138183379Y-106675709D01*
X138173214Y-106677481D01*
X138134344Y-106682599D01*
X138062247Y-106701917D01*
X138056514Y-106703308D01*
X137972766Y-106721526D01*
X137972763Y-106721527D01*
X137936713Y-106734973D01*
X137925479Y-106738564D01*
X137899028Y-106745652D01*
X137899024Y-106745653D01*
X137819176Y-106778727D01*
X137815060Y-106780346D01*
X137723676Y-106814431D01*
X137723675Y-106814432D01*
X137700285Y-106827204D01*
X137688319Y-106832929D01*
X137673951Y-106838881D01*
X137673941Y-106838885D01*
X137588855Y-106888008D01*
X137586287Y-106889450D01*
X137490359Y-106941832D01*
X137490345Y-106941841D01*
X137478479Y-106950724D01*
X137466190Y-106958831D01*
X137462958Y-106960697D01*
X137462947Y-106960704D01*
X137375610Y-107027718D01*
X137374438Y-107028607D01*
X137277530Y-107101153D01*
X137271140Y-107107542D01*
X137095928Y-107282754D01*
X137089553Y-107289130D01*
X137017007Y-107386038D01*
X137016118Y-107387210D01*
X136949104Y-107474547D01*
X136949097Y-107474558D01*
X136947231Y-107477790D01*
X136939124Y-107490079D01*
X136930241Y-107501945D01*
X136930232Y-107501959D01*
X136877850Y-107597887D01*
X136876408Y-107600455D01*
X136827285Y-107685541D01*
X136827281Y-107685551D01*
X136821329Y-107699919D01*
X136815604Y-107711885D01*
X136802832Y-107735275D01*
X136802831Y-107735276D01*
X136768746Y-107826660D01*
X136767127Y-107830776D01*
X136734053Y-107910624D01*
X136734052Y-107910628D01*
X136726964Y-107937079D01*
X136723373Y-107948313D01*
X136709927Y-107984363D01*
X136709926Y-107984366D01*
X136691708Y-108068114D01*
X136690317Y-108073847D01*
X136670999Y-108145944D01*
X136665881Y-108184814D01*
X136664109Y-108194979D01*
X136653419Y-108244125D01*
X136653417Y-108244135D01*
X136648143Y-108317870D01*
X136647398Y-108325205D01*
X136639200Y-108387483D01*
X136639200Y-108438499D01*
X136638884Y-108447345D01*
X136634453Y-108509298D01*
X136634453Y-108509301D01*
X82360947Y-108509301D01*
X82360947Y-108509298D01*
X82356516Y-108447345D01*
X82356200Y-108438499D01*
X82356200Y-108387487D01*
X82356199Y-108387483D01*
X82347996Y-108325178D01*
X82347255Y-108317870D01*
X82341982Y-108244132D01*
X82331287Y-108194971D01*
X82329517Y-108184809D01*
X82324401Y-108145949D01*
X82324401Y-108145947D01*
X82315853Y-108114049D01*
X82305077Y-108073829D01*
X82303686Y-108068093D01*
X82285473Y-107984368D01*
X82285472Y-107984363D01*
X82272023Y-107948307D01*
X82268433Y-107937074D01*
X82261347Y-107910624D01*
X82228265Y-107830758D01*
X82226644Y-107826639D01*
X82192569Y-107735279D01*
X82179793Y-107711883D01*
X82174063Y-107699904D01*
X82168120Y-107685555D01*
X82168118Y-107685551D01*
X82168115Y-107685543D01*
X82118973Y-107600428D01*
X82117544Y-107597881D01*
X82065169Y-107501963D01*
X82065162Y-107501952D01*
X82056282Y-107490089D01*
X82048162Y-107477778D01*
X82046308Y-107474567D01*
X82046306Y-107474565D01*
X82046302Y-107474557D01*
X81979266Y-107387194D01*
X81978399Y-107386049D01*
X81905854Y-107289140D01*
X81905847Y-107289132D01*
X81905845Y-107289130D01*
X81901115Y-107284400D01*
X81901079Y-107284361D01*
X81723011Y-107106294D01*
X81722982Y-107106266D01*
X81717877Y-107101161D01*
X81717856Y-107101143D01*
X81620949Y-107028598D01*
X81619774Y-107027708D01*
X81532446Y-106960700D01*
X81529206Y-106958829D01*
X81516915Y-106950720D01*
X81505051Y-106941840D01*
X81505047Y-106941837D01*
X81409116Y-106889454D01*
X81406545Y-106888010D01*
X81383955Y-106874968D01*
X81321457Y-106838885D01*
X81307080Y-106832930D01*
X81295118Y-106827207D01*
X81271721Y-106814431D01*
X81271718Y-106814430D01*
X81271713Y-106814427D01*
X81271709Y-106814425D01*
X81180340Y-106780346D01*
X81176221Y-106778726D01*
X81096380Y-106745655D01*
X81096378Y-106745654D01*
X81096377Y-106745654D01*
X81089496Y-106743810D01*
X81069916Y-106738563D01*
X81058681Y-106734971D01*
X81022638Y-106721528D01*
X81022638Y-106721527D01*
X80938893Y-106703310D01*
X80933160Y-106701919D01*
X80861061Y-106682601D01*
X80861049Y-106682598D01*
X80822178Y-106677480D01*
X80812010Y-106675707D01*
X80762879Y-106665019D01*
X80762869Y-106665018D01*
X80689128Y-106659743D01*
X80681792Y-106658998D01*
X80619515Y-106650800D01*
X80619513Y-106650800D01*
X80568500Y-106650800D01*
X80559654Y-106650484D01*
X80497701Y-106646053D01*
X80497699Y-106646053D01*
X80435746Y-106650484D01*
X80426900Y-106650800D01*
X80375884Y-106650800D01*
X80313605Y-106658998D01*
X80306270Y-106659743D01*
X80232535Y-106665017D01*
X80232525Y-106665019D01*
X80183379Y-106675709D01*
X80173214Y-106677481D01*
X80134344Y-106682599D01*
X80062247Y-106701917D01*
X80056514Y-106703308D01*
X79972766Y-106721526D01*
X79972763Y-106721527D01*
X79936713Y-106734973D01*
X79925479Y-106738564D01*
X79899028Y-106745652D01*
X79899024Y-106745653D01*
X79819176Y-106778727D01*
X79815060Y-106780346D01*
X79723676Y-106814431D01*
X79723675Y-106814432D01*
X79700285Y-106827204D01*
X79688319Y-106832929D01*
X79673951Y-106838881D01*
X79673941Y-106838885D01*
X79588855Y-106888008D01*
X79586287Y-106889450D01*
X79490359Y-106941832D01*
X79490345Y-106941841D01*
X79478479Y-106950724D01*
X79466190Y-106958831D01*
X79462958Y-106960697D01*
X79462947Y-106960704D01*
X79375610Y-107027718D01*
X79374438Y-107028607D01*
X79277530Y-107101153D01*
X79271140Y-107107542D01*
X79095928Y-107282754D01*
X79089553Y-107289130D01*
X79017007Y-107386038D01*
X79016118Y-107387210D01*
X78949104Y-107474547D01*
X78949097Y-107474558D01*
X78947231Y-107477790D01*
X78939124Y-107490079D01*
X78930241Y-107501945D01*
X78930232Y-107501959D01*
X78877850Y-107597887D01*
X78876408Y-107600455D01*
X78827285Y-107685541D01*
X78827281Y-107685551D01*
X78821329Y-107699919D01*
X78815604Y-107711885D01*
X78802832Y-107735275D01*
X78802831Y-107735276D01*
X78768746Y-107826660D01*
X78767127Y-107830776D01*
X78734053Y-107910624D01*
X78734052Y-107910628D01*
X78726964Y-107937079D01*
X78723373Y-107948313D01*
X78709927Y-107984363D01*
X78709926Y-107984366D01*
X78691708Y-108068114D01*
X78690317Y-108073847D01*
X78670999Y-108145944D01*
X78665881Y-108184814D01*
X78664109Y-108194979D01*
X78653419Y-108244125D01*
X78653417Y-108244135D01*
X78648143Y-108317870D01*
X78647398Y-108325205D01*
X78639200Y-108387483D01*
X78639200Y-108438499D01*
X78638884Y-108447345D01*
X78634453Y-108509298D01*
X78634453Y-108509301D01*
X77025500Y-108509301D01*
X77025500Y-104890000D01*
X116330001Y-104890000D01*
X116330001Y-105139986D01*
X116340494Y-105242697D01*
X116395641Y-105409119D01*
X116395643Y-105409124D01*
X116487684Y-105558345D01*
X116611654Y-105682315D01*
X116760875Y-105774356D01*
X116760880Y-105774358D01*
X116927302Y-105829505D01*
X116927309Y-105829506D01*
X117030019Y-105839999D01*
X117179999Y-105839999D01*
X117180000Y-105839998D01*
X117180000Y-104890000D01*
X116330001Y-104890000D01*
X77025500Y-104890000D01*
X77025500Y-101600000D01*
X81036835Y-101600000D01*
X81055465Y-101836714D01*
X81110895Y-102067595D01*
X81110895Y-102067597D01*
X81201757Y-102286959D01*
X81201759Y-102286962D01*
X81325820Y-102489410D01*
X81325821Y-102489413D01*
X81341669Y-102507968D01*
X81480031Y-102669969D01*
X81609859Y-102780853D01*
X81660586Y-102824178D01*
X81660588Y-102824178D01*
X81728090Y-102865544D01*
X81863037Y-102948240D01*
X81863040Y-102948242D01*
X82082403Y-103039104D01*
X82082404Y-103039104D01*
X82082406Y-103039105D01*
X82313289Y-103094535D01*
X82550000Y-103113165D01*
X82786711Y-103094535D01*
X83017594Y-103039105D01*
X83017596Y-103039104D01*
X83017597Y-103039104D01*
X83236959Y-102948242D01*
X83236960Y-102948241D01*
X83236963Y-102948240D01*
X83439416Y-102824176D01*
X83619969Y-102669969D01*
X83725711Y-102546160D01*
X83784216Y-102507968D01*
X83854084Y-102507469D01*
X83913131Y-102544823D01*
X83914200Y-102546057D01*
X84010672Y-102659011D01*
X84020031Y-102669969D01*
X84200586Y-102824178D01*
X84200588Y-102824178D01*
X84268090Y-102865544D01*
X84403037Y-102948240D01*
X84403040Y-102948242D01*
X84622403Y-103039104D01*
X84622404Y-103039104D01*
X84622406Y-103039105D01*
X84853289Y-103094535D01*
X85090000Y-103113165D01*
X85326711Y-103094535D01*
X85557594Y-103039105D01*
X85557596Y-103039104D01*
X85557597Y-103039104D01*
X85776959Y-102948242D01*
X85776960Y-102948241D01*
X85776963Y-102948240D01*
X85979416Y-102824176D01*
X86159969Y-102669969D01*
X86265711Y-102546160D01*
X86324216Y-102507968D01*
X86394084Y-102507469D01*
X86453131Y-102544823D01*
X86454200Y-102546057D01*
X86550672Y-102659011D01*
X86560031Y-102669969D01*
X86740586Y-102824178D01*
X86740588Y-102824178D01*
X86808090Y-102865544D01*
X86943037Y-102948240D01*
X86943040Y-102948242D01*
X87162403Y-103039104D01*
X87162404Y-103039104D01*
X87162406Y-103039105D01*
X87393289Y-103094535D01*
X87630000Y-103113165D01*
X87866711Y-103094535D01*
X88097594Y-103039105D01*
X88097596Y-103039104D01*
X88097597Y-103039104D01*
X88316959Y-102948242D01*
X88316960Y-102948241D01*
X88316963Y-102948240D01*
X88519416Y-102824176D01*
X88699969Y-102669969D01*
X88805711Y-102546160D01*
X88864216Y-102507968D01*
X88934084Y-102507469D01*
X88993131Y-102544823D01*
X88994200Y-102546057D01*
X89090672Y-102659011D01*
X89100031Y-102669969D01*
X89280586Y-102824178D01*
X89280588Y-102824178D01*
X89348090Y-102865544D01*
X89483037Y-102948240D01*
X89483040Y-102948242D01*
X89702403Y-103039104D01*
X89702404Y-103039104D01*
X89702406Y-103039105D01*
X89933289Y-103094535D01*
X90170000Y-103113165D01*
X90406711Y-103094535D01*
X90637594Y-103039105D01*
X90637596Y-103039104D01*
X90637597Y-103039104D01*
X90856959Y-102948242D01*
X90856960Y-102948241D01*
X90856963Y-102948240D01*
X91059416Y-102824176D01*
X91239969Y-102669969D01*
X91345711Y-102546160D01*
X91404216Y-102507968D01*
X91474084Y-102507469D01*
X91533131Y-102544823D01*
X91534200Y-102546057D01*
X91630672Y-102659011D01*
X91640031Y-102669969D01*
X91820586Y-102824178D01*
X91820588Y-102824178D01*
X91888090Y-102865544D01*
X92023037Y-102948240D01*
X92023040Y-102948242D01*
X92242403Y-103039104D01*
X92242404Y-103039104D01*
X92242406Y-103039105D01*
X92473289Y-103094535D01*
X92710000Y-103113165D01*
X92946711Y-103094535D01*
X93177594Y-103039105D01*
X93177596Y-103039104D01*
X93177597Y-103039104D01*
X93396959Y-102948242D01*
X93396960Y-102948241D01*
X93396963Y-102948240D01*
X93599416Y-102824176D01*
X93779969Y-102669969D01*
X93885711Y-102546160D01*
X93944216Y-102507968D01*
X94014084Y-102507469D01*
X94073131Y-102544823D01*
X94074200Y-102546057D01*
X94170672Y-102659011D01*
X94180031Y-102669969D01*
X94360586Y-102824178D01*
X94360588Y-102824178D01*
X94428090Y-102865544D01*
X94563037Y-102948240D01*
X94563040Y-102948242D01*
X94782403Y-103039104D01*
X94782404Y-103039104D01*
X94782406Y-103039105D01*
X95013289Y-103094535D01*
X95250000Y-103113165D01*
X95486711Y-103094535D01*
X95717594Y-103039105D01*
X95717596Y-103039104D01*
X95717597Y-103039104D01*
X95936959Y-102948242D01*
X95936960Y-102948241D01*
X95936963Y-102948240D01*
X96139416Y-102824176D01*
X96319969Y-102669969D01*
X96425711Y-102546160D01*
X96484216Y-102507968D01*
X96554084Y-102507469D01*
X96613131Y-102544823D01*
X96614200Y-102546057D01*
X96710672Y-102659011D01*
X96720031Y-102669969D01*
X96900586Y-102824178D01*
X96900588Y-102824178D01*
X96968090Y-102865544D01*
X97103037Y-102948240D01*
X97103040Y-102948242D01*
X97322403Y-103039104D01*
X97322404Y-103039104D01*
X97322406Y-103039105D01*
X97553289Y-103094535D01*
X97790000Y-103113165D01*
X98026711Y-103094535D01*
X98257594Y-103039105D01*
X98257596Y-103039104D01*
X98257597Y-103039104D01*
X98476959Y-102948242D01*
X98476960Y-102948241D01*
X98476963Y-102948240D01*
X98679416Y-102824176D01*
X98859969Y-102669969D01*
X99014176Y-102489416D01*
X99138240Y-102286963D01*
X99165483Y-102221194D01*
X99229104Y-102067597D01*
X99229104Y-102067596D01*
X99229105Y-102067594D01*
X99284535Y-101836711D01*
X99303165Y-101600000D01*
X99284535Y-101363289D01*
X99229105Y-101132406D01*
X99229104Y-101132403D01*
X99229104Y-101132402D01*
X99138242Y-100913040D01*
X99138240Y-100913037D01*
X99014179Y-100710589D01*
X99014178Y-100710586D01*
X98859969Y-100530031D01*
X98736160Y-100424288D01*
X98697968Y-100365784D01*
X98697469Y-100295916D01*
X98734823Y-100236869D01*
X98736057Y-100235799D01*
X98859969Y-100129969D01*
X99014176Y-99949416D01*
X99138240Y-99746963D01*
X99194113Y-99612074D01*
X99229104Y-99527597D01*
X99229104Y-99527596D01*
X99229105Y-99527594D01*
X99284535Y-99296711D01*
X99303165Y-99060000D01*
X99284535Y-98823289D01*
X99229105Y-98592406D01*
X99229104Y-98592403D01*
X99229104Y-98592402D01*
X99138242Y-98373040D01*
X99138240Y-98373037D01*
X99014179Y-98170589D01*
X99014178Y-98170586D01*
X98859969Y-97990031D01*
X98736160Y-97884288D01*
X98697968Y-97825784D01*
X98697469Y-97755916D01*
X98734823Y-97696869D01*
X98736057Y-97695799D01*
X98859969Y-97589969D01*
X99014176Y-97409416D01*
X99138240Y-97206963D01*
X99138520Y-97206289D01*
X99229104Y-96987597D01*
X99229104Y-96987596D01*
X99229105Y-96987594D01*
X99284535Y-96756711D01*
X99303165Y-96520000D01*
X99284535Y-96283289D01*
X99243796Y-96113600D01*
X107188896Y-96113600D01*
X107208858Y-96303528D01*
X107208859Y-96303531D01*
X107267870Y-96485149D01*
X107267873Y-96485156D01*
X107363360Y-96650544D01*
X107491147Y-96792466D01*
X107645648Y-96904718D01*
X107820112Y-96982394D01*
X108006913Y-97022100D01*
X108197887Y-97022100D01*
X108384688Y-96982394D01*
X108559152Y-96904718D01*
X108713653Y-96792466D01*
X108841440Y-96650544D01*
X108936927Y-96485156D01*
X108995942Y-96303528D01*
X109015904Y-96113600D01*
X108995942Y-95923672D01*
X108936927Y-95742044D01*
X108841440Y-95576656D01*
X108713653Y-95434734D01*
X108559152Y-95322482D01*
X108384688Y-95244806D01*
X108384686Y-95244805D01*
X108197887Y-95205100D01*
X108006913Y-95205100D01*
X107820114Y-95244805D01*
X107645646Y-95322483D01*
X107491145Y-95434735D01*
X107363359Y-95576657D01*
X107267873Y-95742043D01*
X107267870Y-95742050D01*
X107238307Y-95833037D01*
X107208858Y-95923672D01*
X107188896Y-96113600D01*
X99243796Y-96113600D01*
X99229105Y-96052406D01*
X99229104Y-96052403D01*
X99229104Y-96052402D01*
X99138242Y-95833040D01*
X99138240Y-95833037D01*
X99082479Y-95742044D01*
X99014178Y-95630588D01*
X99014178Y-95630586D01*
X98859969Y-95450031D01*
X98736160Y-95344288D01*
X98697968Y-95285784D01*
X98697469Y-95215916D01*
X98734823Y-95156869D01*
X98736057Y-95155799D01*
X98859969Y-95049969D01*
X99014176Y-94869416D01*
X99138240Y-94666963D01*
X99164109Y-94604511D01*
X99229104Y-94447597D01*
X99229104Y-94447596D01*
X99229105Y-94447594D01*
X99284535Y-94216711D01*
X99303165Y-93980000D01*
X99295169Y-93878400D01*
X115418496Y-93878400D01*
X115438458Y-94068328D01*
X115438459Y-94068331D01*
X115497470Y-94249949D01*
X115497473Y-94249956D01*
X115592960Y-94415344D01*
X115666649Y-94497184D01*
X115696880Y-94560175D01*
X115698500Y-94580156D01*
X115698500Y-102221198D01*
X115722843Y-102343577D01*
X115722845Y-102343585D01*
X115770598Y-102458872D01*
X115770603Y-102458881D01*
X115839928Y-102562632D01*
X115839931Y-102562636D01*
X116209364Y-102932069D01*
X116209367Y-102932071D01*
X116309471Y-102998958D01*
X116354276Y-103052570D01*
X116358286Y-103063056D01*
X116407885Y-103212738D01*
X116492021Y-103349144D01*
X116500971Y-103363653D01*
X116585647Y-103448329D01*
X116619132Y-103509652D01*
X116614148Y-103579344D01*
X116585648Y-103623691D01*
X116487682Y-103721657D01*
X116395643Y-103870875D01*
X116395641Y-103870880D01*
X116340494Y-104037302D01*
X116340493Y-104037309D01*
X116330000Y-104140013D01*
X116330000Y-104390000D01*
X117556000Y-104390000D01*
X117623039Y-104409685D01*
X117668794Y-104462489D01*
X117680000Y-104514000D01*
X117680000Y-105839999D01*
X117829972Y-105839999D01*
X117829986Y-105839998D01*
X117932697Y-105829505D01*
X118099119Y-105774358D01*
X118099124Y-105774356D01*
X118248342Y-105682317D01*
X118336307Y-105594352D01*
X118397630Y-105560867D01*
X118467322Y-105565851D01*
X118511670Y-105594352D01*
X118606348Y-105689030D01*
X118757262Y-105782115D01*
X118925574Y-105837887D01*
X119029455Y-105848500D01*
X119830544Y-105848499D01*
X119934426Y-105837887D01*
X120102738Y-105782115D01*
X120253652Y-105689030D01*
X120379030Y-105563652D01*
X120472115Y-105412738D01*
X120527887Y-105244426D01*
X120538500Y-105140545D01*
X120538499Y-104985321D01*
X120558183Y-104918284D01*
X120610987Y-104872529D01*
X120680145Y-104862585D01*
X120743701Y-104891610D01*
X120769231Y-104922202D01*
X120839814Y-105041552D01*
X120839821Y-105041561D01*
X120955938Y-105157678D01*
X120955947Y-105157685D01*
X121097303Y-105241282D01*
X121097306Y-105241283D01*
X121255004Y-105287099D01*
X121255010Y-105287100D01*
X121291850Y-105289999D01*
X121291866Y-105290000D01*
X121695000Y-105290000D01*
X121695000Y-104740000D01*
X122195000Y-104740000D01*
X122195000Y-105290000D01*
X122598134Y-105290000D01*
X122598149Y-105289999D01*
X122634989Y-105287100D01*
X122634995Y-105287099D01*
X122792693Y-105241283D01*
X122792696Y-105241282D01*
X122934052Y-105157685D01*
X122934061Y-105157678D01*
X123050178Y-105041561D01*
X123050185Y-105041552D01*
X123133781Y-104900198D01*
X123179600Y-104742486D01*
X123179795Y-104740001D01*
X123179795Y-104740000D01*
X122195000Y-104740000D01*
X121695000Y-104740000D01*
X121695000Y-103690000D01*
X121291850Y-103690000D01*
X121255010Y-103692899D01*
X121255004Y-103692900D01*
X121097306Y-103738716D01*
X121097303Y-103738717D01*
X120955947Y-103822314D01*
X120955938Y-103822321D01*
X120839821Y-103938438D01*
X120839814Y-103938447D01*
X120757074Y-104078354D01*
X120706005Y-104126038D01*
X120637263Y-104138541D01*
X120572674Y-104111895D01*
X120532744Y-104054560D01*
X120529088Y-104041186D01*
X120527887Y-104035582D01*
X120527887Y-104035574D01*
X120472115Y-103867262D01*
X120379030Y-103716348D01*
X120300363Y-103637681D01*
X120266878Y-103576358D01*
X120271862Y-103506666D01*
X120300363Y-103462319D01*
X120344497Y-103418185D01*
X120399030Y-103363652D01*
X120449146Y-103282400D01*
X120501092Y-103235679D01*
X120554683Y-103223500D01*
X120858377Y-103223500D01*
X120925416Y-103243185D01*
X120946058Y-103259819D01*
X120950687Y-103264448D01*
X120950691Y-103264451D01*
X120950693Y-103264453D01*
X121093899Y-103349145D01*
X121136030Y-103361385D01*
X121253664Y-103395561D01*
X121253667Y-103395561D01*
X121253669Y-103395562D01*
X121290998Y-103398500D01*
X122450000Y-103398500D01*
X122517039Y-103418185D01*
X122562794Y-103470989D01*
X122574000Y-103522500D01*
X122574000Y-103566000D01*
X122554315Y-103633039D01*
X122501511Y-103678794D01*
X122450000Y-103690000D01*
X122195000Y-103690000D01*
X122195000Y-104240000D01*
X122834969Y-104240000D01*
X122898087Y-104257266D01*
X122968899Y-104299145D01*
X122968901Y-104299145D01*
X122968902Y-104299146D01*
X123128664Y-104345561D01*
X123128667Y-104345561D01*
X123128669Y-104345562D01*
X123165998Y-104348500D01*
X123166004Y-104348500D01*
X124473996Y-104348500D01*
X124474002Y-104348500D01*
X124511331Y-104345562D01*
X124511333Y-104345561D01*
X124511335Y-104345561D01*
X124553462Y-104333321D01*
X124671101Y-104299145D01*
X124814307Y-104214453D01*
X124814312Y-104214448D01*
X124818942Y-104209819D01*
X124880265Y-104176334D01*
X124906623Y-104173500D01*
X127459195Y-104173500D01*
X127459196Y-104173499D01*
X127581585Y-104149155D01*
X127696875Y-104101400D01*
X127800633Y-104032071D01*
X128298672Y-103534033D01*
X128368001Y-103430275D01*
X128401768Y-103348752D01*
X128415755Y-103314985D01*
X128440100Y-103192594D01*
X128440100Y-99721129D01*
X128459785Y-99654090D01*
X128505084Y-99612074D01*
X128552166Y-99586595D01*
X128552169Y-99586592D01*
X128552176Y-99586589D01*
X128729840Y-99448306D01*
X128869392Y-99296714D01*
X128882315Y-99282676D01*
X128882316Y-99282674D01*
X128882322Y-99282668D01*
X129005460Y-99094191D01*
X129095896Y-98888016D01*
X129151164Y-98669768D01*
X129169756Y-98445400D01*
X129151164Y-98221032D01*
X129095896Y-98002784D01*
X129005460Y-97796609D01*
X128882322Y-97608132D01*
X128882319Y-97608129D01*
X128882315Y-97608123D01*
X128737110Y-97450391D01*
X128706187Y-97387737D01*
X128714047Y-97318311D01*
X128758194Y-97264155D01*
X128785005Y-97250227D01*
X128865184Y-97220320D01*
X128902804Y-97206289D01*
X129019861Y-97118661D01*
X129107489Y-97001604D01*
X129158589Y-96864601D01*
X129162191Y-96831092D01*
X129165099Y-96804054D01*
X129165100Y-96804037D01*
X129165100Y-95006762D01*
X129165099Y-95006745D01*
X129161757Y-94975670D01*
X129158589Y-94946199D01*
X129107489Y-94809196D01*
X129019861Y-94692139D01*
X128902804Y-94604511D01*
X128765803Y-94553411D01*
X128705254Y-94546900D01*
X128705238Y-94546900D01*
X126907962Y-94546900D01*
X126907945Y-94546900D01*
X126847397Y-94553411D01*
X126847395Y-94553411D01*
X126710395Y-94604511D01*
X126593339Y-94692139D01*
X126505711Y-94809195D01*
X126454611Y-94946195D01*
X126454611Y-94946197D01*
X126448100Y-95006745D01*
X126448100Y-96804054D01*
X126454611Y-96864602D01*
X126454611Y-96864604D01*
X126505711Y-97001604D01*
X126593339Y-97118661D01*
X126710396Y-97206289D01*
X126762337Y-97225662D01*
X126828195Y-97250227D01*
X126884128Y-97292099D01*
X126908544Y-97357563D01*
X126893692Y-97425836D01*
X126876090Y-97450391D01*
X126730879Y-97608130D01*
X126730876Y-97608134D01*
X126607740Y-97796607D01*
X126517303Y-98002785D01*
X126462036Y-98221028D01*
X126462034Y-98221040D01*
X126443444Y-98445394D01*
X126443444Y-98445405D01*
X126462034Y-98669759D01*
X126462036Y-98669771D01*
X126517303Y-98888014D01*
X126607740Y-99094192D01*
X126730876Y-99282665D01*
X126730884Y-99282676D01*
X126883356Y-99448302D01*
X126883360Y-99448306D01*
X127061024Y-99586589D01*
X127061026Y-99586590D01*
X127061033Y-99586595D01*
X127108116Y-99612074D01*
X127157707Y-99661292D01*
X127173100Y-99721129D01*
X127173100Y-102782500D01*
X127153415Y-102849539D01*
X127100611Y-102895294D01*
X127049100Y-102906500D01*
X124906623Y-102906500D01*
X124839584Y-102886815D01*
X124818942Y-102870181D01*
X124814312Y-102865551D01*
X124814303Y-102865544D01*
X124671101Y-102780855D01*
X124671096Y-102780853D01*
X124511335Y-102734438D01*
X124511329Y-102734437D01*
X124474007Y-102731500D01*
X124474002Y-102731500D01*
X123315000Y-102731500D01*
X123247961Y-102711815D01*
X123202206Y-102659011D01*
X123191000Y-102607500D01*
X123191000Y-102373504D01*
X123191000Y-102373498D01*
X123188062Y-102336169D01*
X123173766Y-102286963D01*
X123141646Y-102176403D01*
X123141645Y-102176399D01*
X123056953Y-102033193D01*
X123056951Y-102033191D01*
X123056948Y-102033187D01*
X122939312Y-101915551D01*
X122939303Y-101915544D01*
X122796101Y-101830855D01*
X122796096Y-101830853D01*
X122636335Y-101784438D01*
X122636329Y-101784437D01*
X122599007Y-101781500D01*
X122599002Y-101781500D01*
X121290998Y-101781500D01*
X121290992Y-101781500D01*
X121253670Y-101784437D01*
X121253664Y-101784438D01*
X121093903Y-101830853D01*
X121093898Y-101830855D01*
X120950696Y-101915544D01*
X120950687Y-101915551D01*
X120946058Y-101920181D01*
X120884735Y-101953666D01*
X120858377Y-101956500D01*
X120672218Y-101956500D01*
X120605179Y-101936815D01*
X120559424Y-101884011D01*
X120548860Y-101845099D01*
X120547887Y-101835573D01*
X120529296Y-101779470D01*
X120492115Y-101667262D01*
X120399030Y-101516348D01*
X120273652Y-101390970D01*
X120122738Y-101297885D01*
X120122735Y-101297884D01*
X119954427Y-101242113D01*
X119850546Y-101231500D01*
X119049462Y-101231500D01*
X119049446Y-101231501D01*
X118945572Y-101242113D01*
X118777264Y-101297884D01*
X118777259Y-101297886D01*
X118626346Y-101390971D01*
X118537681Y-101479637D01*
X118476358Y-101513122D01*
X118406666Y-101508138D01*
X118362319Y-101479637D01*
X118273653Y-101390971D01*
X118273652Y-101390970D01*
X118122738Y-101297885D01*
X118122735Y-101297884D01*
X117954427Y-101242113D01*
X117850552Y-101231500D01*
X117089500Y-101231500D01*
X117022461Y-101211815D01*
X116976706Y-101159011D01*
X116965500Y-101107500D01*
X116965500Y-94580156D01*
X116985185Y-94513117D01*
X116997346Y-94497188D01*
X117071040Y-94415344D01*
X117166527Y-94249956D01*
X117225542Y-94068328D01*
X117245504Y-93878400D01*
X117225542Y-93688472D01*
X117166527Y-93506844D01*
X117071040Y-93341456D01*
X116943253Y-93199534D01*
X116788752Y-93087282D01*
X116614288Y-93009606D01*
X116614286Y-93009605D01*
X116427487Y-92969900D01*
X116236513Y-92969900D01*
X116049714Y-93009605D01*
X115962480Y-93048444D01*
X115909503Y-93072031D01*
X115875246Y-93087283D01*
X115720745Y-93199535D01*
X115592959Y-93341457D01*
X115497473Y-93506843D01*
X115497470Y-93506850D01*
X115438459Y-93688468D01*
X115438458Y-93688472D01*
X115418496Y-93878400D01*
X99295169Y-93878400D01*
X99284535Y-93743289D01*
X99229105Y-93512406D01*
X99229104Y-93512403D01*
X99229104Y-93512402D01*
X99138242Y-93293040D01*
X99138240Y-93293037D01*
X99014179Y-93090589D01*
X99014178Y-93090586D01*
X98945013Y-93009605D01*
X98859969Y-92910031D01*
X98740596Y-92808076D01*
X98679413Y-92755821D01*
X98679410Y-92755820D01*
X98476963Y-92631760D01*
X98467450Y-92627819D01*
X98413048Y-92583976D01*
X98390985Y-92517681D01*
X98408266Y-92449983D01*
X98455889Y-92404204D01*
X98613228Y-92319057D01*
X98613231Y-92319055D01*
X98660056Y-92282609D01*
X97919409Y-91541962D01*
X97982993Y-91524925D01*
X98097007Y-91459099D01*
X98190099Y-91366007D01*
X98255925Y-91251993D01*
X98272962Y-91188410D01*
X99013434Y-91928882D01*
X99113731Y-91775369D01*
X99213587Y-91547717D01*
X99274612Y-91306738D01*
X99274614Y-91306729D01*
X99295141Y-91059005D01*
X99295141Y-91058994D01*
X99274614Y-90811270D01*
X99274612Y-90811261D01*
X99213587Y-90570282D01*
X99113731Y-90342630D01*
X99013434Y-90189116D01*
X98272962Y-90929589D01*
X98255925Y-90866007D01*
X98190099Y-90751993D01*
X98097007Y-90658901D01*
X97982993Y-90593075D01*
X97919410Y-90576037D01*
X98660056Y-89835390D01*
X98659430Y-89825298D01*
X98674922Y-89757168D01*
X98702658Y-89723325D01*
X98859969Y-89588969D01*
X99014176Y-89408416D01*
X99138240Y-89205963D01*
X99229105Y-88986594D01*
X99284535Y-88755711D01*
X99303165Y-88519000D01*
X99284535Y-88282289D01*
X99229105Y-88051406D01*
X99229104Y-88051403D01*
X99229104Y-88051402D01*
X99138242Y-87832040D01*
X99138240Y-87832037D01*
X99060000Y-87704361D01*
X99014178Y-87629588D01*
X99014178Y-87629586D01*
X98911843Y-87509768D01*
X98859969Y-87449031D01*
X98705171Y-87316821D01*
X98685244Y-87299801D01*
X104147302Y-87299801D01*
X104167256Y-87527881D01*
X104167257Y-87527889D01*
X104226514Y-87749038D01*
X104226518Y-87749049D01*
X104306627Y-87920843D01*
X104323277Y-87956549D01*
X104454602Y-88144100D01*
X104616500Y-88305998D01*
X104804051Y-88437323D01*
X104859245Y-88463060D01*
X105011550Y-88534081D01*
X105011552Y-88534081D01*
X105011557Y-88534084D01*
X105232713Y-88593343D01*
X105395632Y-88607596D01*
X105460798Y-88613298D01*
X105460800Y-88613298D01*
X105460802Y-88613298D01*
X105517939Y-88608299D01*
X105688887Y-88593343D01*
X105910043Y-88534084D01*
X106117549Y-88437323D01*
X106305100Y-88305998D01*
X106466998Y-88144100D01*
X106598323Y-87956549D01*
X106695084Y-87749043D01*
X106754343Y-87527887D01*
X106774298Y-87299800D01*
X106773862Y-87294821D01*
X106758140Y-87115114D01*
X106754343Y-87071713D01*
X106695084Y-86850557D01*
X106598323Y-86643051D01*
X106466998Y-86455500D01*
X106305100Y-86293602D01*
X106117549Y-86162277D01*
X106074455Y-86142182D01*
X106022015Y-86096010D01*
X106002863Y-86028817D01*
X106023078Y-85961936D01*
X106074455Y-85917418D01*
X106077682Y-85915912D01*
X106117549Y-85897323D01*
X106305100Y-85765998D01*
X106466998Y-85604100D01*
X106577579Y-85446174D01*
X106632154Y-85402551D01*
X106679152Y-85393300D01*
X106952500Y-85393300D01*
X107019539Y-85412985D01*
X107065294Y-85465789D01*
X107076500Y-85517300D01*
X107076500Y-89404476D01*
X107056815Y-89471515D01*
X107017598Y-89510013D01*
X106930186Y-89563930D01*
X106886346Y-89590971D01*
X106760971Y-89716346D01*
X106667886Y-89867259D01*
X106667884Y-89867264D01*
X106612113Y-90035572D01*
X106601500Y-90139447D01*
X106601500Y-91140537D01*
X106601501Y-91140553D01*
X106612113Y-91244427D01*
X106627563Y-91291052D01*
X106667885Y-91412738D01*
X106760970Y-91563652D01*
X106886348Y-91689030D01*
X107037262Y-91782115D01*
X107205574Y-91837887D01*
X107309455Y-91848500D01*
X108110544Y-91848499D01*
X108214426Y-91837887D01*
X108382738Y-91782115D01*
X108533652Y-91689030D01*
X108622319Y-91600363D01*
X108683642Y-91566878D01*
X108753334Y-91571862D01*
X108797681Y-91600363D01*
X108886348Y-91689030D01*
X109037262Y-91782115D01*
X109205574Y-91837887D01*
X109309455Y-91848500D01*
X110110544Y-91848499D01*
X110214426Y-91837887D01*
X110382738Y-91782115D01*
X110533652Y-91689030D01*
X110659030Y-91563652D01*
X110752115Y-91412738D01*
X110807887Y-91244426D01*
X110818500Y-91140545D01*
X110818499Y-90139456D01*
X110807887Y-90035574D01*
X110752115Y-89867262D01*
X110659030Y-89716348D01*
X110533652Y-89590970D01*
X110402402Y-89510013D01*
X110355678Y-89458067D01*
X110343500Y-89404476D01*
X110343500Y-84759801D01*
X111767302Y-84759801D01*
X111787256Y-84987881D01*
X111787257Y-84987889D01*
X111846514Y-85209038D01*
X111846518Y-85209049D01*
X111939266Y-85407948D01*
X111943277Y-85416549D01*
X112074602Y-85604100D01*
X112236500Y-85765998D01*
X112244170Y-85771368D01*
X112287793Y-85825944D01*
X112294985Y-85895442D01*
X112263463Y-85957797D01*
X112203233Y-85993210D01*
X112186301Y-85996230D01*
X112171597Y-85997811D01*
X112171595Y-85997811D01*
X112034595Y-86048911D01*
X111917539Y-86136539D01*
X111829911Y-86253595D01*
X111778811Y-86390595D01*
X111778811Y-86390597D01*
X111772300Y-86451145D01*
X111772300Y-88148454D01*
X111778811Y-88209002D01*
X111778811Y-88209004D01*
X111814989Y-88305998D01*
X111829911Y-88346004D01*
X111917539Y-88463061D01*
X112034596Y-88550689D01*
X112171599Y-88601789D01*
X112198850Y-88604718D01*
X112232145Y-88608299D01*
X112232162Y-88608300D01*
X112322500Y-88608300D01*
X112389539Y-88627985D01*
X112435294Y-88680789D01*
X112446500Y-88732300D01*
X112446500Y-89394476D01*
X112426815Y-89461515D01*
X112387598Y-89500013D01*
X112371384Y-89510015D01*
X112256346Y-89580971D01*
X112130971Y-89706346D01*
X112037886Y-89857259D01*
X112037884Y-89857264D01*
X111982113Y-90025572D01*
X111971500Y-90129447D01*
X111971500Y-91130537D01*
X111971501Y-91130553D01*
X111982113Y-91234427D01*
X112006071Y-91306729D01*
X112037885Y-91402738D01*
X112130970Y-91553652D01*
X112256348Y-91679030D01*
X112407262Y-91772115D01*
X112575574Y-91827887D01*
X112679455Y-91838500D01*
X113480544Y-91838499D01*
X113584426Y-91827887D01*
X113752738Y-91772115D01*
X113903652Y-91679030D01*
X113992319Y-91590363D01*
X114053642Y-91556878D01*
X114123334Y-91561862D01*
X114167681Y-91590363D01*
X114256348Y-91679030D01*
X114407262Y-91772115D01*
X114575574Y-91827887D01*
X114679455Y-91838500D01*
X115480544Y-91838499D01*
X115584426Y-91827887D01*
X115752738Y-91772115D01*
X115903652Y-91679030D01*
X116029030Y-91553652D01*
X116122115Y-91402738D01*
X116122117Y-91402733D01*
X116140089Y-91348497D01*
X116179861Y-91291052D01*
X116244376Y-91264228D01*
X116257795Y-91263500D01*
X125230795Y-91263500D01*
X125230796Y-91263499D01*
X125353185Y-91239155D01*
X125468475Y-91191400D01*
X125572233Y-91122071D01*
X125968071Y-90726233D01*
X126037400Y-90622475D01*
X126085155Y-90507185D01*
X126109500Y-90384794D01*
X126109500Y-90260006D01*
X126109500Y-84890000D01*
X126129185Y-84822961D01*
X126181989Y-84777206D01*
X126233500Y-84766000D01*
X126400300Y-84766000D01*
X126467339Y-84785685D01*
X126513094Y-84838489D01*
X126524300Y-84890000D01*
X126524300Y-85031154D01*
X126530811Y-85091702D01*
X126530811Y-85091704D01*
X126574576Y-85209038D01*
X126581911Y-85228704D01*
X126669539Y-85345761D01*
X126786596Y-85433389D01*
X126820879Y-85446176D01*
X126904395Y-85477327D01*
X126960328Y-85519199D01*
X126984744Y-85584663D01*
X126969892Y-85652936D01*
X126952290Y-85677491D01*
X126807079Y-85835230D01*
X126807076Y-85835234D01*
X126683940Y-86023707D01*
X126593503Y-86229885D01*
X126538236Y-86448128D01*
X126538234Y-86448140D01*
X126519644Y-86672494D01*
X126519644Y-86672505D01*
X126538234Y-86896859D01*
X126538236Y-86896871D01*
X126593503Y-87115114D01*
X126683940Y-87321292D01*
X126807076Y-87509765D01*
X126807084Y-87509776D01*
X126959556Y-87675402D01*
X126959560Y-87675406D01*
X127137224Y-87813689D01*
X127137225Y-87813689D01*
X127137227Y-87813691D01*
X127263935Y-87882261D01*
X127335226Y-87920842D01*
X127548165Y-87993944D01*
X127770231Y-88031000D01*
X127995369Y-88031000D01*
X128217435Y-87993944D01*
X128430374Y-87920842D01*
X128628376Y-87813689D01*
X128806040Y-87675406D01*
X128905414Y-87567457D01*
X128958515Y-87509776D01*
X128958516Y-87509774D01*
X128958522Y-87509768D01*
X129011923Y-87428031D01*
X129054948Y-87362178D01*
X129108094Y-87316821D01*
X129158756Y-87306000D01*
X129493095Y-87306000D01*
X129493096Y-87305999D01*
X129615485Y-87281655D01*
X129730775Y-87233900D01*
X129834533Y-87164571D01*
X130336871Y-86662233D01*
X130406200Y-86558475D01*
X130453955Y-86443185D01*
X130478300Y-86320794D01*
X130478300Y-86196006D01*
X130478300Y-82335206D01*
X130453955Y-82212815D01*
X130406200Y-82097525D01*
X130406199Y-82097524D01*
X130406196Y-82097518D01*
X130336872Y-81993768D01*
X130301918Y-81958814D01*
X130248633Y-81905529D01*
X130011081Y-81667977D01*
X129740636Y-81397531D01*
X129740632Y-81397528D01*
X129636881Y-81328203D01*
X129636872Y-81328198D01*
X129521585Y-81280445D01*
X129521577Y-81280443D01*
X129399198Y-81256100D01*
X129399194Y-81256100D01*
X116749994Y-81256100D01*
X116625206Y-81256100D01*
X116625201Y-81256100D01*
X116502822Y-81280443D01*
X116502814Y-81280445D01*
X116387527Y-81328198D01*
X116387518Y-81328203D01*
X116283767Y-81397528D01*
X116283763Y-81397531D01*
X116029767Y-81651529D01*
X115985647Y-81695649D01*
X115941527Y-81739768D01*
X115872203Y-81843518D01*
X115872198Y-81843527D01*
X115824445Y-81958814D01*
X115824443Y-81958822D01*
X115800100Y-82081201D01*
X115800100Y-84002300D01*
X115780415Y-84069339D01*
X115727611Y-84115094D01*
X115676100Y-84126300D01*
X114299152Y-84126300D01*
X114232113Y-84106615D01*
X114197579Y-84073426D01*
X114086998Y-83915500D01*
X113925100Y-83753602D01*
X113737549Y-83622277D01*
X113694455Y-83602182D01*
X113642015Y-83556010D01*
X113622863Y-83488817D01*
X113643078Y-83421936D01*
X113694455Y-83377418D01*
X113699640Y-83375000D01*
X113737549Y-83357323D01*
X113925100Y-83225998D01*
X114086998Y-83064100D01*
X114218323Y-82876549D01*
X114315084Y-82669043D01*
X114374343Y-82447887D01*
X114394298Y-82219800D01*
X114374343Y-81991713D01*
X114315084Y-81770557D01*
X114300726Y-81739767D01*
X114218324Y-81563054D01*
X114218323Y-81563052D01*
X114218323Y-81563051D01*
X114086998Y-81375500D01*
X113925100Y-81213602D01*
X113737549Y-81082277D01*
X113737545Y-81082275D01*
X113530049Y-80985518D01*
X113530038Y-80985514D01*
X113308889Y-80926257D01*
X113308881Y-80926256D01*
X113080802Y-80906302D01*
X113080798Y-80906302D01*
X112852718Y-80926256D01*
X112852710Y-80926257D01*
X112631561Y-80985514D01*
X112631550Y-80985518D01*
X112424054Y-81082275D01*
X112424052Y-81082276D01*
X112381369Y-81112163D01*
X112236500Y-81213602D01*
X112236498Y-81213603D01*
X112236495Y-81213606D01*
X112074606Y-81375495D01*
X112074603Y-81375498D01*
X112074602Y-81375500D01*
X111992567Y-81492656D01*
X111943276Y-81563052D01*
X111943275Y-81563054D01*
X111846518Y-81770550D01*
X111846514Y-81770561D01*
X111787257Y-81991710D01*
X111787256Y-81991718D01*
X111767302Y-82219798D01*
X111767302Y-82219801D01*
X111787256Y-82447881D01*
X111787257Y-82447889D01*
X111846514Y-82669038D01*
X111846518Y-82669049D01*
X111898494Y-82780511D01*
X111943277Y-82876549D01*
X112074602Y-83064100D01*
X112236500Y-83225998D01*
X112424051Y-83357323D01*
X112467145Y-83377418D01*
X112519584Y-83423591D01*
X112538736Y-83490784D01*
X112518520Y-83557665D01*
X112467145Y-83602182D01*
X112424051Y-83622276D01*
X112298926Y-83709890D01*
X112236500Y-83753602D01*
X112236498Y-83753603D01*
X112236495Y-83753606D01*
X112074606Y-83915495D01*
X111943276Y-84103052D01*
X111943275Y-84103054D01*
X111846518Y-84310550D01*
X111846514Y-84310561D01*
X111787257Y-84531710D01*
X111787256Y-84531718D01*
X111767302Y-84759798D01*
X111767302Y-84759801D01*
X110343500Y-84759801D01*
X110343500Y-81453605D01*
X110343499Y-81453601D01*
X110332346Y-81397531D01*
X110319155Y-81331215D01*
X110298125Y-81280445D01*
X110271401Y-81215925D01*
X110271397Y-81215919D01*
X110202072Y-81112166D01*
X110202069Y-81112163D01*
X109725436Y-80635531D01*
X109725432Y-80635528D01*
X109621681Y-80566203D01*
X109621672Y-80566198D01*
X109506385Y-80518445D01*
X109506377Y-80518443D01*
X109383998Y-80494100D01*
X109383994Y-80494100D01*
X107539709Y-80494100D01*
X107472670Y-80474415D01*
X107447560Y-80453073D01*
X107443654Y-80448735D01*
X107424505Y-80434822D01*
X107289152Y-80336482D01*
X107114688Y-80258806D01*
X107114686Y-80258805D01*
X106927887Y-80219100D01*
X106736913Y-80219100D01*
X106550114Y-80258805D01*
X106375646Y-80336483D01*
X106221145Y-80448735D01*
X106093359Y-80590657D01*
X105997873Y-80756043D01*
X105997871Y-80756047D01*
X105958612Y-80876875D01*
X105919174Y-80934550D01*
X105854815Y-80961748D01*
X105808588Y-80958331D01*
X105719837Y-80934550D01*
X105688888Y-80926257D01*
X105688881Y-80926256D01*
X105460802Y-80906302D01*
X105460798Y-80906302D01*
X105232718Y-80926256D01*
X105232710Y-80926257D01*
X105011561Y-80985514D01*
X105011550Y-80985518D01*
X104804054Y-81082275D01*
X104804052Y-81082276D01*
X104761369Y-81112163D01*
X104616500Y-81213602D01*
X104616498Y-81213603D01*
X104616495Y-81213606D01*
X104454606Y-81375495D01*
X104454603Y-81375498D01*
X104454602Y-81375500D01*
X104372567Y-81492656D01*
X104323276Y-81563052D01*
X104323275Y-81563054D01*
X104226518Y-81770550D01*
X104226514Y-81770561D01*
X104167257Y-81991710D01*
X104167256Y-81991718D01*
X104147302Y-82219798D01*
X104147302Y-82219801D01*
X104167256Y-82447881D01*
X104167257Y-82447889D01*
X104226514Y-82669038D01*
X104226518Y-82669049D01*
X104278494Y-82780511D01*
X104323277Y-82876549D01*
X104454602Y-83064100D01*
X104616500Y-83225998D01*
X104804051Y-83357323D01*
X104847145Y-83377418D01*
X104899584Y-83423591D01*
X104918736Y-83490784D01*
X104898520Y-83557665D01*
X104847145Y-83602182D01*
X104804051Y-83622276D01*
X104678926Y-83709890D01*
X104616500Y-83753602D01*
X104616498Y-83753603D01*
X104616495Y-83753606D01*
X104454606Y-83915495D01*
X104323276Y-84103052D01*
X104323275Y-84103054D01*
X104226518Y-84310550D01*
X104226514Y-84310561D01*
X104167257Y-84531710D01*
X104167256Y-84531718D01*
X104147302Y-84759798D01*
X104147302Y-84759801D01*
X104167256Y-84987881D01*
X104167257Y-84987889D01*
X104226514Y-85209038D01*
X104226518Y-85209049D01*
X104319266Y-85407948D01*
X104323277Y-85416549D01*
X104454602Y-85604100D01*
X104616500Y-85765998D01*
X104801365Y-85895442D01*
X104804051Y-85897323D01*
X104847145Y-85917418D01*
X104899584Y-85963591D01*
X104918736Y-86030784D01*
X104898520Y-86097665D01*
X104847145Y-86142182D01*
X104804051Y-86162276D01*
X104707498Y-86229884D01*
X104616500Y-86293602D01*
X104616498Y-86293603D01*
X104616495Y-86293606D01*
X104454606Y-86455495D01*
X104323276Y-86643052D01*
X104323275Y-86643054D01*
X104226518Y-86850550D01*
X104226514Y-86850561D01*
X104167257Y-87071710D01*
X104167256Y-87071718D01*
X104147302Y-87299798D01*
X104147302Y-87299801D01*
X98685244Y-87299801D01*
X98679413Y-87294821D01*
X98679410Y-87294820D01*
X98476962Y-87170759D01*
X98476959Y-87170757D01*
X98257596Y-87079895D01*
X98026714Y-87024465D01*
X97790000Y-87005835D01*
X97553285Y-87024465D01*
X97322404Y-87079895D01*
X97322402Y-87079895D01*
X97103040Y-87170757D01*
X97103037Y-87170759D01*
X96900589Y-87294820D01*
X96900586Y-87294821D01*
X96720031Y-87449031D01*
X96614290Y-87572838D01*
X96555783Y-87611031D01*
X96485915Y-87611529D01*
X96426869Y-87574176D01*
X96425710Y-87572838D01*
X96371843Y-87509768D01*
X96319969Y-87449031D01*
X96165171Y-87316821D01*
X96139413Y-87294821D01*
X96139410Y-87294820D01*
X95936962Y-87170759D01*
X95936959Y-87170757D01*
X95717596Y-87079895D01*
X95486714Y-87024465D01*
X95250000Y-87005835D01*
X95013285Y-87024465D01*
X94782404Y-87079895D01*
X94782402Y-87079895D01*
X94563040Y-87170757D01*
X94563037Y-87170759D01*
X94360589Y-87294820D01*
X94360586Y-87294821D01*
X94180031Y-87449031D01*
X94074290Y-87572838D01*
X94015783Y-87611031D01*
X93945915Y-87611529D01*
X93886869Y-87574176D01*
X93885710Y-87572838D01*
X93831843Y-87509768D01*
X93779969Y-87449031D01*
X93625171Y-87316821D01*
X93599413Y-87294821D01*
X93599410Y-87294820D01*
X93396962Y-87170759D01*
X93396959Y-87170757D01*
X93177596Y-87079895D01*
X92946714Y-87024465D01*
X92710000Y-87005835D01*
X92473285Y-87024465D01*
X92242404Y-87079895D01*
X92242402Y-87079895D01*
X92023040Y-87170757D01*
X92023037Y-87170759D01*
X91820589Y-87294820D01*
X91820586Y-87294821D01*
X91640031Y-87449031D01*
X91534290Y-87572838D01*
X91475783Y-87611031D01*
X91405915Y-87611529D01*
X91346869Y-87574176D01*
X91345710Y-87572838D01*
X91291843Y-87509768D01*
X91239969Y-87449031D01*
X91085171Y-87316821D01*
X91059413Y-87294821D01*
X91059410Y-87294820D01*
X90856962Y-87170759D01*
X90856959Y-87170757D01*
X90637596Y-87079895D01*
X90406714Y-87024465D01*
X90170000Y-87005835D01*
X89933285Y-87024465D01*
X89702404Y-87079895D01*
X89702402Y-87079895D01*
X89483040Y-87170757D01*
X89483037Y-87170759D01*
X89280589Y-87294820D01*
X89280586Y-87294821D01*
X89100031Y-87449031D01*
X88994290Y-87572838D01*
X88935783Y-87611031D01*
X88865915Y-87611529D01*
X88806869Y-87574176D01*
X88805710Y-87572838D01*
X88751843Y-87509768D01*
X88699969Y-87449031D01*
X88545171Y-87316821D01*
X88519413Y-87294821D01*
X88519410Y-87294820D01*
X88316962Y-87170759D01*
X88316959Y-87170757D01*
X88097596Y-87079895D01*
X87866714Y-87024465D01*
X87630000Y-87005835D01*
X87393285Y-87024465D01*
X87162404Y-87079895D01*
X87162402Y-87079895D01*
X86943040Y-87170757D01*
X86943037Y-87170759D01*
X86740589Y-87294820D01*
X86740586Y-87294821D01*
X86560031Y-87449031D01*
X86454290Y-87572838D01*
X86395783Y-87611031D01*
X86325915Y-87611529D01*
X86266869Y-87574176D01*
X86265710Y-87572838D01*
X86211843Y-87509768D01*
X86159969Y-87449031D01*
X86005171Y-87316821D01*
X85979413Y-87294821D01*
X85979410Y-87294820D01*
X85776962Y-87170759D01*
X85776959Y-87170757D01*
X85557596Y-87079895D01*
X85326714Y-87024465D01*
X85090000Y-87005835D01*
X84853285Y-87024465D01*
X84622404Y-87079895D01*
X84622402Y-87079895D01*
X84403040Y-87170757D01*
X84403037Y-87170759D01*
X84200589Y-87294820D01*
X84200586Y-87294821D01*
X84020031Y-87449031D01*
X83914290Y-87572838D01*
X83855783Y-87611031D01*
X83785915Y-87611529D01*
X83726869Y-87574176D01*
X83725710Y-87572838D01*
X83671843Y-87509768D01*
X83619969Y-87449031D01*
X83465171Y-87316821D01*
X83439413Y-87294821D01*
X83439410Y-87294820D01*
X83236962Y-87170759D01*
X83236959Y-87170757D01*
X83017596Y-87079895D01*
X82786714Y-87024465D01*
X82550000Y-87005835D01*
X82313285Y-87024465D01*
X82082404Y-87079895D01*
X82082402Y-87079895D01*
X81863040Y-87170757D01*
X81863037Y-87170759D01*
X81660589Y-87294820D01*
X81660586Y-87294821D01*
X81480031Y-87449031D01*
X81325821Y-87629586D01*
X81325820Y-87629589D01*
X81201759Y-87832037D01*
X81201757Y-87832040D01*
X81110895Y-88051402D01*
X81110895Y-88051404D01*
X81055465Y-88282285D01*
X81036835Y-88519000D01*
X81055465Y-88755714D01*
X81110895Y-88986595D01*
X81110895Y-88986597D01*
X81201757Y-89205959D01*
X81201759Y-89205962D01*
X81325820Y-89408410D01*
X81325821Y-89408413D01*
X81480033Y-89588971D01*
X81637338Y-89723322D01*
X81675532Y-89781828D01*
X81680569Y-89825297D01*
X81679942Y-89835390D01*
X82420590Y-90576037D01*
X82357007Y-90593075D01*
X82242993Y-90658901D01*
X82149901Y-90751993D01*
X82084075Y-90866007D01*
X82067037Y-90929589D01*
X81326564Y-90189116D01*
X81226267Y-90342632D01*
X81126412Y-90570282D01*
X81065387Y-90811261D01*
X81065385Y-90811270D01*
X81044859Y-91058994D01*
X81044859Y-91059005D01*
X81065385Y-91306729D01*
X81065387Y-91306738D01*
X81126412Y-91547717D01*
X81226266Y-91775364D01*
X81326564Y-91928882D01*
X82067037Y-91188409D01*
X82084075Y-91251993D01*
X82149901Y-91366007D01*
X82242993Y-91459099D01*
X82357007Y-91524925D01*
X82420590Y-91541962D01*
X81679942Y-92282609D01*
X81726768Y-92319055D01*
X81726770Y-92319056D01*
X81884110Y-92404204D01*
X81933701Y-92453423D01*
X81948809Y-92521640D01*
X81924639Y-92587196D01*
X81872552Y-92627818D01*
X81863035Y-92631760D01*
X81660589Y-92755820D01*
X81660586Y-92755821D01*
X81480031Y-92910031D01*
X81325821Y-93090586D01*
X81325820Y-93090589D01*
X81201759Y-93293037D01*
X81201757Y-93293040D01*
X81110895Y-93512402D01*
X81110895Y-93512404D01*
X81055465Y-93743285D01*
X81036835Y-93980000D01*
X81055465Y-94216714D01*
X81110895Y-94447595D01*
X81110895Y-94447597D01*
X81201757Y-94666959D01*
X81201759Y-94666962D01*
X81325820Y-94869410D01*
X81325821Y-94869413D01*
X81341669Y-94887968D01*
X81480031Y-95049969D01*
X81603838Y-95155710D01*
X81642031Y-95214217D01*
X81642529Y-95284085D01*
X81605176Y-95343131D01*
X81603861Y-95344269D01*
X81497940Y-95434735D01*
X81480031Y-95450031D01*
X81325821Y-95630586D01*
X81325820Y-95630589D01*
X81201759Y-95833037D01*
X81201757Y-95833040D01*
X81110895Y-96052402D01*
X81110895Y-96052404D01*
X81055465Y-96283285D01*
X81036835Y-96520000D01*
X81055465Y-96756714D01*
X81110895Y-96987595D01*
X81110895Y-96987597D01*
X81201757Y-97206959D01*
X81201759Y-97206962D01*
X81325820Y-97409410D01*
X81325821Y-97409413D01*
X81341669Y-97427968D01*
X81480031Y-97589969D01*
X81603838Y-97695710D01*
X81642031Y-97754217D01*
X81642529Y-97824085D01*
X81605176Y-97883131D01*
X81603861Y-97884269D01*
X81480031Y-97990031D01*
X81325821Y-98170586D01*
X81325820Y-98170589D01*
X81201759Y-98373037D01*
X81201757Y-98373040D01*
X81110895Y-98592402D01*
X81110895Y-98592404D01*
X81055465Y-98823285D01*
X81036835Y-99060000D01*
X81055465Y-99296714D01*
X81110895Y-99527595D01*
X81110895Y-99527597D01*
X81201757Y-99746959D01*
X81201759Y-99746962D01*
X81325820Y-99949410D01*
X81325821Y-99949413D01*
X81341669Y-99967968D01*
X81480031Y-100129969D01*
X81603838Y-100235710D01*
X81642031Y-100294217D01*
X81642529Y-100364085D01*
X81605176Y-100423131D01*
X81603861Y-100424269D01*
X81480031Y-100530031D01*
X81325821Y-100710586D01*
X81325820Y-100710589D01*
X81201759Y-100913037D01*
X81201757Y-100913040D01*
X81110895Y-101132402D01*
X81110895Y-101132404D01*
X81055465Y-101363285D01*
X81036835Y-101600000D01*
X77025500Y-101600000D01*
X77025500Y-61976000D01*
X83820000Y-61976000D01*
X86059700Y-61976000D01*
X86126739Y-61995685D01*
G37*
G04 #@! TD.AperFunction*
G04 #@! TA.AperFunction,Conductor*
G36*
X97773373Y-61995685D02*
G01*
X97794015Y-62012319D01*
X97907529Y-62125833D01*
X97995764Y-62214068D01*
X97995768Y-62214072D01*
X98099518Y-62283396D01*
X98099524Y-62283399D01*
X98099525Y-62283400D01*
X98214815Y-62331155D01*
X98337201Y-62355499D01*
X98337205Y-62355500D01*
X98337206Y-62355500D01*
X105542500Y-62355500D01*
X105609539Y-62375185D01*
X105655294Y-62427989D01*
X105666500Y-62479500D01*
X105666500Y-65118205D01*
X105646815Y-65185244D01*
X105594011Y-65230999D01*
X105581511Y-65235908D01*
X105529933Y-65253000D01*
X105527262Y-65253885D01*
X105527259Y-65253886D01*
X105376346Y-65346971D01*
X105257681Y-65465637D01*
X105196358Y-65499122D01*
X105126666Y-65494138D01*
X105082319Y-65465637D01*
X104953652Y-65336970D01*
X104953648Y-65336967D01*
X104802459Y-65243712D01*
X104755734Y-65191764D01*
X104744513Y-65122802D01*
X104772356Y-65058720D01*
X104775377Y-65055234D01*
X104777440Y-65052944D01*
X104872927Y-64887556D01*
X104931942Y-64705928D01*
X104951904Y-64516000D01*
X104931942Y-64326072D01*
X104872927Y-64144444D01*
X104777440Y-63979056D01*
X104649653Y-63837134D01*
X104495152Y-63724882D01*
X104320688Y-63647206D01*
X104320686Y-63647205D01*
X104133887Y-63607500D01*
X103942913Y-63607500D01*
X103756114Y-63647205D01*
X103581646Y-63724883D01*
X103427145Y-63837135D01*
X103423240Y-63841473D01*
X103363754Y-63878121D01*
X103331091Y-63882500D01*
X89396401Y-63882500D01*
X89274022Y-63906843D01*
X89274015Y-63906845D01*
X89253733Y-63915246D01*
X89158728Y-63954597D01*
X89158719Y-63954602D01*
X89054966Y-64023927D01*
X89054963Y-64023930D01*
X88562896Y-64516000D01*
X88496167Y-64582729D01*
X88452047Y-64626849D01*
X88407927Y-64670968D01*
X88338603Y-64774718D01*
X88338598Y-64774727D01*
X88290845Y-64890014D01*
X88290843Y-64890022D01*
X88266500Y-65012401D01*
X88266500Y-69048798D01*
X88290843Y-69171177D01*
X88290845Y-69171185D01*
X88338598Y-69286472D01*
X88338603Y-69286481D01*
X88407928Y-69390232D01*
X88407931Y-69390236D01*
X88723129Y-69705433D01*
X88802090Y-69784394D01*
X88811368Y-69793672D01*
X88915118Y-69862996D01*
X88915124Y-69862999D01*
X88915125Y-69863000D01*
X89030415Y-69910755D01*
X89115604Y-69927700D01*
X89152801Y-69935099D01*
X89152805Y-69935100D01*
X89152806Y-69935100D01*
X89332044Y-69935100D01*
X89399083Y-69954785D01*
X89435852Y-69991278D01*
X89532276Y-70138865D01*
X89532284Y-70138876D01*
X89677489Y-70296608D01*
X89708412Y-70359262D01*
X89700552Y-70428688D01*
X89656405Y-70482844D01*
X89629596Y-70496772D01*
X89511794Y-70540711D01*
X89394739Y-70628339D01*
X89307111Y-70745395D01*
X89256011Y-70882395D01*
X89256011Y-70882397D01*
X89249500Y-70942945D01*
X89249500Y-72740254D01*
X89256011Y-72800802D01*
X89256011Y-72800804D01*
X89307111Y-72937804D01*
X89394739Y-73054861D01*
X89511796Y-73142489D01*
X89648799Y-73193589D01*
X89676050Y-73196518D01*
X89709345Y-73200099D01*
X89709362Y-73200100D01*
X91506638Y-73200100D01*
X91506654Y-73200099D01*
X91533692Y-73197191D01*
X91567201Y-73193589D01*
X91704204Y-73142489D01*
X91821261Y-73054861D01*
X91908889Y-72937804D01*
X91959989Y-72800801D01*
X91963591Y-72767292D01*
X91966499Y-72740254D01*
X91966500Y-72740237D01*
X91966500Y-72599100D01*
X91986185Y-72532061D01*
X92038989Y-72486306D01*
X92090500Y-72475100D01*
X92863595Y-72475100D01*
X92863596Y-72475099D01*
X92985985Y-72450755D01*
X93101275Y-72403000D01*
X93205033Y-72333671D01*
X93456071Y-72082633D01*
X93525400Y-71978875D01*
X93573155Y-71863585D01*
X93597500Y-71741194D01*
X93597500Y-71616406D01*
X93597500Y-68995366D01*
X93617185Y-68928327D01*
X93633819Y-68907685D01*
X93647285Y-68894219D01*
X93708608Y-68860734D01*
X93734966Y-68857900D01*
X102764930Y-68857900D01*
X102831969Y-68877585D01*
X102877724Y-68930389D01*
X102882633Y-68942888D01*
X102887885Y-68958738D01*
X102980970Y-69109652D01*
X103106348Y-69235030D01*
X103198325Y-69291762D01*
X103245048Y-69343709D01*
X103256270Y-69412672D01*
X103228427Y-69476754D01*
X103170358Y-69515610D01*
X103133227Y-69521300D01*
X102401201Y-69521300D01*
X102278822Y-69545643D01*
X102278814Y-69545645D01*
X102163527Y-69593398D01*
X102163518Y-69593403D01*
X102059767Y-69662728D01*
X102059763Y-69662731D01*
X101733731Y-69988765D01*
X101653367Y-70069129D01*
X101609247Y-70113249D01*
X101565127Y-70157368D01*
X101495803Y-70261118D01*
X101495798Y-70261127D01*
X101448045Y-70376414D01*
X101448043Y-70376422D01*
X101423700Y-70498801D01*
X101423700Y-79658900D01*
X101404015Y-79725939D01*
X101351211Y-79771694D01*
X101299700Y-79782900D01*
X93104801Y-79782900D01*
X92982422Y-79807243D01*
X92982414Y-79807245D01*
X92867127Y-79854998D01*
X92867118Y-79855003D01*
X92763367Y-79924328D01*
X92763363Y-79924331D01*
X92605182Y-80082514D01*
X92560167Y-80127529D01*
X92536890Y-80150806D01*
X92471927Y-80215768D01*
X92402603Y-80319518D01*
X92402598Y-80319527D01*
X92354845Y-80434814D01*
X92354843Y-80434822D01*
X92330500Y-80557201D01*
X92330500Y-80878100D01*
X92310815Y-80945139D01*
X92258011Y-80990894D01*
X92206500Y-81002100D01*
X92065100Y-81002100D01*
X91998061Y-80982415D01*
X91952306Y-80929611D01*
X91941100Y-80878100D01*
X91941100Y-80736962D01*
X91941099Y-80736945D01*
X91937757Y-80705870D01*
X91934589Y-80676399D01*
X91921808Y-80642133D01*
X91912122Y-80616164D01*
X91883489Y-80539396D01*
X91795861Y-80422339D01*
X91678804Y-80334711D01*
X91678802Y-80334710D01*
X91678804Y-80334710D01*
X91549219Y-80286377D01*
X91493285Y-80244506D01*
X91468869Y-80179041D01*
X91483721Y-80110768D01*
X91504872Y-80082514D01*
X91620708Y-79966678D01*
X91756200Y-79773178D01*
X91856029Y-79559092D01*
X91856032Y-79559086D01*
X91913236Y-79345600D01*
X91015612Y-79345600D01*
X91048525Y-79288593D01*
X91082600Y-79161426D01*
X91082600Y-79029774D01*
X91048525Y-78902607D01*
X91015612Y-78845600D01*
X91913236Y-78845600D01*
X91913235Y-78845599D01*
X91856032Y-78632113D01*
X91856029Y-78632107D01*
X91756200Y-78418022D01*
X91756199Y-78418020D01*
X91620713Y-78224526D01*
X91620708Y-78224520D01*
X91453682Y-78057494D01*
X91272797Y-77930836D01*
X91229172Y-77876259D01*
X91221980Y-77806760D01*
X91253502Y-77744406D01*
X91284900Y-77720208D01*
X91328176Y-77696789D01*
X91505840Y-77558506D01*
X91658322Y-77392868D01*
X91781460Y-77204391D01*
X91871896Y-76998216D01*
X91927164Y-76779968D01*
X91927165Y-76779959D01*
X91945756Y-76555605D01*
X91945756Y-76555594D01*
X91927165Y-76331240D01*
X91927163Y-76331228D01*
X91890995Y-76188406D01*
X91871896Y-76112984D01*
X91781460Y-75906809D01*
X91778589Y-75902415D01*
X91658323Y-75718334D01*
X91658315Y-75718323D01*
X91505843Y-75552697D01*
X91505838Y-75552692D01*
X91387397Y-75460505D01*
X91328176Y-75414411D01*
X91328175Y-75414410D01*
X91328172Y-75414408D01*
X91130180Y-75307261D01*
X91130177Y-75307259D01*
X91130174Y-75307258D01*
X91130171Y-75307257D01*
X91130169Y-75307256D01*
X90917237Y-75234156D01*
X90695169Y-75197100D01*
X90470031Y-75197100D01*
X90247962Y-75234156D01*
X90035030Y-75307256D01*
X90035019Y-75307261D01*
X89837027Y-75414408D01*
X89837022Y-75414412D01*
X89659361Y-75552692D01*
X89659356Y-75552697D01*
X89506884Y-75718323D01*
X89506876Y-75718334D01*
X89410452Y-75865922D01*
X89357306Y-75911279D01*
X89306644Y-75922100D01*
X87574700Y-75922100D01*
X87507661Y-75902415D01*
X87461906Y-75849611D01*
X87450700Y-75798100D01*
X87450700Y-62479500D01*
X87470385Y-62412461D01*
X87523189Y-62366706D01*
X87574700Y-62355500D01*
X90181595Y-62355500D01*
X90181596Y-62355499D01*
X90303985Y-62331155D01*
X90419275Y-62283400D01*
X90523033Y-62214071D01*
X90724785Y-62012319D01*
X90786108Y-61978834D01*
X90812466Y-61976000D01*
X97706334Y-61976000D01*
X97773373Y-61995685D01*
G37*
G04 #@! TD.AperFunction*
G04 #@! TA.AperFunction,Conductor*
G36*
X103061495Y-65169185D02*
G01*
X103107250Y-65221989D01*
X103117194Y-65291147D01*
X103088169Y-65354703D01*
X103082137Y-65361181D01*
X102980971Y-65462346D01*
X102887886Y-65613259D01*
X102887884Y-65613264D01*
X102832113Y-65781572D01*
X102821500Y-65885447D01*
X102821500Y-66686537D01*
X102821501Y-66686553D01*
X102832113Y-66790427D01*
X102887884Y-66958735D01*
X102887886Y-66958740D01*
X102980971Y-67109653D01*
X103069637Y-67198319D01*
X103103122Y-67259642D01*
X103098138Y-67329334D01*
X103069637Y-67373681D01*
X102980970Y-67462347D01*
X102980969Y-67462348D01*
X102938011Y-67531996D01*
X102886063Y-67578721D01*
X102832472Y-67590900D01*
X93358801Y-67590900D01*
X93236422Y-67615243D01*
X93236414Y-67615245D01*
X93121127Y-67662998D01*
X93121118Y-67663003D01*
X93017367Y-67732328D01*
X93017363Y-67732331D01*
X92661923Y-68087773D01*
X92560167Y-68189529D01*
X92525458Y-68224238D01*
X92471927Y-68277768D01*
X92402603Y-68381518D01*
X92402598Y-68381527D01*
X92354845Y-68496814D01*
X92354843Y-68496822D01*
X92330500Y-68619201D01*
X92330500Y-71084100D01*
X92310815Y-71151139D01*
X92258011Y-71196894D01*
X92206500Y-71208100D01*
X92090500Y-71208100D01*
X92023461Y-71188415D01*
X91977706Y-71135611D01*
X91966500Y-71084100D01*
X91966500Y-70942962D01*
X91966499Y-70942945D01*
X91963157Y-70911870D01*
X91959989Y-70882399D01*
X91908889Y-70745396D01*
X91821261Y-70628339D01*
X91704204Y-70540711D01*
X91586404Y-70496772D01*
X91530471Y-70454900D01*
X91506055Y-70389435D01*
X91520908Y-70321162D01*
X91538504Y-70296614D01*
X91683722Y-70138868D01*
X91806860Y-69950391D01*
X91897296Y-69744216D01*
X91952564Y-69525968D01*
X91952951Y-69521300D01*
X91971156Y-69301605D01*
X91971156Y-69301594D01*
X91952565Y-69077240D01*
X91952563Y-69077228D01*
X91949876Y-69066618D01*
X91897296Y-68858984D01*
X91806860Y-68652809D01*
X91683722Y-68464332D01*
X91683719Y-68464329D01*
X91683715Y-68464323D01*
X91531243Y-68298697D01*
X91531238Y-68298692D01*
X91390986Y-68189529D01*
X91353577Y-68160411D01*
X91310303Y-68136993D01*
X91260713Y-68087773D01*
X91245605Y-68019557D01*
X91269775Y-67954001D01*
X91298198Y-67926363D01*
X91479079Y-67799708D01*
X91646105Y-67632682D01*
X91781600Y-67439178D01*
X91881429Y-67225092D01*
X91881432Y-67225086D01*
X91938636Y-67011600D01*
X91041012Y-67011600D01*
X91073925Y-66954593D01*
X91108000Y-66827426D01*
X91108000Y-66695774D01*
X91073925Y-66568607D01*
X91041012Y-66511600D01*
X91938636Y-66511600D01*
X91938635Y-66511599D01*
X91881432Y-66298113D01*
X91881429Y-66298107D01*
X91781600Y-66084022D01*
X91781599Y-66084020D01*
X91646113Y-65890526D01*
X91646108Y-65890520D01*
X91479082Y-65723494D01*
X91285578Y-65587999D01*
X91071492Y-65488170D01*
X91071486Y-65488167D01*
X90858000Y-65430964D01*
X90858000Y-66328588D01*
X90800993Y-66295675D01*
X90673826Y-66261600D01*
X90542174Y-66261600D01*
X90415007Y-66295675D01*
X90358000Y-66328588D01*
X90358000Y-65430964D01*
X90357999Y-65430964D01*
X90144513Y-65488167D01*
X90144507Y-65488170D01*
X89930422Y-65587999D01*
X89930420Y-65588000D01*
X89732487Y-65726595D01*
X89731802Y-65725617D01*
X89673192Y-65751265D01*
X89604201Y-65740223D01*
X89552131Y-65693633D01*
X89533500Y-65628262D01*
X89533500Y-65388566D01*
X89553185Y-65321527D01*
X89569814Y-65300890D01*
X89684887Y-65185817D01*
X89746209Y-65152334D01*
X89772567Y-65149500D01*
X102994456Y-65149500D01*
X103061495Y-65169185D01*
G37*
G04 #@! TD.AperFunction*
G04 #@! TA.AperFunction,Conductor*
G36*
X139003243Y-55525669D02*
G01*
X139213818Y-55536706D01*
X139304433Y-55541455D01*
X139317340Y-55542812D01*
X139376810Y-55552231D01*
X139612022Y-55589484D01*
X139624690Y-55592176D01*
X139912901Y-55669402D01*
X139925228Y-55673407D01*
X140203781Y-55780334D01*
X140215617Y-55785603D01*
X140481477Y-55921065D01*
X140492683Y-55927535D01*
X140742923Y-56090044D01*
X140753414Y-56097666D01*
X140985282Y-56285429D01*
X140994927Y-56294114D01*
X141205885Y-56505072D01*
X141214570Y-56514717D01*
X141402333Y-56746585D01*
X141409958Y-56757079D01*
X141572460Y-57007310D01*
X141578937Y-57018529D01*
X141689220Y-57234971D01*
X141714391Y-57284372D01*
X141719669Y-57296227D01*
X141754901Y-57388008D01*
X141826589Y-57574762D01*
X141830600Y-57587107D01*
X141907819Y-57875293D01*
X141910517Y-57887989D01*
X141957187Y-58182659D01*
X141958544Y-58195566D01*
X141974330Y-58496756D01*
X141974500Y-58503246D01*
X141974500Y-62484000D01*
X135128000Y-62484000D01*
X135128000Y-59009301D01*
X136634453Y-59009301D01*
X136638884Y-59071253D01*
X136639200Y-59080099D01*
X136639200Y-59131115D01*
X136647398Y-59193392D01*
X136648143Y-59200728D01*
X136653418Y-59274469D01*
X136653419Y-59274479D01*
X136664107Y-59323610D01*
X136665880Y-59333778D01*
X136670998Y-59372649D01*
X136671001Y-59372661D01*
X136690319Y-59444760D01*
X136691710Y-59450493D01*
X136709928Y-59534238D01*
X136723371Y-59570281D01*
X136726963Y-59581516D01*
X136734055Y-59607980D01*
X136767126Y-59687821D01*
X136768746Y-59691940D01*
X136802825Y-59783309D01*
X136802827Y-59783313D01*
X136802829Y-59783316D01*
X136802831Y-59783321D01*
X136815607Y-59806718D01*
X136821330Y-59818680D01*
X136827285Y-59833057D01*
X136827286Y-59833058D01*
X136876410Y-59918145D01*
X136877854Y-59920716D01*
X136930237Y-60016647D01*
X136930240Y-60016651D01*
X136939120Y-60028515D01*
X136947229Y-60040806D01*
X136949100Y-60044046D01*
X136949100Y-60044047D01*
X137016108Y-60131374D01*
X137016998Y-60132549D01*
X137089543Y-60229456D01*
X137089561Y-60229477D01*
X137094666Y-60234582D01*
X137094680Y-60234597D01*
X137272761Y-60412679D01*
X137272800Y-60412715D01*
X137277530Y-60417445D01*
X137277532Y-60417447D01*
X137277540Y-60417454D01*
X137374449Y-60489999D01*
X137375546Y-60490830D01*
X137462957Y-60557902D01*
X137462965Y-60557906D01*
X137462967Y-60557908D01*
X137466178Y-60559762D01*
X137478489Y-60567882D01*
X137485082Y-60572817D01*
X137490353Y-60576763D01*
X137490357Y-60576765D01*
X137490363Y-60576769D01*
X137586281Y-60629144D01*
X137588828Y-60630573D01*
X137673943Y-60679715D01*
X137673954Y-60679719D01*
X137673955Y-60679720D01*
X137688304Y-60685663D01*
X137700283Y-60691393D01*
X137723679Y-60704169D01*
X137815039Y-60738244D01*
X137819158Y-60739865D01*
X137899024Y-60772947D01*
X137920720Y-60778759D01*
X137925477Y-60780033D01*
X137936707Y-60783623D01*
X137972763Y-60797072D01*
X137972768Y-60797073D01*
X138056493Y-60815286D01*
X138062229Y-60816677D01*
X138095165Y-60825501D01*
X138134347Y-60836001D01*
X138173212Y-60841117D01*
X138183371Y-60842887D01*
X138232532Y-60853582D01*
X138306278Y-60858855D01*
X138313578Y-60859596D01*
X138375887Y-60867800D01*
X138426900Y-60867800D01*
X138435746Y-60868116D01*
X138497699Y-60872547D01*
X138497700Y-60872547D01*
X138497701Y-60872547D01*
X138559654Y-60868116D01*
X138568500Y-60867800D01*
X138619511Y-60867800D01*
X138619513Y-60867800D01*
X138681824Y-60859596D01*
X138689120Y-60858855D01*
X138762868Y-60853582D01*
X138812023Y-60842888D01*
X138822191Y-60841117D01*
X138861053Y-60836001D01*
X138933166Y-60816677D01*
X138938847Y-60815298D01*
X139022637Y-60797072D01*
X139058706Y-60783618D01*
X139069906Y-60780038D01*
X139096377Y-60772946D01*
X139176262Y-60739855D01*
X139180360Y-60738244D01*
X139271721Y-60704169D01*
X139295114Y-60691394D01*
X139307079Y-60685669D01*
X139321457Y-60679715D01*
X139406564Y-60630577D01*
X139409096Y-60629155D01*
X139505047Y-60576763D01*
X139516905Y-60567886D01*
X139529220Y-60559762D01*
X139532443Y-60557902D01*
X139581123Y-60520547D01*
X139619853Y-60490830D01*
X139620949Y-60489999D01*
X139717867Y-60417448D01*
X139721371Y-60413943D01*
X139721394Y-60413923D01*
X139902324Y-60232994D01*
X139902344Y-60232969D01*
X139905848Y-60229467D01*
X139978410Y-60132534D01*
X139979230Y-60131453D01*
X140046297Y-60044049D01*
X140046302Y-60044043D01*
X140048162Y-60040820D01*
X140056286Y-60028505D01*
X140065158Y-60016654D01*
X140065159Y-60016652D01*
X140065160Y-60016651D01*
X140065163Y-60016647D01*
X140117555Y-59920696D01*
X140118979Y-59918162D01*
X140118989Y-59918145D01*
X140168115Y-59833057D01*
X140174069Y-59818679D01*
X140179800Y-59806703D01*
X140192569Y-59783321D01*
X140226652Y-59691940D01*
X140228265Y-59687839D01*
X140261346Y-59607977D01*
X140268438Y-59581506D01*
X140272018Y-59570306D01*
X140285472Y-59534237D01*
X140303698Y-59450447D01*
X140305082Y-59444747D01*
X140324399Y-59372661D01*
X140324401Y-59372653D01*
X140329519Y-59333778D01*
X140331290Y-59323615D01*
X140331291Y-59323610D01*
X140341982Y-59274468D01*
X140347255Y-59200720D01*
X140347996Y-59193424D01*
X140356200Y-59131113D01*
X140356200Y-59080099D01*
X140356516Y-59071253D01*
X140360947Y-59009301D01*
X140360947Y-59009298D01*
X140356516Y-58947345D01*
X140356200Y-58938499D01*
X140356200Y-58887487D01*
X140356199Y-58887483D01*
X140347996Y-58825178D01*
X140347255Y-58817870D01*
X140341982Y-58744132D01*
X140331287Y-58694971D01*
X140329517Y-58684809D01*
X140324401Y-58645949D01*
X140324401Y-58645947D01*
X140315853Y-58614049D01*
X140305077Y-58573829D01*
X140303686Y-58568093D01*
X140289580Y-58503246D01*
X140285472Y-58484363D01*
X140272023Y-58448307D01*
X140268433Y-58437074D01*
X140261347Y-58410624D01*
X140228265Y-58330758D01*
X140226644Y-58326639D01*
X140192569Y-58235279D01*
X140179793Y-58211883D01*
X140174063Y-58199904D01*
X140168120Y-58185555D01*
X140168118Y-58185551D01*
X140168115Y-58185543D01*
X140118973Y-58100428D01*
X140117544Y-58097881D01*
X140065169Y-58001963D01*
X140065162Y-58001952D01*
X140056282Y-57990089D01*
X140048162Y-57977778D01*
X140046308Y-57974567D01*
X140046306Y-57974565D01*
X140046302Y-57974557D01*
X139979266Y-57887194D01*
X139978399Y-57886049D01*
X139905854Y-57789140D01*
X139905847Y-57789132D01*
X139905845Y-57789130D01*
X139901115Y-57784400D01*
X139901079Y-57784361D01*
X139723011Y-57606294D01*
X139722982Y-57606266D01*
X139717877Y-57601161D01*
X139717856Y-57601143D01*
X139620949Y-57528598D01*
X139619774Y-57527708D01*
X139532446Y-57460700D01*
X139529206Y-57458829D01*
X139516915Y-57450720D01*
X139505051Y-57441840D01*
X139505047Y-57441837D01*
X139409116Y-57389454D01*
X139406545Y-57388010D01*
X139383955Y-57374968D01*
X139321457Y-57338885D01*
X139307080Y-57332930D01*
X139295118Y-57327207D01*
X139271721Y-57314431D01*
X139271718Y-57314430D01*
X139271713Y-57314427D01*
X139271709Y-57314425D01*
X139180340Y-57280346D01*
X139176221Y-57278726D01*
X139096380Y-57245655D01*
X139096378Y-57245654D01*
X139096377Y-57245654D01*
X139089496Y-57243810D01*
X139069916Y-57238563D01*
X139058681Y-57234971D01*
X139022638Y-57221528D01*
X139022638Y-57221527D01*
X138938893Y-57203310D01*
X138933160Y-57201919D01*
X138861061Y-57182601D01*
X138861049Y-57182598D01*
X138822178Y-57177480D01*
X138812010Y-57175707D01*
X138762879Y-57165019D01*
X138762869Y-57165018D01*
X138689128Y-57159743D01*
X138681792Y-57158998D01*
X138619515Y-57150800D01*
X138619513Y-57150800D01*
X138568500Y-57150800D01*
X138559654Y-57150484D01*
X138497701Y-57146053D01*
X138497699Y-57146053D01*
X138435746Y-57150484D01*
X138426900Y-57150800D01*
X138375884Y-57150800D01*
X138313605Y-57158998D01*
X138306270Y-57159743D01*
X138232535Y-57165017D01*
X138232525Y-57165019D01*
X138183379Y-57175709D01*
X138173214Y-57177481D01*
X138134344Y-57182599D01*
X138062247Y-57201917D01*
X138056514Y-57203308D01*
X137972766Y-57221526D01*
X137972763Y-57221527D01*
X137936713Y-57234973D01*
X137925479Y-57238564D01*
X137899028Y-57245652D01*
X137899024Y-57245653D01*
X137819176Y-57278727D01*
X137815060Y-57280346D01*
X137723676Y-57314431D01*
X137723675Y-57314432D01*
X137700285Y-57327204D01*
X137688319Y-57332929D01*
X137673951Y-57338881D01*
X137673941Y-57338885D01*
X137588855Y-57388008D01*
X137586287Y-57389450D01*
X137490359Y-57441832D01*
X137490345Y-57441841D01*
X137478479Y-57450724D01*
X137466190Y-57458831D01*
X137462958Y-57460697D01*
X137462947Y-57460704D01*
X137375610Y-57527718D01*
X137374438Y-57528607D01*
X137277530Y-57601153D01*
X137271140Y-57607542D01*
X137095928Y-57782754D01*
X137089553Y-57789130D01*
X137017007Y-57886038D01*
X137016118Y-57887210D01*
X136949104Y-57974547D01*
X136949097Y-57974558D01*
X136947231Y-57977790D01*
X136939124Y-57990079D01*
X136930241Y-58001945D01*
X136930232Y-58001959D01*
X136877850Y-58097887D01*
X136876408Y-58100455D01*
X136827285Y-58185541D01*
X136827281Y-58185551D01*
X136821329Y-58199919D01*
X136815604Y-58211885D01*
X136802832Y-58235275D01*
X136802831Y-58235276D01*
X136768746Y-58326660D01*
X136767127Y-58330776D01*
X136734053Y-58410624D01*
X136734052Y-58410628D01*
X136726964Y-58437079D01*
X136723373Y-58448313D01*
X136709927Y-58484363D01*
X136709926Y-58484366D01*
X136691708Y-58568114D01*
X136690317Y-58573847D01*
X136670999Y-58645944D01*
X136665881Y-58684814D01*
X136664109Y-58694979D01*
X136653419Y-58744125D01*
X136653417Y-58744135D01*
X136648143Y-58817870D01*
X136647398Y-58825205D01*
X136639200Y-58887483D01*
X136639200Y-58938499D01*
X136638884Y-58947345D01*
X136634453Y-59009298D01*
X136634453Y-59009301D01*
X135128000Y-59009301D01*
X135128000Y-55649500D01*
X135147685Y-55582461D01*
X135200489Y-55536706D01*
X135252000Y-55525500D01*
X138991715Y-55525500D01*
X138996754Y-55525500D01*
X139003243Y-55525669D01*
G37*
G04 #@! TD.AperFunction*
G04 #@! TA.AperFunction,Conductor*
G36*
X83763039Y-55545185D02*
G01*
X83808794Y-55597989D01*
X83820000Y-55649500D01*
X83820000Y-62484000D01*
X77025500Y-62484000D01*
X77025500Y-59009301D01*
X78634453Y-59009301D01*
X78638884Y-59071253D01*
X78639200Y-59080099D01*
X78639200Y-59131115D01*
X78647398Y-59193392D01*
X78648143Y-59200728D01*
X78653418Y-59274469D01*
X78653419Y-59274479D01*
X78664107Y-59323610D01*
X78665880Y-59333778D01*
X78670998Y-59372649D01*
X78671001Y-59372661D01*
X78690319Y-59444760D01*
X78691710Y-59450493D01*
X78709928Y-59534238D01*
X78723371Y-59570281D01*
X78726963Y-59581516D01*
X78734055Y-59607980D01*
X78767126Y-59687821D01*
X78768746Y-59691940D01*
X78802825Y-59783309D01*
X78802827Y-59783313D01*
X78802829Y-59783316D01*
X78802831Y-59783321D01*
X78815607Y-59806718D01*
X78821330Y-59818680D01*
X78827285Y-59833057D01*
X78827286Y-59833058D01*
X78876410Y-59918145D01*
X78877854Y-59920716D01*
X78930237Y-60016647D01*
X78930240Y-60016651D01*
X78939120Y-60028515D01*
X78947229Y-60040806D01*
X78949100Y-60044046D01*
X78949100Y-60044047D01*
X79016108Y-60131374D01*
X79016998Y-60132549D01*
X79089543Y-60229456D01*
X79089561Y-60229477D01*
X79094666Y-60234582D01*
X79094680Y-60234597D01*
X79272761Y-60412679D01*
X79272800Y-60412715D01*
X79277530Y-60417445D01*
X79277532Y-60417447D01*
X79277540Y-60417454D01*
X79374449Y-60489999D01*
X79375546Y-60490830D01*
X79462957Y-60557902D01*
X79462965Y-60557906D01*
X79462967Y-60557908D01*
X79466178Y-60559762D01*
X79478489Y-60567882D01*
X79485082Y-60572817D01*
X79490353Y-60576763D01*
X79490357Y-60576765D01*
X79490363Y-60576769D01*
X79586281Y-60629144D01*
X79588828Y-60630573D01*
X79673943Y-60679715D01*
X79673954Y-60679719D01*
X79673955Y-60679720D01*
X79688304Y-60685663D01*
X79700283Y-60691393D01*
X79723679Y-60704169D01*
X79815039Y-60738244D01*
X79819158Y-60739865D01*
X79899024Y-60772947D01*
X79920720Y-60778759D01*
X79925477Y-60780033D01*
X79936707Y-60783623D01*
X79972763Y-60797072D01*
X79972768Y-60797073D01*
X80056493Y-60815286D01*
X80062229Y-60816677D01*
X80095165Y-60825501D01*
X80134347Y-60836001D01*
X80173212Y-60841117D01*
X80183371Y-60842887D01*
X80232532Y-60853582D01*
X80306278Y-60858855D01*
X80313578Y-60859596D01*
X80375887Y-60867800D01*
X80426900Y-60867800D01*
X80435746Y-60868116D01*
X80497699Y-60872547D01*
X80497700Y-60872547D01*
X80497701Y-60872547D01*
X80559654Y-60868116D01*
X80568500Y-60867800D01*
X80619511Y-60867800D01*
X80619513Y-60867800D01*
X80681824Y-60859596D01*
X80689120Y-60858855D01*
X80762868Y-60853582D01*
X80812023Y-60842888D01*
X80822191Y-60841117D01*
X80861053Y-60836001D01*
X80933166Y-60816677D01*
X80938847Y-60815298D01*
X81022637Y-60797072D01*
X81058706Y-60783618D01*
X81069906Y-60780038D01*
X81096377Y-60772946D01*
X81176262Y-60739855D01*
X81180360Y-60738244D01*
X81271721Y-60704169D01*
X81295114Y-60691394D01*
X81307079Y-60685669D01*
X81321457Y-60679715D01*
X81406564Y-60630577D01*
X81409096Y-60629155D01*
X81505047Y-60576763D01*
X81516905Y-60567886D01*
X81529220Y-60559762D01*
X81532443Y-60557902D01*
X81581123Y-60520547D01*
X81619853Y-60490830D01*
X81620949Y-60489999D01*
X81717867Y-60417448D01*
X81721371Y-60413943D01*
X81721394Y-60413923D01*
X81902324Y-60232994D01*
X81902344Y-60232969D01*
X81905848Y-60229467D01*
X81978410Y-60132534D01*
X81979230Y-60131453D01*
X82046297Y-60044049D01*
X82046302Y-60044043D01*
X82048162Y-60040820D01*
X82056286Y-60028505D01*
X82065158Y-60016654D01*
X82065159Y-60016652D01*
X82065160Y-60016651D01*
X82065163Y-60016647D01*
X82117555Y-59920696D01*
X82118979Y-59918162D01*
X82118989Y-59918145D01*
X82168115Y-59833057D01*
X82174069Y-59818679D01*
X82179800Y-59806703D01*
X82192569Y-59783321D01*
X82226652Y-59691940D01*
X82228265Y-59687839D01*
X82261346Y-59607977D01*
X82268438Y-59581506D01*
X82272018Y-59570306D01*
X82285472Y-59534237D01*
X82303698Y-59450447D01*
X82305082Y-59444747D01*
X82324399Y-59372661D01*
X82324401Y-59372653D01*
X82329519Y-59333778D01*
X82331290Y-59323615D01*
X82331291Y-59323610D01*
X82341982Y-59274468D01*
X82347255Y-59200720D01*
X82347996Y-59193424D01*
X82356200Y-59131113D01*
X82356200Y-59080099D01*
X82356516Y-59071253D01*
X82360947Y-59009301D01*
X82360947Y-59009298D01*
X82356516Y-58947345D01*
X82356200Y-58938499D01*
X82356200Y-58887487D01*
X82356199Y-58887483D01*
X82347996Y-58825178D01*
X82347255Y-58817870D01*
X82341982Y-58744132D01*
X82331287Y-58694971D01*
X82329517Y-58684809D01*
X82324401Y-58645949D01*
X82324401Y-58645947D01*
X82315853Y-58614049D01*
X82305077Y-58573829D01*
X82303686Y-58568093D01*
X82289580Y-58503246D01*
X82285472Y-58484363D01*
X82272023Y-58448307D01*
X82268433Y-58437074D01*
X82261347Y-58410624D01*
X82228265Y-58330758D01*
X82226644Y-58326639D01*
X82192569Y-58235279D01*
X82179793Y-58211883D01*
X82174063Y-58199904D01*
X82168120Y-58185555D01*
X82168118Y-58185551D01*
X82168115Y-58185543D01*
X82118973Y-58100428D01*
X82117544Y-58097881D01*
X82065169Y-58001963D01*
X82065162Y-58001952D01*
X82056282Y-57990089D01*
X82048162Y-57977778D01*
X82046308Y-57974567D01*
X82046306Y-57974565D01*
X82046302Y-57974557D01*
X81979266Y-57887194D01*
X81978399Y-57886049D01*
X81905854Y-57789140D01*
X81905847Y-57789132D01*
X81905845Y-57789130D01*
X81901115Y-57784400D01*
X81901079Y-57784361D01*
X81723011Y-57606294D01*
X81722982Y-57606266D01*
X81717877Y-57601161D01*
X81717856Y-57601143D01*
X81620949Y-57528598D01*
X81619774Y-57527708D01*
X81532446Y-57460700D01*
X81529206Y-57458829D01*
X81516915Y-57450720D01*
X81505051Y-57441840D01*
X81505047Y-57441837D01*
X81409116Y-57389454D01*
X81406545Y-57388010D01*
X81383955Y-57374968D01*
X81321457Y-57338885D01*
X81307080Y-57332930D01*
X81295118Y-57327207D01*
X81271721Y-57314431D01*
X81271718Y-57314430D01*
X81271713Y-57314427D01*
X81271709Y-57314425D01*
X81180340Y-57280346D01*
X81176221Y-57278726D01*
X81096380Y-57245655D01*
X81096378Y-57245654D01*
X81096377Y-57245654D01*
X81089496Y-57243810D01*
X81069916Y-57238563D01*
X81058681Y-57234971D01*
X81022638Y-57221528D01*
X81022638Y-57221527D01*
X80938893Y-57203310D01*
X80933160Y-57201919D01*
X80861061Y-57182601D01*
X80861049Y-57182598D01*
X80822178Y-57177480D01*
X80812010Y-57175707D01*
X80762879Y-57165019D01*
X80762869Y-57165018D01*
X80689128Y-57159743D01*
X80681792Y-57158998D01*
X80619515Y-57150800D01*
X80619513Y-57150800D01*
X80568500Y-57150800D01*
X80559654Y-57150484D01*
X80497701Y-57146053D01*
X80497699Y-57146053D01*
X80435746Y-57150484D01*
X80426900Y-57150800D01*
X80375884Y-57150800D01*
X80313605Y-57158998D01*
X80306270Y-57159743D01*
X80232535Y-57165017D01*
X80232525Y-57165019D01*
X80183379Y-57175709D01*
X80173214Y-57177481D01*
X80134344Y-57182599D01*
X80062247Y-57201917D01*
X80056514Y-57203308D01*
X79972766Y-57221526D01*
X79972763Y-57221527D01*
X79936713Y-57234973D01*
X79925479Y-57238564D01*
X79899028Y-57245652D01*
X79899024Y-57245653D01*
X79819176Y-57278727D01*
X79815060Y-57280346D01*
X79723676Y-57314431D01*
X79723675Y-57314432D01*
X79700285Y-57327204D01*
X79688319Y-57332929D01*
X79673951Y-57338881D01*
X79673941Y-57338885D01*
X79588855Y-57388008D01*
X79586287Y-57389450D01*
X79490359Y-57441832D01*
X79490345Y-57441841D01*
X79478479Y-57450724D01*
X79466190Y-57458831D01*
X79462958Y-57460697D01*
X79462947Y-57460704D01*
X79375610Y-57527718D01*
X79374438Y-57528607D01*
X79277530Y-57601153D01*
X79271140Y-57607542D01*
X79095928Y-57782754D01*
X79089553Y-57789130D01*
X79017007Y-57886038D01*
X79016118Y-57887210D01*
X78949104Y-57974547D01*
X78949097Y-57974558D01*
X78947231Y-57977790D01*
X78939124Y-57990079D01*
X78930241Y-58001945D01*
X78930232Y-58001959D01*
X78877850Y-58097887D01*
X78876408Y-58100455D01*
X78827285Y-58185541D01*
X78827281Y-58185551D01*
X78821329Y-58199919D01*
X78815604Y-58211885D01*
X78802832Y-58235275D01*
X78802831Y-58235276D01*
X78768746Y-58326660D01*
X78767127Y-58330776D01*
X78734053Y-58410624D01*
X78734052Y-58410628D01*
X78726964Y-58437079D01*
X78723373Y-58448313D01*
X78709927Y-58484363D01*
X78709926Y-58484366D01*
X78691708Y-58568114D01*
X78690317Y-58573847D01*
X78670999Y-58645944D01*
X78665881Y-58684814D01*
X78664109Y-58694979D01*
X78653419Y-58744125D01*
X78653417Y-58744135D01*
X78648143Y-58817870D01*
X78647398Y-58825205D01*
X78639200Y-58887483D01*
X78639200Y-58938499D01*
X78638884Y-58947345D01*
X78634453Y-59009298D01*
X78634453Y-59009301D01*
X77025500Y-59009301D01*
X77025500Y-58503246D01*
X77025670Y-58496756D01*
X77041455Y-58195566D01*
X77042812Y-58182659D01*
X77071431Y-58001963D01*
X77089485Y-57887973D01*
X77092175Y-57875312D01*
X77169403Y-57587092D01*
X77173404Y-57574777D01*
X77280336Y-57296211D01*
X77285600Y-57284389D01*
X77421069Y-57018514D01*
X77427530Y-57007324D01*
X77590050Y-56757066D01*
X77597659Y-56746594D01*
X77785437Y-56514707D01*
X77794104Y-56505082D01*
X78005082Y-56294104D01*
X78014707Y-56285437D01*
X78246594Y-56097659D01*
X78257066Y-56090050D01*
X78507324Y-55927530D01*
X78518514Y-55921069D01*
X78784389Y-55785600D01*
X78796211Y-55780336D01*
X79074777Y-55673404D01*
X79087092Y-55669403D01*
X79375312Y-55592175D01*
X79387973Y-55589485D01*
X79682659Y-55542812D01*
X79695564Y-55541455D01*
X79996756Y-55525669D01*
X80003246Y-55525500D01*
X83696000Y-55525500D01*
X83763039Y-55545185D01*
G37*
G04 #@! TD.AperFunction*
M02*
