G04 #@! TF.GenerationSoftware,KiCad,Pcbnew,8.0.0*
G04 #@! TF.CreationDate,2024-09-16T09:54:48+02:00*
G04 #@! TF.ProjectId,SVXLink_PiHat_V1,5356584c-696e-46b5-9f50-694861745f56,rev?*
G04 #@! TF.SameCoordinates,Original*
G04 #@! TF.FileFunction,Legend,Top*
G04 #@! TF.FilePolarity,Positive*
%FSLAX46Y46*%
G04 Gerber Fmt 4.6, Leading zero omitted, Abs format (unit mm)*
G04 Created by KiCad (PCBNEW 8.0.0) date 2024-09-16 09:54:48*
%MOMM*%
%LPD*%
G01*
G04 APERTURE LIST*
%ADD10C,0.200000*%
%ADD11C,0.120000*%
%ADD12C,0.160000*%
%ADD13C,0.300000*%
%ADD14C,0.150000*%
%ADD15C,0.000000*%
G04 APERTURE END LIST*
D10*
X92964000Y-80365600D02*
X101981000Y-80365600D01*
X116370100Y-72961500D02*
X125387100Y-72961500D01*
X116433600Y-85420200D02*
X125450600Y-85420200D01*
X116433600Y-69977000D02*
X125450600Y-69977000D01*
X116433600Y-67437000D02*
X125450600Y-67437000D01*
X116370100Y-78041500D02*
X125387100Y-78041500D01*
D11*
X103578180Y-107181613D02*
X113179380Y-107181613D01*
X113179380Y-110331213D01*
X103578180Y-110331213D01*
X103578180Y-107181613D01*
G36*
X103578180Y-107181613D02*
G01*
X113179380Y-107181613D01*
X113179380Y-110331213D01*
X103578180Y-110331213D01*
X103578180Y-107181613D01*
G37*
D10*
X116332000Y-97345500D02*
X125349000Y-97345500D01*
X92964000Y-70586600D02*
X101981000Y-70586600D01*
X92964000Y-68046600D02*
X101981000Y-68046600D01*
X116370100Y-75374500D02*
X125387100Y-75374500D01*
X92989400Y-77825600D02*
X102006400Y-77825600D01*
X78697101Y-90629790D02*
X78620911Y-90591695D01*
X78620911Y-90591695D02*
X78506625Y-90591695D01*
X78506625Y-90591695D02*
X78392339Y-90629790D01*
X78392339Y-90629790D02*
X78316149Y-90705980D01*
X78316149Y-90705980D02*
X78278054Y-90782171D01*
X78278054Y-90782171D02*
X78239958Y-90934552D01*
X78239958Y-90934552D02*
X78239958Y-91048838D01*
X78239958Y-91048838D02*
X78278054Y-91201219D01*
X78278054Y-91201219D02*
X78316149Y-91277409D01*
X78316149Y-91277409D02*
X78392339Y-91353600D01*
X78392339Y-91353600D02*
X78506625Y-91391695D01*
X78506625Y-91391695D02*
X78582816Y-91391695D01*
X78582816Y-91391695D02*
X78697101Y-91353600D01*
X78697101Y-91353600D02*
X78735197Y-91315504D01*
X78735197Y-91315504D02*
X78735197Y-91048838D01*
X78735197Y-91048838D02*
X78582816Y-91048838D01*
X79078054Y-91391695D02*
X79078054Y-90591695D01*
X79078054Y-90591695D02*
X79535197Y-91391695D01*
X79535197Y-91391695D02*
X79535197Y-90591695D01*
X79916149Y-91391695D02*
X79916149Y-90591695D01*
X79916149Y-90591695D02*
X80106625Y-90591695D01*
X80106625Y-90591695D02*
X80220911Y-90629790D01*
X80220911Y-90629790D02*
X80297101Y-90705980D01*
X80297101Y-90705980D02*
X80335196Y-90782171D01*
X80335196Y-90782171D02*
X80373292Y-90934552D01*
X80373292Y-90934552D02*
X80373292Y-91048838D01*
X80373292Y-91048838D02*
X80335196Y-91201219D01*
X80335196Y-91201219D02*
X80297101Y-91277409D01*
X80297101Y-91277409D02*
X80220911Y-91353600D01*
X80220911Y-91353600D02*
X80106625Y-91391695D01*
X80106625Y-91391695D02*
X79916149Y-91391695D01*
D12*
X111855911Y-105276975D02*
X111205911Y-105276975D01*
X111453530Y-105276975D02*
X111422578Y-105215070D01*
X111422578Y-105215070D02*
X111422578Y-105091260D01*
X111422578Y-105091260D02*
X111453530Y-105029356D01*
X111453530Y-105029356D02*
X111484482Y-104998403D01*
X111484482Y-104998403D02*
X111546387Y-104967451D01*
X111546387Y-104967451D02*
X111732101Y-104967451D01*
X111732101Y-104967451D02*
X111794006Y-104998403D01*
X111794006Y-104998403D02*
X111824959Y-105029356D01*
X111824959Y-105029356D02*
X111855911Y-105091260D01*
X111855911Y-105091260D02*
X111855911Y-105215070D01*
X111855911Y-105215070D02*
X111824959Y-105276975D01*
X111422578Y-104750784D02*
X111855911Y-104596022D01*
X111422578Y-104441261D02*
X111855911Y-104596022D01*
X111855911Y-104596022D02*
X112010673Y-104657927D01*
X112010673Y-104657927D02*
X112041625Y-104688880D01*
X112041625Y-104688880D02*
X112072578Y-104750784D01*
X111205911Y-103574594D02*
X111205911Y-103450785D01*
X111205911Y-103450785D02*
X111236863Y-103388880D01*
X111236863Y-103388880D02*
X111298768Y-103326975D01*
X111298768Y-103326975D02*
X111422578Y-103296023D01*
X111422578Y-103296023D02*
X111639244Y-103296023D01*
X111639244Y-103296023D02*
X111763054Y-103326975D01*
X111763054Y-103326975D02*
X111824959Y-103388880D01*
X111824959Y-103388880D02*
X111855911Y-103450785D01*
X111855911Y-103450785D02*
X111855911Y-103574594D01*
X111855911Y-103574594D02*
X111824959Y-103636499D01*
X111824959Y-103636499D02*
X111763054Y-103698404D01*
X111763054Y-103698404D02*
X111639244Y-103729356D01*
X111639244Y-103729356D02*
X111422578Y-103729356D01*
X111422578Y-103729356D02*
X111298768Y-103698404D01*
X111298768Y-103698404D02*
X111236863Y-103636499D01*
X111236863Y-103636499D02*
X111205911Y-103574594D01*
X111515435Y-103017452D02*
X111515435Y-102800785D01*
X111855911Y-102707928D02*
X111855911Y-103017452D01*
X111855911Y-103017452D02*
X111205911Y-103017452D01*
X111205911Y-103017452D02*
X111205911Y-102707928D01*
X111855911Y-102398404D02*
X111855911Y-102274595D01*
X111855911Y-102274595D02*
X111824959Y-102212690D01*
X111824959Y-102212690D02*
X111794006Y-102181738D01*
X111794006Y-102181738D02*
X111701149Y-102119833D01*
X111701149Y-102119833D02*
X111577339Y-102088880D01*
X111577339Y-102088880D02*
X111329720Y-102088880D01*
X111329720Y-102088880D02*
X111267816Y-102119833D01*
X111267816Y-102119833D02*
X111236863Y-102150785D01*
X111236863Y-102150785D02*
X111205911Y-102212690D01*
X111205911Y-102212690D02*
X111205911Y-102336499D01*
X111205911Y-102336499D02*
X111236863Y-102398404D01*
X111236863Y-102398404D02*
X111267816Y-102429357D01*
X111267816Y-102429357D02*
X111329720Y-102460309D01*
X111329720Y-102460309D02*
X111484482Y-102460309D01*
X111484482Y-102460309D02*
X111546387Y-102429357D01*
X111546387Y-102429357D02*
X111577339Y-102398404D01*
X111577339Y-102398404D02*
X111608292Y-102336499D01*
X111608292Y-102336499D02*
X111608292Y-102212690D01*
X111608292Y-102212690D02*
X111577339Y-102150785D01*
X111577339Y-102150785D02*
X111546387Y-102119833D01*
X111546387Y-102119833D02*
X111484482Y-102088880D01*
X111824959Y-101841261D02*
X111855911Y-101748404D01*
X111855911Y-101748404D02*
X111855911Y-101593642D01*
X111855911Y-101593642D02*
X111824959Y-101531737D01*
X111824959Y-101531737D02*
X111794006Y-101500785D01*
X111794006Y-101500785D02*
X111732101Y-101469832D01*
X111732101Y-101469832D02*
X111670197Y-101469832D01*
X111670197Y-101469832D02*
X111608292Y-101500785D01*
X111608292Y-101500785D02*
X111577339Y-101531737D01*
X111577339Y-101531737D02*
X111546387Y-101593642D01*
X111546387Y-101593642D02*
X111515435Y-101717451D01*
X111515435Y-101717451D02*
X111484482Y-101779356D01*
X111484482Y-101779356D02*
X111453530Y-101810309D01*
X111453530Y-101810309D02*
X111391625Y-101841261D01*
X111391625Y-101841261D02*
X111329720Y-101841261D01*
X111329720Y-101841261D02*
X111267816Y-101810309D01*
X111267816Y-101810309D02*
X111236863Y-101779356D01*
X111236863Y-101779356D02*
X111205911Y-101717451D01*
X111205911Y-101717451D02*
X111205911Y-101562690D01*
X111205911Y-101562690D02*
X111236863Y-101469832D01*
X111670197Y-101222213D02*
X111670197Y-100912689D01*
X111855911Y-101284118D02*
X111205911Y-101067451D01*
X111205911Y-101067451D02*
X111855911Y-100850784D01*
X111205911Y-100634118D02*
X111732101Y-100634118D01*
X111732101Y-100634118D02*
X111794006Y-100603165D01*
X111794006Y-100603165D02*
X111824959Y-100572213D01*
X111824959Y-100572213D02*
X111855911Y-100510308D01*
X111855911Y-100510308D02*
X111855911Y-100386499D01*
X111855911Y-100386499D02*
X111824959Y-100324594D01*
X111824959Y-100324594D02*
X111794006Y-100293641D01*
X111794006Y-100293641D02*
X111732101Y-100262689D01*
X111732101Y-100262689D02*
X111205911Y-100262689D01*
X111267816Y-99488880D02*
X111236863Y-99457928D01*
X111236863Y-99457928D02*
X111205911Y-99396023D01*
X111205911Y-99396023D02*
X111205911Y-99241261D01*
X111205911Y-99241261D02*
X111236863Y-99179356D01*
X111236863Y-99179356D02*
X111267816Y-99148404D01*
X111267816Y-99148404D02*
X111329720Y-99117451D01*
X111329720Y-99117451D02*
X111391625Y-99117451D01*
X111391625Y-99117451D02*
X111484482Y-99148404D01*
X111484482Y-99148404D02*
X111855911Y-99519832D01*
X111855911Y-99519832D02*
X111855911Y-99117451D01*
X111205911Y-98715070D02*
X111205911Y-98653165D01*
X111205911Y-98653165D02*
X111236863Y-98591261D01*
X111236863Y-98591261D02*
X111267816Y-98560308D01*
X111267816Y-98560308D02*
X111329720Y-98529356D01*
X111329720Y-98529356D02*
X111453530Y-98498403D01*
X111453530Y-98498403D02*
X111608292Y-98498403D01*
X111608292Y-98498403D02*
X111732101Y-98529356D01*
X111732101Y-98529356D02*
X111794006Y-98560308D01*
X111794006Y-98560308D02*
X111824959Y-98591261D01*
X111824959Y-98591261D02*
X111855911Y-98653165D01*
X111855911Y-98653165D02*
X111855911Y-98715070D01*
X111855911Y-98715070D02*
X111824959Y-98776975D01*
X111824959Y-98776975D02*
X111794006Y-98807927D01*
X111794006Y-98807927D02*
X111732101Y-98838880D01*
X111732101Y-98838880D02*
X111608292Y-98869832D01*
X111608292Y-98869832D02*
X111453530Y-98869832D01*
X111453530Y-98869832D02*
X111329720Y-98838880D01*
X111329720Y-98838880D02*
X111267816Y-98807927D01*
X111267816Y-98807927D02*
X111236863Y-98776975D01*
X111236863Y-98776975D02*
X111205911Y-98715070D01*
X111267816Y-98250784D02*
X111236863Y-98219832D01*
X111236863Y-98219832D02*
X111205911Y-98157927D01*
X111205911Y-98157927D02*
X111205911Y-98003165D01*
X111205911Y-98003165D02*
X111236863Y-97941260D01*
X111236863Y-97941260D02*
X111267816Y-97910308D01*
X111267816Y-97910308D02*
X111329720Y-97879355D01*
X111329720Y-97879355D02*
X111391625Y-97879355D01*
X111391625Y-97879355D02*
X111484482Y-97910308D01*
X111484482Y-97910308D02*
X111855911Y-98281736D01*
X111855911Y-98281736D02*
X111855911Y-97879355D01*
X111422578Y-97322212D02*
X111855911Y-97322212D01*
X111174959Y-97476974D02*
X111639244Y-97631736D01*
X111639244Y-97631736D02*
X111639244Y-97229355D01*
X111205911Y-96579355D02*
X111855911Y-96362688D01*
X111855911Y-96362688D02*
X111205911Y-96146021D01*
X111855911Y-95588878D02*
X111855911Y-95960307D01*
X111855911Y-95774593D02*
X111205911Y-95774593D01*
X111205911Y-95774593D02*
X111298768Y-95836497D01*
X111298768Y-95836497D02*
X111360673Y-95898402D01*
X111360673Y-95898402D02*
X111391625Y-95960307D01*
D13*
X87233082Y-109479400D02*
X87447368Y-109550828D01*
X87447368Y-109550828D02*
X87804510Y-109550828D01*
X87804510Y-109550828D02*
X87947368Y-109479400D01*
X87947368Y-109479400D02*
X88018796Y-109407971D01*
X88018796Y-109407971D02*
X88090225Y-109265114D01*
X88090225Y-109265114D02*
X88090225Y-109122257D01*
X88090225Y-109122257D02*
X88018796Y-108979400D01*
X88018796Y-108979400D02*
X87947368Y-108907971D01*
X87947368Y-108907971D02*
X87804510Y-108836542D01*
X87804510Y-108836542D02*
X87518796Y-108765114D01*
X87518796Y-108765114D02*
X87375939Y-108693685D01*
X87375939Y-108693685D02*
X87304510Y-108622257D01*
X87304510Y-108622257D02*
X87233082Y-108479400D01*
X87233082Y-108479400D02*
X87233082Y-108336542D01*
X87233082Y-108336542D02*
X87304510Y-108193685D01*
X87304510Y-108193685D02*
X87375939Y-108122257D01*
X87375939Y-108122257D02*
X87518796Y-108050828D01*
X87518796Y-108050828D02*
X87875939Y-108050828D01*
X87875939Y-108050828D02*
X88090225Y-108122257D01*
X88518796Y-108050828D02*
X89018796Y-109550828D01*
X89018796Y-109550828D02*
X89518796Y-108050828D01*
X89875938Y-108050828D02*
X90875938Y-109550828D01*
X90875938Y-108050828D02*
X89875938Y-109550828D01*
X92161652Y-109550828D02*
X91447366Y-109550828D01*
X91447366Y-109550828D02*
X91447366Y-108050828D01*
X92661652Y-109550828D02*
X92661652Y-108550828D01*
X92661652Y-108050828D02*
X92590224Y-108122257D01*
X92590224Y-108122257D02*
X92661652Y-108193685D01*
X92661652Y-108193685D02*
X92733081Y-108122257D01*
X92733081Y-108122257D02*
X92661652Y-108050828D01*
X92661652Y-108050828D02*
X92661652Y-108193685D01*
X93375938Y-108550828D02*
X93375938Y-109550828D01*
X93375938Y-108693685D02*
X93447367Y-108622257D01*
X93447367Y-108622257D02*
X93590224Y-108550828D01*
X93590224Y-108550828D02*
X93804510Y-108550828D01*
X93804510Y-108550828D02*
X93947367Y-108622257D01*
X93947367Y-108622257D02*
X94018796Y-108765114D01*
X94018796Y-108765114D02*
X94018796Y-109550828D01*
X94733081Y-109550828D02*
X94733081Y-108050828D01*
X94875939Y-108979400D02*
X95304510Y-109550828D01*
X95304510Y-108550828D02*
X94733081Y-109122257D01*
X95590225Y-109693685D02*
X96733082Y-109693685D01*
X97090224Y-109550828D02*
X97090224Y-108050828D01*
X97090224Y-108050828D02*
X97661653Y-108050828D01*
X97661653Y-108050828D02*
X97804510Y-108122257D01*
X97804510Y-108122257D02*
X97875939Y-108193685D01*
X97875939Y-108193685D02*
X97947367Y-108336542D01*
X97947367Y-108336542D02*
X97947367Y-108550828D01*
X97947367Y-108550828D02*
X97875939Y-108693685D01*
X97875939Y-108693685D02*
X97804510Y-108765114D01*
X97804510Y-108765114D02*
X97661653Y-108836542D01*
X97661653Y-108836542D02*
X97090224Y-108836542D01*
X98590224Y-109550828D02*
X98590224Y-108550828D01*
X98590224Y-108050828D02*
X98518796Y-108122257D01*
X98518796Y-108122257D02*
X98590224Y-108193685D01*
X98590224Y-108193685D02*
X98661653Y-108122257D01*
X98661653Y-108122257D02*
X98590224Y-108050828D01*
X98590224Y-108050828D02*
X98590224Y-108193685D01*
X99304510Y-109550828D02*
X99304510Y-108050828D01*
X99304510Y-108765114D02*
X100161653Y-108765114D01*
X100161653Y-109550828D02*
X100161653Y-108050828D01*
X101518797Y-109550828D02*
X101518797Y-108765114D01*
X101518797Y-108765114D02*
X101447368Y-108622257D01*
X101447368Y-108622257D02*
X101304511Y-108550828D01*
X101304511Y-108550828D02*
X101018797Y-108550828D01*
X101018797Y-108550828D02*
X100875939Y-108622257D01*
X101518797Y-109479400D02*
X101375939Y-109550828D01*
X101375939Y-109550828D02*
X101018797Y-109550828D01*
X101018797Y-109550828D02*
X100875939Y-109479400D01*
X100875939Y-109479400D02*
X100804511Y-109336542D01*
X100804511Y-109336542D02*
X100804511Y-109193685D01*
X100804511Y-109193685D02*
X100875939Y-109050828D01*
X100875939Y-109050828D02*
X101018797Y-108979400D01*
X101018797Y-108979400D02*
X101375939Y-108979400D01*
X101375939Y-108979400D02*
X101518797Y-108907971D01*
X102018797Y-108550828D02*
X102590225Y-108550828D01*
X102233082Y-108050828D02*
X102233082Y-109336542D01*
X102233082Y-109336542D02*
X102304511Y-109479400D01*
X102304511Y-109479400D02*
X102447368Y-109550828D01*
X102447368Y-109550828D02*
X102590225Y-109550828D01*
D10*
X79203006Y-88236695D02*
X78822054Y-88236695D01*
X78822054Y-88236695D02*
X78783958Y-88617647D01*
X78783958Y-88617647D02*
X78822054Y-88579552D01*
X78822054Y-88579552D02*
X78898244Y-88541457D01*
X78898244Y-88541457D02*
X79088720Y-88541457D01*
X79088720Y-88541457D02*
X79164911Y-88579552D01*
X79164911Y-88579552D02*
X79203006Y-88617647D01*
X79203006Y-88617647D02*
X79241101Y-88693838D01*
X79241101Y-88693838D02*
X79241101Y-88884314D01*
X79241101Y-88884314D02*
X79203006Y-88960504D01*
X79203006Y-88960504D02*
X79164911Y-88998600D01*
X79164911Y-88998600D02*
X79088720Y-89036695D01*
X79088720Y-89036695D02*
X78898244Y-89036695D01*
X78898244Y-89036695D02*
X78822054Y-88998600D01*
X78822054Y-88998600D02*
X78783958Y-88960504D01*
X79469673Y-88236695D02*
X79736340Y-89036695D01*
X79736340Y-89036695D02*
X80003006Y-88236695D01*
X117254054Y-95217195D02*
X117254054Y-94417195D01*
X117254054Y-94417195D02*
X117520720Y-94988623D01*
X117520720Y-94988623D02*
X117787387Y-94417195D01*
X117787387Y-94417195D02*
X117787387Y-95217195D01*
X118587387Y-95217195D02*
X118130244Y-95217195D01*
X118358816Y-95217195D02*
X118358816Y-94417195D01*
X118358816Y-94417195D02*
X118282625Y-94531480D01*
X118282625Y-94531480D02*
X118206435Y-94607671D01*
X118206435Y-94607671D02*
X118130244Y-94645766D01*
X119806435Y-94798147D02*
X119539769Y-94798147D01*
X119539769Y-95217195D02*
X119539769Y-94417195D01*
X119539769Y-94417195D02*
X119920721Y-94417195D01*
X120187387Y-94988623D02*
X120568340Y-94988623D01*
X120111197Y-95217195D02*
X120377864Y-94417195D01*
X120377864Y-94417195D02*
X120644530Y-95217195D01*
X120911197Y-95217195D02*
X120911197Y-94417195D01*
X120911197Y-94417195D02*
X121368340Y-95217195D01*
X121368340Y-95217195D02*
X121368340Y-94417195D01*
X117520720Y-96086102D02*
X117254054Y-96086102D01*
X117254054Y-96505150D02*
X117254054Y-95705150D01*
X117254054Y-95705150D02*
X117635006Y-95705150D01*
X117901672Y-96276578D02*
X118282625Y-96276578D01*
X117825482Y-96505150D02*
X118092149Y-95705150D01*
X118092149Y-95705150D02*
X118358815Y-96505150D01*
X118625482Y-96505150D02*
X118625482Y-95705150D01*
X118625482Y-95705150D02*
X119082625Y-96505150D01*
X119082625Y-96505150D02*
X119082625Y-95705150D01*
X120073101Y-96200388D02*
X120682625Y-96200388D01*
X120377863Y-96505150D02*
X120377863Y-95895626D01*
X117520720Y-98662012D02*
X117254054Y-98662012D01*
X117254054Y-99081060D02*
X117254054Y-98281060D01*
X117254054Y-98281060D02*
X117635006Y-98281060D01*
X117901672Y-98852488D02*
X118282625Y-98852488D01*
X117825482Y-99081060D02*
X118092149Y-98281060D01*
X118092149Y-98281060D02*
X118358815Y-99081060D01*
X118625482Y-99081060D02*
X118625482Y-98281060D01*
X118625482Y-98281060D02*
X119082625Y-99081060D01*
X119082625Y-99081060D02*
X119082625Y-98281060D01*
X120073101Y-98776298D02*
X120682625Y-98776298D01*
X116332000Y-93789500D02*
X125349000Y-93789500D01*
X125349000Y-99885500D01*
X116332000Y-99885500D01*
X116332000Y-93789500D01*
X117584225Y-82491895D02*
X117584225Y-83063323D01*
X117584225Y-83063323D02*
X117546130Y-83177609D01*
X117546130Y-83177609D02*
X117469939Y-83253800D01*
X117469939Y-83253800D02*
X117355654Y-83291895D01*
X117355654Y-83291895D02*
X117279463Y-83291895D01*
X117888987Y-82491895D02*
X118384225Y-82491895D01*
X118384225Y-82491895D02*
X118117559Y-82796657D01*
X118117559Y-82796657D02*
X118231844Y-82796657D01*
X118231844Y-82796657D02*
X118308035Y-82834752D01*
X118308035Y-82834752D02*
X118346130Y-82872847D01*
X118346130Y-82872847D02*
X118384225Y-82949038D01*
X118384225Y-82949038D02*
X118384225Y-83139514D01*
X118384225Y-83139514D02*
X118346130Y-83215704D01*
X118346130Y-83215704D02*
X118308035Y-83253800D01*
X118308035Y-83253800D02*
X118231844Y-83291895D01*
X118231844Y-83291895D02*
X118003273Y-83291895D01*
X118003273Y-83291895D02*
X117927082Y-83253800D01*
X117927082Y-83253800D02*
X117888987Y-83215704D01*
X119222321Y-82491895D02*
X119488988Y-83291895D01*
X119488988Y-83291895D02*
X119755654Y-82491895D01*
X120479464Y-83215704D02*
X120441368Y-83253800D01*
X120441368Y-83253800D02*
X120327083Y-83291895D01*
X120327083Y-83291895D02*
X120250892Y-83291895D01*
X120250892Y-83291895D02*
X120136606Y-83253800D01*
X120136606Y-83253800D02*
X120060416Y-83177609D01*
X120060416Y-83177609D02*
X120022321Y-83101419D01*
X120022321Y-83101419D02*
X119984225Y-82949038D01*
X119984225Y-82949038D02*
X119984225Y-82834752D01*
X119984225Y-82834752D02*
X120022321Y-82682371D01*
X120022321Y-82682371D02*
X120060416Y-82606180D01*
X120060416Y-82606180D02*
X120136606Y-82529990D01*
X120136606Y-82529990D02*
X120250892Y-82491895D01*
X120250892Y-82491895D02*
X120327083Y-82491895D01*
X120327083Y-82491895D02*
X120441368Y-82529990D01*
X120441368Y-82529990D02*
X120479464Y-82568085D01*
X121279464Y-83215704D02*
X121241368Y-83253800D01*
X121241368Y-83253800D02*
X121127083Y-83291895D01*
X121127083Y-83291895D02*
X121050892Y-83291895D01*
X121050892Y-83291895D02*
X120936606Y-83253800D01*
X120936606Y-83253800D02*
X120860416Y-83177609D01*
X120860416Y-83177609D02*
X120822321Y-83101419D01*
X120822321Y-83101419D02*
X120784225Y-82949038D01*
X120784225Y-82949038D02*
X120784225Y-82834752D01*
X120784225Y-82834752D02*
X120822321Y-82682371D01*
X120822321Y-82682371D02*
X120860416Y-82606180D01*
X120860416Y-82606180D02*
X120936606Y-82529990D01*
X120936606Y-82529990D02*
X121050892Y-82491895D01*
X121050892Y-82491895D02*
X121127083Y-82491895D01*
X121127083Y-82491895D02*
X121241368Y-82529990D01*
X121241368Y-82529990D02*
X121279464Y-82568085D01*
X122117559Y-82491895D02*
X122574702Y-82491895D01*
X122346130Y-83291895D02*
X122346130Y-82491895D01*
X123298512Y-83291895D02*
X123031845Y-82910942D01*
X122841369Y-83291895D02*
X122841369Y-82491895D01*
X122841369Y-82491895D02*
X123146131Y-82491895D01*
X123146131Y-82491895D02*
X123222321Y-82529990D01*
X123222321Y-82529990D02*
X123260416Y-82568085D01*
X123260416Y-82568085D02*
X123298512Y-82644276D01*
X123298512Y-82644276D02*
X123298512Y-82758561D01*
X123298512Y-82758561D02*
X123260416Y-82834752D01*
X123260416Y-82834752D02*
X123222321Y-82872847D01*
X123222321Y-82872847D02*
X123146131Y-82910942D01*
X123146131Y-82910942D02*
X122841369Y-82910942D01*
X123565178Y-82491895D02*
X124098512Y-83291895D01*
X124098512Y-82491895D02*
X123565178Y-83291895D01*
X117241368Y-83779850D02*
X117698511Y-83779850D01*
X117469939Y-84579850D02*
X117469939Y-83779850D01*
X118422321Y-84579850D02*
X118155654Y-84198897D01*
X117965178Y-84579850D02*
X117965178Y-83779850D01*
X117965178Y-83779850D02*
X118269940Y-83779850D01*
X118269940Y-83779850D02*
X118346130Y-83817945D01*
X118346130Y-83817945D02*
X118384225Y-83856040D01*
X118384225Y-83856040D02*
X118422321Y-83932231D01*
X118422321Y-83932231D02*
X118422321Y-84046516D01*
X118422321Y-84046516D02*
X118384225Y-84122707D01*
X118384225Y-84122707D02*
X118346130Y-84160802D01*
X118346130Y-84160802D02*
X118269940Y-84198897D01*
X118269940Y-84198897D02*
X117965178Y-84198897D01*
X118688987Y-83779850D02*
X119222321Y-84579850D01*
X119222321Y-83779850D02*
X118688987Y-84579850D01*
X119527083Y-84275088D02*
X120136607Y-84275088D01*
X120517559Y-84579850D02*
X120517559Y-83779850D01*
X120517559Y-83779850D02*
X120822321Y-83779850D01*
X120822321Y-83779850D02*
X120898511Y-83817945D01*
X120898511Y-83817945D02*
X120936606Y-83856040D01*
X120936606Y-83856040D02*
X120974702Y-83932231D01*
X120974702Y-83932231D02*
X120974702Y-84046516D01*
X120974702Y-84046516D02*
X120936606Y-84122707D01*
X120936606Y-84122707D02*
X120898511Y-84160802D01*
X120898511Y-84160802D02*
X120822321Y-84198897D01*
X120822321Y-84198897D02*
X120517559Y-84198897D01*
X121317559Y-84579850D02*
X121317559Y-83779850D01*
X121698511Y-84579850D02*
X121698511Y-83779850D01*
X121698511Y-83779850D02*
X122155654Y-84579850D01*
X122155654Y-84579850D02*
X122155654Y-83779850D01*
X122955653Y-84579850D02*
X122498510Y-84579850D01*
X122727082Y-84579850D02*
X122727082Y-83779850D01*
X122727082Y-83779850D02*
X122650891Y-83894135D01*
X122650891Y-83894135D02*
X122574701Y-83970326D01*
X122574701Y-83970326D02*
X122498510Y-84008421D01*
X123679463Y-83779850D02*
X123298511Y-83779850D01*
X123298511Y-83779850D02*
X123260415Y-84160802D01*
X123260415Y-84160802D02*
X123298511Y-84122707D01*
X123298511Y-84122707D02*
X123374701Y-84084612D01*
X123374701Y-84084612D02*
X123565177Y-84084612D01*
X123565177Y-84084612D02*
X123641368Y-84122707D01*
X123641368Y-84122707D02*
X123679463Y-84160802D01*
X123679463Y-84160802D02*
X123717558Y-84236993D01*
X123717558Y-84236993D02*
X123717558Y-84427469D01*
X123717558Y-84427469D02*
X123679463Y-84503659D01*
X123679463Y-84503659D02*
X123641368Y-84541755D01*
X123641368Y-84541755D02*
X123565177Y-84579850D01*
X123565177Y-84579850D02*
X123374701Y-84579850D01*
X123374701Y-84579850D02*
X123298511Y-84541755D01*
X123298511Y-84541755D02*
X123260415Y-84503659D01*
X117241368Y-86355760D02*
X117698511Y-86355760D01*
X117469939Y-87155760D02*
X117469939Y-86355760D01*
X118422321Y-87155760D02*
X118155654Y-86774807D01*
X117965178Y-87155760D02*
X117965178Y-86355760D01*
X117965178Y-86355760D02*
X118269940Y-86355760D01*
X118269940Y-86355760D02*
X118346130Y-86393855D01*
X118346130Y-86393855D02*
X118384225Y-86431950D01*
X118384225Y-86431950D02*
X118422321Y-86508141D01*
X118422321Y-86508141D02*
X118422321Y-86622426D01*
X118422321Y-86622426D02*
X118384225Y-86698617D01*
X118384225Y-86698617D02*
X118346130Y-86736712D01*
X118346130Y-86736712D02*
X118269940Y-86774807D01*
X118269940Y-86774807D02*
X117965178Y-86774807D01*
X118688987Y-86355760D02*
X119222321Y-87155760D01*
X119222321Y-86355760D02*
X118688987Y-87155760D01*
X119527083Y-86850998D02*
X120136607Y-86850998D01*
X120936606Y-86393855D02*
X120860416Y-86355760D01*
X120860416Y-86355760D02*
X120746130Y-86355760D01*
X120746130Y-86355760D02*
X120631844Y-86393855D01*
X120631844Y-86393855D02*
X120555654Y-86470045D01*
X120555654Y-86470045D02*
X120517559Y-86546236D01*
X120517559Y-86546236D02*
X120479463Y-86698617D01*
X120479463Y-86698617D02*
X120479463Y-86812903D01*
X120479463Y-86812903D02*
X120517559Y-86965284D01*
X120517559Y-86965284D02*
X120555654Y-87041474D01*
X120555654Y-87041474D02*
X120631844Y-87117665D01*
X120631844Y-87117665D02*
X120746130Y-87155760D01*
X120746130Y-87155760D02*
X120822321Y-87155760D01*
X120822321Y-87155760D02*
X120936606Y-87117665D01*
X120936606Y-87117665D02*
X120974702Y-87079569D01*
X120974702Y-87079569D02*
X120974702Y-86812903D01*
X120974702Y-86812903D02*
X120822321Y-86812903D01*
X121317559Y-87155760D02*
X121317559Y-86355760D01*
X121317559Y-86355760D02*
X121774702Y-87155760D01*
X121774702Y-87155760D02*
X121774702Y-86355760D01*
X122155654Y-87155760D02*
X122155654Y-86355760D01*
X122155654Y-86355760D02*
X122346130Y-86355760D01*
X122346130Y-86355760D02*
X122460416Y-86393855D01*
X122460416Y-86393855D02*
X122536606Y-86470045D01*
X122536606Y-86470045D02*
X122574701Y-86546236D01*
X122574701Y-86546236D02*
X122612797Y-86698617D01*
X122612797Y-86698617D02*
X122612797Y-86812903D01*
X122612797Y-86812903D02*
X122574701Y-86965284D01*
X122574701Y-86965284D02*
X122536606Y-87041474D01*
X122536606Y-87041474D02*
X122460416Y-87117665D01*
X122460416Y-87117665D02*
X122346130Y-87155760D01*
X122346130Y-87155760D02*
X122155654Y-87155760D01*
X116433600Y-81864200D02*
X125450600Y-81864200D01*
X125450600Y-87960200D01*
X116433600Y-87960200D01*
X116433600Y-81864200D01*
X94114625Y-65118295D02*
X94114625Y-65689723D01*
X94114625Y-65689723D02*
X94076530Y-65804009D01*
X94076530Y-65804009D02*
X94000339Y-65880200D01*
X94000339Y-65880200D02*
X93886054Y-65918295D01*
X93886054Y-65918295D02*
X93809863Y-65918295D01*
X94419387Y-65118295D02*
X94914625Y-65118295D01*
X94914625Y-65118295D02*
X94647959Y-65423057D01*
X94647959Y-65423057D02*
X94762244Y-65423057D01*
X94762244Y-65423057D02*
X94838435Y-65461152D01*
X94838435Y-65461152D02*
X94876530Y-65499247D01*
X94876530Y-65499247D02*
X94914625Y-65575438D01*
X94914625Y-65575438D02*
X94914625Y-65765914D01*
X94914625Y-65765914D02*
X94876530Y-65842104D01*
X94876530Y-65842104D02*
X94838435Y-65880200D01*
X94838435Y-65880200D02*
X94762244Y-65918295D01*
X94762244Y-65918295D02*
X94533673Y-65918295D01*
X94533673Y-65918295D02*
X94457482Y-65880200D01*
X94457482Y-65880200D02*
X94419387Y-65842104D01*
X96286054Y-65918295D02*
X95828911Y-65918295D01*
X96057483Y-65918295D02*
X96057483Y-65118295D01*
X96057483Y-65118295D02*
X95981292Y-65232580D01*
X95981292Y-65232580D02*
X95905102Y-65308771D01*
X95905102Y-65308771D02*
X95828911Y-65346866D01*
X96628912Y-65613533D02*
X97238436Y-65613533D01*
X97543197Y-65118295D02*
X97733673Y-65918295D01*
X97733673Y-65918295D02*
X97886054Y-65346866D01*
X97886054Y-65346866D02*
X98038435Y-65918295D01*
X98038435Y-65918295D02*
X98228912Y-65118295D01*
X98533674Y-65918295D02*
X98533674Y-65384961D01*
X98533674Y-65118295D02*
X98495578Y-65156390D01*
X98495578Y-65156390D02*
X98533674Y-65194485D01*
X98533674Y-65194485D02*
X98571769Y-65156390D01*
X98571769Y-65156390D02*
X98533674Y-65118295D01*
X98533674Y-65118295D02*
X98533674Y-65194485D01*
X98914626Y-65918295D02*
X98914626Y-65384961D01*
X98914626Y-65537342D02*
X98952721Y-65461152D01*
X98952721Y-65461152D02*
X98990816Y-65423057D01*
X98990816Y-65423057D02*
X99067007Y-65384961D01*
X99067007Y-65384961D02*
X99143197Y-65384961D01*
X99714626Y-65880200D02*
X99638435Y-65918295D01*
X99638435Y-65918295D02*
X99486054Y-65918295D01*
X99486054Y-65918295D02*
X99409864Y-65880200D01*
X99409864Y-65880200D02*
X99371768Y-65804009D01*
X99371768Y-65804009D02*
X99371768Y-65499247D01*
X99371768Y-65499247D02*
X99409864Y-65423057D01*
X99409864Y-65423057D02*
X99486054Y-65384961D01*
X99486054Y-65384961D02*
X99638435Y-65384961D01*
X99638435Y-65384961D02*
X99714626Y-65423057D01*
X99714626Y-65423057D02*
X99752721Y-65499247D01*
X99752721Y-65499247D02*
X99752721Y-65575438D01*
X99752721Y-65575438D02*
X99371768Y-65651628D01*
X94305101Y-66444345D02*
X94228911Y-66406250D01*
X94228911Y-66406250D02*
X94114625Y-66406250D01*
X94114625Y-66406250D02*
X94000339Y-66444345D01*
X94000339Y-66444345D02*
X93924149Y-66520535D01*
X93924149Y-66520535D02*
X93886054Y-66596726D01*
X93886054Y-66596726D02*
X93847958Y-66749107D01*
X93847958Y-66749107D02*
X93847958Y-66863393D01*
X93847958Y-66863393D02*
X93886054Y-67015774D01*
X93886054Y-67015774D02*
X93924149Y-67091964D01*
X93924149Y-67091964D02*
X94000339Y-67168155D01*
X94000339Y-67168155D02*
X94114625Y-67206250D01*
X94114625Y-67206250D02*
X94190816Y-67206250D01*
X94190816Y-67206250D02*
X94305101Y-67168155D01*
X94305101Y-67168155D02*
X94343197Y-67130059D01*
X94343197Y-67130059D02*
X94343197Y-66863393D01*
X94343197Y-66863393D02*
X94190816Y-66863393D01*
X94686054Y-67206250D02*
X94686054Y-66406250D01*
X94686054Y-66406250D02*
X95143197Y-67206250D01*
X95143197Y-67206250D02*
X95143197Y-66406250D01*
X95524149Y-67206250D02*
X95524149Y-66406250D01*
X95524149Y-66406250D02*
X95714625Y-66406250D01*
X95714625Y-66406250D02*
X95828911Y-66444345D01*
X95828911Y-66444345D02*
X95905101Y-66520535D01*
X95905101Y-66520535D02*
X95943196Y-66596726D01*
X95943196Y-66596726D02*
X95981292Y-66749107D01*
X95981292Y-66749107D02*
X95981292Y-66863393D01*
X95981292Y-66863393D02*
X95943196Y-67015774D01*
X95943196Y-67015774D02*
X95905101Y-67091964D01*
X95905101Y-67091964D02*
X95828911Y-67168155D01*
X95828911Y-67168155D02*
X95714625Y-67206250D01*
X95714625Y-67206250D02*
X95524149Y-67206250D01*
X93886054Y-69782160D02*
X93886054Y-68982160D01*
X93886054Y-68982160D02*
X94076530Y-68982160D01*
X94076530Y-68982160D02*
X94190816Y-69020255D01*
X94190816Y-69020255D02*
X94267006Y-69096445D01*
X94267006Y-69096445D02*
X94305101Y-69172636D01*
X94305101Y-69172636D02*
X94343197Y-69325017D01*
X94343197Y-69325017D02*
X94343197Y-69439303D01*
X94343197Y-69439303D02*
X94305101Y-69591684D01*
X94305101Y-69591684D02*
X94267006Y-69667874D01*
X94267006Y-69667874D02*
X94190816Y-69744065D01*
X94190816Y-69744065D02*
X94076530Y-69782160D01*
X94076530Y-69782160D02*
X93886054Y-69782160D01*
X94647958Y-69553588D02*
X95028911Y-69553588D01*
X94571768Y-69782160D02*
X94838435Y-68982160D01*
X94838435Y-68982160D02*
X95105101Y-69782160D01*
X95257482Y-68982160D02*
X95714625Y-68982160D01*
X95486053Y-69782160D02*
X95486053Y-68982160D01*
X95943196Y-69553588D02*
X96324149Y-69553588D01*
X95867006Y-69782160D02*
X96133673Y-68982160D01*
X96133673Y-68982160D02*
X96400339Y-69782160D01*
X93886054Y-72053308D02*
X94495578Y-72053308D01*
X94190816Y-72358070D02*
X94190816Y-71748546D01*
X95257482Y-71558070D02*
X94876530Y-71558070D01*
X94876530Y-71558070D02*
X94838434Y-71939022D01*
X94838434Y-71939022D02*
X94876530Y-71900927D01*
X94876530Y-71900927D02*
X94952720Y-71862832D01*
X94952720Y-71862832D02*
X95143196Y-71862832D01*
X95143196Y-71862832D02*
X95219387Y-71900927D01*
X95219387Y-71900927D02*
X95257482Y-71939022D01*
X95257482Y-71939022D02*
X95295577Y-72015213D01*
X95295577Y-72015213D02*
X95295577Y-72205689D01*
X95295577Y-72205689D02*
X95257482Y-72281879D01*
X95257482Y-72281879D02*
X95219387Y-72319975D01*
X95219387Y-72319975D02*
X95143196Y-72358070D01*
X95143196Y-72358070D02*
X94952720Y-72358070D01*
X94952720Y-72358070D02*
X94876530Y-72319975D01*
X94876530Y-72319975D02*
X94838434Y-72281879D01*
X95524149Y-71558070D02*
X95790816Y-72358070D01*
X95790816Y-72358070D02*
X96057482Y-71558070D01*
X92964000Y-64490600D02*
X101981000Y-64490600D01*
X101981000Y-73126600D01*
X92964000Y-73126600D01*
X92964000Y-64490600D01*
X94140025Y-75024295D02*
X94140025Y-75595723D01*
X94140025Y-75595723D02*
X94101930Y-75710009D01*
X94101930Y-75710009D02*
X94025739Y-75786200D01*
X94025739Y-75786200D02*
X93911454Y-75824295D01*
X93911454Y-75824295D02*
X93835263Y-75824295D01*
X94863835Y-75290961D02*
X94863835Y-75824295D01*
X94673359Y-74986200D02*
X94482882Y-75557628D01*
X94482882Y-75557628D02*
X94978121Y-75557628D01*
X95892407Y-75824295D02*
X95892407Y-75024295D01*
X95892407Y-75024295D02*
X96197169Y-75024295D01*
X96197169Y-75024295D02*
X96273359Y-75062390D01*
X96273359Y-75062390D02*
X96311454Y-75100485D01*
X96311454Y-75100485D02*
X96349550Y-75176676D01*
X96349550Y-75176676D02*
X96349550Y-75290961D01*
X96349550Y-75290961D02*
X96311454Y-75367152D01*
X96311454Y-75367152D02*
X96273359Y-75405247D01*
X96273359Y-75405247D02*
X96197169Y-75443342D01*
X96197169Y-75443342D02*
X95892407Y-75443342D01*
X96616216Y-75024295D02*
X96806692Y-75824295D01*
X96806692Y-75824295D02*
X96959073Y-75252866D01*
X96959073Y-75252866D02*
X97111454Y-75824295D01*
X97111454Y-75824295D02*
X97301931Y-75024295D01*
X98063836Y-75824295D02*
X97797169Y-75443342D01*
X97606693Y-75824295D02*
X97606693Y-75024295D01*
X97606693Y-75024295D02*
X97911455Y-75024295D01*
X97911455Y-75024295D02*
X97987645Y-75062390D01*
X97987645Y-75062390D02*
X98025740Y-75100485D01*
X98025740Y-75100485D02*
X98063836Y-75176676D01*
X98063836Y-75176676D02*
X98063836Y-75290961D01*
X98063836Y-75290961D02*
X98025740Y-75367152D01*
X98025740Y-75367152D02*
X97987645Y-75405247D01*
X97987645Y-75405247D02*
X97911455Y-75443342D01*
X97911455Y-75443342D02*
X97606693Y-75443342D01*
X98978121Y-74986200D02*
X98292407Y-76014771D01*
X99206692Y-75595723D02*
X99587645Y-75595723D01*
X99130502Y-75824295D02*
X99397169Y-75024295D01*
X99397169Y-75024295D02*
X99663835Y-75824295D01*
X100387645Y-75748104D02*
X100349549Y-75786200D01*
X100349549Y-75786200D02*
X100235264Y-75824295D01*
X100235264Y-75824295D02*
X100159073Y-75824295D01*
X100159073Y-75824295D02*
X100044787Y-75786200D01*
X100044787Y-75786200D02*
X99968597Y-75710009D01*
X99968597Y-75710009D02*
X99930502Y-75633819D01*
X99930502Y-75633819D02*
X99892406Y-75481438D01*
X99892406Y-75481438D02*
X99892406Y-75367152D01*
X99892406Y-75367152D02*
X99930502Y-75214771D01*
X99930502Y-75214771D02*
X99968597Y-75138580D01*
X99968597Y-75138580D02*
X100044787Y-75062390D01*
X100044787Y-75062390D02*
X100159073Y-75024295D01*
X100159073Y-75024295D02*
X100235264Y-75024295D01*
X100235264Y-75024295D02*
X100349549Y-75062390D01*
X100349549Y-75062390D02*
X100387645Y-75100485D01*
X100616216Y-75024295D02*
X101073359Y-75024295D01*
X100844787Y-75824295D02*
X100844787Y-75024295D01*
X93911454Y-77112250D02*
X93911454Y-76312250D01*
X93911454Y-76312250D02*
X94216216Y-76312250D01*
X94216216Y-76312250D02*
X94292406Y-76350345D01*
X94292406Y-76350345D02*
X94330501Y-76388440D01*
X94330501Y-76388440D02*
X94368597Y-76464631D01*
X94368597Y-76464631D02*
X94368597Y-76578916D01*
X94368597Y-76578916D02*
X94330501Y-76655107D01*
X94330501Y-76655107D02*
X94292406Y-76693202D01*
X94292406Y-76693202D02*
X94216216Y-76731297D01*
X94216216Y-76731297D02*
X93911454Y-76731297D01*
X94635263Y-76312250D02*
X94825739Y-77112250D01*
X94825739Y-77112250D02*
X94978120Y-76540821D01*
X94978120Y-76540821D02*
X95130501Y-77112250D01*
X95130501Y-77112250D02*
X95320978Y-76312250D01*
X96082883Y-77112250D02*
X95816216Y-76731297D01*
X95625740Y-77112250D02*
X95625740Y-76312250D01*
X95625740Y-76312250D02*
X95930502Y-76312250D01*
X95930502Y-76312250D02*
X96006692Y-76350345D01*
X96006692Y-76350345D02*
X96044787Y-76388440D01*
X96044787Y-76388440D02*
X96082883Y-76464631D01*
X96082883Y-76464631D02*
X96082883Y-76578916D01*
X96082883Y-76578916D02*
X96044787Y-76655107D01*
X96044787Y-76655107D02*
X96006692Y-76693202D01*
X96006692Y-76693202D02*
X95930502Y-76731297D01*
X95930502Y-76731297D02*
X95625740Y-76731297D01*
X97301930Y-76693202D02*
X97416216Y-76731297D01*
X97416216Y-76731297D02*
X97454311Y-76769393D01*
X97454311Y-76769393D02*
X97492407Y-76845583D01*
X97492407Y-76845583D02*
X97492407Y-76959869D01*
X97492407Y-76959869D02*
X97454311Y-77036059D01*
X97454311Y-77036059D02*
X97416216Y-77074155D01*
X97416216Y-77074155D02*
X97340026Y-77112250D01*
X97340026Y-77112250D02*
X97035264Y-77112250D01*
X97035264Y-77112250D02*
X97035264Y-76312250D01*
X97035264Y-76312250D02*
X97301930Y-76312250D01*
X97301930Y-76312250D02*
X97378121Y-76350345D01*
X97378121Y-76350345D02*
X97416216Y-76388440D01*
X97416216Y-76388440D02*
X97454311Y-76464631D01*
X97454311Y-76464631D02*
X97454311Y-76540821D01*
X97454311Y-76540821D02*
X97416216Y-76617012D01*
X97416216Y-76617012D02*
X97378121Y-76655107D01*
X97378121Y-76655107D02*
X97301930Y-76693202D01*
X97301930Y-76693202D02*
X97035264Y-76693202D01*
X98178121Y-76578916D02*
X98178121Y-77112250D01*
X97835264Y-76578916D02*
X97835264Y-76997964D01*
X97835264Y-76997964D02*
X97873359Y-77074155D01*
X97873359Y-77074155D02*
X97949549Y-77112250D01*
X97949549Y-77112250D02*
X98063835Y-77112250D01*
X98063835Y-77112250D02*
X98140026Y-77074155D01*
X98140026Y-77074155D02*
X98178121Y-77036059D01*
X98444788Y-76578916D02*
X98749550Y-76578916D01*
X98559074Y-76312250D02*
X98559074Y-76997964D01*
X98559074Y-76997964D02*
X98597169Y-77074155D01*
X98597169Y-77074155D02*
X98673359Y-77112250D01*
X98673359Y-77112250D02*
X98749550Y-77112250D01*
X98901931Y-76578916D02*
X99206693Y-76578916D01*
X99016217Y-76312250D02*
X99016217Y-76997964D01*
X99016217Y-76997964D02*
X99054312Y-77074155D01*
X99054312Y-77074155D02*
X99130502Y-77112250D01*
X99130502Y-77112250D02*
X99206693Y-77112250D01*
X99587645Y-77112250D02*
X99511455Y-77074155D01*
X99511455Y-77074155D02*
X99473360Y-77036059D01*
X99473360Y-77036059D02*
X99435264Y-76959869D01*
X99435264Y-76959869D02*
X99435264Y-76731297D01*
X99435264Y-76731297D02*
X99473360Y-76655107D01*
X99473360Y-76655107D02*
X99511455Y-76617012D01*
X99511455Y-76617012D02*
X99587645Y-76578916D01*
X99587645Y-76578916D02*
X99701931Y-76578916D01*
X99701931Y-76578916D02*
X99778122Y-76617012D01*
X99778122Y-76617012D02*
X99816217Y-76655107D01*
X99816217Y-76655107D02*
X99854312Y-76731297D01*
X99854312Y-76731297D02*
X99854312Y-76959869D01*
X99854312Y-76959869D02*
X99816217Y-77036059D01*
X99816217Y-77036059D02*
X99778122Y-77074155D01*
X99778122Y-77074155D02*
X99701931Y-77112250D01*
X99701931Y-77112250D02*
X99587645Y-77112250D01*
X100197170Y-76578916D02*
X100197170Y-77112250D01*
X100197170Y-76655107D02*
X100235265Y-76617012D01*
X100235265Y-76617012D02*
X100311455Y-76578916D01*
X100311455Y-76578916D02*
X100425741Y-76578916D01*
X100425741Y-76578916D02*
X100501932Y-76617012D01*
X100501932Y-76617012D02*
X100540027Y-76693202D01*
X100540027Y-76693202D02*
X100540027Y-77112250D01*
X94330501Y-78926255D02*
X94254311Y-78888160D01*
X94254311Y-78888160D02*
X94140025Y-78888160D01*
X94140025Y-78888160D02*
X94025739Y-78926255D01*
X94025739Y-78926255D02*
X93949549Y-79002445D01*
X93949549Y-79002445D02*
X93911454Y-79078636D01*
X93911454Y-79078636D02*
X93873358Y-79231017D01*
X93873358Y-79231017D02*
X93873358Y-79345303D01*
X93873358Y-79345303D02*
X93911454Y-79497684D01*
X93911454Y-79497684D02*
X93949549Y-79573874D01*
X93949549Y-79573874D02*
X94025739Y-79650065D01*
X94025739Y-79650065D02*
X94140025Y-79688160D01*
X94140025Y-79688160D02*
X94216216Y-79688160D01*
X94216216Y-79688160D02*
X94330501Y-79650065D01*
X94330501Y-79650065D02*
X94368597Y-79611969D01*
X94368597Y-79611969D02*
X94368597Y-79345303D01*
X94368597Y-79345303D02*
X94216216Y-79345303D01*
X94711454Y-79688160D02*
X94711454Y-78888160D01*
X94711454Y-78888160D02*
X95168597Y-79688160D01*
X95168597Y-79688160D02*
X95168597Y-78888160D01*
X95549549Y-79688160D02*
X95549549Y-78888160D01*
X95549549Y-78888160D02*
X95740025Y-78888160D01*
X95740025Y-78888160D02*
X95854311Y-78926255D01*
X95854311Y-78926255D02*
X95930501Y-79002445D01*
X95930501Y-79002445D02*
X95968596Y-79078636D01*
X95968596Y-79078636D02*
X96006692Y-79231017D01*
X96006692Y-79231017D02*
X96006692Y-79345303D01*
X96006692Y-79345303D02*
X95968596Y-79497684D01*
X95968596Y-79497684D02*
X95930501Y-79573874D01*
X95930501Y-79573874D02*
X95854311Y-79650065D01*
X95854311Y-79650065D02*
X95740025Y-79688160D01*
X95740025Y-79688160D02*
X95549549Y-79688160D01*
X93873358Y-82035498D02*
X94254311Y-82035498D01*
X93797168Y-82264070D02*
X94063835Y-81464070D01*
X94063835Y-81464070D02*
X94330501Y-82264070D01*
X95054311Y-82187879D02*
X95016215Y-82225975D01*
X95016215Y-82225975D02*
X94901930Y-82264070D01*
X94901930Y-82264070D02*
X94825739Y-82264070D01*
X94825739Y-82264070D02*
X94711453Y-82225975D01*
X94711453Y-82225975D02*
X94635263Y-82149784D01*
X94635263Y-82149784D02*
X94597168Y-82073594D01*
X94597168Y-82073594D02*
X94559072Y-81921213D01*
X94559072Y-81921213D02*
X94559072Y-81806927D01*
X94559072Y-81806927D02*
X94597168Y-81654546D01*
X94597168Y-81654546D02*
X94635263Y-81578355D01*
X94635263Y-81578355D02*
X94711453Y-81502165D01*
X94711453Y-81502165D02*
X94825739Y-81464070D01*
X94825739Y-81464070D02*
X94901930Y-81464070D01*
X94901930Y-81464070D02*
X95016215Y-81502165D01*
X95016215Y-81502165D02*
X95054311Y-81540260D01*
X95282882Y-81464070D02*
X95740025Y-81464070D01*
X95511453Y-82264070D02*
X95511453Y-81464070D01*
X96997168Y-82264070D02*
X96616216Y-82264070D01*
X96616216Y-82264070D02*
X96616216Y-81464070D01*
X97263835Y-81845022D02*
X97530501Y-81845022D01*
X97644787Y-82264070D02*
X97263835Y-82264070D01*
X97263835Y-82264070D02*
X97263835Y-81464070D01*
X97263835Y-81464070D02*
X97644787Y-81464070D01*
X97987645Y-82264070D02*
X97987645Y-81464070D01*
X97987645Y-81464070D02*
X98178121Y-81464070D01*
X98178121Y-81464070D02*
X98292407Y-81502165D01*
X98292407Y-81502165D02*
X98368597Y-81578355D01*
X98368597Y-81578355D02*
X98406692Y-81654546D01*
X98406692Y-81654546D02*
X98444788Y-81806927D01*
X98444788Y-81806927D02*
X98444788Y-81921213D01*
X98444788Y-81921213D02*
X98406692Y-82073594D01*
X98406692Y-82073594D02*
X98368597Y-82149784D01*
X98368597Y-82149784D02*
X98292407Y-82225975D01*
X98292407Y-82225975D02*
X98178121Y-82264070D01*
X98178121Y-82264070D02*
X97987645Y-82264070D01*
X92989400Y-74396600D02*
X102006400Y-74396600D01*
X102006400Y-83159600D01*
X92989400Y-83159600D01*
X92989400Y-74396600D01*
X117457225Y-64635695D02*
X117457225Y-65207123D01*
X117457225Y-65207123D02*
X117419130Y-65321409D01*
X117419130Y-65321409D02*
X117342939Y-65397600D01*
X117342939Y-65397600D02*
X117228654Y-65435695D01*
X117228654Y-65435695D02*
X117152463Y-65435695D01*
X118219130Y-64635695D02*
X117838178Y-64635695D01*
X117838178Y-64635695D02*
X117800082Y-65016647D01*
X117800082Y-65016647D02*
X117838178Y-64978552D01*
X117838178Y-64978552D02*
X117914368Y-64940457D01*
X117914368Y-64940457D02*
X118104844Y-64940457D01*
X118104844Y-64940457D02*
X118181035Y-64978552D01*
X118181035Y-64978552D02*
X118219130Y-65016647D01*
X118219130Y-65016647D02*
X118257225Y-65092838D01*
X118257225Y-65092838D02*
X118257225Y-65283314D01*
X118257225Y-65283314D02*
X118219130Y-65359504D01*
X118219130Y-65359504D02*
X118181035Y-65397600D01*
X118181035Y-65397600D02*
X118104844Y-65435695D01*
X118104844Y-65435695D02*
X117914368Y-65435695D01*
X117914368Y-65435695D02*
X117838178Y-65397600D01*
X117838178Y-65397600D02*
X117800082Y-65359504D01*
X119628654Y-64673790D02*
X119552464Y-64635695D01*
X119552464Y-64635695D02*
X119438178Y-64635695D01*
X119438178Y-64635695D02*
X119323892Y-64673790D01*
X119323892Y-64673790D02*
X119247702Y-64749980D01*
X119247702Y-64749980D02*
X119209607Y-64826171D01*
X119209607Y-64826171D02*
X119171511Y-64978552D01*
X119171511Y-64978552D02*
X119171511Y-65092838D01*
X119171511Y-65092838D02*
X119209607Y-65245219D01*
X119209607Y-65245219D02*
X119247702Y-65321409D01*
X119247702Y-65321409D02*
X119323892Y-65397600D01*
X119323892Y-65397600D02*
X119438178Y-65435695D01*
X119438178Y-65435695D02*
X119514369Y-65435695D01*
X119514369Y-65435695D02*
X119628654Y-65397600D01*
X119628654Y-65397600D02*
X119666750Y-65359504D01*
X119666750Y-65359504D02*
X119666750Y-65092838D01*
X119666750Y-65092838D02*
X119514369Y-65092838D01*
X120009607Y-65435695D02*
X120009607Y-64635695D01*
X120009607Y-64635695D02*
X120314369Y-64635695D01*
X120314369Y-64635695D02*
X120390559Y-64673790D01*
X120390559Y-64673790D02*
X120428654Y-64711885D01*
X120428654Y-64711885D02*
X120466750Y-64788076D01*
X120466750Y-64788076D02*
X120466750Y-64902361D01*
X120466750Y-64902361D02*
X120428654Y-64978552D01*
X120428654Y-64978552D02*
X120390559Y-65016647D01*
X120390559Y-65016647D02*
X120314369Y-65054742D01*
X120314369Y-65054742D02*
X120009607Y-65054742D01*
X120809607Y-65435695D02*
X120809607Y-64635695D01*
X121342940Y-64635695D02*
X121495321Y-64635695D01*
X121495321Y-64635695D02*
X121571511Y-64673790D01*
X121571511Y-64673790D02*
X121647702Y-64749980D01*
X121647702Y-64749980D02*
X121685797Y-64902361D01*
X121685797Y-64902361D02*
X121685797Y-65169028D01*
X121685797Y-65169028D02*
X121647702Y-65321409D01*
X121647702Y-65321409D02*
X121571511Y-65397600D01*
X121571511Y-65397600D02*
X121495321Y-65435695D01*
X121495321Y-65435695D02*
X121342940Y-65435695D01*
X121342940Y-65435695D02*
X121266749Y-65397600D01*
X121266749Y-65397600D02*
X121190559Y-65321409D01*
X121190559Y-65321409D02*
X121152463Y-65169028D01*
X121152463Y-65169028D02*
X121152463Y-64902361D01*
X121152463Y-64902361D02*
X121190559Y-64749980D01*
X121190559Y-64749980D02*
X121266749Y-64673790D01*
X121266749Y-64673790D02*
X121342940Y-64635695D01*
X117228654Y-66418888D02*
X117838178Y-66418888D01*
X117533416Y-66723650D02*
X117533416Y-66114126D01*
X118600082Y-65923650D02*
X118219130Y-65923650D01*
X118219130Y-65923650D02*
X118181034Y-66304602D01*
X118181034Y-66304602D02*
X118219130Y-66266507D01*
X118219130Y-66266507D02*
X118295320Y-66228412D01*
X118295320Y-66228412D02*
X118485796Y-66228412D01*
X118485796Y-66228412D02*
X118561987Y-66266507D01*
X118561987Y-66266507D02*
X118600082Y-66304602D01*
X118600082Y-66304602D02*
X118638177Y-66380793D01*
X118638177Y-66380793D02*
X118638177Y-66571269D01*
X118638177Y-66571269D02*
X118600082Y-66647459D01*
X118600082Y-66647459D02*
X118561987Y-66685555D01*
X118561987Y-66685555D02*
X118485796Y-66723650D01*
X118485796Y-66723650D02*
X118295320Y-66723650D01*
X118295320Y-66723650D02*
X118219130Y-66685555D01*
X118219130Y-66685555D02*
X118181034Y-66647459D01*
X118866749Y-65923650D02*
X119133416Y-66723650D01*
X119133416Y-66723650D02*
X119400082Y-65923650D01*
X117647701Y-68537655D02*
X117571511Y-68499560D01*
X117571511Y-68499560D02*
X117457225Y-68499560D01*
X117457225Y-68499560D02*
X117342939Y-68537655D01*
X117342939Y-68537655D02*
X117266749Y-68613845D01*
X117266749Y-68613845D02*
X117228654Y-68690036D01*
X117228654Y-68690036D02*
X117190558Y-68842417D01*
X117190558Y-68842417D02*
X117190558Y-68956703D01*
X117190558Y-68956703D02*
X117228654Y-69109084D01*
X117228654Y-69109084D02*
X117266749Y-69185274D01*
X117266749Y-69185274D02*
X117342939Y-69261465D01*
X117342939Y-69261465D02*
X117457225Y-69299560D01*
X117457225Y-69299560D02*
X117533416Y-69299560D01*
X117533416Y-69299560D02*
X117647701Y-69261465D01*
X117647701Y-69261465D02*
X117685797Y-69223369D01*
X117685797Y-69223369D02*
X117685797Y-68956703D01*
X117685797Y-68956703D02*
X117533416Y-68956703D01*
X118028654Y-69299560D02*
X118028654Y-68499560D01*
X118028654Y-68499560D02*
X118333416Y-68499560D01*
X118333416Y-68499560D02*
X118409606Y-68537655D01*
X118409606Y-68537655D02*
X118447701Y-68575750D01*
X118447701Y-68575750D02*
X118485797Y-68651941D01*
X118485797Y-68651941D02*
X118485797Y-68766226D01*
X118485797Y-68766226D02*
X118447701Y-68842417D01*
X118447701Y-68842417D02*
X118409606Y-68880512D01*
X118409606Y-68880512D02*
X118333416Y-68918607D01*
X118333416Y-68918607D02*
X118028654Y-68918607D01*
X118828654Y-69299560D02*
X118828654Y-68499560D01*
X119361987Y-68499560D02*
X119514368Y-68499560D01*
X119514368Y-68499560D02*
X119590558Y-68537655D01*
X119590558Y-68537655D02*
X119666749Y-68613845D01*
X119666749Y-68613845D02*
X119704844Y-68766226D01*
X119704844Y-68766226D02*
X119704844Y-69032893D01*
X119704844Y-69032893D02*
X119666749Y-69185274D01*
X119666749Y-69185274D02*
X119590558Y-69261465D01*
X119590558Y-69261465D02*
X119514368Y-69299560D01*
X119514368Y-69299560D02*
X119361987Y-69299560D01*
X119361987Y-69299560D02*
X119285796Y-69261465D01*
X119285796Y-69261465D02*
X119209606Y-69185274D01*
X119209606Y-69185274D02*
X119171510Y-69032893D01*
X119171510Y-69032893D02*
X119171510Y-68766226D01*
X119171510Y-68766226D02*
X119209606Y-68613845D01*
X119209606Y-68613845D02*
X119285796Y-68537655D01*
X119285796Y-68537655D02*
X119361987Y-68499560D01*
X120466748Y-69299560D02*
X120009605Y-69299560D01*
X120238177Y-69299560D02*
X120238177Y-68499560D01*
X120238177Y-68499560D02*
X120161986Y-68613845D01*
X120161986Y-68613845D02*
X120085796Y-68690036D01*
X120085796Y-68690036D02*
X120009605Y-68728131D01*
X120771510Y-68575750D02*
X120809606Y-68537655D01*
X120809606Y-68537655D02*
X120885796Y-68499560D01*
X120885796Y-68499560D02*
X121076272Y-68499560D01*
X121076272Y-68499560D02*
X121152463Y-68537655D01*
X121152463Y-68537655D02*
X121190558Y-68575750D01*
X121190558Y-68575750D02*
X121228653Y-68651941D01*
X121228653Y-68651941D02*
X121228653Y-68728131D01*
X121228653Y-68728131D02*
X121190558Y-68842417D01*
X121190558Y-68842417D02*
X120733415Y-69299560D01*
X120733415Y-69299560D02*
X121228653Y-69299560D01*
X117647701Y-71113565D02*
X117571511Y-71075470D01*
X117571511Y-71075470D02*
X117457225Y-71075470D01*
X117457225Y-71075470D02*
X117342939Y-71113565D01*
X117342939Y-71113565D02*
X117266749Y-71189755D01*
X117266749Y-71189755D02*
X117228654Y-71265946D01*
X117228654Y-71265946D02*
X117190558Y-71418327D01*
X117190558Y-71418327D02*
X117190558Y-71532613D01*
X117190558Y-71532613D02*
X117228654Y-71684994D01*
X117228654Y-71684994D02*
X117266749Y-71761184D01*
X117266749Y-71761184D02*
X117342939Y-71837375D01*
X117342939Y-71837375D02*
X117457225Y-71875470D01*
X117457225Y-71875470D02*
X117533416Y-71875470D01*
X117533416Y-71875470D02*
X117647701Y-71837375D01*
X117647701Y-71837375D02*
X117685797Y-71799279D01*
X117685797Y-71799279D02*
X117685797Y-71532613D01*
X117685797Y-71532613D02*
X117533416Y-71532613D01*
X118028654Y-71875470D02*
X118028654Y-71075470D01*
X118028654Y-71075470D02*
X118333416Y-71075470D01*
X118333416Y-71075470D02*
X118409606Y-71113565D01*
X118409606Y-71113565D02*
X118447701Y-71151660D01*
X118447701Y-71151660D02*
X118485797Y-71227851D01*
X118485797Y-71227851D02*
X118485797Y-71342136D01*
X118485797Y-71342136D02*
X118447701Y-71418327D01*
X118447701Y-71418327D02*
X118409606Y-71456422D01*
X118409606Y-71456422D02*
X118333416Y-71494517D01*
X118333416Y-71494517D02*
X118028654Y-71494517D01*
X118828654Y-71875470D02*
X118828654Y-71075470D01*
X119361987Y-71075470D02*
X119514368Y-71075470D01*
X119514368Y-71075470D02*
X119590558Y-71113565D01*
X119590558Y-71113565D02*
X119666749Y-71189755D01*
X119666749Y-71189755D02*
X119704844Y-71342136D01*
X119704844Y-71342136D02*
X119704844Y-71608803D01*
X119704844Y-71608803D02*
X119666749Y-71761184D01*
X119666749Y-71761184D02*
X119590558Y-71837375D01*
X119590558Y-71837375D02*
X119514368Y-71875470D01*
X119514368Y-71875470D02*
X119361987Y-71875470D01*
X119361987Y-71875470D02*
X119285796Y-71837375D01*
X119285796Y-71837375D02*
X119209606Y-71761184D01*
X119209606Y-71761184D02*
X119171510Y-71608803D01*
X119171510Y-71608803D02*
X119171510Y-71342136D01*
X119171510Y-71342136D02*
X119209606Y-71189755D01*
X119209606Y-71189755D02*
X119285796Y-71113565D01*
X119285796Y-71113565D02*
X119361987Y-71075470D01*
X120466748Y-71875470D02*
X120009605Y-71875470D01*
X120238177Y-71875470D02*
X120238177Y-71075470D01*
X120238177Y-71075470D02*
X120161986Y-71189755D01*
X120161986Y-71189755D02*
X120085796Y-71265946D01*
X120085796Y-71265946D02*
X120009605Y-71304041D01*
X121152463Y-71075470D02*
X121000082Y-71075470D01*
X121000082Y-71075470D02*
X120923891Y-71113565D01*
X120923891Y-71113565D02*
X120885796Y-71151660D01*
X120885796Y-71151660D02*
X120809606Y-71265946D01*
X120809606Y-71265946D02*
X120771510Y-71418327D01*
X120771510Y-71418327D02*
X120771510Y-71723089D01*
X120771510Y-71723089D02*
X120809606Y-71799279D01*
X120809606Y-71799279D02*
X120847701Y-71837375D01*
X120847701Y-71837375D02*
X120923891Y-71875470D01*
X120923891Y-71875470D02*
X121076272Y-71875470D01*
X121076272Y-71875470D02*
X121152463Y-71837375D01*
X121152463Y-71837375D02*
X121190558Y-71799279D01*
X121190558Y-71799279D02*
X121228653Y-71723089D01*
X121228653Y-71723089D02*
X121228653Y-71532613D01*
X121228653Y-71532613D02*
X121190558Y-71456422D01*
X121190558Y-71456422D02*
X121152463Y-71418327D01*
X121152463Y-71418327D02*
X121076272Y-71380232D01*
X121076272Y-71380232D02*
X120923891Y-71380232D01*
X120923891Y-71380232D02*
X120847701Y-71418327D01*
X120847701Y-71418327D02*
X120809606Y-71456422D01*
X120809606Y-71456422D02*
X120771510Y-71532613D01*
X117647701Y-73689475D02*
X117571511Y-73651380D01*
X117571511Y-73651380D02*
X117457225Y-73651380D01*
X117457225Y-73651380D02*
X117342939Y-73689475D01*
X117342939Y-73689475D02*
X117266749Y-73765665D01*
X117266749Y-73765665D02*
X117228654Y-73841856D01*
X117228654Y-73841856D02*
X117190558Y-73994237D01*
X117190558Y-73994237D02*
X117190558Y-74108523D01*
X117190558Y-74108523D02*
X117228654Y-74260904D01*
X117228654Y-74260904D02*
X117266749Y-74337094D01*
X117266749Y-74337094D02*
X117342939Y-74413285D01*
X117342939Y-74413285D02*
X117457225Y-74451380D01*
X117457225Y-74451380D02*
X117533416Y-74451380D01*
X117533416Y-74451380D02*
X117647701Y-74413285D01*
X117647701Y-74413285D02*
X117685797Y-74375189D01*
X117685797Y-74375189D02*
X117685797Y-74108523D01*
X117685797Y-74108523D02*
X117533416Y-74108523D01*
X118028654Y-74451380D02*
X118028654Y-73651380D01*
X118028654Y-73651380D02*
X118333416Y-73651380D01*
X118333416Y-73651380D02*
X118409606Y-73689475D01*
X118409606Y-73689475D02*
X118447701Y-73727570D01*
X118447701Y-73727570D02*
X118485797Y-73803761D01*
X118485797Y-73803761D02*
X118485797Y-73918046D01*
X118485797Y-73918046D02*
X118447701Y-73994237D01*
X118447701Y-73994237D02*
X118409606Y-74032332D01*
X118409606Y-74032332D02*
X118333416Y-74070427D01*
X118333416Y-74070427D02*
X118028654Y-74070427D01*
X118828654Y-74451380D02*
X118828654Y-73651380D01*
X119361987Y-73651380D02*
X119514368Y-73651380D01*
X119514368Y-73651380D02*
X119590558Y-73689475D01*
X119590558Y-73689475D02*
X119666749Y-73765665D01*
X119666749Y-73765665D02*
X119704844Y-73918046D01*
X119704844Y-73918046D02*
X119704844Y-74184713D01*
X119704844Y-74184713D02*
X119666749Y-74337094D01*
X119666749Y-74337094D02*
X119590558Y-74413285D01*
X119590558Y-74413285D02*
X119514368Y-74451380D01*
X119514368Y-74451380D02*
X119361987Y-74451380D01*
X119361987Y-74451380D02*
X119285796Y-74413285D01*
X119285796Y-74413285D02*
X119209606Y-74337094D01*
X119209606Y-74337094D02*
X119171510Y-74184713D01*
X119171510Y-74184713D02*
X119171510Y-73918046D01*
X119171510Y-73918046D02*
X119209606Y-73765665D01*
X119209606Y-73765665D02*
X119285796Y-73689475D01*
X119285796Y-73689475D02*
X119361987Y-73651380D01*
X120009605Y-73727570D02*
X120047701Y-73689475D01*
X120047701Y-73689475D02*
X120123891Y-73651380D01*
X120123891Y-73651380D02*
X120314367Y-73651380D01*
X120314367Y-73651380D02*
X120390558Y-73689475D01*
X120390558Y-73689475D02*
X120428653Y-73727570D01*
X120428653Y-73727570D02*
X120466748Y-73803761D01*
X120466748Y-73803761D02*
X120466748Y-73879951D01*
X120466748Y-73879951D02*
X120428653Y-73994237D01*
X120428653Y-73994237D02*
X119971510Y-74451380D01*
X119971510Y-74451380D02*
X120466748Y-74451380D01*
X120961987Y-73651380D02*
X121038177Y-73651380D01*
X121038177Y-73651380D02*
X121114368Y-73689475D01*
X121114368Y-73689475D02*
X121152463Y-73727570D01*
X121152463Y-73727570D02*
X121190558Y-73803761D01*
X121190558Y-73803761D02*
X121228653Y-73956142D01*
X121228653Y-73956142D02*
X121228653Y-74146618D01*
X121228653Y-74146618D02*
X121190558Y-74298999D01*
X121190558Y-74298999D02*
X121152463Y-74375189D01*
X121152463Y-74375189D02*
X121114368Y-74413285D01*
X121114368Y-74413285D02*
X121038177Y-74451380D01*
X121038177Y-74451380D02*
X120961987Y-74451380D01*
X120961987Y-74451380D02*
X120885796Y-74413285D01*
X120885796Y-74413285D02*
X120847701Y-74375189D01*
X120847701Y-74375189D02*
X120809606Y-74298999D01*
X120809606Y-74298999D02*
X120771510Y-74146618D01*
X120771510Y-74146618D02*
X120771510Y-73956142D01*
X120771510Y-73956142D02*
X120809606Y-73803761D01*
X120809606Y-73803761D02*
X120847701Y-73727570D01*
X120847701Y-73727570D02*
X120885796Y-73689475D01*
X120885796Y-73689475D02*
X120961987Y-73651380D01*
X117647701Y-76265385D02*
X117571511Y-76227290D01*
X117571511Y-76227290D02*
X117457225Y-76227290D01*
X117457225Y-76227290D02*
X117342939Y-76265385D01*
X117342939Y-76265385D02*
X117266749Y-76341575D01*
X117266749Y-76341575D02*
X117228654Y-76417766D01*
X117228654Y-76417766D02*
X117190558Y-76570147D01*
X117190558Y-76570147D02*
X117190558Y-76684433D01*
X117190558Y-76684433D02*
X117228654Y-76836814D01*
X117228654Y-76836814D02*
X117266749Y-76913004D01*
X117266749Y-76913004D02*
X117342939Y-76989195D01*
X117342939Y-76989195D02*
X117457225Y-77027290D01*
X117457225Y-77027290D02*
X117533416Y-77027290D01*
X117533416Y-77027290D02*
X117647701Y-76989195D01*
X117647701Y-76989195D02*
X117685797Y-76951099D01*
X117685797Y-76951099D02*
X117685797Y-76684433D01*
X117685797Y-76684433D02*
X117533416Y-76684433D01*
X118028654Y-77027290D02*
X118028654Y-76227290D01*
X118028654Y-76227290D02*
X118333416Y-76227290D01*
X118333416Y-76227290D02*
X118409606Y-76265385D01*
X118409606Y-76265385D02*
X118447701Y-76303480D01*
X118447701Y-76303480D02*
X118485797Y-76379671D01*
X118485797Y-76379671D02*
X118485797Y-76493956D01*
X118485797Y-76493956D02*
X118447701Y-76570147D01*
X118447701Y-76570147D02*
X118409606Y-76608242D01*
X118409606Y-76608242D02*
X118333416Y-76646337D01*
X118333416Y-76646337D02*
X118028654Y-76646337D01*
X118828654Y-77027290D02*
X118828654Y-76227290D01*
X119361987Y-76227290D02*
X119514368Y-76227290D01*
X119514368Y-76227290D02*
X119590558Y-76265385D01*
X119590558Y-76265385D02*
X119666749Y-76341575D01*
X119666749Y-76341575D02*
X119704844Y-76493956D01*
X119704844Y-76493956D02*
X119704844Y-76760623D01*
X119704844Y-76760623D02*
X119666749Y-76913004D01*
X119666749Y-76913004D02*
X119590558Y-76989195D01*
X119590558Y-76989195D02*
X119514368Y-77027290D01*
X119514368Y-77027290D02*
X119361987Y-77027290D01*
X119361987Y-77027290D02*
X119285796Y-76989195D01*
X119285796Y-76989195D02*
X119209606Y-76913004D01*
X119209606Y-76913004D02*
X119171510Y-76760623D01*
X119171510Y-76760623D02*
X119171510Y-76493956D01*
X119171510Y-76493956D02*
X119209606Y-76341575D01*
X119209606Y-76341575D02*
X119285796Y-76265385D01*
X119285796Y-76265385D02*
X119361987Y-76227290D01*
X120009605Y-76303480D02*
X120047701Y-76265385D01*
X120047701Y-76265385D02*
X120123891Y-76227290D01*
X120123891Y-76227290D02*
X120314367Y-76227290D01*
X120314367Y-76227290D02*
X120390558Y-76265385D01*
X120390558Y-76265385D02*
X120428653Y-76303480D01*
X120428653Y-76303480D02*
X120466748Y-76379671D01*
X120466748Y-76379671D02*
X120466748Y-76455861D01*
X120466748Y-76455861D02*
X120428653Y-76570147D01*
X120428653Y-76570147D02*
X119971510Y-77027290D01*
X119971510Y-77027290D02*
X120466748Y-77027290D01*
X121228653Y-77027290D02*
X120771510Y-77027290D01*
X121000082Y-77027290D02*
X121000082Y-76227290D01*
X121000082Y-76227290D02*
X120923891Y-76341575D01*
X120923891Y-76341575D02*
X120847701Y-76417766D01*
X120847701Y-76417766D02*
X120771510Y-76455861D01*
X117647701Y-78841295D02*
X117571511Y-78803200D01*
X117571511Y-78803200D02*
X117457225Y-78803200D01*
X117457225Y-78803200D02*
X117342939Y-78841295D01*
X117342939Y-78841295D02*
X117266749Y-78917485D01*
X117266749Y-78917485D02*
X117228654Y-78993676D01*
X117228654Y-78993676D02*
X117190558Y-79146057D01*
X117190558Y-79146057D02*
X117190558Y-79260343D01*
X117190558Y-79260343D02*
X117228654Y-79412724D01*
X117228654Y-79412724D02*
X117266749Y-79488914D01*
X117266749Y-79488914D02*
X117342939Y-79565105D01*
X117342939Y-79565105D02*
X117457225Y-79603200D01*
X117457225Y-79603200D02*
X117533416Y-79603200D01*
X117533416Y-79603200D02*
X117647701Y-79565105D01*
X117647701Y-79565105D02*
X117685797Y-79527009D01*
X117685797Y-79527009D02*
X117685797Y-79260343D01*
X117685797Y-79260343D02*
X117533416Y-79260343D01*
X118028654Y-79603200D02*
X118028654Y-78803200D01*
X118028654Y-78803200D02*
X118485797Y-79603200D01*
X118485797Y-79603200D02*
X118485797Y-78803200D01*
X118866749Y-79603200D02*
X118866749Y-78803200D01*
X118866749Y-78803200D02*
X119057225Y-78803200D01*
X119057225Y-78803200D02*
X119171511Y-78841295D01*
X119171511Y-78841295D02*
X119247701Y-78917485D01*
X119247701Y-78917485D02*
X119285796Y-78993676D01*
X119285796Y-78993676D02*
X119323892Y-79146057D01*
X119323892Y-79146057D02*
X119323892Y-79260343D01*
X119323892Y-79260343D02*
X119285796Y-79412724D01*
X119285796Y-79412724D02*
X119247701Y-79488914D01*
X119247701Y-79488914D02*
X119171511Y-79565105D01*
X119171511Y-79565105D02*
X119057225Y-79603200D01*
X119057225Y-79603200D02*
X118866749Y-79603200D01*
X116306600Y-64008000D02*
X125450600Y-64008000D01*
X125450600Y-80645000D01*
X116306600Y-80645000D01*
X116306600Y-64008000D01*
D14*
X108586667Y-92564295D02*
X108320000Y-92183342D01*
X108129524Y-92564295D02*
X108129524Y-91764295D01*
X108129524Y-91764295D02*
X108434286Y-91764295D01*
X108434286Y-91764295D02*
X108510476Y-91802390D01*
X108510476Y-91802390D02*
X108548571Y-91840485D01*
X108548571Y-91840485D02*
X108586667Y-91916676D01*
X108586667Y-91916676D02*
X108586667Y-92030961D01*
X108586667Y-92030961D02*
X108548571Y-92107152D01*
X108548571Y-92107152D02*
X108510476Y-92145247D01*
X108510476Y-92145247D02*
X108434286Y-92183342D01*
X108434286Y-92183342D02*
X108129524Y-92183342D01*
X109272381Y-92030961D02*
X109272381Y-92564295D01*
X109081905Y-91726200D02*
X108891428Y-92297628D01*
X108891428Y-92297628D02*
X109386667Y-92297628D01*
X122803809Y-101698485D02*
X122727619Y-101660390D01*
X122727619Y-101660390D02*
X122651428Y-101584200D01*
X122651428Y-101584200D02*
X122537142Y-101469914D01*
X122537142Y-101469914D02*
X122460952Y-101431819D01*
X122460952Y-101431819D02*
X122384761Y-101431819D01*
X122422857Y-101622295D02*
X122346666Y-101584200D01*
X122346666Y-101584200D02*
X122270476Y-101508009D01*
X122270476Y-101508009D02*
X122232380Y-101355628D01*
X122232380Y-101355628D02*
X122232380Y-101088961D01*
X122232380Y-101088961D02*
X122270476Y-100936580D01*
X122270476Y-100936580D02*
X122346666Y-100860390D01*
X122346666Y-100860390D02*
X122422857Y-100822295D01*
X122422857Y-100822295D02*
X122575238Y-100822295D01*
X122575238Y-100822295D02*
X122651428Y-100860390D01*
X122651428Y-100860390D02*
X122727619Y-100936580D01*
X122727619Y-100936580D02*
X122765714Y-101088961D01*
X122765714Y-101088961D02*
X122765714Y-101355628D01*
X122765714Y-101355628D02*
X122727619Y-101508009D01*
X122727619Y-101508009D02*
X122651428Y-101584200D01*
X122651428Y-101584200D02*
X122575238Y-101622295D01*
X122575238Y-101622295D02*
X122422857Y-101622295D01*
X123527618Y-101622295D02*
X123070475Y-101622295D01*
X123299047Y-101622295D02*
X123299047Y-100822295D01*
X123299047Y-100822295D02*
X123222856Y-100936580D01*
X123222856Y-100936580D02*
X123146666Y-101012771D01*
X123146666Y-101012771D02*
X123070475Y-101050866D01*
X108670476Y-79712295D02*
X108670476Y-80359914D01*
X108670476Y-80359914D02*
X108708571Y-80436104D01*
X108708571Y-80436104D02*
X108746666Y-80474200D01*
X108746666Y-80474200D02*
X108822857Y-80512295D01*
X108822857Y-80512295D02*
X108975238Y-80512295D01*
X108975238Y-80512295D02*
X109051428Y-80474200D01*
X109051428Y-80474200D02*
X109089523Y-80436104D01*
X109089523Y-80436104D02*
X109127619Y-80359914D01*
X109127619Y-80359914D02*
X109127619Y-79712295D01*
X109927618Y-80512295D02*
X109470475Y-80512295D01*
X109699047Y-80512295D02*
X109699047Y-79712295D01*
X109699047Y-79712295D02*
X109622856Y-79826580D01*
X109622856Y-79826580D02*
X109546666Y-79902771D01*
X109546666Y-79902771D02*
X109470475Y-79940866D01*
X118316667Y-101312295D02*
X118050000Y-100931342D01*
X117859524Y-101312295D02*
X117859524Y-100512295D01*
X117859524Y-100512295D02*
X118164286Y-100512295D01*
X118164286Y-100512295D02*
X118240476Y-100550390D01*
X118240476Y-100550390D02*
X118278571Y-100588485D01*
X118278571Y-100588485D02*
X118316667Y-100664676D01*
X118316667Y-100664676D02*
X118316667Y-100778961D01*
X118316667Y-100778961D02*
X118278571Y-100855152D01*
X118278571Y-100855152D02*
X118240476Y-100893247D01*
X118240476Y-100893247D02*
X118164286Y-100931342D01*
X118164286Y-100931342D02*
X117859524Y-100931342D01*
X119078571Y-101312295D02*
X118621428Y-101312295D01*
X118850000Y-101312295D02*
X118850000Y-100512295D01*
X118850000Y-100512295D02*
X118773809Y-100626580D01*
X118773809Y-100626580D02*
X118697619Y-100702771D01*
X118697619Y-100702771D02*
X118621428Y-100740866D01*
X106156667Y-65328295D02*
X105890000Y-64947342D01*
X105699524Y-65328295D02*
X105699524Y-64528295D01*
X105699524Y-64528295D02*
X106004286Y-64528295D01*
X106004286Y-64528295D02*
X106080476Y-64566390D01*
X106080476Y-64566390D02*
X106118571Y-64604485D01*
X106118571Y-64604485D02*
X106156667Y-64680676D01*
X106156667Y-64680676D02*
X106156667Y-64794961D01*
X106156667Y-64794961D02*
X106118571Y-64871152D01*
X106118571Y-64871152D02*
X106080476Y-64909247D01*
X106080476Y-64909247D02*
X106004286Y-64947342D01*
X106004286Y-64947342D02*
X105699524Y-64947342D01*
X106842381Y-64528295D02*
X106690000Y-64528295D01*
X106690000Y-64528295D02*
X106613809Y-64566390D01*
X106613809Y-64566390D02*
X106575714Y-64604485D01*
X106575714Y-64604485D02*
X106499524Y-64718771D01*
X106499524Y-64718771D02*
X106461428Y-64871152D01*
X106461428Y-64871152D02*
X106461428Y-65175914D01*
X106461428Y-65175914D02*
X106499524Y-65252104D01*
X106499524Y-65252104D02*
X106537619Y-65290200D01*
X106537619Y-65290200D02*
X106613809Y-65328295D01*
X106613809Y-65328295D02*
X106766190Y-65328295D01*
X106766190Y-65328295D02*
X106842381Y-65290200D01*
X106842381Y-65290200D02*
X106880476Y-65252104D01*
X106880476Y-65252104D02*
X106918571Y-65175914D01*
X106918571Y-65175914D02*
X106918571Y-64985438D01*
X106918571Y-64985438D02*
X106880476Y-64909247D01*
X106880476Y-64909247D02*
X106842381Y-64871152D01*
X106842381Y-64871152D02*
X106766190Y-64833057D01*
X106766190Y-64833057D02*
X106613809Y-64833057D01*
X106613809Y-64833057D02*
X106537619Y-64871152D01*
X106537619Y-64871152D02*
X106499524Y-64909247D01*
X106499524Y-64909247D02*
X106461428Y-64985438D01*
X113946667Y-92564295D02*
X113680000Y-92183342D01*
X113489524Y-92564295D02*
X113489524Y-91764295D01*
X113489524Y-91764295D02*
X113794286Y-91764295D01*
X113794286Y-91764295D02*
X113870476Y-91802390D01*
X113870476Y-91802390D02*
X113908571Y-91840485D01*
X113908571Y-91840485D02*
X113946667Y-91916676D01*
X113946667Y-91916676D02*
X113946667Y-92030961D01*
X113946667Y-92030961D02*
X113908571Y-92107152D01*
X113908571Y-92107152D02*
X113870476Y-92145247D01*
X113870476Y-92145247D02*
X113794286Y-92183342D01*
X113794286Y-92183342D02*
X113489524Y-92183342D01*
X114213333Y-91764295D02*
X114708571Y-91764295D01*
X114708571Y-91764295D02*
X114441905Y-92069057D01*
X114441905Y-92069057D02*
X114556190Y-92069057D01*
X114556190Y-92069057D02*
X114632381Y-92107152D01*
X114632381Y-92107152D02*
X114670476Y-92145247D01*
X114670476Y-92145247D02*
X114708571Y-92221438D01*
X114708571Y-92221438D02*
X114708571Y-92411914D01*
X114708571Y-92411914D02*
X114670476Y-92488104D01*
X114670476Y-92488104D02*
X114632381Y-92526200D01*
X114632381Y-92526200D02*
X114556190Y-92564295D01*
X114556190Y-92564295D02*
X114327619Y-92564295D01*
X114327619Y-92564295D02*
X114251428Y-92526200D01*
X114251428Y-92526200D02*
X114213333Y-92488104D01*
X103896667Y-65308295D02*
X103630000Y-64927342D01*
X103439524Y-65308295D02*
X103439524Y-64508295D01*
X103439524Y-64508295D02*
X103744286Y-64508295D01*
X103744286Y-64508295D02*
X103820476Y-64546390D01*
X103820476Y-64546390D02*
X103858571Y-64584485D01*
X103858571Y-64584485D02*
X103896667Y-64660676D01*
X103896667Y-64660676D02*
X103896667Y-64774961D01*
X103896667Y-64774961D02*
X103858571Y-64851152D01*
X103858571Y-64851152D02*
X103820476Y-64889247D01*
X103820476Y-64889247D02*
X103744286Y-64927342D01*
X103744286Y-64927342D02*
X103439524Y-64927342D01*
X104620476Y-64508295D02*
X104239524Y-64508295D01*
X104239524Y-64508295D02*
X104201428Y-64889247D01*
X104201428Y-64889247D02*
X104239524Y-64851152D01*
X104239524Y-64851152D02*
X104315714Y-64813057D01*
X104315714Y-64813057D02*
X104506190Y-64813057D01*
X104506190Y-64813057D02*
X104582381Y-64851152D01*
X104582381Y-64851152D02*
X104620476Y-64889247D01*
X104620476Y-64889247D02*
X104658571Y-64965438D01*
X104658571Y-64965438D02*
X104658571Y-65155914D01*
X104658571Y-65155914D02*
X104620476Y-65232104D01*
X104620476Y-65232104D02*
X104582381Y-65270200D01*
X104582381Y-65270200D02*
X104506190Y-65308295D01*
X104506190Y-65308295D02*
X104315714Y-65308295D01*
X104315714Y-65308295D02*
X104239524Y-65270200D01*
X104239524Y-65270200D02*
X104201428Y-65232104D01*
X118306667Y-106582295D02*
X118040000Y-106201342D01*
X117849524Y-106582295D02*
X117849524Y-105782295D01*
X117849524Y-105782295D02*
X118154286Y-105782295D01*
X118154286Y-105782295D02*
X118230476Y-105820390D01*
X118230476Y-105820390D02*
X118268571Y-105858485D01*
X118268571Y-105858485D02*
X118306667Y-105934676D01*
X118306667Y-105934676D02*
X118306667Y-106048961D01*
X118306667Y-106048961D02*
X118268571Y-106125152D01*
X118268571Y-106125152D02*
X118230476Y-106163247D01*
X118230476Y-106163247D02*
X118154286Y-106201342D01*
X118154286Y-106201342D02*
X117849524Y-106201342D01*
X118611428Y-105858485D02*
X118649524Y-105820390D01*
X118649524Y-105820390D02*
X118725714Y-105782295D01*
X118725714Y-105782295D02*
X118916190Y-105782295D01*
X118916190Y-105782295D02*
X118992381Y-105820390D01*
X118992381Y-105820390D02*
X119030476Y-105858485D01*
X119030476Y-105858485D02*
X119068571Y-105934676D01*
X119068571Y-105934676D02*
X119068571Y-106010866D01*
X119068571Y-106010866D02*
X119030476Y-106125152D01*
X119030476Y-106125152D02*
X118573333Y-106582295D01*
X118573333Y-106582295D02*
X119068571Y-106582295D01*
D11*
X84070000Y-56480000D02*
X84070000Y-59080000D01*
X84070000Y-59080000D02*
X86670000Y-59080000D01*
X84070000Y-60350000D02*
X84070000Y-61680000D01*
X84070000Y-61680000D02*
X85400000Y-61680000D01*
X86670000Y-59080000D02*
X86670000Y-61680000D01*
X134990000Y-56480000D02*
X84070000Y-56480000D01*
X134990000Y-56480000D02*
X134990000Y-61680000D01*
X134990000Y-61680000D02*
X86670000Y-61680000D01*
X108482936Y-89905000D02*
X108937064Y-89905000D01*
X108482936Y-91375000D02*
X108937064Y-91375000D01*
X88830000Y-99060000D02*
G75*
G02*
X86430000Y-99060000I-1200000J0D01*
G01*
X86430000Y-99060000D02*
G75*
G02*
X88830000Y-99060000I1200000J0D01*
G01*
X88830000Y-101600000D02*
G75*
G02*
X86430000Y-101600000I-1200000J0D01*
G01*
X86430000Y-101600000D02*
G75*
G02*
X88830000Y-101600000I1200000J0D01*
G01*
X98990000Y-96520000D02*
G75*
G02*
X96590000Y-96520000I-1200000J0D01*
G01*
X96590000Y-96520000D02*
G75*
G02*
X98990000Y-96520000I1200000J0D01*
G01*
X93910000Y-88519000D02*
G75*
G02*
X91510000Y-88519000I-1200000J0D01*
G01*
X91510000Y-88519000D02*
G75*
G02*
X93910000Y-88519000I1200000J0D01*
G01*
X96450000Y-96520000D02*
G75*
G02*
X94050000Y-96520000I-1200000J0D01*
G01*
X94050000Y-96520000D02*
G75*
G02*
X96450000Y-96520000I1200000J0D01*
G01*
X122882500Y-101980000D02*
X122232500Y-101980000D01*
X122882500Y-101980000D02*
X123532500Y-101980000D01*
X122882500Y-105100000D02*
X122232500Y-105100000D01*
X122882500Y-105100000D02*
X123532500Y-105100000D01*
X121720000Y-102030000D02*
X121480000Y-101700000D01*
X121960000Y-101700000D01*
X121720000Y-102030000D01*
G36*
X121720000Y-102030000D02*
G01*
X121480000Y-101700000D01*
X121960000Y-101700000D01*
X121720000Y-102030000D01*
G37*
X83750000Y-99060000D02*
G75*
G02*
X81350000Y-99060000I-1200000J0D01*
G01*
X81350000Y-99060000D02*
G75*
G02*
X83750000Y-99060000I1200000J0D01*
G01*
X96450000Y-88519000D02*
G75*
G02*
X94050000Y-88519000I-1200000J0D01*
G01*
X94050000Y-88519000D02*
G75*
G02*
X96450000Y-88519000I1200000J0D01*
G01*
X91370000Y-91059000D02*
G75*
G02*
X88970000Y-91059000I-1200000J0D01*
G01*
X88970000Y-91059000D02*
G75*
G02*
X91370000Y-91059000I1200000J0D01*
G01*
X91370000Y-93980000D02*
G75*
G02*
X88970000Y-93980000I-1200000J0D01*
G01*
X88970000Y-93980000D02*
G75*
G02*
X91370000Y-93980000I1200000J0D01*
G01*
X106620800Y-80889800D02*
X106620800Y-88629800D01*
X106620800Y-88629800D02*
X108270800Y-88629800D01*
X110270800Y-88629800D02*
X111920800Y-88629800D01*
X111920800Y-80889800D02*
X106620800Y-80889800D01*
X111920800Y-88629800D02*
X111920800Y-80889800D01*
X108270800Y-88629800D02*
G75*
G02*
X110270800Y-88629800I1000000J0D01*
G01*
X118222936Y-101705000D02*
X118677064Y-101705000D01*
X118222936Y-103175000D02*
X118677064Y-103175000D01*
X88830000Y-93980000D02*
G75*
G02*
X86430000Y-93980000I-1200000J0D01*
G01*
X86430000Y-93980000D02*
G75*
G02*
X88830000Y-93980000I1200000J0D01*
G01*
X83750000Y-93980000D02*
G75*
G02*
X81350000Y-93980000I-1200000J0D01*
G01*
X81350000Y-93980000D02*
G75*
G02*
X83750000Y-93980000I1200000J0D01*
G01*
X91370000Y-96520000D02*
G75*
G02*
X88970000Y-96520000I-1200000J0D01*
G01*
X88970000Y-96520000D02*
G75*
G02*
X91370000Y-96520000I1200000J0D01*
G01*
X80482600Y-76175600D02*
X86482600Y-76175600D01*
X80482600Y-76935600D02*
X80482600Y-76175600D01*
X80482600Y-78715600D02*
X86482600Y-78715600D01*
X80482600Y-79475600D02*
X80482600Y-78715600D01*
X80482600Y-81255600D02*
X86482600Y-81255600D01*
X80482600Y-82015600D02*
X80482600Y-81255600D01*
X86482600Y-75225600D02*
X86482600Y-82965600D01*
X86482600Y-76935600D02*
X80482600Y-76935600D01*
X86482600Y-79475600D02*
X80482600Y-79475600D01*
X86482600Y-81355600D02*
X80482600Y-81355600D01*
X86482600Y-81475600D02*
X80482600Y-81475600D01*
X86482600Y-81595600D02*
X80482600Y-81595600D01*
X86482600Y-81715600D02*
X80482600Y-81715600D01*
X86482600Y-81835600D02*
X80482600Y-81835600D01*
X86482600Y-81955600D02*
X80482600Y-81955600D01*
X86482600Y-82015600D02*
X80482600Y-82015600D01*
X86482600Y-82965600D02*
X89142600Y-82965600D01*
X89142600Y-75225600D02*
X86482600Y-75225600D01*
X89142600Y-77825600D02*
X86482600Y-77825600D01*
X89142600Y-80365600D02*
X86482600Y-80365600D01*
X89142600Y-82965600D02*
X89142600Y-75225600D01*
X89472600Y-81255600D02*
X89142600Y-81255600D01*
X89472600Y-82015600D02*
X89142600Y-82015600D01*
X89539671Y-76175600D02*
X89142600Y-76175600D01*
X89539671Y-76935600D02*
X89142600Y-76935600D01*
X89539671Y-78715600D02*
X89142600Y-78715600D01*
X89539671Y-79475600D02*
X89142600Y-79475600D01*
X91852600Y-81635600D02*
X91852600Y-82905600D01*
X91852600Y-82905600D02*
X90582600Y-82905600D01*
X93910000Y-93980000D02*
G75*
G02*
X91510000Y-93980000I-1200000J0D01*
G01*
X91510000Y-93980000D02*
G75*
G02*
X93910000Y-93980000I1200000J0D01*
G01*
X126536600Y-94635400D02*
X127806600Y-94635400D01*
X126536600Y-95905400D02*
X126536600Y-94635400D01*
X128849529Y-98065400D02*
X129246600Y-98065400D01*
X128849529Y-98825400D02*
X129246600Y-98825400D01*
X128916600Y-95525400D02*
X129246600Y-95525400D01*
X128916600Y-96285400D02*
X129246600Y-96285400D01*
X129246600Y-94575400D02*
X129246600Y-99775400D01*
X129246600Y-97175400D02*
X131906600Y-97175400D01*
X129246600Y-99775400D02*
X131906600Y-99775400D01*
X131906600Y-94575400D02*
X129246600Y-94575400D01*
X131906600Y-95525400D02*
X137906600Y-95525400D01*
X131906600Y-95585400D02*
X137906600Y-95585400D01*
X131906600Y-95705400D02*
X137906600Y-95705400D01*
X131906600Y-95825400D02*
X137906600Y-95825400D01*
X131906600Y-95945400D02*
X137906600Y-95945400D01*
X131906600Y-96065400D02*
X137906600Y-96065400D01*
X131906600Y-96185400D02*
X137906600Y-96185400D01*
X131906600Y-98065400D02*
X137906600Y-98065400D01*
X131906600Y-99775400D02*
X131906600Y-94575400D01*
X137906600Y-95525400D02*
X137906600Y-96285400D01*
X137906600Y-96285400D02*
X131906600Y-96285400D01*
X137906600Y-98065400D02*
X137906600Y-98825400D01*
X137906600Y-98825400D02*
X131906600Y-98825400D01*
X105565000Y-67523064D02*
X105565000Y-67068936D01*
X107035000Y-67523064D02*
X107035000Y-67068936D01*
X93910000Y-91059000D02*
G75*
G02*
X91510000Y-91059000I-1200000J0D01*
G01*
X91510000Y-91059000D02*
G75*
G02*
X93910000Y-91059000I1200000J0D01*
G01*
X83750000Y-101600000D02*
G75*
G02*
X81350000Y-101600000I-1200000J0D01*
G01*
X81350000Y-101600000D02*
G75*
G02*
X83750000Y-101600000I1200000J0D01*
G01*
X88830000Y-91059000D02*
G75*
G02*
X86430000Y-91059000I-1200000J0D01*
G01*
X86430000Y-91059000D02*
G75*
G02*
X88830000Y-91059000I1200000J0D01*
G01*
X83750000Y-91059000D02*
G75*
G02*
X81350000Y-91059000I-1200000J0D01*
G01*
X81350000Y-91059000D02*
G75*
G02*
X83750000Y-91059000I1200000J0D01*
G01*
X96450000Y-101600000D02*
G75*
G02*
X94050000Y-101600000I-1200000J0D01*
G01*
X94050000Y-101600000D02*
G75*
G02*
X96450000Y-101600000I1200000J0D01*
G01*
X93910000Y-101600000D02*
G75*
G02*
X91510000Y-101600000I-1200000J0D01*
G01*
X91510000Y-101600000D02*
G75*
G02*
X93910000Y-101600000I1200000J0D01*
G01*
X91370000Y-99060000D02*
G75*
G02*
X88970000Y-99060000I-1200000J0D01*
G01*
X88970000Y-99060000D02*
G75*
G02*
X91370000Y-99060000I1200000J0D01*
G01*
X86290000Y-101600000D02*
G75*
G02*
X83890000Y-101600000I-1200000J0D01*
G01*
X83890000Y-101600000D02*
G75*
G02*
X86290000Y-101600000I1200000J0D01*
G01*
X88830000Y-88519000D02*
G75*
G02*
X86430000Y-88519000I-1200000J0D01*
G01*
X86430000Y-88519000D02*
G75*
G02*
X88830000Y-88519000I1200000J0D01*
G01*
X91370000Y-88519000D02*
G75*
G02*
X88970000Y-88519000I-1200000J0D01*
G01*
X88970000Y-88519000D02*
G75*
G02*
X91370000Y-88519000I1200000J0D01*
G01*
X98990000Y-93980000D02*
G75*
G02*
X96590000Y-93980000I-1200000J0D01*
G01*
X96590000Y-93980000D02*
G75*
G02*
X98990000Y-93980000I1200000J0D01*
G01*
X98990000Y-99060000D02*
G75*
G02*
X96590000Y-99060000I-1200000J0D01*
G01*
X96590000Y-99060000D02*
G75*
G02*
X98990000Y-99060000I1200000J0D01*
G01*
X86290000Y-93980000D02*
G75*
G02*
X83890000Y-93980000I-1200000J0D01*
G01*
X83890000Y-93980000D02*
G75*
G02*
X86290000Y-93980000I1200000J0D01*
G01*
X93910000Y-99060000D02*
G75*
G02*
X91510000Y-99060000I-1200000J0D01*
G01*
X91510000Y-99060000D02*
G75*
G02*
X93910000Y-99060000I1200000J0D01*
G01*
X114307064Y-89895000D02*
X113852936Y-89895000D01*
X114307064Y-91365000D02*
X113852936Y-91365000D01*
X93910000Y-96520000D02*
G75*
G02*
X91510000Y-96520000I-1200000J0D01*
G01*
X91510000Y-96520000D02*
G75*
G02*
X93910000Y-96520000I1200000J0D01*
G01*
D15*
G36*
X108704282Y-95708901D02*
G01*
X108838101Y-95924271D01*
X108889298Y-96122361D01*
X108831722Y-96334706D01*
X108704282Y-96535821D01*
X108519265Y-96746221D01*
X108580889Y-96523414D01*
X108629694Y-96277221D01*
X108642513Y-96122361D01*
X108618404Y-95894026D01*
X108580889Y-95721309D01*
X108519265Y-95498502D01*
X108704282Y-95708901D01*
G37*
G36*
X107707438Y-95596286D02*
G01*
X107692921Y-95739964D01*
X107644641Y-95849271D01*
X107573066Y-96052295D01*
X107591435Y-96276250D01*
X107685564Y-96545695D01*
X107706826Y-96676366D01*
X107640291Y-96688197D01*
X107527025Y-96585496D01*
X107484772Y-96524623D01*
X107387557Y-96228352D01*
X107408329Y-95903856D01*
X107509808Y-95683253D01*
X107638277Y-95567380D01*
X107707438Y-95596286D01*
G37*
G36*
X107367252Y-95434494D02*
G01*
X107285261Y-95608585D01*
X107171654Y-95862230D01*
X107110331Y-96080278D01*
X107106842Y-96122361D01*
X107147952Y-96314241D01*
X107250171Y-96567131D01*
X107285261Y-96636137D01*
X107387256Y-96851057D01*
X107393300Y-96950797D01*
X107339977Y-96969028D01*
X107226749Y-96895365D01*
X107096936Y-96711878D01*
X107062365Y-96644688D01*
X106960162Y-96278914D01*
X106966621Y-95894995D01*
X107076260Y-95561855D01*
X107157664Y-95447023D01*
X107320152Y-95298410D01*
X107392796Y-95297755D01*
X107367252Y-95434494D01*
G37*
G36*
X109068523Y-95433291D02*
G01*
X109072370Y-95438019D01*
X109266841Y-95810194D01*
X109297642Y-96221940D01*
X109188139Y-96581527D01*
X109059547Y-96798518D01*
X108940063Y-96933595D01*
X108911579Y-96949320D01*
X108809328Y-96961018D01*
X108800176Y-96950738D01*
X108836928Y-96858552D01*
X108929527Y-96665154D01*
X108978421Y-96567975D01*
X109103590Y-96303729D01*
X109143462Y-96116556D01*
X109098159Y-95927083D01*
X108979769Y-95679390D01*
X108873671Y-95430585D01*
X108857312Y-95295648D01*
X108924369Y-95291058D01*
X109068523Y-95433291D01*
G37*
G36*
X109296227Y-95013203D02*
G01*
X109537450Y-95316698D01*
X109690986Y-95722048D01*
X109740561Y-96167790D01*
X109693794Y-96514535D01*
X109614452Y-96722822D01*
X109496355Y-96943080D01*
X109365974Y-97138190D01*
X109249779Y-97271037D01*
X109174238Y-97304504D01*
X109159483Y-97263771D01*
X109200153Y-97124344D01*
X109304852Y-96908606D01*
X109342339Y-96842771D01*
X109490912Y-96450848D01*
X109528012Y-96122361D01*
X109463891Y-95689035D01*
X109342339Y-95401952D01*
X109205949Y-95142029D01*
X109160798Y-94987970D01*
X109208833Y-94956182D01*
X109296227Y-95013203D01*
G37*
G36*
X107102300Y-95002519D02*
G01*
X107069295Y-95126896D01*
X106934242Y-95333320D01*
X106933117Y-95334752D01*
X106809952Y-95564198D01*
X106716159Y-95865065D01*
X106699622Y-95954177D01*
X106679546Y-96233013D01*
X106727903Y-96480192D01*
X106862192Y-96781189D01*
X106873348Y-96802796D01*
X107015978Y-97081986D01*
X107086008Y-97238762D01*
X107094589Y-97308053D01*
X107052870Y-97324790D01*
X107040000Y-97324910D01*
X106952744Y-97257527D01*
X106815226Y-97089681D01*
X106764883Y-97018438D01*
X106573065Y-96604946D01*
X106504191Y-96145568D01*
X106555115Y-95691416D01*
X106722693Y-95293606D01*
X106883034Y-95098390D01*
X107038474Y-94984811D01*
X107102300Y-95002519D01*
G37*
G36*
X108294454Y-95791027D02*
G01*
X108462787Y-95934542D01*
X108489697Y-95993248D01*
X108484154Y-96216760D01*
X108406514Y-96390958D01*
X108338366Y-96545275D01*
X108294722Y-96780804D01*
X108271713Y-97130440D01*
X108265439Y-97589752D01*
X108265439Y-98573238D01*
X108559799Y-98573238D01*
X108854159Y-98573238D01*
X109721570Y-102115870D01*
X109908954Y-102883062D01*
X110082279Y-103596341D01*
X110237100Y-104237141D01*
X110368971Y-104786895D01*
X110473447Y-105227035D01*
X110546082Y-105538994D01*
X110582429Y-105704206D01*
X110585807Y-105725344D01*
X110514697Y-105791166D01*
X110500328Y-105792186D01*
X110449778Y-105710629D01*
X110372509Y-105488406D01*
X110278922Y-105159186D01*
X110179425Y-104756640D01*
X110176736Y-104744993D01*
X110080576Y-104336666D01*
X109996406Y-103995900D01*
X109933213Y-103757967D01*
X109899983Y-103658141D01*
X109899758Y-103657874D01*
X109827126Y-103701683D01*
X109654389Y-103850057D01*
X109406431Y-104080488D01*
X109108141Y-104370463D01*
X109069207Y-104409127D01*
X108707545Y-104779708D01*
X108463228Y-105058343D01*
X108317966Y-105268738D01*
X108253469Y-105434596D01*
X108247612Y-105473964D01*
X108193866Y-105688660D01*
X108113600Y-105735728D01*
X108040790Y-105615153D01*
X108015905Y-105474068D01*
X107971396Y-105320855D01*
X107853662Y-105129855D01*
X107644776Y-104878098D01*
X107326809Y-104542615D01*
X107150631Y-104365451D01*
X106767232Y-103994638D01*
X106494642Y-103756700D01*
X106328695Y-103648303D01*
X106267111Y-103658657D01*
X106227996Y-103794484D01*
X106157399Y-104061454D01*
X106066260Y-104417585D01*
X105989821Y-104722712D01*
X105868619Y-105179911D01*
X105762564Y-105520413D01*
X105677390Y-105730640D01*
X105618829Y-105797015D01*
X105592614Y-105705959D01*
X105591755Y-105665520D01*
X105598965Y-105605719D01*
X105622353Y-105487437D01*
X105664551Y-105300226D01*
X105728191Y-105033639D01*
X105815906Y-104677228D01*
X105930329Y-104220545D01*
X106074092Y-103653144D01*
X106142647Y-103384535D01*
X106441029Y-103384535D01*
X107197269Y-104145001D01*
X107953509Y-104905466D01*
X107998070Y-103410405D01*
X108011369Y-102913126D01*
X108020031Y-102480985D01*
X108023686Y-102144149D01*
X108021964Y-101932788D01*
X108020797Y-101919279D01*
X108265439Y-101919279D01*
X108265439Y-103410118D01*
X108266809Y-103903088D01*
X108270604Y-104327276D01*
X108276350Y-104653507D01*
X108283570Y-104852609D01*
X108289687Y-104900958D01*
X108358143Y-104841693D01*
X108526252Y-104680501D01*
X108768423Y-104442281D01*
X109047284Y-104163780D01*
X109780633Y-103426602D01*
X109023036Y-102672940D01*
X108265439Y-101919279D01*
X108020797Y-101919279D01*
X108016956Y-101874814D01*
X107948280Y-101918246D01*
X107779537Y-102066180D01*
X107535501Y-102295891D01*
X107240946Y-102584652D01*
X107216154Y-102609410D01*
X106441029Y-103384535D01*
X106142647Y-103384535D01*
X106200792Y-103156712D01*
X106398937Y-103156712D01*
X107174219Y-102381430D01*
X107949501Y-101606148D01*
X107945791Y-101602381D01*
X108224032Y-101602381D01*
X108933346Y-102315880D01*
X109221146Y-102600410D01*
X109463837Y-102831055D01*
X109633918Y-102982277D01*
X109701834Y-103029379D01*
X109704454Y-102948678D01*
X109668342Y-102728656D01*
X109599875Y-102402438D01*
X109505430Y-102003145D01*
X109500222Y-101982186D01*
X109395046Y-101564051D01*
X109302175Y-101202568D01*
X109231755Y-100936726D01*
X109194189Y-100806233D01*
X109127154Y-100777042D01*
X108978464Y-100869362D01*
X108734956Y-101091843D01*
X108686486Y-101139927D01*
X108224032Y-101602381D01*
X107945791Y-101602381D01*
X107511264Y-101161221D01*
X107291681Y-100945688D01*
X107125515Y-100796466D01*
X107046414Y-100743629D01*
X107044914Y-100744406D01*
X107013577Y-100836183D01*
X106947024Y-101068566D01*
X106854122Y-101409454D01*
X106743738Y-101826743D01*
X106707869Y-101964616D01*
X106398937Y-103156712D01*
X106200792Y-103156712D01*
X106249829Y-102964577D01*
X106460171Y-102144397D01*
X106707751Y-101182155D01*
X106886392Y-100489379D01*
X107195965Y-100489379D01*
X107253458Y-100587839D01*
X107397835Y-100762719D01*
X107586939Y-100969315D01*
X107778616Y-101162922D01*
X107930710Y-101298836D01*
X107994346Y-101336045D01*
X108015095Y-101253381D01*
X108031378Y-101031193D01*
X108040986Y-100708188D01*
X108042632Y-100489379D01*
X108037917Y-100125556D01*
X108025246Y-99840049D01*
X108009357Y-99694723D01*
X108265439Y-99694723D01*
X108265439Y-100489379D01*
X108265439Y-101284035D01*
X108666491Y-100890431D01*
X108873706Y-100685987D01*
X109018574Y-100540996D01*
X109067544Y-100489379D01*
X109009475Y-100428540D01*
X108857948Y-100277136D01*
X108666491Y-100088326D01*
X108265439Y-99694723D01*
X108009357Y-99694723D01*
X108006825Y-99671562D01*
X107994346Y-99642712D01*
X107901501Y-99703683D01*
X107736594Y-99856791D01*
X107541780Y-100057332D01*
X107359215Y-100260602D01*
X107231053Y-100421895D01*
X107195965Y-100489379D01*
X106886392Y-100489379D01*
X106995203Y-100067404D01*
X107024321Y-99954642D01*
X107227596Y-99954642D01*
X107240306Y-100016523D01*
X107352539Y-99948864D01*
X107564169Y-99754473D01*
X107948185Y-99378008D01*
X108231865Y-99378008D01*
X108577072Y-99731531D01*
X108770963Y-99919024D01*
X108910465Y-100033312D01*
X108955788Y-100051544D01*
X108956672Y-99953815D01*
X108925603Y-99732582D01*
X108876906Y-99473882D01*
X108810314Y-99191065D01*
X108748360Y-98994307D01*
X108708757Y-98929730D01*
X108616170Y-98988366D01*
X108463484Y-99131749D01*
X108442433Y-99153869D01*
X108231865Y-99378008D01*
X107948185Y-99378008D01*
X107950173Y-99376059D01*
X107719279Y-99145165D01*
X107488386Y-98914272D01*
X107382707Y-99345334D01*
X107309971Y-99637391D01*
X107247368Y-99881023D01*
X107227596Y-99954642D01*
X107024321Y-99954642D01*
X107294735Y-98907449D01*
X107343500Y-98761175D01*
X107672853Y-98761175D01*
X107681269Y-98820400D01*
X107775263Y-98929730D01*
X107917441Y-99062210D01*
X108003540Y-99107975D01*
X108038379Y-99036650D01*
X108023894Y-98929730D01*
X107988917Y-98885168D01*
X108265439Y-98885168D01*
X108283759Y-99004081D01*
X108299088Y-99018852D01*
X108375982Y-98959793D01*
X108443684Y-98885168D01*
X108505822Y-98779748D01*
X108423945Y-98751608D01*
X108410036Y-98751484D01*
X108285019Y-98818201D01*
X108265439Y-98885168D01*
X107988917Y-98885168D01*
X107905891Y-98779389D01*
X107795617Y-98751484D01*
X107672853Y-98761175D01*
X107343500Y-98761175D01*
X107367723Y-98688518D01*
X107472937Y-98594236D01*
X107671007Y-98573285D01*
X107689576Y-98573238D01*
X107998070Y-98573238D01*
X107998070Y-97559239D01*
X107992739Y-97089583D01*
X107974415Y-96768509D01*
X107939603Y-96566606D01*
X107884808Y-96454466D01*
X107864386Y-96434291D01*
X107749228Y-96238359D01*
X107749977Y-96126734D01*
X107925693Y-96126734D01*
X107938878Y-96205493D01*
X108059301Y-96326466D01*
X108223063Y-96326209D01*
X108315286Y-96247493D01*
X108317882Y-96112758D01*
X108217710Y-95988865D01*
X108078645Y-95930908D01*
X107986873Y-95964225D01*
X107925693Y-96126734D01*
X107749977Y-96126734D01*
X107750834Y-95998890D01*
X107863229Y-95811392D01*
X108067090Y-95741991D01*
X108294454Y-95791027D01*
G37*
D11*
X91370000Y-101600000D02*
G75*
G02*
X88970000Y-101600000I-1200000J0D01*
G01*
X88970000Y-101600000D02*
G75*
G02*
X91370000Y-101600000I1200000J0D01*
G01*
X98990000Y-88519000D02*
G75*
G02*
X96590000Y-88519000I-1200000J0D01*
G01*
X96590000Y-88519000D02*
G75*
G02*
X98990000Y-88519000I1200000J0D01*
G01*
X103295000Y-67513064D02*
X103295000Y-67058936D01*
X104765000Y-67513064D02*
X104765000Y-67058936D01*
X96450000Y-99060000D02*
G75*
G02*
X94050000Y-99060000I-1200000J0D01*
G01*
X94050000Y-99060000D02*
G75*
G02*
X96450000Y-99060000I1200000J0D01*
G01*
X86290000Y-88519000D02*
G75*
G02*
X83890000Y-88519000I-1200000J0D01*
G01*
X83890000Y-88519000D02*
G75*
G02*
X86290000Y-88519000I1200000J0D01*
G01*
X83750000Y-96520000D02*
G75*
G02*
X81350000Y-96520000I-1200000J0D01*
G01*
X81350000Y-96520000D02*
G75*
G02*
X83750000Y-96520000I1200000J0D01*
G01*
X96450000Y-93980000D02*
G75*
G02*
X94050000Y-93980000I-1200000J0D01*
G01*
X94050000Y-93980000D02*
G75*
G02*
X96450000Y-93980000I1200000J0D01*
G01*
X86290000Y-96520000D02*
G75*
G02*
X83890000Y-96520000I-1200000J0D01*
G01*
X83890000Y-96520000D02*
G75*
G02*
X86290000Y-96520000I1200000J0D01*
G01*
X86290000Y-99060000D02*
G75*
G02*
X83890000Y-99060000I-1200000J0D01*
G01*
X83890000Y-99060000D02*
G75*
G02*
X86290000Y-99060000I1200000J0D01*
G01*
X126612800Y-82862500D02*
X127882800Y-82862500D01*
X126612800Y-84132500D02*
X126612800Y-82862500D01*
X128925729Y-86292500D02*
X129322800Y-86292500D01*
X128925729Y-87052500D02*
X129322800Y-87052500D01*
X128992800Y-83752500D02*
X129322800Y-83752500D01*
X128992800Y-84512500D02*
X129322800Y-84512500D01*
X129322800Y-82802500D02*
X129322800Y-88002500D01*
X129322800Y-85402500D02*
X131982800Y-85402500D01*
X129322800Y-88002500D02*
X131982800Y-88002500D01*
X131982800Y-82802500D02*
X129322800Y-82802500D01*
X131982800Y-83752500D02*
X137982800Y-83752500D01*
X131982800Y-83812500D02*
X137982800Y-83812500D01*
X131982800Y-83932500D02*
X137982800Y-83932500D01*
X131982800Y-84052500D02*
X137982800Y-84052500D01*
X131982800Y-84172500D02*
X137982800Y-84172500D01*
X131982800Y-84292500D02*
X137982800Y-84292500D01*
X131982800Y-84412500D02*
X137982800Y-84412500D01*
X131982800Y-86292500D02*
X137982800Y-86292500D01*
X131982800Y-88002500D02*
X131982800Y-82802500D01*
X137982800Y-83752500D02*
X137982800Y-84512500D01*
X137982800Y-84512500D02*
X131982800Y-84512500D01*
X137982800Y-86292500D02*
X137982800Y-87052500D01*
X137982800Y-87052500D02*
X131982800Y-87052500D01*
X126593600Y-65341500D02*
X127863600Y-65341500D01*
X126593600Y-66611500D02*
X126593600Y-65341500D01*
X128906529Y-68771500D02*
X129303600Y-68771500D01*
X128906529Y-69531500D02*
X129303600Y-69531500D01*
X128906529Y-71311500D02*
X129303600Y-71311500D01*
X128906529Y-72071500D02*
X129303600Y-72071500D01*
X128906529Y-73851500D02*
X129303600Y-73851500D01*
X128906529Y-74611500D02*
X129303600Y-74611500D01*
X128906529Y-76391500D02*
X129303600Y-76391500D01*
X128906529Y-77151500D02*
X129303600Y-77151500D01*
X128906529Y-78931500D02*
X129303600Y-78931500D01*
X128906529Y-79691500D02*
X129303600Y-79691500D01*
X128973600Y-66231500D02*
X129303600Y-66231500D01*
X128973600Y-66991500D02*
X129303600Y-66991500D01*
X129303600Y-65281500D02*
X129303600Y-80641500D01*
X129303600Y-67881500D02*
X131963600Y-67881500D01*
X129303600Y-70421500D02*
X131963600Y-70421500D01*
X129303600Y-72961500D02*
X131963600Y-72961500D01*
X129303600Y-75501500D02*
X131963600Y-75501500D01*
X129303600Y-78041500D02*
X131963600Y-78041500D01*
X129303600Y-80641500D02*
X131963600Y-80641500D01*
X131963600Y-65281500D02*
X129303600Y-65281500D01*
X131963600Y-66231500D02*
X137963600Y-66231500D01*
X131963600Y-66291500D02*
X137963600Y-66291500D01*
X131963600Y-66411500D02*
X137963600Y-66411500D01*
X131963600Y-66531500D02*
X137963600Y-66531500D01*
X131963600Y-66651500D02*
X137963600Y-66651500D01*
X131963600Y-66771500D02*
X137963600Y-66771500D01*
X131963600Y-66891500D02*
X137963600Y-66891500D01*
X131963600Y-68771500D02*
X137963600Y-68771500D01*
X131963600Y-71311500D02*
X137963600Y-71311500D01*
X131963600Y-73851500D02*
X137963600Y-73851500D01*
X131963600Y-76391500D02*
X137963600Y-76391500D01*
X131963600Y-78931500D02*
X137963600Y-78931500D01*
X131963600Y-80641500D02*
X131963600Y-65281500D01*
X137963600Y-66231500D02*
X137963600Y-66991500D01*
X137963600Y-66991500D02*
X131963600Y-66991500D01*
X137963600Y-68771500D02*
X137963600Y-69531500D01*
X137963600Y-69531500D02*
X131963600Y-69531500D01*
X137963600Y-71311500D02*
X137963600Y-72071500D01*
X137963600Y-72071500D02*
X131963600Y-72071500D01*
X137963600Y-73851500D02*
X137963600Y-74611500D01*
X137963600Y-74611500D02*
X131963600Y-74611500D01*
X137963600Y-76391500D02*
X137963600Y-77151500D01*
X137963600Y-77151500D02*
X131963600Y-77151500D01*
X137963600Y-78931500D02*
X137963600Y-79691500D01*
X137963600Y-79691500D02*
X131963600Y-79691500D01*
X88830000Y-96520000D02*
G75*
G02*
X86430000Y-96520000I-1200000J0D01*
G01*
X86430000Y-96520000D02*
G75*
G02*
X88830000Y-96520000I1200000J0D01*
G01*
X80508000Y-66381600D02*
X86508000Y-66381600D01*
X80508000Y-67141600D02*
X80508000Y-66381600D01*
X80508000Y-68921600D02*
X86508000Y-68921600D01*
X80508000Y-69681600D02*
X80508000Y-68921600D01*
X80508000Y-71461600D02*
X86508000Y-71461600D01*
X80508000Y-72221600D02*
X80508000Y-71461600D01*
X86508000Y-65431600D02*
X86508000Y-73171600D01*
X86508000Y-67141600D02*
X80508000Y-67141600D01*
X86508000Y-69681600D02*
X80508000Y-69681600D01*
X86508000Y-71561600D02*
X80508000Y-71561600D01*
X86508000Y-71681600D02*
X80508000Y-71681600D01*
X86508000Y-71801600D02*
X80508000Y-71801600D01*
X86508000Y-71921600D02*
X80508000Y-71921600D01*
X86508000Y-72041600D02*
X80508000Y-72041600D01*
X86508000Y-72161600D02*
X80508000Y-72161600D01*
X86508000Y-72221600D02*
X80508000Y-72221600D01*
X86508000Y-73171600D02*
X89168000Y-73171600D01*
X89168000Y-65431600D02*
X86508000Y-65431600D01*
X89168000Y-68031600D02*
X86508000Y-68031600D01*
X89168000Y-70571600D02*
X86508000Y-70571600D01*
X89168000Y-73171600D02*
X89168000Y-65431600D01*
X89498000Y-71461600D02*
X89168000Y-71461600D01*
X89498000Y-72221600D02*
X89168000Y-72221600D01*
X89565071Y-66381600D02*
X89168000Y-66381600D01*
X89565071Y-67141600D02*
X89168000Y-67141600D01*
X89565071Y-68921600D02*
X89168000Y-68921600D01*
X89565071Y-69681600D02*
X89168000Y-69681600D01*
X91878000Y-71841600D02*
X91878000Y-73111600D01*
X91878000Y-73111600D02*
X90608000Y-73111600D01*
X83750000Y-88519000D02*
G75*
G02*
X81350000Y-88519000I-1200000J0D01*
G01*
X81350000Y-88519000D02*
G75*
G02*
X83750000Y-88519000I1200000J0D01*
G01*
X96450000Y-91059000D02*
G75*
G02*
X94050000Y-91059000I-1200000J0D01*
G01*
X94050000Y-91059000D02*
G75*
G02*
X96450000Y-91059000I1200000J0D01*
G01*
X86290000Y-91059000D02*
G75*
G02*
X83890000Y-91059000I-1200000J0D01*
G01*
X83890000Y-91059000D02*
G75*
G02*
X86290000Y-91059000I1200000J0D01*
G01*
X118657064Y-103905000D02*
X118202936Y-103905000D01*
X118657064Y-105375000D02*
X118202936Y-105375000D01*
X98990000Y-91059000D02*
G75*
G02*
X96590000Y-91059000I-1200000J0D01*
G01*
X96590000Y-91059000D02*
G75*
G02*
X98990000Y-91059000I1200000J0D01*
G01*
X98990000Y-101600000D02*
G75*
G02*
X96590000Y-101600000I-1200000J0D01*
G01*
X96590000Y-101600000D02*
G75*
G02*
X98990000Y-101600000I1200000J0D01*
G01*
M02*
