G04 #@! TF.GenerationSoftware,KiCad,Pcbnew,8.0.0*
G04 #@! TF.CreationDate,2024-09-16T09:54:48+02:00*
G04 #@! TF.ProjectId,SVXLink_PiHat_V1,5356584c-696e-46b5-9f50-694861745f56,rev?*
G04 #@! TF.SameCoordinates,Original*
G04 #@! TF.FileFunction,Legend,Bot*
G04 #@! TF.FilePolarity,Positive*
%FSLAX46Y46*%
G04 Gerber Fmt 4.6, Leading zero omitted, Abs format (unit mm)*
G04 Created by KiCad (PCBNEW 8.0.0) date 2024-09-16 09:54:48*
%MOMM*%
%LPD*%
G01*
G04 APERTURE LIST*
%ADD10C,0.160000*%
%ADD11C,0.200000*%
%ADD12C,0.300000*%
%ADD13C,0.150000*%
%ADD14C,0.120000*%
G04 APERTURE END LIST*
D10*
X99454194Y-110912132D02*
X99454194Y-110262132D01*
X99454194Y-110509751D02*
X99392289Y-110478799D01*
X99392289Y-110478799D02*
X99268479Y-110478799D01*
X99268479Y-110478799D02*
X99206575Y-110509751D01*
X99206575Y-110509751D02*
X99175622Y-110540703D01*
X99175622Y-110540703D02*
X99144670Y-110602608D01*
X99144670Y-110602608D02*
X99144670Y-110788322D01*
X99144670Y-110788322D02*
X99175622Y-110850227D01*
X99175622Y-110850227D02*
X99206575Y-110881180D01*
X99206575Y-110881180D02*
X99268479Y-110912132D01*
X99268479Y-110912132D02*
X99392289Y-110912132D01*
X99392289Y-110912132D02*
X99454194Y-110881180D01*
X98928003Y-110478799D02*
X98773241Y-110912132D01*
X98618480Y-110478799D02*
X98773241Y-110912132D01*
X98773241Y-110912132D02*
X98835146Y-111066894D01*
X98835146Y-111066894D02*
X98866099Y-111097846D01*
X98866099Y-111097846D02*
X98928003Y-111128799D01*
X97751813Y-110262132D02*
X97628004Y-110262132D01*
X97628004Y-110262132D02*
X97566099Y-110293084D01*
X97566099Y-110293084D02*
X97504194Y-110354989D01*
X97504194Y-110354989D02*
X97473242Y-110478799D01*
X97473242Y-110478799D02*
X97473242Y-110695465D01*
X97473242Y-110695465D02*
X97504194Y-110819275D01*
X97504194Y-110819275D02*
X97566099Y-110881180D01*
X97566099Y-110881180D02*
X97628004Y-110912132D01*
X97628004Y-110912132D02*
X97751813Y-110912132D01*
X97751813Y-110912132D02*
X97813718Y-110881180D01*
X97813718Y-110881180D02*
X97875623Y-110819275D01*
X97875623Y-110819275D02*
X97906575Y-110695465D01*
X97906575Y-110695465D02*
X97906575Y-110478799D01*
X97906575Y-110478799D02*
X97875623Y-110354989D01*
X97875623Y-110354989D02*
X97813718Y-110293084D01*
X97813718Y-110293084D02*
X97751813Y-110262132D01*
X97194671Y-110571656D02*
X96978004Y-110571656D01*
X96885147Y-110912132D02*
X97194671Y-110912132D01*
X97194671Y-110912132D02*
X97194671Y-110262132D01*
X97194671Y-110262132D02*
X96885147Y-110262132D01*
X96575623Y-110912132D02*
X96451814Y-110912132D01*
X96451814Y-110912132D02*
X96389909Y-110881180D01*
X96389909Y-110881180D02*
X96358957Y-110850227D01*
X96358957Y-110850227D02*
X96297052Y-110757370D01*
X96297052Y-110757370D02*
X96266099Y-110633560D01*
X96266099Y-110633560D02*
X96266099Y-110385941D01*
X96266099Y-110385941D02*
X96297052Y-110324037D01*
X96297052Y-110324037D02*
X96328004Y-110293084D01*
X96328004Y-110293084D02*
X96389909Y-110262132D01*
X96389909Y-110262132D02*
X96513718Y-110262132D01*
X96513718Y-110262132D02*
X96575623Y-110293084D01*
X96575623Y-110293084D02*
X96606576Y-110324037D01*
X96606576Y-110324037D02*
X96637528Y-110385941D01*
X96637528Y-110385941D02*
X96637528Y-110540703D01*
X96637528Y-110540703D02*
X96606576Y-110602608D01*
X96606576Y-110602608D02*
X96575623Y-110633560D01*
X96575623Y-110633560D02*
X96513718Y-110664513D01*
X96513718Y-110664513D02*
X96389909Y-110664513D01*
X96389909Y-110664513D02*
X96328004Y-110633560D01*
X96328004Y-110633560D02*
X96297052Y-110602608D01*
X96297052Y-110602608D02*
X96266099Y-110540703D01*
X96018480Y-110881180D02*
X95925623Y-110912132D01*
X95925623Y-110912132D02*
X95770861Y-110912132D01*
X95770861Y-110912132D02*
X95708956Y-110881180D01*
X95708956Y-110881180D02*
X95678004Y-110850227D01*
X95678004Y-110850227D02*
X95647051Y-110788322D01*
X95647051Y-110788322D02*
X95647051Y-110726418D01*
X95647051Y-110726418D02*
X95678004Y-110664513D01*
X95678004Y-110664513D02*
X95708956Y-110633560D01*
X95708956Y-110633560D02*
X95770861Y-110602608D01*
X95770861Y-110602608D02*
X95894670Y-110571656D01*
X95894670Y-110571656D02*
X95956575Y-110540703D01*
X95956575Y-110540703D02*
X95987528Y-110509751D01*
X95987528Y-110509751D02*
X96018480Y-110447846D01*
X96018480Y-110447846D02*
X96018480Y-110385941D01*
X96018480Y-110385941D02*
X95987528Y-110324037D01*
X95987528Y-110324037D02*
X95956575Y-110293084D01*
X95956575Y-110293084D02*
X95894670Y-110262132D01*
X95894670Y-110262132D02*
X95739909Y-110262132D01*
X95739909Y-110262132D02*
X95647051Y-110293084D01*
X95399432Y-110726418D02*
X95089908Y-110726418D01*
X95461337Y-110912132D02*
X95244670Y-110262132D01*
X95244670Y-110262132D02*
X95028003Y-110912132D01*
X94811337Y-110262132D02*
X94811337Y-110788322D01*
X94811337Y-110788322D02*
X94780384Y-110850227D01*
X94780384Y-110850227D02*
X94749432Y-110881180D01*
X94749432Y-110881180D02*
X94687527Y-110912132D01*
X94687527Y-110912132D02*
X94563718Y-110912132D01*
X94563718Y-110912132D02*
X94501813Y-110881180D01*
X94501813Y-110881180D02*
X94470860Y-110850227D01*
X94470860Y-110850227D02*
X94439908Y-110788322D01*
X94439908Y-110788322D02*
X94439908Y-110262132D01*
X93666099Y-110324037D02*
X93635147Y-110293084D01*
X93635147Y-110293084D02*
X93573242Y-110262132D01*
X93573242Y-110262132D02*
X93418480Y-110262132D01*
X93418480Y-110262132D02*
X93356575Y-110293084D01*
X93356575Y-110293084D02*
X93325623Y-110324037D01*
X93325623Y-110324037D02*
X93294670Y-110385941D01*
X93294670Y-110385941D02*
X93294670Y-110447846D01*
X93294670Y-110447846D02*
X93325623Y-110540703D01*
X93325623Y-110540703D02*
X93697051Y-110912132D01*
X93697051Y-110912132D02*
X93294670Y-110912132D01*
X92892289Y-110262132D02*
X92830384Y-110262132D01*
X92830384Y-110262132D02*
X92768480Y-110293084D01*
X92768480Y-110293084D02*
X92737527Y-110324037D01*
X92737527Y-110324037D02*
X92706575Y-110385941D01*
X92706575Y-110385941D02*
X92675622Y-110509751D01*
X92675622Y-110509751D02*
X92675622Y-110664513D01*
X92675622Y-110664513D02*
X92706575Y-110788322D01*
X92706575Y-110788322D02*
X92737527Y-110850227D01*
X92737527Y-110850227D02*
X92768480Y-110881180D01*
X92768480Y-110881180D02*
X92830384Y-110912132D01*
X92830384Y-110912132D02*
X92892289Y-110912132D01*
X92892289Y-110912132D02*
X92954194Y-110881180D01*
X92954194Y-110881180D02*
X92985146Y-110850227D01*
X92985146Y-110850227D02*
X93016099Y-110788322D01*
X93016099Y-110788322D02*
X93047051Y-110664513D01*
X93047051Y-110664513D02*
X93047051Y-110509751D01*
X93047051Y-110509751D02*
X93016099Y-110385941D01*
X93016099Y-110385941D02*
X92985146Y-110324037D01*
X92985146Y-110324037D02*
X92954194Y-110293084D01*
X92954194Y-110293084D02*
X92892289Y-110262132D01*
X92428003Y-110324037D02*
X92397051Y-110293084D01*
X92397051Y-110293084D02*
X92335146Y-110262132D01*
X92335146Y-110262132D02*
X92180384Y-110262132D01*
X92180384Y-110262132D02*
X92118479Y-110293084D01*
X92118479Y-110293084D02*
X92087527Y-110324037D01*
X92087527Y-110324037D02*
X92056574Y-110385941D01*
X92056574Y-110385941D02*
X92056574Y-110447846D01*
X92056574Y-110447846D02*
X92087527Y-110540703D01*
X92087527Y-110540703D02*
X92458955Y-110912132D01*
X92458955Y-110912132D02*
X92056574Y-110912132D01*
X91499431Y-110478799D02*
X91499431Y-110912132D01*
X91654193Y-110231180D02*
X91808955Y-110695465D01*
X91808955Y-110695465D02*
X91406574Y-110695465D01*
X90756574Y-110262132D02*
X90539907Y-110912132D01*
X90539907Y-110912132D02*
X90323240Y-110262132D01*
X89766097Y-110912132D02*
X90137526Y-110912132D01*
X89951812Y-110912132D02*
X89951812Y-110262132D01*
X89951812Y-110262132D02*
X90013716Y-110354989D01*
X90013716Y-110354989D02*
X90075621Y-110416894D01*
X90075621Y-110416894D02*
X90137526Y-110447846D01*
D11*
X80008898Y-90629790D02*
X80085088Y-90591695D01*
X80085088Y-90591695D02*
X80199374Y-90591695D01*
X80199374Y-90591695D02*
X80313660Y-90629790D01*
X80313660Y-90629790D02*
X80389850Y-90705980D01*
X80389850Y-90705980D02*
X80427945Y-90782171D01*
X80427945Y-90782171D02*
X80466041Y-90934552D01*
X80466041Y-90934552D02*
X80466041Y-91048838D01*
X80466041Y-91048838D02*
X80427945Y-91201219D01*
X80427945Y-91201219D02*
X80389850Y-91277409D01*
X80389850Y-91277409D02*
X80313660Y-91353600D01*
X80313660Y-91353600D02*
X80199374Y-91391695D01*
X80199374Y-91391695D02*
X80123183Y-91391695D01*
X80123183Y-91391695D02*
X80008898Y-91353600D01*
X80008898Y-91353600D02*
X79970802Y-91315504D01*
X79970802Y-91315504D02*
X79970802Y-91048838D01*
X79970802Y-91048838D02*
X80123183Y-91048838D01*
X79627945Y-91391695D02*
X79627945Y-90591695D01*
X79627945Y-90591695D02*
X79170802Y-91391695D01*
X79170802Y-91391695D02*
X79170802Y-90591695D01*
X78789850Y-91391695D02*
X78789850Y-90591695D01*
X78789850Y-90591695D02*
X78599374Y-90591695D01*
X78599374Y-90591695D02*
X78485088Y-90629790D01*
X78485088Y-90629790D02*
X78408898Y-90705980D01*
X78408898Y-90705980D02*
X78370803Y-90782171D01*
X78370803Y-90782171D02*
X78332707Y-90934552D01*
X78332707Y-90934552D02*
X78332707Y-91048838D01*
X78332707Y-91048838D02*
X78370803Y-91201219D01*
X78370803Y-91201219D02*
X78408898Y-91277409D01*
X78408898Y-91277409D02*
X78485088Y-91353600D01*
X78485088Y-91353600D02*
X78599374Y-91391695D01*
X78599374Y-91391695D02*
X78789850Y-91391695D01*
X79320993Y-88236695D02*
X79701945Y-88236695D01*
X79701945Y-88236695D02*
X79740041Y-88617647D01*
X79740041Y-88617647D02*
X79701945Y-88579552D01*
X79701945Y-88579552D02*
X79625755Y-88541457D01*
X79625755Y-88541457D02*
X79435279Y-88541457D01*
X79435279Y-88541457D02*
X79359088Y-88579552D01*
X79359088Y-88579552D02*
X79320993Y-88617647D01*
X79320993Y-88617647D02*
X79282898Y-88693838D01*
X79282898Y-88693838D02*
X79282898Y-88884314D01*
X79282898Y-88884314D02*
X79320993Y-88960504D01*
X79320993Y-88960504D02*
X79359088Y-88998600D01*
X79359088Y-88998600D02*
X79435279Y-89036695D01*
X79435279Y-89036695D02*
X79625755Y-89036695D01*
X79625755Y-89036695D02*
X79701945Y-88998600D01*
X79701945Y-88998600D02*
X79740041Y-88960504D01*
X79054326Y-88236695D02*
X78787659Y-89036695D01*
X78787659Y-89036695D02*
X78520993Y-88236695D01*
D12*
X103021917Y-109503812D02*
X102807632Y-109575240D01*
X102807632Y-109575240D02*
X102450489Y-109575240D01*
X102450489Y-109575240D02*
X102307632Y-109503812D01*
X102307632Y-109503812D02*
X102236203Y-109432383D01*
X102236203Y-109432383D02*
X102164774Y-109289526D01*
X102164774Y-109289526D02*
X102164774Y-109146669D01*
X102164774Y-109146669D02*
X102236203Y-109003812D01*
X102236203Y-109003812D02*
X102307632Y-108932383D01*
X102307632Y-108932383D02*
X102450489Y-108860954D01*
X102450489Y-108860954D02*
X102736203Y-108789526D01*
X102736203Y-108789526D02*
X102879060Y-108718097D01*
X102879060Y-108718097D02*
X102950489Y-108646669D01*
X102950489Y-108646669D02*
X103021917Y-108503812D01*
X103021917Y-108503812D02*
X103021917Y-108360954D01*
X103021917Y-108360954D02*
X102950489Y-108218097D01*
X102950489Y-108218097D02*
X102879060Y-108146669D01*
X102879060Y-108146669D02*
X102736203Y-108075240D01*
X102736203Y-108075240D02*
X102379060Y-108075240D01*
X102379060Y-108075240D02*
X102164774Y-108146669D01*
X101736203Y-108075240D02*
X101236203Y-109575240D01*
X101236203Y-109575240D02*
X100736203Y-108075240D01*
X100379061Y-108075240D02*
X99379061Y-109575240D01*
X99379061Y-108075240D02*
X100379061Y-109575240D01*
X98093347Y-109575240D02*
X98807633Y-109575240D01*
X98807633Y-109575240D02*
X98807633Y-108075240D01*
X97593347Y-109575240D02*
X97593347Y-108575240D01*
X97593347Y-108075240D02*
X97664775Y-108146669D01*
X97664775Y-108146669D02*
X97593347Y-108218097D01*
X97593347Y-108218097D02*
X97521918Y-108146669D01*
X97521918Y-108146669D02*
X97593347Y-108075240D01*
X97593347Y-108075240D02*
X97593347Y-108218097D01*
X96879061Y-108575240D02*
X96879061Y-109575240D01*
X96879061Y-108718097D02*
X96807632Y-108646669D01*
X96807632Y-108646669D02*
X96664775Y-108575240D01*
X96664775Y-108575240D02*
X96450489Y-108575240D01*
X96450489Y-108575240D02*
X96307632Y-108646669D01*
X96307632Y-108646669D02*
X96236204Y-108789526D01*
X96236204Y-108789526D02*
X96236204Y-109575240D01*
X95521918Y-109575240D02*
X95521918Y-108075240D01*
X95379061Y-109003812D02*
X94950489Y-109575240D01*
X94950489Y-108575240D02*
X95521918Y-109146669D01*
X94664775Y-109718097D02*
X93521917Y-109718097D01*
X93164775Y-109575240D02*
X93164775Y-108075240D01*
X93164775Y-108075240D02*
X92593346Y-108075240D01*
X92593346Y-108075240D02*
X92450489Y-108146669D01*
X92450489Y-108146669D02*
X92379060Y-108218097D01*
X92379060Y-108218097D02*
X92307632Y-108360954D01*
X92307632Y-108360954D02*
X92307632Y-108575240D01*
X92307632Y-108575240D02*
X92379060Y-108718097D01*
X92379060Y-108718097D02*
X92450489Y-108789526D01*
X92450489Y-108789526D02*
X92593346Y-108860954D01*
X92593346Y-108860954D02*
X93164775Y-108860954D01*
X91664775Y-109575240D02*
X91664775Y-108575240D01*
X91664775Y-108075240D02*
X91736203Y-108146669D01*
X91736203Y-108146669D02*
X91664775Y-108218097D01*
X91664775Y-108218097D02*
X91593346Y-108146669D01*
X91593346Y-108146669D02*
X91664775Y-108075240D01*
X91664775Y-108075240D02*
X91664775Y-108218097D01*
X90950489Y-109575240D02*
X90950489Y-108075240D01*
X90950489Y-108789526D02*
X90093346Y-108789526D01*
X90093346Y-109575240D02*
X90093346Y-108075240D01*
X88736203Y-109575240D02*
X88736203Y-108789526D01*
X88736203Y-108789526D02*
X88807631Y-108646669D01*
X88807631Y-108646669D02*
X88950488Y-108575240D01*
X88950488Y-108575240D02*
X89236203Y-108575240D01*
X89236203Y-108575240D02*
X89379060Y-108646669D01*
X88736203Y-109503812D02*
X88879060Y-109575240D01*
X88879060Y-109575240D02*
X89236203Y-109575240D01*
X89236203Y-109575240D02*
X89379060Y-109503812D01*
X89379060Y-109503812D02*
X89450488Y-109360954D01*
X89450488Y-109360954D02*
X89450488Y-109218097D01*
X89450488Y-109218097D02*
X89379060Y-109075240D01*
X89379060Y-109075240D02*
X89236203Y-109003812D01*
X89236203Y-109003812D02*
X88879060Y-109003812D01*
X88879060Y-109003812D02*
X88736203Y-108932383D01*
X88236202Y-108575240D02*
X87664774Y-108575240D01*
X88021917Y-108075240D02*
X88021917Y-109360954D01*
X88021917Y-109360954D02*
X87950488Y-109503812D01*
X87950488Y-109503812D02*
X87807631Y-109575240D01*
X87807631Y-109575240D02*
X87664774Y-109575240D01*
D13*
X124690094Y-94434819D02*
X124690094Y-93434819D01*
X124690094Y-93434819D02*
X124451999Y-93434819D01*
X124451999Y-93434819D02*
X124309142Y-93482438D01*
X124309142Y-93482438D02*
X124213904Y-93577676D01*
X124213904Y-93577676D02*
X124166285Y-93672914D01*
X124166285Y-93672914D02*
X124118666Y-93863390D01*
X124118666Y-93863390D02*
X124118666Y-94006247D01*
X124118666Y-94006247D02*
X124166285Y-94196723D01*
X124166285Y-94196723D02*
X124213904Y-94291961D01*
X124213904Y-94291961D02*
X124309142Y-94387200D01*
X124309142Y-94387200D02*
X124451999Y-94434819D01*
X124451999Y-94434819D02*
X124690094Y-94434819D01*
X123166285Y-94434819D02*
X123737713Y-94434819D01*
X123451999Y-94434819D02*
X123451999Y-93434819D01*
X123451999Y-93434819D02*
X123547237Y-93577676D01*
X123547237Y-93577676D02*
X123642475Y-93672914D01*
X123642475Y-93672914D02*
X123737713Y-93720533D01*
D14*
X122952000Y-98852900D02*
X122952000Y-94842900D01*
X124952000Y-94842900D02*
X122952000Y-94842900D01*
X124952000Y-98852900D02*
X124952000Y-94842900D01*
M02*
