M48
; DRILL file {KiCad 8.0.0} date 2024-09-16T09:54:51+0200
; FORMAT={-:-/ absolute / inch / decimal}
; #@! TF.CreationDate,2024-09-16T09:54:51+02:00
; #@! TF.GenerationSoftware,Kicad,Pcbnew,8.0.0
; #@! TF.FileFunction,Plated,1,2,PTH
FMAT,2
INCH
; #@! TA.AperFunction,Plated,PTH,ViaDrill
T1C0.0157
; #@! TA.AperFunction,Plated,PTH,ComponentDrill
T2C0.0315
; #@! TA.AperFunction,Plated,PTH,ComponentDrill
T3C0.0394
; #@! TA.AperFunction,Plated,PTH,ComponentDrill
T4C0.1063
%
G90
G05
T1
X4.096Y-2.54
X4.206Y-3.194
X4.254Y-3.294
X4.256Y-3.784
X4.58Y-3.696
X4.584Y-3.462
X5.09Y-2.772
X5.09Y-2.874
X5.09Y-2.972
T2
X4.152Y-3.237
X4.152Y-3.337
X4.152Y-3.437
X4.452Y-3.237
X4.452Y-3.337
X4.452Y-3.437
T3
X3.25Y-3.485
X3.25Y-3.585
X3.25Y-3.7
X3.25Y-3.8
X3.25Y-3.9
X3.25Y-4.0
X3.35Y-3.485
X3.35Y-3.585
X3.35Y-3.7
X3.35Y-3.8
X3.35Y-3.9
X3.35Y-4.0
X3.3622Y-2.276
X3.3622Y-2.376
X3.45Y-3.485
X3.45Y-3.585
X3.45Y-3.7
X3.45Y-3.8
X3.45Y-3.9
X3.45Y-4.0
X3.4622Y-2.276
X3.4622Y-2.376
X3.55Y-3.485
X3.55Y-3.585
X3.55Y-3.7
X3.55Y-3.8
X3.55Y-3.9
X3.55Y-4.0
X3.5622Y-2.276
X3.5622Y-2.376
X3.5662Y-3.014
X3.5662Y-3.114
X3.5662Y-3.214
X3.5672Y-2.6284
X3.5672Y-2.7284
X3.5672Y-2.8284
X3.65Y-3.485
X3.65Y-3.585
X3.65Y-3.7
X3.65Y-3.8
X3.65Y-3.9
X3.65Y-4.0
X3.6622Y-2.276
X3.6622Y-2.376
X3.75Y-3.485
X3.75Y-3.585
X3.75Y-3.7
X3.75Y-3.8
X3.75Y-3.9
X3.75Y-4.0
X3.7622Y-2.276
X3.7622Y-2.376
X3.85Y-3.485
X3.85Y-3.585
X3.85Y-3.7
X3.85Y-3.8
X3.85Y-3.9
X3.85Y-4.0
X3.8622Y-2.276
X3.8622Y-2.376
X3.9622Y-2.276
X3.9622Y-2.376
X4.0622Y-2.276
X4.0622Y-2.376
X4.1622Y-2.276
X4.1622Y-2.376
X4.2622Y-2.276
X4.2622Y-2.376
X4.3622Y-2.276
X4.3622Y-2.376
X4.4622Y-2.276
X4.4622Y-2.376
X4.5622Y-2.276
X4.5622Y-2.376
X4.6622Y-2.276
X4.6622Y-2.376
X4.7622Y-2.276
X4.7622Y-2.376
X4.8622Y-2.276
X4.8622Y-2.376
X4.9622Y-2.276
X4.9622Y-2.376
X5.0318Y-3.7758
X5.0318Y-3.8758
X5.034Y-2.6225
X5.034Y-2.7225
X5.034Y-2.8225
X5.034Y-2.9225
X5.034Y-3.0225
X5.034Y-3.1225
X5.0348Y-3.3123
X5.0348Y-3.4123
X5.0622Y-2.276
X5.0622Y-2.376
X5.1622Y-2.276
X5.1622Y-2.376
X5.2622Y-2.276
X5.2622Y-2.376
T4
X3.1692Y-2.3232
X3.1692Y-4.272
X5.4527Y-2.3232
X5.4527Y-4.272
M30
