%TF.GenerationSoftware,KiCad,Pcbnew,9.0.7*%
%TF.CreationDate,2026-04-02T17:46:46+02:00*%
%TF.ProjectId,WatchDog_Optokoppler_v1.1,57617463-6844-46f6-975f-4f70746f6b6f,rev?*%
%TF.SameCoordinates,Original*%
%TF.FileFunction,Legend,Bot*%
%TF.FilePolarity,Positive*%
%FSLAX46Y46*%
G04 Gerber Fmt 4.6, Leading zero omitted, Abs format (unit mm)*
G04 Created by KiCad (PCBNEW 9.0.7) date 2026-04-02 17:46:46*
%MOMM*%
%LPD*%
G01*
G04 APERTURE LIST*
%ADD10C,0.200000*%
%ADD11C,0.000000*%
G04 APERTURE END LIST*
D10*
X154189999Y-51296140D02*
X154037618Y-51296140D01*
X154037618Y-51296140D02*
X153961428Y-51334235D01*
X153961428Y-51334235D02*
X153885237Y-51410425D01*
X153885237Y-51410425D02*
X153847142Y-51562806D01*
X153847142Y-51562806D02*
X153847142Y-51829473D01*
X153847142Y-51829473D02*
X153885237Y-51981854D01*
X153885237Y-51981854D02*
X153961428Y-52058045D01*
X153961428Y-52058045D02*
X154037618Y-52096140D01*
X154037618Y-52096140D02*
X154189999Y-52096140D01*
X154189999Y-52096140D02*
X154266190Y-52058045D01*
X154266190Y-52058045D02*
X154342380Y-51981854D01*
X154342380Y-51981854D02*
X154380476Y-51829473D01*
X154380476Y-51829473D02*
X154380476Y-51562806D01*
X154380476Y-51562806D02*
X154342380Y-51410425D01*
X154342380Y-51410425D02*
X154266190Y-51334235D01*
X154266190Y-51334235D02*
X154189999Y-51296140D01*
X153504285Y-51677092D02*
X153237619Y-51677092D01*
X153123333Y-52096140D02*
X153504285Y-52096140D01*
X153504285Y-52096140D02*
X153504285Y-51296140D01*
X153504285Y-51296140D02*
X153123333Y-51296140D01*
X152742380Y-52096140D02*
X152589999Y-52096140D01*
X152589999Y-52096140D02*
X152513809Y-52058045D01*
X152513809Y-52058045D02*
X152475713Y-52019949D01*
X152475713Y-52019949D02*
X152399523Y-51905664D01*
X152399523Y-51905664D02*
X152361428Y-51753283D01*
X152361428Y-51753283D02*
X152361428Y-51448521D01*
X152361428Y-51448521D02*
X152399523Y-51372330D01*
X152399523Y-51372330D02*
X152437618Y-51334235D01*
X152437618Y-51334235D02*
X152513809Y-51296140D01*
X152513809Y-51296140D02*
X152666190Y-51296140D01*
X152666190Y-51296140D02*
X152742380Y-51334235D01*
X152742380Y-51334235D02*
X152780475Y-51372330D01*
X152780475Y-51372330D02*
X152818571Y-51448521D01*
X152818571Y-51448521D02*
X152818571Y-51638997D01*
X152818571Y-51638997D02*
X152780475Y-51715187D01*
X152780475Y-51715187D02*
X152742380Y-51753283D01*
X152742380Y-51753283D02*
X152666190Y-51791378D01*
X152666190Y-51791378D02*
X152513809Y-51791378D01*
X152513809Y-51791378D02*
X152437618Y-51753283D01*
X152437618Y-51753283D02*
X152399523Y-51715187D01*
X152399523Y-51715187D02*
X152361428Y-51638997D01*
X152056666Y-52058045D02*
X151942380Y-52096140D01*
X151942380Y-52096140D02*
X151751904Y-52096140D01*
X151751904Y-52096140D02*
X151675713Y-52058045D01*
X151675713Y-52058045D02*
X151637618Y-52019949D01*
X151637618Y-52019949D02*
X151599523Y-51943759D01*
X151599523Y-51943759D02*
X151599523Y-51867568D01*
X151599523Y-51867568D02*
X151637618Y-51791378D01*
X151637618Y-51791378D02*
X151675713Y-51753283D01*
X151675713Y-51753283D02*
X151751904Y-51715187D01*
X151751904Y-51715187D02*
X151904285Y-51677092D01*
X151904285Y-51677092D02*
X151980475Y-51638997D01*
X151980475Y-51638997D02*
X152018570Y-51600902D01*
X152018570Y-51600902D02*
X152056666Y-51524711D01*
X152056666Y-51524711D02*
X152056666Y-51448521D01*
X152056666Y-51448521D02*
X152018570Y-51372330D01*
X152018570Y-51372330D02*
X151980475Y-51334235D01*
X151980475Y-51334235D02*
X151904285Y-51296140D01*
X151904285Y-51296140D02*
X151713808Y-51296140D01*
X151713808Y-51296140D02*
X151599523Y-51334235D01*
X151294761Y-51867568D02*
X150913808Y-51867568D01*
X151370951Y-52096140D02*
X151104284Y-51296140D01*
X151104284Y-51296140D02*
X150837618Y-52096140D01*
X150570951Y-51296140D02*
X150570951Y-51943759D01*
X150570951Y-51943759D02*
X150532856Y-52019949D01*
X150532856Y-52019949D02*
X150494761Y-52058045D01*
X150494761Y-52058045D02*
X150418570Y-52096140D01*
X150418570Y-52096140D02*
X150266189Y-52096140D01*
X150266189Y-52096140D02*
X150189999Y-52058045D01*
X150189999Y-52058045D02*
X150151904Y-52019949D01*
X150151904Y-52019949D02*
X150113808Y-51943759D01*
X150113808Y-51943759D02*
X150113808Y-51296140D01*
X149732856Y-51791378D02*
X149123333Y-51791378D01*
X148818571Y-51296140D02*
X148628095Y-52096140D01*
X148628095Y-52096140D02*
X148475714Y-51524711D01*
X148475714Y-51524711D02*
X148323333Y-52096140D01*
X148323333Y-52096140D02*
X148132857Y-51296140D01*
X147866190Y-51867568D02*
X147485237Y-51867568D01*
X147942380Y-52096140D02*
X147675713Y-51296140D01*
X147675713Y-51296140D02*
X147409047Y-52096140D01*
X147256666Y-51296140D02*
X146799523Y-51296140D01*
X147028095Y-52096140D02*
X147028095Y-51296140D01*
X146075713Y-52019949D02*
X146113809Y-52058045D01*
X146113809Y-52058045D02*
X146228094Y-52096140D01*
X146228094Y-52096140D02*
X146304285Y-52096140D01*
X146304285Y-52096140D02*
X146418571Y-52058045D01*
X146418571Y-52058045D02*
X146494761Y-51981854D01*
X146494761Y-51981854D02*
X146532856Y-51905664D01*
X146532856Y-51905664D02*
X146570952Y-51753283D01*
X146570952Y-51753283D02*
X146570952Y-51638997D01*
X146570952Y-51638997D02*
X146532856Y-51486616D01*
X146532856Y-51486616D02*
X146494761Y-51410425D01*
X146494761Y-51410425D02*
X146418571Y-51334235D01*
X146418571Y-51334235D02*
X146304285Y-51296140D01*
X146304285Y-51296140D02*
X146228094Y-51296140D01*
X146228094Y-51296140D02*
X146113809Y-51334235D01*
X146113809Y-51334235D02*
X146075713Y-51372330D01*
X145732856Y-52096140D02*
X145732856Y-51296140D01*
X145732856Y-51677092D02*
X145275713Y-51677092D01*
X145275713Y-52096140D02*
X145275713Y-51296140D01*
X144894761Y-52096140D02*
X144894761Y-51296140D01*
X144894761Y-51296140D02*
X144704285Y-51296140D01*
X144704285Y-51296140D02*
X144589999Y-51334235D01*
X144589999Y-51334235D02*
X144513809Y-51410425D01*
X144513809Y-51410425D02*
X144475714Y-51486616D01*
X144475714Y-51486616D02*
X144437618Y-51638997D01*
X144437618Y-51638997D02*
X144437618Y-51753283D01*
X144437618Y-51753283D02*
X144475714Y-51905664D01*
X144475714Y-51905664D02*
X144513809Y-51981854D01*
X144513809Y-51981854D02*
X144589999Y-52058045D01*
X144589999Y-52058045D02*
X144704285Y-52096140D01*
X144704285Y-52096140D02*
X144894761Y-52096140D01*
X143942380Y-51296140D02*
X143789999Y-51296140D01*
X143789999Y-51296140D02*
X143713809Y-51334235D01*
X143713809Y-51334235D02*
X143637618Y-51410425D01*
X143637618Y-51410425D02*
X143599523Y-51562806D01*
X143599523Y-51562806D02*
X143599523Y-51829473D01*
X143599523Y-51829473D02*
X143637618Y-51981854D01*
X143637618Y-51981854D02*
X143713809Y-52058045D01*
X143713809Y-52058045D02*
X143789999Y-52096140D01*
X143789999Y-52096140D02*
X143942380Y-52096140D01*
X143942380Y-52096140D02*
X144018571Y-52058045D01*
X144018571Y-52058045D02*
X144094761Y-51981854D01*
X144094761Y-51981854D02*
X144132857Y-51829473D01*
X144132857Y-51829473D02*
X144132857Y-51562806D01*
X144132857Y-51562806D02*
X144094761Y-51410425D01*
X144094761Y-51410425D02*
X144018571Y-51334235D01*
X144018571Y-51334235D02*
X143942380Y-51296140D01*
X142837619Y-51334235D02*
X142913809Y-51296140D01*
X142913809Y-51296140D02*
X143028095Y-51296140D01*
X143028095Y-51296140D02*
X143142381Y-51334235D01*
X143142381Y-51334235D02*
X143218571Y-51410425D01*
X143218571Y-51410425D02*
X143256666Y-51486616D01*
X143256666Y-51486616D02*
X143294762Y-51638997D01*
X143294762Y-51638997D02*
X143294762Y-51753283D01*
X143294762Y-51753283D02*
X143256666Y-51905664D01*
X143256666Y-51905664D02*
X143218571Y-51981854D01*
X143218571Y-51981854D02*
X143142381Y-52058045D01*
X143142381Y-52058045D02*
X143028095Y-52096140D01*
X143028095Y-52096140D02*
X142951904Y-52096140D01*
X142951904Y-52096140D02*
X142837619Y-52058045D01*
X142837619Y-52058045D02*
X142799523Y-52019949D01*
X142799523Y-52019949D02*
X142799523Y-51753283D01*
X142799523Y-51753283D02*
X142951904Y-51753283D01*
X152742381Y-52850761D02*
X152551905Y-53384095D01*
X152551905Y-53384095D02*
X152361428Y-52850761D01*
X151637619Y-53384095D02*
X152094762Y-53384095D01*
X151866190Y-53384095D02*
X151866190Y-52584095D01*
X151866190Y-52584095D02*
X151942381Y-52698380D01*
X151942381Y-52698380D02*
X152018571Y-52774571D01*
X152018571Y-52774571D02*
X152094762Y-52812666D01*
X151294761Y-53307904D02*
X151256666Y-53346000D01*
X151256666Y-53346000D02*
X151294761Y-53384095D01*
X151294761Y-53384095D02*
X151332857Y-53346000D01*
X151332857Y-53346000D02*
X151294761Y-53307904D01*
X151294761Y-53307904D02*
X151294761Y-53384095D01*
X150494762Y-53384095D02*
X150951905Y-53384095D01*
X150723333Y-53384095D02*
X150723333Y-52584095D01*
X150723333Y-52584095D02*
X150799524Y-52698380D01*
X150799524Y-52698380D02*
X150875714Y-52774571D01*
X150875714Y-52774571D02*
X150951905Y-52812666D01*
X149389999Y-52584095D02*
X149313809Y-52584095D01*
X149313809Y-52584095D02*
X149237618Y-52622190D01*
X149237618Y-52622190D02*
X149199523Y-52660285D01*
X149199523Y-52660285D02*
X149161428Y-52736476D01*
X149161428Y-52736476D02*
X149123333Y-52888857D01*
X149123333Y-52888857D02*
X149123333Y-53079333D01*
X149123333Y-53079333D02*
X149161428Y-53231714D01*
X149161428Y-53231714D02*
X149199523Y-53307904D01*
X149199523Y-53307904D02*
X149237618Y-53346000D01*
X149237618Y-53346000D02*
X149313809Y-53384095D01*
X149313809Y-53384095D02*
X149389999Y-53384095D01*
X149389999Y-53384095D02*
X149466190Y-53346000D01*
X149466190Y-53346000D02*
X149504285Y-53307904D01*
X149504285Y-53307904D02*
X149542380Y-53231714D01*
X149542380Y-53231714D02*
X149580476Y-53079333D01*
X149580476Y-53079333D02*
X149580476Y-52888857D01*
X149580476Y-52888857D02*
X149542380Y-52736476D01*
X149542380Y-52736476D02*
X149504285Y-52660285D01*
X149504285Y-52660285D02*
X149466190Y-52622190D01*
X149466190Y-52622190D02*
X149389999Y-52584095D01*
X148437618Y-52850761D02*
X148437618Y-53384095D01*
X148628094Y-52546000D02*
X148818571Y-53117428D01*
X148818571Y-53117428D02*
X148323332Y-53117428D01*
X147447142Y-52546000D02*
X148132856Y-53574571D01*
X147218571Y-52660285D02*
X147180475Y-52622190D01*
X147180475Y-52622190D02*
X147104285Y-52584095D01*
X147104285Y-52584095D02*
X146913809Y-52584095D01*
X146913809Y-52584095D02*
X146837618Y-52622190D01*
X146837618Y-52622190D02*
X146799523Y-52660285D01*
X146799523Y-52660285D02*
X146761428Y-52736476D01*
X146761428Y-52736476D02*
X146761428Y-52812666D01*
X146761428Y-52812666D02*
X146799523Y-52926952D01*
X146799523Y-52926952D02*
X147256666Y-53384095D01*
X147256666Y-53384095D02*
X146761428Y-53384095D01*
X146266189Y-52584095D02*
X146189999Y-52584095D01*
X146189999Y-52584095D02*
X146113808Y-52622190D01*
X146113808Y-52622190D02*
X146075713Y-52660285D01*
X146075713Y-52660285D02*
X146037618Y-52736476D01*
X146037618Y-52736476D02*
X145999523Y-52888857D01*
X145999523Y-52888857D02*
X145999523Y-53079333D01*
X145999523Y-53079333D02*
X146037618Y-53231714D01*
X146037618Y-53231714D02*
X146075713Y-53307904D01*
X146075713Y-53307904D02*
X146113808Y-53346000D01*
X146113808Y-53346000D02*
X146189999Y-53384095D01*
X146189999Y-53384095D02*
X146266189Y-53384095D01*
X146266189Y-53384095D02*
X146342380Y-53346000D01*
X146342380Y-53346000D02*
X146380475Y-53307904D01*
X146380475Y-53307904D02*
X146418570Y-53231714D01*
X146418570Y-53231714D02*
X146456666Y-53079333D01*
X146456666Y-53079333D02*
X146456666Y-52888857D01*
X146456666Y-52888857D02*
X146418570Y-52736476D01*
X146418570Y-52736476D02*
X146380475Y-52660285D01*
X146380475Y-52660285D02*
X146342380Y-52622190D01*
X146342380Y-52622190D02*
X146266189Y-52584095D01*
X145694761Y-52660285D02*
X145656665Y-52622190D01*
X145656665Y-52622190D02*
X145580475Y-52584095D01*
X145580475Y-52584095D02*
X145389999Y-52584095D01*
X145389999Y-52584095D02*
X145313808Y-52622190D01*
X145313808Y-52622190D02*
X145275713Y-52660285D01*
X145275713Y-52660285D02*
X145237618Y-52736476D01*
X145237618Y-52736476D02*
X145237618Y-52812666D01*
X145237618Y-52812666D02*
X145275713Y-52926952D01*
X145275713Y-52926952D02*
X145732856Y-53384095D01*
X145732856Y-53384095D02*
X145237618Y-53384095D01*
X144551903Y-52584095D02*
X144704284Y-52584095D01*
X144704284Y-52584095D02*
X144780475Y-52622190D01*
X144780475Y-52622190D02*
X144818570Y-52660285D01*
X144818570Y-52660285D02*
X144894760Y-52774571D01*
X144894760Y-52774571D02*
X144932856Y-52926952D01*
X144932856Y-52926952D02*
X144932856Y-53231714D01*
X144932856Y-53231714D02*
X144894760Y-53307904D01*
X144894760Y-53307904D02*
X144856665Y-53346000D01*
X144856665Y-53346000D02*
X144780475Y-53384095D01*
X144780475Y-53384095D02*
X144628094Y-53384095D01*
X144628094Y-53384095D02*
X144551903Y-53346000D01*
X144551903Y-53346000D02*
X144513808Y-53307904D01*
X144513808Y-53307904D02*
X144475713Y-53231714D01*
X144475713Y-53231714D02*
X144475713Y-53041238D01*
X144475713Y-53041238D02*
X144513808Y-52965047D01*
X144513808Y-52965047D02*
X144551903Y-52926952D01*
X144551903Y-52926952D02*
X144628094Y-52888857D01*
X144628094Y-52888857D02*
X144780475Y-52888857D01*
X144780475Y-52888857D02*
X144856665Y-52926952D01*
X144856665Y-52926952D02*
X144894760Y-52965047D01*
X144894760Y-52965047D02*
X144932856Y-53041238D01*
D11*
%TO.C,G\u002A\u002A\u002A*%
G36*
X140950454Y-62289477D02*
G01*
X140964632Y-62290768D01*
X141090378Y-62321733D01*
X141139946Y-62385326D01*
X141137588Y-62431762D01*
X141087433Y-62459629D01*
X140965882Y-62466736D01*
X140850363Y-62460754D01*
X140790776Y-62432971D01*
X140776391Y-62370887D01*
X140785840Y-62314505D01*
X140835268Y-62287242D01*
X140950454Y-62289477D01*
G37*
G36*
X141086099Y-61956725D02*
G01*
X141186669Y-61968011D01*
X141231408Y-61996090D01*
X141241592Y-62048055D01*
X141236461Y-62089264D01*
X141202603Y-62122787D01*
X141118366Y-62137700D01*
X140962471Y-62141095D01*
X140838843Y-62139384D01*
X140738273Y-62128099D01*
X140693535Y-62100020D01*
X140683350Y-62048055D01*
X140688482Y-62006845D01*
X140722339Y-61973322D01*
X140806576Y-61958409D01*
X140962471Y-61955014D01*
X141086099Y-61956725D01*
G37*
G36*
X141186083Y-61632394D02*
G01*
X141329000Y-61642578D01*
X141405179Y-61661667D01*
X141427673Y-61691400D01*
X141426402Y-61714829D01*
X141408493Y-61772810D01*
X141388299Y-61777319D01*
X141292206Y-61781761D01*
X141136786Y-61781848D01*
X140943292Y-61777372D01*
X140934934Y-61777091D01*
X140722167Y-61766788D01*
X140587763Y-61751558D01*
X140517528Y-61728813D01*
X140497270Y-61695961D01*
X140498281Y-61686912D01*
X140526124Y-61658598D01*
X140603018Y-61640966D01*
X140743591Y-61631923D01*
X140962471Y-61629373D01*
X140963379Y-61629373D01*
X141186083Y-61632394D01*
G37*
G36*
X141191879Y-61257848D02*
G01*
X141366546Y-61261389D01*
X141476587Y-61270118D01*
X141536831Y-61286318D01*
X141562104Y-61312269D01*
X141567233Y-61350252D01*
X141563101Y-61385546D01*
X141540086Y-61412418D01*
X141483342Y-61429347D01*
X141378043Y-61438615D01*
X141209362Y-61442504D01*
X140962471Y-61443293D01*
X140733063Y-61442657D01*
X140558397Y-61439116D01*
X140448355Y-61430386D01*
X140388112Y-61414187D01*
X140362839Y-61388236D01*
X140357709Y-61350252D01*
X140361841Y-61314959D01*
X140384857Y-61288087D01*
X140441600Y-61271158D01*
X140546899Y-61261889D01*
X140715580Y-61258001D01*
X140962471Y-61257212D01*
X141191879Y-61257848D01*
G37*
G36*
X139183603Y-57181298D02*
G01*
X139184381Y-57310302D01*
X139186275Y-57810042D01*
X139185734Y-58222671D01*
X139182656Y-58552979D01*
X139176945Y-58805754D01*
X139168501Y-58985786D01*
X139157224Y-59097863D01*
X139143016Y-59146774D01*
X139124704Y-59162268D01*
X139016008Y-59197501D01*
X138845804Y-59210326D01*
X138785026Y-59208908D01*
X138632352Y-59188253D01*
X138548593Y-59146774D01*
X138545027Y-59140796D01*
X138531509Y-59077646D01*
X138520899Y-58950217D01*
X138513098Y-58753723D01*
X138508007Y-58483372D01*
X138505527Y-58134377D01*
X138505560Y-57701949D01*
X138508006Y-57181298D01*
X138520163Y-55279373D01*
X138845804Y-55279373D01*
X139171445Y-55279373D01*
X139183603Y-57181298D01*
G37*
G36*
X143106634Y-55265332D02*
G01*
X143404779Y-55279373D01*
X143416940Y-57186654D01*
X143417957Y-57360944D01*
X143419563Y-57764301D01*
X143420014Y-58135377D01*
X143419362Y-58464046D01*
X143417659Y-58740181D01*
X143414958Y-58953658D01*
X143411311Y-59094349D01*
X143406770Y-59152130D01*
X143379780Y-59175004D01*
X143281236Y-59199589D01*
X143141500Y-59209950D01*
X142991664Y-59205968D01*
X142862820Y-59187525D01*
X142786061Y-59154502D01*
X142782788Y-59148135D01*
X142770905Y-59068772D01*
X142760381Y-58911634D01*
X142751264Y-58688855D01*
X142743606Y-58412567D01*
X142737457Y-58094904D01*
X142732868Y-57747998D01*
X142729889Y-57383982D01*
X142728570Y-57014990D01*
X142728963Y-56653153D01*
X142731117Y-56310606D01*
X142735083Y-55999480D01*
X142740911Y-55731908D01*
X142748652Y-55520025D01*
X142758357Y-55375962D01*
X142770075Y-55311852D01*
X142802513Y-55286470D01*
X142913883Y-55264832D01*
X143106634Y-55265332D01*
G37*
G36*
X141371121Y-52458215D02*
G01*
X141720946Y-52494093D01*
X142009174Y-52550488D01*
X142060369Y-52564580D01*
X142551120Y-52737957D01*
X142983724Y-52962679D01*
X143350661Y-53233293D01*
X143644411Y-53544348D01*
X143857453Y-53890392D01*
X143868197Y-53913295D01*
X143924796Y-54040198D01*
X143964282Y-54151374D01*
X143990369Y-54268573D01*
X144006773Y-54413546D01*
X144017206Y-54608046D01*
X144025384Y-54873823D01*
X144043225Y-55538235D01*
X144168713Y-55603128D01*
X144403009Y-55769798D01*
X144618994Y-56012490D01*
X144801608Y-56310718D01*
X144939508Y-56645905D01*
X145021352Y-56999477D01*
X145040816Y-57205208D01*
X145017179Y-57609427D01*
X144906064Y-57983960D01*
X144706420Y-58331683D01*
X144417201Y-58655467D01*
X144122437Y-58931205D01*
X143823393Y-58931205D01*
X143524350Y-58931205D01*
X143511084Y-56593567D01*
X143509885Y-56374934D01*
X143507185Y-55869299D01*
X143504247Y-55445088D01*
X143500028Y-55093925D01*
X143493484Y-54807433D01*
X143483573Y-54577236D01*
X143469253Y-54394958D01*
X143449479Y-54252222D01*
X143423209Y-54140651D01*
X143389400Y-54051871D01*
X143347009Y-53977503D01*
X143294994Y-53909171D01*
X143232310Y-53838500D01*
X143157916Y-53757113D01*
X142982717Y-53587397D01*
X142654716Y-53358370D01*
X142276583Y-53178575D01*
X141861250Y-53047977D01*
X141421647Y-52966537D01*
X140970705Y-52934218D01*
X140521355Y-52950984D01*
X140086529Y-53016797D01*
X139679156Y-53131620D01*
X139312168Y-53295416D01*
X138998495Y-53508148D01*
X138751069Y-53769778D01*
X138690320Y-53852610D01*
X138630367Y-53938808D01*
X138580585Y-54022919D01*
X138540015Y-54113589D01*
X138507695Y-54219466D01*
X138482664Y-54349199D01*
X138463960Y-54511436D01*
X138450624Y-54714824D01*
X138441694Y-54968012D01*
X138436209Y-55279647D01*
X138433208Y-55658378D01*
X138431730Y-56112852D01*
X138430814Y-56651718D01*
X138427123Y-58907945D01*
X138154051Y-58922063D01*
X137939120Y-58911260D01*
X137744572Y-58844740D01*
X137559501Y-58711419D01*
X137364045Y-58500704D01*
X137254692Y-58354115D01*
X137057725Y-57988246D01*
X136938497Y-57594838D01*
X136899185Y-57189372D01*
X136941969Y-56787331D01*
X137069025Y-56404195D01*
X137129604Y-56289252D01*
X137271356Y-56079799D01*
X137440121Y-55880292D01*
X137613923Y-55715584D01*
X137770785Y-55610532D01*
X137930135Y-55534915D01*
X137946028Y-54846277D01*
X137950495Y-54659891D01*
X137957929Y-54443013D01*
X137969642Y-54284018D01*
X137989495Y-54161794D01*
X138021347Y-54055230D01*
X138069059Y-53943214D01*
X138136491Y-53804634D01*
X138260615Y-53587040D01*
X138539264Y-53242767D01*
X138889628Y-52952487D01*
X139306548Y-52720127D01*
X139784862Y-52549618D01*
X139911823Y-52520091D01*
X140230052Y-52473791D01*
X140597876Y-52448053D01*
X140987499Y-52442864D01*
X141371121Y-52458215D01*
G37*
G36*
X141591782Y-54119783D02*
G01*
X141495184Y-54305667D01*
X141381152Y-54521594D01*
X141055511Y-55133777D01*
X141055511Y-55840177D01*
X141055511Y-56546577D01*
X141267749Y-56570499D01*
X141390060Y-56596338D01*
X141550980Y-56671569D01*
X141664079Y-56775781D01*
X141706793Y-56892427D01*
X141682154Y-56973999D01*
X141611863Y-57072289D01*
X141523879Y-57160273D01*
X141516933Y-57167219D01*
X141611863Y-57287903D01*
X141636206Y-57319612D01*
X141695993Y-57424596D01*
X141686796Y-57510104D01*
X141608220Y-57611270D01*
X141509646Y-57716197D01*
X141528195Y-57739778D01*
X141608220Y-57841513D01*
X141651961Y-57899270D01*
X141698044Y-57991079D01*
X141677315Y-58069431D01*
X141587473Y-58170872D01*
X141558140Y-58200326D01*
X141500684Y-58267631D01*
X141501656Y-58279923D01*
X141504005Y-58309619D01*
X141564213Y-58357476D01*
X141610620Y-58401907D01*
X141658638Y-58525362D01*
X141640051Y-58660116D01*
X141555603Y-58770571D01*
X141512310Y-58813154D01*
X141491086Y-58834030D01*
X141510062Y-58870452D01*
X141567519Y-58911860D01*
X141637278Y-59020227D01*
X141674764Y-59147565D01*
X141663042Y-59251672D01*
X141655995Y-59262843D01*
X141568786Y-59337507D01*
X141431404Y-59411040D01*
X141279222Y-59467125D01*
X141147610Y-59489447D01*
X141128954Y-59490304D01*
X141099280Y-59502334D01*
X141078894Y-59539443D01*
X141066060Y-59615223D01*
X141059042Y-59743267D01*
X141056105Y-59937164D01*
X141055511Y-60210509D01*
X141055511Y-60931571D01*
X141381152Y-60931571D01*
X141411225Y-60931606D01*
X141570437Y-60934979D01*
X141659480Y-60947952D01*
X141698287Y-60976292D01*
X141706793Y-61025764D01*
X141704936Y-61053203D01*
X141689945Y-61080249D01*
X141648456Y-61098163D01*
X141567164Y-61108379D01*
X141432766Y-61112330D01*
X141231957Y-61111450D01*
X140951433Y-61107174D01*
X140912437Y-61106503D01*
X140639198Y-61100661D01*
X140444146Y-61093168D01*
X140314033Y-61082440D01*
X140235609Y-61066891D01*
X140195623Y-61044937D01*
X140180826Y-61014993D01*
X140180108Y-61010923D01*
X140186836Y-60971305D01*
X140234237Y-60946455D01*
X140339766Y-60931596D01*
X140520879Y-60921952D01*
X140876178Y-60908311D01*
X140884434Y-60117469D01*
X140892691Y-59326626D01*
X141125292Y-59299225D01*
X141297541Y-59273839D01*
X141443567Y-59232678D01*
X141503229Y-59178676D01*
X141480216Y-59107696D01*
X141378219Y-59015601D01*
X141307877Y-58971749D01*
X141216020Y-58955165D01*
X141084675Y-58981648D01*
X140998270Y-59000754D01*
X140816240Y-59026321D01*
X140627550Y-59039643D01*
X140577085Y-59040740D01*
X140429828Y-59035316D01*
X140341179Y-59009613D01*
X140284376Y-58957204D01*
X140233682Y-58879673D01*
X140229467Y-58838165D01*
X140404229Y-58838165D01*
X140440008Y-58865611D01*
X140536935Y-58880745D01*
X140662569Y-58881215D01*
X140784278Y-58867021D01*
X140869431Y-58838165D01*
X140883468Y-58813154D01*
X140820847Y-58797579D01*
X140671720Y-58792357D01*
X140556009Y-58796611D01*
X140446440Y-58813176D01*
X140404229Y-58838165D01*
X140229467Y-58838165D01*
X140226824Y-58812143D01*
X140277931Y-58727670D01*
X140370692Y-58660469D01*
X140537911Y-58622885D01*
X140754725Y-58625568D01*
X141002422Y-58670009D01*
X141158791Y-58707465D01*
X141263228Y-58721082D01*
X141336018Y-58708472D01*
X141406645Y-58669603D01*
X141442467Y-58644993D01*
X141509999Y-58574697D01*
X141491047Y-58513285D01*
X141383942Y-58444186D01*
X141313887Y-58412475D01*
X141231399Y-58397115D01*
X141123995Y-58408589D01*
X140959656Y-58447117D01*
X140851527Y-58471515D01*
X140602634Y-58495178D01*
X140414306Y-58459675D01*
X140292776Y-58365765D01*
X140252090Y-58279923D01*
X140450750Y-58279923D01*
X140459713Y-58293451D01*
X140533454Y-58317088D01*
X140657345Y-58326443D01*
X140714483Y-58324692D01*
X140832435Y-58308187D01*
X140892691Y-58279923D01*
X140891769Y-58263877D01*
X140826222Y-58241466D01*
X140686096Y-58233403D01*
X140599784Y-58236661D01*
X140492616Y-58253518D01*
X140450750Y-58279923D01*
X140252090Y-58279923D01*
X140248006Y-58271306D01*
X140272035Y-58177792D01*
X140385717Y-58100143D01*
X140418521Y-58086390D01*
X140572708Y-58052267D01*
X140761711Y-58060963D01*
X141009168Y-58112963D01*
X141076379Y-58129811D01*
X141208845Y-58153965D01*
X141302048Y-58147988D01*
X141391467Y-58111768D01*
X141420252Y-58096249D01*
X141505225Y-58027908D01*
X141499988Y-57960813D01*
X141405394Y-57880867D01*
X141365753Y-57856292D01*
X141293817Y-57829841D01*
X141207803Y-57837714D01*
X141071466Y-57879794D01*
X141007515Y-57899874D01*
X140792960Y-57943538D01*
X140595528Y-57951505D01*
X140427797Y-57928197D01*
X140302343Y-57878033D01*
X140231744Y-57805433D01*
X140229706Y-57747131D01*
X140420966Y-57747131D01*
X140478082Y-57786587D01*
X140495106Y-57792672D01*
X140568498Y-57806636D01*
X140671672Y-57803005D01*
X140835329Y-57781325D01*
X140893289Y-57769242D01*
X140942508Y-57739778D01*
X140916483Y-57709078D01*
X140826376Y-57684940D01*
X140683350Y-57675161D01*
X140537854Y-57684929D01*
X140444877Y-57711080D01*
X140420966Y-57747131D01*
X140229706Y-57747131D01*
X140228577Y-57714816D01*
X140305419Y-57610602D01*
X140311303Y-57605405D01*
X140476686Y-57523856D01*
X140709407Y-57506023D01*
X141008991Y-57551946D01*
X141150905Y-57583058D01*
X141268637Y-57598798D01*
X141347645Y-57589308D01*
X141416043Y-57554786D01*
X141428246Y-57546715D01*
X141507802Y-57471467D01*
X141497875Y-57404861D01*
X141397409Y-57334406D01*
X141305387Y-57298086D01*
X141207264Y-57297260D01*
X141064375Y-57332920D01*
X140848984Y-57381344D01*
X140622959Y-57396163D01*
X140436193Y-57369751D01*
X140311189Y-57303000D01*
X140239419Y-57217222D01*
X140230354Y-57158150D01*
X140430758Y-57158150D01*
X140438891Y-57191215D01*
X140509423Y-57227295D01*
X140581186Y-57242753D01*
X140660090Y-57248874D01*
X140749665Y-57236043D01*
X140877329Y-57212162D01*
X140934769Y-57188532D01*
X140937254Y-57160273D01*
X140933830Y-57156116D01*
X140864333Y-57131556D01*
X140743379Y-57119329D01*
X140606866Y-57119585D01*
X140490693Y-57132476D01*
X140430758Y-57158150D01*
X140230354Y-57158150D01*
X140227237Y-57137841D01*
X140289424Y-57052289D01*
X140325730Y-57021796D01*
X140491289Y-56957027D01*
X140717149Y-56949775D01*
X140992844Y-57000806D01*
X141102897Y-57029240D01*
X141238115Y-57054616D01*
X141330295Y-57051748D01*
X141407757Y-57022089D01*
X141497201Y-56955172D01*
X141521243Y-56877131D01*
X141463734Y-56806057D01*
X141330784Y-56748738D01*
X141128505Y-56711960D01*
X140869431Y-56685221D01*
X140869431Y-55908148D01*
X140869431Y-55131074D01*
X140543790Y-54535051D01*
X140494295Y-54444005D01*
X140385405Y-54240168D01*
X140303126Y-54081480D01*
X140505357Y-54081480D01*
X140505780Y-54082398D01*
X140535471Y-54141584D01*
X140595271Y-54257904D01*
X140672724Y-54407121D01*
X140678716Y-54418584D01*
X140755640Y-54559728D01*
X140815879Y-54659831D01*
X140846840Y-54697871D01*
X140847737Y-54697617D01*
X140858701Y-54649054D01*
X140866476Y-54532747D01*
X140869431Y-54372230D01*
X140869431Y-54046589D01*
X141055511Y-54046589D01*
X141055511Y-54372230D01*
X141055522Y-54385132D01*
X141057531Y-54543184D01*
X141062342Y-54655276D01*
X141068982Y-54697871D01*
X141072388Y-54694919D01*
X141108970Y-54638184D01*
X141174741Y-54524108D01*
X141258339Y-54372230D01*
X141434225Y-54046589D01*
X141244868Y-54046589D01*
X141055511Y-54046589D01*
X140869431Y-54046589D01*
X140679474Y-54046589D01*
X140632635Y-54047693D01*
X140536239Y-54059973D01*
X140505357Y-54081480D01*
X140303126Y-54081480D01*
X140297784Y-54071178D01*
X140239382Y-53952542D01*
X140218149Y-53899768D01*
X140236961Y-53891006D01*
X140332836Y-53878895D01*
X140496092Y-53869228D01*
X140711160Y-53862826D01*
X140962471Y-53860509D01*
X141128569Y-53861127D01*
X141358187Y-53864276D01*
X141541478Y-53869639D01*
X141662870Y-53876704D01*
X141706793Y-53884960D01*
X141702061Y-53898009D01*
X141663293Y-53978909D01*
X141628937Y-54046589D01*
X141591782Y-54119783D01*
G37*
%TD*%
M02*
