%TF.GenerationSoftware,KiCad,Pcbnew,9.0.7*%
%TF.CreationDate,2026-09-18T22:44:05+02:00*%
%TF.ProjectId,WatchDog_Optokoppler_v1.1,57617463-6844-46f6-975f-4f70746f6b6f,rev?*%
%TF.SameCoordinates,Original*%
%TF.FileFunction,Copper,L1,Top*%
%TF.FilePolarity,Positive*%
%FSLAX46Y46*%
G04 Gerber Fmt 4.6, Leading zero omitted, Abs format (unit mm)*
G04 Created by KiCad (PCBNEW 9.0.7) date 2026-09-18 22:44:05*
%MOMM*%
%LPD*%
G01*
G04 APERTURE LIST*
G04 Aperture macros list*
%AMRoundRect*
0 Rectangle with rounded corners*
0 $1 Rounding radius*
0 $2 $3 $4 $5 $6 $7 $8 $9 X,Y pos of 4 corners*
0 Add a 4 corners polygon primitive as box body*
4,1,4,$2,$3,$4,$5,$6,$7,$8,$9,$2,$3,0*
0 Add four circle primitives for the rounded corners*
1,1,$1+$1,$2,$3*
1,1,$1+$1,$4,$5*
1,1,$1+$1,$6,$7*
1,1,$1+$1,$8,$9*
0 Add four rect primitives between the rounded corners*
20,1,$1+$1,$2,$3,$4,$5,0*
20,1,$1+$1,$4,$5,$6,$7,0*
20,1,$1+$1,$6,$7,$8,$9,0*
20,1,$1+$1,$8,$9,$2,$3,0*%
G04 Aperture macros list end*
%TA.AperFunction,SMDPad,CuDef*%
%ADD10RoundRect,0.250000X-0.450000X0.262500X-0.450000X-0.262500X0.450000X-0.262500X0.450000X0.262500X0*%
%TD*%
%TA.AperFunction,SMDPad,CuDef*%
%ADD11RoundRect,0.250000X0.450000X-0.262500X0.450000X0.262500X-0.450000X0.262500X-0.450000X-0.262500X0*%
%TD*%
%TA.AperFunction,ComponentPad*%
%ADD12R,1.700000X1.700000*%
%TD*%
%TA.AperFunction,ComponentPad*%
%ADD13C,1.700000*%
%TD*%
%TA.AperFunction,SMDPad,CuDef*%
%ADD14RoundRect,0.250000X0.250000X0.475000X-0.250000X0.475000X-0.250000X-0.475000X0.250000X-0.475000X0*%
%TD*%
%TA.AperFunction,SMDPad,CuDef*%
%ADD15RoundRect,0.250000X1.250000X0.550000X-1.250000X0.550000X-1.250000X-0.550000X1.250000X-0.550000X0*%
%TD*%
%TA.AperFunction,SMDPad,CuDef*%
%ADD16RoundRect,0.250000X0.262500X0.450000X-0.262500X0.450000X-0.262500X-0.450000X0.262500X-0.450000X0*%
%TD*%
%TA.AperFunction,SMDPad,CuDef*%
%ADD17RoundRect,0.250000X-0.262500X-0.450000X0.262500X-0.450000X0.262500X0.450000X-0.262500X0.450000X0*%
%TD*%
%TA.AperFunction,SMDPad,CuDef*%
%ADD18RoundRect,0.150000X-0.587500X-0.150000X0.587500X-0.150000X0.587500X0.150000X-0.587500X0.150000X0*%
%TD*%
%TA.AperFunction,SMDPad,CuDef*%
%ADD19RoundRect,0.243750X-0.243750X-0.456250X0.243750X-0.456250X0.243750X0.456250X-0.243750X0.456250X0*%
%TD*%
%TA.AperFunction,SMDPad,CuDef*%
%ADD20RoundRect,0.150000X-0.825000X-0.150000X0.825000X-0.150000X0.825000X0.150000X-0.825000X0.150000X0*%
%TD*%
%TA.AperFunction,SMDPad,CuDef*%
%ADD21R,1.500000X0.600000*%
%TD*%
%TA.AperFunction,ViaPad*%
%ADD22C,0.600000*%
%TD*%
%TA.AperFunction,Conductor*%
%ADD23C,0.200000*%
%TD*%
G04 APERTURE END LIST*
D10*
%TO.P,R8,1*%
%TO.N,Net-(J2-Pin_1)*%
X152200000Y-61200000D03*
%TO.P,R8,2*%
%TO.N,Net-(J1-Pin_1)*%
X152200000Y-63025000D03*
%TD*%
D11*
%TO.P,R7,1*%
%TO.N,GND*%
X152200000Y-59450000D03*
%TO.P,R7,2*%
%TO.N,Net-(J2-Pin_2)*%
X152200000Y-57625000D03*
%TD*%
D12*
%TO.P,J1,1,Pin_1*%
%TO.N,Net-(J1-Pin_1)*%
X127450000Y-53250000D03*
D13*
%TO.P,J1,2,Pin_2*%
%TO.N,GND*%
X127450000Y-55790000D03*
%TO.P,J1,3,Pin_3*%
%TO.N,unconnected-(J1-Pin_3-Pad3)*%
X127450000Y-58330000D03*
%TO.P,J1,4,Pin_4*%
%TO.N,Net-(D1-K)*%
X127450000Y-60870000D03*
%TD*%
D14*
%TO.P,C2,1*%
%TO.N,GND*%
X145161000Y-61772800D03*
%TO.P,C2,2*%
%TO.N,Net-(U1-CV)*%
X143261000Y-61772800D03*
%TD*%
D15*
%TO.P,C3,1*%
%TO.N,Net-(D1-A)*%
X140309600Y-60858400D03*
%TO.P,C3,2*%
%TO.N,GND*%
X135909600Y-60858400D03*
%TD*%
D16*
%TO.P,R4,1*%
%TO.N,GND*%
X148793200Y-61823600D03*
%TO.P,R4,2*%
%TO.N,Net-(Q1-G)*%
X146968200Y-61823600D03*
%TD*%
D17*
%TO.P,R3,1*%
%TO.N,Net-(U1-Q)*%
X143310600Y-59309000D03*
%TO.P,R3,2*%
%TO.N,Net-(Q1-G)*%
X145135600Y-59309000D03*
%TD*%
D18*
%TO.P,Q1,3,D*%
%TO.N,Net-(Q1-D)*%
X149199600Y-58420000D03*
%TO.P,Q1,2,S*%
%TO.N,GND*%
X147324600Y-59370000D03*
%TO.P,Q1,1,G*%
%TO.N,Net-(Q1-G)*%
X147324600Y-57470000D03*
%TD*%
D19*
%TO.P,D1,1,K*%
%TO.N,Net-(D1-K)*%
X131017800Y-59639200D03*
%TO.P,D1,2,A*%
%TO.N,Net-(D1-A)*%
X132892800Y-59639200D03*
%TD*%
D20*
%TO.P,U1,1,GND*%
%TO.N,GND*%
X135185000Y-53060200D03*
%TO.P,U1,2,TR*%
%TO.N,Net-(D1-K)*%
X135185000Y-54330200D03*
%TO.P,U1,3,Q*%
%TO.N,Net-(U1-Q)*%
X135185000Y-55600200D03*
%TO.P,U1,4,R*%
%TO.N,Net-(U1-R)*%
X135185000Y-56870200D03*
%TO.P,U1,5,CV*%
%TO.N,Net-(U1-CV)*%
X140135000Y-56870200D03*
%TO.P,U1,6,THR*%
%TO.N,Net-(D1-A)*%
X140135000Y-55600200D03*
%TO.P,U1,7,DIS*%
X140135000Y-54330200D03*
%TO.P,U1,8,VCC*%
%TO.N,Net-(J1-Pin_1)*%
X140135000Y-53060200D03*
%TD*%
D21*
%TO.P,U2,1*%
%TO.N,Net-(R6-Pad1)*%
X147294600Y-52705000D03*
%TO.P,U2,2*%
%TO.N,Net-(Q1-D)*%
X147294600Y-55245000D03*
%TO.P,U2,3*%
%TO.N,Net-(J2-Pin_2)*%
X153644600Y-55245000D03*
%TO.P,U2,4*%
%TO.N,Net-(J2-Pin_1)*%
X153644600Y-52705000D03*
%TD*%
D12*
%TO.P,J2,1,Pin_1*%
%TO.N,Net-(J2-Pin_1)*%
X154950000Y-61590000D03*
D13*
%TO.P,J2,2,Pin_2*%
%TO.N,Net-(J2-Pin_2)*%
X154950000Y-59050000D03*
%TD*%
D16*
%TO.P,R6,1*%
%TO.N,Net-(R6-Pad1)*%
X145055600Y-52578000D03*
%TO.P,R6,2*%
%TO.N,Net-(J1-Pin_1)*%
X143230600Y-52578000D03*
%TD*%
D10*
%TO.P,R2,1*%
%TO.N,Net-(J1-Pin_1)*%
X143484600Y-55071000D03*
%TO.P,R2,2*%
%TO.N,Net-(D1-A)*%
X143484600Y-56896000D03*
%TD*%
D17*
%TO.P,R1,1*%
%TO.N,Net-(J1-Pin_1)*%
X131037500Y-57450000D03*
%TO.P,R1,2*%
%TO.N,Net-(U1-R)*%
X132862500Y-57450000D03*
%TD*%
D16*
%TO.P,R5,1*%
%TO.N,Net-(D1-K)*%
X132862400Y-55300000D03*
%TO.P,R5,2*%
%TO.N,Net-(J1-Pin_1)*%
X131037400Y-55300000D03*
%TD*%
D14*
%TO.P,C1,1*%
%TO.N,GND*%
X132900000Y-53150000D03*
%TO.P,C1,2*%
%TO.N,Net-(J1-Pin_1)*%
X131000000Y-53150000D03*
%TD*%
D22*
%TO.N,Net-(J1-Pin_1)*%
X150750000Y-60750000D03*
X143329400Y-53870600D03*
%TO.N,Net-(D1-A)*%
X139141200Y-58978800D03*
X134112000Y-58978800D03*
%TO.N,GND*%
X136652000Y-53086000D03*
X137340000Y-60100000D03*
X145161000Y-60553600D03*
X148500000Y-59400000D03*
%TD*%
D23*
%TO.N,Net-(J1-Pin_1)*%
X150925000Y-63025000D02*
X152200000Y-63025000D01*
X150750000Y-62850000D02*
X150925000Y-63025000D01*
X150750000Y-60750000D02*
X150750000Y-62850000D01*
%TO.N,Net-(J2-Pin_1)*%
X156305000Y-52705000D02*
X153644600Y-52705000D01*
X156510000Y-61390000D02*
X156510000Y-52910000D01*
X156510000Y-52910000D02*
X156305000Y-52705000D01*
X156310000Y-61590000D02*
X156510000Y-61390000D01*
X154950000Y-61590000D02*
X156310000Y-61590000D01*
%TO.N,Net-(J1-Pin_1)*%
X143329400Y-53870600D02*
X143484600Y-54025800D01*
%TO.N,GND*%
X152186000Y-59436000D02*
X152200000Y-59450000D01*
X147390600Y-59436000D02*
X152186000Y-59436000D01*
X148793200Y-59479200D02*
X148793200Y-61823600D01*
X148750000Y-59436000D02*
X148793200Y-59479200D01*
X147390600Y-59436000D02*
X148750000Y-59436000D01*
X147324600Y-59370000D02*
X147390600Y-59436000D01*
%TO.N,Net-(J2-Pin_1)*%
X154560000Y-61200000D02*
X154950000Y-61590000D01*
X152200000Y-61200000D02*
X154560000Y-61200000D01*
%TO.N,Net-(D1-A)*%
X139490000Y-59327600D02*
X139490000Y-60350400D01*
X139141200Y-58978800D02*
X138480800Y-58318400D01*
X139141200Y-58978800D02*
X139490000Y-59327600D01*
X138862200Y-55600200D02*
X140135000Y-55600200D01*
X141807800Y-55600200D02*
X140135000Y-55600200D01*
X141833600Y-54457600D02*
X141833600Y-55524400D01*
X133908800Y-59639200D02*
X134112000Y-59436000D01*
X141833600Y-55626000D02*
X141807800Y-55600200D01*
X142290800Y-56896000D02*
X141833600Y-56438800D01*
X140135000Y-54330200D02*
X141706200Y-54330200D01*
X143484600Y-56896000D02*
X142290800Y-56896000D01*
X141833600Y-56438800D02*
X141833600Y-55397400D01*
X134112000Y-59436000D02*
X134112000Y-58978800D01*
X138480800Y-58318400D02*
X138480800Y-55981600D01*
X138480800Y-55981600D02*
X138862200Y-55600200D01*
X132892800Y-59639200D02*
X133908800Y-59639200D01*
X141706200Y-54330200D02*
X141833600Y-54457600D01*
%TO.N,Net-(U1-CV)*%
X142646400Y-61772800D02*
X142290800Y-61417200D01*
X141655400Y-56870200D02*
X140135000Y-56870200D01*
X142290800Y-61417200D02*
X142290800Y-57505600D01*
X142290800Y-57505600D02*
X141655400Y-56870200D01*
X143261000Y-61772800D02*
X142646400Y-61772800D01*
%TO.N,GND*%
X145161000Y-60553600D02*
X145161000Y-61772800D01*
X136626200Y-53060200D02*
X136652000Y-53086000D01*
X135185000Y-53060200D02*
X136626200Y-53060200D01*
X132900000Y-53047400D02*
X132862400Y-53009800D01*
X135185000Y-53060200D02*
X132989800Y-53060200D01*
X132900000Y-53150000D02*
X132900000Y-53047400D01*
%TO.N,Net-(D1-K)*%
X128918800Y-60870000D02*
X130149600Y-59639200D01*
X131978400Y-59334400D02*
X131673600Y-59639200D01*
X127450000Y-60870000D02*
X127512400Y-60807600D01*
X133020200Y-54330200D02*
X132862400Y-54488000D01*
X135185000Y-54330200D02*
X133020200Y-54330200D01*
X132156200Y-55245000D02*
X131978400Y-55422800D01*
X135185000Y-54330200D02*
X135098800Y-54244000D01*
X132862400Y-55245000D02*
X132156200Y-55245000D01*
X130149600Y-59639200D02*
X131017800Y-59639200D01*
X132862400Y-54488000D02*
X132862400Y-55245000D01*
X127450000Y-60870000D02*
X128918800Y-60870000D01*
X131978400Y-55422800D02*
X131978400Y-59334400D01*
X131673600Y-59639200D02*
X131017800Y-59639200D01*
%TO.N,Net-(J1-Pin_1)*%
X127711200Y-53182600D02*
X127716200Y-53187600D01*
X127716200Y-53187600D02*
X130784600Y-53187600D01*
X131037400Y-55245000D02*
X131037400Y-53084800D01*
X140135000Y-53060200D02*
X140135000Y-51743000D01*
X130784600Y-53187600D02*
X130962400Y-53009800D01*
X141884800Y-53060200D02*
X142367000Y-52578000D01*
X139954000Y-51562000D02*
X131114800Y-51562000D01*
X131037400Y-53084800D02*
X130962400Y-53009800D01*
X143484600Y-54025800D02*
X143484600Y-55071000D01*
X140135000Y-53060200D02*
X141884800Y-53060200D01*
X131037400Y-55853400D02*
X131064000Y-55880000D01*
X131037400Y-55245000D02*
X131037400Y-55853400D01*
X130962400Y-51714400D02*
X130962400Y-53009800D01*
X143230600Y-53771800D02*
X143329400Y-53870600D01*
X131114800Y-51562000D02*
X130962400Y-51714400D01*
X142367000Y-52578000D02*
X143230600Y-52578000D01*
X131064000Y-55880000D02*
X131064000Y-57404000D01*
X143230600Y-52578000D02*
X143230600Y-53771800D01*
X140135000Y-51743000D02*
X139954000Y-51562000D01*
%TO.N,Net-(J2-Pin_2)*%
X153599600Y-57615000D02*
X153644600Y-57570000D01*
X151730000Y-57615000D02*
X153599600Y-57615000D01*
X153644600Y-55245000D02*
X153644600Y-57570000D01*
X153644600Y-57570000D02*
X153644600Y-58894600D01*
X154950000Y-59050000D02*
X153800000Y-59050000D01*
X153800000Y-59050000D02*
X153644600Y-58894600D01*
%TO.N,Net-(Q1-G)*%
X146968200Y-60913000D02*
X146968200Y-61823600D01*
X145135600Y-59309000D02*
X145364200Y-59309000D01*
X145135600Y-59309000D02*
X145135600Y-57708800D01*
X145364200Y-59309000D02*
X146968200Y-60913000D01*
X145374400Y-57470000D02*
X147324600Y-57470000D01*
X145135600Y-57708800D02*
X145374400Y-57470000D01*
%TO.N,Net-(Q1-D)*%
X149047200Y-55245000D02*
X149199600Y-55397400D01*
X147294600Y-55245000D02*
X149047200Y-55245000D01*
X149199600Y-55397400D02*
X149199600Y-58420000D01*
%TO.N,Net-(U1-Q)*%
X138074400Y-62636400D02*
X138074400Y-55930800D01*
X143310600Y-59309000D02*
X143992600Y-59309000D01*
X144221200Y-59537600D02*
X144221200Y-62687200D01*
X138074400Y-55930800D02*
X137743800Y-55600200D01*
X144009400Y-62899000D02*
X138337000Y-62899000D01*
X137743800Y-55600200D02*
X135185000Y-55600200D01*
X138337000Y-62899000D02*
X138074400Y-62636400D01*
X144221200Y-62687200D02*
X144221200Y-62701200D01*
X144221200Y-62687200D02*
X144009400Y-62899000D01*
%TO.N,GND*%
X148790000Y-62224600D02*
X148793200Y-62224600D01*
%TO.N,Net-(U1-Q)*%
X143992600Y-59309000D02*
X144221200Y-59537600D01*
%TO.N,Net-(U1-R)*%
X133422800Y-56870200D02*
X132889000Y-57404000D01*
X135185000Y-56870200D02*
X133422800Y-56870200D01*
%TO.N,Net-(R6-Pad1)*%
X145055600Y-52578000D02*
X147167600Y-52578000D01*
X147167600Y-52578000D02*
X147294600Y-52705000D01*
%TD*%
M02*
