%TF.GenerationSoftware,KiCad,Pcbnew,9.0.7*%
%TF.CreationDate,2026-04-02T17:46:46+02:00*%
%TF.ProjectId,WatchDog_Optokoppler_v1.1,57617463-6844-46f6-975f-4f70746f6b6f,rev?*%
%TF.SameCoordinates,Original*%
%TF.FileFunction,Soldermask,Top*%
%TF.FilePolarity,Negative*%
%FSLAX46Y46*%
G04 Gerber Fmt 4.6, Leading zero omitted, Abs format (unit mm)*
G04 Created by KiCad (PCBNEW 9.0.7) date 2026-04-02 17:46:46*
%MOMM*%
%LPD*%
G01*
G04 APERTURE LIST*
G04 Aperture macros list*
%AMRoundRect*
0 Rectangle with rounded corners*
0 $1 Rounding radius*
0 $2 $3 $4 $5 $6 $7 $8 $9 X,Y pos of 4 corners*
0 Add a 4 corners polygon primitive as box body*
4,1,4,$2,$3,$4,$5,$6,$7,$8,$9,$2,$3,0*
0 Add four circle primitives for the rounded corners*
1,1,$1+$1,$2,$3*
1,1,$1+$1,$4,$5*
1,1,$1+$1,$6,$7*
1,1,$1+$1,$8,$9*
0 Add four rect primitives between the rounded corners*
20,1,$1+$1,$2,$3,$4,$5,0*
20,1,$1+$1,$4,$5,$6,$7,0*
20,1,$1+$1,$6,$7,$8,$9,0*
20,1,$1+$1,$8,$9,$2,$3,0*%
G04 Aperture macros list end*
%ADD10RoundRect,0.250000X0.250000X0.475000X-0.250000X0.475000X-0.250000X-0.475000X0.250000X-0.475000X0*%
%ADD11RoundRect,0.250000X1.250000X0.550000X-1.250000X0.550000X-1.250000X-0.550000X1.250000X-0.550000X0*%
%ADD12RoundRect,0.250000X0.262500X0.450000X-0.262500X0.450000X-0.262500X-0.450000X0.262500X-0.450000X0*%
%ADD13RoundRect,0.250000X-0.262500X-0.450000X0.262500X-0.450000X0.262500X0.450000X-0.262500X0.450000X0*%
%ADD14RoundRect,0.150000X-0.587500X-0.150000X0.587500X-0.150000X0.587500X0.150000X-0.587500X0.150000X0*%
%ADD15RoundRect,0.243750X-0.243750X-0.456250X0.243750X-0.456250X0.243750X0.456250X-0.243750X0.456250X0*%
%ADD16R,1.700000X1.700000*%
%ADD17C,1.700000*%
%ADD18RoundRect,0.150000X-0.825000X-0.150000X0.825000X-0.150000X0.825000X0.150000X-0.825000X0.150000X0*%
%ADD19RoundRect,0.102000X-0.750000X-0.300000X0.750000X-0.300000X0.750000X0.300000X-0.750000X0.300000X0*%
%ADD20RoundRect,0.250000X-0.450000X0.262500X-0.450000X-0.262500X0.450000X-0.262500X0.450000X0.262500X0*%
G04 APERTURE END LIST*
D10*
%TO.C,C4*%
X132862400Y-53009800D03*
X130962400Y-53009800D03*
%TD*%
%TO.C,C2*%
X145161000Y-61772800D03*
X143261000Y-61772800D03*
%TD*%
D11*
%TO.C,C3*%
X140309600Y-60858400D03*
X135909600Y-60858400D03*
%TD*%
D12*
%TO.C,R4*%
X148793200Y-61823600D03*
X146968200Y-61823600D03*
%TD*%
D13*
%TO.C,R3*%
X143310600Y-59309000D03*
X145135600Y-59309000D03*
%TD*%
D14*
%TO.C,Q1*%
X147324600Y-57470000D03*
X147324600Y-59370000D03*
X149199600Y-58420000D03*
%TD*%
D15*
%TO.C,D1*%
X131017800Y-59639200D03*
X132892800Y-59639200D03*
%TD*%
D16*
%TO.C,J1*%
X127711200Y-53182600D03*
D17*
X127711200Y-55722600D03*
%TD*%
D18*
%TO.C,U1*%
X135185000Y-53060200D03*
X135185000Y-54330200D03*
X135185000Y-55600200D03*
X135185000Y-56870200D03*
X140135000Y-56870200D03*
X140135000Y-55600200D03*
X140135000Y-54330200D03*
X140135000Y-53060200D03*
%TD*%
D19*
%TO.C,U2*%
X147294600Y-52705000D03*
X147294600Y-55245000D03*
X153644600Y-55245000D03*
X153644600Y-52705000D03*
%TD*%
D12*
%TO.C,R6*%
X145055600Y-52578000D03*
X143230600Y-52578000D03*
%TD*%
D20*
%TO.C,R2*%
X143484600Y-55071000D03*
X143484600Y-56896000D03*
%TD*%
D16*
%TO.C,J3*%
X152857200Y-58674000D03*
D17*
X152857200Y-61214000D03*
%TD*%
D16*
%TO.C,J2*%
X127711200Y-60807600D03*
%TD*%
D13*
%TO.C,R1*%
X131064000Y-57404000D03*
X132889000Y-57404000D03*
%TD*%
D12*
%TO.C,R5*%
X132862400Y-55245000D03*
X131037400Y-55245000D03*
%TD*%
M02*
