%TF.GenerationSoftware,KiCad,Pcbnew,9.0.7*%
%TF.CreationDate,2026-09-18T22:44:05+02:00*%
%TF.ProjectId,WatchDog_Optokoppler_v1.1,57617463-6844-46f6-975f-4f70746f6b6f,rev?*%
%TF.SameCoordinates,Original*%
%TF.FileFunction,Legend,Top*%
%TF.FilePolarity,Positive*%
%FSLAX46Y46*%
G04 Gerber Fmt 4.6, Leading zero omitted, Abs format (unit mm)*
G04 Created by KiCad (PCBNEW 9.0.7) date 2026-09-18 22:44:05*
%MOMM*%
%LPD*%
G01*
G04 APERTURE LIST*
%ADD10C,0.162500*%
%ADD11C,0.150000*%
%ADD12C,0.120000*%
%ADD13C,0.127000*%
%ADD14C,0.200000*%
G04 APERTURE END LIST*
D10*
X129360802Y-61781188D02*
X129360802Y-61409759D01*
X130010802Y-61595473D02*
X129360802Y-61595473D01*
X130010802Y-60821664D02*
X129701278Y-61038331D01*
X130010802Y-61193093D02*
X129360802Y-61193093D01*
X129360802Y-61193093D02*
X129360802Y-60945474D01*
X129360802Y-60945474D02*
X129391754Y-60883569D01*
X129391754Y-60883569D02*
X129422707Y-60852616D01*
X129422707Y-60852616D02*
X129484611Y-60821664D01*
X129484611Y-60821664D02*
X129577469Y-60821664D01*
X129577469Y-60821664D02*
X129639373Y-60852616D01*
X129639373Y-60852616D02*
X129670326Y-60883569D01*
X129670326Y-60883569D02*
X129701278Y-60945474D01*
X129701278Y-60945474D02*
X129701278Y-61193093D01*
X130010802Y-60543093D02*
X129360802Y-60543093D01*
X129391754Y-59893092D02*
X129360802Y-59954997D01*
X129360802Y-59954997D02*
X129360802Y-60047854D01*
X129360802Y-60047854D02*
X129391754Y-60140711D01*
X129391754Y-60140711D02*
X129453659Y-60202616D01*
X129453659Y-60202616D02*
X129515564Y-60233569D01*
X129515564Y-60233569D02*
X129639373Y-60264521D01*
X129639373Y-60264521D02*
X129732230Y-60264521D01*
X129732230Y-60264521D02*
X129856040Y-60233569D01*
X129856040Y-60233569D02*
X129917945Y-60202616D01*
X129917945Y-60202616D02*
X129979850Y-60140711D01*
X129979850Y-60140711D02*
X130010802Y-60047854D01*
X130010802Y-60047854D02*
X130010802Y-59985950D01*
X130010802Y-59985950D02*
X129979850Y-59893092D01*
X129979850Y-59893092D02*
X129948897Y-59862140D01*
X129948897Y-59862140D02*
X129732230Y-59862140D01*
X129732230Y-59862140D02*
X129732230Y-59985950D01*
X129391754Y-56197854D02*
X129360802Y-56259759D01*
X129360802Y-56259759D02*
X129360802Y-56352616D01*
X129360802Y-56352616D02*
X129391754Y-56445473D01*
X129391754Y-56445473D02*
X129453659Y-56507378D01*
X129453659Y-56507378D02*
X129515564Y-56538331D01*
X129515564Y-56538331D02*
X129639373Y-56569283D01*
X129639373Y-56569283D02*
X129732230Y-56569283D01*
X129732230Y-56569283D02*
X129856040Y-56538331D01*
X129856040Y-56538331D02*
X129917945Y-56507378D01*
X129917945Y-56507378D02*
X129979850Y-56445473D01*
X129979850Y-56445473D02*
X130010802Y-56352616D01*
X130010802Y-56352616D02*
X130010802Y-56290712D01*
X130010802Y-56290712D02*
X129979850Y-56197854D01*
X129979850Y-56197854D02*
X129948897Y-56166902D01*
X129948897Y-56166902D02*
X129732230Y-56166902D01*
X129732230Y-56166902D02*
X129732230Y-56290712D01*
X130010802Y-55888331D02*
X129360802Y-55888331D01*
X129360802Y-55888331D02*
X130010802Y-55516902D01*
X130010802Y-55516902D02*
X129360802Y-55516902D01*
X130010802Y-55207379D02*
X129360802Y-55207379D01*
X129360802Y-55207379D02*
X129360802Y-55052617D01*
X129360802Y-55052617D02*
X129391754Y-54959760D01*
X129391754Y-54959760D02*
X129453659Y-54897855D01*
X129453659Y-54897855D02*
X129515564Y-54866902D01*
X129515564Y-54866902D02*
X129639373Y-54835950D01*
X129639373Y-54835950D02*
X129732230Y-54835950D01*
X129732230Y-54835950D02*
X129856040Y-54866902D01*
X129856040Y-54866902D02*
X129917945Y-54897855D01*
X129917945Y-54897855D02*
X129979850Y-54959760D01*
X129979850Y-54959760D02*
X130010802Y-55052617D01*
X130010802Y-55052617D02*
X130010802Y-55207379D01*
X129360802Y-53328807D02*
X129360802Y-53638331D01*
X129360802Y-53638331D02*
X129670326Y-53669283D01*
X129670326Y-53669283D02*
X129639373Y-53638331D01*
X129639373Y-53638331D02*
X129608421Y-53576426D01*
X129608421Y-53576426D02*
X129608421Y-53421664D01*
X129608421Y-53421664D02*
X129639373Y-53359759D01*
X129639373Y-53359759D02*
X129670326Y-53328807D01*
X129670326Y-53328807D02*
X129732230Y-53297854D01*
X129732230Y-53297854D02*
X129886992Y-53297854D01*
X129886992Y-53297854D02*
X129948897Y-53328807D01*
X129948897Y-53328807D02*
X129979850Y-53359759D01*
X129979850Y-53359759D02*
X130010802Y-53421664D01*
X130010802Y-53421664D02*
X130010802Y-53576426D01*
X130010802Y-53576426D02*
X129979850Y-53638331D01*
X129979850Y-53638331D02*
X129948897Y-53669283D01*
X129360802Y-53112140D02*
X130010802Y-52895473D01*
X130010802Y-52895473D02*
X129360802Y-52678806D01*
X155293645Y-56128807D02*
X156093645Y-55938331D01*
X156093645Y-55938331D02*
X155522216Y-55785950D01*
X155522216Y-55785950D02*
X156093645Y-55633569D01*
X156093645Y-55633569D02*
X155293645Y-55443093D01*
X156093645Y-55138330D02*
X155293645Y-55138330D01*
X155293645Y-55138330D02*
X155293645Y-54947854D01*
X155293645Y-54947854D02*
X155331740Y-54833568D01*
X155331740Y-54833568D02*
X155407930Y-54757378D01*
X155407930Y-54757378D02*
X155484121Y-54719283D01*
X155484121Y-54719283D02*
X155636502Y-54681187D01*
X155636502Y-54681187D02*
X155750788Y-54681187D01*
X155750788Y-54681187D02*
X155903169Y-54719283D01*
X155903169Y-54719283D02*
X155979359Y-54757378D01*
X155979359Y-54757378D02*
X156055550Y-54833568D01*
X156055550Y-54833568D02*
X156093645Y-54947854D01*
X156093645Y-54947854D02*
X156093645Y-55138330D01*
X155560311Y-53804997D02*
X156093645Y-53614521D01*
X156093645Y-53614521D02*
X155560311Y-53424044D01*
X156093645Y-52700235D02*
X156093645Y-53157378D01*
X156093645Y-52928806D02*
X155293645Y-52928806D01*
X155293645Y-52928806D02*
X155407930Y-53004997D01*
X155407930Y-53004997D02*
X155484121Y-53081187D01*
X155484121Y-53081187D02*
X155522216Y-53157378D01*
X156017454Y-52357377D02*
X156055550Y-52319282D01*
X156055550Y-52319282D02*
X156093645Y-52357377D01*
X156093645Y-52357377D02*
X156055550Y-52395473D01*
X156055550Y-52395473D02*
X156017454Y-52357377D01*
X156017454Y-52357377D02*
X156093645Y-52357377D01*
X156093645Y-51557378D02*
X156093645Y-52014521D01*
X156093645Y-51785949D02*
X155293645Y-51785949D01*
X155293645Y-51785949D02*
X155407930Y-51862140D01*
X155407930Y-51862140D02*
X155484121Y-51938330D01*
X155484121Y-51938330D02*
X155522216Y-52014521D01*
D11*
X150441666Y-63692902D02*
X150224999Y-63383378D01*
X150070237Y-63692902D02*
X150070237Y-63042902D01*
X150070237Y-63042902D02*
X150317856Y-63042902D01*
X150317856Y-63042902D02*
X150379761Y-63073854D01*
X150379761Y-63073854D02*
X150410714Y-63104807D01*
X150410714Y-63104807D02*
X150441666Y-63166711D01*
X150441666Y-63166711D02*
X150441666Y-63259569D01*
X150441666Y-63259569D02*
X150410714Y-63321473D01*
X150410714Y-63321473D02*
X150379761Y-63352426D01*
X150379761Y-63352426D02*
X150317856Y-63383378D01*
X150317856Y-63383378D02*
X150070237Y-63383378D01*
X150813095Y-63321473D02*
X150751190Y-63290521D01*
X150751190Y-63290521D02*
X150720237Y-63259569D01*
X150720237Y-63259569D02*
X150689285Y-63197664D01*
X150689285Y-63197664D02*
X150689285Y-63166711D01*
X150689285Y-63166711D02*
X150720237Y-63104807D01*
X150720237Y-63104807D02*
X150751190Y-63073854D01*
X150751190Y-63073854D02*
X150813095Y-63042902D01*
X150813095Y-63042902D02*
X150936904Y-63042902D01*
X150936904Y-63042902D02*
X150998809Y-63073854D01*
X150998809Y-63073854D02*
X151029761Y-63104807D01*
X151029761Y-63104807D02*
X151060714Y-63166711D01*
X151060714Y-63166711D02*
X151060714Y-63197664D01*
X151060714Y-63197664D02*
X151029761Y-63259569D01*
X151029761Y-63259569D02*
X150998809Y-63290521D01*
X150998809Y-63290521D02*
X150936904Y-63321473D01*
X150936904Y-63321473D02*
X150813095Y-63321473D01*
X150813095Y-63321473D02*
X150751190Y-63352426D01*
X150751190Y-63352426D02*
X150720237Y-63383378D01*
X150720237Y-63383378D02*
X150689285Y-63445283D01*
X150689285Y-63445283D02*
X150689285Y-63569092D01*
X150689285Y-63569092D02*
X150720237Y-63630997D01*
X150720237Y-63630997D02*
X150751190Y-63661950D01*
X150751190Y-63661950D02*
X150813095Y-63692902D01*
X150813095Y-63692902D02*
X150936904Y-63692902D01*
X150936904Y-63692902D02*
X150998809Y-63661950D01*
X150998809Y-63661950D02*
X151029761Y-63630997D01*
X151029761Y-63630997D02*
X151060714Y-63569092D01*
X151060714Y-63569092D02*
X151060714Y-63445283D01*
X151060714Y-63445283D02*
X151029761Y-63383378D01*
X151029761Y-63383378D02*
X150998809Y-63352426D01*
X150998809Y-63352426D02*
X150936904Y-63321473D01*
X150441666Y-57542902D02*
X150224999Y-57233378D01*
X150070237Y-57542902D02*
X150070237Y-56892902D01*
X150070237Y-56892902D02*
X150317856Y-56892902D01*
X150317856Y-56892902D02*
X150379761Y-56923854D01*
X150379761Y-56923854D02*
X150410714Y-56954807D01*
X150410714Y-56954807D02*
X150441666Y-57016711D01*
X150441666Y-57016711D02*
X150441666Y-57109569D01*
X150441666Y-57109569D02*
X150410714Y-57171473D01*
X150410714Y-57171473D02*
X150379761Y-57202426D01*
X150379761Y-57202426D02*
X150317856Y-57233378D01*
X150317856Y-57233378D02*
X150070237Y-57233378D01*
X150658333Y-56892902D02*
X151091666Y-56892902D01*
X151091666Y-56892902D02*
X150813095Y-57542902D01*
X127233333Y-62592902D02*
X127233333Y-63057188D01*
X127233333Y-63057188D02*
X127202380Y-63150045D01*
X127202380Y-63150045D02*
X127140476Y-63211950D01*
X127140476Y-63211950D02*
X127047618Y-63242902D01*
X127047618Y-63242902D02*
X126985714Y-63242902D01*
X127883333Y-63242902D02*
X127511904Y-63242902D01*
X127697618Y-63242902D02*
X127697618Y-62592902D01*
X127697618Y-62592902D02*
X127635714Y-62685759D01*
X127635714Y-62685759D02*
X127573809Y-62747664D01*
X127573809Y-62747664D02*
X127511904Y-62778616D01*
X144111666Y-63510997D02*
X144080714Y-63541950D01*
X144080714Y-63541950D02*
X143987856Y-63572902D01*
X143987856Y-63572902D02*
X143925952Y-63572902D01*
X143925952Y-63572902D02*
X143833095Y-63541950D01*
X143833095Y-63541950D02*
X143771190Y-63480045D01*
X143771190Y-63480045D02*
X143740237Y-63418140D01*
X143740237Y-63418140D02*
X143709285Y-63294330D01*
X143709285Y-63294330D02*
X143709285Y-63201473D01*
X143709285Y-63201473D02*
X143740237Y-63077664D01*
X143740237Y-63077664D02*
X143771190Y-63015759D01*
X143771190Y-63015759D02*
X143833095Y-62953854D01*
X143833095Y-62953854D02*
X143925952Y-62922902D01*
X143925952Y-62922902D02*
X143987856Y-62922902D01*
X143987856Y-62922902D02*
X144080714Y-62953854D01*
X144080714Y-62953854D02*
X144111666Y-62984807D01*
X144359285Y-62984807D02*
X144390237Y-62953854D01*
X144390237Y-62953854D02*
X144452142Y-62922902D01*
X144452142Y-62922902D02*
X144606904Y-62922902D01*
X144606904Y-62922902D02*
X144668809Y-62953854D01*
X144668809Y-62953854D02*
X144699761Y-62984807D01*
X144699761Y-62984807D02*
X144730714Y-63046711D01*
X144730714Y-63046711D02*
X144730714Y-63108616D01*
X144730714Y-63108616D02*
X144699761Y-63201473D01*
X144699761Y-63201473D02*
X144328333Y-63572902D01*
X144328333Y-63572902D02*
X144730714Y-63572902D01*
X134091666Y-63780997D02*
X134060714Y-63811950D01*
X134060714Y-63811950D02*
X133967856Y-63842902D01*
X133967856Y-63842902D02*
X133905952Y-63842902D01*
X133905952Y-63842902D02*
X133813095Y-63811950D01*
X133813095Y-63811950D02*
X133751190Y-63750045D01*
X133751190Y-63750045D02*
X133720237Y-63688140D01*
X133720237Y-63688140D02*
X133689285Y-63564330D01*
X133689285Y-63564330D02*
X133689285Y-63471473D01*
X133689285Y-63471473D02*
X133720237Y-63347664D01*
X133720237Y-63347664D02*
X133751190Y-63285759D01*
X133751190Y-63285759D02*
X133813095Y-63223854D01*
X133813095Y-63223854D02*
X133905952Y-63192902D01*
X133905952Y-63192902D02*
X133967856Y-63192902D01*
X133967856Y-63192902D02*
X134060714Y-63223854D01*
X134060714Y-63223854D02*
X134091666Y-63254807D01*
X134308333Y-63192902D02*
X134710714Y-63192902D01*
X134710714Y-63192902D02*
X134494047Y-63440521D01*
X134494047Y-63440521D02*
X134586904Y-63440521D01*
X134586904Y-63440521D02*
X134648809Y-63471473D01*
X134648809Y-63471473D02*
X134679761Y-63502426D01*
X134679761Y-63502426D02*
X134710714Y-63564330D01*
X134710714Y-63564330D02*
X134710714Y-63719092D01*
X134710714Y-63719092D02*
X134679761Y-63780997D01*
X134679761Y-63780997D02*
X134648809Y-63811950D01*
X134648809Y-63811950D02*
X134586904Y-63842902D01*
X134586904Y-63842902D02*
X134401190Y-63842902D01*
X134401190Y-63842902D02*
X134339285Y-63811950D01*
X134339285Y-63811950D02*
X134308333Y-63780997D01*
X147771666Y-63612902D02*
X147554999Y-63303378D01*
X147400237Y-63612902D02*
X147400237Y-62962902D01*
X147400237Y-62962902D02*
X147647856Y-62962902D01*
X147647856Y-62962902D02*
X147709761Y-62993854D01*
X147709761Y-62993854D02*
X147740714Y-63024807D01*
X147740714Y-63024807D02*
X147771666Y-63086711D01*
X147771666Y-63086711D02*
X147771666Y-63179569D01*
X147771666Y-63179569D02*
X147740714Y-63241473D01*
X147740714Y-63241473D02*
X147709761Y-63272426D01*
X147709761Y-63272426D02*
X147647856Y-63303378D01*
X147647856Y-63303378D02*
X147400237Y-63303378D01*
X148328809Y-63179569D02*
X148328809Y-63612902D01*
X148174047Y-62931950D02*
X148019285Y-63396235D01*
X148019285Y-63396235D02*
X148421666Y-63396235D01*
X144091666Y-58292902D02*
X143874999Y-57983378D01*
X143720237Y-58292902D02*
X143720237Y-57642902D01*
X143720237Y-57642902D02*
X143967856Y-57642902D01*
X143967856Y-57642902D02*
X144029761Y-57673854D01*
X144029761Y-57673854D02*
X144060714Y-57704807D01*
X144060714Y-57704807D02*
X144091666Y-57766711D01*
X144091666Y-57766711D02*
X144091666Y-57859569D01*
X144091666Y-57859569D02*
X144060714Y-57921473D01*
X144060714Y-57921473D02*
X144029761Y-57952426D01*
X144029761Y-57952426D02*
X143967856Y-57983378D01*
X143967856Y-57983378D02*
X143720237Y-57983378D01*
X144308333Y-57642902D02*
X144710714Y-57642902D01*
X144710714Y-57642902D02*
X144494047Y-57890521D01*
X144494047Y-57890521D02*
X144586904Y-57890521D01*
X144586904Y-57890521D02*
X144648809Y-57921473D01*
X144648809Y-57921473D02*
X144679761Y-57952426D01*
X144679761Y-57952426D02*
X144710714Y-58014330D01*
X144710714Y-58014330D02*
X144710714Y-58169092D01*
X144710714Y-58169092D02*
X144679761Y-58230997D01*
X144679761Y-58230997D02*
X144648809Y-58261950D01*
X144648809Y-58261950D02*
X144586904Y-58292902D01*
X144586904Y-58292902D02*
X144401190Y-58292902D01*
X144401190Y-58292902D02*
X144339285Y-58261950D01*
X144339285Y-58261950D02*
X144308333Y-58230997D01*
X149838095Y-59904807D02*
X149776190Y-59873854D01*
X149776190Y-59873854D02*
X149714285Y-59811950D01*
X149714285Y-59811950D02*
X149621428Y-59719092D01*
X149621428Y-59719092D02*
X149559523Y-59688140D01*
X149559523Y-59688140D02*
X149497619Y-59688140D01*
X149528571Y-59842902D02*
X149466666Y-59811950D01*
X149466666Y-59811950D02*
X149404761Y-59750045D01*
X149404761Y-59750045D02*
X149373809Y-59626235D01*
X149373809Y-59626235D02*
X149373809Y-59409569D01*
X149373809Y-59409569D02*
X149404761Y-59285759D01*
X149404761Y-59285759D02*
X149466666Y-59223854D01*
X149466666Y-59223854D02*
X149528571Y-59192902D01*
X149528571Y-59192902D02*
X149652380Y-59192902D01*
X149652380Y-59192902D02*
X149714285Y-59223854D01*
X149714285Y-59223854D02*
X149776190Y-59285759D01*
X149776190Y-59285759D02*
X149807142Y-59409569D01*
X149807142Y-59409569D02*
X149807142Y-59626235D01*
X149807142Y-59626235D02*
X149776190Y-59750045D01*
X149776190Y-59750045D02*
X149714285Y-59811950D01*
X149714285Y-59811950D02*
X149652380Y-59842902D01*
X149652380Y-59842902D02*
X149528571Y-59842902D01*
X150426190Y-59842902D02*
X150054761Y-59842902D01*
X150240475Y-59842902D02*
X150240475Y-59192902D01*
X150240475Y-59192902D02*
X150178571Y-59285759D01*
X150178571Y-59285759D02*
X150116666Y-59347664D01*
X150116666Y-59347664D02*
X150054761Y-59378616D01*
X131467237Y-63675502D02*
X131467237Y-63025502D01*
X131467237Y-63025502D02*
X131621999Y-63025502D01*
X131621999Y-63025502D02*
X131714856Y-63056454D01*
X131714856Y-63056454D02*
X131776761Y-63118359D01*
X131776761Y-63118359D02*
X131807714Y-63180264D01*
X131807714Y-63180264D02*
X131838666Y-63304073D01*
X131838666Y-63304073D02*
X131838666Y-63396930D01*
X131838666Y-63396930D02*
X131807714Y-63520740D01*
X131807714Y-63520740D02*
X131776761Y-63582645D01*
X131776761Y-63582645D02*
X131714856Y-63644550D01*
X131714856Y-63644550D02*
X131621999Y-63675502D01*
X131621999Y-63675502D02*
X131467237Y-63675502D01*
X132457714Y-63675502D02*
X132086285Y-63675502D01*
X132271999Y-63675502D02*
X132271999Y-63025502D01*
X132271999Y-63025502D02*
X132210095Y-63118359D01*
X132210095Y-63118359D02*
X132148190Y-63180264D01*
X132148190Y-63180264D02*
X132086285Y-63211216D01*
X137172761Y-51357302D02*
X137172761Y-51883492D01*
X137172761Y-51883492D02*
X137203714Y-51945397D01*
X137203714Y-51945397D02*
X137234666Y-51976350D01*
X137234666Y-51976350D02*
X137296571Y-52007302D01*
X137296571Y-52007302D02*
X137420380Y-52007302D01*
X137420380Y-52007302D02*
X137482285Y-51976350D01*
X137482285Y-51976350D02*
X137513238Y-51945397D01*
X137513238Y-51945397D02*
X137544190Y-51883492D01*
X137544190Y-51883492D02*
X137544190Y-51357302D01*
X138194190Y-52007302D02*
X137822761Y-52007302D01*
X138008475Y-52007302D02*
X138008475Y-51357302D01*
X138008475Y-51357302D02*
X137946571Y-51450159D01*
X137946571Y-51450159D02*
X137884666Y-51512064D01*
X137884666Y-51512064D02*
X137822761Y-51543016D01*
X146704761Y-53642902D02*
X146704761Y-54169092D01*
X146704761Y-54169092D02*
X146735714Y-54230997D01*
X146735714Y-54230997D02*
X146766666Y-54261950D01*
X146766666Y-54261950D02*
X146828571Y-54292902D01*
X146828571Y-54292902D02*
X146952380Y-54292902D01*
X146952380Y-54292902D02*
X147014285Y-54261950D01*
X147014285Y-54261950D02*
X147045238Y-54230997D01*
X147045238Y-54230997D02*
X147076190Y-54169092D01*
X147076190Y-54169092D02*
X147076190Y-53642902D01*
X147354761Y-53704807D02*
X147385713Y-53673854D01*
X147385713Y-53673854D02*
X147447618Y-53642902D01*
X147447618Y-53642902D02*
X147602380Y-53642902D01*
X147602380Y-53642902D02*
X147664285Y-53673854D01*
X147664285Y-53673854D02*
X147695237Y-53704807D01*
X147695237Y-53704807D02*
X147726190Y-53766711D01*
X147726190Y-53766711D02*
X147726190Y-53828616D01*
X147726190Y-53828616D02*
X147695237Y-53921473D01*
X147695237Y-53921473D02*
X147323809Y-54292902D01*
X147323809Y-54292902D02*
X147726190Y-54292902D01*
X154733333Y-63342902D02*
X154733333Y-63807188D01*
X154733333Y-63807188D02*
X154702380Y-63900045D01*
X154702380Y-63900045D02*
X154640476Y-63961950D01*
X154640476Y-63961950D02*
X154547618Y-63992902D01*
X154547618Y-63992902D02*
X154485714Y-63992902D01*
X155011904Y-63404807D02*
X155042856Y-63373854D01*
X155042856Y-63373854D02*
X155104761Y-63342902D01*
X155104761Y-63342902D02*
X155259523Y-63342902D01*
X155259523Y-63342902D02*
X155321428Y-63373854D01*
X155321428Y-63373854D02*
X155352380Y-63404807D01*
X155352380Y-63404807D02*
X155383333Y-63466711D01*
X155383333Y-63466711D02*
X155383333Y-63528616D01*
X155383333Y-63528616D02*
X155352380Y-63621473D01*
X155352380Y-63621473D02*
X154980952Y-63992902D01*
X154980952Y-63992902D02*
X155383333Y-63992902D01*
X143991666Y-51592902D02*
X143774999Y-51283378D01*
X143620237Y-51592902D02*
X143620237Y-50942902D01*
X143620237Y-50942902D02*
X143867856Y-50942902D01*
X143867856Y-50942902D02*
X143929761Y-50973854D01*
X143929761Y-50973854D02*
X143960714Y-51004807D01*
X143960714Y-51004807D02*
X143991666Y-51066711D01*
X143991666Y-51066711D02*
X143991666Y-51159569D01*
X143991666Y-51159569D02*
X143960714Y-51221473D01*
X143960714Y-51221473D02*
X143929761Y-51252426D01*
X143929761Y-51252426D02*
X143867856Y-51283378D01*
X143867856Y-51283378D02*
X143620237Y-51283378D01*
X144548809Y-50942902D02*
X144424999Y-50942902D01*
X144424999Y-50942902D02*
X144363095Y-50973854D01*
X144363095Y-50973854D02*
X144332142Y-51004807D01*
X144332142Y-51004807D02*
X144270237Y-51097664D01*
X144270237Y-51097664D02*
X144239285Y-51221473D01*
X144239285Y-51221473D02*
X144239285Y-51469092D01*
X144239285Y-51469092D02*
X144270237Y-51530997D01*
X144270237Y-51530997D02*
X144301190Y-51561950D01*
X144301190Y-51561950D02*
X144363095Y-51592902D01*
X144363095Y-51592902D02*
X144486904Y-51592902D01*
X144486904Y-51592902D02*
X144548809Y-51561950D01*
X144548809Y-51561950D02*
X144579761Y-51530997D01*
X144579761Y-51530997D02*
X144610714Y-51469092D01*
X144610714Y-51469092D02*
X144610714Y-51314330D01*
X144610714Y-51314330D02*
X144579761Y-51252426D01*
X144579761Y-51252426D02*
X144548809Y-51221473D01*
X144548809Y-51221473D02*
X144486904Y-51190521D01*
X144486904Y-51190521D02*
X144363095Y-51190521D01*
X144363095Y-51190521D02*
X144301190Y-51221473D01*
X144301190Y-51221473D02*
X144270237Y-51252426D01*
X144270237Y-51252426D02*
X144239285Y-51314330D01*
X144976466Y-56274502D02*
X144759799Y-55964978D01*
X144605037Y-56274502D02*
X144605037Y-55624502D01*
X144605037Y-55624502D02*
X144852656Y-55624502D01*
X144852656Y-55624502D02*
X144914561Y-55655454D01*
X144914561Y-55655454D02*
X144945514Y-55686407D01*
X144945514Y-55686407D02*
X144976466Y-55748311D01*
X144976466Y-55748311D02*
X144976466Y-55841169D01*
X144976466Y-55841169D02*
X144945514Y-55903073D01*
X144945514Y-55903073D02*
X144914561Y-55934026D01*
X144914561Y-55934026D02*
X144852656Y-55964978D01*
X144852656Y-55964978D02*
X144605037Y-55964978D01*
X145224085Y-55686407D02*
X145255037Y-55655454D01*
X145255037Y-55655454D02*
X145316942Y-55624502D01*
X145316942Y-55624502D02*
X145471704Y-55624502D01*
X145471704Y-55624502D02*
X145533609Y-55655454D01*
X145533609Y-55655454D02*
X145564561Y-55686407D01*
X145564561Y-55686407D02*
X145595514Y-55748311D01*
X145595514Y-55748311D02*
X145595514Y-55810216D01*
X145595514Y-55810216D02*
X145564561Y-55903073D01*
X145564561Y-55903073D02*
X145193133Y-56274502D01*
X145193133Y-56274502D02*
X145595514Y-56274502D01*
X131838666Y-62625502D02*
X131621999Y-62315978D01*
X131467237Y-62625502D02*
X131467237Y-61975502D01*
X131467237Y-61975502D02*
X131714856Y-61975502D01*
X131714856Y-61975502D02*
X131776761Y-62006454D01*
X131776761Y-62006454D02*
X131807714Y-62037407D01*
X131807714Y-62037407D02*
X131838666Y-62099311D01*
X131838666Y-62099311D02*
X131838666Y-62192169D01*
X131838666Y-62192169D02*
X131807714Y-62254073D01*
X131807714Y-62254073D02*
X131776761Y-62285026D01*
X131776761Y-62285026D02*
X131714856Y-62315978D01*
X131714856Y-62315978D02*
X131467237Y-62315978D01*
X132457714Y-62625502D02*
X132086285Y-62625502D01*
X132271999Y-62625502D02*
X132271999Y-61975502D01*
X132271999Y-61975502D02*
X132210095Y-62068359D01*
X132210095Y-62068359D02*
X132148190Y-62130264D01*
X132148190Y-62130264D02*
X132086285Y-62161216D01*
X131841666Y-61592902D02*
X131624999Y-61283378D01*
X131470237Y-61592902D02*
X131470237Y-60942902D01*
X131470237Y-60942902D02*
X131717856Y-60942902D01*
X131717856Y-60942902D02*
X131779761Y-60973854D01*
X131779761Y-60973854D02*
X131810714Y-61004807D01*
X131810714Y-61004807D02*
X131841666Y-61066711D01*
X131841666Y-61066711D02*
X131841666Y-61159569D01*
X131841666Y-61159569D02*
X131810714Y-61221473D01*
X131810714Y-61221473D02*
X131779761Y-61252426D01*
X131779761Y-61252426D02*
X131717856Y-61283378D01*
X131717856Y-61283378D02*
X131470237Y-61283378D01*
X132429761Y-60942902D02*
X132120237Y-60942902D01*
X132120237Y-60942902D02*
X132089285Y-61252426D01*
X132089285Y-61252426D02*
X132120237Y-61221473D01*
X132120237Y-61221473D02*
X132182142Y-61190521D01*
X132182142Y-61190521D02*
X132336904Y-61190521D01*
X132336904Y-61190521D02*
X132398809Y-61221473D01*
X132398809Y-61221473D02*
X132429761Y-61252426D01*
X132429761Y-61252426D02*
X132460714Y-61314330D01*
X132460714Y-61314330D02*
X132460714Y-61469092D01*
X132460714Y-61469092D02*
X132429761Y-61530997D01*
X132429761Y-61530997D02*
X132398809Y-61561950D01*
X132398809Y-61561950D02*
X132336904Y-61592902D01*
X132336904Y-61592902D02*
X132182142Y-61592902D01*
X132182142Y-61592902D02*
X132120237Y-61561950D01*
X132120237Y-61561950D02*
X132089285Y-61530997D01*
X131841666Y-51880997D02*
X131810714Y-51911950D01*
X131810714Y-51911950D02*
X131717856Y-51942902D01*
X131717856Y-51942902D02*
X131655952Y-51942902D01*
X131655952Y-51942902D02*
X131563095Y-51911950D01*
X131563095Y-51911950D02*
X131501190Y-51850045D01*
X131501190Y-51850045D02*
X131470237Y-51788140D01*
X131470237Y-51788140D02*
X131439285Y-51664330D01*
X131439285Y-51664330D02*
X131439285Y-51571473D01*
X131439285Y-51571473D02*
X131470237Y-51447664D01*
X131470237Y-51447664D02*
X131501190Y-51385759D01*
X131501190Y-51385759D02*
X131563095Y-51323854D01*
X131563095Y-51323854D02*
X131655952Y-51292902D01*
X131655952Y-51292902D02*
X131717856Y-51292902D01*
X131717856Y-51292902D02*
X131810714Y-51323854D01*
X131810714Y-51323854D02*
X131841666Y-51354807D01*
X132460714Y-51942902D02*
X132089285Y-51942902D01*
X132274999Y-51942902D02*
X132274999Y-51292902D01*
X132274999Y-51292902D02*
X132213095Y-51385759D01*
X132213095Y-51385759D02*
X132151190Y-51447664D01*
X132151190Y-51447664D02*
X132089285Y-51478616D01*
D12*
%TO.C,R8*%
X152935000Y-61885436D02*
X152935000Y-62339564D01*
X151465000Y-61885436D02*
X151465000Y-62339564D01*
%TO.C,R7*%
X151465000Y-58764564D02*
X151465000Y-58310436D01*
X152935000Y-58764564D02*
X152935000Y-58310436D01*
%TO.C,J1*%
X126070000Y-51870000D02*
X127450000Y-51870000D01*
X126070000Y-53250000D02*
X126070000Y-51870000D01*
X126070000Y-54520000D02*
X126070000Y-62250000D01*
X126070000Y-54520000D02*
X128830000Y-54520000D01*
X126070000Y-62250000D02*
X128830000Y-62250000D01*
X128830000Y-54520000D02*
X128830000Y-62250000D01*
%TO.C,C2*%
X144472252Y-61037800D02*
X143949748Y-61037800D01*
X144472252Y-62507800D02*
X143949748Y-62507800D01*
%TO.C,C3*%
X135349600Y-58098400D02*
X135349600Y-59798400D01*
X135349600Y-63618400D02*
X135349600Y-61918400D01*
X139805163Y-58098400D02*
X135349600Y-58098400D01*
X139805163Y-63618400D02*
X135349600Y-63618400D01*
X140869600Y-59162837D02*
X139805163Y-58098400D01*
X140869600Y-59162837D02*
X140869600Y-59798400D01*
X140869600Y-62553963D02*
X139805163Y-63618400D01*
X140869600Y-62553963D02*
X140869600Y-61918400D01*
X141422100Y-62855900D02*
X141422100Y-62230900D01*
X141734600Y-62543400D02*
X141109600Y-62543400D01*
%TO.C,R4*%
X148107764Y-61088600D02*
X147653636Y-61088600D01*
X148107764Y-62558600D02*
X147653636Y-62558600D01*
%TO.C,R3*%
X143996036Y-58574000D02*
X144450164Y-58574000D01*
X143996036Y-60044000D02*
X144450164Y-60044000D01*
%TO.C,Q1*%
X147099600Y-56910000D02*
X146859600Y-56580000D01*
X147339600Y-56580000D01*
X147099600Y-56910000D01*
G36*
X147099600Y-56910000D02*
G01*
X146859600Y-56580000D01*
X147339600Y-56580000D01*
X147099600Y-56910000D01*
G37*
X148262100Y-59980000D02*
X148912100Y-59980000D01*
X148262100Y-59980000D02*
X147612100Y-59980000D01*
X148262100Y-56860000D02*
X148912100Y-56860000D01*
X148262100Y-56860000D02*
X147612100Y-56860000D01*
%TO.C,D1*%
X130270300Y-58679200D02*
X130270300Y-60599200D01*
X130270300Y-60599200D02*
X132955300Y-60599200D01*
X132955300Y-58679200D02*
X130270300Y-58679200D01*
%TO.C,U1*%
X137660000Y-52405200D02*
X135710000Y-52405200D01*
X137660000Y-52405200D02*
X139610000Y-52405200D01*
X137660000Y-57525200D02*
X135710000Y-57525200D01*
X137660000Y-57525200D02*
X139610000Y-57525200D01*
X134960000Y-52500200D02*
X134720000Y-52170200D01*
X135200000Y-52170200D01*
X134960000Y-52500200D01*
G36*
X134960000Y-52500200D02*
G01*
X134720000Y-52170200D01*
X135200000Y-52170200D01*
X134960000Y-52500200D01*
G37*
D13*
%TO.C,U2*%
X148269600Y-51925000D02*
X152669600Y-51925000D01*
X148269600Y-52085000D02*
X148269600Y-51925000D01*
X148269600Y-56025000D02*
X148269600Y-55865000D01*
X152669600Y-51925000D02*
X152669600Y-52085000D01*
X152669600Y-56025000D02*
X148269600Y-56025000D01*
X152669600Y-56025000D02*
X152669600Y-55865000D01*
D14*
X147399600Y-51975000D02*
G75*
G02*
X147199600Y-51975000I-100000J0D01*
G01*
X147199600Y-51975000D02*
G75*
G02*
X147399600Y-51975000I100000J0D01*
G01*
D12*
%TO.C,J2*%
X153570000Y-60320000D02*
X153570000Y-57670000D01*
X156330000Y-57670000D02*
X153570000Y-57670000D01*
X156330000Y-60320000D02*
X153570000Y-60320000D01*
X156330000Y-60320000D02*
X156330000Y-57670000D01*
X156330000Y-61590000D02*
X156330000Y-62970000D01*
X156330000Y-62970000D02*
X154950000Y-62970000D01*
%TO.C,R6*%
X144370164Y-51843000D02*
X143916036Y-51843000D01*
X144370164Y-53313000D02*
X143916036Y-53313000D01*
%TO.C,R2*%
X142749600Y-55756436D02*
X142749600Y-56210564D01*
X144219600Y-55756436D02*
X144219600Y-56210564D01*
%TO.C,R1*%
X131722936Y-56715000D02*
X132177064Y-56715000D01*
X131722936Y-58185000D02*
X132177064Y-58185000D01*
%TO.C,R5*%
X132176964Y-54565000D02*
X131722836Y-54565000D01*
X132176964Y-56035000D02*
X131722836Y-56035000D01*
%TO.C,C1*%
X132211252Y-52415000D02*
X131688748Y-52415000D01*
X132211252Y-53885000D02*
X131688748Y-53885000D01*
%TD*%
M02*
