%TF.GenerationSoftware,KiCad,Pcbnew,9.0.7*%
%TF.CreationDate,2026-09-18T22:44:05+02:00*%
%TF.ProjectId,WatchDog_Optokoppler_v1.1,57617463-6844-46f6-975f-4f70746f6b6f,rev?*%
%TF.SameCoordinates,Original*%
%TF.FileFunction,Copper,L2,Bot*%
%TF.FilePolarity,Positive*%
%FSLAX46Y46*%
G04 Gerber Fmt 4.6, Leading zero omitted, Abs format (unit mm)*
G04 Created by KiCad (PCBNEW 9.0.7) date 2026-09-18 22:44:05*
%MOMM*%
%LPD*%
G01*
G04 APERTURE LIST*
%TA.AperFunction,ComponentPad*%
%ADD10R,1.700000X1.700000*%
%TD*%
%TA.AperFunction,ComponentPad*%
%ADD11C,1.700000*%
%TD*%
%TA.AperFunction,ViaPad*%
%ADD12C,0.600000*%
%TD*%
%TA.AperFunction,Conductor*%
%ADD13C,0.200000*%
%TD*%
G04 APERTURE END LIST*
D10*
%TO.P,J1,1,Pin_1*%
%TO.N,Net-(J1-Pin_1)*%
X127450000Y-53250000D03*
D11*
%TO.P,J1,2,Pin_2*%
%TO.N,GND*%
X127450000Y-55790000D03*
%TO.P,J1,3,Pin_3*%
%TO.N,unconnected-(J1-Pin_3-Pad3)*%
X127450000Y-58330000D03*
%TO.P,J1,4,Pin_4*%
%TO.N,Net-(D1-K)*%
X127450000Y-60870000D03*
%TD*%
D10*
%TO.P,J2,1,Pin_1*%
%TO.N,Net-(J2-Pin_1)*%
X154950000Y-61590000D03*
D11*
%TO.P,J2,2,Pin_2*%
%TO.N,Net-(J2-Pin_2)*%
X154950000Y-59050000D03*
%TD*%
D12*
%TO.N,Net-(J1-Pin_1)*%
X150750000Y-60750000D03*
X143329400Y-53870600D03*
%TO.N,Net-(D1-A)*%
X139141200Y-58978800D03*
X134112000Y-58978800D03*
%TO.N,GND*%
X136652000Y-53086000D03*
X137340000Y-60100000D03*
X145161000Y-60553600D03*
X148500000Y-59400000D03*
%TD*%
D13*
%TO.N,Net-(J1-Pin_1)*%
X143350000Y-53850000D02*
X143329400Y-53870600D01*
X150500000Y-53850000D02*
X143350000Y-53850000D01*
X150750000Y-54100000D02*
X150500000Y-53850000D01*
X150750000Y-60750000D02*
X150750000Y-54100000D01*
%TO.N,Net-(D1-A)*%
X139141200Y-58978800D02*
X134112000Y-58978800D01*
%TD*%
%TA.AperFunction,Conductor*%
%TO.N,GND*%
G36*
X156822539Y-50890185D02*
G01*
X156868294Y-50942989D01*
X156879500Y-50994500D01*
X156879500Y-64005500D01*
X156859815Y-64072539D01*
X156807011Y-64118294D01*
X156755500Y-64129500D01*
X125944500Y-64129500D01*
X125877461Y-64109815D01*
X125831706Y-64057011D01*
X125820500Y-64005500D01*
X125820500Y-60783389D01*
X126349500Y-60783389D01*
X126349500Y-60956610D01*
X126370312Y-61088017D01*
X126376598Y-61127701D01*
X126430127Y-61292445D01*
X126508768Y-61446788D01*
X126610586Y-61586928D01*
X126733072Y-61709414D01*
X126873212Y-61811232D01*
X127027555Y-61889873D01*
X127192299Y-61943402D01*
X127363389Y-61970500D01*
X127363390Y-61970500D01*
X127536610Y-61970500D01*
X127536611Y-61970500D01*
X127707701Y-61943402D01*
X127872445Y-61889873D01*
X128026788Y-61811232D01*
X128166928Y-61709414D01*
X128289414Y-61586928D01*
X128391232Y-61446788D01*
X128469873Y-61292445D01*
X128523402Y-61127701D01*
X128550500Y-60956611D01*
X128550500Y-60783389D01*
X128523402Y-60612299D01*
X128469873Y-60447555D01*
X128391232Y-60293212D01*
X128289414Y-60153072D01*
X128166928Y-60030586D01*
X128026788Y-59928768D01*
X127872445Y-59850127D01*
X127707701Y-59796598D01*
X127707699Y-59796597D01*
X127707698Y-59796597D01*
X127576271Y-59775781D01*
X127536611Y-59769500D01*
X127363389Y-59769500D01*
X127323728Y-59775781D01*
X127192302Y-59796597D01*
X127027552Y-59850128D01*
X126873211Y-59928768D01*
X126793256Y-59986859D01*
X126733072Y-60030586D01*
X126733070Y-60030588D01*
X126733069Y-60030588D01*
X126610588Y-60153069D01*
X126610588Y-60153070D01*
X126610586Y-60153072D01*
X126566859Y-60213256D01*
X126508768Y-60293211D01*
X126430128Y-60447552D01*
X126376597Y-60612302D01*
X126349500Y-60783389D01*
X125820500Y-60783389D01*
X125820500Y-55683753D01*
X126100000Y-55683753D01*
X126100000Y-55896246D01*
X126133242Y-56106127D01*
X126133242Y-56106130D01*
X126198904Y-56308217D01*
X126295375Y-56497550D01*
X126334728Y-56551716D01*
X126967037Y-55919408D01*
X126984075Y-55982993D01*
X127049901Y-56097007D01*
X127142993Y-56190099D01*
X127257007Y-56255925D01*
X127320590Y-56272962D01*
X126688282Y-56905269D01*
X126688282Y-56905270D01*
X126742449Y-56944624D01*
X126931784Y-57041096D01*
X127030711Y-57073239D01*
X127088387Y-57112676D01*
X127115586Y-57177034D01*
X127103672Y-57245881D01*
X127056428Y-57297357D01*
X127030722Y-57309097D01*
X127029522Y-57309487D01*
X127027550Y-57310128D01*
X126873211Y-57388768D01*
X126793256Y-57446859D01*
X126733072Y-57490586D01*
X126733070Y-57490588D01*
X126733069Y-57490588D01*
X126610588Y-57613069D01*
X126610588Y-57613070D01*
X126610586Y-57613072D01*
X126566859Y-57673256D01*
X126508768Y-57753211D01*
X126430128Y-57907552D01*
X126376597Y-58072302D01*
X126349500Y-58243389D01*
X126349500Y-58416610D01*
X126368772Y-58538293D01*
X126376598Y-58587701D01*
X126430127Y-58752445D01*
X126508768Y-58906788D01*
X126610586Y-59046928D01*
X126733072Y-59169414D01*
X126873212Y-59271232D01*
X127027555Y-59349873D01*
X127192299Y-59403402D01*
X127363389Y-59430500D01*
X127363390Y-59430500D01*
X127536610Y-59430500D01*
X127536611Y-59430500D01*
X127707701Y-59403402D01*
X127872445Y-59349873D01*
X128026788Y-59271232D01*
X128166928Y-59169414D01*
X128289414Y-59046928D01*
X128391232Y-58906788D01*
X128391468Y-58906325D01*
X133561500Y-58906325D01*
X133561500Y-59051275D01*
X133584366Y-59136610D01*
X133599017Y-59191288D01*
X133671488Y-59316811D01*
X133671490Y-59316813D01*
X133671491Y-59316815D01*
X133773985Y-59419309D01*
X133773986Y-59419310D01*
X133773988Y-59419311D01*
X133899511Y-59491782D01*
X133899512Y-59491782D01*
X133899515Y-59491784D01*
X134039525Y-59529300D01*
X134039528Y-59529300D01*
X134184472Y-59529300D01*
X134184475Y-59529300D01*
X134324485Y-59491784D01*
X134450015Y-59419309D01*
X134503705Y-59365619D01*
X134565028Y-59332134D01*
X134591386Y-59329300D01*
X138661814Y-59329300D01*
X138728853Y-59348985D01*
X138749495Y-59365619D01*
X138803185Y-59419309D01*
X138803186Y-59419310D01*
X138803188Y-59419311D01*
X138928711Y-59491782D01*
X138928712Y-59491782D01*
X138928715Y-59491784D01*
X139068725Y-59529300D01*
X139068728Y-59529300D01*
X139213672Y-59529300D01*
X139213675Y-59529300D01*
X139353685Y-59491784D01*
X139479215Y-59419309D01*
X139581709Y-59316815D01*
X139654184Y-59191285D01*
X139691700Y-59051275D01*
X139691700Y-58906325D01*
X139654184Y-58766315D01*
X139646177Y-58752447D01*
X139581711Y-58640788D01*
X139581706Y-58640782D01*
X139479217Y-58538293D01*
X139479211Y-58538288D01*
X139353688Y-58465817D01*
X139353689Y-58465817D01*
X139342206Y-58462740D01*
X139213675Y-58428300D01*
X139068725Y-58428300D01*
X138940193Y-58462740D01*
X138928711Y-58465817D01*
X138803188Y-58538288D01*
X138803182Y-58538293D01*
X138749495Y-58591981D01*
X138688172Y-58625466D01*
X138661814Y-58628300D01*
X134591386Y-58628300D01*
X134524347Y-58608615D01*
X134503705Y-58591981D01*
X134450017Y-58538293D01*
X134450011Y-58538288D01*
X134324488Y-58465817D01*
X134324489Y-58465817D01*
X134313006Y-58462740D01*
X134184475Y-58428300D01*
X134039525Y-58428300D01*
X133910993Y-58462740D01*
X133899511Y-58465817D01*
X133773988Y-58538288D01*
X133773982Y-58538293D01*
X133671493Y-58640782D01*
X133671488Y-58640788D01*
X133599017Y-58766311D01*
X133599016Y-58766315D01*
X133561500Y-58906325D01*
X128391468Y-58906325D01*
X128469873Y-58752445D01*
X128523402Y-58587701D01*
X128550500Y-58416611D01*
X128550500Y-58243389D01*
X128523402Y-58072299D01*
X128469873Y-57907555D01*
X128391232Y-57753212D01*
X128289414Y-57613072D01*
X128166928Y-57490586D01*
X128026788Y-57388768D01*
X127872446Y-57310127D01*
X127869284Y-57309100D01*
X127868236Y-57308383D01*
X127867952Y-57308266D01*
X127867976Y-57308206D01*
X127811609Y-57269661D01*
X127784413Y-57205302D01*
X127796329Y-57136456D01*
X127843574Y-57084981D01*
X127869288Y-57073239D01*
X127968215Y-57041096D01*
X128157554Y-56944622D01*
X128211716Y-56905270D01*
X128211717Y-56905270D01*
X127579408Y-56272962D01*
X127642993Y-56255925D01*
X127757007Y-56190099D01*
X127850099Y-56097007D01*
X127915925Y-55982993D01*
X127932962Y-55919408D01*
X128565270Y-56551717D01*
X128565270Y-56551716D01*
X128604622Y-56497554D01*
X128701095Y-56308217D01*
X128766757Y-56106130D01*
X128766757Y-56106127D01*
X128800000Y-55896246D01*
X128800000Y-55683753D01*
X128766757Y-55473872D01*
X128766757Y-55473869D01*
X128701095Y-55271782D01*
X128604624Y-55082449D01*
X128565270Y-55028282D01*
X128565269Y-55028282D01*
X127932962Y-55660590D01*
X127915925Y-55597007D01*
X127850099Y-55482993D01*
X127757007Y-55389901D01*
X127642993Y-55324075D01*
X127579409Y-55307037D01*
X128211716Y-54674728D01*
X128157550Y-54635375D01*
X128058655Y-54584985D01*
X128007859Y-54537010D01*
X127991064Y-54469189D01*
X128013602Y-54403054D01*
X128068317Y-54359603D01*
X128114950Y-54350500D01*
X128324676Y-54350500D01*
X128324677Y-54350499D01*
X128397740Y-54335966D01*
X128480601Y-54280601D01*
X128535966Y-54197740D01*
X128550500Y-54124674D01*
X128550500Y-53798125D01*
X142778900Y-53798125D01*
X142778900Y-53943075D01*
X142784698Y-53964712D01*
X142816417Y-54083088D01*
X142888888Y-54208611D01*
X142888890Y-54208613D01*
X142888891Y-54208615D01*
X142991385Y-54311109D01*
X142991386Y-54311110D01*
X142991388Y-54311111D01*
X143116911Y-54383582D01*
X143116912Y-54383582D01*
X143116915Y-54383584D01*
X143256925Y-54421100D01*
X143256928Y-54421100D01*
X143401872Y-54421100D01*
X143401875Y-54421100D01*
X143541885Y-54383584D01*
X143667415Y-54311109D01*
X143741706Y-54236818D01*
X143803030Y-54203334D01*
X143829387Y-54200500D01*
X150275500Y-54200500D01*
X150342539Y-54220185D01*
X150388294Y-54272989D01*
X150399500Y-54324500D01*
X150399500Y-60270614D01*
X150379815Y-60337653D01*
X150363181Y-60358295D01*
X150309493Y-60411982D01*
X150309488Y-60411988D01*
X150237017Y-60537511D01*
X150237016Y-60537515D01*
X150199500Y-60677525D01*
X150199500Y-60822475D01*
X150235442Y-60956610D01*
X150237017Y-60962488D01*
X150309488Y-61088011D01*
X150309490Y-61088013D01*
X150309491Y-61088015D01*
X150411985Y-61190509D01*
X150411986Y-61190510D01*
X150411988Y-61190511D01*
X150537511Y-61262982D01*
X150537512Y-61262982D01*
X150537515Y-61262984D01*
X150677525Y-61300500D01*
X150677528Y-61300500D01*
X150822472Y-61300500D01*
X150822475Y-61300500D01*
X150962485Y-61262984D01*
X151088015Y-61190509D01*
X151190509Y-61088015D01*
X151262984Y-60962485D01*
X151300500Y-60822475D01*
X151300500Y-60715321D01*
X153849500Y-60715321D01*
X153849500Y-62464678D01*
X153864032Y-62537735D01*
X153864033Y-62537739D01*
X153864034Y-62537740D01*
X153919399Y-62620601D01*
X154002260Y-62675966D01*
X154002264Y-62675967D01*
X154075321Y-62690499D01*
X154075324Y-62690500D01*
X154075326Y-62690500D01*
X155824676Y-62690500D01*
X155824677Y-62690499D01*
X155897740Y-62675966D01*
X155980601Y-62620601D01*
X156035966Y-62537740D01*
X156050500Y-62464674D01*
X156050500Y-60715326D01*
X156050500Y-60715323D01*
X156050499Y-60715321D01*
X156035967Y-60642264D01*
X156035966Y-60642260D01*
X156015947Y-60612299D01*
X155980601Y-60559399D01*
X155897740Y-60504034D01*
X155897739Y-60504033D01*
X155897735Y-60504032D01*
X155824677Y-60489500D01*
X155824674Y-60489500D01*
X154075326Y-60489500D01*
X154075323Y-60489500D01*
X154002264Y-60504032D01*
X154002260Y-60504033D01*
X153919399Y-60559399D01*
X153864033Y-60642260D01*
X153864032Y-60642264D01*
X153849500Y-60715321D01*
X151300500Y-60715321D01*
X151300500Y-60677525D01*
X151262984Y-60537515D01*
X151235262Y-60489500D01*
X151190511Y-60411988D01*
X151190506Y-60411982D01*
X151136819Y-60358295D01*
X151103334Y-60296972D01*
X151100500Y-60270614D01*
X151100500Y-58963389D01*
X153849500Y-58963389D01*
X153849500Y-59136611D01*
X153857677Y-59188239D01*
X153870821Y-59271231D01*
X153876598Y-59307701D01*
X153930127Y-59472445D01*
X154008768Y-59626788D01*
X154110586Y-59766928D01*
X154233072Y-59889414D01*
X154373212Y-59991232D01*
X154527555Y-60069873D01*
X154692299Y-60123402D01*
X154863389Y-60150500D01*
X154863390Y-60150500D01*
X155036610Y-60150500D01*
X155036611Y-60150500D01*
X155207701Y-60123402D01*
X155372445Y-60069873D01*
X155526788Y-59991232D01*
X155666928Y-59889414D01*
X155789414Y-59766928D01*
X155891232Y-59626788D01*
X155969873Y-59472445D01*
X156023402Y-59307701D01*
X156050500Y-59136611D01*
X156050500Y-58963389D01*
X156023402Y-58792299D01*
X155969873Y-58627555D01*
X155891232Y-58473212D01*
X155789414Y-58333072D01*
X155666928Y-58210586D01*
X155526788Y-58108768D01*
X155372445Y-58030127D01*
X155207701Y-57976598D01*
X155207699Y-57976597D01*
X155207698Y-57976597D01*
X155076271Y-57955781D01*
X155036611Y-57949500D01*
X154863389Y-57949500D01*
X154823728Y-57955781D01*
X154692302Y-57976597D01*
X154527552Y-58030128D01*
X154373211Y-58108768D01*
X154293256Y-58166859D01*
X154233072Y-58210586D01*
X154233070Y-58210588D01*
X154233069Y-58210588D01*
X154110588Y-58333069D01*
X154110588Y-58333070D01*
X154110586Y-58333072D01*
X154066859Y-58393256D01*
X154008768Y-58473211D01*
X153930128Y-58627552D01*
X153876597Y-58792302D01*
X153868741Y-58841903D01*
X153849500Y-58963389D01*
X151100500Y-58963389D01*
X151100500Y-54053858D01*
X151100500Y-54053856D01*
X151076614Y-53964712D01*
X151064120Y-53943072D01*
X151030473Y-53884794D01*
X151030470Y-53884791D01*
X151030469Y-53884788D01*
X150965212Y-53819531D01*
X150715212Y-53569530D01*
X150635288Y-53523386D01*
X150546144Y-53499500D01*
X150546143Y-53499500D01*
X143788186Y-53499500D01*
X143721147Y-53479815D01*
X143700505Y-53463181D01*
X143667417Y-53430093D01*
X143667411Y-53430088D01*
X143541888Y-53357617D01*
X143541889Y-53357617D01*
X143530406Y-53354540D01*
X143401875Y-53320100D01*
X143256925Y-53320100D01*
X143128393Y-53354540D01*
X143116911Y-53357617D01*
X142991388Y-53430088D01*
X142991382Y-53430093D01*
X142888893Y-53532582D01*
X142888888Y-53532588D01*
X142816417Y-53658111D01*
X142816416Y-53658115D01*
X142778900Y-53798125D01*
X128550500Y-53798125D01*
X128550500Y-52375326D01*
X128550500Y-52375323D01*
X128550499Y-52375321D01*
X128535967Y-52302264D01*
X128535966Y-52302260D01*
X128480601Y-52219399D01*
X128397740Y-52164034D01*
X128397739Y-52164033D01*
X128397735Y-52164032D01*
X128324677Y-52149500D01*
X128324674Y-52149500D01*
X126575326Y-52149500D01*
X126575323Y-52149500D01*
X126502264Y-52164032D01*
X126502260Y-52164033D01*
X126419399Y-52219399D01*
X126364033Y-52302260D01*
X126364032Y-52302264D01*
X126349500Y-52375321D01*
X126349500Y-54124678D01*
X126364032Y-54197735D01*
X126364033Y-54197739D01*
X126379031Y-54220185D01*
X126419399Y-54280601D01*
X126485100Y-54324500D01*
X126502260Y-54335966D01*
X126502264Y-54335967D01*
X126575321Y-54350499D01*
X126575324Y-54350500D01*
X126785051Y-54350500D01*
X126852090Y-54370185D01*
X126897845Y-54422989D01*
X126907789Y-54492147D01*
X126878764Y-54555703D01*
X126841346Y-54584985D01*
X126742439Y-54635380D01*
X126688282Y-54674727D01*
X126688282Y-54674728D01*
X127320591Y-55307037D01*
X127257007Y-55324075D01*
X127142993Y-55389901D01*
X127049901Y-55482993D01*
X126984075Y-55597007D01*
X126967037Y-55660591D01*
X126334728Y-55028282D01*
X126334727Y-55028282D01*
X126295380Y-55082439D01*
X126198904Y-55271782D01*
X126133242Y-55473869D01*
X126133242Y-55473872D01*
X126100000Y-55683753D01*
X125820500Y-55683753D01*
X125820500Y-50994500D01*
X125840185Y-50927461D01*
X125892989Y-50881706D01*
X125944500Y-50870500D01*
X156755500Y-50870500D01*
X156822539Y-50890185D01*
G37*
%TD.AperFunction*%
%TD*%
M02*
