%TF.GenerationSoftware,KiCad,Pcbnew,9.0.7*%
%TF.CreationDate,2026-04-02T17:37:25+02:00*%
%TF.ProjectId,WatchDog_Optokoppler_v1.1,57617463-6844-46f6-975f-4f70746f6b6f,rev?*%
%TF.SameCoordinates,Original*%
%TF.FileFunction,Legend,Top*%
%TF.FilePolarity,Positive*%
%FSLAX46Y46*%
G04 Gerber Fmt 4.6, Leading zero omitted, Abs format (unit mm)*
G04 Created by KiCad (PCBNEW 9.0.7) date 2026-04-02 17:37:25*
%MOMM*%
%LPD*%
G01*
G04 APERTURE LIST*
%ADD10C,0.162500*%
%ADD11C,0.150000*%
%ADD12C,0.200000*%
%ADD13C,0.127000*%
%ADD14C,0.120000*%
G04 APERTURE END LIST*
D10*
X129360802Y-61654788D02*
X129360802Y-61283359D01*
X130010802Y-61469073D02*
X129360802Y-61469073D01*
X130010802Y-60695264D02*
X129701278Y-60911931D01*
X130010802Y-61066693D02*
X129360802Y-61066693D01*
X129360802Y-61066693D02*
X129360802Y-60819074D01*
X129360802Y-60819074D02*
X129391754Y-60757169D01*
X129391754Y-60757169D02*
X129422707Y-60726216D01*
X129422707Y-60726216D02*
X129484611Y-60695264D01*
X129484611Y-60695264D02*
X129577469Y-60695264D01*
X129577469Y-60695264D02*
X129639373Y-60726216D01*
X129639373Y-60726216D02*
X129670326Y-60757169D01*
X129670326Y-60757169D02*
X129701278Y-60819074D01*
X129701278Y-60819074D02*
X129701278Y-61066693D01*
X130010802Y-60416693D02*
X129360802Y-60416693D01*
X129391754Y-59766692D02*
X129360802Y-59828597D01*
X129360802Y-59828597D02*
X129360802Y-59921454D01*
X129360802Y-59921454D02*
X129391754Y-60014311D01*
X129391754Y-60014311D02*
X129453659Y-60076216D01*
X129453659Y-60076216D02*
X129515564Y-60107169D01*
X129515564Y-60107169D02*
X129639373Y-60138121D01*
X129639373Y-60138121D02*
X129732230Y-60138121D01*
X129732230Y-60138121D02*
X129856040Y-60107169D01*
X129856040Y-60107169D02*
X129917945Y-60076216D01*
X129917945Y-60076216D02*
X129979850Y-60014311D01*
X129979850Y-60014311D02*
X130010802Y-59921454D01*
X130010802Y-59921454D02*
X130010802Y-59859550D01*
X130010802Y-59859550D02*
X129979850Y-59766692D01*
X129979850Y-59766692D02*
X129948897Y-59735740D01*
X129948897Y-59735740D02*
X129732230Y-59735740D01*
X129732230Y-59735740D02*
X129732230Y-59859550D01*
D11*
X150942074Y-61572747D02*
X150911122Y-61603700D01*
X150911122Y-61603700D02*
X150818264Y-61634652D01*
X150818264Y-61634652D02*
X150756360Y-61634652D01*
X150756360Y-61634652D02*
X150663503Y-61603700D01*
X150663503Y-61603700D02*
X150601598Y-61541795D01*
X150601598Y-61541795D02*
X150570645Y-61479890D01*
X150570645Y-61479890D02*
X150539693Y-61356080D01*
X150539693Y-61356080D02*
X150539693Y-61263223D01*
X150539693Y-61263223D02*
X150570645Y-61139414D01*
X150570645Y-61139414D02*
X150601598Y-61077509D01*
X150601598Y-61077509D02*
X150663503Y-61015604D01*
X150663503Y-61015604D02*
X150756360Y-60984652D01*
X150756360Y-60984652D02*
X150818264Y-60984652D01*
X150818264Y-60984652D02*
X150911122Y-61015604D01*
X150911122Y-61015604D02*
X150942074Y-61046557D01*
X150621445Y-58500176D02*
X150838112Y-58500176D01*
X150930969Y-58840652D02*
X150621445Y-58840652D01*
X150621445Y-58840652D02*
X150621445Y-58190652D01*
X150621445Y-58190652D02*
X150930969Y-58190652D01*
D10*
X129391754Y-56141454D02*
X129360802Y-56203359D01*
X129360802Y-56203359D02*
X129360802Y-56296216D01*
X129360802Y-56296216D02*
X129391754Y-56389073D01*
X129391754Y-56389073D02*
X129453659Y-56450978D01*
X129453659Y-56450978D02*
X129515564Y-56481931D01*
X129515564Y-56481931D02*
X129639373Y-56512883D01*
X129639373Y-56512883D02*
X129732230Y-56512883D01*
X129732230Y-56512883D02*
X129856040Y-56481931D01*
X129856040Y-56481931D02*
X129917945Y-56450978D01*
X129917945Y-56450978D02*
X129979850Y-56389073D01*
X129979850Y-56389073D02*
X130010802Y-56296216D01*
X130010802Y-56296216D02*
X130010802Y-56234312D01*
X130010802Y-56234312D02*
X129979850Y-56141454D01*
X129979850Y-56141454D02*
X129948897Y-56110502D01*
X129948897Y-56110502D02*
X129732230Y-56110502D01*
X129732230Y-56110502D02*
X129732230Y-56234312D01*
X130010802Y-55831931D02*
X129360802Y-55831931D01*
X129360802Y-55831931D02*
X130010802Y-55460502D01*
X130010802Y-55460502D02*
X129360802Y-55460502D01*
X130010802Y-55150979D02*
X129360802Y-55150979D01*
X129360802Y-55150979D02*
X129360802Y-54996217D01*
X129360802Y-54996217D02*
X129391754Y-54903360D01*
X129391754Y-54903360D02*
X129453659Y-54841455D01*
X129453659Y-54841455D02*
X129515564Y-54810502D01*
X129515564Y-54810502D02*
X129639373Y-54779550D01*
X129639373Y-54779550D02*
X129732230Y-54779550D01*
X129732230Y-54779550D02*
X129856040Y-54810502D01*
X129856040Y-54810502D02*
X129917945Y-54841455D01*
X129917945Y-54841455D02*
X129979850Y-54903360D01*
X129979850Y-54903360D02*
X130010802Y-54996217D01*
X130010802Y-54996217D02*
X130010802Y-55150979D01*
X129360802Y-53276807D02*
X129360802Y-53586331D01*
X129360802Y-53586331D02*
X129670326Y-53617283D01*
X129670326Y-53617283D02*
X129639373Y-53586331D01*
X129639373Y-53586331D02*
X129608421Y-53524426D01*
X129608421Y-53524426D02*
X129608421Y-53369664D01*
X129608421Y-53369664D02*
X129639373Y-53307759D01*
X129639373Y-53307759D02*
X129670326Y-53276807D01*
X129670326Y-53276807D02*
X129732230Y-53245854D01*
X129732230Y-53245854D02*
X129886992Y-53245854D01*
X129886992Y-53245854D02*
X129948897Y-53276807D01*
X129948897Y-53276807D02*
X129979850Y-53307759D01*
X129979850Y-53307759D02*
X130010802Y-53369664D01*
X130010802Y-53369664D02*
X130010802Y-53524426D01*
X130010802Y-53524426D02*
X129979850Y-53586331D01*
X129979850Y-53586331D02*
X129948897Y-53617283D01*
X129360802Y-53060140D02*
X130010802Y-52843473D01*
X130010802Y-52843473D02*
X129360802Y-52626806D01*
X126285364Y-62406402D02*
X126440126Y-63056402D01*
X126440126Y-63056402D02*
X126563935Y-62592116D01*
X126563935Y-62592116D02*
X126687745Y-63056402D01*
X126687745Y-63056402D02*
X126842507Y-62406402D01*
X127090125Y-63056402D02*
X127090125Y-62406402D01*
X127090125Y-62406402D02*
X127244887Y-62406402D01*
X127244887Y-62406402D02*
X127337744Y-62437354D01*
X127337744Y-62437354D02*
X127399649Y-62499259D01*
X127399649Y-62499259D02*
X127430602Y-62561164D01*
X127430602Y-62561164D02*
X127461554Y-62684973D01*
X127461554Y-62684973D02*
X127461554Y-62777830D01*
X127461554Y-62777830D02*
X127430602Y-62901640D01*
X127430602Y-62901640D02*
X127399649Y-62963545D01*
X127399649Y-62963545D02*
X127337744Y-63025450D01*
X127337744Y-63025450D02*
X127244887Y-63056402D01*
X127244887Y-63056402D02*
X127090125Y-63056402D01*
X128173459Y-62623069D02*
X128328221Y-63056402D01*
X128328221Y-63056402D02*
X128482982Y-62623069D01*
X129071078Y-63056402D02*
X128699649Y-63056402D01*
X128885363Y-63056402D02*
X128885363Y-62406402D01*
X128885363Y-62406402D02*
X128823459Y-62499259D01*
X128823459Y-62499259D02*
X128761554Y-62561164D01*
X128761554Y-62561164D02*
X128699649Y-62592116D01*
X129349649Y-62994497D02*
X129380602Y-63025450D01*
X129380602Y-63025450D02*
X129349649Y-63056402D01*
X129349649Y-63056402D02*
X129318697Y-63025450D01*
X129318697Y-63025450D02*
X129349649Y-62994497D01*
X129349649Y-62994497D02*
X129349649Y-63056402D01*
X129999650Y-63056402D02*
X129628221Y-63056402D01*
X129813935Y-63056402D02*
X129813935Y-62406402D01*
X129813935Y-62406402D02*
X129752031Y-62499259D01*
X129752031Y-62499259D02*
X129690126Y-62561164D01*
X129690126Y-62561164D02*
X129628221Y-62592116D01*
D11*
X146704761Y-53642902D02*
X146704761Y-54169092D01*
X146704761Y-54169092D02*
X146735714Y-54230997D01*
X146735714Y-54230997D02*
X146766666Y-54261950D01*
X146766666Y-54261950D02*
X146828571Y-54292902D01*
X146828571Y-54292902D02*
X146952380Y-54292902D01*
X146952380Y-54292902D02*
X147014285Y-54261950D01*
X147014285Y-54261950D02*
X147045238Y-54230997D01*
X147045238Y-54230997D02*
X147076190Y-54169092D01*
X147076190Y-54169092D02*
X147076190Y-53642902D01*
X147354761Y-53704807D02*
X147385713Y-53673854D01*
X147385713Y-53673854D02*
X147447618Y-53642902D01*
X147447618Y-53642902D02*
X147602380Y-53642902D01*
X147602380Y-53642902D02*
X147664285Y-53673854D01*
X147664285Y-53673854D02*
X147695237Y-53704807D01*
X147695237Y-53704807D02*
X147726190Y-53766711D01*
X147726190Y-53766711D02*
X147726190Y-53828616D01*
X147726190Y-53828616D02*
X147695237Y-53921473D01*
X147695237Y-53921473D02*
X147323809Y-54292902D01*
X147323809Y-54292902D02*
X147726190Y-54292902D01*
X131804066Y-51792997D02*
X131773114Y-51823950D01*
X131773114Y-51823950D02*
X131680256Y-51854902D01*
X131680256Y-51854902D02*
X131618352Y-51854902D01*
X131618352Y-51854902D02*
X131525495Y-51823950D01*
X131525495Y-51823950D02*
X131463590Y-51762045D01*
X131463590Y-51762045D02*
X131432637Y-51700140D01*
X131432637Y-51700140D02*
X131401685Y-51576330D01*
X131401685Y-51576330D02*
X131401685Y-51483473D01*
X131401685Y-51483473D02*
X131432637Y-51359664D01*
X131432637Y-51359664D02*
X131463590Y-51297759D01*
X131463590Y-51297759D02*
X131525495Y-51235854D01*
X131525495Y-51235854D02*
X131618352Y-51204902D01*
X131618352Y-51204902D02*
X131680256Y-51204902D01*
X131680256Y-51204902D02*
X131773114Y-51235854D01*
X131773114Y-51235854D02*
X131804066Y-51266807D01*
X132361209Y-51421569D02*
X132361209Y-51854902D01*
X132206447Y-51173950D02*
X132051685Y-51638235D01*
X132051685Y-51638235D02*
X132454066Y-51638235D01*
X144111666Y-63510997D02*
X144080714Y-63541950D01*
X144080714Y-63541950D02*
X143987856Y-63572902D01*
X143987856Y-63572902D02*
X143925952Y-63572902D01*
X143925952Y-63572902D02*
X143833095Y-63541950D01*
X143833095Y-63541950D02*
X143771190Y-63480045D01*
X143771190Y-63480045D02*
X143740237Y-63418140D01*
X143740237Y-63418140D02*
X143709285Y-63294330D01*
X143709285Y-63294330D02*
X143709285Y-63201473D01*
X143709285Y-63201473D02*
X143740237Y-63077664D01*
X143740237Y-63077664D02*
X143771190Y-63015759D01*
X143771190Y-63015759D02*
X143833095Y-62953854D01*
X143833095Y-62953854D02*
X143925952Y-62922902D01*
X143925952Y-62922902D02*
X143987856Y-62922902D01*
X143987856Y-62922902D02*
X144080714Y-62953854D01*
X144080714Y-62953854D02*
X144111666Y-62984807D01*
X144359285Y-62984807D02*
X144390237Y-62953854D01*
X144390237Y-62953854D02*
X144452142Y-62922902D01*
X144452142Y-62922902D02*
X144606904Y-62922902D01*
X144606904Y-62922902D02*
X144668809Y-62953854D01*
X144668809Y-62953854D02*
X144699761Y-62984807D01*
X144699761Y-62984807D02*
X144730714Y-63046711D01*
X144730714Y-63046711D02*
X144730714Y-63108616D01*
X144730714Y-63108616D02*
X144699761Y-63201473D01*
X144699761Y-63201473D02*
X144328333Y-63572902D01*
X144328333Y-63572902D02*
X144730714Y-63572902D01*
X147771666Y-63612902D02*
X147554999Y-63303378D01*
X147400237Y-63612902D02*
X147400237Y-62962902D01*
X147400237Y-62962902D02*
X147647856Y-62962902D01*
X147647856Y-62962902D02*
X147709761Y-62993854D01*
X147709761Y-62993854D02*
X147740714Y-63024807D01*
X147740714Y-63024807D02*
X147771666Y-63086711D01*
X147771666Y-63086711D02*
X147771666Y-63179569D01*
X147771666Y-63179569D02*
X147740714Y-63241473D01*
X147740714Y-63241473D02*
X147709761Y-63272426D01*
X147709761Y-63272426D02*
X147647856Y-63303378D01*
X147647856Y-63303378D02*
X147400237Y-63303378D01*
X148328809Y-63179569D02*
X148328809Y-63612902D01*
X148174047Y-62931950D02*
X148019285Y-63396235D01*
X148019285Y-63396235D02*
X148421666Y-63396235D01*
X144091666Y-58292902D02*
X143874999Y-57983378D01*
X143720237Y-58292902D02*
X143720237Y-57642902D01*
X143720237Y-57642902D02*
X143967856Y-57642902D01*
X143967856Y-57642902D02*
X144029761Y-57673854D01*
X144029761Y-57673854D02*
X144060714Y-57704807D01*
X144060714Y-57704807D02*
X144091666Y-57766711D01*
X144091666Y-57766711D02*
X144091666Y-57859569D01*
X144091666Y-57859569D02*
X144060714Y-57921473D01*
X144060714Y-57921473D02*
X144029761Y-57952426D01*
X144029761Y-57952426D02*
X143967856Y-57983378D01*
X143967856Y-57983378D02*
X143720237Y-57983378D01*
X144308333Y-57642902D02*
X144710714Y-57642902D01*
X144710714Y-57642902D02*
X144494047Y-57890521D01*
X144494047Y-57890521D02*
X144586904Y-57890521D01*
X144586904Y-57890521D02*
X144648809Y-57921473D01*
X144648809Y-57921473D02*
X144679761Y-57952426D01*
X144679761Y-57952426D02*
X144710714Y-58014330D01*
X144710714Y-58014330D02*
X144710714Y-58169092D01*
X144710714Y-58169092D02*
X144679761Y-58230997D01*
X144679761Y-58230997D02*
X144648809Y-58261950D01*
X144648809Y-58261950D02*
X144586904Y-58292902D01*
X144586904Y-58292902D02*
X144401190Y-58292902D01*
X144401190Y-58292902D02*
X144339285Y-58261950D01*
X144339285Y-58261950D02*
X144308333Y-58230997D01*
X149899695Y-57606407D02*
X149837790Y-57575454D01*
X149837790Y-57575454D02*
X149775885Y-57513550D01*
X149775885Y-57513550D02*
X149683028Y-57420692D01*
X149683028Y-57420692D02*
X149621123Y-57389740D01*
X149621123Y-57389740D02*
X149559219Y-57389740D01*
X149590171Y-57544502D02*
X149528266Y-57513550D01*
X149528266Y-57513550D02*
X149466361Y-57451645D01*
X149466361Y-57451645D02*
X149435409Y-57327835D01*
X149435409Y-57327835D02*
X149435409Y-57111169D01*
X149435409Y-57111169D02*
X149466361Y-56987359D01*
X149466361Y-56987359D02*
X149528266Y-56925454D01*
X149528266Y-56925454D02*
X149590171Y-56894502D01*
X149590171Y-56894502D02*
X149713980Y-56894502D01*
X149713980Y-56894502D02*
X149775885Y-56925454D01*
X149775885Y-56925454D02*
X149837790Y-56987359D01*
X149837790Y-56987359D02*
X149868742Y-57111169D01*
X149868742Y-57111169D02*
X149868742Y-57327835D01*
X149868742Y-57327835D02*
X149837790Y-57451645D01*
X149837790Y-57451645D02*
X149775885Y-57513550D01*
X149775885Y-57513550D02*
X149713980Y-57544502D01*
X149713980Y-57544502D02*
X149590171Y-57544502D01*
X150487790Y-57544502D02*
X150116361Y-57544502D01*
X150302075Y-57544502D02*
X150302075Y-56894502D01*
X150302075Y-56894502D02*
X150240171Y-56987359D01*
X150240171Y-56987359D02*
X150178266Y-57049264D01*
X150178266Y-57049264D02*
X150116361Y-57080216D01*
X131498637Y-63654902D02*
X131498637Y-63004902D01*
X131498637Y-63004902D02*
X131653399Y-63004902D01*
X131653399Y-63004902D02*
X131746256Y-63035854D01*
X131746256Y-63035854D02*
X131808161Y-63097759D01*
X131808161Y-63097759D02*
X131839114Y-63159664D01*
X131839114Y-63159664D02*
X131870066Y-63283473D01*
X131870066Y-63283473D02*
X131870066Y-63376330D01*
X131870066Y-63376330D02*
X131839114Y-63500140D01*
X131839114Y-63500140D02*
X131808161Y-63562045D01*
X131808161Y-63562045D02*
X131746256Y-63623950D01*
X131746256Y-63623950D02*
X131653399Y-63654902D01*
X131653399Y-63654902D02*
X131498637Y-63654902D01*
X132489114Y-63654902D02*
X132117685Y-63654902D01*
X132303399Y-63654902D02*
X132303399Y-63004902D01*
X132303399Y-63004902D02*
X132241495Y-63097759D01*
X132241495Y-63097759D02*
X132179590Y-63159664D01*
X132179590Y-63159664D02*
X132117685Y-63190616D01*
X128307333Y-51154102D02*
X128307333Y-51618388D01*
X128307333Y-51618388D02*
X128276380Y-51711245D01*
X128276380Y-51711245D02*
X128214476Y-51773150D01*
X128214476Y-51773150D02*
X128121618Y-51804102D01*
X128121618Y-51804102D02*
X128059714Y-51804102D01*
X128957333Y-51804102D02*
X128585904Y-51804102D01*
X128771618Y-51804102D02*
X128771618Y-51154102D01*
X128771618Y-51154102D02*
X128709714Y-51246959D01*
X128709714Y-51246959D02*
X128647809Y-51308864D01*
X128647809Y-51308864D02*
X128585904Y-51339816D01*
X137172761Y-51357302D02*
X137172761Y-51883492D01*
X137172761Y-51883492D02*
X137203714Y-51945397D01*
X137203714Y-51945397D02*
X137234666Y-51976350D01*
X137234666Y-51976350D02*
X137296571Y-52007302D01*
X137296571Y-52007302D02*
X137420380Y-52007302D01*
X137420380Y-52007302D02*
X137482285Y-51976350D01*
X137482285Y-51976350D02*
X137513238Y-51945397D01*
X137513238Y-51945397D02*
X137544190Y-51883492D01*
X137544190Y-51883492D02*
X137544190Y-51357302D01*
X138194190Y-52007302D02*
X137822761Y-52007302D01*
X138008475Y-52007302D02*
X138008475Y-51357302D01*
X138008475Y-51357302D02*
X137946571Y-51450159D01*
X137946571Y-51450159D02*
X137884666Y-51512064D01*
X137884666Y-51512064D02*
X137822761Y-51543016D01*
X143991666Y-51592902D02*
X143774999Y-51283378D01*
X143620237Y-51592902D02*
X143620237Y-50942902D01*
X143620237Y-50942902D02*
X143867856Y-50942902D01*
X143867856Y-50942902D02*
X143929761Y-50973854D01*
X143929761Y-50973854D02*
X143960714Y-51004807D01*
X143960714Y-51004807D02*
X143991666Y-51066711D01*
X143991666Y-51066711D02*
X143991666Y-51159569D01*
X143991666Y-51159569D02*
X143960714Y-51221473D01*
X143960714Y-51221473D02*
X143929761Y-51252426D01*
X143929761Y-51252426D02*
X143867856Y-51283378D01*
X143867856Y-51283378D02*
X143620237Y-51283378D01*
X144548809Y-50942902D02*
X144424999Y-50942902D01*
X144424999Y-50942902D02*
X144363095Y-50973854D01*
X144363095Y-50973854D02*
X144332142Y-51004807D01*
X144332142Y-51004807D02*
X144270237Y-51097664D01*
X144270237Y-51097664D02*
X144239285Y-51221473D01*
X144239285Y-51221473D02*
X144239285Y-51469092D01*
X144239285Y-51469092D02*
X144270237Y-51530997D01*
X144270237Y-51530997D02*
X144301190Y-51561950D01*
X144301190Y-51561950D02*
X144363095Y-51592902D01*
X144363095Y-51592902D02*
X144486904Y-51592902D01*
X144486904Y-51592902D02*
X144548809Y-51561950D01*
X144548809Y-51561950D02*
X144579761Y-51530997D01*
X144579761Y-51530997D02*
X144610714Y-51469092D01*
X144610714Y-51469092D02*
X144610714Y-51314330D01*
X144610714Y-51314330D02*
X144579761Y-51252426D01*
X144579761Y-51252426D02*
X144548809Y-51221473D01*
X144548809Y-51221473D02*
X144486904Y-51190521D01*
X144486904Y-51190521D02*
X144363095Y-51190521D01*
X144363095Y-51190521D02*
X144301190Y-51221473D01*
X144301190Y-51221473D02*
X144270237Y-51252426D01*
X144270237Y-51252426D02*
X144239285Y-51314330D01*
X144976466Y-56274502D02*
X144759799Y-55964978D01*
X144605037Y-56274502D02*
X144605037Y-55624502D01*
X144605037Y-55624502D02*
X144852656Y-55624502D01*
X144852656Y-55624502D02*
X144914561Y-55655454D01*
X144914561Y-55655454D02*
X144945514Y-55686407D01*
X144945514Y-55686407D02*
X144976466Y-55748311D01*
X144976466Y-55748311D02*
X144976466Y-55841169D01*
X144976466Y-55841169D02*
X144945514Y-55903073D01*
X144945514Y-55903073D02*
X144914561Y-55934026D01*
X144914561Y-55934026D02*
X144852656Y-55964978D01*
X144852656Y-55964978D02*
X144605037Y-55964978D01*
X145224085Y-55686407D02*
X145255037Y-55655454D01*
X145255037Y-55655454D02*
X145316942Y-55624502D01*
X145316942Y-55624502D02*
X145471704Y-55624502D01*
X145471704Y-55624502D02*
X145533609Y-55655454D01*
X145533609Y-55655454D02*
X145564561Y-55686407D01*
X145564561Y-55686407D02*
X145595514Y-55748311D01*
X145595514Y-55748311D02*
X145595514Y-55810216D01*
X145595514Y-55810216D02*
X145564561Y-55903073D01*
X145564561Y-55903073D02*
X145193133Y-56274502D01*
X145193133Y-56274502D02*
X145595514Y-56274502D01*
X150252933Y-59586902D02*
X150252933Y-60051188D01*
X150252933Y-60051188D02*
X150221980Y-60144045D01*
X150221980Y-60144045D02*
X150160076Y-60205950D01*
X150160076Y-60205950D02*
X150067218Y-60236902D01*
X150067218Y-60236902D02*
X150005314Y-60236902D01*
X150500552Y-59586902D02*
X150902933Y-59586902D01*
X150902933Y-59586902D02*
X150686266Y-59834521D01*
X150686266Y-59834521D02*
X150779123Y-59834521D01*
X150779123Y-59834521D02*
X150841028Y-59865473D01*
X150841028Y-59865473D02*
X150871980Y-59896426D01*
X150871980Y-59896426D02*
X150902933Y-59958330D01*
X150902933Y-59958330D02*
X150902933Y-60113092D01*
X150902933Y-60113092D02*
X150871980Y-60174997D01*
X150871980Y-60174997D02*
X150841028Y-60205950D01*
X150841028Y-60205950D02*
X150779123Y-60236902D01*
X150779123Y-60236902D02*
X150593409Y-60236902D01*
X150593409Y-60236902D02*
X150531504Y-60205950D01*
X150531504Y-60205950D02*
X150500552Y-60174997D01*
X128358133Y-58774102D02*
X128358133Y-59238388D01*
X128358133Y-59238388D02*
X128327180Y-59331245D01*
X128327180Y-59331245D02*
X128265276Y-59393150D01*
X128265276Y-59393150D02*
X128172418Y-59424102D01*
X128172418Y-59424102D02*
X128110514Y-59424102D01*
X128636704Y-58836007D02*
X128667656Y-58805054D01*
X128667656Y-58805054D02*
X128729561Y-58774102D01*
X128729561Y-58774102D02*
X128884323Y-58774102D01*
X128884323Y-58774102D02*
X128946228Y-58805054D01*
X128946228Y-58805054D02*
X128977180Y-58836007D01*
X128977180Y-58836007D02*
X129008133Y-58897911D01*
X129008133Y-58897911D02*
X129008133Y-58959816D01*
X129008133Y-58959816D02*
X128977180Y-59052673D01*
X128977180Y-59052673D02*
X128605752Y-59424102D01*
X128605752Y-59424102D02*
X129008133Y-59424102D01*
X131870066Y-62492902D02*
X131653399Y-62183378D01*
X131498637Y-62492902D02*
X131498637Y-61842902D01*
X131498637Y-61842902D02*
X131746256Y-61842902D01*
X131746256Y-61842902D02*
X131808161Y-61873854D01*
X131808161Y-61873854D02*
X131839114Y-61904807D01*
X131839114Y-61904807D02*
X131870066Y-61966711D01*
X131870066Y-61966711D02*
X131870066Y-62059569D01*
X131870066Y-62059569D02*
X131839114Y-62121473D01*
X131839114Y-62121473D02*
X131808161Y-62152426D01*
X131808161Y-62152426D02*
X131746256Y-62183378D01*
X131746256Y-62183378D02*
X131498637Y-62183378D01*
X132489114Y-62492902D02*
X132117685Y-62492902D01*
X132303399Y-62492902D02*
X132303399Y-61842902D01*
X132303399Y-61842902D02*
X132241495Y-61935759D01*
X132241495Y-61935759D02*
X132179590Y-61997664D01*
X132179590Y-61997664D02*
X132117685Y-62028616D01*
X131844666Y-61405302D02*
X131627999Y-61095778D01*
X131473237Y-61405302D02*
X131473237Y-60755302D01*
X131473237Y-60755302D02*
X131720856Y-60755302D01*
X131720856Y-60755302D02*
X131782761Y-60786254D01*
X131782761Y-60786254D02*
X131813714Y-60817207D01*
X131813714Y-60817207D02*
X131844666Y-60879111D01*
X131844666Y-60879111D02*
X131844666Y-60971969D01*
X131844666Y-60971969D02*
X131813714Y-61033873D01*
X131813714Y-61033873D02*
X131782761Y-61064826D01*
X131782761Y-61064826D02*
X131720856Y-61095778D01*
X131720856Y-61095778D02*
X131473237Y-61095778D01*
X132432761Y-60755302D02*
X132123237Y-60755302D01*
X132123237Y-60755302D02*
X132092285Y-61064826D01*
X132092285Y-61064826D02*
X132123237Y-61033873D01*
X132123237Y-61033873D02*
X132185142Y-61002921D01*
X132185142Y-61002921D02*
X132339904Y-61002921D01*
X132339904Y-61002921D02*
X132401809Y-61033873D01*
X132401809Y-61033873D02*
X132432761Y-61064826D01*
X132432761Y-61064826D02*
X132463714Y-61126730D01*
X132463714Y-61126730D02*
X132463714Y-61281492D01*
X132463714Y-61281492D02*
X132432761Y-61343397D01*
X132432761Y-61343397D02*
X132401809Y-61374350D01*
X132401809Y-61374350D02*
X132339904Y-61405302D01*
X132339904Y-61405302D02*
X132185142Y-61405302D01*
X132185142Y-61405302D02*
X132123237Y-61374350D01*
X132123237Y-61374350D02*
X132092285Y-61343397D01*
X134101666Y-63630997D02*
X134070714Y-63661950D01*
X134070714Y-63661950D02*
X133977856Y-63692902D01*
X133977856Y-63692902D02*
X133915952Y-63692902D01*
X133915952Y-63692902D02*
X133823095Y-63661950D01*
X133823095Y-63661950D02*
X133761190Y-63600045D01*
X133761190Y-63600045D02*
X133730237Y-63538140D01*
X133730237Y-63538140D02*
X133699285Y-63414330D01*
X133699285Y-63414330D02*
X133699285Y-63321473D01*
X133699285Y-63321473D02*
X133730237Y-63197664D01*
X133730237Y-63197664D02*
X133761190Y-63135759D01*
X133761190Y-63135759D02*
X133823095Y-63073854D01*
X133823095Y-63073854D02*
X133915952Y-63042902D01*
X133915952Y-63042902D02*
X133977856Y-63042902D01*
X133977856Y-63042902D02*
X134070714Y-63073854D01*
X134070714Y-63073854D02*
X134101666Y-63104807D01*
X134318333Y-63042902D02*
X134720714Y-63042902D01*
X134720714Y-63042902D02*
X134504047Y-63290521D01*
X134504047Y-63290521D02*
X134596904Y-63290521D01*
X134596904Y-63290521D02*
X134658809Y-63321473D01*
X134658809Y-63321473D02*
X134689761Y-63352426D01*
X134689761Y-63352426D02*
X134720714Y-63414330D01*
X134720714Y-63414330D02*
X134720714Y-63569092D01*
X134720714Y-63569092D02*
X134689761Y-63630997D01*
X134689761Y-63630997D02*
X134658809Y-63661950D01*
X134658809Y-63661950D02*
X134596904Y-63692902D01*
X134596904Y-63692902D02*
X134411190Y-63692902D01*
X134411190Y-63692902D02*
X134349285Y-63661950D01*
X134349285Y-63661950D02*
X134318333Y-63630997D01*
D12*
%TO.C,U2*%
X147399600Y-51975000D02*
G75*
G02*
X147199600Y-51975000I-100000J0D01*
G01*
X147199600Y-51975000D02*
G75*
G02*
X147399600Y-51975000I100000J0D01*
G01*
D13*
X148269600Y-51925000D02*
X152669600Y-51925000D01*
X148269600Y-52085000D02*
X148269600Y-51925000D01*
X148269600Y-56025000D02*
X148269600Y-55865000D01*
X152669600Y-51925000D02*
X152669600Y-52085000D01*
X152669600Y-56025000D02*
X148269600Y-56025000D01*
X152669600Y-56025000D02*
X152669600Y-55865000D01*
D14*
%TO.C,C4*%
X132173652Y-52274800D02*
X131651148Y-52274800D01*
X132173652Y-53744800D02*
X131651148Y-53744800D01*
%TO.C,C2*%
X144472252Y-61037800D02*
X143949748Y-61037800D01*
X144472252Y-62507800D02*
X143949748Y-62507800D01*
%TO.C,R4*%
X148107764Y-61088600D02*
X147653636Y-61088600D01*
X148107764Y-62558600D02*
X147653636Y-62558600D01*
%TO.C,R3*%
X143996036Y-58574000D02*
X144450164Y-58574000D01*
X143996036Y-60044000D02*
X144450164Y-60044000D01*
%TO.C,Q1*%
X148262100Y-56860000D02*
X147612100Y-56860000D01*
X148262100Y-56860000D02*
X148912100Y-56860000D01*
X148262100Y-59980000D02*
X147612100Y-59980000D01*
X148262100Y-59980000D02*
X148912100Y-59980000D01*
X147099600Y-56910000D02*
X146859600Y-56580000D01*
X147339600Y-56580000D01*
X147099600Y-56910000D01*
G36*
X147099600Y-56910000D02*
G01*
X146859600Y-56580000D01*
X147339600Y-56580000D01*
X147099600Y-56910000D01*
G37*
%TO.C,D1*%
X130270300Y-58679200D02*
X130270300Y-60599200D01*
X130270300Y-60599200D02*
X132955300Y-60599200D01*
X132955300Y-58679200D02*
X130270300Y-58679200D01*
%TO.C,J1*%
X126331200Y-51802600D02*
X127711200Y-51802600D01*
X126331200Y-53182600D02*
X126331200Y-51802600D01*
X126331200Y-54452600D02*
X126331200Y-57102600D01*
X126331200Y-54452600D02*
X129091200Y-54452600D01*
X126331200Y-57102600D02*
X129091200Y-57102600D01*
X129091200Y-54452600D02*
X129091200Y-57102600D01*
%TO.C,U1*%
X137660000Y-52405200D02*
X135710000Y-52405200D01*
X137660000Y-52405200D02*
X139610000Y-52405200D01*
X137660000Y-57525200D02*
X135710000Y-57525200D01*
X137660000Y-57525200D02*
X139610000Y-57525200D01*
X134960000Y-52500200D02*
X134720000Y-52170200D01*
X135200000Y-52170200D01*
X134960000Y-52500200D01*
G36*
X134960000Y-52500200D02*
G01*
X134720000Y-52170200D01*
X135200000Y-52170200D01*
X134960000Y-52500200D01*
G37*
%TO.C,R6*%
X144370164Y-51843000D02*
X143916036Y-51843000D01*
X144370164Y-53313000D02*
X143916036Y-53313000D01*
%TO.C,R2*%
X142749600Y-55756436D02*
X142749600Y-56210564D01*
X144219600Y-55756436D02*
X144219600Y-56210564D01*
%TO.C,J3*%
X151477200Y-57294000D02*
X152857200Y-57294000D01*
X151477200Y-58674000D02*
X151477200Y-57294000D01*
X151477200Y-59944000D02*
X151477200Y-62594000D01*
X151477200Y-59944000D02*
X154237200Y-59944000D01*
X151477200Y-62594000D02*
X154237200Y-62594000D01*
X154237200Y-59944000D02*
X154237200Y-62594000D01*
%TO.C,J2*%
X126331200Y-59427600D02*
X127711200Y-59427600D01*
X126331200Y-60807600D02*
X126331200Y-59427600D01*
X126331200Y-62077600D02*
X126331200Y-62187600D01*
X126331200Y-62077600D02*
X129091200Y-62077600D01*
X126331200Y-62187600D02*
X129091200Y-62187600D01*
X129091200Y-62077600D02*
X129091200Y-62187600D01*
%TO.C,R1*%
X131749436Y-56669000D02*
X132203564Y-56669000D01*
X131749436Y-58139000D02*
X132203564Y-58139000D01*
%TO.C,R5*%
X132176964Y-54510000D02*
X131722836Y-54510000D01*
X132176964Y-55980000D02*
X131722836Y-55980000D01*
%TO.C,C3*%
X141734600Y-62543400D02*
X141109600Y-62543400D01*
X141422100Y-62855900D02*
X141422100Y-62230900D01*
X140869600Y-62553963D02*
X140869600Y-61918400D01*
X140869600Y-62553963D02*
X139805163Y-63618400D01*
X140869600Y-59162837D02*
X140869600Y-59798400D01*
X140869600Y-59162837D02*
X139805163Y-58098400D01*
X139805163Y-63618400D02*
X135349600Y-63618400D01*
X139805163Y-58098400D02*
X135349600Y-58098400D01*
X135349600Y-63618400D02*
X135349600Y-61918400D01*
X135349600Y-58098400D02*
X135349600Y-59798400D01*
%TD*%
M02*
